<svg width="100" height="100" viewBox="0 0 100 100" xmlns="http://www.w3.org/2000/svg">
 <path d="m69.536 100h-39.075c-2.9187-0.76829-4.5391-3.7521-6.7983-5.627-7.6116-7.6112-15.223-15.222-22.835-22.834-1.5188-2.6082-0.55581-5.863-0.82713-8.7863v-32.294c0.76839-2.9186 3.7523-4.5389 5.6272-6.798 7.6116-7.6112 15.223-15.222 22.835-22.834 2.6082-1.5187 5.863-0.5558 8.7864-0.82709h32.291c2.9187 0.76829 4.5391 3.7521 6.7983 5.627 7.6116 7.6112 15.223 15.222 22.835 22.834 1.5188 2.6082 0.55581 5.863 0.82713 8.7863v32.29c-0.76838 2.9186-3.7523 4.5389-5.6272 6.798-7.6116 7.6112-15.223 15.222-22.835 22.834l-0.918 0.61651zm-37.904-5.6591h36.733c8.6587-8.6584 17.317-17.317 25.976-25.975v-36.732l-25.976-25.975h-36.733c-8.6587 8.6584-17.317 17.317-25.976 25.975v36.736c8.6587 8.6569 17.317 17.314 25.976 25.971z"/><path d="m49.982 21.957c-8.0028 2.2011-16.006 4.4022-24.008 6.6033v27.015c1.86 8.5373 7.8072 15.618 14.487 20.961 2.9006 2.2434 6.0777 4.1685 9.5213 5.4537 9.762-3.7726 18.163-11.4 22.437-21.001 1.1914-2.6209 1.7629-5.4668 1.5711-8.3354v-24.094c-8.0028-2.2011-16.006-4.4022-24.008-6.6033zm0 3.502v52.029c-8.0919-3.2235-14.82-9.6377-18.857-17.315-1.2663-2.4886-2.2019-5.218-1.9505-8.0381v-20.952c6.9357-1.9077 13.871-3.8155 20.807-5.7232z"/>
</svg>
