<?xml version="1.0" encoding="UTF-8" standalone="no"?>
<svg
   xmlns:dc="http://purl.org/dc/elements/1.1/"
   xmlns:cc="http://creativecommons.org/ns#"
   xmlns:rdf="http://www.w3.org/1999/02/22-rdf-syntax-ns#"
   xmlns:svg="http://www.w3.org/2000/svg"
   xmlns="http://www.w3.org/2000/svg"
   xmlns:sodipodi="http://sodipodi.sourceforge.net/DTD/sodipodi-0.dtd"
   xmlns:inkscape="http://www.inkscape.org/namespaces/inkscape"
   height="100mm"
   width="100mm"
   version="1.1"
   x="0px"
   y="0px"
   viewBox="0 0 30.23622 30.23622"
   enable-background="new 0 0 24 24"
   xml:space="preserve"
   id="svg4"
   sodipodi:docname="concentration.svg"
   style="fill:#000000"
   inkscape:version="0.92.4 (5da689c313, 2019-01-14)"><metadata
     id="metadata10"><rdf:RDF><cc:Work
         rdf:about=""><dc:format>image/svg+xml</dc:format><dc:type
           rdf:resource="http://purl.org/dc/dcmitype/StillImage" /><dc:title></dc:title></cc:Work></rdf:RDF></metadata><defs
     id="defs8" /><sodipodi:namedview
     pagecolor="#ffffff"
     bordercolor="#666666"
     borderopacity="1"
     objecttolerance="10"
     gridtolerance="10"
     guidetolerance="10"
     inkscape:pageopacity="0"
     inkscape:pageshadow="2"
     inkscape:window-width="1366"
     inkscape:window-height="715"
     id="namedview6"
     showgrid="false"
     inkscape:document-units="mm"
     units="mm"
     inkscape:zoom="1.1125147"
     inkscape:cx="218.08725"
     inkscape:cy="185.95458"
     inkscape:window-x="-8"
     inkscape:window-y="-8"
     inkscape:window-maximized="1"
     inkscape:current-layer="svg4" /><path
     style="stroke-width:16.45311546"
     d="M 115.125 0 C 112.295 8.8817842e-16 109.57959 1.1197165 107.57227 3.1269531 L 3.1269531 107.56836 C 1.1196293 109.55914 0 112.28927 0 115.11914 L 0 262.83203 C -2.9605947e-16 265.66191 1.1196293 268.37753 3.1269531 270.38477 L 107.57227 374.82617 C 109.56314 376.83332 112.295 377.95312 115.125 377.95312 L 262.81055 377.95312 C 265.657 377.95312 268.37353 376.83423 270.38086 374.81055 L 374.82617 270.36914 C 376.83346 268.37835 377.95312 265.64628 377.95312 262.81641 L 377.95312 115.11914 C 377.95312 112.28927 376.8335 109.5756 374.82617 107.56836 L 270.38086 3.1269531 C 268.38998 1.1197165 265.65813 0 262.82812 0 L 115.125 0 z M 188.64062 66.142578 L 122.95312 179.73242 L 87.890625 119.10156 C 109.99595 87.191685 146.86456 66.255403 188.64062 66.142578 z M 199.70898 66.861328 C 240.53185 70.390792 275.63891 93.107241 295.21875 127.44531 L 164.66992 127.44531 L 199.70898 66.861328 z M 81.941406 128.80469 L 147.64648 242.72266 L 78.419922 242.72266 C 70.556048 225.55362 66.142578 208.2916 66.142578 189.11133 C 66.142578 167.23307 71.886162 146.5869 81.941406 128.80469 z M 231.08008 137.25586 L 300.21484 137.25586 C 307.6488 151.97218 311.81055 170.5655 311.81055 189.18164 C 311.81055 211.08197 306.05486 231.5048 295.98242 249.29688 L 231.08008 137.25586 z M 255.77148 199.34961 L 290 258.54297 C 268.17965 289.97457 232.02935 310.72744 190.98047 311.38477 L 255.77148 199.34961 z M 83.585938 252.5332 L 214.05664 252.5332 L 179.79102 311.81055 C 138.89691 308.79125 103.57359 284.41856 83.585938 252.5332 z "
     id="path2"
     transform="scale(0.08)" /><g
     style="fill:#ffffff"
     id="g4"
     transform="matrix(0.19653543,0,0,0.19621756,5.2913385,5.2901608)" /><g
     style="fill:#ffffff"
     id="g8"
     transform="matrix(0.19653543,0,0,0.19621756,5.2913385,5.2901608)" /><g
     style="fill:#ffffff"
     id="g12"
     transform="matrix(0.19653543,0,0,0.19621756,5.2913385,5.2901608)" /><g
     style="fill:#ffffff"
     id="g16"
     transform="matrix(0.19653543,0,0,0.19621756,5.2913385,5.2901608)" /><g
     style="fill:#ffffff"
     id="g20"
     transform="matrix(0.19653543,0,0,0.19621756,5.2913385,5.2901608)" /><g
     style="fill:#ffffff"
     id="g24"
     transform="matrix(0.19653543,0,0,0.19621756,5.2913385,5.2901608)" /></svg>