<svg width="100" height="100" viewBox="0 0 100 100" xmlns="http://www.w3.org/2000/svg">
 <path d="m69.536 100h-39.075c-4.7325-2.3613-7.7121-6.9799-11.603-10.432-6.0099-6.0097-12.02-12.019-18.03-18.029-1.6748-5.0166-0.51699-10.389-0.82713-15.581v-25.499c2.3615-4.7324 6.9802-7.7118 10.432-11.603 6.0099-6.0097 12.02-12.019 18.03-18.029 5.0167-1.6747 10.389-0.51698 15.581-0.82709h25.496c5.0621 2.5392 8.1495 7.6196 12.393 11.221 5.7467 5.7464 11.493 11.493 17.24 17.239 1.6747 5.0166 0.517 10.389 0.82713 15.581v25.495c-3.5432 6.108-9.6293 10.098-14.219 15.344-5.1375 4.9719-9.8801 10.531-15.439 14.959-0.26891 0.053294-0.53783 0.10659-0.80674 0.15988zm-37.904-5.6591h36.733c8.6587-8.6584 17.317-17.317 25.976-25.975v-36.732l-25.976-25.975h-36.733c-8.6587 8.6584-17.317 17.317-25.976 25.975v36.736c8.6587 8.6569 17.317 17.314 25.976 25.971z"/><path d="m49.911 17.5c-5.7933 10.018-11.587 20.036-17.38 30.054-3.0923-5.3473-6.1846-10.695-9.2769-16.042 5.8874-8.6399 16.195-14.084 26.657-14.012zm2.9285 0.19017c10.359 0.7782 20.202 6.9361 25.27 16.029h-34.541c3.0902-5.3432 6.1805-10.686 9.2708-16.029zm-31.159 16.389c5.7948 10.047 11.59 20.094 17.384 30.141h-18.316c-4.5779-9.402-4.3143-21.06 0.93173-30.141zm39.46 2.236h18.292c4.5021 9.2716 3.995 20.722-1.1198 29.644l-17.172-29.644zm6.5329 16.429c3.0188 5.2205 6.0375 10.441 9.0563 15.662-5.8084 8.501-15.897 13.909-26.199 13.981 5.7142-9.8809 11.428-19.762 17.143-29.643zm-45.557 14.071h34.52c-3.022 5.2279-6.0441 10.456-9.0661 15.684-10.359-0.72243-19.993-6.9372-25.454-15.684z"/>
</svg>
