<?xml version="1.0" encoding="UTF-8" standalone="no"?>
<svg
   xmlns:dc="http://purl.org/dc/elements/1.1/"
   xmlns:cc="http://creativecommons.org/ns#"
   xmlns:rdf="http://www.w3.org/1999/02/22-rdf-syntax-ns#"
   xmlns:svg="http://www.w3.org/2000/svg"
   xmlns="http://www.w3.org/2000/svg"
   xmlns:sodipodi="http://sodipodi.sourceforge.net/DTD/sodipodi-0.dtd"
   xmlns:inkscape="http://www.inkscape.org/namespaces/inkscape"
   height="100mm"
   width="120mm"
   version="1.1"
   x="0px"
   y="0px"
   viewBox="0 0 120 100"
   enable-background="new 0 0 24 24"
   xml:space="preserve"
   id="svg4"
   sodipodi:docname="concentration.svg"
   style="fill:#000000"
   inkscape:version="1.0.2-2 (e86c870879, 2021-01-15)"><metadata
     id="metadata10"><rdf:RDF><cc:Work
         rdf:about=""><dc:format>image/svg+xml</dc:format><dc:type
           rdf:resource="http://purl.org/dc/dcmitype/StillImage" /><dc:title></dc:title></cc:Work></rdf:RDF></metadata><defs
     id="defs8" /><sodipodi:namedview
     pagecolor="#ffffff"
     bordercolor="#666666"
     borderopacity="1"
     objecttolerance="10"
     gridtolerance="10"
     guidetolerance="10"
     inkscape:pageopacity="0"
     inkscape:pageshadow="2"
     inkscape:window-width="1920"
     inkscape:window-height="1001"
     id="namedview6"
     showgrid="false"
     inkscape:document-units="mm"
     units="mm"
     inkscape:zoom="1.1125147"
     inkscape:cx="218.08725"
     inkscape:cy="185.95458"
     inkscape:window-x="-9"
     inkscape:window-y="-9"
     inkscape:window-maximized="1"
     inkscape:current-layer="svg4"
     inkscape:document-rotation="0" /><path
     style="stroke-width:4.35321"
     d="m 40.460127,0 c -0.74877,0 -1.467222,0.296258 -1.998325,0.827339 L 10.827339,28.460768 C 10.296235,28.987495 10,29.709841 10,30.458576 v 39.082332 c 0,0.748738 0.296235,1.467245 0.827339,1.998327 L 38.461802,99.17266 C 38.988553,99.70372 39.711357,100 40.460127,100 h 39.075097 c 0.753123,0 1.471871,-0.29604 2.002976,-0.83147 L 109.17266,71.535099 C 109.70376,71.00837 110,70.285511 110,69.536775 V 30.458576 c 0,-0.748735 -0.29623,-1.466726 -0.82734,-1.997808 L 81.5382,0.827339 C 81.011447,0.296258 80.288646,0 79.539873,0 Z m 19.450989,17.500207 -17.379801,30.05395 -9.276943,-16.0419 c 5.848695,-8.442813 15.603505,-13.982199 26.656744,-14.01205 z m 2.928501,0.190169 c 10.80104,0.933836 20.089774,6.944224 25.270269,16.029496 H 53.568874 Z M 31.680309,34.079541 49.06476,64.220309 H 30.748584 c -2.080648,-4.542638 -3.248377,-9.109876 -3.248377,-14.184651 0,-5.788618 1.519655,-11.251245 4.180102,-15.956117 z m 39.45957,2.236037 h 18.291888 c 1.9669,3.893689 3.068028,8.813167 3.068028,13.738683 0,5.794456 -1.522858,11.197992 -4.187855,15.905475 z m 6.532927,16.428956 9.056287,15.661561 C 80.955797,76.722364 71.39104,82.213223 60.530201,82.387141 Z M 32.115425,66.816011 h 34.52034 L 57.569662,82.499795 C 46.749772,81.70094 37.403819,75.252338 32.115425,66.816011 Z"
     id="path2" /><g
     style="fill:#ffffff"
     id="g4"
     transform="matrix(0.19653543,0,0,0.19621756,5.2913385,5.2901608)" /><g
     style="fill:#ffffff"
     id="g8"
     transform="matrix(0.19653543,0,0,0.19621756,5.2913385,5.2901608)" /><g
     style="fill:#ffffff"
     id="g12"
     transform="matrix(0.19653543,0,0,0.19621756,5.2913385,5.2901608)" /><g
     style="fill:#ffffff"
     id="g16"
     transform="matrix(0.19653543,0,0,0.19621756,5.2913385,5.2901608)" /><g
     style="fill:#ffffff"
     id="g20"
     transform="matrix(0.19653543,0,0,0.19621756,5.2913385,5.2901608)" /><g
     style="fill:#ffffff"
     id="g24"
     transform="matrix(0.19653543,0,0,0.19621756,5.2913385,5.2901608)" /></svg>
