<?xml version="1.0" encoding="UTF-8" standalone="no"?>
<svg
   xmlns:dc="http://purl.org/dc/elements/1.1/"
   xmlns:cc="http://creativecommons.org/ns#"
   xmlns:rdf="http://www.w3.org/1999/02/22-rdf-syntax-ns#"
   xmlns:svg="http://www.w3.org/2000/svg"
   xmlns="http://www.w3.org/2000/svg"
   xmlns:sodipodi="http://sodipodi.sourceforge.net/DTD/sodipodi-0.dtd"
   xmlns:inkscape="http://www.inkscape.org/namespaces/inkscape"
   height="100mm"
   width="100mm"
   version="1.1"
   x="0px"
   y="0px"
   viewBox="0 0 30.23622 30.23622"
   enable-background="new 0 0 24 24"
   xml:space="preserve"
   id="svg4"
   sodipodi:docname="conjuration.svg"
   style="fill:#000000"
   inkscape:version="0.92.4 (5da689c313, 2019-01-14)"><metadata
     id="metadata10"><rdf:RDF><cc:Work
         rdf:about=""><dc:format>image/svg+xml</dc:format><dc:type
           rdf:resource="http://purl.org/dc/dcmitype/StillImage" /><dc:title></dc:title></cc:Work></rdf:RDF></metadata><defs
     id="defs8" /><sodipodi:namedview
     pagecolor="#ffffff"
     bordercolor="#666666"
     borderopacity="1"
     objecttolerance="10"
     gridtolerance="10"
     guidetolerance="10"
     inkscape:pageopacity="0"
     inkscape:pageshadow="2"
     inkscape:window-width="1366"
     inkscape:window-height="715"
     id="namedview6"
     showgrid="false"
     inkscape:document-units="mm"
     units="mm"
     inkscape:zoom="0.78666667"
     inkscape:cx="150"
     inkscape:cy="150"
     inkscape:window-x="-8"
     inkscape:window-y="-8"
     inkscape:window-maximized="1"
     inkscape:current-layer="svg4" /><path
     d="M 21.024907,30.23622 H 9.2099965 c -0.2263998,0 -0.4449019,-0.08951 -0.6041716,-0.250082 L 0.2500928,21.63077 C 0.0895069,21.470191 0,21.253014 0,21.026624 V 9.2095956 C 0,8.9832057 0.0895069,8.7647131 0.2500928,8.6054503 L 8.6058249,0.25008216 C 8.7664109,0.08950323 8.9835967,2.3069408e-7 9.2099965,2.3069408e-7 H 21.026223 c 0.2264,0 0.444902,0.0895029993059 0.604172,0.25008192930592 l 8.355732,8.35536814 c 0.160586,0.1605789 0.250093,0.3777554 0.250093,0.6041453 V 21.025308 c 0,0.22639 -0.08951,0.444883 -0.250093,0.604146 l -8.355732,8.355368 c -0.160586,0.161895 -0.377772,0.251398 -0.605488,0.251398 z M 9.5640753,28.525133 H 20.670828 l 7.85423,-7.853889 V 9.5649752 L 20.670828,1.711087 H 9.5640753 L 1.709845,9.5649752 V 20.672561 Z"
     id="path2"
     inkscape:connector-curvature="0"
     style="stroke-width:1.31624925" /><g
     transform="matrix(0.29895896,0,0,0.29895708,0.17077092,1.1147661)"
     id="g18"><path
       style="fill:#000000"
       inkscape:connector-curvature="0"
       d="M 65.954,52.184 82.56,39.105 c 0.996,-0.786 1.392,-2.114 0.985,-3.316 -0.405,-1.203 -1.524,-2.02 -2.795,-2.04 L 59.86,33.415 52.827,13.445 c -0.424,-1.2 -1.559,-2.003 -2.83,-2.003 -1.272,0 -2.407,0.803 -2.83,2.003 l -7.037,19.97 -20.886,0.334 c -1.269,0.02 -2.388,0.837 -2.794,2.04 -0.406,1.203 -0.012,2.531 0.985,3.316 L 34.031,52.184 28.143,71.99 c -0.36,1.211 0.078,2.52 1.095,3.27 1.019,0.75 2.397,0.781 3.447,0.08 L 49.997,63.778 67.309,75.34 c 0.506,0.338 1.086,0.506 1.666,0.506 0.627,0 1.254,-0.197 1.781,-0.586 1.018,-0.752 1.455,-2.06 1.094,-3.271 z"
       id="path2-1" /><path
       d="m 49.999,70.467 c -1.657,0 -2.957036,1.344557 -3,3 l -0.149811,5.772299 c -0.04299,1.656442 1.343,3 3,3 1.657,0 2.95701,-1.343558 3,-3 L 52.999,73.467 c 0.04296,-1.655443 -1.343,-3 -3,-3 z"
       id="path4"
       inkscape:connector-curvature="0"
       style="fill:#000000"
       sodipodi:nodetypes="sssssss" /><path
       style="fill:#000000"
       inkscape:connector-curvature="0"
       d="m 81.648,54.027 -5.399,-1.791 c -1.58,-0.521 -3.271,0.33 -3.793,1.902 -0.521,1.572 0.33,3.271 1.901,3.793 l 5.4,1.791 c 0.314,0.104 0.633,0.153 0.945,0.153 1.258,0 2.43,-0.797 2.848,-2.058 0.522,-1.569 -0.327,-3.266 -1.902,-3.79 z"
       id="path10" /><path
       style="fill:#000000"
       inkscape:connector-curvature="0"
       d="m 63.867,27.756 c 0.533,0.392 1.154,0.58 1.771,0.58 0.922,0 1.834,-0.425 2.422,-1.227 l 3.338,-4.557 c 0.979,-1.337 0.688,-3.214 -0.647,-4.193 -1.333,-0.978 -3.211,-0.691 -4.192,0.647 l -3.338,4.557 c -0.981,1.337 -0.692,3.214 0.646,4.193 z"
       id="path12" /><path
       style="fill:#000000"
       inkscape:connector-curvature="0"
       d="m 31.94,27.109 c 0.587,0.802 1.499,1.227 2.422,1.227 0.615,0 1.236,-0.188 1.771,-0.58 1.336,-0.979 1.626,-2.856 0.647,-4.193 l -3.338,-4.557 c -0.979,-1.337 -2.856,-1.626 -4.193,-0.647 -1.336,0.979 -1.626,2.856 -0.647,4.193 z"
       id="path14" /><path
       style="fill:#000000"
       inkscape:connector-curvature="0"
       d="m 23.751,52.236 -5.401,1.791 c -1.572,0.522 -2.424,2.221 -1.902,3.793 0.417,1.26 1.589,2.057 2.847,2.057 0.313,0 0.632,-0.05 0.945,-0.152 l 5.401,-1.793 c 1.572,-0.521 2.424,-2.22 1.902,-3.791 -0.521,-1.575 -2.217,-2.422 -3.792,-1.905 z"
       id="path16" /></g></svg>