<?xml version="1.0" encoding="UTF-8" standalone="no"?>
<svg
   xmlns:dc="http://purl.org/dc/elements/1.1/"
   xmlns:cc="http://creativecommons.org/ns#"
   xmlns:rdf="http://www.w3.org/1999/02/22-rdf-syntax-ns#"
   xmlns:svg="http://www.w3.org/2000/svg"
   xmlns="http://www.w3.org/2000/svg"
   xmlns:sodipodi="http://sodipodi.sourceforge.net/DTD/sodipodi-0.dtd"
   xmlns:inkscape="http://www.inkscape.org/namespaces/inkscape"
   height="100mm"
   width="120mm"
   version="1.1"
   x="0px"
   y="0px"
   viewBox="0 0 120 100"
   enable-background="new 0 0 24 24"
   xml:space="preserve"
   id="svg4"
   sodipodi:docname="divination.svg"
   style="fill:#000000"
   inkscape:version="1.0.2-2 (e86c870879, 2021-01-15)"><metadata
     id="metadata10"><rdf:RDF><cc:Work
         rdf:about=""><dc:format>image/svg+xml</dc:format><dc:type
           rdf:resource="http://purl.org/dc/dcmitype/StillImage" /><dc:title></dc:title></cc:Work></rdf:RDF></metadata><defs
     id="defs8" /><sodipodi:namedview
     pagecolor="#ffffff"
     bordercolor="#666666"
     borderopacity="1"
     objecttolerance="10"
     gridtolerance="10"
     guidetolerance="10"
     inkscape:pageopacity="0"
     inkscape:pageshadow="2"
     inkscape:window-width="1920"
     inkscape:window-height="1001"
     id="namedview6"
     showgrid="false"
     inkscape:document-units="mm"
     units="mm"
     inkscape:zoom="1.5733333"
     inkscape:cx="150"
     inkscape:cy="226.27119"
     inkscape:window-x="-9"
     inkscape:window-y="-9"
     inkscape:window-maximized="1"
     inkscape:current-layer="svg4"
     inkscape:document-rotation="0" /><g
     id="g837"
     transform="matrix(3.3072917,0,0,3.3072917,10,-7.6297262e-7)"><path
       d="M 21.024907,30.23622 H 9.2099965 c -0.2263998,0 -0.4449019,-0.08951 -0.6041716,-0.250082 L 0.2500928,21.63077 C 0.0895069,21.470191 0,21.253014 0,21.026624 V 9.2095956 C 0,8.9832057 0.0895069,8.7647131 0.2500928,8.6054503 L 8.6058249,0.25008216 C 8.7664109,0.08950323 8.9835967,2.3069408e-7 9.2099965,2.3069408e-7 H 21.026223 c 0.2264,0 0.444902,0.0895029993059 0.604172,0.25008192930592 l 8.355732,8.35536814 c 0.160586,0.1605789 0.250093,0.3777554 0.250093,0.6041453 V 21.025308 c 0,0.22639 -0.08951,0.444883 -0.250093,0.604146 l -8.355732,8.355368 c -0.160586,0.161895 -0.377772,0.251398 -0.605488,0.251398 z M 9.5640753,28.525133 H 20.670828 l 7.85423,-7.853889 V 9.5649752 L 20.670828,1.711087 H 9.5640753 L 1.709845,9.5649752 V 20.672561 Z"
       id="path2"
       inkscape:connector-curvature="0"
       style="stroke-width:1.31625" /><g
       transform="matrix(0.21165354,0,0,0.21165354,4.535433,4.5438991)"
       id="g6"><path
         inkscape:connector-curvature="0"
         d="M 50.005,22.45 C 30.073,22.45 10.204,35.715 0,49.959 10.204,64.286 30.065,77.47 50.005,77.47 69.942,77.47 91.837,64.286 100,50.001 91.837,35.715 69.941,22.45 50.005,22.45 Z M 50,70.584 c -11.391,0 -20.625,-9.233 -20.625,-20.624 0,-11.391 9.234,-20.625 20.625,-20.625 11.392,0 20.625,9.234 20.625,20.625 0,11.391 -9.234,20.624 -20.625,20.624 z"
         id="path2-8" /><path
         inkscape:connector-curvature="0"
         d="m 62.676,42.544 c 0,2.71 -2.196,4.903 -4.904,4.903 -2.709,0 -4.901,-2.193 -4.903,-4.903 0,-2.71 2.193,-4.906 4.903,-4.906 0.223,0 0.436,0.037 0.65,0.066 -2.397,-1.649 -5.295,-2.62 -8.422,-2.62 -8.215,0 -14.875,6.661 -14.875,14.875 0,8.214 6.661,14.876 14.875,14.876 8.214,0 14.876,-6.661 14.876,-14.876 0,-2.874 -0.829,-5.548 -2.24,-7.822 0.011,0.137 0.04,0.268 0.04,0.407 z"
         id="path4" /></g></g></svg>
