<svg width="100" height="100" version="1.1" viewBox="0 0 100 100" xmlns="http://www.w3.org/2000/svg">
 <path d="m30.461 0c-0.74877 0-1.4669 0.29509-1.998 0.82617l-27.637 27.635c-0.5311 0.52673-0.82617 1.2493-0.82617 1.998v39.082c0 0.74874 0.29507 1.467 0.82617 1.998l27.637 27.635c0.52675 0.53106 1.2493 0.82617 1.998 0.82617h39.074c0.75312 0 1.4708-0.2966 2.002-0.83203l27.637-27.633c0.53109-0.52673 0.82617-1.2493 0.82617-1.998v-39.078c0-0.74874-0.29506-1.467-0.82617-1.998l-27.637-27.635c-0.52675-0.53108-1.2493-0.82617-1.998-0.82617zm1.1699 5.6582h36.734l25.975 25.977v36.73l-25.975 25.977h-36.734l-25.977-25.971v-36.736zm18.373 25.084c-13.952 0-27.861 9.287-35.004 19.258 7.1428 10.029 21.046 19.258 35.004 19.258 13.956 0 29.282-9.229 34.996-19.229-5.7141-10-21.041-19.287-34.996-19.287zm-0.003906 4.8203c7.9744 0 14.438 6.4638 14.438 14.438s-6.4638 14.438-14.438 14.438-14.438-6.4638-14.438-14.438 6.4638-14.438 14.438-14.438zm0 4.0234c-5.7505 0-10.412 4.6643-10.412 10.414s4.6623 10.412 10.412 10.412 10.414-4.6616 10.414-10.412c0-2.0118-0.58066-3.8848-1.5684-5.4766 0.0077 0.0959 0.02734 0.18786 0.02734 0.28516 0 1.897-1.538 3.4316-3.4336 3.4316-1.8963 0-3.4302-1.5346-3.4316-3.4316 0-1.897 1.5346-3.4336 3.4316-3.4336 0.1561 0 0.30528 0.02462 0.45508 0.04492-1.6779-1.1543-3.7056-1.834-5.8945-1.834z"/>
</svg>
