<svg width="100" height="100" version="1.1" viewBox="0 0 100 100" xmlns="http://www.w3.org/2000/svg">
 <path d="m30.46 2.3069e-7c-0.74877 0-1.4672 0.29626-1.9983 0.82734l-27.634 27.633c-0.5311 0.52673-0.82734 1.2491-0.82734 1.9978v39.082c0 0.74873 0.29624 1.4672 0.82734 1.9983l27.634 27.633c0.52675 0.53106 1.2496 0.82734 1.9983 0.82734h39.076c0.75312 0 1.4714-0.29603 2.0025-0.83147l27.634-27.633c0.5311-0.52673 0.82734-1.2496 0.82734-1.9983v-39.078c0-0.74874-0.29623-1.4667-0.82734-1.9978l-27.634-27.633c-0.52675-0.53108-1.2496-0.82734-1.9983-0.82734zm1.171 5.6591h36.733l25.977 25.975v36.732l-25.977 25.975h-36.733l-25.976-25.971v-36.736zm3.7367 18.869c-2.509-0.05412-5.3279 0.65184-8.4341 2.5476-6 3.7333-9.6669 14.2-4.4002 23.867 1.6 2.9333 3.8001 5.7995 6.2001 8.3995 8.6666 9.3332 20.6 16.133 20.6 16.133s6.6669-3.8 13.6-9.5999v-3.8664h-8.9333v-10.533h9v-9h10.533v9h2.3999c0.13332-0.19999 0.19999-0.3333 0.33332-0.5333 4-7.3999 2.8667-15.333-0.66663-20.266v-0.06666c-1.0667-1.4666-2.3331-2.667-3.6664-3.5336-14.333-8.6666-22.6 7.5334-22.6 7.5334s-5.0049-9.8878-13.966-10.081zm30.099 20.481v9h-9v5.4663h9v9.0666h5.5335v-9.0666h9v-5.4663h-9v-9z"/>
</svg>
