<?xml version="1.0" encoding="UTF-8" standalone="no"?>
<svg
   xmlns:dc="http://purl.org/dc/elements/1.1/"
   xmlns:cc="http://creativecommons.org/ns#"
   xmlns:rdf="http://www.w3.org/1999/02/22-rdf-syntax-ns#"
   xmlns:svg="http://www.w3.org/2000/svg"
   xmlns="http://www.w3.org/2000/svg"
   xmlns:sodipodi="http://sodipodi.sourceforge.net/DTD/sodipodi-0.dtd"
   xmlns:inkscape="http://www.inkscape.org/namespaces/inkscape"
   height="100mm"
   width="120mm"
   version="1.1"
   x="0px"
   y="0px"
   viewBox="0 0 120 100"
   enable-background="new 0 0 24 24"
   xml:space="preserve"
   id="svg4"
   sodipodi:docname="evocation.svg"
   style="fill:#000000"
   inkscape:version="1.0.2-2 (e86c870879, 2021-01-15)"><metadata
     id="metadata10"><rdf:RDF><cc:Work
         rdf:about=""><dc:format>image/svg+xml</dc:format><dc:type
           rdf:resource="http://purl.org/dc/dcmitype/StillImage" /><dc:title></dc:title></cc:Work></rdf:RDF></metadata><defs
     id="defs8" /><sodipodi:namedview
     pagecolor="#ffffff"
     bordercolor="#666666"
     borderopacity="1"
     objecttolerance="10"
     gridtolerance="10"
     guidetolerance="10"
     inkscape:pageopacity="0"
     inkscape:pageshadow="2"
     inkscape:window-width="1920"
     inkscape:window-height="1001"
     id="namedview6"
     showgrid="false"
     inkscape:document-units="mm"
     units="mm"
     inkscape:zoom="0.78666667"
     inkscape:cx="150"
     inkscape:cy="150"
     inkscape:window-x="-9"
     inkscape:window-y="-9"
     inkscape:window-maximized="1"
     inkscape:current-layer="svg4"
     inkscape:document-rotation="0" /><g
     id="g833"
     transform="matrix(3.3072917,0,0,3.3072917,10,-7.6297262e-7)"><path
       d="M 21.024907,30.23622 H 9.2099965 c -0.2263998,0 -0.4449019,-0.08951 -0.6041716,-0.250082 L 0.2500928,21.63077 C 0.0895069,21.470191 0,21.253014 0,21.026624 V 9.2095956 C 0,8.9832057 0.0895069,8.7647131 0.2500928,8.6054503 L 8.6058249,0.25008216 C 8.7664109,0.08950323 8.9835967,2.3069408e-7 9.2099965,2.3069408e-7 H 21.026223 c 0.2264,0 0.444902,0.0895029993059 0.604172,0.25008192930592 l 8.355732,8.35536814 c 0.160586,0.1605789 0.250093,0.3777554 0.250093,0.6041453 V 21.025308 c 0,0.22639 -0.08951,0.444883 -0.250093,0.604146 l -8.355732,8.355368 c -0.160586,0.161895 -0.377772,0.251398 -0.605488,0.251398 z M 9.5640753,28.525133 H 20.670828 l 7.85423,-7.853889 V 9.5649752 L 20.670828,1.711087 H 9.5640753 L 1.709845,9.5649752 V 20.672561 Z"
       id="path2"
       inkscape:connector-curvature="0"
       style="stroke-width:1.31625" /><path
       inkscape:connector-curvature="0"
       style="stroke-width:0.0023885;image-rendering:optimizeQuality;shape-rendering:geometricPrecision;text-rendering:geometricPrecision"
       class="fil1"
       d="m 18.82771,10.320199 c 1.077212,2.24041 1.337558,3.960127 0.781038,5.159153 -0.8097,2.52464 -3.604241,-0.179138 -1.800926,-2.613015 1.0796,-1.576408 0.04538,-4.95613 -2.60346,-8.3310749 1.096319,5.2260293 -6.8502078,6.1527659 -5.3717288,12.1168409 1.0796008,2.47687 -2.209358,1.757933 -0.953009,-1.146478 -1.110651,1.996783 -1.368608,3.7786 -0.769096,5.347843 0.449037,1.177528 1.798537,2.636899 2.8208138,3.408383 1.167975,0.883744 2.62018,1.490422 4.19181,1.435487 -0.03822,0 -0.07643,0 -0.114648,-0.0024 -3.788154,-0.46098 -3.353448,-6.420278 -0.226907,-9.219594 -0.728491,2.109042 -0.482476,3.941017 0.50875,5.051668 0,-1.163197 0.675945,-1.65045 0.797758,-2.870972 2.976066,3.348671 2.018279,6.663904 -0.494419,7.012625 7.755447,-0.680722 9.047624,-10.143943 3.234024,-15.348477 z"
       id="path8" /></g></svg>
