<?xml version="1.0" encoding="UTF-8" standalone="no"?>
<svg
   xmlns:dc="http://purl.org/dc/elements/1.1/"
   xmlns:cc="http://creativecommons.org/ns#"
   xmlns:rdf="http://www.w3.org/1999/02/22-rdf-syntax-ns#"
   xmlns:svg="http://www.w3.org/2000/svg"
   xmlns="http://www.w3.org/2000/svg"
   xmlns:sodipodi="http://sodipodi.sourceforge.net/DTD/sodipodi-0.dtd"
   xmlns:inkscape="http://www.inkscape.org/namespaces/inkscape"
   aria-hidden="true"
   focusable="false"
   data-prefix="far"
   data-icon="clock"
   class="svg-inline--fa fa-clock fa-w-16"
   role="img"
   viewBox="0 0 120 100"
   version="1.1"
   id="svg4"
   sodipodi:docname="instantaneous.svg"
   width="120mm"
   height="100mm"
   inkscape:version="1.0.2-2 (e86c870879, 2021-01-15)">
  <metadata
     id="metadata10">
    <rdf:RDF>
      <cc:Work
         rdf:about="">
        <dc:format>image/svg+xml</dc:format>
        <dc:type
           rdf:resource="http://purl.org/dc/dcmitype/StillImage" />
        <dc:title></dc:title>
      </cc:Work>
    </rdf:RDF>
  </metadata>
  <defs
     id="defs8" />
  <sodipodi:namedview
     pagecolor="#ffffff"
     bordercolor="#666666"
     borderopacity="1"
     objecttolerance="10"
     gridtolerance="10"
     guidetolerance="10"
     inkscape:pageopacity="0"
     inkscape:pageshadow="2"
     inkscape:window-width="1920"
     inkscape:window-height="1001"
     id="namedview6"
     showgrid="false"
     inkscape:document-units="mm"
     units="mm"
     inkscape:zoom="1.3010765"
     inkscape:cx="256"
     inkscape:cy="236.90054"
     inkscape:window-x="-9"
     inkscape:window-y="-9"
     inkscape:window-maximized="1"
     inkscape:current-layer="svg4"
     inkscape:document-rotation="0" />
  <path
     style="fill:currentColor;stroke-width:0.151209"
     d="M 47.547059,0 C 26.831324,0 10.047,16.784293 10.047,37.499992 c 0,20.715703 16.784324,37.499993 37.500059,37.499993 6.487635,0 12.589391,-1.646866 17.911062,-4.54442 l -2.940907,-6.670903 c -4.413448,2.517997 -9.522733,3.957376 -14.970155,3.957376 -16.708679,0 -30.242099,-13.533395 -30.242099,-30.242046 0,-16.708648 13.53342,-30.242045 30.242099,-30.242045 10.453352,0 19.663359,5.297107 25.094606,13.354724 L 79.913063,18.54975 C 73.402346,7.451057 61.34825,0 47.547059,0 Z m -2.419492,14.515893 c -0.997984,0 -1.81436,0.816891 -1.81436,1.814874 v 24.82843 c 0,0.574592 0.272291,1.118792 0.741041,1.466575 l 12.837466,9.329653 c 0.816531,0.589713 1.950695,0.40867 2.540415,-0.392742 l 2.842722,-3.916551 C 62.86457,46.8296 62.698129,45.695438 61.881595,45.105722 L 51.780913,37.756823 V 16.330767 c 0,-0.997983 -0.816377,-1.814874 -1.814362,-1.814874 z m 37.90107,10.484102 c -5.297568,-0.0012 -5.51202,0.0479 -5.819286,0.234611 -0.229659,0.139554 -0.487926,0.385286 -0.573609,0.546219 -0.08569,0.160947 -1.976135,8.882562 -4.201298,19.381224 -4.458634,21.036531 -4.228769,19.646798 -3.366722,20.359974 l 0.398426,0.329694 h 6.171204 c 3.394352,0 6.196921,0.04331 6.227531,0.09612 0.03061,0.05285 -1.283651,6.408722 -2.920753,14.124188 -4.227561,19.923945 -3.892841,18.253075 -3.754814,18.744565 0.141658,0.50443 0.589749,0.95256 1.113111,1.11311 0.487887,0.14967 1.074508,0.0556 1.482599,-0.23719 0.446106,-0.32012 32.018234,-48.274684 32.126744,-48.796966 0.12418,-0.597751 -0.027,-1.03838 -0.52348,-1.526519 l -0.43512,-0.427881 h -6.50659 c -3.578464,0 -6.536703,-0.02969 -6.573758,-0.06615 -0.03705,-0.03643 1.717689,-4.979775 3.899506,-10.985363 4.401682,-12.115906 4.265282,-11.621582 3.432872,-12.440053 l -0.40721,-0.401007 -12.585808,-0.03411 c -3.087055,-0.0083 -5.417691,-0.01407 -7.183545,-0.01447 z"
     id="path2"
     sodipodi:nodetypes="sssccsssccssssccccccsssssssccsssssssccssscccs" />
</svg>
