<?xml version="1.0" encoding="UTF-8" standalone="no"?>
<svg
   xmlns:dc="http://purl.org/dc/elements/1.1/"
   xmlns:cc="http://creativecommons.org/ns#"
   xmlns:rdf="http://www.w3.org/1999/02/22-rdf-syntax-ns#"
   xmlns:svg="http://www.w3.org/2000/svg"
   xmlns="http://www.w3.org/2000/svg"
   xmlns:sodipodi="http://sodipodi.sourceforge.net/DTD/sodipodi-0.dtd"
   xmlns:inkscape="http://www.inkscape.org/namespaces/inkscape"
   aria-hidden="true"
   focusable="false"
   data-prefix="far"
   data-icon="clock"
   class="svg-inline--fa fa-clock fa-w-16"
   role="img"
   viewBox="0 0 377.95278 377.95278"
   version="1.1"
   id="svg4"
   sodipodi:docname="instantaneous.svg"
   width="100mm"
   height="100mm"
   inkscape:version="0.92.4 (5da689c313, 2019-01-14)">
  <metadata
     id="metadata10">
    <rdf:RDF>
      <cc:Work
         rdf:about="">
        <dc:format>image/svg+xml</dc:format>
        <dc:type
           rdf:resource="http://purl.org/dc/dcmitype/StillImage" />
        <dc:title></dc:title>
      </cc:Work>
    </rdf:RDF>
  </metadata>
  <defs
     id="defs8" />
  <sodipodi:namedview
     pagecolor="#ffffff"
     bordercolor="#666666"
     borderopacity="1"
     objecttolerance="10"
     gridtolerance="10"
     guidetolerance="10"
     inkscape:pageopacity="0"
     inkscape:pageshadow="2"
     inkscape:window-width="1366"
     inkscape:window-height="715"
     id="namedview6"
     showgrid="false"
     inkscape:document-units="mm"
     units="mm"
     inkscape:zoom="0.92"
     inkscape:cx="256"
     inkscape:cy="194.51245"
     inkscape:window-x="-8"
     inkscape:window-y="-8"
     inkscape:window-maximized="1"
     inkscape:current-layer="svg4" />
  <path
     style="fill:currentColor;stroke-width:0.5715012"
     d="M 141.73242 0 C 63.436776 0 0 63.436772 0 141.73242 C 0 220.02808 63.436776 283.46484 141.73242 283.46484 C 166.2526 283.46484 189.31434 277.24046 209.42773 266.28906 C 203.50267 262.14788 199.0289 256.19128 197.58398 248.75 C 197.7961 246.18745 198.04344 243.62992 198.3125 241.07617 C 181.63176 250.59302 162.32109 256.0332 141.73242 256.0332 C 78.581544 256.0332 27.431641 204.8833 27.431641 141.73242 C 27.431641 78.581549 78.581544 27.431641 141.73242 27.431641 C 181.24113 27.431641 216.05058 47.452227 236.57812 77.90625 C 238.48713 76.09336 240.69945 74.552366 243.27539 73.369141 C 250.1549 71.722736 257.09063 70.712757 264.06055 70.109375 C 239.45313 28.16151 193.89437 -9.4739031e-15 141.73242 0 z M 132.58789 54.863281 C 128.81598 54.863281 125.73047 57.950748 125.73047 61.722656 L 125.73047 155.5625 C 125.73047 157.73419 126.7596 159.79101 128.53125 161.10547 L 177.05078 196.36719 C 180.13688 198.59603 184.42348 197.91177 186.65234 194.88281 L 197.39648 180.08008 C 199.62534 176.99397 198.99627 172.70737 195.91016 170.47852 L 157.73438 142.70312 L 157.73438 61.722656 C 157.73438 57.950748 154.64886 54.863281 150.87695 54.863281 L 132.58789 54.863281 z M 275.83594 94.488281 C 255.81365 94.483725 255.00312 94.669319 253.8418 95.375 C 252.9738 95.902451 251.99767 96.831201 251.67383 97.439453 C 251.34997 98.047758 244.20498 131.01138 235.79492 170.69141 C 218.9434 250.19965 219.81218 244.94711 223.07031 247.64258 L 224.57617 248.88867 L 247.90039 248.88867 C 260.72943 248.88867 271.32181 249.05235 271.4375 249.25195 C 271.5532 249.45168 266.58591 273.47392 260.39844 302.63477 C 244.42027 377.93797 245.68535 371.62285 246.20703 373.48047 C 246.74243 375.38698 248.436 377.08068 250.41406 377.6875 C 252.25804 378.25317 254.47519 377.89782 256.01758 376.79102 C 257.70365 375.58111 377.03131 194.33531 377.44141 192.36133 C 377.91077 190.10211 377.33934 188.43674 375.46289 186.5918 L 373.81836 184.97461 L 349.22656 184.97461 C 335.70165 184.97461 324.52091 184.86238 324.38086 184.72461 C 324.24083 184.58691 330.87291 165.90339 339.11914 143.20508 C 355.75539 97.412626 355.23986 99.280938 352.09375 96.1875 L 350.55469 94.671875 L 302.98633 94.542969 C 291.31873 94.511525 282.51003 94.4898 275.83594 94.488281 z "
     id="path2" />
</svg>
