<?xml version="1.0" encoding="UTF-8" standalone="no"?>
<svg
   xmlns:dc="http://purl.org/dc/elements/1.1/"
   xmlns:cc="http://creativecommons.org/ns#"
   xmlns:rdf="http://www.w3.org/1999/02/22-rdf-syntax-ns#"
   xmlns:svg="http://www.w3.org/2000/svg"
   xmlns="http://www.w3.org/2000/svg"
   xmlns:sodipodi="http://sodipodi.sourceforge.net/DTD/sodipodi-0.dtd"
   xmlns:inkscape="http://www.inkscape.org/namespaces/inkscape"
   height="100mm"
   width="120mm"
   version="1.1"
   x="0px"
   y="0px"
   viewBox="0 0 120 100"
   enable-background="new 0 0 24 24"
   xml:space="preserve"
   id="svg4"
   sodipodi:docname="necromancy.svg"
   style="fill:#000000"
   inkscape:version="1.0.2-2 (e86c870879, 2021-01-15)"><metadata
     id="metadata10"><rdf:RDF><cc:Work
         rdf:about=""><dc:format>image/svg+xml</dc:format><dc:type
           rdf:resource="http://purl.org/dc/dcmitype/StillImage" /><dc:title></dc:title></cc:Work></rdf:RDF></metadata><defs
     id="defs8" /><sodipodi:namedview
     pagecolor="#ffffff"
     bordercolor="#666666"
     borderopacity="1"
     objecttolerance="10"
     gridtolerance="10"
     guidetolerance="10"
     inkscape:pageopacity="0"
     inkscape:pageshadow="2"
     inkscape:window-width="1920"
     inkscape:window-height="1001"
     id="namedview6"
     showgrid="false"
     inkscape:document-units="mm"
     units="mm"
     inkscape:zoom="0.78666667"
     inkscape:cx="150"
     inkscape:cy="150"
     inkscape:window-x="-9"
     inkscape:window-y="-9"
     inkscape:window-maximized="1"
     inkscape:current-layer="svg4"
     inkscape:document-rotation="0" /><g
     id="g839"
     transform="matrix(3.3072917,0,0,3.3072917,10,-7.6297262e-7)"><g
       id="g833"><path
         d="M 21.024907,30.23622 H 9.2099965 c -0.2263998,0 -0.4449019,-0.08951 -0.6041716,-0.250082 L 0.2500928,21.63077 C 0.0895069,21.470191 0,21.253014 0,21.026624 V 9.2095956 C 0,8.9832057 0.0895069,8.7647131 0.2500928,8.6054503 L 8.6058249,0.25008216 C 8.7664109,0.08950323 8.9835967,2.3069408e-7 9.2099965,2.3069408e-7 H 21.026223 c 0.2264,0 0.444902,0.0895029993059 0.604172,0.25008192930592 l 8.355732,8.35536814 c 0.160586,0.1605789 0.250093,0.3777554 0.250093,0.6041453 V 21.025308 c 0,0.22639 -0.08951,0.444883 -0.250093,0.604146 l -8.355732,8.355368 c -0.160586,0.161895 -0.377772,0.251398 -0.605488,0.251398 z M 9.5640753,28.525133 H 20.670828 l 7.85423,-7.853889 V 9.5649752 L 20.670828,1.711087 H 9.5640753 L 1.709845,9.5649752 V 20.672561 Z"
         id="path2"
         inkscape:connector-curvature="0"
         style="stroke-width:1.31625" /></g><g
       transform="matrix(0.25197137,0,0,0.2519685,6.2991117,4.5354328)"
       style="fill:none;fill-rule:evenodd;stroke:none;stroke-width:1"
       id="g8"><path
         style="fill:#000000"
         inkscape:connector-curvature="0"
         d="m 35,65.678641 c -0.277531,0.0019 -0.645735,0.12797 -0.875,0.696359 -0.481442,0.818482 -1.25,0.625 -1.25,0.625 0,0 -1.262297,-0.194229 -1.875,-1.875 -0.412162,-1.4191 1.095732,-3.452234 3.125,-6.875 0.646921,-1.013406 1.083245,-1.277495 1.375,-1.116341 0.291755,-0.161154 0.728079,0.102935 1.375,1.116341 2.029268,3.422766 3.537162,5.4559 3.125,6.875 C 39.387297,66.805771 38.125,67 38.125,67 c 0,0 -0.768558,0.193482 -1.25,-0.625 C 36.645735,65.806611 36.277531,65.680523 36,65.678641 V 65.75 H 35.5 35 Z m 0,18.270042 C 35.121405,83.980903 35.186347,84 35.186347,84 c 0,0 0.01291,-0.03684 0.03795,-0.108967 0.694917,-0.173346 2.20444,-0.50469 4.00596,-0.625862 1.485314,-0.0999 3.231765,0.199334 4.772423,-0.452968 0.96415,-0.408213 2.333455,-2.236019 3.173695,-2.561954 1.846154,-0.716136 2.741029,-0.09567 2.741029,-2.044988 0,-1.515257 -0.553278,-2.994694 -0.553278,-2.994694 l -2.187751,-3.029844 c 0,0 1.967602,-4.311153 4.973291,-4.311153 3.00569,0 3.153615,1.286614 3.153615,1.286614 0,0 6.660977,-0.576323 8.684739,-4.480269 2.023762,-3.903946 3.180723,-4.224937 3.180723,-4.224937 0,0 1.302543,-1.160274 -0.479585,-2.967171 -1.782129,-1.806898 -1.461513,-6.846579 -0.05221,-9.909583 1.409304,-3.063005 2.130522,-2.506246 2.596051,-6.630707 0.465528,-4.124461 1.582998,-13.596662 -0.24063,-17.238643 C 67.401216,20.527175 61.393408,4.8483895 41.895207,0.90255676 40.642609,0.31362796 39.19856,0 37.543442,0 36.67581,0 35.828145,0.02058462 35,0.06055484 34.171855,0.02058462 33.32419,0 32.456558,0 30.80144,0 29.357391,0.31362798 28.104795,0.90255627 8.6065923,4.8483882 2.5987837,20.527175 1.0076325,23.704874 -0.81599532,27.346855 0.30147456,36.819056 0.76700333,40.943517 c 0.46552877,4.124461 1.18674697,3.567702 2.59605087,6.630707 1.4093039,3.063004 1.7299197,8.102685 -0.052209,9.909583 -1.7821286,1.806897 -0.479585,2.967171 -0.479585,2.967171 0,0 1.1569611,0.320991 3.1807228,4.224937 2.0237617,3.903946 8.684739,4.480269 8.684739,4.480269 0,0 0.147925,-1.286614 3.153615,-1.286614 3.005689,0 4.973291,4.311153 4.973291,4.311153 l -2.187751,3.029844 c 0,0 -0.553278,1.479437 -0.553278,2.994694 0,1.949314 0.894875,1.328852 2.741029,2.044988 0.84024,0.325935 2.209545,2.153741 3.173694,2.561954 1.540659,0.652302 3.28711,0.353064 4.772423,0.452968 1.801521,0.121172 3.311044,0.452516 4.005961,0.625862 0.02504,0.07213 0.03795,0.108967 0.03795,0.108967 0,0 0.06494,-0.0191 0.186347,-0.05132 z m -4.020555,-36.00354 c 0,0 0.285493,-2.42885 -1.271479,-4.048899 C 28.150993,42.276195 26.658366,41 24.895519,41 23.132672,41 13,41.493505 13,48.513719 c 0,7.020214 0.583662,7.600866 4.903928,8.281068 4.320266,0.680202 7.390502,-0.335368 10.609091,-2.974905 3.218589,-2.639536 2.378844,-5.357243 2.378844,-5.357243 l 0.08758,-0.517496 z m 8.04111,0 c 0,0 -0.285494,-2.42885 1.271479,-4.048899 C 41.849007,42.276195 43.341634,41 45.104481,41 46.867328,41 57,41.493505 57,48.513719 c 0,7.020214 -0.583662,7.600866 -4.903928,8.281068 -4.320267,0.680202 -7.390502,-0.335368 -10.609091,-2.974905 -3.218589,-2.639536 -2.378844,-5.357243 -2.378844,-5.357243 l -0.08758,-0.517496 z"
         id="path6" /></g></g></svg>
