<?xml version="1.0" encoding="UTF-8" standalone="no"?>
<svg
   xmlns:dc="http://purl.org/dc/elements/1.1/"
   xmlns:cc="http://creativecommons.org/ns#"
   xmlns:rdf="http://www.w3.org/1999/02/22-rdf-syntax-ns#"
   xmlns:svg="http://www.w3.org/2000/svg"
   xmlns="http://www.w3.org/2000/svg"
   xmlns:sodipodi="http://sodipodi.sourceforge.net/DTD/sodipodi-0.dtd"
   xmlns:inkscape="http://www.inkscape.org/namespaces/inkscape"
   height="100mm"
   width="100mm"
   version="1.1"
   x="0px"
   y="0px"
   viewBox="0 0 30.23622 30.23622"
   enable-background="new 0 0 24 24"
   xml:space="preserve"
   id="svg4"
   sodipodi:docname="octagon.svg"
   style="fill:#000000"
   inkscape:version="0.92.4 (5da689c313, 2019-01-14)"><metadata
     id="metadata10"><rdf:RDF><cc:Work
         rdf:about=""><dc:format>image/svg+xml</dc:format><dc:type
           rdf:resource="http://purl.org/dc/dcmitype/StillImage" /><dc:title></dc:title></cc:Work></rdf:RDF></metadata><defs
     id="defs8" /><sodipodi:namedview
     pagecolor="#ffffff"
     bordercolor="#666666"
     borderopacity="1"
     objecttolerance="10"
     gridtolerance="10"
     guidetolerance="10"
     inkscape:pageopacity="0"
     inkscape:pageshadow="2"
     inkscape:window-width="1366"
     inkscape:window-height="715"
     id="namedview6"
     showgrid="false"
     inkscape:document-units="mm"
     units="mm"
     inkscape:zoom="0.78666667"
     inkscape:cx="150"
     inkscape:cy="150"
     inkscape:window-x="-8"
     inkscape:window-y="-8"
     inkscape:window-maximized="1"
     inkscape:current-layer="svg4" /><path
     d="M 21.024907,30.23622 H 9.2099965 c -0.2263998,0 -0.4449019,-0.08951 -0.6041716,-0.250082 L 0.2500928,21.63077 C 0.0895069,21.470191 0,21.253014 0,21.026624 V 9.2095956 C 0,8.9832057 0.0895069,8.7647131 0.2500928,8.6054503 L 8.6058249,0.25008216 C 8.7664109,0.08950323 8.9835967,2.3069408e-7 9.2099965,2.3069408e-7 H 21.026223 c 0.2264,0 0.444902,0.0895029993059 0.604172,0.25008192930592 l 8.355732,8.35536814 c 0.160586,0.1605789 0.250093,0.3777554 0.250093,0.6041453 V 21.025308 c 0,0.22639 -0.08951,0.444883 -0.250093,0.604146 l -8.355732,8.355368 c -0.160586,0.161895 -0.377772,0.251398 -0.605488,0.251398 z M 9.5640753,28.525133 H 20.670828 l 7.85423,-7.853889 V 9.5649752 L 20.670828,1.711087 H 9.5640753 L 1.709845,9.5649752 V 20.672561 Z"
     id="path2"
     inkscape:connector-curvature="0"
     style="stroke-width:1.31624925" /></svg>