<?xml version="1.0" encoding="UTF-8" standalone="no"?>
<svg
   xmlns:dc="http://purl.org/dc/elements/1.1/"
   xmlns:cc="http://creativecommons.org/ns#"
   xmlns:rdf="http://www.w3.org/1999/02/22-rdf-syntax-ns#"
   xmlns:svg="http://www.w3.org/2000/svg"
   xmlns="http://www.w3.org/2000/svg"
   xmlns:sodipodi="http://sodipodi.sourceforge.net/DTD/sodipodi-0.dtd"
   xmlns:inkscape="http://www.inkscape.org/namespaces/inkscape"
   height="100mm"
   width="120mm"
   version="1.1"
   x="0px"
   y="0px"
   viewBox="0 0 120 100"
   enable-background="new 0 0 24 24"
   xml:space="preserve"
   id="svg4"
   sodipodi:docname="octagon.svg"
   style="fill:#000000"
   inkscape:version="1.0.2-2 (e86c870879, 2021-01-15)"><metadata
     id="metadata10"><rdf:RDF><cc:Work
         rdf:about=""><dc:format>image/svg+xml</dc:format><dc:type
           rdf:resource="http://purl.org/dc/dcmitype/StillImage" /><dc:title></dc:title></cc:Work></rdf:RDF></metadata><defs
     id="defs8" /><sodipodi:namedview
     pagecolor="#ffffff"
     bordercolor="#666666"
     borderopacity="1"
     objecttolerance="10"
     gridtolerance="10"
     guidetolerance="10"
     inkscape:pageopacity="0"
     inkscape:pageshadow="2"
     inkscape:window-width="1920"
     inkscape:window-height="1001"
     id="namedview6"
     showgrid="false"
     inkscape:document-units="mm"
     units="mm"
     inkscape:zoom="0.78666667"
     inkscape:cx="150"
     inkscape:cy="150"
     inkscape:window-x="-9"
     inkscape:window-y="-9"
     inkscape:window-maximized="1"
     inkscape:current-layer="svg4"
     inkscape:document-rotation="0" /><path
     d="M 79.535501,100 H 40.460147 c -0.748771,0 -1.471421,-0.29603 -1.998173,-0.82709 L 10.82713,71.539267 C 10.296025,71.008186 10,70.289918 10,69.54118 V 30.458818 c 0,-0.748737 0.296026,-1.471354 0.82713,-1.998083 L 38.461974,0.827094 C 38.993078,0.296013 39.711376,0 40.460147,0 h 39.079706 c 0.748771,0 1.471421,0.296013 1.998173,0.827094 L 109.17287,28.460735 C 109.70398,28.991816 110,29.710081 110,30.458818 v 39.07801 c 0,0.748738 -0.29603,1.471358 -0.82713,1.998087 L 81.538026,99.16856 C 81.006922,99.70399 80.288624,100 79.535501,100 Z M 41.631186,94.34094 H 78.364458 L 104.34069,68.365835 V 31.634164 L 78.364458,5.659063 H 41.631186 l -25.97623,25.975101 v 36.736027 z"
     id="path2"
     inkscape:connector-curvature="0"
     style="stroke-width:4.35322" /></svg>
