<svg width="100" height="100" version="1.1" viewBox="0 0 100 100" xmlns="http://www.w3.org/2000/svg">
 <path d="m30.461 0c-0.74877 0-1.4669 0.29509-1.998 0.82617l-27.637 27.635c-0.5311 0.52673-0.82617 1.2493-0.82617 1.998v39.082c0 0.74874 0.29507 1.467 0.82617 1.998l27.637 27.635c0.52675 0.53106 1.2493 0.82617 1.998 0.82617h39.074c0.75312 0 1.4708-0.2966 2.002-0.83203l27.637-27.633c0.53109-0.52673 0.82617-1.2493 0.82617-1.998v-39.078c0-0.74874-0.29507-1.467-0.82617-1.998l-27.637-27.635c-0.52675-0.53108-1.2493-0.82617-1.998-0.82617zm1.1699 5.6582h36.734l25.975 25.977v36.73l-25.975 25.977h-36.734l-25.977-25.971v-36.736zm-2.0352 14.342c-0.02597 0.02597 7.1657 23.45 7.3516 23.945 0.02341 0.06228 0.06305 0.11328 0.08984 0.11328 0.13832 0 3.0371-2.1195 3.0371-2.2207 0-0.06537-0.83276-2.8225-1.8516-6.125-1.0188-3.3025-1.8382-6.0192-1.8203-6.0371 0.01808-0.01808 0.66482 0.44151 1.4375 1.0215l1.4062 1.0547 1.0352-0.57226c0.56979-0.31455 1.3869-0.71433 1.8164-0.88867 0.42952-0.17433 0.7806-0.33626 0.7793-0.36133-0.003602-0.069645-13.243-9.968-13.281-9.9297zm41.965 0.62695c-0.0329-0.03291-20.271 14.189-20.504 14.408-0.08759 0.08263 0.21288 0.35004 1.3594 1.2109 0.80903 0.6075 1.5155 1.106 1.5703 1.1074 0.05479 0.0014 2.4384-1.6459 5.2969-3.6602 2.8585-2.0143 5.2084-3.6507 5.2227-3.6367 0.01397 0.01398-0.23663 0.77839-0.55664 1.6992l-0.58203 1.6758 0.8418 0.7793c0.46204 0.42899 1.0967 1.0859 1.4121 1.4609 0.31544 0.37507 0.58794 0.66792 0.60547 0.65039 0.06679-0.06678 5.3671-15.662 5.334-15.695zm-20.953 8.6777c-2.8305-0.05988-5.674 0.48512-8.3301 1.623-1.6607 0.71146-4.1668 2.235-4.0781 2.4785 0.02034 0.05585 0.27838 0.88481 0.57226 1.8438 0.29388 0.95894 0.55684 1.7441 0.58594 1.7441 0.0292 0 0.31528-0.21131 0.63477-0.46875 3.1428-2.5322 7.3998-3.8529 11.355-3.5234 0.6789 0.05666 1.2838 0.07453 1.3438 0.03906 0.08721-0.05158 3.6307-2.5247 3.7695-2.6309 0.08068-0.06166-0.08304-0.13019-0.81641-0.3418-1.6448-0.47461-3.3388-0.72774-5.0371-0.76367zm10.941 3.5938-1.3848 0.97656c-0.76188 0.53694-1.4764 1.0452-1.5859 1.1289-0.19748 0.15095-0.19154 0.15722 0.67969 0.75 3.4525 2.3491 5.9435 6.0487 6.791 10.088l0.15625 0.74414 1.8574 1.4023c1.0212 0.77138 1.8924 1.4046 1.9375 1.4082 0.04796 0.0036 0.05784-0.47606 0.02344-1.1484-0.2492-4.8895-2.2355-9.445-5.6445-12.941-0.73913-0.75808-1.8486-1.7265-2.4688-2.1562zm-13.557 0.8418-0.89258 0.18164c-1.2636 0.25814-3.4023 0.96803-3.4023 1.1289 0 0.02243 3.2882 2.5075 7.3066 5.5215 4.0184 3.014 7.328 5.4571 7.3555 5.4297 0.02759-0.02758 0.32095-0.83792 0.65039-1.8008l0.59766-1.752-5.8066-4.3535zm-13.811 3.6172c-0.0985-0.0032-1.1947 1.7341-1.6719 2.6484-1.032 1.9773-1.7903 4.3837-2.0723 6.5742-0.37585 2.9202-0.01855 6.646 0.85938 8.9551 0.07863 0.20683 0.08111 0.20703 2.0156 0.20703h1.9375l-0.30469-0.80859c-0.72232-1.923-0.98312-3.463-0.97852-5.7578 0.0054-2.529 0.36089-4.3055 1.2949-6.459l0.35742-0.82227-0.69336-2.2676c-0.38115-1.2472-0.71669-2.2686-0.74414-2.2695zm12.451 0.86914c-0.06062-0.01244-0.10133-0.0011-0.14062 0.02344-0.94292 0.58886-11.64 8.2174-11.684 8.332-0.19162 0.50742-0.30538 2.7117-0.19922 3.8359 0.04174 0.44183 0.08625 0.59228 0.16602 0.54492 0.33608-0.19946 14.896-10.49 14.898-10.529 0.0013-0.02607-0.67512-0.55386-1.502-1.1719-1.0011-0.74818-1.3572-0.99783-1.5391-1.0352zm15.014 0.48828c-0.08582 0-5.9795 17.223-5.9277 17.322 0.01951 0.0375 0.88013 0.06836 1.9121 0.06836h1.877l4.6797-13.723-0.29492-0.54297c-0.61397-1.1293-2.0484-3.125-2.2461-3.125zm2.1113 6.9941c-0.02338 0.06331-0.30731 0.88103-0.63086 1.8164l-0.58789 1.7012 5.1133 3.8242c2.8128 2.1034 5.116 3.844 5.1172 3.8691 0.0012 0.02478-0.78994 0.03184-1.7578 0.01563l-1.7598-0.0293-0.48828 1.0254c-0.26908 0.56418-0.70035 1.3734-0.95703 1.7969-0.46557 0.76816-0.46516 0.77039-0.24024 0.79883 0.12402 0.01581 3.4949 0.08044 7.4922 0.14453 3.9973 0.0641 7.6535 0.12161 8.125 0.12891 0.73118 0.01131 0.83778-0.0049 0.72461-0.11133-0.07294-0.0686-4.6258-3.4925-10.119-7.6094-6.1686-4.623-10.005-7.4422-10.031-7.3711zm-22.09 1.2695c-0.04101-0.041-3.0026 2.0142-3.0762 2.1348-0.02081 0.0341 0.8744 3.0173 1.9902 6.6289 1.1158 3.6116 2.0696 6.7138 2.1191 6.8926 0.07814 0.28185 0.1706 0.36511 0.70117 0.625 0.78435 0.38419 1.8567 0.77587 2.832 1.0371 0.42343 0.11341 0.78134 0.17449 0.79688 0.13477 0.029-0.07427-5.2884-17.378-5.3633-17.453zm-12.096 3.2383c-0.08808 0-13.255 9.2432-13.496 9.4746-0.11399 0.10891 0.1396 0.12817 1.8105 0.13477 1.0692 0.0044 6.3265 0.08 11.682 0.16797 11.752 0.19284 11.684 0.19184 11.682 0.16406-9.86e-4 -0.01246-0.25695-0.83768-0.56836-1.834l-0.56641-1.8125-4.4805-0.06641c-2.4648-0.03747-5.3503-0.09948-6.4121-0.13672l-1.9297-0.068357 1.457-1.0254c1.0843-0.76313 1.4488-1.0657 1.416-1.1777-0.20451-0.69871-0.50781-2.7452-0.50781-3.4316 0-0.21302-0.03843-0.38867-0.08594-0.38867zm36.523 2.5371c-0.03889 2.44e-4 -0.1693 0.35734-0.28906 0.79297-0.27132 0.98711-0.91164 2.5961-1.3418 3.373-1.4668 2.6493-3.7913 5.0177-6.3496 6.4688l-0.49219 0.2793-0.75781 2.2109c-0.41718 1.2162-0.75976 2.2423-0.75976 2.2812 0 0.03903 0.21502-0.0015 0.47656-0.0918 4.9305-1.7023 9.0372-5.3119 11.391-10.012 0.55017-1.0987 1.2714-2.9817 1.1738-3.0645-0.33377-0.283-2.9991-2.2386-3.0508-2.2383zm-20.725 3.8262c-0.0097 0.0123 0.23221 0.83769 0.53906 1.834l0.55859 1.8125 1.4004 0.02539c0.76982 0.01406 3.3349 0.05751 5.7012 0.09766 2.3662 0.04018 4.9999 0.07999 5.8535 0.08789l1.5527 0.01563 0.53906-0.57617c0.82693-0.88399 2.2898-2.8957 2.1836-3.002-0.035977-0.035951-18.301-0.33004-18.328-0.29492zm-11.486 4.1172 0.55273 0.71484c3.4651 4.4755 8.5454 7.1892 14.377 7.6777 0.19926 0.01657 0.66416 0.02678 1.0312 0.02148l0.66602-0.0098 0.62109-1.8105c0.34184-0.9963 0.624-1.8179 0.625-1.8242 9.76e-4 -0.0063-0.86525-0.03246-1.9238-0.05859-1.5991-0.03936-2.1038-0.08489-2.9805-0.27539-2.7699-0.60194-5.0725-1.7406-7.2812-3.5977l-0.89062-0.74805-2.3984-0.04492zm20.094 0.29883-1.166 3.4199c-0.64122 1.8804-1.5745 4.614-2.0742 6.0762-0.54963 1.6083-0.93562 2.6112-0.97656 2.5371-0.03721-0.06737-0.28424-0.8304-0.54883-1.6953-0.26459-0.86491-0.52441-1.5838-0.57617-1.5977-0.05175-0.01379-0.53881-0.0757-1.082-0.13672-0.54323-0.06102-1.3975-0.20277-1.9004-0.31641-0.50289-0.1136-0.92334-0.20071-0.93359-0.19141-0.01034 0.0092 1.079 3.5782 2.4219 7.9297 1.3429 4.3515 2.4452 7.9367 2.4492 7.9668 0.01378 0.10594 0.12489-0.21542 4.1465-11.992l4.0508-11.865-1-0.05469c-0.55021-0.03079-1.4081-0.06176-1.9062-0.06836z"/>
</svg>
