<?xml version="1.0" encoding="UTF-8" standalone="no"?>
<svg
   xmlns:dc="http://purl.org/dc/elements/1.1/"
   xmlns:cc="http://creativecommons.org/ns#"
   xmlns:rdf="http://www.w3.org/1999/02/22-rdf-syntax-ns#"
   xmlns:svg="http://www.w3.org/2000/svg"
   xmlns="http://www.w3.org/2000/svg"
   xmlns:sodipodi="http://sodipodi.sourceforge.net/DTD/sodipodi-0.dtd"
   xmlns:inkscape="http://www.inkscape.org/namespaces/inkscape"
   height="100mm"
   width="100mm"
   version="1.1"
   x="0px"
   y="0px"
   viewBox="0 0 30.23622 30.23622"
   enable-background="new 0 0 24 24"
   xml:space="preserve"
   id="svg4"
   sodipodi:docname="ritual.svg"
   style="fill:#000000"
   inkscape:version="0.92.4 (5da689c313, 2019-01-14)"><metadata
     id="metadata10"><rdf:RDF><cc:Work
         rdf:about=""><dc:format>image/svg+xml</dc:format><dc:type
           rdf:resource="http://purl.org/dc/dcmitype/StillImage" /><dc:title></dc:title></cc:Work></rdf:RDF></metadata><defs
     id="defs8" /><sodipodi:namedview
     pagecolor="#ffffff"
     bordercolor="#666666"
     borderopacity="1"
     objecttolerance="10"
     gridtolerance="10"
     guidetolerance="10"
     inkscape:pageopacity="0"
     inkscape:pageshadow="2"
     inkscape:window-width="1366"
     inkscape:window-height="715"
     id="namedview6"
     showgrid="false"
     inkscape:document-units="mm"
     units="mm"
     inkscape:zoom="0.55625733"
     inkscape:cx="150"
     inkscape:cy="185.95458"
     inkscape:window-x="-8"
     inkscape:window-y="-8"
     inkscape:window-maximized="1"
     inkscape:current-layer="svg4" /><path
     d="M 21.024907,30.23622 H 9.2099965 c -0.2263998,0 -0.4449019,-0.08951 -0.6041716,-0.250082 L 0.2500928,21.63077 C 0.0895069,21.470191 0,21.253014 0,21.026624 V 9.2095956 C 0,8.9832057 0.0895069,8.7647131 0.2500928,8.6054503 L 8.6058249,0.25008216 C 8.7664109,0.08950323 8.9835967,2.3069408e-7 9.2099965,2.3069408e-7 H 21.026223 c 0.2264,0 0.444902,0.0895029993059 0.604172,0.25008192930592 l 8.355732,8.35536814 c 0.160586,0.1605789 0.250093,0.3777554 0.250093,0.6041453 V 21.025308 c 0,0.22639 -0.08951,0.444883 -0.250093,0.604146 l -8.355732,8.355368 c -0.160586,0.161895 -0.377772,0.251398 -0.605488,0.251398 z M 9.5640753,28.525133 H 20.670828 l 7.85423,-7.853889 V 9.5649752 L 20.670828,1.711087 H 9.5640753 L 1.709845,9.5649752 V 20.672561 Z"
     id="path2"
     inkscape:connector-curvature="0"
     style="stroke-width:1.31624925" /><path
     style="fill:#000000;stroke-width:0.02738589"
     d="m 14.994763,24.941215 c -0.0012,-0.0091 -0.334377,-1.093117 -0.74042,-2.408834 -0.406043,-1.315713 -0.735701,-2.394494 -0.732576,-2.397288 0.0031,-0.0028 0.130097,0.02303 0.282152,0.05738 0.152059,0.03436 0.410857,0.07756 0.575108,0.09601 0.164249,0.01845 0.311438,0.03695 0.327085,0.04112 0.01565,0.0042 0.0939,0.221542 0.173901,0.483058 0.08,0.261517 0.154659,0.492151 0.165911,0.51252 0.01238,0.0224 0.128982,-0.280518 0.295169,-0.766803 0.15109,-0.442111 0.433339,-1.269024 0.627219,-1.837585 l 0.352508,-1.033747 0.273861,0.0035 c 0.150624,0.002 0.409974,0.01115 0.576338,0.02046 l 0.30248,0.01694 -1.225096,3.587545 c -1.215979,3.560852 -1.249474,3.657724 -1.25364,3.625691 z M 14.759821,20.134272 C 12.996564,19.986567 11.46033,19.166285 10.412617,17.813053 l -0.167367,-0.216172 0.725418,0.01351 0.72542,0.01351 0.268942,0.226119 c 0.667841,0.561504 1.364382,0.905527 2.20191,1.087532 0.265061,0.0576 0.417453,0.07174 0.900973,0.08364 0.320074,0.0079 0.581712,0.01589 0.581417,0.01781 -3.09e-4,0.0019 -0.08508,0.249961 -0.188441,0.551206 l -0.187906,0.547716 -0.20181,0.0027 c -0.110994,0.0016 -0.251104,-0.0014 -0.311352,-0.0064 z m 2.204572,-0.280887 c 0,-0.01178 0.103198,-0.322295 0.229337,-0.690016 l 0.229339,-0.668585 0.148746,-0.08437 c 0.773522,-0.438753 1.476433,-1.154826 1.919928,-1.955873 0.130065,-0.234925 0.323554,-0.721519 0.40559,-1.019985 0.03621,-0.131717 0.07546,-0.23955 0.08722,-0.239624 0.01563,-1.03e-4 0.821765,0.591044 0.922686,0.676611 0.02951,0.02501 -0.188518,0.594243 -0.354868,0.926437 -0.711598,1.42105 -1.953387,2.512493 -3.444198,3.0272 -0.07908,0.0273 -0.143777,0.04 -0.143777,0.0282 z m -2.985072,-1.168286 c -0.294891,-0.07899 -0.618788,-0.197774 -0.855947,-0.31394 -0.160426,-0.07858 -0.188609,-0.103665 -0.212236,-0.188887 -0.01499,-0.05405 -0.303291,-0.991739 -0.64068,-2.083748 -0.337386,-1.09201 -0.608282,-1.993908 -0.60199,-2.004217 0.02224,-0.03644 0.91766,-0.657843 0.930059,-0.645447 0.02263,0.02263 1.63088,5.254272 1.622111,5.276728 -0.0047,0.01201 -0.113289,-0.0062 -0.241317,-0.04049 z m 8.715787,-1.09621 c -1.20864,-0.01938 -2.228206,-0.03915 -2.265705,-0.04393 -0.06801,-0.0086 -0.06784,-0.0092 0.07293,-0.241463 0.07761,-0.128029 0.207677,-0.372352 0.289035,-0.54294 l 0.147923,-0.310161 0.532088,0.0089 c 0.29265,0.0049 0.531782,0.0027 0.531405,-0.0048 -3.61e-4,-0.0076 -0.696525,-0.534034 -1.546996,-1.170008 l -1.546311,-1.156315 0.177871,-0.514219 c 0.09783,-0.282822 0.183655,-0.529886 0.190724,-0.549029 0.008,-0.0215 1.167644,0.830642 3.032795,2.228465 1.660969,1.2448 3.037988,2.280244 3.060042,2.300986 0.03422,0.03217 0.002,0.03713 -0.219085,0.03371 -0.142555,-0.0022 -1.248077,-0.01986 -2.456716,-0.03924 z m -6.497523,-0.09722 c -0.715458,-0.01214 -1.491278,-0.02556 -1.724044,-0.02981 l -0.42321,-0.0078 -0.168698,-0.547717 c -0.09278,-0.301243 -0.166313,-0.550757 -0.163393,-0.554477 0.0083,-0.01062 5.531216,0.07813 5.542094,0.089 0.03212,0.03212 -0.410566,0.640362 -0.660598,0.907645 l -0.162782,0.174012 -0.469266,-0.0046 c -0.258098,-0.0024 -1.054645,-0.01435 -1.770103,-0.0265 z M 8.9402986,17.384073 c -1.6191953,-0.0266 -3.2085122,-0.04944 -3.5318128,-0.05077 -0.5052301,-0.002 -0.5821863,-0.0079 -0.5477199,-0.04083 0.073035,-0.06996 4.0541722,-2.864484 4.0808054,-2.864484 0.014364,0 0.026111,0.0527 0.026111,0.117108 0,0.207556 0.091347,0.826347 0.1531818,1.037611 0.00992,0.03389 -0.099864,0.125273 -0.4277125,0.356016 l -0.4410567,0.310422 0.5837276,0.02049 c 0.3210502,0.01126 1.1934865,0.02975 1.9387495,0.04108 l 1.355021,0.0206 0.171207,0.547717 c 0.09416,0.301244 0.171451,0.550798 0.171749,0.554564 6.67e-4,0.0084 0.02119,0.0088 -3.5322536,-0.04951 z m 7.9070574,-1.196545 c -0.01566,-0.03002 1.76642,-5.23754 1.79237,-5.23754 0.05976,0 0.493351,0.603344 0.678994,0.944811 l 0.08933,0.164315 -0.707653,2.074476 -0.707653,2.074477 h -0.567333 c -0.312033,0 -0.572158,-0.0092 -0.578057,-0.02054 z M 9.4628567,16.035907 C 9.1974046,15.33772 9.0892448,14.211183 9.2028886,13.32822 9.2881349,12.665885 9.5175969,11.938019 9.8296222,11.340171 9.9739048,11.063723 10.305642,10.538724 10.335426,10.5397 c 0.0083,2.81e-4 0.109545,0.309044 0.22479,0.686154 l 0.209539,0.685653 -0.107911,0.248798 c -0.282416,0.65114 -0.390137,1.18806 -0.391775,1.952746 -0.0014,0.69386 0.07774,1.159673 0.296144,1.741119 l 0.09178,0.244354 H 10.07233 c -0.5849252,0 -0.5856972,-8.3e-5 -0.6094733,-0.06262 z M 10.4643,14.488794 c -0.0321,-0.339915 0.0028,-1.006505 0.06075,-1.159931 0.01308,-0.03466 3.247215,-2.341541 3.532319,-2.519591 0.04752,-0.02968 0.104488,0.0047 0.508073,0.306327 0.250002,0.186865 0.45422,0.346202 0.453818,0.354084 -6.17e-4,0.01194 -4.402716,3.123115 -4.504335,3.183425 -0.02412,0.01432 -0.038,-0.03072 -0.05062,-0.164314 z m 10.115042,-0.735091 -0.561413,-0.424068 -0.0471,-0.224472 C 19.71457,11.88386 18.96138,10.764893 17.917466,10.054616 17.654039,9.8753818 17.652359,9.8735282 17.712071,9.8278873 c 0.03311,-0.025296 0.248682,-0.1788444 0.479047,-0.3411934 l 0.418843,-0.295175 0.109327,0.075758 c 0.187499,0.1299361 0.522714,0.4228725 0.7462,0.6520865 1.030774,1.0571916 1.631633,2.4345656 1.706981,3.9129786 0.0104,0.2033 0.0075,0.348385 -0.007,0.347295 -0.01362,-0.0011 -0.277393,-0.192703 -0.58617,-0.42594 z m -5.157713,-2.242369 c -1.215015,-0.911322 -2.209115,-1.662495 -2.209115,-1.6692756 0,-0.048642 0.646688,-0.2630855 1.028767,-0.3411382 l 0.269848,-0.05512 1.756072,1.3167488 1.756075,1.316748 -0.181103,0.529333 c -0.09961,0.291132 -0.187927,0.536154 -0.196268,0.544493 -0.0083,0.0083 -1.009264,-0.730463 -2.224276,-1.641785 z m -4.250256,1.020185 C 11.115163,12.381883 8.9404742,5.2992019 8.9483268,5.2913504 c 0.011581,-0.011581 4.0149622,2.9811546 4.0160522,3.0022124 3.85e-4,0.00758 -0.10555,0.056832 -0.235421,0.1095424 -0.129871,0.052715 -0.377092,0.1736682 -0.549376,0.2687774 L 11.866334,8.8448109 11.441558,8.5259694 C 11.20793,8.3506079 11.012308,8.211601 11.006842,8.2170675 c -0.0054,0.00542 0.2421,0.8269327 0.550147,1.8254825 0.308047,0.998547 0.560084,1.831715 0.560084,1.85148 0,0.0306 -0.876341,0.671722 -0.918163,0.671722 -0.0081,0 -0.02046,-0.0154 -0.02754,-0.03423 z m 4.677296,-2.327854 C 15.502011,9.9433621 15.411397,9.8626223 15.43788,9.8376395 c 0.07038,-0.066398 6.18966,-4.3664168 6.199608,-4.3564663 0.01,0.00995 -1.592603,4.7252648 -1.612799,4.7454578 -0.0053,0.0053 -0.08779,-0.08304 -0.183168,-0.196448 -0.09538,-0.1134092 -0.287725,-0.3123278 -0.427428,-0.4420386 l -0.25401,-0.2358403 0.175925,-0.5062268 c 0.09676,-0.2784245 0.172469,-0.5096827 0.168244,-0.5139088 -0.0043,-0.00422 -0.714834,0.4906279 -1.579129,1.099674 -0.864296,0.6090465 -1.585001,1.1070055 -1.601567,1.1065765 -0.01657,-4.36e-4 -0.230266,-0.15107 -0.474887,-0.334754 z M 11.722737,9.9024792 c -0.08886,-0.2899479 -0.166589,-0.5409949 -0.172739,-0.5578809 -0.02681,-0.073623 0.730872,-0.53388 1.232995,-0.7489976 1.284975,-0.550506 2.715553,-0.6424529 4.04174,-0.2597738 0.221743,0.063982 0.271317,0.084738 0.246921,0.1033826 -0.04199,0.032088 -1.113427,0.7794166 -1.139795,0.7950123 -0.01812,0.010725 -0.200898,0.00553 -0.406173,-0.011603 -1.196053,-0.099613 -2.483373,0.2998625 -3.433641,1.0655082 -0.0966,0.07784 -0.182872,0.141524 -0.1917,0.141524 -0.0088,-10e-7 -0.08875,-0.237231 -0.177608,-0.5271777 z"
     id="path1493"
     inkscape:connector-curvature="0" /></svg>