<?xml version="1.0" encoding="UTF-8" standalone="no"?>
<svg
   xmlns:dc="http://purl.org/dc/elements/1.1/"
   xmlns:cc="http://creativecommons.org/ns#"
   xmlns:rdf="http://www.w3.org/1999/02/22-rdf-syntax-ns#"
   xmlns:svg="http://www.w3.org/2000/svg"
   xmlns="http://www.w3.org/2000/svg"
   xmlns:sodipodi="http://sodipodi.sourceforge.net/DTD/sodipodi-0.dtd"
   xmlns:inkscape="http://www.inkscape.org/namespaces/inkscape"
   height="100mm"
   width="100mm"
   version="1.1"
   x="0px"
   y="0px"
   viewBox="0 0 125.98425 125.98425"
   enable-background="new 0 0 100 100"
   xml:space="preserve"
   id="svg10"
   sodipodi:docname="touch.svg"
   style="fill:#000000"
   inkscape:version="0.92.4 (5da689c313, 2019-01-14)"><metadata
     id="metadata16"><rdf:RDF><cc:Work
         rdf:about=""><dc:format>image/svg+xml</dc:format><dc:type
           rdf:resource="http://purl.org/dc/dcmitype/StillImage" /><dc:title></dc:title></cc:Work></rdf:RDF></metadata><defs
     id="defs14" /><sodipodi:namedview
     pagecolor="#ffffff"
     bordercolor="#666666"
     borderopacity="1"
     objecttolerance="10"
     gridtolerance="10"
     guidetolerance="10"
     inkscape:pageopacity="0"
     inkscape:pageshadow="2"
     inkscape:window-width="1366"
     inkscape:window-height="715"
     id="namedview12"
     showgrid="false"
     inkscape:document-units="mm"
     units="mm"
     inkscape:zoom="0.78666667"
     inkscape:cx="150"
     inkscape:cy="150"
     inkscape:window-x="-8"
     inkscape:window-y="-8"
     inkscape:window-maximized="1"
     inkscape:current-layer="svg10" /><path
     style="stroke-width:1.51294518"
     d="m 59.059654,-1.1046118e-4 c -3.334536,0 -6.048832,2.71278166118 -6.048832,6.04882576118 v 9.0776707 10.541367 46.878644 c 0,2.113584 -1.260892,4.001794 -3.211076,4.809707 -0.635441,0.264765 -1.306292,0.396951 -1.991654,0.396951 -1.391912,0 -2.700465,-0.541876 -3.683877,-1.523778 L 31.583297,63.68838 v -9.84e-4 l -2.487105,-2.485133 c -1.142276,-1.140761 -2.661464,-1.771009 -4.278807,-1.771009 -1.612802,0 -3.132062,0.630248 -4.275851,1.771009 -2.526623,2.526618 -0.942644,7.076261 1.180022,10.203518 0.172475,0.228455 19.508174,26.015178 32.666279,38.303319 0.0242,-0.009 0.0482,-0.016 0.0739,-0.0236 0.0242,-0.0106 0.0477,-0.0191 0.0719,-0.0266 0.158861,-0.059 0.321671,-0.11029 0.486591,-0.15267 0.0484,-0.0121 0.0983,-0.0239 0.14677,-0.0345 0.146751,-0.0348 0.293921,-0.0605 0.445211,-0.0817 0.0514,-0.009 0.104181,-0.0166 0.155631,-0.0227 0.19668,-0.0212 0.39326,-0.0345 0.592971,-0.0345 h 41.99315 c 0.24661,0 0.484471,0.0195 0.722001,0.0513 0.0832,0.0106 0.162121,0.0301 0.242301,0.0452 0.15583,0.0272 0.31014,0.0616 0.462951,0.10243 0.0923,0.0257 0.18403,0.0549 0.274808,0.0867 0.14373,0.0469 0.28141,0.10152 0.4206,0.1635 0.0862,0.0348 0.17182,0.071 0.25806,0.1103 0.18307,0.0893 0.36087,0.19051 0.53486,0.29944 0.0303,0.0182 0.0593,0.0306 0.0896,0.0502 3.53577,-5.31952 5.38101,-12.961402 5.38101,-18.008587 h -9.8e-4 V 56.621075 c 0,-3.336044 -2.71277,-6.049809 -6.04882,-6.049809 -3.334543,0 -6.048838,2.713765 -6.048838,6.049809 v 3.956704 h -1.778904 v -3.956704 -6.166038 c 0,-3.336044 -2.711275,-6.051781 -6.048841,-6.051781 -3.334536,0 -6.048842,2.715737 -6.048842,6.051781 v 4.263035 h -1.778893 v -4.263035 -6.168999 c 0,-3.336044 -2.712775,-6.047836 -6.048822,-6.047836 -3.336056,0 -6.048841,2.711796 -6.048841,6.047836 v 5.807505 H 65.110455 V 44.286038 25.283607 14.29407 6.0487153 c 0,-3.3360441 -2.714755,-6.04882576118 -6.050811,-6.04882576118 z M 56.360779,111.10681 c -0.152811,0 -0.302331,0.0121 -0.452111,0.0306 -0.0757,0.0106 -0.14947,0.0272 -0.223601,0.0424 -0.0711,0.0136 -0.14415,0.0242 -0.21374,0.0424 -0.12104,0.0287 -0.23856,0.0694 -0.356571,0.11332 -0.0227,0.009 -0.0448,0.0136 -0.066,0.0227 -0.13617,0.0545 -0.27359,0.11649 -0.409761,0.18911 l -0.0906,0.0472 c -1.612803,0.9002 -2.741235,2.96427 -2.741235,5.36228 v 3.17955 c 0,3.22408 2.042134,5.84788 4.553629,5.84788 h 41.99612 c 2.511491,0 4.555591,-2.6238 4.555591,-5.84788 v -3.17955 c 0,-1.89723 -0.7092,-3.582 -1.80156,-4.65014 l -0.14676,-0.13102 c -0.45237,-0.40547 -0.9443,-0.6972 -1.461729,-0.8727 -0.0514,-0.0166 -0.10121,-0.0336 -0.15267,-0.0502 -0.062,-0.0166 -0.12406,-0.0321 -0.18912,-0.0472 -0.0817,-0.0166 -0.159101,-0.0327 -0.242311,-0.0463 -0.0514,-0.009 -0.10076,-0.0166 -0.15069,-0.0227 -0.13465,-0.0166 -0.271541,-0.0295 -0.410731,-0.0295 z"
     id="path6"
     inkscape:connector-curvature="0" /></svg>