<?xml version="1.0" encoding="UTF-8" standalone="no"?>
<svg
   xmlns:dc="http://purl.org/dc/elements/1.1/"
   xmlns:cc="http://creativecommons.org/ns#"
   xmlns:rdf="http://www.w3.org/1999/02/22-rdf-syntax-ns#"
   xmlns:svg="http://www.w3.org/2000/svg"
   xmlns="http://www.w3.org/2000/svg"
   xmlns:sodipodi="http://sodipodi.sourceforge.net/DTD/sodipodi-0.dtd"
   xmlns:inkscape="http://www.inkscape.org/namespaces/inkscape"
   height="100mm"
   width="90mm"
   version="1.1"
   x="0px"
   y="0px"
   viewBox="0 0 89.999999 100"
   enable-background="new 0 0 100 100"
   xml:space="preserve"
   id="svg10"
   sodipodi:docname="touch.svg"
   style="fill:#000000"
   inkscape:version="1.0.2-2 (e86c870879, 2021-01-15)"><metadata
     id="metadata16"><rdf:RDF><cc:Work
         rdf:about=""><dc:format>image/svg+xml</dc:format><dc:type
           rdf:resource="http://purl.org/dc/dcmitype/StillImage" /><dc:title></dc:title></cc:Work></rdf:RDF></metadata><defs
     id="defs14" /><sodipodi:namedview
     pagecolor="#ffffff"
     bordercolor="#666666"
     borderopacity="1"
     objecttolerance="10"
     gridtolerance="10"
     guidetolerance="10"
     inkscape:pageopacity="0"
     inkscape:pageshadow="2"
     inkscape:window-width="1920"
     inkscape:window-height="1001"
     id="namedview12"
     showgrid="false"
     inkscape:document-units="mm"
     units="mm"
     inkscape:zoom="0.78666667"
     inkscape:cx="150"
     inkscape:cy="150"
     inkscape:window-x="-9"
     inkscape:window-y="-9"
     inkscape:window-maximized="1"
     inkscape:current-layer="svg10"
     inkscape:document-rotation="0" /><path
     style="stroke-width:1.2009"
     d="m 41.878602,0 c -2.646788,0 -4.80126,2.153269 -4.80126,4.801251 v 7.205395 8.367203 37.209891 c 0,1.677656 -1.000833,3.176421 -2.548792,3.817702 -0.504381,0.210157 -1.03687,0.315079 -1.580875,0.315079 -1.104831,0 -2.143495,-0.430113 -2.924078,-1.209497 l -9.954354,-9.954329 v -7.81e-4 l -1.97414,-1.972572 c -0.906681,-0.905479 -2.112537,-1.405738 -3.396303,-1.405738 -1.280162,0 -2.486074,0.500259 -3.393957,1.405738 -2.005507,2.005501 -0.748224,5.616777 0.936643,8.099035 0.136902,0.181336 15.484613,20.64953 25.92886,30.403233 0.01921,-0.0071 0.03826,-0.0127 0.05866,-0.01873 0.01921,-0.0084 0.03786,-0.01516 0.05707,-0.02111 0.126095,-0.04683 0.255327,-0.08754 0.386232,-0.121182 0.03842,-0.0096 0.07803,-0.01897 0.116498,-0.02738 0.116484,-0.02762 0.2333,-0.04802 0.353386,-0.06485 0.0408,-0.0071 0.08269,-0.01318 0.123532,-0.01802 0.156115,-0.01683 0.31215,-0.02738 0.470672,-0.02738 h 33.332063 c 0.195747,0 0.38455,0.01548 0.573089,0.04072 0.06604,0.0084 0.128684,0.02389 0.192326,0.03588 0.12369,0.02159 0.246174,0.0489 0.367467,0.0813 0.07326,0.0204 0.146074,0.04358 0.218129,0.06882 0.114087,0.03723 0.22337,0.08058 0.333852,0.129778 0.06842,0.02762 0.136382,0.05636 0.204835,0.08755 0.145312,0.07088 0.28644,0.151218 0.424545,0.237681 0.02405,0.01445 0.04707,0.02429 0.07112,0.03985 C 78.260341,83.282172 79.725,77.216433 79.725,73.210233 h -7.78e-4 V 44.943027 c 0,-2.647983 -2.153262,-4.802032 -4.801252,-4.802032 -2.646793,0 -4.801265,2.154049 -4.801265,4.802032 v 3.140631 H 68.7097 v -3.140631 -4.894289 c 0,-2.647982 -2.152074,-4.803597 -4.801268,-4.803597 -2.646789,0 -4.801269,2.155615 -4.801269,4.803597 v 3.383781 H 57.695166 V 40.048738 35.1521 c 0,-2.647983 -2.153266,-4.800466 -4.801253,-4.800466 -2.647994,0 -4.801268,2.152486 -4.801268,4.800466 v 4.609703 H 46.681426 V 35.1521 20.068933 11.345996 4.801251 C 46.681426,2.153269 44.526589,0 41.878594,0 Z m -2.142231,88.191042 c -0.121294,0 -0.239976,0.0096 -0.358864,0.02429 -0.06009,0.0084 -0.118642,0.02159 -0.177483,0.03365 -0.05644,0.0108 -0.114419,0.01921 -0.169656,0.03365 -0.09607,0.02278 -0.189357,0.05509 -0.283028,0.08995 -0.01802,0.0071 -0.03556,0.0108 -0.05239,0.01802 -0.108085,0.04326 -0.217162,0.09246 -0.325249,0.150106 l -0.07191,0.03746 c -1.280163,0.714542 -2.175855,2.352892 -2.175855,4.256312 v 2.52377 c 0,2.55911 1.620943,4.64175 3.614443,4.64175 H 73.0708 c 1.993496,0 3.616,-2.08264 3.616,-4.64175 v -2.52377 c 0,-1.50592 -0.562927,-2.843207 -1.429988,-3.691042 l -0.11649,-0.103997 c -0.359069,-0.321842 -0.749539,-0.553402 -1.160248,-0.692705 -0.0408,-0.01318 -0.08033,-0.02667 -0.121182,-0.03985 -0.04921,-0.01318 -0.09847,-0.02548 -0.150113,-0.03747 -0.06485,-0.01318 -0.126287,-0.02595 -0.192335,-0.03675 -0.0408,-0.0071 -0.07998,-0.01318 -0.11961,-0.01802 -0.106879,-0.01318 -0.215536,-0.02342 -0.326018,-0.02342 z"
     id="path6"
     inkscape:connector-curvature="0" /></svg>
