<svg width="100" height="100" version="1.1" viewBox="0 0 100 100" xmlns="http://www.w3.org/2000/svg">
 <path d="m30.46 0c-0.74877 0-1.4672 0.29626-1.9983 0.82734l-27.634 27.633c-0.5311 0.52673-0.82734 1.2491-0.82734 1.9978v39.082c0 0.74873 0.29624 1.4672 0.82734 1.9983l27.634 27.633c0.52675 0.53106 1.2496 0.82734 1.9983 0.82734h39.076c0.75312 0 1.4714-0.29604 2.0025-0.83148l27.634-27.633c0.5311-0.52673 0.82734-1.2496 0.82734-1.9983v-39.078c0-0.74874-0.29623-1.4667-0.82734-1.9978l-27.634-27.633c-0.52675-0.53108-1.2496-0.82734-1.9983-0.82734zm1.171 5.6591h36.733l25.977 25.975v36.732l-25.977 25.975h-36.733l-25.976-25.971v-36.736zm14.56 12.713-3.7057 8.877c-0.747 0.2634-1.4651 0.5413-2.1761 0.8785l-8.9126-3.5812-5.303 5.303 3.6329 8.8325c-0.3516 0.7254-0.63675 1.4647-0.90795 2.2267l-8.8186 3.7724v6.2332h18.983c-0.18901-0.81734-0.29197-1.6679-0.29197-2.5425 0-6.2112 5.0388-11.25 11.25-11.25 6.2112 0 11.25 5.0387 11.25 11.25 0 0.87464-0.10345 1.7251-0.2925 2.5425h19.101v-6.3516l-8.9643-3.7352c-0.24901-0.70321-0.51229-1.385-0.83509-2.051l3.6179-9.0088-5.303-5.303-8.9287 3.6773c-0.681-0.33-1.3764-0.60783-2.0934-0.86403l-3.8024-8.9059zm4.7925 32.238-0.78858 2.3647c-0.44835 1.3436-1.5027 2.398-2.8448 2.8463l-2.3647 0.78703 2.3647 0.7891c1.342 0.44685 2.3964 1.5012 2.8448 2.8448l0.78858 2.3647 0.78755-2.3647c0.44835-1.3436 1.5022-2.3979 2.8443-2.8448l2.3663-0.7891-2.3663-0.78703c-1.342-0.44835-2.3959-1.5028-2.8443-2.8463zm22.338 1.3694-0.7891 2.3647c-0.44835 1.3435-1.5022 2.398-2.8443 2.8463l-2.3647 0.78755 2.3647 0.78858c1.342 0.44685 2.3959 1.5007 2.8443 2.8443l0.7891 2.3647 0.78703-2.3647c0.44835-1.3436 1.5027-2.3974 2.8448-2.8443l2.3663-0.78858-2.3663-0.78755c-1.342-0.44835-2.3964-1.5028-2.8448-2.8463zm-39.767 1.9311-0.7891 2.3647c-0.44835 1.3436-1.5022 2.3985-2.8443 2.8469l-2.3647 0.78703 2.3647 0.7891c1.342 0.44685 2.3959 1.5007 2.8443 2.8443l0.7891 2.3647 0.78703-2.3647c0.44835-1.3436 1.5027-2.3974 2.8448-2.8443l2.3663-0.7891-2.3663-0.78703c-1.342-0.44835-2.3964-1.5033-2.8448-2.8469zm27.533 4.253-0.78858 2.3647c-0.44835 1.3436-1.5027 2.3975-2.8448 2.8458l-2.3647 0.78703 2.3647 0.7891c1.342 0.44686 2.3964 1.5007 2.8448 2.8443l0.78858 2.3647 0.78703-2.3647c0.44835-1.3436 1.5027-2.3974 2.8448-2.8443l2.3663-0.7891-2.3663-0.78703c-1.342-0.44835-2.3964-1.5023-2.8448-2.8458zm-12.571 5.8177-0.7891 2.3647c-0.44835 1.3436-1.5022 2.3975-2.8443 2.8458l-2.3647 0.78755 2.3647 0.78858c1.342 0.44685 2.3959 1.5007 2.8443 2.8443l0.7891 2.3647 0.78703-2.3647c0.44835-1.3436 1.5027-2.3974 2.8448-2.8443l2.3657-0.78858-2.3657-0.78755c-1.342-0.44835-2.3964-1.5023-2.8448-2.8458zm19.52 5.6498-0.7891 2.3647c-0.44834 1.3436-1.5022 2.398-2.8443 2.8463l-2.3647 0.78703 2.3647 0.78858c1.342 0.44685 2.3959 1.5012 2.8443 2.8448l0.7891 2.3647 0.78703-2.3647c0.44835-1.3436 1.5027-2.3979 2.8448-2.8448l2.3657-0.78858-2.3657-0.78703c-1.342-0.44835-2.3964-1.5028-2.8448-2.8463z"/>
</svg>
