<?xml version="1.0" encoding="UTF-8" standalone="no"?>
<svg
   xmlns:dc="http://purl.org/dc/elements/1.1/"
   xmlns:cc="http://creativecommons.org/ns#"
   xmlns:rdf="http://www.w3.org/1999/02/22-rdf-syntax-ns#"
   xmlns:svg="http://www.w3.org/2000/svg"
   xmlns="http://www.w3.org/2000/svg"
   xmlns:sodipodi="http://sodipodi.sourceforge.net/DTD/sodipodi-0.dtd"
   xmlns:inkscape="http://www.inkscape.org/namespaces/inkscape"
   height="100mm"
   width="100mm"
   version="1.1"
   x="0px"
   y="0px"
   viewBox="0 0 30.23622 30.23622"
   enable-background="new 0 0 24 24"
   xml:space="preserve"
   id="svg4"
   sodipodi:docname="transmutation.svg"
   style="fill:#000000"
   inkscape:version="0.92.4 (5da689c313, 2019-01-14)"><metadata
     id="metadata10"><rdf:RDF><cc:Work
         rdf:about=""><dc:format>image/svg+xml</dc:format><dc:type
           rdf:resource="http://purl.org/dc/dcmitype/StillImage" /><dc:title /></cc:Work></rdf:RDF></metadata><defs
     id="defs8" /><sodipodi:namedview
     pagecolor="#ffffff"
     bordercolor="#666666"
     borderopacity="1"
     objecttolerance="10"
     gridtolerance="10"
     guidetolerance="10"
     inkscape:pageopacity="0"
     inkscape:pageshadow="2"
     inkscape:window-width="1366"
     inkscape:window-height="715"
     id="namedview6"
     showgrid="false"
     inkscape:document-units="mm"
     units="mm"
     inkscape:zoom="1.1125147"
     inkscape:cx="57.418346"
     inkscape:cy="185.95458"
     inkscape:window-x="-8"
     inkscape:window-y="-8"
     inkscape:window-maximized="1"
     inkscape:current-layer="svg4" /><path
     style="stroke-width:16.45311546"
     d="M 115.125 0 C 112.295 8.8817842e-16 109.57959 1.1197165 107.57227 3.1269531 L 3.1269531 107.56836 C 1.1196293 109.55914 0 112.28927 0 115.11914 L 0 262.83203 C -2.9605947e-16 265.66191 1.1196293 268.37753 3.1269531 270.38477 L 107.57227 374.82617 C 109.56314 376.83332 112.295 377.95312 115.125 377.95312 L 262.81055 377.95312 C 265.657 377.95312 268.37353 376.83423 270.38086 374.81055 L 374.82617 270.36914 C 376.83346 268.37835 377.95312 265.64628 377.95312 262.81641 L 377.95312 115.11914 C 377.95312 112.28927 376.8335 109.5756 374.82617 107.56836 L 270.38086 3.1269531 C 268.38998 1.1197165 265.65813 0 262.82812 0 L 115.125 0 z M 119.55078 21.388672 L 258.38477 21.388672 L 356.5625 119.5625 L 356.5625 258.39062 L 258.38477 356.56445 L 119.55078 356.56445 L 21.373047 258.40625 L 21.373047 119.5625 L 119.55078 21.388672 z M 174.58008 69.439453 L 160.57422 102.99023 C 157.75092 103.98576 155.03686 105.03608 152.34961 106.31055 L 118.66406 92.775391 L 98.621094 112.81836 L 112.35156 146.20117 C 111.02268 148.94286 109.94493 151.73716 108.91992 154.61719 L 75.589844 168.875 L 75.589844 192.43359 L 147.33789 192.43359 C 146.62352 189.34443 146.23438 186.12991 146.23438 182.82422 C 146.23438 159.34866 165.27852 140.30469 188.75391 140.30469 C 212.22932 140.30469 231.27344 159.34866 231.27344 182.82422 C 231.27344 186.12996 230.88247 189.34439 230.16797 192.43359 L 302.36133 192.43359 L 302.36133 168.42773 L 268.48047 154.31055 C 267.53934 151.65276 266.54426 149.07577 265.32422 146.55859 L 278.99805 112.50977 L 258.95508 92.466797 L 225.20898 106.36523 C 222.63513 105.11797 220.0068 104.06794 217.29688 103.09961 L 202.92578 69.439453 L 174.58008 69.439453 z M 192.69336 191.2832 L 189.71289 200.2207 C 188.01834 205.2987 184.03324 209.28395 178.96094 210.97852 L 170.02344 213.95508 L 178.96094 216.93555 C 184.03324 218.62443 188.01834 222.60951 189.71289 227.6875 L 192.69336 236.625 L 195.66992 227.6875 C 197.36447 222.60951 201.34762 218.62443 206.41992 216.93555 L 215.36328 213.95508 L 206.41992 210.97852 C 201.34762 209.28395 197.36447 205.2987 195.66992 200.2207 L 192.69336 191.2832 z M 277.11914 196.45898 L 274.13672 205.39648 C 272.44217 210.47447 268.45901 214.45973 263.38672 216.1543 L 254.44922 219.13086 L 263.38672 222.11133 C 268.45901 223.8002 272.44217 227.78332 274.13672 232.86133 L 277.11914 241.79883 L 280.09375 232.86133 C 281.78829 227.78333 285.7734 223.8002 290.8457 222.11133 L 299.78906 219.13086 L 290.8457 216.1543 C 285.7734 214.45973 281.78829 210.47447 280.09375 205.39648 L 277.11914 196.45898 z M 126.81836 203.75781 L 123.83594 212.69531 C 122.14139 217.77331 118.15824 221.76052 113.08594 223.45508 L 104.14844 226.42969 L 113.08594 229.41211 C 118.15824 231.101 122.14139 235.08411 123.83594 240.16211 L 126.81836 249.09961 L 129.79297 240.16211 C 131.48751 235.08411 135.47262 231.101 140.54492 229.41211 L 149.48828 226.42969 L 140.54492 223.45508 C 135.47262 221.76052 131.48751 217.77331 129.79297 212.69531 L 126.81836 203.75781 z M 230.88086 219.83203 L 227.90039 228.76953 C 226.20584 233.84753 222.22074 237.83083 217.14844 239.52539 L 208.21094 242.5 L 217.14844 245.48242 C 222.22074 247.17132 226.20584 251.15442 227.90039 256.23242 L 230.88086 265.16992 L 233.85547 256.23242 C 235.55001 251.15442 239.53512 247.17132 244.60742 245.48242 L 253.55078 242.5 L 244.60742 239.52539 C 239.53512 237.83083 235.55001 233.84753 233.85547 228.76953 L 230.88086 219.83203 z M 183.36914 241.82031 L 180.38672 250.75781 C 178.69217 255.83581 174.70902 259.81911 169.63672 261.51367 L 160.69922 264.49023 L 169.63672 267.4707 C 174.70902 269.15959 178.69217 273.1427 180.38672 278.2207 L 183.36914 287.1582 L 186.34375 278.2207 C 188.0383 273.1427 192.0234 269.15959 197.0957 267.4707 L 206.03711 264.49023 L 197.0957 261.51367 C 192.0234 259.81911 188.0383 255.83581 186.34375 250.75781 L 183.36914 241.82031 z M 257.14648 263.17383 L 254.16406 272.11133 C 252.46952 277.18933 248.48636 281.17458 243.41406 282.86914 L 234.47656 285.84375 L 243.41406 288.82422 C 248.48636 290.51309 252.46952 294.49817 254.16406 299.57617 L 257.14648 308.51367 L 260.12109 299.57617 C 261.81564 294.49817 265.80075 290.51309 270.87305 288.82422 L 279.81445 285.84375 L 270.87305 282.86914 C 265.80075 281.17458 261.81564 277.18933 260.12109 272.11133 L 257.14648 263.17383 z "
     transform="scale(0.08)"
     id="path2" /></svg>