<svg id="layer" width="100" height="100" version="1.1" viewBox="0 0 100 100" xmlns="http://www.w3.org/2000/svg">
 <path d="m62.536 97.688c-6.5602-9.6706-10.324-22.033-12.6-41.378l-0.47064-4.0012h-4.5163l-1.0359 3.4157c-4.5747 15.084-10.068 26.163-17.333 34.959-2.7141 3.2857-2.9016 3.4316-4.2621 3.3181-1.2686-0.10584-1.4358-0.24761-1.5394-1.3057-0.09666-0.98712 0.319-1.6773 2.4683-4.0988 6.949-7.8288 13.1-19.286 16.127-30.042 1.8935-6.7262 1.8834-6.2458 0.13061-6.2458-2.5359 0-3.7876-2.3872-1.9329-3.6863 1.2972-0.90857 23.512-0.90857 24.81 0 1.077 0.75433 1.1107 1.8818 0.08686 2.9056-0.68216 0.68216-1.3012 0.78073-4.9032 0.78073h-4.1224l0.25272 2.8301c1.1927 13.356 4.2819 25.604 8.6677 34.365l2.1783 4.3514 0.71036-1.548c0.3907-0.85139 1.4754-3.2225 2.4104-5.269 2.175-4.7608 4.3036-8.0825 5.5403-8.646 0.8042-0.36642 1.1097-0.32042 1.7559 0.26437 1.1496 1.0404 0.97516 1.9468-0.92918 4.8285-2.3309 3.5272-4.4263 7.7955-5.758 11.729-1.8771 5.5445-3.2504 6.137-5.735 2.4743zm-31.822-54.682c-0.75894-0.83862-0.83867-2.0603-0.17761-2.7213 0.6748-0.6748 37.815-0.6748 38.49 0 0.74226 0.74226 0.56913 2.5731-0.28663 3.0311-0.4897 0.26208-7.1907 0.4041-19.067 0.4041-17.245 0-18.35-0.04161-18.958-0.71387zm-15.187-8.2957c-0.81197-0.47293-0.9149-2.4133-0.16121-3.0388 0.35556-0.29509 4.9725-0.46586 14.484-0.53575l13.963-0.10259-7.6074-11.531 6.5311-9.7516c3.5921-5.3634 6.6888-9.7516 6.8816-9.7516 0.32662 0 12.665 18.191 13.09 19.3 0.10647 0.27744-1.466 3.031-3.4943 6.1191l-3.6879 5.6146 14.269 0.10247c9.7396 0.06993 14.435 0.24001 14.791 0.53575 0.7075 0.58717 0.65907 2.0967-0.09135 2.8472-0.54841 0.54841-4.1997 0.61217-34.45 0.60156-22.256-0.0078-34.07-0.14805-34.519-0.40976zm40.377-9.488 3.7807-5.5831-10.027-15.047-4.7944 7.1696c-2.6369 3.9433-4.8048 7.4331-4.8176 7.7552-0.01278 0.32205 1.5577 2.9976 3.49 5.9457l3.5133 5.3602 5.0747-0.018 3.7807-5.5831z"/>
</svg>
