<svg width="100" height="100" version="1.1" viewBox="0 0 100 100" xmlns="http://www.w3.org/2000/svg">
 <path d="M33.66,16.63A141.79,141.79,0,0,1,49.07.51L50,0h0l.94.51a143.18,143.18,0,0,1,15.4,16.12l-3.06,2.76A64,64,0,0,0,50,8.45,64,64,0,0,0,36.72,19.39Zm46,26.85-3.53-1.74C74,63.22,52.54,96.55,51.58,97.85L50,100h0l-1.58-2.15c-1-1.3-22.45-34.63-24.56-56.11l-3.53,1.74,4.82-13c.46-1.6.87-2.78.9-2.89l.1-.24a48.57,48.57,0,0,1,3.64-5.76c.56-.77,1.14-1.53,1.72-2.29l3.93,1.49c1,.76,2.48,1.85,4.08,3.16a18.69,18.69,0,0,1,3-1.66h0s5.68-2.66,7.44-7h0c1.76,4.35,7.44,7,7.44,7h0a18.69,18.69,0,0,1,3,1.66c1.6-1.31,3.05-2.4,4.08-3.16l3.93-1.49c.58.76,1.16,1.52,1.72,2.29a47.22,47.22,0,0,1,3.64,5.76l.1.24c0,.11.44,1.29.9,2.89ZM41.12,25.33a44.57,44.57,0,0,1,7.38,7.73L50,34.68l1.5-1.62a44.57,44.57,0,0,1,7.38-7.73,13.64,13.64,0,0,0-7.21-3.41L50,21.8l-1.67.12a13.64,13.64,0,0,0-7.21,3.41m-1.7,1.76A20,20,0,0,0,35,39.87a21.37,21.37,0,0,0,.65,5.24h0c.09.46.19.89.29,1.34l2.39-4.29-1,9.83A55.22,55.22,0,0,0,50,74.14,55.22,55.22,0,0,0,62.66,52l-1-9.83,2.39,4.29c.1-.45.2-.88.29-1.34h0A21.37,21.37,0,0,0,65,39.87a20,20,0,0,0-4.44-12.78C52.86,30.94,50,39.82,50,39.87h0s-2.86-8.93-10.58-12.78m33,11.4c0-2.65-1.47-7.56-2.1-9.43-.37-.68-1.33-2.35-2.23-3.71a17.3,17.3,0,0,0-4.93.72,19,19,0,0,1,5.93,13.8,18.77,18.77,0,0,1-1.22,6.64h0L50,83.45h0L32.17,46.51h0A18.77,18.77,0,0,1,31,39.87a19,19,0,0,1,5.93-13.8A17.3,17.3,0,0,0,32,25.35c-.9,1.36-1.86,3-2.23,3.71-.63,1.87-2.1,6.78-2.1,9.43,0,17.24,17,43.15,22.38,50.86,5.35-7.71,22.38-33.62,22.38-50.86"/>
</svg>
