<svg width="100" height="100" version="1.1" viewBox="0 0 100 100" xmlns="http://www.w3.org/2000/svg">
 <path d="m49.561 0c0 0.29-0.94008 19.05-1.5801 33.6a14.71 14.71 0 0 1 3.1699-1.7793l0.50976-0.18945c-0.66-14.22-1.4702-31.351-1.4902-31.631h-0.60938zm-8.7109 9c0 0.25-0.99945 17.341-1.6895 29.471l1.25-0.60156a12.46 12.46 0 0 1 2.5898-2.5098c-0.67-11.74-1.5308-26.139-1.5508-26.359h-0.59961zm17.42 0c0 0.22-0.72961 12.331-1.3496 23.391 1-0.14 2.1308-0.25055 3.3008-0.31055-0.61-10.99-1.3198-22.88-1.3398-23.08h-0.61133zm8.7305 8.7793c0 0.57-0.47969 7.2404-0.92969 14.4 0.84 0.079999 1.6702 0.18055 2.4902 0.31055-0.46-7.27-0.91-14.131-1-14.711h-0.56055zm-34.869 0.050781c-0.05 0.77-0.85039 12.85-1.4004 22.07l1.6152-1.6758a7.56 7.56 0 0 0 0.20508 3.4258h0.11914a2.86 2.86 0 0 0 1.5-1.3711c-0.56-9.26-1.4297-21.669-1.4297-22.449h-0.60938zm19.459 15.17a17.17 17.17 0 0 0-5.3691 3.7402l-0.91992 0.36914c-0.87-0.27 0.12891-1.8086 0.12891-1.8086a11.81 11.81 0 0 0-4.2305 3.5391c-1.56 0.72-2.4395 1.1895-2.4395 1.1895-1.5 1.93-2.9492 2.3203-3.9492 2.3203a3 3 0 0 1-1.1211-0.18945l-0.90039 1.3105-0.91992-0.38086c-0.52-0.21-0.59961-2.0508-0.59961-2.0508-3.33 3.44-4.6699 10.801-4.6699 10.801l3.5996-1.4707a4 4 0 0 1 0.66992-1 0.33 0.33 0 0 1 0.24023-0.10938c0.37 0 0.75 0.63086 0.75 0.63086l0.91992-1.6602a8.16 8.16 0 0 1 3.6504-0.87109 9 9 0 0 1 4.3809 1.1602c0.63-5.27 11-8.3301 11-8.3301-7.41 4.11-8.9414 7-8.9414 7s3.78 0.60992 5 3.6699a3.78 3.78 0 0 1 0.11133-0.41016c0.28-0.74 1.2001-2.2383 4.0801-2.2383a11.77 11.77 0 0 1 2.2598 0.25c0-1e-6 -1.5302-2.3516 1.5898-2.3516a22.63 22.63 0 0 1 5.1895 0.69141s-7.0989-4.0606-2.8789-8.6406a15 15 0 0 1 3.4258-2.1309c-1.9157 1.1239-3.4258 3.7715-3.4258 3.7715l0.2793-0.29102a21.46 21.46 0 0 1 9.9004-4.2695c4.09-0.44 5-1.9004 5-1.9004h-0.03125a8 8 0 0 1-3.1094 0.48047c-0.55 0-1.0388-0.060546-1.5488-0.060546-1.13-0.19-2.2405-0.32992-3.3105-0.41992-1-0.11-2-0.10938-3-0.10938a39.07 39.07 0 0 0-10.93 1.5898c-0.76-0.6 0.11914-1.8203 0.11914-1.8203zm18.41 3.1992a18.35 18.35 0 0 0-8.2109 2.4609l0.03125 0.009766a23.13 23.13 0 0 1 3.4199 8.3301 114.17 114.17 0 0 1 0.75977 12c0.15-4.93 2.5098-6.1094 2.5098-6.1094s-1.0805-3.4614-1.8105-5.9414a3.33 3.33 0 0 1 1.1309-3.75 6 6 0 0 1 2.4902-7h-0.32031zm-9.2402 2.8008s-5.6206 2.0004 0.85938 7.4004a7.44 7.44 0 0 1 1 1.1387 32.1 32.1 0 0 0-4.8496-0.5c-2.16 0-3.76 0.51102-1.5 2.541a13.86 13.86 0 0 0-2.709-0.26953c-2.14 0-4.8715 0.5593-5.5215 3.2793-0.18-0.23-0.36883-0.48024-0.54883-0.74024-0.06-0.11-1.6502-3.5391-4.7402-3.5391a4.48 4.48 0 0 0-1.2207 0.16992s5.5707 0.089538 5.4707 7.5195-8.0005 20.14-3.7305 26c0 0 2.2597-7.7598 10.68-8.5898a13.77 13.77 0 0 1 11-8.8711s-0.080079-12.999-0.83008-17.449a22.56 22.56 0 0 0-3.3594-8.0898zm-16.443 0.27148c-0.012002 0.006549-2.7466 1.5005-2.9961 2.1191l-0.60937 1.4902a7.65 7.65 0 0 1-2.3613 0.76953 5.13 5.13 0 0 0-2.0801 1.1289 27.41 27.41 0 0 1 3.5605-3.709s2.9087-1.775 4.4863-1.7988zm24.863 4.4082c7.44e-4 0.012902 0.001211 0.020326 0.001953 0.033203l0.048828-0.033203h-0.050781zm0.001953 0.033203-0.66211 0.44726a2.09 2.09 0 0 0-0.66016 2.4004c0.19 0.64 1.0013 3.2596 1.6113 5.0996v-1.6895c0-0.79669-0.11038-3.1569-0.28906-6.2578zm-32.121 4.748a8.5 8.5 0 0 0-3.6797 0.91992 9 9 0 0 1-1.5703 2.5098s-0.060313-0.86133-0.57031-0.86133a1.28 1.28 0 0 0-0.81055 0.48047 8.33 8.33 0 0 1-2.6699 1.1504s1.64 2.2205 0 6.4805c0 0 1.5912-1.4498 2.9512-2.5898a6.08 6.08 0 0 1 5-2.291 8.34 8.34 0 0 1 1.5195 0.14062s-0.75-2.8495 2.5-5.2695a4.83 4.83 0 0 0-2.6504-0.66992h-0.019531zm4.8203 1.2695a3.88 3.88 0 0 0-3.1816 2.5391c0.37 9.06 2.1304 38.41 2.1504 38.74h0.59961c0-0.11 0.23148-3.7198 0.52148-8.7598-2.29-3.73-0.91015-9.1702 0.83984-14.66 0.42-7.62 0.79961-14.739 0.84961-17.119a4.29 4.29 0 0 0-1.7793-0.74023zm27.479 4.0703-0.29883 0.12891c-0.18 0.12-1.9999 0.68048-3.1699 11.23v0.029297c0.5 8.07 1.0596 16.39 1.0996 17h0.60938c0.06-1 1.3098-19.849 1.7598-28.389zm-34.949 1.8301a11.83 11.83 0 0 0-3.8105 2.4492c0.55 9.35 1.4812 23.311 1.5312 24.141h0.60938c0.06-0.91 1.1599-17.46 1.6699-26.59zm25.83 11.898a12.3 12.3 0 0 0-3.1699 2.8105c0.58 10.24 1.1892 20.48 1.1992 20.67h0.61133c0-0.21 0.73938-12.39 1.3594-23.48zm-8.8906 7.7207a10.48 10.48 0 0 0-2.9004 1.5391c0.55 11.79 1.1013 23.001 1.1113 23.211h0.60938c0-0.23 0.60969-12.42 1.1797-24.75z"/>
</svg>
