<svg width="100" height="100" version="1.1" viewBox="0 0 100 100" xmlns="http://www.w3.org/2000/svg">
 <path d="M100,53l-.21-1,.18.13-.2-.22L99,48.07v-1.4l-.28,0-.37-1.83-.49-7.07-.12.59,0-.76h-.49c0,.36-.07.72-.11,1.08l-1-4.89L96,35.93c0,1.82,0,3.64,0,5.46l-.61-1.81.27,2.33c0,.49.13,1,.2,1.45l0,.09A11.51,11.51,0,0,0,95.41,45c-1.2-1.22-2.41-2.45-3.64-3.67l-.17-.19a52.78,52.78,0,0,0-5.13-5.55A40.7,40.7,0,0,0,83,30.76q-.28-.36-.57-.69l-1.13-2.44L81.36,29c-.2-.21-.39-.41-.59-.6L79.53,27.1,79.42,27V27l-3-3-.24-.43c4.14,3.3,8.33,6.53,12.53,9.68l.32-.39c-6.6-5.76-13.56-11.33-20.34-16.71l-.77-.78a50.86,50.86,0,0,0,7.61.37l2.4.23.07-.49-.16,0v-.36q-.34,0-.69,0l0-.26-.92-.22c.63,0,1.25-.06,1.87-.11v-.5l-.49,0v-.11l-3.8-.32c.71,0,1.42,0,2.13,0V13l3.3-.06v-.49h-.68l3.66-.33h0l0-.49-11.36,1-5,.08-.07-.1-.11-.13-.16.05a.53.53,0,0,0-.29.2H65l-.15,0L61.2,12l-.07.36-1.28-.06,0,.49.72.06L60.4,13l-1.84-.42.62.55h-.34v.13h-.11l-.5-.41L58.92,14l.1.12-1.78-.22-.1.48a20.75,20.75,0,0,0,2.62.6,4.32,4.32,0,0,0,.76.53l-.09.11A95.44,95.44,0,0,1,71.38,27.54l.39-.29c-.31-.48-.64-.95-1-1.42l.12-.12a4.91,4.91,0,0,1-.65-.85l1.43,1.25,3.14,3.48c.28.3.55.6.82.91l-.24-.11c-.68-.44-1.41-.87-2.19-1.31a44.87,44.87,0,0,0-20.11-5.74,1.79,1.79,0,0,0,0-.23l1.93-.41h-.89l.17,0-.6,0h-.57A55.14,55.14,0,0,0,53,11.06c0-1.21.11-2.42.18-3.62l-.49,0c-.07,1-.13,1.92-.19,2.89-.1-1.93-.23-3.85-.42-5.77h-.37l-.08-2.22h-.49c0,2.2,0,4.41.08,6.61-.08,1-.14,2-.2,3,0-.46,0-.92-.07-1.38h-.5v3h-.08l.07.75c0,1.09,0,2.17-.06,3.27S50,19.81,50,20.93c-.06-.89-.09-1.78-.11-2.67,0-.54,0-1.07,0-1.61h-.49c0,.53,0,1.06,0,1.6,0,.82-.08,1.65-.17,2.47A6.38,6.38,0,0,0,48.53,23a31.22,31.22,0,0,0-4,.84l-.71.07,0-.09-.6.15a41.86,41.86,0,0,0-6.07,1A30.7,30.7,0,0,0,28,29.14l-.11,0h0l-.32.22,4.31-4,1.15-.95-.06-.07,7.44-6.89a20.73,20.73,0,0,0,3.38-3.71h.64l0-.49h0V13h-.16l.09-.19,1,0v-.5l-.8,0h0l1.82-.11,0-.5-1.72,0,0-.07-.08.07-3.29,0,.08-.12-.12.12a142.64,142.64,0,0,0-16.24,1l-.79,0,0,.5h.07v.07l1.35,0c-.15.05-.3.12-.44.18l-1.06.48,11.83-.09a25.08,25.08,0,0,0-2.37,2.95C31.59,19.86,29.33,22.93,27,26q-7.91,6.5-14.9,13.4L7.42,43c.07-.82.13-1.64.17-2.45l.11-2.42.6-6.41-.11,0c.08-.32.15-.64.24-.95l.44-1.46-.82,1.16,0-.7-.17.63.1-1-.49-.05c-.13,1.07-.26,2.14-.38,3.22-.11.45-.19.9-.27,1.35-.22,1.3-.47,2.6-.72,3.9,0-.11,0-.21,0-.33l-.24,0,.15-.78c.11-.44.22-.87.3-1.32l.19-.94-.05,0,.78-3.83-.49-.1c-.31,1.57-.64,3.15-.95,4.74l-.33.39.21.18-.15.79a49.82,49.82,0,0,1-2.25,6.24A33.53,33.53,0,0,0,.57,52.12L0,53l.59-.41.43.07.12-.46L1.48,52h0l.21.09-.12.28.44.23c.2-.31.43-.61.65-.92l.16.16L3.65,51h0v0l.11-.1.3.32L20.5,36l0,0a1.51,1.51,0,0,0-.11.22c-.13.26-.24.52-.35.79a13.54,13.54,0,0,0-1.27,3,11.34,11.34,0,0,0-.4,2.67l-.5-1.08L18,43.05a21.81,21.81,0,0,0,.81,4.26c.05.41.1.81.16,1.22l.33,2,.12-1.46a21.81,21.81,0,0,0,2.32,4.37l.68,1-.15-.74A7.47,7.47,0,0,0,25.48,57l.12.11,1.73,1.46-.86-1.14a6.17,6.17,0,0,0,1.12.3l.56.08L28,57.52a19.52,19.52,0,0,0,2.47,1.32l.18-.32.17.09a6.78,6.78,0,0,0,1.58.82l.2-.46c-.44-.21-.86-.43-1.29-.66L31,57.78a1.1,1.1,0,0,0-.48-.52c-.28-1.16-1.7-1.65-2.66-2a12.5,12.5,0,0,1-1.6-.66,12.54,12.54,0,0,1-2.89-4.31,12.76,12.76,0,0,1,0-9.3c.69-.87,1.36-1.75,2-2.66l.1.13,6.65-4.73,1.22-.44c1.28-.45,2.58-.85,3.89-1.22v0c3.29-.53,6.63-1,10-1.34-.08,2.19-.1,4.4-.06,6.58l-.13,10.57c-.16,1.72-.28,3.46-.35,5.18h.14c0,.13,0,.25,0,.38l-.07.49c-.54,3.3-1,6.65-1.35,10l.35.05c0,1.48-.06,3-.08,4.46,0,.06,0,.13,0,.2,0,.43-.07.86-.1,1.3a69.19,69.19,0,0,0-.54,17.37l-.12.67c-.08.46-.15.92-.22,1.38l-.53,0a46.14,46.14,0,0,0-.13,6.33l0,.38-3.26.72,2.87,0h.43l0,.88.25-.89c.36,0,.72,0,1.08,0v.16h0l.07.58.12-.64.5-.14a4.51,4.51,0,0,0,1,.11,7.18,7.18,0,0,0,3.33-1c.56-.17,1.11-.37,1.65-.58l.1.2.19-.31L53,94.9l.23,1.78.3-2,.22-.07.18,0,.11.83.27-.92.45-.09H55a.64.64,0,0,0,.38-.12l2-.44-1-.39a2.11,2.11,0,0,0-.68-.14,1.81,1.81,0,0,0-.07-.35l-.11-.32,0,0,2.11-2.21L55.27,92l-.39-1.2a45.39,45.39,0,0,0-1.74-7.35L52,76.06c-.1-1.2-.2-2.4-.29-3.6l-.15-6c0-.82,0-1.63,0-2.44l.07-.79c.13-1.31.23-2.64.29-4H52a104.71,104.71,0,0,0,.39-17.53,76.62,76.62,0,0,0,.1-9.82l0-.63,1.63.1,1,.17c1.74.35,3.45.76,5.12,1.2A49.83,49.83,0,0,1,71,36.59a19.9,19.9,0,0,0,3.24,3c.44.51.87,1,1.29,1.57.42,1.15.86,2.3,1.33,3.43.23,1,.47,1.89.73,2.82h0c.06.34.12.68.16,1-.06.17-.11.34-.16.51a.41.41,0,0,0-.07.11.54.54,0,0,0,0,.25c-.19.7-.34,1.4-.46,2.11l-.19,1.14c-.37.68-.72,1.38-1,2.09l-1.58,1.89A22.88,22.88,0,0,1,72.45,58l-.73.52.19.28-.39.39L70.1,60.63l1.25-.78-.27.32,1.06-.81A34,34,0,0,0,78,54.6l-.32-.37-.62.44q.78-1,1.5-2c.33-.39.68-.78,1-1.17q-.81,1.24-1.68,2.43l.39.31c1.57-2,3.09-4,4.52-6.08l1.37-2-1.75,1.67-.18.18c.56-1,1.08-2,1.58-3.06l-.43-.26-.38.52a7.77,7.77,0,0,0,.24-1,8.7,8.7,0,0,0,.16-1.77l.73.56-.74-1.22a11.24,11.24,0,0,0-.89-3.69c2.64,2.94,5.06,5.67,7,7.87l.38-.32c-.89-1.13-1.92-2.41-3.06-3.8.86,1,1.74,1.94,2.65,2.87,1,1.19,2.11,2.37,3.17,3.53l1.6,1.82q.86,1.23,1.68,2.46l.33-.22,1.26,1.41c0,.17.07.35.1.52l.32-.05.6.67,0,.19h.15l.18.19.53.6-.06-.45.06.07-.07-.13,0-.29c-.09-.59-.19-1.19-.28-1.78v-.62a3.23,3.23,0,0,0,.59.22M58.84,13.32l-.09-.06.09,0Zm1.66,1L60,14.26l-.7-.58,0,0,.46,0,.24.06.67.46Zm.39.05h0Zm-.11-1.32h0l-.18-.2,1.95.16-1.73,0m4.33,2.36.06,0,.2.45-.57-.51,0,0Zm0,3.51c-.49-.5-1-1-1.5-1.49l.1.07,1.1,1,.71.79Zm2-2.46.54.61v.16a5.19,5.19,0,0,0-.37-.45c-.05-.11-.11-.21-.17-.32m1,5.82-.49-.6.51.43.77.86Zm.82-.21-.31-.39.09.06.21.31L69,22h0ZM69.28,20l0-.05-.18-.22a12,12,0,0,0-.73-1.48q.87,1.25,1.68,2.52Zm-26-6.23a13.51,13.51,0,0,1-1,1.27c.32-.41.64-.84.95-1.27Zm-.59-1-.12.08-.85,0h0Zm-7.92,8.76.53-.54.69-.64c-.4.4-.81.79-1.22,1.18m5.63-7.26c.15-.17.32-.33.47-.5h.42c-.37.27-.74.56-1.09.84l.2-.34m-.52,2.49,0,0,1.38-1.26a48.79,48.79,0,0,1-3.41,3.64c.42-.47.84-.94,1.25-1.43l.76-.92m-3,2.09-.14.13-.1-.1-4.67,4.3-.06-.07.36-.37c1.27-1.16,2.55-2.28,3.82-3.38l2.64-2.3-1.85,1.79m.44-1.22.14-.16,0,0Zm.09-2.57c.31-.42.61-.85.9-1.27h0c-.26.44-.52.87-.79,1.3-.12.13-.22.27-.33.4.06-.14.13-.28.2-.43M27.22,13.42a13.8,13.8,0,0,1,2.39-.17h.84l6.25.08h0Zm9.05,1.46.41-.29c-.67.82-1.35,1.64-2,2.47.52-.74,1.06-1.47,1.6-2.18m-.68,2.58c-.05.09-.12.17-.17.26-.21.27-.43.54-.63.81l.06.06c-.38.58-.8,1.15-1.23,1.7l-2.3,2.27c1.45-1.66,2.89-3.35,4.27-5.1M1.89,51.05l-.08.05c.07-.1.12-.2.19-.29l-.11.24m1.56-2-.06,0c0-.07,0-.13.07-.19s0,.09,0,.14m.79-5c-.32.68-.65,1.36-1,2,.06-.15.13-.31.18-.46.3-.73.59-1.47.87-2.21,0,.21-.07.42-.1.63m.26,3.8L4.44,48l.06-.24Zm.38-7.39c-.55,1.69-1.21,3.35-1.86,5-.45,1.11-.9,2.24-1.31,3.39A51.29,51.29,0,0,1,3.83,43c.36-.86.72-1.74,1.07-2.63a.29.29,0,0,0,0,.09m2.46,3.82v-.49a.88.88,0,0,0,0-.17l2.24-1.71q-1.14,1.19-2.25,2.37m4.75-4.18c.13-.13.25-.26.38-.38l.22-.17Zm3.22-1,.18-.16.16-.14-.34.3m.17-2.34c1.79-1.7,3.63-3.39,5.51-5q-2.52,2.3-5,4.64ZM19.82,36v0l.11-.1h0Zm.12,7.91-.06.59v-.21c0-.12,0-.25.06-.38m-.2,3.78h.05c.13.35.27.69.42,1a9.88,9.88,0,0,1-.47-1m.41-1.09.07-.64c0,.17,0,.35,0,.52s0,.29,0,.44l-.12-.32m.35-9.25.19-.32-.06.55-.09,0c0,.1-.07.2-.1.3l-.11,0,.17-.45m-.14,2.59,0-.1v0s0,0,0,.05m.05,10.15q.38.57.81,1.11c.07.27.15.55.21.83-.37-.63-.71-1.28-1-1.94m.8-13.45.07,0-.05.1v-.05Zm0,0-.22,0,.14-.23a18.64,18.64,0,0,1,1.32-1.75l.15-.08a13.9,13.9,0,0,0-.9,1.27Zm0,6.08h0M21,40.48h0m6.76,15.26A4.21,4.21,0,0,1,30,57.06h-.12a6.77,6.77,0,0,1-.66-.33,7.3,7.3,0,0,0-1.52-.95l-.16-.12.23.08m-1.15,1.18a7.55,7.55,0,0,1-.72-.32l-.14-.19c.28.18.57.36.86.51m-.93-1.13c-.16-.11-.32-.22-.47-.34a1.12,1.12,0,0,1-.05-.13c.17.16.34.32.52.47M23,50.48a12.22,12.22,0,0,0,1.17,2.24l-.54-.61a14.82,14.82,0,0,1-2.06-4.63,9.43,9.43,0,0,1,.35-4c.2-.4.4-.79.61-1.17A13.18,13.18,0,0,0,23,50.48m0-10a7.73,7.73,0,0,0-.49.64c.19-.47.39-.94.59-1.41s.71-1.11,1.1-1.65c.26-.16.5-.36.75-.55q-1,1.45-2,3m.68-3.82c-.14.22-.29.45-.43.69l-.35.45a12.74,12.74,0,0,1,.78-1.14M23,33.89a1.83,1.83,0,0,1,.13-.16l.1,0-.16.17H23m-2.77,1.68.05-.07c.32-.3.63-.59.94-.9Q23,33,24.82,31.3l.46-.38Zm5.61-1.68-.15.09-.18.07c.15-.11.3-.22.46-.32l0,0-.17.18m.74,1.36-.2.16.33-.32a1,1,0,0,1-.13.16m.19,1.07c.07-.1.13-.2.19-.3l.73-.45c-.32.24-.62.49-.92.75m6.32-9.42v0L33,27l.09-.05m-2.83,5-.07,0,.13-.1.14,0-.2.1m1.36-2.61c.5-.23,1-.43,1.49-.63l.5-.08-.32.16-.31.15-.13,0q-.62.15-1.23.36m2.81,2.61-1.2.49-.28.12,1.39-.76.14,0,0,.15-.1.05M36.65,29l-.15,0,.15,0h0m-1.18-3c.58-.2,1.17-.38,1.76-.53s1.18-.29,1.78-.41Zm9.39.76-.33.07c.24-.08.47-.17.71-.27l.88-.11-1.26.31m1.61,1.51.28-.09.12,0-.4.05M44.65,95.93v0l.08,0a2.68,2.68,0,0,0,.07-.27.66.66,0,0,1,.22-.22.92.92,0,0,0,0,.37.17.17,0,0,1,0,0Zm.45-1.28.06-.21.06.17-.12,0m.42-9.87c-.12-2-.15-4-.1-5.91,0,1.36.13,2.73.24,4.09a2.81,2.81,0,0,0,0,.29q-.09.77-.15,1.53m.9-23.27L46.63,60c-.06.68-.1,1.38-.15,2.07v-.55Zm.11,29.88c0-.14,0-.27,0-.41h.08c0,.14-.07.27-.1.4m.19-20c0,.26,0,.52,0,.77v.16c0-.68,0-1.36-.05-2l.12-1.07V70l0,1.39m.65,22.91a.31.31,0,0,1,0-.08h0Zm.11-15.61,0-2.46,0,2.4,0,.06m.11,4.58-.06-.42.08.29v.06ZM47.91,34l0-3.34.21,0Q48,32.34,47.91,34m.21,33,0,0c0-.08,0-.16,0-.24,0,.07,0,.15,0,.22M48,70.93h.11l-.09,1Zm.23,20.87-.14.06v-.17l.18-.12a1.85,1.85,0,0,0,0,.23m-.11-.91v-.14l.16-.17.06.17a1.64,1.64,0,0,0-.22.14m.35-5.44a3.42,3.42,0,0,0-.21.43l0-1.1c0-.07.09-.14.14-.21,0,.13,0,.26,0,.39v.49m-.24-.53v0l0-.09Zm.07-1.2c0-.17,0-.33,0-.5l0,.46-.06,0m.13-55.92a.06.06,0,0,1,0,0l-.54-.05.35-.12,0,0,.29.11h-.13Zm1,44.15c0-.23,0-.47,0-.71h.11l-.09.71m0-49.05c0-.28.1-.54.14-.81l.06.24.06.54a2.06,2.06,0,0,0-.26,0M50,82l0-.68a1.29,1.29,0,0,1,0,.19c0,.16,0,.33-.07.49M49.82,69.7l0-.39H50v.42Zm.26,9.6c0-.16,0-.31,0-.46l.06.73Zm.6,14.4h0m0-63.38-.1,0v0h.1v0M50.88,35c0,.24-.07.49-.11.73v-.24l.12-.94V35m3.19,57.82c.12-.16.24-.33.35-.5,0,.11,0,.22,0,.34h0l-.3.23s0,0,0,0v0h0m-.31-2.12a1.44,1.44,0,0,1,.07.55l-.06,0c0-.16,0-.33,0-.5,0,0,0,0,0,0m-1.59-5.29-.08.16V85c0,.14.06.28.09.42M50.94,93.6a.43.43,0,0,1,0,0l0,0h0s0,0,0,0l-.08,0m.3-3.15a2.12,2.12,0,0,0-.11.21v-.08l0-.16h.1a.06.06,0,0,1,0,0m.12-74.9c0,.1,0,.21,0,.31,0-.28,0-.56,0-.85v-.53l0-.56c0,.09,0,.19,0,.28,0,.45,0,.9,0,1.35m.42,31.8.15-1.07q0,1.76,0,3.51c0-.81-.09-1.62-.15-2.44M52,13.1l-.2-5.61s0,0,0-.08c.12,1.77.21,3.56.27,5.34,0,.12,0,.23-.08.35M52.12,16h0l0-.88.06-.3c0,.34,0,.68,0,1,0,.06,0,.11,0,.17m2,9.39h.15l.72.17h-.34l-.13,0-.4-.14m.63,2.06-.52-.2,1,.27-.45-.07m.58-1.79h0l.1,0-.13,0m1,1-.19,0-.36-.14.61.19h-.06m.85-2h.53l.37,0,0,0-.93-.08m2.36.79-.35-.08.37.05.12,0h-.14m11.13,5.42h-.09a.21.21,0,0,0,0-.07l.12.06m-.32-1.22-.09,0v0l.1.08m-.38,1-.43-.28.39.17s0,.07,0,.11m-.71-2.49L69,28.11l-.33-.2.54.25m.49,1.16v.08c-.52-.21-1-.4-1.57-.57l-.06-.09c.53.22,1.08.41,1.63.58m-2.29-.87-.06.05.06.09h-.06l-.24-.27.3.14m-5.1-2.25L62,26.1c.47,0,.94,0,1.4,0l.2,0,.13.1-1.41-.05m1.68.55h.42l.48.32-.9-.32m3.39,3.15-1.61-.57L65.24,29c.72.28,1.44.6,2.14.95m-1.63,3.25c.65.15,1.3.32,2,.48l.71.41-2.66-.89m4,2.24.46.2,0,0-.5-.24m-.93-3.64v0h-.09l-.18-.07.7.11v0c.55.24,1.1.45,1.66.64l.07.08c-.73-.21-1.45-.44-2.16-.7M71,31.23a.66.66,0,0,0-.05-.15l0-.07.08,0,.28.3L71,31.23m1.22.5-.35-.24c.24.12.48.23.72.36l-.19-.05-.18-.07m.21,4.89.16.08a.69.69,0,0,0,.11.13l-.27-.21M73,29.5l0,0-.56-.3.59.32Zm1.39,1.05-.24-.16-.06,0,.3.2M73.6,30l.41.29h0c-.16-.1-.31-.21-.47-.3Zm.09,6.13.21.2-.15.1L73.3,36l.39.16m.88,3c-.29-.34-.61-.67-.92-1l.45.32.58.75-.11-.07m.1-2-.09-.13.15.14.09.11a.88.88,0,0,0-.15-.12m.56-5.95,0,0L74.9,31l.33.25m-.16,5.61a1.07,1.07,0,0,0-.14-.16l.12,0v0a3.06,3.06,0,0,0,.21.29h0l-.21-.17M72.7,21.08l-.41-.36L72,20.46v0l-.71-.94.72.59.83.84Zm-.39-1.3L71.59,19l1.52,1.23.08.22-.88-.71m2.5,1.85q3.47,2.78,6.9,5.62-3.24-2.52-6.45-5.1c-.14-.18-.3-.35-.45-.52m.52,4.15,0,0,.4.51a5.23,5.23,0,0,0,.61.87l.05.12c-.1-.1-.19-.18-.28-.28l-.82-1.18m1.18,10.06,0,.14-.63-.61.61.47m0,1,.17.08s0,.07,0,.11l-.18-.19m.21-2.8h.1l.09.15a.41.41,0,0,0,0,.09c-.09-.08-.16-.17-.24-.25m.06-7.32a1.22,1.22,0,0,1-.07-.17l0,0L77,27l-.21-.27m.7,11.81,0,0a1.12,1.12,0,0,1,0,.13l-.09-.17m.18-1.72-.11,0-.07-.15.18.15v0m-.33,16,0,0,.06-.16c.17-.31.35-.61.52-.91l.07,0-.63,1m.92-24.27,0,0a.08.08,0,0,0,0,0l0-.05m0-1.19L78,27l.39.44c0,.06.07.11.1.18-.11-.12-.22-.22-.33-.33m.4,23.38-.06.11a.8.8,0,0,1,0-.15c.14-.22.27-.45.42-.67-.12.24-.25.48-.39.71m.09-10.53.14.1c0,.23.09.45.15.68s0,.37,0,.56h0c0-.1-.05-.2-.08-.3s-.07-.3-.1-.45a5.58,5.58,0,0,1-.09-.59m.16-13c-.06-.12-.13-.22-.2-.34l1,1.07,0,.2c0,.05,0,.1.05.16-.31-.37-.62-.74-.94-1.09m.86,3.94.2.2h0l-.19-.2a0,0,0,0,0,0,0m.15,7.1,0-.09.11.13v0l-.06-.08M80,47.79l0-.29,0,.19a.36.36,0,0,0-.07.1m.45-3.35c0-.11,0-.22,0-.32V44c0,.1,0,.21,0,.31l0,.15m.13-5.9a1.11,1.11,0,0,1-.07-.16l.09.08a.31.31,0,0,0,0,.08m.2,4.18c0-.19,0-.38-.09-.57a.43.43,0,0,0,0,0l.08-.69.16.07c0,.27,0,.55,0,.83s-.09.27-.14.41m.2,1.6c0-.1,0-.2.08-.3s0,.08,0,.12c0,.22,0,.44,0,.66,0-.16,0-.32,0-.48M81.16,47v.14l0,0a.18.18,0,0,1,0,.07c0-.12.08-.25.1-.38V47m.25-13.72-.24-.23-.44-.47,0,0-.11-.11-.06-.38c.29.36.59.71.89,1.06a.45.45,0,0,0,0,.11m.46.45v0l0,0,0,.07-.07-.07m.76,10.85,0,.11,0-.49a20.94,20.94,0,0,0,.23-2.11l0,0a9.26,9.26,0,0,1-.15,2,10.93,10.93,0,0,1-.31,1.12c.05-.23.1-.46.14-.7m-.11-7.85.23.19.76,1c-.32-.39-.66-.78-1-1.17m2.21-1.59,0-.06.57.56.15.19-.7-.69m3.71,5.69c-.16-.18-.31-.37-.47-.54s-.46-.63-.68-.95l-.15-.24,1,1,.41.66Zm2.19.76-.18-.18.2.16Zm1.19.84,0,.13-.42-.49.4.36m-.21,2.18.26.33,0,.11-.29-.44m3.67.94,0,0,0,0h0m.79,5.33-.24-.5,0,0c.06.17.14.33.21.49h0m.11-4.47-.2,0c.07-.23.15-.46.21-.69a6.09,6.09,0,0,0,0,.74m.52-7c-.06.53-.11,1.06-.16,1.59,0-.91-.05-1.82-.05-2.73l.23,1.14Zm.64,4.78v-.68l.09-.62.1.52,0,.81Zm.3,1s0,0,0-.05v.05ZM98,51a2.42,2.42,0,0,0-.1-.36c0-.08-.06-.17-.09-.24l.1.07c0,.13.09.26.15.4l.16.41,0,.12L98,51M99,50.64l.1.49L99,51Zm0,1.48V51.4l.17.14.16.75L99,52.12"/>
</svg>
