<svg width="100" height="100" version="1.1" viewBox="0 0 100 100" xmlns="http://www.w3.org/2000/svg">
 <path d="m50 0-0.080078 0.19922c-0.57 1.41-2.6598 5.9203-6.0898 6.0703l-6.1895 7.8398c1.54 7.54-10.371 14.441-10.371 14.441l-11 14.619c0.18 3-1.6792 5.6706-2.4492 6.6406l-0.12109 0.18945 0.16016 0.18945c0.77 1 2.6312 3.6406 2.4512 6.6406l11 14.619s11.909 6.9014 10.369 14.441l6.1895 7.8398c3.43 0.15 5.5218 4.6603 6.0918 6.0703l0.078124 0.19922 0.080079-0.19922c0.57-1.41 2.6618-5.9203 6.0918-6.0703l6.1895-7.8398c-1.54-7.54 10.369-14.441 10.369-14.441l11-14.619c-0.18-3 1.6812-5.6606 2.4512-6.6406l0.080078-0.18945-0.16016-0.18945c-0.77-1-2.6312-3.6406-2.4512-6.6406l-11-14.619s-11.909-6.9014-10.369-14.441l-6.1504-7.8398c-3.43-0.15-5.5198-4.6603-6.0898-6.0703l-0.080078-0.19922zm0 2.8398 34.84 47.16-34.84 47.16-34.84-47.16 34.84-47.16zm-0.16992 3.3496-32.301 43.611 32.301 43.619 32.301-43.619-32.301-43.611zm-0.005859 5.3437a3.32 3.32 0 0 1 2.6855 1.3672l23.621 32.33a7.74 7.74 0 0 1 0 9.1602l-23.621 32.33a3.33 3.33 0 0 1-5.3691 0l-23.621-32.33a7.77 7.77 0 0 1 0-9.1602l23.621-32.33a3.32 3.32 0 0 1 2.6836-1.3672zm-13.645 20.127a11 11 0 0 0 1.8906 6.4805s2.8794-0.61984 1.6094 1.6602c0 0 3.7099 2.7095 4.1699 4.2695l-0.5293 0.41016a25.23 25.23 0 0 1 3.9395 4.1602 25.37 25.37 0 0 1-5.7305-0.64062v0.66992c-1.53 0.58-5.9297-0.75977-5.9297-0.75977-1.05 2.39-2.2891-0.29102-2.2891-0.29102a11.05 11.05 0 0 0-6.3105 2.3809 11.05 11.05 0 0 0 6.3105 2.3906s1.2391-2.681 2.2891-0.29102c0 0 4.3997-1.3398 5.9297-0.75976v0.66016a25.07 25.07 0 0 1 5.7715-0.65039 25.05 25.05 0 0 1-3.9414 4.1699l0.53125 0.41016c-0.46 1.56-4.1699 4.2695-4.1699 4.2695 1.27 2.28-1.6113 1.6602-1.6113 1.6602a11 11 0 0 0-1.8887 6.4805 11.09 11.09 0 0 0 5.709-3.5996s-1.3996-2.61 1.1504-2c0 0 1.57-4.3195 3-5.1895l0.5293 0.39844a25.05 25.05 0 0 1 3-5.0801l0.27148-0.31836h0.2793l0.26953 0.31836a25.05 25.05 0 0 1 3 5.0801l0.53125-0.39844c1.38 0.87 3 5.1895 3 5.1895 2.55-0.6 1.1484 2 1.1484 2a11.09 11.09 0 0 0 5.7109 3.5996 11 11 0 0 0-1.8906-6.4805s-2.8794 0.61984-1.6094-1.6602c0 0-3.7099-2.7095-4.1699-4.2695l0.5293-0.41016a25.05 25.05 0 0 1-3.9395-4.1699 25.07 25.07 0 0 1 5.7695 0.65039v-0.66992c1.53-0.58 5.9297 0.75977 5.9297 0.75977 1-2.39 2.291 0.29102 2.291 0.29102a11.05 11.05 0 0 0 6.2695-2.3809 11.05 11.05 0 0 0-6.3105-2.3906s-1.2391 2.681-2.2891 0.29102c0 0-4.3997 1.3398-5.9297 0.75976v-0.66016a25.37 25.37 0 0 1-5.7715 0.64062 25.23 25.23 0 0 1 3.9414-4.1602l-0.53125-0.41016c0.46-1.56 4.1699-4.2695 4.1699-4.2695-1.27-2.28 1.6113-1.6602 1.6113-1.6602a11 11 0 0 0 1.8887-6.4805 11.09 11.09 0 0 0-5.709 3.5996s1.3996 2.61-1.1504 2c0 0-1.57 4.3195-3 5.1895l-0.5293-0.39844a25.05 25.05 0 0 1-3 5.0801l-0.27148 0.31836h-0.2793l-0.26953-0.31836a25.05 25.05 0 0 1-3-5.0801l-0.53125 0.39844c-1.38-0.87-3-5.1895-3-5.1895-2.55 0.6-1.1484-2-1.1484-2a11.09 11.09 0 0 0-5.7109-3.5996zm1.8809 2.4102a3 3 0 0 1 2.5996 1.4004s-0.48992 2.52 1.8301 3a12.16 12.16 0 0 0 1.0898 2.8887 12 12 0 0 0-2.4707-1.8496c0.088967-2.3201-2.4297-2.5488-2.4297-2.5488a3 3 0 0 1-0.61914-2.8906zm23.879 0.070313a3 3 0 0 1-0.61914 2.8594s-2.5597 0.22961-2.4297 2.5996a12 12 0 0 0-2.4707 1.8496 11.66 11.66 0 0 0 1.0898-2.8887v-0.021485c2.32-0.53 1.8301-3 1.8301-3a3 3 0 0 1 2.5996-1.3984zm-11.939 14.529a1.33 1.33 0 0 1 1.3301 1.3301 1.32 1.32 0 0 1-1.3301 1.3301 1.3301 1.3301 0 1 1 0-2.6602zm-17.27 0.089844s1.7191 1.9109 3.5391 0.38086a12.1 12.1 0 0 0 3 0.85938 12.1 12.1 0 0 0-3 0.85938c-1.82-1.53-3.5391 0.38086-3.5391 0.38086a3 3 0 0 1-2.6699-1.2402 3 3 0 0 1 2.6699-1.2402zm34.539 0a3 3 0 0 1 2.6699 1.2402 3 3 0 0 1-2.6699 1.2402s-1.7191-1.9109-3.5391-0.38086a12.1 12.1 0 0 0-3-0.85938 12.1 12.1 0 0 0 3-0.85938c1.82 1.53 3.5391-0.38086 3.5391-0.38086zm-17.27 1.2305-0.009766 0.009766 0.009766 0.009766 0.009766-0.009766-0.009766-0.009766zm-6.4199 8.5605a12.16 12.16 0 0 0-1.0898 2.8887v0.021485c-2.32 0.53-1.8301 3.0488-1.8301 3.0488a3 3 0 0 1-2.5996 1.4004 3 3 0 0 1 0.61914-2.9102s2.5597-0.22961 2.4297-2.5996a12 12 0 0 0 2.4707-1.8496zm12.84 0.039063a12 12 0 0 0 2.4707 1.8496c-0.13 2.37 2.4297 2.5996 2.4297 2.5996a3 3 0 0 1 0.61914 2.8906 3 3 0 0 1-2.5996-1.4004s0.48992-2.5188-1.8301-3.0488a11.66 11.66 0 0 0-1.0898-2.8906z"/>
</svg>
