<svg width="100" height="100" version="1.1" viewBox="0 0 100 100" xmlns="http://www.w3.org/2000/svg">
 <path d="m25.1 0.49023c-6.49-1e-8 -11.49 5.1398-11.49 10.34 0 4.76 3.6316 9.73 7.1016 10-1.73-2.75-2.72-10.211 3-10.211 5.97-0.01 9.16 8.8203 12.25 8.8203 1.63 0 3.3588-2.6185 4.7988-3.7285 2.58 0 3.77-1.7506 5-3.3906a5.58 5.58 0 0 1-5.0801 4.8594c-1.04 2.81-3.4603 4.1895-4.8203 4.1895-2.21-0.08-4.62-3.3485-5-4.2285-2.94 2.85-4.8584 4.3991-5.6484 5.6191v1c0.92 0.25 2.9181 1.891 2.5781 2.541-1.63 3.1-2.34 6.4883-1 8.4883-0.59 0.52-2.7886 2.8513-3.0586 4.3613a6.6 6.6 0 0 0 0 3.5605c0.19 1.33 4.3594 3.25 4.3594 7 0 2-2.0305 8.12-3.4805 9 1.97 0.82 7.2499 7.5191 3.1699 13.289v1.8398c0.39 4.66 3.5005 8.1298 4.0605 8.2598 5.63 1.25 9.4209 5.2809 6.6309 7.8809 0 3.71 6.4891 4.2903 6.7891 4.8203 0.32 0.87 0.43 2.2992-1 4.6992a12.82 12.82 0 0 0 5.7402-4.2891c0-0.02 3.6601 3.6693 5.8301 4.2793-1.47-2.4-1.36-3.8312-1-4.7012 0.3-0.53 6.7891-1.1084 6.7891-4.8184-2.79-2.6 1.0009-6.6309 6.6309-7.8809 0.56-0.13 3.6705-3.5998 4.0605-8.2598v-1.8906c-4.08-5.77 1.1699-12.469 3.1699-13.289-1.48-0.87-3.4805-7-3.4805-9 0-3.75 4.1205-5.6509 4.2305-6.9609a6.6 6.6 0 0 0 0-3.5586c-0.27-1.51-2.4705-3.8413-3.0605-4.3613 1.35-1.95 0.64-5.3902-1-8.4902-0.34-0.65 1.6601-2.2891 2.5801-2.5391v-1c-0.79-1.22-2.7104-2.7711-5.6504-5.6211-0.35 0.88-2.76 4.1505-5 4.2305-1.36 0-3.8203-1.3795-4.8203-4.1895a5.58 5.58 0 0 1-5.0801-4.8594c1.22 1.64 2.41 3.3887 5 3.3887 1.44 1.11 3.1708 3.7305 4.8008 3.7305 3.09 0.03 6.25-8.8203 12.25-8.8203 5.75 0.02 4.7507 7.4602 2.9707 10.24 3.47-0.3 7.0996-5.27 7.0996-10 1e-6 -5.2-5.0002-10.34-11.49-10.34-4.47 0-12.15 3.2808-19.83 9.5508h-10c-7.68-6.27-15.36-9.5505-19.9-9.5605zm54.949 22.924c-0.76805 0.092359-5.9816 4.1453-5.7285 4.7266 0.87 2.06 1.709 4.1699 0.70898 6.4199 0.92 1.15 3.46 4.5891 3 6.8691 5.55-9.81 4.8413-11.69 2.1113-17.98-0.00875-0.03125-0.040593-0.041314-0.091797-0.035157zm-60.123 0.007813c-0.014276 0.004626-0.022265 0.013281-0.02539 0.027344-2.73 6.29-3.4404 8.1705 2.0996 17.98-0.46-2.28 2.08-5.7191 3-6.8691-1-2.25-0.1493-4.3599 0.7207-6.4199 0.27125-0.60062-5.3523-4.8622-5.7949-4.7188zm12.514 2.7891c3.27 0 8.5502 4.6387 11.91 4.6387 0 1.9-5.3391 5.2707-6.5391 6.4707a4.72 4.72 0 0 0-1.0703 3.459c0 3.67 1.8496 3.8613 3.8496 3.8613-0.77-0.7-1.8695-2.7398-1.2695-3.3398 1.79-1.8 3.6791 3.3398 10.619 3.3398s8.8309-5.1398 10.631-3.3398c0.6 0.6-0.51125 2.6398-1.2812 3.3398 1.99 0 3.8516-0.19133 3.8516-3.8613a4.75 4.75 0 0 0-1.0605-3.459c-1.21-1.2-6.5508-4.5707-6.5508-6.4707 3.36 0 8.6402-4.6387 11.91-4.6387 2.52 0 5.3906 2.8097 5.3906 5.1797v1.8203c0 2.85-5.0997 6.6194-8.9297 4.4395a8.08 8.08 0 0 1 1.4004 4c0 1.22-0.57086 5.3789-3.8809 5.3789-2.78 0-2.9395-1.5586-4.9395-1.5586v0.029297c-1.96 0-5.941 2.5605-6.541 2.5605-0.6 0-4.5793-2.6211-6.5293-2.6211s-2.1592 1.5605-4.9492 1.5605c-3.31 0-3.8711-4.1609-3.8711-5.3809a8.11 8.11 0 0 1 1.3906-4c-3.83 2.18-8.6602-1.7398-8.6602-4.5898v-1.8184a5.63 5.63 0 0 1 5.1191-5zm1.7441 2.209a3.95 3.95 0 0 0 0.55664 7.8594 3.95 3.95 0 0 0 3.9492-3.9395 3.95 3.95 0 0 0-4.5059-3.9199zm30.547 0a3.95 3.95 0 0 0 0.57031 7.8594 3.95 3.95 0 0 0 3.9395-3.9395 3.95 3.95 0 0 0-4.5098-3.9199zm-29.99 2.1094a1.81 1.81 0 0 1 1.8105 1.8105 1.81 1.81 0 1 1-1.8105-1.8105zm30.561 0a1.81 1.81 0 0 1 1.7988 1.8105 1.81 1.81 0 1 1-1.7988-1.8105zm-21.852 17.09a15.2 15.2 0 0 1 6.4512 1.9316 15.2 15.2 0 0 1 6.459-1.9316c4.71 0 8.6406 9.6802 8.6406 11.49v4.3613c0 5.53-7.1996 19.09-15.1 19.09s-15.1-13.56-15.1-19.09v-4.3613c0-1.81 3.9384-11.49 8.6484-11.49zm-3.5293 32.762c3 2.04 6.46 4.1797 10 4.1797 3.54 0 7-2.1797 10-4.1797-1.41 3.31-8.28 6.9199-10 6.9199s-8.6-3.6099-10-6.9199z"/>
</svg>
