<svg width="100" height="100" version="1.1" viewBox="0 0 100 100" xmlns="http://www.w3.org/2000/svg">
 <path d="m0 0.73047v18.75l1.0898 0.24023c9.44 2 13.61 17.47 13.49 31-0.11 13-4.3807 27.799-13.471 29.559l-1.1094 0.2207v18.77h100v-18.779l-1.1094-0.2207c-9.09-1.76-13.361-16.559-13.471-29.559-0.12-13.52 4.0502-29 13.49-31l1.0898-0.23047v-18.75h-100zm2.75 2.75h94.5v13.83c-10.25 3.15-14.71 18.84-14.58 33.4 0.13 14.07 4.6901 29.1 14.58 32v13.809h-94.5v-13.77c9.89-2.94 14.46-18 14.58-32 0.13-14.6-4.3301-30.289-14.58-33.439v-13.83zm1.9297 1.9102v11.209l0.32031 0.09961c7.91 2.52 13.42 14.39 14.09 30.24 0.63 14.88-3.5199 32.901-14.09 37.291l-0.28906 0.10938v10.27h90.578v-10.27l-0.28906-0.10938c-10.57-4.39-14.72-22.411-14.09-37.291 0.66-15.85 6.1806-27.72 14.061-30.24l0.31836-0.09961v-11.209h-90.609zm0.95117 0.91016h88.75v9.5996c-8.07 2.88-13.701 15-14.381 31-0.64 15.1 3.5992 33.3 14.369 38.1v8.6992h-88.738v-8.6992c10.77-4.8 15.009-23.001 14.379-38.061-0.68-16.07-6.3089-28.16-14.379-31v-9.6387zm70.039 3.3086-0.33008 0.39062c-6.77 7.81-10.999 6.42-14.209 4l-0.3418-0.25-0.17969 0.39062c-2.61 5.64-7.2392 7.8587-14.699 6.9688l-0.7793-0.10938 0.46875 0.63086a70.66 70.66 0 0 0 6.4004 7.8086c-0.31 0.41-0.61016 0.83-0.91016 1.25l-0.5293-0.68945c-6.58-8.4-12.8-16.34-20.09-19l-1.6504-0.60938 1.2988 1.1797c1.09 1 1 1.3196 1 1.3496-0.53 1.09-8.4983-0.22024-17.738-1.7402l-4.9316-0.79883 0.88086 0.7793c0.78 0.7 1.5909 1.36 2.3809 2 3.83 3.19 7.4491 6.2003 6.7891 10.82v0.18945l0.16016 0.11914c5.66 4.44 6.8204 9.6506 3.6504 16.391l-0.089844 0.20117 0.12891 0.16992c4.7 5.73 5.0005 11 1.0605 16.52l-0.099609 0.15039 0.058594 0.16016c2.61 7.83 1.5299 12.93-3.3301 15.6l-0.18945 0.10938v0.2207c0.51 6-1.6401 10.889-6.5801 14.879l-1.7402 1.4102 2.0801-0.82031c9.53-3.75 19.181-2.9985 28.711 2.2715l0.18945 0.09961 0.17969-0.13086c4.75-3.47 10.781-5.87 22.551 0l0.28906 0.15039 0.16992-0.2793c3.11-5.44 10-5.6508 20.33-0.63086l1.8906 0.91992-1.5-1.4688c-3.25-3.18-4.7507-5.8201-4.4707-7.8301a4.41 4.41 0 0 1 2.6016-3.1406l0.44922-0.24023-0.43945-0.32031c-5.31-3.78-7.5915-8.5502-6.7715-14.16l0.12109-0.7793-0.65039 0.44922c-3.3 2.28-6.579 4.1212-13.459 3.4512h-0.19141l-0.11914 0.14844c-3.57 4.77-6.26 7.0701-8 6.8301-0.77-0.11-1.3898-0.75946-1.8398-1.9395l-0.11133-0.2793-0.28906 0.070312c-2.05 0.47-3.7709-0.001002-4.7109-1.291a4.46 4.46 0 0 1 0.16016-4.9199l0.66016-1.1094-1.1191 0.62891c-2.12 1.2-3.18 2.9309-3 4.8809 0.29 2.72 3.0501 5.3001 7.0801 6.5801 5.29 1.09 10.45-2.0001 15.85-5.3301 0.09 0 2.4005-0.72007 3.2305 1.1699a5.19 5.19 0 0 1 0 4.3008c-0.8 1.62-2.7104 3.0595-4.4004 4.2695-7.29 4.47-24.44-0.17134-31-5.3613-0.62-0.45-0.56906-2.9984-0.53906-5.0684v-0.45117c0-2.77 0.67836-3.6293 0.81836-3.7793a15.34 15.34 0 0 0 4.8516-3.0703 53.9 53.9 0 0 0 6.1582-7.1895c1.06-1.74 2.5711-2.2908 4.8711-1.8008 0.36 0.11 8.5699 2.5905 14.09-0.26953a6.23 6.23 0 0 1-2.6504 2.9297l0.34961 0.58008a6.48 6.48 0 0 0 3.2617-4.3496c0.92-4.55-3.1109-10.099-4.6309-12.189l-0.35938-0.49023-0.060547-0.10156-0.16016-0.039062c-0.65-0.19-0.6993-0.62024-0.7793-2.2402v-0.43945a0.39 0.39 0 0 0-0.40039-0.37109h-0.46094l0.10156 0.41016c0.38 1.64-0.35117 1.8707-1.4512 2.2207a2.87 2.87 0 0 0-2.0898 1.4902s5.47e-4 0.05891-0.18945 0.12891a1.88 1.88 0 0 0-0.36133 0.20117 11.2 11.2 0 0 1 0.14062-1.2402c0.07-0.38 0.10078-0.6307-0.19922-0.7207h-0.30078l-0.11914 0.25977c-1.59 3.37-1.9305 5.1207-1.2305 6.2207 0.58 0.88 1.8203 1.2602 4.0703 1.2402 0.27 0 0.52945 0.20039 0.68945 0.40039a4.36 4.36 0 0 1 0.71094 1.5703c-1-1.28-2.8805-1.3216-4.3105-1.3516-1.19 0-2.2202-0.048671-2.4902-0.63867-0.51-1.07-0.42054-1.9205-0.060547-5.4805l0.089844-0.83008v-0.33984l-0.68945-0.13086v0.37109c-0.22 1.59-0.77 1.8-1.25 2a1.16 1.16 0 0 0-0.90039 1.0488c-0.2 4.26 1.4499 5.4213 3.1699 6.1113a3.79 3.79 0 0 1-1.9297-0.66992c-1.22-0.84-2.0602-2.49-2.4102-4.75l-0.070312-0.33008h-0.61914v0.30859a2.2 2.2 0 0 1-0.88086 1.7812 1.33 1.33 0 0 1-0.66992 0.25976 4.51 4.51 0 0 1-2.4199-4.8594c0.18-0.23 0.66063-0.79031 1.1406-1.3203 0.66-0.76 1.4691-1.6805 2.1191-2.4805l0.080078-0.089844v-0.12109c0-1.77 1.4316-4.2686 3.1816-6.8086l1.7891-2.4102c0.46-0.62 0.91914-1.2305 1.3691-1.8105 1.06-1.4 2.0002-2.6702 2.6602-3.6602a17.06 17.06 0 0 1-0.72852 5.5l-0.24023 0.37109-1.6797 2.7695 2.2285-2.3496a2.91 2.91 0 0 0 0.27148-0.41016c0.16-0.25 0.34906-0.49 0.53906-0.75a10.3 10.3 0 0 0 2-3.7715 5.86 5.86 0 0 0 5.5801 3.2402c0.09 1.85 0.60055 4.1298 3.3105 4.5898-0.27 2.05-0.10023 3.2714 0.50976 3.9414a1.7 1.7 0 0 0 1.2793 0.53906l1.1504 1.9004a10.88 10.88 0 0 0 1.75 5.2891 17.19 17.19 0 0 1 1.1699 2.291 25.07 25.07 0 0 1 1 3.209 57.28 57.28 0 0 1 1 9.3906l0.089844 2.1211 0.58008-2a39.89 39.89 0 0 0-1-9.3398 20.41 20.41 0 0 0-1.0703-3.6719c-0.47999-16.36 11.231-29.379 16.291-34.939l1.4902-1.6602-1.2402 0.42969c-10.66 3.64-13.87 2.3814-15.41-0.55859l-0.23047-0.45117zm0.009766 1.3906c2.12 3.14 6.3594 3.3304 14.609 0.65039-5.0487 5.6286-15.984 18.014-16.209 33.639-0.16-0.3-0.33047-0.57961-0.48047-0.84961a10.09 10.09 0 0 1-1.5996-4.6504 235.45 235.45 0 0 1 3.6797-28.789zm-0.46875 0.17969a238.93 238.93 0 0 0-3.5703 27.59l-1.1211-1.8789h-0.20898a1.12 1.12 0 0 1-0.94141-0.31055c-0.49-0.53-0.57883-1.7507-0.29883-3.7207l0.048829-0.34961h-0.34961c-2-0.22-3-1.5503-3-4.3203v-0.33984h-0.33984a5.73 5.73 0 0 1-4.2188-1.2891v-11.67c4.52 3.08 8.9 1.9191 14-3.7109zm-64.342 0.41016a93.45 93.45 0 0 1 37.262 24.02 7.94 7.94 0 0 0-0.8418 2.9102c-0.51 0.61-1.0891 1.2806-1.6191 1.8906-8.49-9.25-17.4-14.83-26.5-16.58 0.58-4.88-3.1306-8.0002-7.0605-11.24l-1.2402-1zm1.791 0.10938 0.57031 0.089843c12.29 2 17.739 2.8513 18.469 1.3613a1.11 1.11 0 0 0-0.11914-1c6.54 3.04 12.33 10.44 18.42 18.24l0.68945 0.87891a32.45 32.45 0 0 0-2.3594 3.9004h-0.041016a93.76 93.76 0 0 0-35.629-23.471zm48.09 3.8301v10.531a6.73 6.73 0 0 1-1.2305-2.0605l-0.51953-1.2695-0.16992 1.3594a8.15 8.15 0 0 1-1.5195 3.8008 25.8 25.8 0 0 0 0.25976-5.2598l-0.089843-1.4512-0.48047 1.3398a31.59 31.59 0 0 1-3.1992 4.6309l-1.3105 1.7305a69.25 69.25 0 0 1-5.8301-7c6.87 0.63 11.39-1.4116 14.09-6.3516zm-40.859 8.9199c8.73 1.9 17.289 7.3808 25.479 16.301l-0.11914 0.13086c-1.31 1.49-1.4603 1.6594-1.3203 1.8594a5.17 5.17 0 0 0 2.8203 5.3906 1.51 1.51 0 0 0 1.25-0.23047 2.52 2.52 0 0 0 0.91992-1 6.69 6.69 0 0 0 2.1309 3.6289c0.45 1.62 0.73844 2.7902 0.89844 3.6602a4.6 4.6 0 0 0-5 1.8809c-7.3-9.25-15.129-14.311-23.949-15.451 3-6.56 2.0006-11.74-3.1094-16.17zm43.439 5.2617-0.26953 0.69922c-0.19 0.49-0.76977 0.57969-1.7598 0.67969a6.33 6.33 0 0 0-5.2012 2.75c-0.06 0.09 0.31086 0.35976 0.38086 0.25976a5.94 5.94 0 0 1 4.8594-2.5605 5.4 5.4 0 0 0 1.3906-0.25 10.47 10.47 0 0 1-1.1602 1.0605c-1.35 1.15-2.9999 2.5904-2.9199 4.6504 0 0.1 0.45898 0.07 0.45898 0-0.1-1.83 1.48-3.1895 2.75-4.2695 1-0.86 1.8009-1.5413 1.6309-2.2812l-0.16016-0.73828zm-11.449 5.8984-0.29102 0.16992c-1.73 1.11-2.1092 2.4906-2.1992 4.6406v0.43945l0.36914-0.22852c0.14-0.1 0.27062-0.17023 0.39062-0.24023a4.47 4.47 0 0 0 1.7305-1.7207c0.5-0.66 0.26008-2 0.080079-2.75l-0.080079-0.31055zm-0.29102 0.73047a2.85 2.85 0 0 1-0.10938 2.0605 4 4 0 0 1-1.5898 1.5996c0.11-1.67 0.45922-2.7602 1.6992-3.6602zm9.2109 4.1797a1.41 1.41 0 0 0 1 1.0996 52.43 52.43 0 0 0 2.6191 13 15.85 15.85 0 0 1-4.6895 0.64062 29.3 29.3 0 0 0-2.3301-5.7891c1.32 0.23 2.4891 0.7293 2.7891 2.5293l0.2207 1.4004 0.43945-1.3496a5.12 5.12 0 0 0-0.84961-3.9199 1.45 1.45 0 0 0-1.2598-0.66016c-1.94 0-3.0012-0.27164-3.4512-0.93164-0.45-0.66-0.28953-1.8083 0.48047-3.7383a0.63 0.63 0 0 0 0.28125 0.45898 0.58 0.58 0 0 0 0.66992-0.10938l0.080078-0.089844c0.05-0.1 0.12953-0.13117 0.26953-0.20117a0.91 0.91 0 0 0 0.5293-0.49023c0.27-0.65 0.94992-0.86984 1.6699-1.0898a3.8 3.8 0 0 0 1.5312-0.75977zm-37.57 0.59961c8.61 1.2 16.27 6.2218 23.4 15.342a52.33 52.33 0 0 1-5.8809 6.8691l0.009766 0.029297a47.78 47.78 0 0 0-16.76-5.5801c3.94-5.6 3.6905-10.91-0.76953-16.66zm39.059 1.2617c1.59 2.22 5.07 7.2586 4.25 11.309l0.011719 0.03125a8.94 8.94 0 0 1-1.7402 0.81836 51.31 51.31 0 0 1-2.5215-12.158zm-16.365 0.35352a1 1 0 0 0-0.18359 0.025391 4 4 0 0 0 0 1.0996 0.72 0.72 0 0 0 0.45898 0 3.69 3.69 0 0 0 0-1.0996 1 1 0 0 0-0.27539-0.025391zm6.5469 1.1465c-0.25 2.59-0.26 3.4688 0.25 4.5488 0.51 1.08 1.7298 1 3.0898 1h1a29 29 0 0 1 2.3887 5.8203 29.12 29.12 0 0 1-6.75-1c-0.15-0.82-0.39883-1.8894-0.79883-3.3594a5 5 0 0 0 3.6699 0.53906l1.1289-0.24024-1.0684-0.41992-0.68164-0.24023c-1.92-0.68-3.7295-1.319-3.5195-5.709 0-0.28 0.11094-0.32094 0.46094-0.46094a2.19 2.19 0 0 0 0.83008-0.47852zm-28.33 14.379a47.43 47.43 0 0 1 16.24 5.4004 14.19 14.19 0 0 1-4.3809 2.6992h-0.099609c-0.11 0.08-1.0013 0.87094-1.1113 4.2109-4.65 1.43-9.7884 2.949-13.648 2.959 4.34-2.88 5.33-7.8895 3-15.27zm52.859 6.9102c-0.51 5.12 1.49 9.5306 6 13.141a48.67 48.67 0 0 0-10.77-1 5.68 5.68 0 0 0 0-3.8496 20.62 20.62 0 0 1 4.7695-8.291zm-1.4199 0.86914a22.17 22.17 0 0 0-3.5801 6.6602c-0.91-1.88-3.0009-1.809-4.1309-1.459a7.11 7.11 0 0 1-3.5898-2.9102c5.32 0.43 8.5808-0.70102 11.301-2.291zm-28.07 0.96094a4.77 4.77 0 0 0 0.42969 4.5098 5 5 0 0 0 5.1406 1.6094 3.06 3.06 0 0 0 2.2695 2.1016c2 0.28 4.7712-2.0003 8.4512-6.8203a8.07 8.07 0 0 0 3.5488 3.1191c-6.01 3.66-10.349 5.93-14.869 5-3.74-1.18-6.3203-3.53-6.5703-6a3.93 3.93 0 0 1 1.5996-3.5195zm-12.74 4.0996v0.11133c-0.05 2.37-0.07898 4.4498 0.54102 5.3398-8 4-14.241 7.4396-19.461 10.6a16.5 16.5 0 0 0 4.6504-13.15h0.58984c3.89 0 8.9997-1.5004 13.68-2.9004zm0.88086 5.791a29.11 29.11 0 0 0 6.8496 3.75 29.49 29.49 0 0 1-0.2207 10.1 35 35 0 0 0-16.789-4.5293 32.35 32.35 0 0 0-9.7109 1.5195c5.3-3.22 11.701-6.7099 19.871-10.84zm36.35 0.82031a45.19 45.19 0 0 1 11.609 1.2891 4.74 4.74 0 0 0-2.3984 3.3105c-0.23 1.66 0.52907 3.5688 2.2891 5.7988-4.06-2.82-9.41-4.83-16-6a13.91 13.91 0 0 0 4.5-4.3984zm-29 3.1289a47.58 47.58 0 0 0 14.359 3.2109c3.1 1.92 6.0897 4 7.4297 6.5-11.19-5.39-17.25-3.3315-22-0.021484a30 30 0 0 0 0.21094-9.6895zm23.93 1.5996h0.070312c7.38 1.23 13.239 3.5301 17.449 6.8301-9.44-4.16-15.839-3.7199-19.059 1.3301-1.24-2.5-4.0006-4.6098-7.0605-6.5098a17.59 17.59 0 0 0 8.5996-1.6504z"/>
</svg>
