<svg width="100" height="100" version="1.1" viewBox="0 0 100 100" xmlns="http://www.w3.org/2000/svg">
 <path d="m62.165 4.0065c-0.83945-0.079947-2.4683 2.2487-1.419 3.4079l9.5621 9.5835-0.38842 4.378-5.1763 5.1158a30.74 30.74 0 0 0-11.563-4.9967l-3.9974-7.7058h-4.3975l-4.0579 7.7058a30.78 30.78 0 0 0-11.992 5.2973l-2.6877-2.7989-0.17957-0.99934-0.18933-3.9974 3.9974-3.9974-5.6272-8.9941a25.773 25.773 0 0 0-12.392-1.7879l-2.2485 2.1978 8.6447 8.5842v4.417l-2.998 2.7775h-4.417l-8.5744-8.4046-1.9987 1.9987a27.482 27.482 0 0 0 2.1392 12.683l8.594 5.2368 3.5075-3.5582h2.9082l2.1783 0.39037 2.918 2.6369a30.69 30.69 0 0 0-5.6057 12.502l-7.6454 4.0676v4.3877l7.6141 3.6773a30.56 30.56 0 0 0 3.8588 9.9231l-0.2108 4.1086-5.0455 5.1158a9.6537 9.6536 0 0 0-3.0585-0.48991 9.7636 9.7636 0 1 0 9.7534 9.7533 9.6537 9.6536 0 0 0-0.28887-2.3578l5.2563-5.3558 4.3956-0.12101a30.53 30.53 0 0 0 9.4938 3.6577l3.9974 7.5751h4.3877l3.9974-7.5751a30.92 30.92 0 0 0 10.394-4.2062l3.728 0.17957 5.2056 5.186a9.7536 9.7536 0 1 0 9.2849-6.7455l-0.08003-0.0098a9.7436 9.7436 0 0 0-2.4281 0.29863l-5.4281-5.3246-0.1093-4.3389a30.37 30.37 0 0 0 3.4977-9.2732l7.7352-3.7182v-4.3858l-7.8249-4.1886a30.78 30.78 0 0 0-5.9961-12.82h0.05075l5.1568-5.1685 4.2062-0.20885 6.646 6.6655 12.751-12.822-15.15-15.339zm-15.191 22.735a24.984 24.983 0 1 1-24.984 24.983 24.984 24.983 0 0 1 24.984-24.983zm-5.5764 4.3565c-1.4191 0.24984-1.2092 2.4183 0 2.4183h1.7898v12.392c-2.4284 1.2092-10.513 6.6566-9.9934 15.531-0.22985 3.6476 0.63919 6.8641 1.8484 7.8034h23.894c1.1792-0.93938 2.0494-4.1559 1.7996-7.8034 0.53964-8.8741-7.545-14.322-9.9934-15.531v-12.392h1.7879c1.2092 0 1.4291-2.1685 0-2.4183zm-29.209 49.438 3.9974 1.6493 1.6474 3.9974-1.6474 3.9974-3.9974 1.6376-3.9974-1.6376-1.6395-3.9974 1.6395-3.9974zm69.523 0 3.9974 1.6493 1.6493 3.9974-1.6493 3.9974-3.9974 1.6376-3.9974-1.6376-1.6474-3.9974 1.6474-3.9974z"/>
</svg>
