<svg width="100" height="100" version="1.1" viewBox="0 0 100 100" xmlns="http://www.w3.org/2000/svg">
 <path d="m50 0c-0.67 4.42-1.0807 8.8906-1.7207 13.311h-0.009766c-0.72 1.85-1.5896 3.6388-2.3496 5.4688-0.22 0.54-0.7807 0.66062-1.2207 0.89062-1.34 0.58-2.7088 1.3801-4.0488 1.5801-1.34 0.2-2.66 0.57945-4 0.68945-1.46-0.44-2.8505-1.0195-4.3105-1.4395 0.41 2.05 0.97031 4.0709 1.3203 6.1309-0.27 1.64-0.65 3.2684-1 4.8984-0.7 1.25-1.5005 2.4604-2.3105 3.6504-1.23 0.92-2.5701 1.6903-3.8301 2.5703-1.7 1.42-4.0586 1.2606-6.0586 1.8906 1.43 0.99 3.2783 1.3284 4.4883 2.6484 1.52 1.43 3.1298 2.77 4.5898 4.25 1.09 2.6 2.0918 5.2313 3.0918 7.8613 0.12 1.79 0 3.6004 0 5.4004-0.29 1.8-0.83016 3.5596-1.1602 5.3496 2.37-3.17 4.6099-6.4502 6.9199-9.6602a20.31 20.31 0 0 1-5.0898-18.711 18.84 18.84 0 0 1 6.3086-10.449 15.14 15.14 0 0 1 9.25-3.4395 25.27 25.27 0 0 1 4.5215 0.21875 16.14 16.14 0 0 1 10.34 6.9004c5.3 7.61 4.4794 18.92-2.1406 25.5 2.31 3.21 4.5499 6.4902 6.9199 9.6602-0.33-1.79-0.87016-3.5496-1.1602-5.3496 0-1.8-0.09-3.6104 0-5.4004 1-2.63 2.0198-5.2594 3.0898-7.8594 1.46-1.48 3.0698-2.82 4.5898-4.25 1.21-1.32 3.0602-1.6504 4.4902-2.6504-2.06-0.63-4.3605-0.47063-6.0605-1.8906-1.29-0.92-2.7297-1.6895-3.9297-2.6895-0.87-1.57-2.3102-2.9405-2.4902-4.8105-0.21-1.25-0.59922-2.4705-0.69922-3.7305 0.38-2 0.90055-4 1.3105-6-1.49 0.45-2.9004 1.0812-4.4004 1.4512-1.55-0.21-3.0906-0.57984-4.6406-0.83984a25.13 25.13 0 0 1-3.1602-1.3711c-0.48-0.3-1.1691-0.4-1.3691-1-0.76-1.83-1.6296-3.6188-2.3496-5.4688-0.64-4.42-1.0507-8.8906-1.7207-13.311zm0 28c-0.23621 0.87595-0.33987 1.7908-0.55273 2.668a14.85 14.85 0 0 0-3.668 0.99219c-0.87-0.77-1.4901-1.7801-2.3301-2.5801 0.2 1.15 0.67 2.2198 1 3.3398a14 14 0 0 0-2.8301 2.8594c-1.15-0.37-2.2792-0.80984-3.4492-1.0898 0.81 0.91 1.8297 1.6007 2.6797 2.4707a15 15 0 0 0-0.91016 3.7402 24 24 0 0 0-3.5391 0.83984c1.2 0.23 2.4096 0.45977 3.5996 0.75977a11.87 11.87 0 0 0 1.0293 3.5508c-0.92 1.02-2.0099 1.75-2.9199 2.75 1.3-0.35 2.5513-0.86141 3.8613-1.1914a13.15 13.15 0 0 0 2.6387 2.5215c-0.34 1.22-0.89867 2.3889-1.1387 3.6289 0.95-0.79 1.5293-1.9991 2.5293-2.7891a4.32 4.32 0 0 1 1.5195 0.42969c0.08 1.69 0.010078 3.35 0.080078 5 0.01 0.56 0.74024 0.75031 0.74024 1.3203-0.14 10.84-0.3207 21.68-0.4707 32.52 0.08 1.58-1.2282 2.8397-1.1582 4.4297-0.01 1.35-0.091797 2.7005-0.091797 4.0605 0.7 0.49 1.4504 0.91016 2.1504 1.4102a2.07 2.07 0 0 0 2.5195 0c0.7-0.5 1.4504-0.92016 2.1504-1.4102 0.01-1.36-0.089844-2.7105-0.089844-4.0605 0.07-1.59-1.2402-2.8497-1.1602-4.4297-0.16-10.807-0.31852-21.61-0.47852-32.41-0.11-0.63 0.75-0.83969 0.75-1.4297 0.079999-1.68-0.011875-3.34 0.078124-5a4.32 4.32 0 0 1 1.5312-0.39062c0.97 0.79 1.5893 1.951 2.5293 2.791-0.24-1.24-0.79867-2.4109-1.1387-3.6309a13.47 13.47 0 0 0 2.6484-2.5195c1.3 0.33 2.5516 0.83945 3.8516 1.1895-0.91-0.98-2.0502-1.75-2.9102-2.75a12.16 12.16 0 0 0 1-3.5098c1.19-0.3 2.3996-0.52977 3.5996-0.75977a24 24 0 0 0-3.541-0.83984 14.85 14.85 0 0 0-0.91016-3.7305c0.85-0.88 1.8716-1.5705 2.6816-2.4805-1.17 0.28-2.3012 0.71984-3.4512 1.0898a14 14 0 0 0-2.8301-2.8594c0.29-1.12 0.76-2.1898 1-3.3398-0.85 0.78-1.4301 1.8308-2.3301 2.5508a17.6 17.6 0 0 0-3.709-1c-0.22-0.89-0.32055-1.8209-0.56055-2.7109z"/>
</svg>
