<svg width="100" height="100" version="1.1" viewBox="0 0 100 100" xmlns="http://www.w3.org/2000/svg">
 <path d="m55.289 0c-2.12 0.23-4.2889 0.44016-6.3789 0.66016-1.38 0.08-2.3205 1.2195-3.4805 1.9395 0.12 4.66 0.27109 9.32 0.37109 14-0.81 0.57-2.0811 1.2304-1.8711 2.4004 0.27 1.85 0.55031 3.6991 0.82031 5.5391 0.09 0.5-0.38945 0.80133-0.68945 1.1113-2.33 2.12-4.56 4.4188-7 6.4688 1.43-2.95 4.0589-5.0685 5.8789-7.7285a52.61 52.61 0 0 0-1.1992-6.0508c-4.86 0.87-9.6702 2-14.49 3-0.66 0.04-0.87961 0.7107-1.0996 1.2207a6.1 6.1 0 0 0-0.75977 2.4395c0.21 6 0.42914 12.05 0.61914 18.1 0.02 0.57 0.53039 0.92102 0.90039 1.291 2.77 2.5 5.3203 5.28 8.3203 7.5 0.53 0.46 1.4191 0.82969 1.2891 1.6797-0.26 12.36-0.46023 24.72-0.74023 37.08-0.22 1.63 0.95117 2.9787 1.9512 4.1387 3.98 1.68 8.0586 3.151 12.059 4.791 1.54 0.73 3.2706 0.23984 4.8906 0.33984a4.49 4.49 0 0 0 3.0703-0.75c3.1667-1.8267 6.3395-3.6395 9.5195-5.4395a4.06 4.06 0 0 0 1.3496-1.6602c0.44-0.88 1.2899-1.6509 1.1699-2.7109-0.84666-11.887-1.6924-23.768-2.5391-35.648 0.01-0.23-0.050625-0.51117 0.10938-0.70117 1.09-1.07 2.5313-1.7495 3.5312-2.9395 0.94-2.66 1.6898-5.3903 2.5898-8.0703a10.68 10.68 0 0 0 0.42969-3.3203c0.17-3.47 0.40008-6.9788 0.58008-10.469 0.35-4.44-0.11945-8.8918-0.18945-13.342-2.09-1.09-4.1505-2.3588-6.5605-2.5488-0.7 5.2-1.5395 10.39-2.1895 15.6-2.15-0.37-4.3016-0.70992-6.4316-1.1699 1.72-0.13 3.4402-0.020859 5.1602-0.13086 0.59-3.37 1.1399-6.7391 1.6699-10.119 0.17-2.74 0.25156-5.4805 0.35156-8.2305-0.06-0.62 0.12922-1.5096-0.55078-1.8496-1.19-0.64-2.4291-1.1998-3.6191-1.8398-1.54-0.9-3.3603-1.0109-5.0703-1.3809-0.27 6.88-0.60133 13.761-0.86133 20.641a6 6 0 0 1-0.66016 2.0801c-2.84 0.19-5.67 0.44055-8.5 0.56055 2.49-0.71 5.0002-1.31 7.4902-2 0.33-4.31 0.78141-8.64 0.94141-13-0.12-3.82 0.21836-7.6805-0.18164-11.48zm-12.176 4.5a19.77 19.77 0 0 0-2.5137 0.11914l0.009766 0.041016c-1.8 0.8-3.5594 1.7098-5.3594 2.5098-0.4 0.21-1 0.36063-1 0.89062-0.53 3.3-1.0304 6.64-1.4004 10 3.04-0.41 6.0996-0.95055 9.0996-1.3105a2.27 2.27 0 0 0 2.3301-0.58984c0.09-3.87 0.089844-7.7396 0.089844-11.6a19.77 19.77 0 0 0-1.2559-0.060547zm30.246 20.439c-0.02 1.94-0.25992 3.8705-0.41992 5.8105-1.84-0.56-3.6688-1.1891-5.4688-1.8691 1.71 0.14 3.5799 0.94922 5.1699-0.050781 0.44-1.25 0.39875-2.6106 0.71875-3.8906zm-27.479 14.031c2.42 1.64 4.8185 3.33 7.2285 5 0.49 0.38 1.0703-1.56e-4 1.5703-0.16016 2.12-0.77 4.2406-1.5815 6.3906-2.2715-1.89 1.36-3.8805 2.5616-5.8105 3.8516a1.08 1.08 0 0 0-0.51953 0.75977c-0.64 3.29-0.96062 6.6187-1.6406 9.8887-0.38-3.44-0.45977-6.9094-0.75976-10.359a1.35 1.35 0 0 0-0.60938-0.91016c-2.1349-1.7059-4.2407-3.4422-6.3457-5.1582l0.49609-0.64062z"/>
</svg>
