<?xml version="1.0" encoding="UTF-8" standalone="no"?>
<svg
   xmlns:dc="http://purl.org/dc/elements/1.1/"
   xmlns:cc="http://creativecommons.org/ns#"
   xmlns:rdf="http://www.w3.org/1999/02/22-rdf-syntax-ns#"
   xmlns:svg="http://www.w3.org/2000/svg"
   xmlns="http://www.w3.org/2000/svg"
   xmlns:sodipodi="http://sodipodi.sourceforge.net/DTD/sodipodi-0.dtd"
   xmlns:inkscape="http://www.inkscape.org/namespaces/inkscape"
   width="120mm"
   height="100mm"
   viewBox="0 0 120 100"
   version="1.1"
   id="svg8"
   inkscape:version="1.0.2-2 (e86c870879, 2021-01-15)"
   sodipodi:docname="cross.svg">
  <defs
     id="defs2" />
  <sodipodi:namedview
     id="base"
     pagecolor="#ffffff"
     bordercolor="#666666"
     borderopacity="1.0"
     inkscape:pageopacity="0.0"
     inkscape:pageshadow="2"
     inkscape:zoom="1.4"
     inkscape:cx="158.92535"
     inkscape:cy="199.81138"
     inkscape:document-units="mm"
     inkscape:current-layer="layer1"
     showgrid="false"
     inkscape:window-width="1920"
     inkscape:window-height="1001"
     inkscape:window-x="-9"
     inkscape:window-y="-9"
     inkscape:window-maximized="1"
     inkscape:document-rotation="0" />
  <metadata
     id="metadata5">
    <rdf:RDF>
      <cc:Work
         rdf:about="">
        <dc:format>image/svg+xml</dc:format>
        <dc:type
           rdf:resource="http://purl.org/dc/dcmitype/StillImage" />
        <dc:title></dc:title>
      </cc:Work>
    </rdf:RDF>
  </metadata>
  <g
     inkscape:label="Layer 1"
     inkscape:groupmode="layer"
     id="layer1"
     transform="translate(0,-197)">
    <path
       style="fill:#000000;stroke-width:0.332376"
       d="m 13.551569,293.94073 c -0.469165,-0.50271 -1.257728,-1.5669 -1.752361,-2.36485 -0.77347,-1.24779 -0.884387,-1.74146 -0.792538,-3.5275 0.06869,-1.33568 -0.04392,-2.25826 -0.315567,-2.58559 -0.232298,-0.27991 -0.511694,-1.26319 -0.620879,-2.1851 -0.1681505,-1.41977 -0.06677,-1.90099 0.662699,-3.14574 0.486825,-0.8307 7.447245,-7.98089 16.011143,-16.44767 l 15.149923,-14.97807 -4.251094,-3.83724 c -5.315116,-4.79766 -11.261146,-9.56157 -15.443266,-12.37302 -2.553717,-1.71674 -3.611679,-2.6873 -5.142513,-4.71768 -2.084484,-2.7647 -2.051085,-2.63029 -2.160943,-8.69628 -0.01595,-0.88059 -0.221295,-1.62887 -0.503674,-1.83535 -0.819455,-0.5992 -0.196465,-3.1055 1.10505,-4.44563 0.610118,-0.62822 1.111596,-1.4558 1.114396,-1.83908 0.008,-1.09904 0.431279,-1.51188 2.182796,-2.12911 1.387565,-0.48897 1.742726,-0.80081 2.351444,-2.06467 1.343401,-2.78926 4.712868,-3.68686 9.157969,-2.43962 1.560313,0.43779 2.608912,1.10078 5.339809,3.37611 5.94861,4.95627 11.852487,10.34576 18.588728,16.96911 l 6.548755,6.43902 1.123195,-0.95113 c 0.617756,-0.52312 4.251843,-3.78331 8.075749,-7.24486 8.179986,-7.40485 17.703528,-15.61933 21.909437,-18.89787 5.369463,-4.18554 10.150493,-5.87251 11.843923,-4.17907 0.63695,0.63695 0.6903,0.96122 0.5227,3.17726 -0.16005,2.11627 -0.10721,2.49543 0.37087,2.66107 0.30663,0.10624 1.64093,1.31348 2.9651,2.68274 l 2.40758,2.48957 -0.9119,1.68874 c -0.70575,1.30701 -2.07644,2.66157 -6.0637,5.99236 -6.662262,5.56537 -24.828065,21.54095 -29.546562,25.98418 -0.392133,0.36927 -0.182849,0.76098 1.355449,2.537 4.881428,5.63578 14.195817,17.80298 19.546229,25.53282 1.70821,2.46789 3.323954,4.66688 3.590526,4.88665 0.336826,0.27768 0.411547,0.68324 0.24495,1.3295 -0.131845,0.51147 -0.311119,1.60299 -0.398387,2.42563 -0.140358,1.32307 -0.06976,1.53404 0.611458,1.82806 0.423572,0.18281 0.813649,0.56444 0.866839,0.84806 0.164658,0.87808 -1.866326,3.3206 -3.187893,3.83387 -0.674194,0.26183 -1.92091,0.8486 -2.770474,1.30393 -0.849573,0.45532 -2.001122,0.82785 -2.558999,0.82785 -0.772202,0 -1.230103,0.28291 -1.91835,1.18525 -0.697733,0.91478 -1.072522,1.14296 -1.642394,0.99993 -0.53105,-0.13328 -0.878193,0.0281 -1.236347,0.57469 -0.445077,0.67928 -0.740249,0.75466 -2.778487,0.7096 -2.581092,-0.057 -3.317845,-0.2864 -3.797123,-1.18193 -0.187506,-0.35036 -0.691915,-0.62566 -1.146352,-0.62566 -0.917831,0 -1.511998,-0.70068 -6.526,-7.69594 -3.870116,-5.39939 -8.286954,-11.09632 -12.564113,-16.20549 -1.746283,-2.08597 -3.48987,-4.17048 -3.874644,-4.63225 l -0.699583,-0.83957 -0.962293,0.7557 c -1.246207,0.97869 -15.667516,14.61555 -22.731858,21.49537 -3.016857,2.93807 -5.966334,5.53422 -6.554394,5.76925 -0.588059,0.23502 -1.248988,0.64396 -1.468731,0.90874 -0.465652,0.56107 -4.303402,2.52159 -4.517319,2.30768 -0.07969,-0.0797 -0.677082,0.21627 -1.327546,0.65769 -1.535736,1.04219 -2.430534,1.01353 -3.480433,-0.11146 z"
       id="path857"
       inkscape:connector-curvature="0" />
  </g>
</svg>
