<?xml version="1.0" encoding="UTF-8" standalone="no"?>
<!-- Created with Inkscape (http://www.inkscape.org/) -->

<svg
   xmlns:dc="http://purl.org/dc/elements/1.1/"
   xmlns:cc="http://creativecommons.org/ns#"
   xmlns:rdf="http://www.w3.org/1999/02/22-rdf-syntax-ns#"
   xmlns:svg="http://www.w3.org/2000/svg"
   xmlns="http://www.w3.org/2000/svg"
   xmlns:sodipodi="http://sodipodi.sourceforge.net/DTD/sodipodi-0.dtd"
   xmlns:inkscape="http://www.inkscape.org/namespaces/inkscape"
   width="100mm"
   height="100mm"
   viewBox="0 0 100 100"
   version="1.1"
   id="svg8"
   inkscape:version="0.92.4 (5da689c313, 2019-01-14)"
   sodipodi:docname="cross.svg">
  <defs
     id="defs2" />
  <sodipodi:namedview
     id="base"
     pagecolor="#ffffff"
     bordercolor="#666666"
     borderopacity="1.0"
     inkscape:pageopacity="0.0"
     inkscape:pageshadow="2"
     inkscape:zoom="1.4"
     inkscape:cx="158.92535"
     inkscape:cy="199.81138"
     inkscape:document-units="mm"
     inkscape:current-layer="layer1"
     showgrid="false"
     inkscape:window-width="1366"
     inkscape:window-height="715"
     inkscape:window-x="-8"
     inkscape:window-y="-8"
     inkscape:window-maximized="1" />
  <metadata
     id="metadata5">
    <rdf:RDF>
      <cc:Work
         rdf:about="">
        <dc:format>image/svg+xml</dc:format>
        <dc:type
           rdf:resource="http://purl.org/dc/dcmitype/StillImage" />
        <dc:title></dc:title>
      </cc:Work>
    </rdf:RDF>
  </metadata>
  <g
     inkscape:label="Layer 1"
     inkscape:groupmode="layer"
     id="layer1"
     transform="translate(0,-197)">
    <path
       style="fill:#000000;stroke-width:0.33237562"
       d="m 3.5515693,293.94123 c -0.4691655,-0.50271 -1.2577286,-1.5669 -1.7523618,-2.36485 -0.7734693,-1.24779 -0.88438625,-1.74146 -0.792538,-3.5275 0.068688,-1.33568 -0.0439151,-2.25826 -0.31556616,-2.58559 -0.23229817,-0.27991 -0.51169437,-1.26319 -0.62087977,-2.1851 -0.16815005,-1.41977 -0.06677098,-1.90099 0.66269896,-3.14574 0.48682587,-0.8307 7.44724577,-7.98089 16.01114347,-16.44767 l 15.149923,-14.97807 -4.251094,-3.83724 c -5.315116,-4.79766 -11.261146,-9.56157 -15.443266,-12.37302 -2.5537173,-1.71674 -3.6116789,-2.6873 -5.142513,-4.71768 -2.0844842,-2.7647 -2.0510847,-2.63029 -2.1609426,-8.69628 -0.01595,-0.88059 -0.2212958,-1.62887 -0.5036742,-1.83535 -0.8194552,-0.5992 -0.1964655,-3.1055 1.1050496,-4.44563 0.6101184,-0.62822 1.1115963,-1.4558 1.1143958,-1.83908 0.00803,-1.09904 0.4312791,-1.51188 2.1827968,-2.12911 1.3875646,-0.48897 1.7427256,-0.80081 2.3514436,-2.06467 1.343401,-2.78926 4.712868,-3.68686 9.157969,-2.43962 1.560313,0.43779 2.608912,1.10078 5.339809,3.37611 5.94861,4.95627 11.852487,10.34576 18.588728,16.96911 l 6.548755,6.43902 1.123195,-0.95113 c 0.617756,-0.52312 4.251843,-3.78331 8.075749,-7.24486 8.179986,-7.40485 17.703528,-15.61933 21.909437,-18.89787 5.369463,-4.18554 10.150494,-5.87251 11.843919,-4.17907 0.636955,0.63695 0.690305,0.96122 0.522705,3.17726 -0.160052,2.11627 -0.107213,2.49543 0.370864,2.66107 0.306633,0.10624 1.640938,1.31348 2.965105,2.68274 l 2.40758,2.48957 -0.911898,1.68874 c -0.705752,1.30701 -2.076445,2.66157 -6.063702,5.99236 -6.662262,5.56537 -24.828065,21.54095 -29.546562,25.98418 -0.392133,0.36927 -0.182849,0.76098 1.355449,2.537 4.881428,5.63578 14.195817,17.80298 19.546229,25.53282 1.70821,2.46789 3.323954,4.66688 3.590526,4.88665 0.336826,0.27768 0.411547,0.68324 0.24495,1.3295 -0.131845,0.51147 -0.311119,1.60299 -0.398387,2.42563 -0.140358,1.32307 -0.06976,1.53404 0.611458,1.82806 0.423572,0.18281 0.813649,0.56444 0.866839,0.84806 0.164658,0.87808 -1.866326,3.3206 -3.187893,3.83387 -0.674194,0.26183 -1.92091,0.8486 -2.770474,1.30393 -0.849573,0.45532 -2.001122,0.82785 -2.558999,0.82785 -0.772202,0 -1.230103,0.28291 -1.91835,1.18525 -0.697733,0.91478 -1.072522,1.14296 -1.642394,0.99993 -0.53105,-0.13328 -0.878193,0.0281 -1.236347,0.57469 -0.445077,0.67928 -0.740249,0.75466 -2.778487,0.7096 -2.581092,-0.057 -3.317845,-0.2864 -3.797123,-1.18193 -0.187506,-0.35036 -0.691915,-0.62566 -1.146352,-0.62566 -0.917831,0 -1.511998,-0.70068 -6.526,-7.69594 -3.870116,-5.39939 -8.286954,-11.09632 -12.564113,-16.20549 -1.746283,-2.08597 -3.48987,-4.17048 -3.874644,-4.63225 l -0.699583,-0.83957 -0.962293,0.7557 c -1.246207,0.97869 -15.667516,14.61555 -22.731858,21.49537 -3.016857,2.93807 -5.966334,5.53422 -6.554394,5.76925 -0.588059,0.23502 -1.248988,0.64396 -1.468731,0.90874 -0.465652,0.56107 -4.3034024,2.52159 -4.5173194,2.30768 -0.07969,-0.0797 -0.6770821,0.21627 -1.327546,0.65769 -1.5357356,1.04219 -2.430534,1.01353 -3.4804323,-0.11146 z"
       id="path857"
       inkscape:connector-curvature="0" />
  </g>
</svg>
