<?xml version="1.0" encoding="UTF-8" standalone="no"?>
<svg
   xmlns:dc="http://purl.org/dc/elements/1.1/"
   xmlns:cc="http://creativecommons.org/ns#"
   xmlns:rdf="http://www.w3.org/1999/02/22-rdf-syntax-ns#"
   xmlns:svg="http://www.w3.org/2000/svg"
   xmlns="http://www.w3.org/2000/svg"
   xmlns:sodipodi="http://sodipodi.sourceforge.net/DTD/sodipodi-0.dtd"
   xmlns:inkscape="http://www.inkscape.org/namespaces/inkscape"
   width="120mm"
   height="100mm"
   viewBox="0 0 120 100"
   version="1.1"
   id="svg8"
   inkscape:version="1.0.2-2 (e86c870879, 2021-01-15)"
   sodipodi:docname="dnd.svg">
  <defs
     id="defs2" />
  <sodipodi:namedview
     id="base"
     pagecolor="#ffffff"
     bordercolor="#666666"
     borderopacity="1.0"
     inkscape:pageopacity="0.0"
     inkscape:pageshadow="2"
     inkscape:zoom="1.4"
     inkscape:cx="170.37336"
     inkscape:cy="188.57143"
     inkscape:document-units="mm"
     inkscape:current-layer="layer1"
     showgrid="false"
     inkscape:window-width="1920"
     inkscape:window-height="1001"
     inkscape:window-x="-9"
     inkscape:window-y="-9"
     inkscape:window-maximized="1"
     inkscape:document-rotation="0" />
  <metadata
     id="metadata5">
    <rdf:RDF>
      <cc:Work
         rdf:about="">
        <dc:format>image/svg+xml</dc:format>
        <dc:type
           rdf:resource="http://purl.org/dc/dcmitype/StillImage" />
        <dc:title></dc:title>
      </cc:Work>
    </rdf:RDF>
  </metadata>
  <g
     inkscape:label="Layer 1"
     inkscape:groupmode="layer"
     id="layer1"
     transform="translate(0,-197)">
    <path
       style="fill:#000000;stroke-width:0.101253"
       d="m 87.792794,295.03989 c -4.53729,-0.35018 -8.261556,-2.85054 -10.427476,-7.00066 -0.796067,-1.52534 -1.468156,-3.71592 -1.468156,-4.78523 0,-0.19726 -0.04409,-0.35865 -0.09798,-0.35865 -0.171282,0 -0.88754,1.03572 -1.262859,1.82612 -0.523127,1.10168 -0.695881,2.03156 -0.629501,3.38842 0.02997,0.61258 0.128966,1.38717 0.219993,1.7213 0.239873,0.88053 0.783728,1.96159 1.257688,2.50004 0.495291,0.56268 0.390235,0.55991 -0.873652,-0.0231 -2.572513,-1.18661 -4.535923,-3.36832 -5.327271,-5.91957 -0.438975,-1.41522 -0.516002,-2.44519 -0.37144,-4.9667 0.143961,-2.51103 0.0923,-4.35899 -0.147051,-5.25987 -0.300976,-1.13285 -0.92538,-2.23427 -1.765458,-3.11421 -0.884864,-0.92685 -4.290314,-3.83471 -7.911707,-6.75569 -1.364382,-1.1005 -2.760301,-2.29371 -3.102041,-2.65156 -1.373615,-1.43838 -2.061637,-2.90106 -2.268655,-4.82294 -0.277351,-2.57487 -0.43902,-3.05639 -1.338929,-3.98789 -0.291475,-0.30171 -1.031157,-0.93244 -1.643737,-1.40162 -2.098822,-1.60752 -2.761828,-2.49533 -2.989867,-4.00366 -0.115203,-0.762 -0.01194,-1.78768 0.242322,-2.40705 l 0.131401,-0.32008 0.07279,0.54346 c 0.203106,1.51647 1.432515,2.71829 3.266965,3.19365 0.333389,0.0864 1.149894,0.20327 1.814455,0.25975 1.523074,0.12941 2.074778,0.25433 2.796693,0.63318 0.904758,0.4748 1.251052,1.08632 1.596301,2.81886 0.294325,1.47699 0.47971,1.98022 0.875198,2.37571 0.44813,0.44812 0.799901,0.53225 2.731987,0.65334 1.813045,0.11363 2.629605,0.27743 3.526978,0.70752 0.715882,0.3431 1.239325,0.75903 8.031756,6.38198 5.606755,4.64141 6.150525,5.01717 7.618515,5.26478 3.256543,0.5493 6.070743,-2.6152 5.225055,-5.87542 -0.07897,-0.30443 -0.131782,-0.56531 -0.117364,-0.57972 0.07124,-0.0712 1.389835,1.02861 1.74868,1.45858 1.52281,1.82461 2.213251,3.80917 2.196405,6.31324 -0.01531,2.27449 -0.598727,3.90144 -1.862055,5.19262 -0.374802,0.38307 -0.628119,0.71767 -0.570351,0.75337 0.05716,0.0353 0.702906,0.0845 1.434999,0.10937 4.346324,0.14742 8.003167,-1.92832 8.80231,-4.99642 0.352113,-1.35187 0.123436,-3.04967 -0.577109,-4.28465 -0.712209,-1.25554 -2.256953,-2.53316 -3.720017,-3.07675 l -0.762358,-0.28325 1.721291,0.0463 c 3.033617,0.0816 5.189323,0.75657 7.629068,2.38849 1.7777,1.1891 3.48863,3.21415 4.2731,5.05765 2.12981,5.00499 0.34318,10.61891 -4.38622,13.78237 -2.482834,1.66074 -4.987282,2.36486 -8.192134,2.30322 -1.879821,-0.0362 -1.868807,-0.0433 -0.909134,0.59376 1.831183,1.2157 5.170856,2.03907 7.176155,1.76919 0.447339,-0.0602 1.001313,-0.17421 1.231043,-0.25336 0.22974,-0.0791 0.41722,-0.11508 0.41663,-0.0798 -6.1e-4,0.0352 -0.17146,0.27887 -0.37969,0.54138 -1.441709,1.81738 -4.910541,3.64234 -8.225725,4.32758 -0.790079,0.16331 -3.40962,0.44819 -3.634495,0.39527 -0.03371,-0.008 -0.517586,-0.0496 -1.07535,-0.0926 z M 36.509792,293.3637 c -4.733084,-0.56866 -8.720703,-2.1605 -12.500694,-4.99025 -1.483003,-1.11021 -3.304134,-2.97613 -4.158567,-4.26087 l -0.705608,-1.06095 -0.0321,0.90907 c -0.03263,0.92402 0.130569,2.62859 0.292436,3.05433 0.04898,0.12882 0.06435,0.23421 0.03416,0.23421 -0.157904,0 -0.861493,-0.64699 -1.484467,-1.36504 -2.742301,-3.16084 -4.78764,-8.14304 -5.612377,-13.67107 -0.231311,-1.55043 -0.261424,-6.67272 -0.04762,-8.10026 0.352268,-2.35202 1.015168,-4.81545 1.79058,-6.65404 0.191369,-0.45375 0.330113,-0.84283 0.308318,-0.86463 -0.120988,-0.12099 -2.326599,1.32729 -3.551504,2.33206 -0.445423,0.36536 -0.822358,0.6518 -0.837634,0.63652 -0.070417,-0.0704 0.66238,-1.95229 1.19788,-3.07623 1.868907,-3.9226 4.99423,-8.35594 8.369942,-11.87296 0.922029,-0.96064 0.977729,-1.0011 1.15594,-0.83983 0.504903,0.45694 0.503542,1.47539 -0.0055,4.11122 -0.218006,1.12884 -0.443557,2.46251 -0.501229,2.96372 -0.142352,1.23714 -0.239644,2.58196 -0.186794,2.58196 0.02382,0 0.471197,-0.42563 0.994174,-0.94587 2.135792,-2.12452 6.107325,-4.8904 9.253604,-6.44444 2.217149,-1.0951 2.187165,-1.0911 1.621274,-0.21633 -0.859945,1.32936 -1.438778,2.95231 -1.721166,4.82592 -0.245,1.62551 -0.283688,1.58401 0.711689,0.76367 1.589027,-1.3096 3.105386,-2.02915 4.696656,-2.22868 1.017245,-0.12754 2.561754,0.0488 3.045547,0.34787 0.06346,0.0392 -0.277038,0.47031 -0.820415,1.0387 -3.346825,3.50085 -5.552535,7.4925 -6.446416,11.66602 -0.247148,1.15393 -0.271795,1.46795 -0.274345,3.49541 -0.0031,2.47754 0.0878,3.11792 0.706815,4.97877 0.629784,1.89319 1.423661,3.21394 2.781365,4.62721 1.040748,1.08336 1.77801,1.62462 3.045482,2.23589 4.249937,2.04963 8.777505,1.06901 13.410355,-2.90452 2.257395,-1.93614 4.57114,-4.71071 5.872667,-7.04229 0.222756,-0.39906 0.43759,-0.71532 0.477405,-0.70279 0.173865,0.0547 5.874426,4.79779 7.969706,6.63115 l 0.448133,0.39211 -0.815352,1.57233 c -4.634064,8.93635 -10.890259,14.64332 -18.456456,16.8362 -2.511953,0.72802 -4.269291,0.97279 -7.29206,1.01559 -1.308694,0.0185 -2.538916,0.0145 -2.733828,-0.009 z m 32.400922,-34.17858 c -2.304281,-1.91401 -3.270504,-2.59106 -4.100095,-2.87305 -0.306645,-0.10423 -0.557538,-0.22418 -0.557538,-0.26655 0,-0.11286 1.668177,-2.30292 2.64732,-3.47551 1.832077,-2.19405 5.05622,-5.31703 7.275462,-7.04719 4.613988,-3.59712 9.607202,-5.88742 13.900588,-6.37594 1.45243,-0.16527 1.513583,-0.24104 0.224195,-0.27785 -4.787691,-0.13665 -11.213267,2.35639 -16.171687,6.27443 -0.572719,0.45254 -1.64286,1.43251 -2.378089,2.1777 l -1.336782,1.35489 0.155741,-0.53373 c 0.461572,-1.58184 1.793505,-4.16213 3.120343,-6.04494 1.851076,-2.62669 4.325953,-5.14818 6.586434,-6.71049 1.314718,-0.90865 1.354145,-0.90932 0.726812,-0.0123 -1.075202,1.53745 -1.524056,2.74504 -1.13908,3.06454 0.426385,0.35387 1.30261,-0.0175 2.670396,-1.13196 2.518644,-2.05206 3.378135,-2.72438 4.097723,-3.20536 1.611785,-1.07733 3.559198,-1.87583 4.873065,-1.99813 l 0.617673,-0.0575 -0.887335,0.54159 c -1.662605,1.01474 -2.605892,1.95266 -2.605892,2.59106 0,0.33933 0.431971,0.73497 0.802462,0.73497 0.167972,0 1.074144,-0.24656 2.013709,-0.54792 2.123364,-0.68105 3.32863,-0.94546 4.891841,-1.07318 4.241125,-0.34651 8.9175,1.20534 13.07614,4.33926 0.8787,0.66218 2.64884,2.2353 2.58415,2.29653 -0.0162,0.0154 -0.34846,-0.0314 -0.73829,-0.104 -2.1787,-0.40555 -4.90555,-0.23259 -8.0496,0.51058 -2.228943,0.52686 -4.473402,1.40317 -5.652829,2.20703 l -0.539564,0.36776 -0.668223,-0.40303 c -2.389874,-1.4414 -5.926352,-1.72115 -8.950341,-0.70802 -1.691365,0.56665 -3.252928,1.48219 -4.471351,2.62149 -1.617625,1.51259 -4.751855,5.82528 -6.696083,9.21381 -0.786542,1.37084 -2.446527,4.63833 -2.898465,5.7053 -0.13523,0.31927 -0.268655,0.57807 -0.296499,0.57513 -0.02784,-0.003 -0.984685,-0.7812 -2.126311,-1.72947 z m -27.932244,1.24199 c 0.943058,-0.63764 2.613822,-2.61952 2.618073,-3.10558 6.09e-4,-0.0697 -0.261891,-0.0404 -0.733133,0.0817 -0.403746,0.10471 -1.258067,0.2166 -1.898491,0.24861 l -1.164409,0.0582 0.430282,-0.34516 c 0.916042,-0.73482 1.732766,-2.12667 2.006984,-3.42026 0.579603,-2.7342 -0.743602,-5.01078 -3.453655,-5.94201 -0.671975,-0.23091 -1.026808,-0.28442 -2.131736,-0.3215 -1.539523,-0.0517 -2.542756,0.14244 -3.711757,0.7182 -0.375901,0.18513 -0.683458,0.29547 -0.683458,0.2452 0,-0.16261 0.655866,-1.42824 1.040131,-2.00717 1.042807,-1.57105 2.725681,-3.12777 4.2728,-3.95247 l 0.807176,-0.43027 -0.351538,-0.14455 c -0.297477,-0.12232 -3.153379,-0.84585 -3.94353,-0.99908 l -0.250648,-0.0486 0.250648,-0.19383 c 1.388571,-1.07379 5.283837,-2.32791 7.736111,-2.49073 1.460311,-0.0969 0.919845,-0.25348 -1.083894,-0.31389 -1.906536,-0.0574 -3.074591,0.0705 -4.882778,0.53498 -2.611293,0.67079 -4.717055,1.78142 -6.121568,3.22868 -0.248273,0.25583 -0.390812,0.46514 -0.316753,0.46514 0.295752,0 2.343534,0.32886 3.248856,0.52175 0.947748,0.20193 1.390638,0.38953 0.919594,0.38953 -0.511657,0 -2.881725,0.89498 -4.463445,1.68547 -2.508741,1.25378 -5.087052,2.95298 -6.532458,4.30509 -0.347423,0.32499 -0.657588,0.5909 -0.689259,0.5909 -0.03167,0 0.03412,-0.262 0.146214,-0.58221 0.537589,-1.53577 0.791275,-3.44847 0.60174,-4.53687 -0.301251,-1.72992 -1.277747,-2.72171 -3.145261,-3.19456 -0.788895,-0.19974 -3.303534,-0.15354 -4.628363,0.085 -1.017589,0.18325 -1.031155,0.18313 -0.86065,-0.007 0.318553,-0.35588 1.782885,-1.45374 2.755599,-2.06598 0.529274,-0.33312 1.782278,-1.05063 2.784454,-1.59448 3.941557,-2.13892 4.891948,-2.77318 5.280067,-3.52372 0.467093,-0.90325 -0.466601,-2.52992 -2.513282,-4.37858 -0.408178,-0.36869 -1.012371,-0.83763 -1.342651,-1.04209 l -0.60051,-0.37174 1.157402,-0.0326 c 1.514046,-0.0427 3.625772,0.13623 5.06618,0.42933 0.634624,0.12914 1.16592,0.22494 1.180655,0.21291 0.01473,-0.012 -0.08866,-0.22846 -0.229771,-0.48092 -0.340007,-0.60834 -0.703858,-1.69537 -0.86008,-2.56954 -0.14812,-0.82883 -0.08671,-3.12009 0.09992,-3.72848 l 0.122074,-0.39792 0.372317,0.70755 c 0.526562,1.00068 0.979264,1.58233 2.004104,2.57493 1.460327,1.4144 2.437037,2.08865 5.856103,4.04267 3.901106,2.2295 5.425259,3.43168 6.452635,5.08951 0.163929,0.26453 0.313253,0.48095 0.331832,0.48095 0.09662,0 -0.216494,-0.85945 -0.580272,-1.5928 -0.733778,-1.47925 -2.174542,-3.07106 -3.842337,-4.24519 l -0.776981,-0.54698 -0.234897,-0.93358 c -0.212433,-0.8443 -0.234609,-1.1563 -0.231876,-3.2624 0.0032,-2.49489 0.100999,-3.30996 0.610083,-5.08654 0.249548,-0.87086 0.788833,-2.11823 1.079337,-2.49652 0.132656,-0.17274 0.153686,-0.0931 0.214021,0.81003 0.159182,2.38286 1.00376,4.4215 2.844952,6.86712 0.920026,1.22206 3.059508,3.37289 5.777584,5.80822 3.902321,3.49638 5.617172,5.31168 6.674955,7.06592 0.439216,0.72841 0.452893,0.68173 0.06594,-0.22504 -1.072267,-2.51271 -2.760086,-4.55975 -6.740894,-8.17558 -3.061429,-2.78076 -3.764151,-3.52499 -3.978183,-4.21323 -0.265162,-0.85265 -0.231779,-3.81933 0.05469,-4.86016 0.275906,-1.00244 0.592188,-1.81771 0.818775,-2.11056 0.182173,-0.23543 0.183838,-0.2307 0.203755,0.57873 0.02806,1.14046 0.415072,2.56389 1.060345,3.89995 1.191967,2.46802 2.837056,4.39731 7.004517,8.21459 3.196445,2.92785 4.240078,4.06415 5.462922,5.94799 0.705768,1.08725 1.176159,2.08959 1.536665,3.2744 0.241958,0.7952 0.275172,1.07551 0.282414,2.38349 l 0.0082,1.48229 0.316803,0.11456 c 0.894117,0.32333 1.657623,1.31604 1.657623,2.15527 0,0.2147 0.04974,0.38513 0.112393,0.38513 0.06181,0 0.381707,-0.14354 0.710868,-0.31898 0.65842,-0.35094 1.782607,-1.46661 2.100211,-2.08433 l 0.195981,-0.38115 0.07458,0.39565 c 0.104522,0.55449 -0.01073,2.49799 -0.200737,3.38491 -0.624954,2.91722 -2.370902,5.73432 -4.350596,7.01971 -0.328845,0.21352 -0.632727,0.38821 -0.675294,0.38821 -0.04257,0 -0.02909,-0.17086 0.02993,-0.3797 0.168215,-0.59509 0.139736,-1.73328 -0.0589,-2.35413 -0.235182,-0.73509 -0.772548,-1.45841 -1.360546,-1.83138 -0.997961,-0.63303 -2.757629,-1.01391 -4.802245,-1.03946 -0.655483,-0.008 -1.191872,-0.0228 -1.191976,-0.0324 -1.01e-4,-0.01 0.178271,-0.35137 0.396392,-0.7594 0.218119,-0.40802 0.46872,-0.98934 0.55689,-1.29182 0.561991,-1.92797 -0.334757,-2.48127 -3.99106,-2.46251 -2.480592,0.0127 -6.03132,0.52243 -7.566847,1.0862 l -0.381504,0.14007 0.759397,0.009 c 1.133567,0.0136 3.131032,0.29985 3.916895,0.56132 0.08016,0.0267 0.0081,0.26835 -0.217386,0.7291 -0.741544,1.51516 -1.126907,3.33647 -0.8704,4.11369 0.217456,0.6589 0.87753,0.96016 1.455482,0.66428 0.121639,-0.0623 0.397143,-0.27871 0.61223,-0.48096 0.291887,-0.27446 0.375797,-0.31637 0.330853,-0.16522 -0.540581,1.81798 -0.722475,3.61353 -0.424442,4.18986 0.260931,0.5046 0.920146,0.76124 1.770146,0.68918 0.366411,-0.031 0.775409,-0.0892 0.908884,-0.12932 l 0.242681,-0.0728 -0.293308,0.54428 c -0.419745,0.77891 -1.455902,1.83574 -2.445233,2.49403 -1.508006,1.00339 -3.63399,1.7733 -5.282254,1.91294 l -0.767304,0.065 0.46919,-0.31724 z m 12.136794,-18.34018 c 0,-0.15719 -0.492015,-1.10008 -0.843614,-1.61669 -0.472216,-0.69382 -1.367591,-1.59876 -2.024893,-2.04651 -0.572702,-0.39012 -1.468166,-0.84024 -1.535275,-0.77173 -0.06776,0.0692 0.42896,1.47519 0.755437,2.13827 0.580614,1.17923 1.388338,1.91876 2.462273,2.25438 0.518151,0.16194 1.186072,0.18574 1.186072,0.0423 z m 1.463526,-11.26495 c -0.670823,-0.62436 -1.948407,-1.80619 -2.839078,-2.62628 -1.522952,-1.40225 -2.991737,-2.94978 -3.851805,-4.05831 l -0.377633,-0.48672 0.568702,-1.08271 c 0.628114,-1.1958 1.081265,-2.45502 1.355225,-3.76591 0.249507,-1.19388 0.25021,-3.49291 0.0014,-4.65606 -0.69201,-3.2353 -2.697462,-5.46378 -5.433123,-6.03733 -1.199103,-0.2514 -2.762232,-0.15177 -3.82464,0.24376 -2.438743,0.90796 -4.154493,2.94412 -4.850382,5.75619 -0.213567,0.86303 -0.241055,3.04754 -0.05022,3.99068 0.124529,0.61543 0.115816,0.75287 -0.118759,1.87318 -0.375967,1.79562 -0.510687,3.39774 -0.433716,5.1579 0.03652,0.83534 0.105231,1.71235 0.152672,1.9489 l 0.08626,0.43009 -0.684295,-0.36961 c -2.466306,-1.33211 -4.663208,-3.48503 -6.012134,-5.89178 -0.51669,-0.92188 -1.472485,-3.15833 -1.482252,-3.46829 -0.0069,-0.21867 -0.399033,0.57696 -0.727996,1.47703 -0.948571,2.5954 -1.187909,5.28553 -0.68757,7.72823 0.09906,0.4836 0.167584,0.8936 0.152282,0.91111 -0.04877,0.0558 -1.229367,-1.35949 -1.645406,-1.97251 -1.035104,-1.52515 -1.869703,-3.7266 -2.258423,-5.95708 -0.315876,-1.81251 -0.317832,-4.61138 -0.0044,-6.36346 0.367702,-2.05573 1.307393,-4.439 2.041066,-5.1766 0.19743,-0.19848 0.19864,-0.1948 0.199962,0.60753 0.0015,0.88191 0.277367,2.39516 0.553335,3.03478 l 0.174745,0.40502 0.191604,-0.92688 c 0.653584,-3.16169 2.806183,-6.99536 5.364219,-9.55341 0.70923,-0.70923 2.306164,-1.97209 2.389017,-1.88923 0.0225,0.0225 -0.08067,0.39996 -0.229262,0.83879 -0.183457,0.5418 -0.286541,1.09798 -0.321179,1.73291 l -0.05101,0.93503 0.798424,-0.78632 c 3.498183,-3.44514 9.914506,-4.83073 15.80694,-3.4135 7.607681,1.82981 12.713072,8.2761 13.152131,16.60647 0.208005,3.94652 -1.40665,9.28862 -4.095393,13.54963 -0.673844,1.06788 -1.6378,2.40021 -1.73197,2.39386 -0.0317,-0.002 -0.606503,-0.51474 -1.277324,-1.1391 z"
       id="path826"
       inkscape:connector-curvature="0" />
  </g>
</svg>
