<?xml version="1.0" encoding="UTF-8" standalone="no"?>
<svg
   xmlns:dc="http://purl.org/dc/elements/1.1/"
   xmlns:cc="http://creativecommons.org/ns#"
   xmlns:rdf="http://www.w3.org/1999/02/22-rdf-syntax-ns#"
   xmlns:svg="http://www.w3.org/2000/svg"
   xmlns="http://www.w3.org/2000/svg"
   xmlns:sodipodi="http://sodipodi.sourceforge.net/DTD/sodipodi-0.dtd"
   xmlns:inkscape="http://www.inkscape.org/namespaces/inkscape"
   width="120mm"
   height="100mm"
   viewBox="0 0 120 100"
   version="1.1"
   id="svg8"
   inkscape:version="1.0.2-2 (e86c870879, 2021-01-15)"
   sodipodi:docname="not-applicable.svg">
  <defs
     id="defs2" />
  <sodipodi:namedview
     id="base"
     pagecolor="#ffffff"
     bordercolor="#666666"
     borderopacity="1.0"
     inkscape:pageopacity="0.0"
     inkscape:pageshadow="2"
     inkscape:zoom="1.4"
     inkscape:cx="107.4093"
     inkscape:cy="208.17976"
     inkscape:document-units="mm"
     inkscape:current-layer="layer1"
     showgrid="false"
     inkscape:window-width="1920"
     inkscape:window-height="1001"
     inkscape:window-x="-9"
     inkscape:window-y="-9"
     inkscape:window-maximized="1"
     inkscape:document-rotation="0" />
  <metadata
     id="metadata5">
    <rdf:RDF>
      <cc:Work
         rdf:about="">
        <dc:format>image/svg+xml</dc:format>
        <dc:type
           rdf:resource="http://purl.org/dc/dcmitype/StillImage" />
        <dc:title></dc:title>
      </cc:Work>
    </rdf:RDF>
  </metadata>
  <g
     inkscape:label="Layer 1"
     inkscape:groupmode="layer"
     id="layer1"
     transform="translate(0,-197)">
    <path
       style="fill:#000000;stroke-width:0.19543"
       d="m 50.495775,269.42484 c 0.04808,-0.24186 3.065385,-10.53122 6.705134,-22.86529 L 63.818633,224.134 h 3.180712 c 2.459582,0 3.161455,0.0554 3.095775,0.24428 -0.04672,0.13436 -3.037845,10.26983 -6.646959,22.52326 -3.609114,12.25346 -6.608106,22.43291 -6.664425,22.62102 -0.09199,0.30724 -0.421047,0.34198 -3.238882,0.34198 H 50.408368 Z M 10,246.11983 v -21.20412 l 5.618601,0.004 5.618603,0.004 4.003199,7.07982 c 6.52649,11.54239 8.674331,15.69421 10.840733,20.95535 0.822782,1.99814 1.112149,2.42697 0.977663,1.44887 -0.369447,-2.687 -0.532338,-7.31699 -0.619929,-17.62068 l -0.100917,-11.87235 h 4.419689 4.419695 v 21.20411 21.20413 h -5.06552 -5.065513 L 33.2924,264.14723 c -0.964645,-1.74663 -3.360982,-6.07787 -5.325193,-9.62491 -3.654905,-6.60017 -7.425596,-13.98295 -8.607659,-16.85325 -0.364611,-0.88537 -0.739116,-1.61091 -0.832233,-1.61231 -0.09312,-0.001 -0.114818,0.89888 -0.04823,2.0006 0.06659,1.10175 0.175643,8.13722 0.242338,15.63438 l 0.121264,13.63122 H 14.421344 10 Z m 61.365684,21.15863 c 4.32e-4,-0.0287 2.888403,-9.55009 6.417716,-21.15863 l 6.416933,-21.10641 h 6.323408 6.3234 l 6.576429,21.10641 6.57643,21.10642 -5.08696,0.0521 c -2.79782,0.0287 -5.149852,-0.0153 -5.226718,-0.0976 -0.07685,-0.0824 -0.638312,-1.82082 -1.247657,-3.86306 -0.609336,-2.04224 -1.327536,-4.43993 -1.595997,-5.32823 l -0.488113,-1.61506 -6.071159,0.0516 -6.071157,0.0516 -1.491293,5.3743 -1.491291,5.37433 -4.932378,0.0522 c -2.712807,0.0287 -4.932025,0.0287 -4.931593,0 z m 23.597447,-18.17832 c -0.314197,-0.84738 -3.213585,-10.97653 -3.929804,-13.72893 -0.475486,-1.82728 -0.914539,-3.19039 -0.975666,-3.02917 -0.06114,0.16125 -0.475315,1.83216 -0.92041,3.71316 -0.445095,1.88102 -1.416026,5.59789 -2.157626,8.25975 -0.741599,2.66183 -1.348362,4.88241 -1.348362,4.9346 0,0.0522 2.120048,0.0949 4.71122,0.0949 3.686999,0 4.691531,-0.0531 4.620648,-0.24429 z"
       id="path826"
       inkscape:connector-curvature="0" />
  </g>
</svg>
