<?xml version="1.0" encoding="UTF-8" standalone="no"?>
<svg
   xmlns:dc="http://purl.org/dc/elements/1.1/"
   xmlns:cc="http://creativecommons.org/ns#"
   xmlns:rdf="http://www.w3.org/1999/02/22-rdf-syntax-ns#"
   xmlns:svg="http://www.w3.org/2000/svg"
   xmlns="http://www.w3.org/2000/svg"
   xmlns:sodipodi="http://sodipodi.sourceforge.net/DTD/sodipodi-0.dtd"
   xmlns:inkscape="http://www.inkscape.org/namespaces/inkscape"
   aria-hidden="true"
   focusable="false"
   data-prefix="fas"
   data-icon="arrows-alt-h"
   class="svg-inline--fa fa-arrows-alt-h fa-w-16"
   role="img"
   viewBox="0 0 377.95278 377.95278"
   version="1.1"
   id="svg4"
   sodipodi:docname="distance-2.svg"
   width="100mm"
   height="100mm"
   inkscape:version="0.92.4 (5da689c313, 2019-01-14)">
  <metadata
     id="metadata10">
    <rdf:RDF>
      <cc:Work
         rdf:about="">
        <dc:format>image/svg+xml</dc:format>
        <dc:type
           rdf:resource="http://purl.org/dc/dcmitype/StillImage" />
        <dc:title></dc:title>
      </cc:Work>
    </rdf:RDF>
  </metadata>
  <defs
     id="defs8" />
  <sodipodi:namedview
     pagecolor="#ffffff"
     bordercolor="#666666"
     borderopacity="1"
     objecttolerance="10"
     gridtolerance="10"
     guidetolerance="10"
     inkscape:pageopacity="0"
     inkscape:pageshadow="2"
     inkscape:window-width="1366"
     inkscape:window-height="715"
     id="namedview6"
     showgrid="false"
     inkscape:document-units="mm"
     units="mm"
     inkscape:zoom="0.4609375"
     inkscape:cx="256"
     inkscape:cy="256"
     inkscape:window-x="-8"
     inkscape:window-y="-8"
     inkscape:window-maximized="1"
     inkscape:current-layer="svg4" />
  <path
     d="M 214.47387,41.1726 247.20305,73.901901 73.90233,247.20328 41.173151,214.47398 C 25.979262,199.28003 7.1149012e-4,210.04057 0,231.52826 v 122.30621 c 0,13.32082 10.797453,24.11831 24.118221,24.11831 H 146.42397 c 21.4869,0 32.24811,-25.97936 17.05423,-41.1733 l -32.72847,-32.72859 173.30072,-173.30137 32.72918,32.7293 c 15.19389,15.19395 41.17243,4.4334 41.17315,-17.05428 V 24.118313 C 377.95278,10.797496 367.15532,2.8839391e-6 353.83456,2.8839391e-6 H 231.5288 C 210.04119,-7.0860885e-4 199.27998,25.97865 214.47387,41.1726 Z"
     id="path2"
     inkscape:connector-curvature="0"
     style="fill:currentColor;stroke-width:1.00493145" />
</svg>
