<?xml version="1.0" encoding="UTF-8" standalone="no"?>
<svg
   xmlns:dc="http://purl.org/dc/elements/1.1/"
   xmlns:cc="http://creativecommons.org/ns#"
   xmlns:rdf="http://www.w3.org/1999/02/22-rdf-syntax-ns#"
   xmlns:svg="http://www.w3.org/2000/svg"
   xmlns="http://www.w3.org/2000/svg"
   xmlns:sodipodi="http://sodipodi.sourceforge.net/DTD/sodipodi-0.dtd"
   xmlns:inkscape="http://www.inkscape.org/namespaces/inkscape"
   width="120"
   height="100"
   version="1.1"
   viewBox="0 0 120 100"
   id="svg10"
   sodipodi:docname="saving-throw3.svg"
   inkscape:version="1.0.2-2 (e86c870879, 2021-01-15)">
  <metadata
     id="metadata16">
    <rdf:RDF>
      <cc:Work
         rdf:about="">
        <dc:format>image/svg+xml</dc:format>
        <dc:type
           rdf:resource="http://purl.org/dc/dcmitype/StillImage" />
        <dc:title></dc:title>
      </cc:Work>
    </rdf:RDF>
  </metadata>
  <defs
     id="defs14" />
  <sodipodi:namedview
     pagecolor="#ffffff"
     bordercolor="#666666"
     borderopacity="1"
     objecttolerance="10"
     gridtolerance="10"
     guidetolerance="10"
     inkscape:pageopacity="0"
     inkscape:pageshadow="2"
     inkscape:window-width="1920"
     inkscape:window-height="1001"
     id="namedview12"
     showgrid="false"
     units="px"
     inkscape:zoom="6.5265957"
     inkscape:cx="58.420718"
     inkscape:cy="46.101277"
     inkscape:window-x="-9"
     inkscape:window-y="-9"
     inkscape:window-maximized="1"
     inkscape:current-layer="svg10" />
  <g
     id="g8"
     transform="matrix(0.2635222,0,0,0.26352095,-39.084158,-49.0848)"
     style="stroke-width:3.79476">
    <path
       d="M 560.66,488.57 408.81,225.55 c -6.7656,-11.723 -19.273,-18.941 -32.809,-18.941 -13.536,0 -26.039,7.2227 -32.809,18.941 l -151.85,263.02 c -6.7734,11.727 -6.7734,26.16 0,37.887 6.7656,11.727 19.273,18.941 32.809,18.941 h 303.7 c 13.531,0 26.043,-7.2188 32.809,-18.941 6.7695,-11.727 6.7695,-26.164 -0.004,-37.887 z M 224.15,507.515 376,244.495 527.85,507.505 h -303.7 z"
       id="path2"
       style="stroke-width:3.79476" />
    <path
       d="m 357.06,331.99 v 79.055 c 0,10.461 8.4805,18.941 18.941,18.941 10.4605,0 18.941,-8.4805 18.941,-18.941 l 0.004,-79.055 c 0,-10.461 -8.4805,-18.941 -18.941,-18.941 -10.465,-0.004 -18.945,8.4805 -18.945,18.941 z"
       id="path4"
       style="stroke-width:3.79476" />
    <path
       d="m 394.95,463.48 c 0,10.461 -8.4805,18.941 -18.945,18.941 -10.461,0 -18.941,-8.4805 -18.941,-18.941 0,-10.461 8.4805,-18.941 18.941,-18.941 10.465,0 18.945,8.4805 18.945,18.941"
       id="path6"
       style="stroke-width:3.79476" />
  </g>
</svg>
