<svg height='300px' width='300px'  fill="#000000" xmlns="http://www.w3.org/2000/svg" xmlns:xlink="http://www.w3.org/1999/xlink" version="1.1" x="0px" y="0px" viewBox="0 0 100 100" style="enable-background:new 0 0 100 100;" xml:space="preserve"><path d="M50,12.7c3.3,0,6.5,2.4,9.4,7l28.8,52.9l0.1,0.2l0.2,0.2c1.7,2.5,2.4,4.3,2.4,6.3c0,4.5-3.8,7.9-8.9,7.9H18  c-5.1,0-8.9-3.4-8.9-7.9c0-2,0.7-3.8,2.4-6.3l0.2-0.2l0.1-0.2l28.8-52.9C43.5,15.1,46.7,12.7,50,12.7 M50,7.7  c-5.2,0-9.9,3.2-13.7,9.5l-28.9,53c-2.2,3.2-3.3,6-3.3,9.2c0,7.4,6.3,12.9,13.9,12.9h64c7.7,0,13.9-5.4,13.9-12.9  c0-3.2-1.2-6-3.3-9.2l-28.9-53C59.9,10.9,55.2,7.7,50,7.7L50,7.7z"></path><path d="M45.4,32.8c-0.1-1.3,0.4-2.5,1.3-3.5c1.8-1.8,4.8-1.8,6.6,0c1,1,1.5,2.4,1.3,3.8c0,0.1,0,0.2,0,0.3l-3,28.1  C51.5,62.4,50.8,63,50,63c-0.7,0-1.4-0.8-1.5-1.5l-3.2-28.1C45.3,33.2,45.3,33,45.4,32.8z"></path><circle cx="50" cy="71.4" r="4.7"></circle></svg>