<?xml version="1.0" encoding="UTF-8" standalone="no"?>
<svg
   xmlns:dc="http://purl.org/dc/elements/1.1/"
   xmlns:cc="http://creativecommons.org/ns#"
   xmlns:rdf="http://www.w3.org/1999/02/22-rdf-syntax-ns#"
   xmlns:svg="http://www.w3.org/2000/svg"
   xmlns="http://www.w3.org/2000/svg"
   xmlns:sodipodi="http://sodipodi.sourceforge.net/DTD/sodipodi-0.dtd"
   xmlns:inkscape="http://www.inkscape.org/namespaces/inkscape"
   aria-hidden="true"
   focusable="false"
   data-prefix="fas"
   data-icon="exclamation"
   class="svg-inline--fa fa-exclamation fa-w-6"
   role="img"
   viewBox="0 0 54.999999 100"
   version="1.1"
   id="svg4"
   sodipodi:docname="saving-throw.svg"
   width="55mm"
   height="100mm"
   inkscape:version="1.0.2-2 (e86c870879, 2021-01-15)">
  <metadata
     id="metadata10">
    <rdf:RDF>
      <cc:Work
         rdf:about="">
        <dc:format>image/svg+xml</dc:format>
        <dc:type
           rdf:resource="http://purl.org/dc/dcmitype/StillImage" />
        <dc:title></dc:title>
      </cc:Work>
    </rdf:RDF>
  </metadata>
  <defs
     id="defs8" />
  <sodipodi:namedview
     pagecolor="#ffffff"
     bordercolor="#666666"
     borderopacity="1"
     objecttolerance="10"
     gridtolerance="10"
     guidetolerance="10"
     inkscape:pageopacity="0"
     inkscape:pageshadow="2"
     inkscape:window-width="1920"
     inkscape:window-height="1001"
     id="namedview6"
     showgrid="false"
     inkscape:document-units="mm"
     units="mm"
     inkscape:zoom="1.1297136"
     inkscape:cx="96"
     inkscape:cy="256"
     inkscape:window-x="-9"
     inkscape:window-y="-9"
     inkscape:window-maximized="1"
     inkscape:current-layer="svg4"
     inkscape:document-rotation="0" />
  <path
     fill="currentColor"
     d="M 43.125,84.375 C 43.125,92.99062 36.115625,100 27.5,100 18.884375,100 11.875,92.99062 11.875,84.375 c 0,-8.615625 7.009375,-15.625 15.625,-15.625 8.615625,0 15.625,7.009375 15.625,15.625 z M 13.683594,4.92168 l 2.65625,53.125 C 16.464648,60.541406 18.523633,62.5 21.021484,62.5 h 12.957032 c 2.497851,0 4.556836,-1.958594 4.68164,-4.45332 l 2.65625,-53.125 C 41.450195,2.244141 39.315625,0 36.634766,0 H 18.365234 c -2.680859,0 -4.815429,2.244141 -4.68164,4.92168 z"
     id="path2"
     style="stroke-width:0.195312" />
</svg>
