<?xml version="1.0" encoding="UTF-8" standalone="no"?>
<!-- Created with Inkscape (http://www.inkscape.org/) -->

<svg
   xmlns:dc="http://purl.org/dc/elements/1.1/"
   xmlns:cc="http://creativecommons.org/ns#"
   xmlns:rdf="http://www.w3.org/1999/02/22-rdf-syntax-ns#"
   xmlns:svg="http://www.w3.org/2000/svg"
   xmlns="http://www.w3.org/2000/svg"
   xmlns:sodipodi="http://sodipodi.sourceforge.net/DTD/sodipodi-0.dtd"
   xmlns:inkscape="http://www.inkscape.org/namespaces/inkscape"
   width="512"
   height="512"
   viewBox="0 0 135.46666 135.46667"
   version="1.1"
   id="svg8"
   inkscape:version="0.92.4 (5da689c313, 2019-01-14)"
   sodipodi:docname="scroll.svg">
  <defs
     id="defs2" />
  <sodipodi:namedview
     id="base"
     pagecolor="#ffffff"
     bordercolor="#666666"
     borderopacity="1.0"
     inkscape:pageopacity="0.0"
     inkscape:pageshadow="2"
     inkscape:zoom="0.7"
     inkscape:cx="139.87514"
     inkscape:cy="315.31954"
     inkscape:document-units="mm"
     inkscape:current-layer="layer1"
     showgrid="false"
     units="px"
     inkscape:window-width="1366"
     inkscape:window-height="715"
     inkscape:window-x="-8"
     inkscape:window-y="-8"
     inkscape:window-maximized="1" />
  <metadata
     id="metadata5">
    <rdf:RDF>
      <cc:Work
         rdf:about="">
        <dc:format>image/svg+xml</dc:format>
        <dc:type
           rdf:resource="http://purl.org/dc/dcmitype/StillImage" />
        <dc:title></dc:title>
      </cc:Work>
    </rdf:RDF>
  </metadata>
  <g
     inkscape:label="Layer 1"
     inkscape:groupmode="layer"
     id="layer1"
     transform="translate(0,-161.53332)">
    <path
       style="fill:#000000;stroke-width:0.89198583"
       d="m 103.2686,296.65819 c -1.85609,0.25339 -5.171857,0.26232 -7.757785,0.3418 h -4.01119 L 50.838239,296.74327 C 11.794344,296.49677 10.053974,296.41418 7.0879172,294.67005 2.2369181,291.81752 -0.8519473,287.9413 0.08930166,279.08314 L 0.01012217,268.36169 H 12.023667 21.321426 v -16.54898 -16.56294 l -0.112906,-19.53876 0.279347,-22.08074 c 0.25698,-20.31269 0.42465,-22.32829 2.094028,-25.17256 0.998074,-1.70051 3.2047,-3.90922 4.903612,-4.90825 3.000841,-1.76458 4.423808,-1.81638 49.896148,-1.81638 45.472325,0 46.895305,0.0518 49.896155,1.81638 4.85099,2.85256 6.57361,6.68904 6.99862,15.58691 V 189.844 h -8.3681 l -5.73151,-1.2e-4 v 12.99332 12.99331 19.41926 11.65471 c 0,11.57183 -0.0234,12.41147 -0.003,15.12073 v 14.63267 c -0.0507,2.55282 -0.46493,5.35873 -0.99438,7.39038 -0.52943,2.03165 -1.18945,4.3342 -2.63968,6.28779 -1.45024,1.9536 -4.18272,3.89885 -6.3633,4.89232 -2.18056,0.99348 -5.28491,1.09984 -7.90691,1.42982 z m -84.135563,-9.05524 c 1.797303,-1.79901 2.188389,-3.07485 2.188389,-7.13927 v -4.94879 H 14.188898 7.056369 v 4.94879 c 0,5.9544 2.5804203,9.32971 7.132529,9.32971 1.737103,0 3.564674,-0.80968 4.944139,-2.19044 z m 93.474483,-4.39731 c 1.12567,-2.05505 0.95787,-4.57909 1.4368,-6.86864 v -17.7779 -10.40991 l -3e-5,-10.40999 V 213.34106 201.59247 189.84388 L 79.782681,189.844 H 43.380554 l -0.661458,-9.9209 c -0.423465,-6.35135 -0.230922,-7.34712 -2.188476,-9.30651 -1.379465,-1.38076 -3.207036,-2.19046 -4.944139,-2.19046 -1.737103,0 -3.564674,0.8097 -4.944139,2.19046 -1.327925,1.17112 -2.277874,2.53123 -2.282883,3.51336 l 0.09449,18.9441 v 20.26701 l 0.107541,24.28605 -0.29383,24.52142 c -0.161605,13.4868 -0.629931,25.22421 -1.040723,26.08315 -0.704024,1.47208 1.062479,1.56125 30.776193,1.55361 l 31.523089,-0.008 8.835663,0.0918 c 2.795514,-0.16597 6.293704,0.38963 8.846084,-0.80425 2.55237,-1.19386 4.27389,-3.80409 5.39955,-5.85914 z m 15.70182,-105.44981 c 0,-4.0644 -0.39108,-5.34025 -2.18839,-7.13924 l -2.18838,-2.19046 H 85.905098 c -35.863129,0 -37.991481,0.0888 -37.395184,1.56171 0.347755,0.85895 0.846814,4.07161 1.109018,7.13925 l 0.476734,5.57754 h 39.106838 39.106836 z"
       id="path3626"
       inkscape:connector-curvature="0"
       sodipodi:nodetypes="cccscsccccccsccsccccccccssczzzzccccsssccscccccscccscccccssccccczzsscscccssss" />
  </g>
</svg>
