<?xml version="1.0" encoding="UTF-8" standalone="no"?>
<svg
   xmlns:dc="http://purl.org/dc/elements/1.1/"
   xmlns:cc="http://creativecommons.org/ns#"
   xmlns:rdf="http://www.w3.org/1999/02/22-rdf-syntax-ns#"
   xmlns:svg="http://www.w3.org/2000/svg"
   xmlns="http://www.w3.org/2000/svg"
   xmlns:sodipodi="http://sodipodi.sourceforge.net/DTD/sodipodi-0.dtd"
   xmlns:inkscape="http://www.inkscape.org/namespaces/inkscape"
   height="100mm"
   width="120mm"
   fill="#000000"
   version="1.1"
   x="0px"
   y="0px"
   viewBox="0 0 120 100"
   id="svg6"
   sodipodi:docname="skill-check2.svg"
   inkscape:version="1.0.2-2 (e86c870879, 2021-01-15)">
  <metadata
     id="metadata12">
    <rdf:RDF>
      <cc:Work
         rdf:about="">
        <dc:format>image/svg+xml</dc:format>
        <dc:type
           rdf:resource="http://purl.org/dc/dcmitype/StillImage" />
        <dc:title></dc:title>
      </cc:Work>
    </rdf:RDF>
  </metadata>
  <defs
     id="defs10" />
  <sodipodi:namedview
     pagecolor="#ffffff"
     bordercolor="#666666"
     borderopacity="1"
     objecttolerance="10"
     gridtolerance="10"
     guidetolerance="10"
     inkscape:pageopacity="0"
     inkscape:pageshadow="2"
     inkscape:window-width="1920"
     inkscape:window-height="1001"
     id="namedview8"
     showgrid="false"
     inkscape:document-units="mm"
     units="mm"
     inkscape:zoom="1.9280445"
     inkscape:cx="150"
     inkscape:cy="191.49282"
     inkscape:window-x="-9"
     inkscape:window-y="-9"
     inkscape:window-maximized="1"
     inkscape:current-layer="svg6" />
  <g
     transform="matrix(1.1111111,0,0,1.1111111,4.4444445,-1063.7358)"
     id="g4">
    <path
       style="color:#000000;font-style:normal;font-variant:normal;font-weight:normal;font-stretch:normal;font-size:medium;line-height:normal;font-family:Sans;-inkscape-font-specification:Sans;text-indent:0;text-align:start;text-decoration:none;text-decoration-line:none;letter-spacing:normal;word-spacing:normal;text-transform:none;writing-mode:lr-tb;direction:ltr;baseline-shift:baseline;text-anchor:start;display:inline;overflow:visible;visibility:visible;opacity:1;fill:#000000;fill-opacity:1;stroke:none;stroke-width:5;marker:none;enable-background:accumulate"
       d="M 50,5 C 25.182716,5 5,25.18272 5,50 5,74.8173 25.182716,95 50,95 74.817284,95 95,74.8173 95,50 95,25.18272 74.817284,5 50,5 Z m 0,6 C 71.574644,11 89,28.42536 89,50 89,71.5746 71.574644,89 50,89 28.425356,89 11,71.5746 11,50 11,28.42536 28.425356,11 50,11 Z m 0,14 c -8.248742,0 -15,6.75127 -15,15 -0.02242,1.58494 1.414904,3.0625 3,3.0625 1.585096,0 3.022415,-1.47756 3,-3.0625 0,-5.00609 3.993902,-9 9,-9 5.006098,0 9,3.99391 9,9 0.03569,4.10808 -2.080262,6.2103 -5.03125,9 -1.475494,1.3948 -3.113806,2.8458 -4.5,4.75 C 48.082556,55.6542 47,58.1288 47,61 c -0.02242,1.5849 1.414904,3.0625 3,3.0625 1.585096,0 3.022415,-1.4776 3,-3.0625 0,-1.4825 0.434418,-2.51245 1.3125,-3.71875 0.878082,-1.2062 2.245323,-2.4856 3.78125,-3.9375 C 61.160229,50.44485 65.029504,47.32809 65,40 65,31.80802 58.238224,25 50,25 Z m 0,42 c -2.20914,0 -4,1.7908 -4,4 0,2.2091 1.79086,4 4,4 2.20914,0 4,-1.7909 4,-4 0,-2.2092 -1.79086,-4 -4,-4 z"
       transform="translate(0,952.36218)"
       id="path2" />
  </g>
</svg>
