<svg height='300px' width='300px'  fill="#000000" xmlns:dc="http://purl.org/dc/elements/1.1/" xmlns:cc="http://creativecommons.org/ns#" xmlns:rdf="http://www.w3.org/1999/02/22-rdf-syntax-ns#" xmlns:svg="http://www.w3.org/2000/svg" xmlns="http://www.w3.org/2000/svg" xmlns:sodipodi="http://sodipodi.sourceforge.net/DTD/sodipodi-0.dtd" xmlns:inkscape="http://www.inkscape.org/namespaces/inkscape" version="1.1" x="0px" y="0px" viewBox="0 0 100 100"><g transform="translate(0,-952.36218)"><path style="font-size:medium;font-style:normal;font-variant:normal;font-weight:normal;font-stretch:normal;text-indent:0;text-align:start;text-decoration:none;line-height:normal;letter-spacing:normal;word-spacing:normal;text-transform:none;direction:ltr;block-progression:tb;writing-mode:lr-tb;text-anchor:start;baseline-shift:baseline;opacity:1;color:#000000;fill:#000000;fill-opacity:1;stroke:none;stroke-width:5;marker:none;visibility:visible;display:inline;overflow:visible;enable-background:accumulate;font-family:Sans;-inkscape-font-specification:Sans" d="M 50 5 C 25.182716 5 5 25.18272 5 50 C 5 74.8173 25.182716 95 50 95 C 74.817284 95 95 74.8173 95 50 C 95 25.18272 74.817284 5 50 5 z M 50 11 C 71.574644 11 89 28.42536 89 50 C 89 71.5746 71.574644 89 50 89 C 28.425356 89 11 71.5746 11 50 C 11 28.42536 28.425356 11 50 11 z M 50 25 C 41.751258 25 35 31.75127 35 40 C 34.97758 41.58494 36.414904 43.0625 38 43.0625 C 39.585096 43.0625 41.022415 41.58494 41 40 C 41 34.99391 44.993902 31 50 31 C 55.006098 31 59 34.99391 59 40 C 59.03569 44.10808 56.919738 46.2103 53.96875 49 C 52.493256 50.3948 50.854944 51.8458 49.46875 53.75 C 48.082556 55.6542 47 58.1288 47 61 C 46.97758 62.5849 48.414904 64.0625 50 64.0625 C 51.585096 64.0625 53.022415 62.5849 53 61 C 53 59.5175 53.434418 58.48755 54.3125 57.28125 C 55.190582 56.07505 56.557823 54.79565 58.09375 53.34375 C 61.160229 50.44485 65.029504 47.32809 65 40 C 65 31.80802 58.238224 25 50 25 z M 50 67 C 47.79086 67 46 68.7908 46 71 C 46 73.2091 47.79086 75 50 75 C 52.20914 75 54 73.2091 54 71 C 54 68.7908 52.20914 67 50 67 z " transform="translate(0,952.36218)"></path></g></svg>