<?xml version="1.0" encoding="UTF-8" standalone="no"?>
<svg
   xmlns:dc="http://purl.org/dc/elements/1.1/"
   xmlns:cc="http://creativecommons.org/ns#"
   xmlns:rdf="http://www.w3.org/1999/02/22-rdf-syntax-ns#"
   xmlns:svg="http://www.w3.org/2000/svg"
   xmlns="http://www.w3.org/2000/svg"
   xmlns:sodipodi="http://sodipodi.sourceforge.net/DTD/sodipodi-0.dtd"
   xmlns:inkscape="http://www.inkscape.org/namespaces/inkscape"
   width="120"
   height="100"
   version="1.1"
   viewBox="0 0 120 100"
   id="svg11"
   sodipodi:docname="skillcheck.svg"
   inkscape:version="1.0.2-2 (e86c870879, 2021-01-15)">
  <metadata
     id="metadata15">
    <rdf:RDF>
      <cc:Work
         rdf:about="">
        <dc:format>image/svg+xml</dc:format>
        <dc:type
           rdf:resource="http://purl.org/dc/dcmitype/StillImage" />
        <dc:title></dc:title>
      </cc:Work>
    </rdf:RDF>
  </metadata>
  <sodipodi:namedview
     pagecolor="#ffffff"
     bordercolor="#666666"
     borderopacity="1"
     objecttolerance="10"
     gridtolerance="10"
     guidetolerance="10"
     inkscape:pageopacity="0"
     inkscape:pageshadow="2"
     inkscape:window-width="1920"
     inkscape:window-height="1001"
     id="namedview13"
     showgrid="true"
     units="px"
     inkscape:zoom="6.5265957"
     inkscape:cx="72.189142"
     inkscape:cy="47.812792"
     inkscape:window-x="-9"
     inkscape:window-y="-9"
     inkscape:window-maximized="1"
     inkscape:current-layer="svg11"
     inkscape:document-rotation="0">
    <inkscape:grid
       type="xygrid"
       id="grid860" />
  </sodipodi:namedview>
  <defs
     id="defs5">
    <clipPath
       id="a">
      <path
         d="M 139.21,139.21 H 612.79 V 612.79 H 139.21 Z"
         id="path2" />
    </clipPath>
  </defs>
  <g
     id="g843">
    <path
       id="path7"
       style="stroke-width:4.7358"
       d="M 53.892578 0 C 52.747703 0 51.984375 0.76250438 51.984375 1.9082031 L 49.695312 14.503906 C 47.023747 15.266882 44.732112 16.411765 42.060547 17.556641 L 31.755859 10.304688 C 30.992884 9.5417114 29.846875 9.5417114 29.083984 10.304688 L 20.304688 18.701172 C 19.922787 19.464148 19.541711 20.610983 20.304688 21.755859 L 27.556641 32.060547 C 26.411765 34.732112 25.267663 37.023747 24.503906 39.695312 L 11.908203 41.984375 C 10.763328 41.984375 10 42.74688 10 43.892578 L 10 55.724609 C 10 56.869484 10.762505 58.015625 11.908203 58.015625 L 24.503906 60.304688 C 25.266882 62.976253 26.411765 65.267887 27.556641 67.939453 L 20.304688 78.244141 C 19.541712 79.007116 19.541712 80.153125 20.304688 80.916016 L 28.701172 89.695312 C 29.464148 90.458288 30.610983 90.458289 31.755859 89.695312 L 42.060547 82.443359 C 44.732112 83.588234 47.023749 84.732337 49.695312 85.496094 L 51.984375 98.091797 C 51.984375 99.236672 52.74688 100 53.892578 100 L 65.724609 100 C 66.869484 100 68.015625 99.237496 68.015625 98.091797 L 70.304688 85.496094 C 72.976253 84.733119 75.267887 83.588234 77.939453 82.443359 L 88.626953 89.695312 C 89.389928 90.458288 90.533984 90.458289 91.296875 89.695312 L 99.695312 80.916016 C 100.45828 80.153041 100.45724 79.007032 100.07617 78.244141 L 92.443359 67.556641 C 93.588235 65.266848 94.732337 62.976463 95.496094 60.304688 L 108.0918 58.015625 C 109.23667 58.015625 110 56.869526 110 55.724609 L 110 43.892578 C 110 42.747703 109.23749 41.984375 108.0918 41.984375 L 95.496094 39.695312 C 94.733119 37.023747 93.588234 34.733151 92.443359 32.443359 L 99.695312 21.755859 C 100.45829 20.610983 100.45829 19.464929 99.695312 18.701172 L 90.916016 10.304688 C 90.153041 9.5417114 89.007032 9.5417114 88.244141 10.304688 L 77.939453 17.556641 C 75.267887 16.411765 72.976253 15.267663 70.304688 14.503906 L 68.015625 1.9082031 C 68.015625 0.76332791 66.869526 1.4802974e-16 65.724609 0 L 53.892578 0 z M 59.855469 20 A 30 30 0 0 1 60 20 A 30 30 0 0 1 90 50 A 30 30 0 0 1 60 80 A 30 30 0 0 1 30 50 A 30 30 0 0 1 59.855469 20 z " />
    <path
       d="m 45.303647,40.035863 q 0,-2.79224 1.792911,-5.643263 1.792912,-2.880415 5.231775,-4.761503 3.438863,-1.881087 8.024014,-1.881087 4.261839,0 7.52435,1.587167 3.262511,1.557776 5.026031,4.261839 1.792911,2.704064 1.792911,5.878399 0,2.498319 -1.028719,4.379407 -0.999328,1.881087 -2.410144,3.262511 -1.381423,1.352032 -4.996639,4.585151 -0.999327,0.911152 -1.616559,1.61656 -0.58784,0.676015 -0.88176,1.263855 -0.29392,0.558448 -0.470272,1.146288 -0.14696,0.558448 -0.470272,1.998655 -0.558448,3.056768 -3.497647,3.056768 -1.528384,0 -2.586495,-0.999328 -1.02872,-0.999328 -1.02872,-2.968591 0,-2.468928 0.764192,-4.261839 0.764192,-1.822304 2.028047,-3.174336 1.263856,-1.381423 3.409471,-3.262511 1.881088,-1.645951 2.704064,-2.468927 0.852368,-0.852368 1.410815,-1.881088 0.58784,-1.028719 0.58784,-2.233791 0,-2.35136 -1.763519,-3.967919 -1.734128,-1.61656 -4.496975,-1.61656 -3.233119,0 -4.761503,1.645952 -1.528384,1.616559 -2.586495,4.790895 -0.999328,3.321295 -3.791567,3.321295 -1.645952,0 -2.79224,-1.146288 -1.116895,-1.17568 -1.116895,-2.527711 z m 14.343292,32.213624 q -1.792912,0 -3.144943,-1.146288 -1.32264,-1.17568 -1.32264,-3.262511 0,-1.851696 1.293248,-3.115551 1.293247,-1.263856 3.174335,-1.263856 1.851696,0 3.115551,1.263856 1.263856,1.263855 1.263856,3.115551 0,2.057439 -1.32264,3.233119 -1.322639,1.17568 -3.056767,1.17568 z"
       style="font-style:normal;font-variant:normal;font-weight:bold;font-stretch:normal;font-size:60.1948px;line-height:1.25;font-family:'Arial Rounded MT Bold';-inkscape-font-specification:'Arial Rounded MT Bold,  Bold';stroke-width:0.999999"
       id="path874" />
  </g>
</svg>
