<?xml version="1.0" encoding="UTF-8" standalone="no"?>
<svg
   xmlns:dc="http://purl.org/dc/elements/1.1/"
   xmlns:cc="http://creativecommons.org/ns#"
   xmlns:rdf="http://www.w3.org/1999/02/22-rdf-syntax-ns#"
   xmlns:svg="http://www.w3.org/2000/svg"
   xmlns="http://www.w3.org/2000/svg"
   xmlns:sodipodi="http://sodipodi.sourceforge.net/DTD/sodipodi-0.dtd"
   xmlns:inkscape="http://www.inkscape.org/namespaces/inkscape"
   height="300px"
   width="300px"
   fill="#000000"
   version="1.1"
   x="0px"
   y="0px"
   viewBox="0 0 100 100"
   enable-background="new 0 0 100 100"
   xml:space="preserve"
   id="svg16"
   sodipodi:docname="swing.svg"
   inkscape:version="1.0.2-2 (e86c870879, 2021-01-15)"><metadata
     id="metadata22"><rdf:RDF><cc:Work
         rdf:about=""><dc:format>image/svg+xml</dc:format><dc:type
           rdf:resource="http://purl.org/dc/dcmitype/StillImage" /><dc:title></dc:title></cc:Work></rdf:RDF></metadata><defs
     id="defs20" /><sodipodi:namedview
     pagecolor="#ffffff"
     bordercolor="#666666"
     borderopacity="1"
     objecttolerance="10"
     gridtolerance="10"
     guidetolerance="10"
     inkscape:pageopacity="0"
     inkscape:pageshadow="2"
     inkscape:window-width="1920"
     inkscape:window-height="1001"
     id="namedview18"
     showgrid="false"
     inkscape:zoom="2.7266667"
     inkscape:cx="150"
     inkscape:cy="150"
     inkscape:window-x="-9"
     inkscape:window-y="-9"
     inkscape:window-maximized="1"
     inkscape:current-layer="svg16" /><path
     d="M37.138,74.872c0.269,2.732,0.426,4.339,0.359,5.745l36.536,5.076l-36.749-3.421c-0.279,1.381-0.826,2.905-1.761,5.499  c4.908,0.787,36.491,4.552,59.29,3.743c-0.703-2.598-1.452-5.12-2.244-7.568C71.022,78.512,41.843,75.213,37.138,74.872z"
     id="path2" /><path
     d="M32.632,74.827c-10.378,0.438-22.198-1.071-31.299-2.655v9.489c7.171,0.239,17.158,0.561,29.81,5.057L30.75,80.64  L32.632,74.827z"
     id="path4" /><path
     d="M36.987,81.444c0.003-0.02,0.005-0.041,0.009-0.064c0.003-0.021,0.005-0.042,0.007-0.063  c0.024-0.163,0.054-0.325,0.067-0.497c0.078-1.347-0.221-5.995-0.224-6.02c-0.34,0.015-0.937-3.332,1.304-6.553  c1.665-2.388-1.981-1.012-2.402-1.014c-0.827-0.016-2.376,7.612-2.683,7.596l-1.765,5.82l0.003,0.051l-0.015,0.051l0.243,6.058  c0.3,0.058-0.124,7.822,0.683,7.999c0.407,0.095,3.594,2.285,2.583-0.422c-1.359-3.647,0.064-6.755,0.392-6.66  c0.009-0.022,1.472-4.459,1.735-5.786C36.956,81.771,36.97,81.609,36.987,81.444z"
     id="path6" /><path
     d="M96.318,91.403c-0.023-1.533-0.087-3.308-0.22-5.284c-0.023-0.343-0.049-0.694-0.076-1.05  C94.084,59.852,80.937,5.38,3.671,3.334c0,0,74.999,4.333,88.734,80.779c0.455,2.532,1.541,4.971,2.244,7.568  c0.531,1.957,1.044,3.941,1.521,5.985c0,0,0.197-2.259,0.149-6.051C96.319,91.543,96.319,91.479,96.318,91.403z"
     id="path8" /><path
     d="M18.001,19c0,0,48.446,1.5,57.499,63C75.5,82,73.834,23.833,18.001,19z"
     id="path10" /><path
     d="M22.789,29.921c0,0,38.733,1.199,45.972,50.37C68.761,80.291,67.429,33.786,22.789,29.921z"
     id="path12" /><path
     d="M26.818,40.456c0,0,29.985,0.928,35.589,38.994C62.407,79.45,61.376,43.447,26.818,40.456z"
     id="path14" /></svg>
