<?xml version="1.0" encoding="UTF-8" standalone="no"?>
<svg
   xmlns:dc="http://purl.org/dc/elements/1.1/"
   xmlns:cc="http://creativecommons.org/ns#"
   xmlns:rdf="http://www.w3.org/1999/02/22-rdf-syntax-ns#"
   xmlns:svg="http://www.w3.org/2000/svg"
   xmlns="http://www.w3.org/2000/svg"
   xmlns:sodipodi="http://sodipodi.sourceforge.net/DTD/sodipodi-0.dtd"
   xmlns:inkscape="http://www.inkscape.org/namespaces/inkscape"
   width="120mm"
   height="100mm"
   viewBox="0 0 120 100"
   version="1.1"
   id="svg8"
   inkscape:version="1.0.2-2 (e86c870879, 2021-01-15)"
   sodipodi:docname="tick.svg">
  <defs
     id="defs2" />
  <sodipodi:namedview
     id="base"
     pagecolor="#ffffff"
     bordercolor="#666666"
     borderopacity="1.0"
     inkscape:pageopacity="0.0"
     inkscape:pageshadow="2"
     inkscape:zoom="1.4"
     inkscape:cx="158.92535"
     inkscape:cy="199.81138"
     inkscape:document-units="mm"
     inkscape:current-layer="layer1"
     showgrid="false"
     inkscape:window-width="1920"
     inkscape:window-height="1001"
     inkscape:window-x="-9"
     inkscape:window-y="-9"
     inkscape:window-maximized="1"
     inkscape:document-rotation="0" />
  <metadata
     id="metadata5">
    <rdf:RDF>
      <cc:Work
         rdf:about="">
        <dc:format>image/svg+xml</dc:format>
        <dc:type
           rdf:resource="http://purl.org/dc/dcmitype/StillImage" />
        <dc:title></dc:title>
      </cc:Work>
    </rdf:RDF>
  </metadata>
  <g
     inkscape:label="Layer 1"
     inkscape:groupmode="layer"
     id="layer1"
     transform="translate(0,-197)">
    <path
       style="fill:#000000;stroke-width:0.282109"
       d="m 46.382146,286.88323 c -3.818453,-1.39677 -3.72949,-1.30593 -7.63738,-7.79883 -6.748851,-11.21309 -17.26061,-25.17238 -25.755415,-34.20239 -1.494411,-1.58857 -2.717111,-2.96498 -2.717111,-3.0587 0,-0.0937 0.253898,-0.49319 0.564218,-0.8877 0.741047,-0.94208 0.711724,-1.44373 -0.136121,-2.3287 L 10,237.87592 l 0.745393,-1.04763 c 0.409968,-0.57619 0.939098,-1.04763 1.175846,-1.04763 0.236748,0 0.692532,-0.22844 1.012851,-0.50764 0.32032,-0.27921 1.296803,-0.79269 2.169964,-1.14109 l 1.587564,-0.63342 1.938794,0.73881 c 1.066337,0.40634 2.355685,0.91982 2.865218,1.14107 1.250069,0.54282 1.911047,0.5079 3.594566,-0.18989 1.344029,-0.55706 1.486465,-0.56551 2.403376,-0.1425 3.537891,1.63217 4.87861,2.88809 16.376541,15.34056 2.205161,2.38824 2.972285,2.76811 3.974231,1.96802 0.242881,-0.19394 1.811868,-1.93951 3.486636,-3.87901 3.975862,-4.60432 13.56827,-14.15582 18.798499,-18.71833 7.864715,-6.86066 15.773762,-12.97819 23.713561,-18.34207 3.455287,-2.33429 4.649357,-2.99908 5.38687,-2.99908 0.582609,0 1.14014,-0.21282 1.44761,-0.55256 0.27503,-0.30392 1.14086,-0.76542 1.92407,-1.02555 l 1.42401,-0.47298 0.72915,0.84773 c 0.40104,0.46624 1.3111,1.11929 2.02235,1.4512 1.75355,0.81832 2.47308,1.65988 2.9541,3.45512 0.38499,1.43685 0.37677,1.54053 -0.15736,1.98445 -0.30996,0.2576 -0.56358,0.72165 -0.56358,1.03121 0,0.66187 -0.57274,1.36566 -5.67493,6.97344 -21.499983,23.63044 -38.853843,46.13534 -45.496362,59.00079 -0.753973,1.46032 -1.656353,2.79827 -2.070159,3.06941 -0.403463,0.26436 -1.161362,0.90844 -1.684216,1.43129 -0.522855,0.52287 -1.170456,0.95065 -1.43911,0.95065 -0.268655,0 -0.962183,0.25391 -1.541171,0.56423 -1.371609,0.73514 -2.163384,0.69468 -4.722166,-0.24129 z"
       id="path826"
       inkscape:connector-curvature="0" />
  </g>
</svg>
