<svg width="100" height="100" version="1.1" viewBox="0 0 100 100" xmlns="http://www.w3.org/2000/svg">
 <path d="m45.597 99.51c-1.0614-1.1728-3.5559-2.4773-5.9886-3.1316-6.9671-1.874-12.802-5.2577-17.895-10.377-3.0637-3.0794-5.0017-5.6144-6.8242-8.9261-1.3137-2.3872-2.9088-6.255-3.5363-8.5752-0.77361-2.8602-1.1757-3.7692-2.3576-5.3302-1.4397-1.9013-3.5985-3.6569-5.7915-4.7097l-1.6803-0.80666 1.5823-0.79608c3.9944-2.0097 7.1536-5.4403 7.8113-8.4824 0.78651-3.638 3.1977-9.2402 5.4537-12.671 1.0543-1.6035 1.213-1.7516 1.2891-1.2036 0.04777 0.34375 0.20029 1.062 0.33893 1.5962l0.25208 0.97119 1.0438-1.0092c1.5847-1.5322 3.8705-3.0244 5.2691-3.4398 1.524-0.45258 2.6523-0.17168 3.3626 0.83714 0.94175 1.3375 0.89607 1.6147-0.52018 3.1564-4.0055 4.3604-6.7322 9.7435-7.808 15.415-0.50159 2.6442-0.50758 8.5212-0.01135 11.133 2.0582 10.832 9.4226 19.578 19.775 23.485 6.043 2.2804 13.978 2.4199 20.144 0.35419 11.153-3.7366 19.162-13.143 20.967-24.624 0.39914-2.5395 0.3294-7.889-0.13446-10.313-1.2803-6.6909-4.5952-12.622-8.5454-15.29-3.1389-2.1198-4.1388-3.3143-5.4769-6.5427-1.1199-2.702-1.9245-3.5082-5.0846-5.0953-1.2325-0.61902-2.6291-1.4663-3.1035-1.8828-1.2357-1.085-1.9191-2.6846-1.8951-4.4362 0.01085-0.79213 0.08078-1.2715 0.15538-1.0652 0.52455 1.4502 1.0064 2.0856 2.0449 2.696 1.1278 0.66304 1.2499 0.67898 5.1981 0.67898 4.7766 0 4.9829 0.0872 6.2435 2.6372 0.96893 1.96 1.4644 2.3751 3.2836 2.7509 3.1348 0.64756 5.4065 2.4541 8.8001 6.9982 3.2015 4.2868 5.4958 9.0001 6.7723 13.913 1.0934 4.2078 3.6775 7.2133 8.1266 9.4518l1.619 0.81454-1.0692 0.42752c-1.7198 0.6877-4.3335 2.5528-5.6548 4.0353-1.6577 1.8599-2.3696 3.2653-3.1491 6.2166-1.7218 6.5191-5.2048 12.433-10.39 17.642-5.0822 5.1052-10.931 8.4935-17.895 10.367-2.4327 0.65435-4.9272 1.9588-5.9886 3.1316-0.40449 0.44695-0.7877 0.48996-4.3659 0.48996-3.5782 0-3.9614-0.043-4.3659-0.48996zm-0.72026-13.895c-8.6906-1.6336-16.298-7.3637-20.233-15.24-0.89325-1.788-2.0541-5.211-2.4588-7.25-0.5562-2.8024-0.42612-9.0033 0.24385-11.625 1.0594-4.1458 2.7231-7.7072 4.9633-10.625 1.3056-1.7005 2.8391-3.375 3.0909-3.375 0.09291 0 0.30973 0.3399 0.48181 0.75536 0.17209 0.41544 0.40276 0.81092 0.51262 0.8788 0.10986 0.0679 0.70282-0.93857 1.3177-2.2366 1.2099-2.5542 1.4319-2.7642 4.6211-4.3742 3.4127-1.7228 8.7239-3.0058 12.497-3.0188 1.2775-4e-3 1.3383 0.0266 1.6875 0.86239 0.46798 1.12 0.46234 2.9095-0.01275 4.0466-0.20625 0.49364-0.375 0.94002-0.375 0.99198 0 0.28591 2.362 0.0326 2.8838-0.30928 0.54446-0.35675 0.6162-0.35916 0.6162-0.0207 0 0.21067-0.225 0.90793-0.5 1.5495-0.275 0.64155-0.5 1.2273-0.5 1.3017 0 0.0744 0.61374 0.0844 1.3639 0.0221 2.3441-0.1944 3.688-1.2971 6.4675-5.3072 0.32439-0.46799 0.39015-0.45335 2.0643 0.45974 5.6798 3.0977 10.389 8.4915 12.68 14.524 1.4156 3.7268 1.7636 5.688 1.7743 10 0.0105 4.217-0.18892 5.6232-1.2764 9-2.8881 8.9682-10.487 16.102-19.755 18.545-3.0965 0.81614-9.0275 1.0335-12.155 0.44555zm6.3932-4.8651 2.432-1.375 0.0054-1.8125 0.0055-1.8125h9.225l0.14996 2.7106 4-2.357 0.06755-5.3305c0.06055-4.7779 0.02651-5.3148-0.32838-5.1786-0.21777 0.0836-1.1763 0.60769-2.13 1.1647l-1.7341 1.0128v4.2279h-9.25v-31.205l-5.375-3.0013-0.14674 3.4484-5.6399 8.8165c-3.102 4.849-6.5564 10.25-7.6766 12.001l-2.0367 3.1848-1.2955 3e-3c-1.4258 3e-3 -1.6809 0.22516-2.8019 2.4402l-0.53772 1.0625h11.711l0.55867-0.9375c0.30727-0.51563 0.76646-1.3031 1.0204-1.75l0.46175-0.81282h-1.8707c-1.0289 0-1.8707-0.0452-1.8707-0.10037 0-0.0987 8.985-14.305 9.6561-15.268 0.29729-0.42633 0.34387 0.12397 0.34387 4.0625v4.5556h-2.6803l-0.84733 1.5618c-0.46603 0.85899-0.88483 1.6465-0.93066 1.75-0.04584 0.1035 0.93854 0.18819 2.1875 0.18819h2.2708v10h-3.125c-1.7187 0-3.125 0.0849-3.125 0.18862 0 0.10373 0.42452 0.91936 0.94338 1.8125l0.94338 1.6239 4.3632 0.1444v3.2586c0 2.4833 0.07435 3.2394 0.3125 3.1778 0.17187-0.0444 1.4069-0.69959 2.7445-1.4558zm17.254-14.875c0.07475-0.39103 5e-3 -0.625-0.18619-0.625-0.19123 0-0.26094 0.23397-0.18619 0.625 0.06572 0.34375 0.1495 0.625 0.18619 0.625 0.03669 0 0.12048-0.28125 0.18619-0.625zm1.435-0.11607c-0.0031-0.50382-0.05436-0.55696-0.25-0.25893-0.21882 0.33333-0.27352 0.33333-0.49234 0-0.19564-0.29803-0.24696-0.24489-0.25 0.25893-0.0028 0.46854 0.12662 0.63393 0.49617 0.63393 0.36955 0 0.499-0.16539 0.49617-0.63393zm-38.746-29.035c0-0.63087-1.4693-4.202-2.0578-5.0016-0.76583-1.0405-1.6819-1.4723-3.1172-1.4694-1.7352 4e-3 -3.4297 0.86835-6.5485 3.3422-0.28598 0.22684-0.31626 0.16461-0.16869-0.34656 0.34993-1.2121 2.1011-4.661 3.8668-7.6155 2.0609-3.4486 2.4904-4.5869 2.0747-5.4992-0.50694-1.1126-3.566-2.2786-6.4242-2.4488l-1-0.0595 1.754-1.0563c1.4977-0.90187 3.2657-1.7192 5.2151-2.4109 0.40667-0.14428 0.33816-0.26129-0.51476-0.87914-1.2999-0.94164-2.6792-2.5766-3.3152-3.9295-0.28278-0.6016-0.51415-1.1876-0.51415-1.3023 0-0.11468 0.64779 0.10243 1.4395 0.48243 2.3335 1.12 3.345 1.26 10.435 1.4452 6.0258 0.15731 6.9065 0.23396 8.2085 0.71431 1.6997 0.62704 1.5394 0.22965-0.31426-0.77923-1.5894-0.86509-3.2423-1.3618-5.2139-1.5669-1.5071-0.15677-1.6194-0.21777-2.8203-1.5317-1.0535-1.1527-3.735-5.9068-3.735-6.6218 0-0.1041 0.68309-0.18926 1.518-0.18926 1.1606 0 1.7645 0.14446 2.5651 0.61367 2.4058 1.4099 5.0903 2.208 12.261 3.6453 4.2077 0.84335 7.016 1.6104 9.5305 2.6031 1.0135 0.40014-1.459-1.1768-2.7185-1.7338-1.9239-0.85086-4.2906-1.5087-8.9064-2.4755-4.7927-1.0039-5.171-1.1305-5.9811-2.0013l-0.60608-0.65155h3.7773c2.0775 0 4.0598 0.10742 4.4052 0.23872 0.34533 0.13129 2.4058 0.594 4.5788 1.0282 4.7682 0.95284 6.6512 1.5142 8.9347 2.6634 2.0122 1.0127 4.3514 3.1328 5.0382 4.5662 0.4452 0.92923 0.55032 0.99791 1.5318 1.0006 0.81331 2e-3 1.2499 0.17504 1.913 0.75729l0.85925 0.75445 0.52444-1.0834c0.28844-0.59586 0.53235-1.3572 0.54202-1.6919 0.0097-0.33471 0.09987-0.81787 0.20045-1.0737 0.14893-0.37875 0.32721-0.1931 0.96025 0.99999 1.1978 2.2576 1.6461 4.1357 1.6325 6.8401-0.0092 1.8356-0.14013 2.7149-0.57637 3.8714l-0.56444 1.4964-0.43055-0.99645c-0.90451-2.0934-2.6034-3.0265-4.764-2.6168-1.1535 0.21877-4.0628 1.4942-4.5879 2.0114-0.45526 0.44843-0.6375 0.22716-0.6375-0.77408 0-1.2177-0.5399-2.5996-1.1488-2.9403-0.62479-0.34965-2.2479 0.18063-4.3025 1.4056-1.727 1.0297-6.5487 4.9178-6.5487 5.2807 0 0.11257 0.66839-0.12143 1.4853-0.51998 0.81692-0.39854 1.819-0.79136 2.2267-0.87292 0.73194-0.14639 0.74509-0.12952 1.0266 1.3158 0.72625 3.729 2.2771 5.1822 3.3144 3.1058 0.36943-0.73947 0.44925-0.79073 0.58284-0.37427 0.5624 1.7534 1.5 3.6627 1.9051 3.8795 0.55151 0.29516 1.3035 0.1099 2.2453-0.55316 0.48575-0.34198 0.69182-0.38306 0.77608-0.1547 0.25239 0.68401-0.57549 3.517-1.4471 4.9517-0.87921 1.4474-3.2028 3.9842-3.6493 3.9842-0.28193 0-0.277-0.0397 0.12816-1.032 0.42465-1.04 0.74185-3.1265 0.52792-3.4726-0.09117-0.1475-0.6541 0.18053-1.3277 0.77366-0.64319 0.56636-1.364 1.134-1.6019 1.2615-0.38313 0.20527-0.41165 0.13831-0.25-0.5869 0.5023-2.2534-0.0033-4.676-1.2793-6.1293-2.6234-2.9879-7.8631-2.14-10.663 1.7256-0.6546 0.90365-0.70076 0.92531-0.84275 0.39552-0.42847-1.5987 0.28663-5.3543 1.4606-7.6711 0.76382-1.5073 0.71518-1.5228-2.0349-0.64951-1.065 0.3382-1.9666 0.5846-2.0036 0.54759-0.03702-0.037 0.18315-0.53258 0.48928-1.1012 0.76114-1.4139 2.6696-3.575 4.5085-5.1054 1.7219-1.433 1.1687-1.4395-1.0769-0.0128-3.8539 2.4484-6.936 6.3075-7.6291 9.552-0.15366 0.71931-0.12608 0.82359 0.15914 0.60174 0.408-0.31733 3.6066-1.5968 3.992-1.5968 0.14669 0-0.23702 0.59062-0.85268 1.3125-2.1232 2.4896-4.3384 6.4312-5.557 9.8883-0.57663 1.6358-0.86225 2.1402-0.86225 1.5227zm25.204-24.563c0.67739-0.37585 0.54376-0.53361-1.2044-1.422-0.81328-0.41327-1.6792-0.59823-3.125-0.66753l-2-0.0959 1 0.91743c0.55 0.5046 1.3375 1.0682 1.75 1.2525 0.95227 0.42541 2.8259 0.43348 3.5794 0.0154z"/>
</svg>
