<?xml version="1.0" encoding="UTF-8" standalone="no"?>
<svg
   xmlns:dc="http://purl.org/dc/elements/1.1/"
   xmlns:cc="http://creativecommons.org/ns#"
   xmlns:rdf="http://www.w3.org/1999/02/22-rdf-syntax-ns#"
   xmlns:svg="http://www.w3.org/2000/svg"
   xmlns="http://www.w3.org/2000/svg"
   xmlns:sodipodi="http://sodipodi.sourceforge.net/DTD/sodipodi-0.dtd"
   xmlns:inkscape="http://www.inkscape.org/namespaces/inkscape"
   width="120mm"
   height="100mm"
   viewBox="0 0 120 100"
   version="1.1"
   id="svg8"
   inkscape:version="1.0.2-2 (e86c870879, 2021-01-15)"
   sodipodi:docname="al.svg">
  <defs
     id="defs2" />
  <sodipodi:namedview
     id="base"
     pagecolor="#ffffff"
     bordercolor="#666666"
     borderopacity="1.0"
     inkscape:pageopacity="0.0"
     inkscape:pageshadow="2"
     inkscape:zoom="1.4"
     inkscape:cx="170.37336"
     inkscape:cy="188.57143"
     inkscape:document-units="mm"
     inkscape:current-layer="layer1"
     showgrid="false"
     inkscape:window-width="1920"
     inkscape:window-height="1001"
     inkscape:window-x="-9"
     inkscape:window-y="-9"
     inkscape:window-maximized="1"
     inkscape:document-rotation="0" />
  <metadata
     id="metadata5">
    <rdf:RDF>
      <cc:Work
         rdf:about="">
        <dc:format>image/svg+xml</dc:format>
        <dc:type
           rdf:resource="http://purl.org/dc/dcmitype/StillImage" />
        <dc:title></dc:title>
      </cc:Work>
    </rdf:RDF>
  </metadata>
  <g
     inkscape:label="Layer 1"
     inkscape:groupmode="layer"
     id="layer1"
     transform="translate(0,-197)">
    <path
       style="fill:#000000;stroke-width:0.249999"
       d="m 55.597914,296.51004 c -1.061358,-1.17279 -3.555906,-2.47728 -5.98858,-3.13163 -6.967075,-1.87405 -12.802161,-5.25768 -17.895416,-10.37709 -3.063708,-3.07945 -5.001717,-5.61437 -6.8242,-8.92606 -1.313722,-2.38722 -2.908759,-6.25504 -3.536312,-8.57525 -0.773609,-2.86021 -1.175686,-3.76923 -2.35763,-5.33018 -1.439689,-1.90134 -3.59852,-3.65694 -5.791471,-4.70971 l -1.680305,-0.80666 1.582252,-0.79608 c 3.994407,-2.00972 7.153585,-5.44031 7.811263,-8.48236 0.786509,-3.63796 3.197674,-9.24022 5.453688,-12.67143 1.054299,-1.60351 1.21297,-1.75164 1.289133,-1.20357 0.04777,0.34375 0.20029,1.06202 0.338933,1.59619 l 0.252078,0.97119 1.043788,-1.00923 c 1.584745,-1.53224 3.87052,-3.02445 5.269131,-3.43979 1.523988,-0.45258 2.652297,-0.17168 3.362624,0.83714 0.941751,1.33749 0.896072,1.61468 -0.520179,3.15639 -4.005528,4.36042 -6.732157,9.7435 -7.808049,15.41518 -0.501586,2.64416 -0.507576,8.52118 -0.01135,11.1328 2.058216,10.8323 9.422642,19.5781 19.775433,23.48482 6.043041,2.28039 13.978417,2.41991 20.144183,0.35419 11.153046,-3.73662 19.161963,-13.1426 20.966526,-24.62389 0.399138,-2.53949 0.329399,-7.88896 -0.13446,-10.31305 -1.280325,-6.69093 -4.595192,-12.62201 -8.545404,-15.28974 -3.138904,-2.11983 -4.138779,-3.31429 -5.476944,-6.54271 -1.119936,-2.70196 -1.92449,-3.5082 -5.084596,-5.09531 -1.232536,-0.61902 -2.629098,-1.46626 -3.103469,-1.88277 -1.235696,-1.08496 -1.919058,-2.68465 -1.895054,-4.43618 0.01085,-0.79213 0.08078,-1.27148 0.155375,-1.06523 0.524546,1.4502 1.006447,2.08555 2.04491,2.69603 1.127847,0.66304 1.249889,0.67898 5.198086,0.67898 4.776568,0 4.982882,0.0872 6.243547,2.63724 0.968934,1.95999 1.464407,2.37508 3.283586,2.75088 3.134798,0.64756 5.40648,2.45409 8.800147,6.99822 3.201478,4.2868 5.495791,9.00013 6.772275,13.91266 1.093356,4.20776 3.677547,7.21334 8.126597,9.4518 l 1.61895,0.81454 -1.06918,0.42752 c -1.71985,0.6877 -4.33346,2.55278 -5.6548,4.03529 -1.65766,1.85986 -2.369586,3.26528 -3.149064,6.21656 -1.721783,6.51912 -5.204809,12.43307 -10.390251,17.64192 -5.082181,5.10516 -10.931197,8.49346 -17.895412,10.36675 -2.432673,0.65435 -4.927221,1.95884 -5.988581,3.13163 C 63.925224,296.95699 63.542017,297 59.963813,297 c -3.578205,0 -3.96141,-0.043 -4.365899,-0.48996 z m -0.720265,-13.89491 c -8.690613,-1.63364 -16.297741,-7.36368 -20.232599,-15.24012 -0.893246,-1.78802 -2.054126,-5.21097 -2.458812,-7.25 -0.556197,-2.80244 -0.426125,-9.00331 0.243851,-11.62499 1.05945,-4.14575 2.723146,-7.7072 4.963347,-10.625 1.305623,-1.70054 2.839111,-3.375 3.090857,-3.375 0.09291,0 0.309729,0.3399 0.481812,0.75536 0.172086,0.41544 0.402765,0.81092 0.512619,0.8788 0.109857,0.0679 0.702822,-0.93857 1.317703,-2.2366 1.209915,-2.55416 1.431852,-2.76424 4.621053,-4.37415 3.412749,-1.72276 8.72394,-3.00579 12.49659,-3.01883 1.277518,-0.004 1.338298,0.0266 1.687494,0.86239 0.467978,1.12003 0.462337,2.90953 -0.01275,4.04658 -0.206251,0.49364 -0.374999,0.94002 -0.374999,0.99198 0,0.28591 2.362031,0.0326 2.883783,-0.30928 0.544455,-0.35675 0.616204,-0.35916 0.616204,-0.0207 0,0.21067 -0.225,0.90793 -0.499998,1.54948 -0.274999,0.64155 -0.499999,1.2273 -0.499999,1.30168 0,0.0744 0.613744,0.0844 1.363878,0.0221 2.344141,-0.1944 3.687964,-1.29713 6.467493,-5.30722 0.324388,-0.46799 0.390151,-0.45335 2.064324,0.45974 5.679839,3.09774 10.388987,8.49148 12.680268,14.52366 1.415615,3.72684 1.763584,5.68799 1.774324,10 0.0105,4.217 -0.188919,5.62318 -1.276396,9 -2.888129,8.96818 -10.487471,16.10205 -19.754566,18.54457 -3.096462,0.81614 -9.027529,1.03353 -12.155474,0.44555 z m 6.3932,-4.86513 2.43203,-1.375 0.0054,-1.81249 0.0055,-1.81251 h 4.612507 4.612506 l 0.07498,1.35532 0.07498,1.35532 1.999992,-1.17849 1.999993,-1.1785 0.06755,-5.33051 c 0.06055,-4.77791 0.02651,-5.31475 -0.328382,-5.17857 -0.217767,0.0836 -1.176288,0.60769 -2.130047,1.16471 l -1.734093,1.01279 V 266.88603 269 H 68.33872 63.713738 v -15.60251 -15.60253 l -2.687491,-1.50065 -2.687489,-1.50065 -0.07337,1.7242 -0.07337,1.7242 -5.639934,8.81648 c -3.101964,4.84905 -6.556433,10.24964 -7.676599,12.00131 l -2.036665,3.18482 -1.295474,0.003 c -1.425766,0.003 -1.680948,0.22516 -2.801946,2.44016 l -0.537725,1.06251 h 5.855365 5.855366 l 0.558668,-0.9375 c 0.307269,-0.51563 0.766457,-1.30313 1.020419,-1.75001 l 0.461747,-0.81282 h -1.870722 c -1.0289,0 -1.870723,-0.0452 -1.870723,-0.10037 0,-0.0987 8.985012,-14.3054 9.656089,-15.26775 0.297293,-0.42633 0.343874,0.12397 0.343874,4.0625 v 4.55562 H 56.873595 55.53343 l -0.847328,1.56182 c -0.466029,0.85899 -0.884828,1.64649 -0.93066,1.75 -0.04584,0.1035 0.938537,0.18819 2.187493,0.18819 h 2.270823 v 4.99999 5 H 55.08877 c -1.718744,0 -3.124989,0.0849 -3.124989,0.18862 0,0.10373 0.424518,0.91936 0.943376,1.8125 l 0.943377,1.62388 2.181612,0.0722 2.181612,0.0722 v 3.25859 c 0,2.48333 0.07435,3.23936 0.312499,3.17777 0.171874,-0.0444 1.406912,-0.69959 2.74453,-1.45583 z m 17.254084,-14.87499 c 0.07475,-0.39103 0.005,-0.625 -0.186188,-0.625 -0.191234,0 -0.260937,0.23397 -0.186188,0.625 0.06572,0.34375 0.149495,0.625 0.186188,0.625 0.03669,0 0.120475,-0.28125 0.186188,-0.625 z m 1.434978,-0.11607 c -0.0031,-0.50382 -0.05436,-0.55696 -0.249999,-0.25893 -0.218819,0.33333 -0.273525,0.33333 -0.492344,0 -0.195644,-0.29803 -0.246955,-0.24489 -0.249999,0.25893 -0.0028,0.46854 0.126623,0.63393 0.496171,0.63393 0.369549,0 0.498999,-0.16539 0.496171,-0.63393 z M 41.213882,233.72348 c 0,-0.63087 -1.469292,-4.20205 -2.057832,-5.00165 -0.765829,-1.04046 -1.681941,-1.47229 -3.117233,-1.46937 -1.735222,0.004 -3.429706,0.86835 -6.548453,3.34216 -0.285977,0.22684 -0.316264,0.16461 -0.168693,-0.34656 0.34993,-1.21213 2.10108,-4.661 3.866756,-7.61554 2.06091,-3.44855 2.490398,-4.58694 2.074735,-5.49923 -0.506937,-1.11261 -3.565987,-2.27864 -6.424233,-2.44875 l -0.999997,-0.0595 1.754025,-1.05626 c 1.497658,-0.90187 3.265685,-1.7192 5.215051,-2.41086 0.406667,-0.14428 0.338157,-0.26129 -0.514759,-0.87914 -1.299896,-0.94164 -2.679246,-2.57659 -3.315179,-3.92947 -0.282782,-0.6016 -0.514147,-1.18763 -0.514147,-1.30229 0,-0.11468 0.64779,0.10243 1.439531,0.48243 2.333491,1.11997 3.344954,1.26004 10.435424,1.44515 6.025751,0.15731 6.906467,0.23396 8.208518,0.71431 1.699652,0.62704 1.539389,0.22965 -0.314255,-0.77923 -1.589426,-0.86509 -3.242296,-1.3618 -5.213908,-1.56687 -1.507114,-0.15677 -1.619441,-0.21777 -2.820307,-1.53172 -1.053498,-1.15271 -3.735033,-5.90677 -3.735033,-6.6218 0,-0.1041 0.683089,-0.18926 1.517977,-0.18926 1.160641,0 1.764479,0.14446 2.565115,0.61367 2.405782,1.40988 5.090294,2.20799 12.261307,3.6453 4.207681,0.84335 7.015955,1.61041 9.530505,2.60314 1.013506,0.40014 -1.459045,-1.17681 -2.718519,-1.7338 -1.923934,-0.85086 -4.290643,-1.50867 -8.906438,-2.47551 -4.792678,-1.00388 -5.170991,-1.13047 -5.981055,-2.00128 L 46.126707,197 h 3.777292 c 2.077505,0 4.05983,0.10742 4.405157,0.23872 0.345327,0.13129 2.405769,0.594 4.578759,1.02824 4.768249,0.95284 6.651217,1.51416 8.934667,2.66337 2.012231,1.01272 4.351426,3.13279 5.038183,4.56622 0.445195,0.92923 0.550316,0.99791 1.531794,1.00058 0.813308,0.002 1.249891,0.17504 1.913046,0.75729 l 0.859249,0.75445 0.524445,-1.08337 c 0.288444,-0.59586 0.532354,-1.35722 0.542018,-1.69193 0.0097,-0.33471 0.09987,-0.81787 0.200454,-1.07368 0.148927,-0.37875 0.327209,-0.1931 0.960247,0.99999 1.197843,2.25759 1.646083,4.13569 1.632493,6.84012 -0.0092,1.83559 -0.140126,2.71487 -0.576367,3.87143 l -0.564435,1.49645 -0.430547,-0.99645 c -0.904512,-2.09338 -2.603387,-3.02652 -4.764033,-2.61676 -1.153539,0.21877 -4.062845,1.49424 -4.587854,2.01138 -0.455258,0.44843 -0.637497,0.22716 -0.637497,-0.77408 0,-1.21766 -0.539902,-2.59955 -1.148754,-2.94029 -0.624792,-0.34965 -2.247944,0.18063 -4.302457,1.4056 -1.726981,1.0297 -6.548745,4.91782 -6.548745,5.2807 0,0.11257 0.668388,-0.12143 1.485305,-0.51998 0.816919,-0.39854 1.818953,-0.79136 2.226746,-0.87292 0.731935,-0.14639 0.745094,-0.12952 1.026587,1.31582 0.726247,3.72895 2.277076,5.18217 3.314385,3.10579 0.369427,-0.73947 0.449251,-0.79073 0.582835,-0.37427 0.562398,1.75339 1.500015,3.66271 1.905119,3.87952 0.551513,0.29516 1.303526,0.1099 2.245338,-0.55316 0.485747,-0.34198 0.691823,-0.38306 0.776082,-0.1547 0.252394,0.68401 -0.575488,3.51697 -1.447062,4.95174 -0.879212,1.44735 -3.202816,3.98417 -3.649301,3.98417 -0.281933,0 -0.277003,-0.0397 0.128156,-1.03197 0.424647,-1.04 0.741846,-3.12651 0.527924,-3.47265 -0.09117,-0.1475 -0.654105,0.18053 -1.327703,0.77366 -0.643189,0.56636 -1.364047,1.13401 -1.601904,1.26146 -0.383128,0.20527 -0.41165,0.13831 -0.249999,-0.5869 0.502299,-2.25343 -0.0033,-4.67602 -1.279345,-6.12929 -2.623422,-2.98791 -7.863102,-2.13999 -10.663344,1.72565 -0.654601,0.90365 -0.700759,0.92531 -0.842748,0.39552 -0.428467,-1.59868 0.286634,-5.35426 1.460649,-7.67108 0.763818,-1.50732 0.715185,-1.52283 -2.034945,-0.64951 -1.064961,0.3382 -1.966583,0.5846 -2.003604,0.54759 -0.03702,-0.037 0.183153,-0.53258 0.489275,-1.10123 0.761145,-1.41389 2.669625,-3.57502 4.508503,-5.10536 1.721858,-1.43295 1.168734,-1.43951 -1.076928,-0.0128 -3.853854,2.44845 -6.936038,6.30749 -7.62913,9.55201 -0.153661,0.71931 -0.126085,0.82359 0.159142,0.60174 0.407995,-0.31733 3.60665,-1.59684 3.99196,-1.59684 0.146688,0 -0.237022,0.59062 -0.852679,1.3125 -2.123244,2.48956 -4.33839,6.43124 -5.557008,9.88828 -0.576631,1.63581 -0.862246,2.1402 -0.862246,1.52268 z m 25.204324,-24.56266 c 0.677388,-0.37585 0.543761,-0.53361 -1.204412,-1.42195 -0.813281,-0.41327 -1.679159,-0.59823 -3.124989,-0.66753 l -1.999992,-0.0959 0.999995,0.91743 c 0.549999,0.5046 1.337496,1.06822 1.749994,1.25249 0.952272,0.42541 2.825932,0.43348 3.579404,0.0154 z"
       id="path839"
       inkscape:connector-curvature="0" />
  </g>
</svg>
