<svg width="100" height="100" version="1.1" viewBox="0 0 100 100" xml:space="preserve" xmlns="http://www.w3.org/2000/svg"><path d="m46.942 99.965c-9.3308-1.0488-13.6-2.2179-20.264-5.549-5.0468-2.5226-8.1264-4.5689-12.139-8.066-3.2986-2.8748-7.3193-7.1737-8.8603-9.4734-0.28863-0.43074-0.90467-1.2941-1.369-1.9185-0.46431-0.62446-0.80486-1.199-0.75678-1.2768 0.128-0.20711 5.5409-4.4362 6.6271-5.1778 0.83218-0.56814 5.5166-4.3784 6.2278-5.0657 0.30839-0.298 4.7739-4.0132 7.203-5.9927 0.82547-0.67269 1.5635-1.2234 1.6401-1.2237 0.07662-3.9e-4 0.23025 0.33717 0.34142 0.75002 0.29341 1.0896 2.2973 4.9886 3.4351 6.6837 1.2923 1.9253 4.9144 5.5722 6.7548 6.801 4.1917 2.7987 8.8137 4.153 14.195 4.159 5.4232 6e-3 10.104-1.385 14.195-4.2187 1.8531-1.2835 4.5919-4.0564 6.1023-6.178 1.2103-1.7001 3.4915-6.0565 3.4915-6.6676 0-0.19306 0.09788-0.35102 0.21752-0.35102 0.11964 0 1.4124 0.85903 2.8728 1.909 1.4604 1.0499 3.2064 2.3054 3.8799 2.79 1.6219 1.1669 6.3167 4.5369 7.8887 5.6627 1.1163 0.79941 5.4864 4.0554 7.4938 5.5832l0.75591 0.57533-0.55341 0.59942c-0.30438 0.32968-0.88499 1.0945-1.2902 1.6997-1.627 2.4296-5.4241 6.6493-8.1284 9.0332-1.1291 0.99533-2.1905 1.9418-2.3587 2.1034-0.27199 0.26122-1.454 1.179-3.5336 2.7437-4.0701 3.0624-10.751 6.3284-16.544 8.0878-3.8073 1.1563-8.7964 1.8899-13.51 1.9866-1.8306 0.0375-3.6368 0.0336-4.0137-9e-3zm2.7489-6.3523c0.42645-0.21756 0.77536-0.48187 0.77536-0.58737 0-0.27378-0.32244-0.23762-0.99846 0.11196-0.67064 0.3468-1.1396 0.25441-1.667-0.32844-0.32178-0.35556-0.36776-0.73967-0.36846-3.0786l-7.83e-4 -2.6723-1.2559-0.13863c-1.5506-0.17116-1.8633-0.01386-0.92711 0.4664l0.71457 0.36659 0.0069 2.3938c0.0074 2.5648 0.16361 3.1289 0.99357 3.589 0.68637 0.38043 1.8436 0.32852 2.7273-0.12233zm4.2298 0.10187c0.03329-0.10768-0.22372-0.32795-0.57115-0.48948l-0.63169-0.29368-0.05415-3.0048c-0.04656-2.5837-0.09553-2.9889-0.34945-2.8914-0.16242 0.06232-0.74126 0.01768-1.2863-0.09922-1.3071-0.28032-1.6678 0.02995-0.62621 0.53865l0.7498 0.3662v5.8737l1.0768 0.11677c1.3505 0.14644 1.6166 0.12808 1.6923-0.11677zm2.945-0.12081c0.30314-0.12029 1.0286-0.27448 1.6122-0.34263 1.226-0.14319 1.512-0.50951 0.54027-0.69182l-0.66733-0.12519-0.43235-2.3945c-0.23779-1.317-0.4797-2.6805-0.53757-3.03l-0.10522-0.63549-1.1042 0.12112c-1.2304 0.13497-1.9414 0.5581-1.2858 0.7652 1.0837 0.34234 1.1323 0.43106 1.555 2.8432 0.43942 2.5072 0.40034 2.7003-0.65881 3.2553-0.12383 0.06489 0.18557 0.45355 0.36105 0.45355 0.09432 0 0.41952-0.09842 0.72266-0.21871zm-14.311-0.87988c1.4186-0.67314 2.4125-2.4864 2.1449-3.9129-0.06622-0.35299-0.40379-1.0621-0.75016-1.5759-0.75649-1.1221-1.9237-1.771-3.5111-1.9521-2.211-0.2522-4.0765 1.2358-4.3867 3.499-0.20803 1.5178 0.67435 2.9491 2.3704 3.8451 0.98104 0.51827 3.138 0.56878 4.1327 0.09678zm-3.1508-0.60855c-0.95788-0.23336-1.6642-1.369-1.6642-2.6757 0-1.1385 0.2725-1.832 1.0274-2.6147 0.80807-0.83776 1.6233-0.97906 2.7566-0.47775 1.0984 0.48586 1.5796 1.31 1.5669 2.6834-0.01068 1.153-0.4 1.9997-1.2473 2.7127-0.59856 0.50365-1.3983 0.6256-2.4394 0.37198zm23.348 0.37417c1.3245-0.2721 1.9087-0.62493 1.0348-0.62493-0.53907 0-0.73965-0.47698-1.083-2.5753-0.52787-3.2263-0.77906-3.6909-1.9948-3.6893-0.76432 9.8e-4 -1.6842 0.60795-2.2094 1.4578-0.58404 0.94499-0.35658 1.1177 0.44668 0.33912 0.78446-0.76033 1.6276-0.84225 1.8773-0.18241 0.09169 0.24229 0.27134 1.2289 0.3992 2.1926 0.12786 0.96361 0.27851 1.8265 0.33478 1.9176 0.15305 0.24764-0.48448 1.1273-0.81702 1.1273-0.15904 0-0.28917 0.07342-0.28917 0.16316 0 0.29775 0.26914 0.43821 0.57715 0.30121 0.16715-0.07435 0.94268-0.26642 1.7234-0.42681zm-29.124-1.3484c0-0.07487-0.22957-0.37575-0.51016-0.66862-0.48004-0.50105-0.49558-0.57682-0.26329-1.2833 0.35302-1.0737 2.6043-3.2816 3.6725-3.6016 0.9957-0.29832 1.4225-0.7144 1.0042-0.97907-0.66437-0.4204-1.4426-0.1329-2.578 0.95236-0.83404 0.79719-1.0291 0.76246-0.71868-0.12797 0.30578-0.87715 0.15306-1.1026-1.0028-1.4807-1.1823-0.38671-1.4059-0.29333-0.81189 0.33899 0.23374 0.24881 0.42369 0.57886 0.4221 0.73344-0.0016 0.15459-0.3382 1.2062-0.74804 2.3369-0.7272 2.0062-0.76263 2.0602-1.47 2.2383-0.95292 0.23987-0.81952 0.52497 0.37321 0.79759 0.53166 0.12152 1.231 0.3657 1.554 0.54261 0.62334 0.34137 1.0769 0.42611 1.0769 0.20122zm36.49-0.72198c0.35639-0.14891 1.0278-0.72121 1.4921-1.2718 0.64932-0.77005 0.90336-0.95184 1.1009-0.78786 0.19062 0.1582 0.39751 0.11468 0.80219-0.16874 0.29993-0.21005 0.80965-0.46785 1.1327-0.57289 0.32306-0.10504 0.61568-0.33692 0.65027-0.51529 0.0513-0.26451-0.04755-0.30222-0.53614-0.2045-0.39111 0.07822-0.76285 0.01247-1.071-0.18942-0.30649-0.20082-1.4784-2.2856-3.3426-5.9467-1.5789-3.1006-2.9786-5.7476-3.1106-5.8823-0.19143-0.19533-0.52545-0.10239-1.6523 0.45974-1.6283 0.81225-1.8131 1.1418-0.5326 0.94978 0.80533-0.12077 0.9255-0.08258 1.4195 0.45106 0.78222 0.84501 5.1619 9.787 5.1834 10.583 0.03033 1.1201-1.4574 2.5833-2.6266 2.5833-1.2142 0-2.7702-1.3704-3.0105-2.6514-0.36349-1.9375 0.47106-3.331 2.1419-3.5764 1.2181-0.17887 1.0807-0.52818-0.20563-0.5227-0.83695 0.0036-1.1462 0.10991-1.7621 0.60598-1.1302 0.91025-1.6212 1.9095-1.6241 3.3055-0.0018 0.81542 0.11196 1.3624 0.37169 1.7884 0.41763 0.68489 1.4735 1.5479 2.0717 1.6932 0.82061 0.19936 2.4862 0.12959 3.1079-0.13019zm-41.173-3.2954c0.20492-0.76621 0.93568-1.7195 1.4754-1.9247 0.25656-0.09754 0.46342-0.24561 0.45969-0.32904-0.0098-0.2202-3.6751-2.6411-4.0445-2.6714-0.6582-0.05398-0.42844 0.44403 0.51882 1.1246 0.54295 0.39007 0.98718 0.84327 0.98718 1.0071 0 0.35935-0.79871 1.6589-1.2495 2.033-0.22966 0.1906-0.65771 0.23846-1.4722 0.16461-1.9836-0.17986-4.0951-1.879-4.7315-3.8075-0.13403-0.40612-0.19417-1.3606-0.14489-2.2996 0.07351-1.4005 0.17851-1.7783 0.82304-2.9613 1.6912-3.1042 4.2617-4.8228 6.7692-4.5259 1.8142 0.21487 3.5366 1.4363 4.2631 3.0232 0.42296 0.92387 0.46342 1.208 0.3429 2.4081-0.10851 1.0805-0.08216 1.3601 0.12796 1.3578 0.33806-0.0036 1.3415-1.8095 1.3415-2.4143 0-0.63744-1.3256-2.6178-2.3652-3.5336-0.47595-0.41924-1.4381-1.036-2.138-1.3705-1.1521-0.55068-1.4488-0.60772-3.1327-0.60234-1.7168 0.0055-1.9566 0.05588-3.1141 0.65449-2.4061 1.2443-4.3226 3.927-4.6169 6.4628-0.22383 1.9285 0.44078 4.036 1.8475 5.8584 1.3923 1.8037 5.0753 3.3198 7.2403 2.9805 0.52267-0.08193 0.70284-0.22254 0.81301-0.6345zm50.204-3.1886c1.0076-1.0013 1.3595-2.0562 0.98487-2.9528-0.49903-1.1943-1.8477-1.5318-3.8021-0.95137-1.5029 0.4463-2.063 0.33372-2.1372-0.42956-0.04658-0.47917 0.0607-0.70849 0.48948-1.0462 0.45929-0.36179 0.7013-0.41244 1.4791-0.30958 1.0412 0.13769 1.1195 0.0427 0.5043-0.6121-0.5429-0.57789-1.0022-0.57147-2.0256 0.02831-1.0566 0.61921-1.4875 1.2931-1.529 2.3917-0.02706 0.71513 0.05442 0.95245 0.43195 1.2582 0.75289 0.60973 1.312 0.64336 2.7907 0.16786 1.0317-0.33175 1.5157-0.39898 1.8997-0.26393 1.0024 0.35252 1.0667 1.9284 0.10435 2.559-0.47934 0.31408-0.56491 0.31422-1.4427 0.0025-1.1291-0.40103-1.1742-0.40325-1.1742-0.058 0 0.15037 0.30442 0.54068 0.67649 0.86736 0.62592 0.54956 0.72452 0.57669 1.3191 0.36292 0.35345-0.12708 0.9973-0.58347 1.4308-1.0142zm-30.565-10.498c-0.63435-0.33589-1.682-0.98298-2.3281-1.438-2.6128-1.84-3.2314-2.2587-3.3369-2.2587-0.06068 0-0.70234-0.37445-1.4259-0.83211-0.72358-0.45766-1.4898-0.93768-1.7028-1.0667-0.21293-0.12903-0.99869-0.61361-1.7461-1.0768-2.0583-1.2757-2.7958-1.7127-5.1361-3.0436-1.1822-0.67233-2.468-1.5093-2.8572-1.86l-0.70775-0.63759-0.060559-11.356c-0.03331-6.2457 0.0064-11.538 0.08832-11.761 0.08796-0.2395 1.0894-0.94768 2.4474-1.7307 1.2642-0.72891 3.7082-2.1526 5.4312-3.1637s3.2648-1.8992 3.4263-1.9734c0.16153-0.07428 1.2243-0.68875 2.3616-1.3655 1.1374-0.67675 2.2828-1.328 2.5453-1.4472 0.26253-0.11922 0.91786-0.4647 1.4563-0.76774 2.8542-1.6064 2.9947-1.6542 3.8637-1.3128 0.43684 0.17159 1.7071 0.86471 2.8229 1.5403 1.1157 0.67555 2.1822 1.3164 2.37 1.4242 0.39769 0.22821 3.7268 2.1906 4.1593 2.4518 0.16153 0.09754 1.351 0.79852 2.6432 1.5577 3.5949 2.1121 3.6845 2.1666 5.8764 3.5735l2.0531 1.3178v23.846l-1.8111 1.0755c-0.99609 0.59153-2.1194 1.2314-2.4963 1.422s-0.72932 0.40224-0.78316 0.47043c-0.05384 0.06819-1.0671 0.68356-2.2516 1.3675-6.0198 3.4758-7.8241 4.5523-8.2232 4.9063-1.0891 0.96615-4.4963 2.7497-5.2529 2.7497-0.14961 0-0.79104-0.27482-1.4254-0.6107zm8.2311-4.9564c0.76123-0.45602 2.9259-1.7369 4.8104-2.8464 4.4407-2.6145 4.3074-2.5295 4.3074-2.7462 0-0.10251-0.24229-0.14762-0.53843-0.10024-1.7638 0.28218-5.7381 0.94977-7.5869 1.2744-1.1845 0.20801-2.5061 0.42676-2.9369 0.4861-0.43074 0.05934-1.51 0.25066-2.3984 0.42514l-1.6153 0.31725v6.4422l2.287-1.2116c1.2579-0.66637 2.9099-1.5847 3.6711-2.0407zm-7.1329-0.0775v-3.0993l-1.5174-0.32316c-0.83456-0.17774-1.8698-0.37338-2.3005-0.43477-0.86933-0.12388-4.0495-0.69293-7.0485-1.2612-3.9657-0.7515-4.4852-0.71129-3.1816 0.24625 0.52051 0.38232 2.4574 1.5663 4.2328 2.5873 0.31119 0.17897 2.0353 1.2662 3.7457 2.3622 1.3346 0.85516 4.4135 2.5685 4.9927 2.7783 1.1089 0.40173 1.0768 0.48666 1.0768-2.8556zm3.4263-4.5157c3.9521-0.66388 11.148-1.9461 13.705-2.442 2.5944-0.50316 2.5764-0.46793 1.5745-3.0905-0.3846-1.0067-1.6771-4.7639-2.8723-8.3493-1.1951-3.5854-2.2643-6.4885-2.3758-6.4513-0.11154 0.03718-0.55449 0.67996-0.98432 1.4284-1.0092 1.7572-2.4831 4.2981-4.1744 7.1964-0.74186 1.2713-1.581 2.725-1.8648 3.2305s-0.82698 1.4477-1.2072 2.0938c-1.2462 2.1178-3.4421 6.0617-3.5827 6.4347-0.11068 0.29358-0.06466 0.34378 0.23456 0.2559 0.20474-0.06013 0.90089-0.19813 1.547-0.30666zm-3.8179-0.0092c0-0.10133-0.09428-0.2425-0.20951-0.31372-0.11523-0.07121-0.26942-0.27642-0.34263-0.456-0.07322-0.17958-0.6177-1.1452-1.21-2.1459-1.3557-2.2905-1.5819-2.674-3.1033-5.2609-0.6838-1.1627-1.8489-3.1273-2.589-4.3656-0.74018-1.2384-1.5688-2.6481-1.8415-3.1326-0.27263-0.48458-0.84532-1.4537-1.2726-2.1537-0.42733-0.69995-0.92856-1.5606-1.1138-1.9126-0.56598-1.0752-0.45356-1.2875-2.5166 4.7516-0.58859 1.723-1.521 4.4102-2.072 5.9716-1.2359 3.5024-1.9325 5.8538-1.7647 5.9575 0.0698 0.04315 0.82763 0.1759 1.6841 0.29502 0.85643 0.11912 1.8683 0.29899 2.2485 0.39971 0.38026 0.10072 1.3081 0.27716 2.0619 0.39209 0.7538 0.11492 2.1635 0.37627 3.1327 0.58076 0.96917 0.2045 2.3789 0.48105 3.1327 0.61456 0.7538 0.13351 2.2075 0.39514 3.2306 0.58138 2.2572 0.41095 2.5453 0.43324 2.5453 0.19692zm1.5658-0.64787c0.25476-0.45766 0.61128-1.0524 0.79226-1.3216 0.3116-0.46352 2.4112-3.9229 2.8304-4.6635 0.32594-0.57582 1.9018-3.2327 2.2275-3.7555 0.64925-1.0421 2.1778-3.5888 2.1778-3.6284 0-0.0229 0.48972-0.85782 1.0883-1.8554 1.0044-1.674 2.8276-5.1421 2.8276-5.3787 0-0.13867-18.357-0.07967-22.074 0.07094l-2.9844 0.12093 1.1625 2.3495c1.1632 2.351 1.5212 2.9995 3.5336 6.4025 0.59221 1.0014 1.1649 1.9721 1.2726 2.1572 3.4324 5.8945 6.2401 10.334 6.5354 10.334 0.08109 0 0.35588-0.37445 0.61064-0.83211zm18.209-15.027c0-5.6205-0.06672-8.419-0.20074-8.419-0.11041 0-1.1457 0.61658-2.3005 1.3702-1.1549 0.7536-2.175 1.3954-2.2669 1.4262-0.24592 0.08248 4.4282 14.042 4.7017 14.042 0.03656 0 0.06646-3.7885 0.06646-8.419zm-36.286 4.3677c0.69474-2.0253 1.3791-4.0348 1.5208-4.4656 0.14172-0.43074 0.56922-1.6314 0.95-2.668 1.0622-2.8919 1.0718-2.8265-0.54598-3.7227-0.7538-0.41758-1.7353-0.92734-2.1811-1.1328-0.4458-0.20545-0.8695-0.46895-0.94156-0.58554-0.42984-0.69549-0.49949 0.30869-0.49949 7.2007 0 6.7786 0.09781 9.3927 0.3423 9.1482 0.0505-0.05051 0.66025-1.7489 1.355-3.7743zm29.433-10.719c0-0.15517-0.09413-0.34031-0.20919-0.41142-0.11505-0.0711-1.0982-1.1997-2.1849-2.5079-1.0866-1.3082-2.6043-3.0834-3.3726-3.9449-0.76834-0.86148-2.133-2.4368-3.0326-3.5006-0.89959-1.0639-2.0055-2.3314-2.4575-2.8168l-0.8219-0.88245-0.81541 0.73667c-0.7577 0.68454-2.6716 2.969-5.9997 7.1613-0.7538 0.94953-2.1635 2.708-3.1327 3.9078-0.96917 1.1998-1.7915 2.2622-1.8274 2.3609-0.03911 0.10758 4.7272 0.17951 11.894 0.17951 10.283 0 11.96-0.03957 11.96-0.28213zm-22.417-3.4379c0.8533-1.023 2.4393-2.8732 3.5244-4.1116 2.7689-3.16 3.6877-4.3055 3.5576-4.4356-0.06187-0.06187-0.53558 0.13043-1.0527 0.42734-0.51711 0.29691-1.2486 0.70644-1.6255 0.91005-0.3769 0.20362-1.0377 0.57347-1.4684 0.8219-0.43074 0.24843-2.5893 1.4671-4.7969 2.7082-6.0583 3.406-6.3255 3.5646-6.4046 3.8029-0.07299 0.21986 1.9075 1.4521 4.153 2.584l1.1747 0.59214 0.69341-0.71969c0.38138-0.39583 1.3916-1.5567 2.2449-2.5797zm25.549 2.3084c0.3769-0.22912 1.2404-0.80583 1.9189-1.2816 1.005-0.70472 1.191-0.91626 1.0039-1.1417-0.12631-0.1522-0.30393-0.27673-0.39469-0.27673-0.1636 0-2.8624-1.5676-6.4439-3.7429-1.023-0.62134-2.8113-1.6854-3.9741-2.3645-1.1627-0.67913-2.4403-1.4259-2.839-1.6595-1.4749-0.86417-1.3813-0.41414 0.303 1.4574 0.72688 0.80767 1.9706 2.2273 2.7638 3.1548 0.79324 0.92745 2.4651 2.8456 3.7154 4.2626 2.5488 2.8888 2.1068 2.7106 3.9467 1.5921zm-55.852 26.717c-0.42495-0.47231-1.9807-3.7702-2.563-5.4332-0.26395-0.75379-0.72732-2.3837-1.0297-3.6221-0.53541-2.1926-0.54969-2.3926-0.5454-7.6358 0.00421-5.1335 0.029064-5.4936 0.53393-7.7337 0.65206-2.8932 1.1543-4.5947 1.9959-6.762 0.99167-2.5536 1.6203-3.9086 1.8135-3.9086 0.096263 0 1.0923 0.6869 2.2134 1.5265 8.8322 6.614 13.151 9.9283 13.24 10.161 0.05764 0.15022-0.03828 1.1321-0.21318 2.1819-0.37874 2.2734-0.39956 5.4496-0.04882 7.4493 0.2419 1.3792 0.23475 1.4666-0.15462 1.8887-0.3424 0.37119-5.42 4.6329-10.023 8.4127-0.65574 0.53842-1.9492 1.6177-2.8743 2.3984-0.92513 0.78071-1.7618 1.4195-1.8592 1.4195-0.097414 0-0.31584-0.15418-0.4854-0.34263zm79.111-0.68527c-0.50293-0.34998-2.748-1.964-4.989-3.5867-2.241-1.6227-5.22-3.774-6.6199-4.7808-1.3999-1.0068-2.5815-1.8592-2.6257-1.8944-0.04426-0.03515 0.06598-1.0996 0.24498-2.3655 0.40194-2.8426 0.41386-5.4636 0.0363-7.9787-0.24688-1.6446-0.24908-1.9539-0.01523-2.1366 0.15039-0.11754 0.99987-0.78639 1.8877-1.4863 1.5784-1.2443 3.7915-2.9752 7.7013-6.0232 1.0686-0.83309 2.6377-2.0728 3.4869-2.7549 0.84915-0.6821 1.6612-1.1952 1.8047-1.1401 0.33096 0.127 2.1066 3.7374 2.6632 5.4151 1.3069 3.9393 1.8177 7.1468 1.8084 11.356-0.01163 5.2871-1.1122 11.3-2.7236 14.88-0.70543 1.5673-1.5192 3.1326-1.6285 3.1326-0.06438 0-0.52854-0.28634-1.0315-0.63632zm-14.768-23.984c-0.20194-0.82243-1.305-3.1731-2.2412-4.7761-3.3032-5.6558-7.7712-9.6448-13.013-11.618-2.8699-1.0802-4.2726-1.3243-8.1558-1.4191-3.2783-0.08001-3.8617-0.04384-5.5703 0.34541-5.2331 1.1921-8.3789 2.955-12.207 6.8405-2.6326 2.6721-4.2274 4.9482-5.9364 8.4719-0.6655 1.3723-1.267 2.4956-1.3366 2.4963-0.06963 7.83e-4 -0.73043-0.46462-1.4684-1.0341-2.6958-2.0802-14.012-10.622-14.45-10.908-0.56797-0.36998-1.004-0.69844-3.5549-2.6777-1.1347-0.88046-2.255-1.7429-2.4895-1.9165-0.33611-0.24885-0.367-0.3407-0.14603-0.43416 0.41528-0.17565 0.89194-0.74541 2.2996-2.7488 2.4077-3.4265 7.7362-8.8487 11.59-11.794 4.3592-3.3312 7.4691-5.1828 12.244-7.2897 8.3584-3.6883 18.012-5.0672 27.233-3.89 6.3134 0.80597 10.843 2.1721 16.724 5.0442 8.2317 4.02 17.004 11.454 21.554 18.266 0.46749 0.69995 1.0205 1.4646 1.2289 1.6992 0.2084 0.23459 0.34745 0.51096 0.30899 0.61416-0.06769 0.18161-4.7479 3.9385-6.1428 4.9309-0.61897 0.44038-7.7141 5.9302-11.45 8.8598-3.3886 2.6569-4.4912 3.475-4.6837 3.475-0.11199 0-0.26311-0.24229-0.33582-0.53842zm1.8345-10.3c0.3481-0.1804 0.91272-0.60153 1.2547-0.93584 0.86858-0.84906 4.6997-5.673 4.6304-5.8303-0.1252-0.28432-1.8774-1.7785-2.0857-1.7785-0.31969 0-0.2748 0.4963 0.07084 0.78316 0.58906 0.48887 0.28614 1.086-1.8375 3.6222-2.929 3.498-3.1815 3.7199-4.232 3.7199-0.67955 0-0.97872-0.11819-1.4556-0.57505-0.4053-0.3883-0.60023-0.48026-0.60023-0.28314 0 0.42551 1.2162 1.5358 1.8784 1.7148 0.65989 0.17836 1.4801 0.02749 2.3767-0.43718zm-52.271-2.0808c0.62026-0.84342 1.8226-1.8763 2.3959-2.0583 0.19597-0.0622 0.40294-0.2346 0.45993-0.38312 0.16379-0.42682-0.4056-0.51737-1.1178-0.17776-0.55986 0.26698-0.72152 0.2732-1.1458 0.04413-0.60977-0.3292-4.8523-5.1842-4.8523-5.5528 0-0.2572 1.3011-1.5863 2.3804-2.4316 0.59445-0.46558 0.91916-0.50154 1.625-0.17996 0.88226 0.40198 0.7651 0.02045-0.398-1.2962-0.74543-0.8438-1.202-1.2193-1.3285-1.0928-0.12655 0.12655-0.1157 0.36204 0.03158 0.68528 0.12341 0.27086 0.17557 0.60364 0.1159 0.73952-0.13478 0.30693-2.663 2.4515-3.0777 2.6106-0.32325 0.12404-2.5815-2.0653-2.7873-2.7023-0.1605-0.49678 0.09442-0.83933 1.5817-2.1253 1.2735-1.1012 2.0611-1.4242 2.3465-0.96232 0.18386 0.29749 0.88106 0.2338 0.88106-0.08049 0-0.29934-1.0786-1.29-1.4046-1.29-0.23292 0-3.8128 3.0343-5.6049 4.7506-0.80355 0.7696-1.1669 1.2482-1.0422 1.3729 0.12467 0.12467 0.43861 0.03861 0.90049-0.24684l0.70909-0.43824 1.1228 1.1476c1.6511 1.6876 6.9242 7.6447 7.3194 8.2687 0.32587 0.51468 0.32389 0.56813-0.04671 1.2596-0.4762 0.88848-0.47661 0.91932-0.01239 0.91932 0.21035 0 0.62633-0.34224 0.94856-0.7804zm52.813-1.5691c-0.06655-0.10768-0.24382-0.19579-0.39392-0.19579-0.52748 0-1.2293-0.43958-1.4399-0.90187-0.28152-0.61786-0.05968-1.1588 0.95684-2.3333 0.45134-0.52148 1.1843-1.4299 1.6289-2.0187 0.76093-1.0078 0.78642-1.0831 0.4353-1.2857-0.20514-0.11834-0.70295-0.50508-1.1062-0.85941-0.48218-0.42364-0.78-0.56864-0.86972-0.42347-0.07504 0.12142-0.03839 0.31882 0.08145 0.43866 0.52664 0.52663 0.22419 1.3226-1.1526 3.0334-1.0779 1.3394-1.3705 1.8414-1.3705 2.3512 0 0.92063 0.50976 1.7882 1.2364 2.1042 0.72991 0.31746 2.1749 0.38324 1.9942 0.09078zm-43.956-4.5027c0.42165-0.21511 1.0122-0.69885 1.3123-1.075 0.38553-0.48316 0.65078-0.6505 0.90381-0.57019 0.19698 0.06251 0.50833-0.02224 0.69189-0.18836 0.18356-0.16612 0.67711-0.41635 1.0968-0.55607 1.0555-0.35141 1.1369-0.74351 0.1544-0.74351-0.95389 0-1.1261-0.18818-2.2713-2.4813-0.4933-0.98783-1.0952-1.935-1.3376-2.1047-1.3653-0.95627-5.0526 0.6155-5.0526 2.1537 0 0.67878 0.26771 0.58928 0.99892-0.33395 0.82535-1.0421 1.675-1.4166 2.5343-1.1171 0.53582 0.18679 0.7575 0.48907 1.4852 2.0251 0.47042 0.99307 0.85532 1.9806 0.85532 2.1945 0 1.1098-1.7192 2.4096-2.8212 2.133-1.2638-0.3172-2.0727-1.9607-1.4957-3.0389 0.31048-0.58014 1.3521-1.1909 2.0327-1.1918 0.35844-3.91e-4 0.52463-0.08733 0.46964-0.24547-0.05076-0.146-0.40868-0.23822-0.88712-0.2286-0.96681 0.01946-2.2313 0.79285-2.7874 1.7049-0.74788 1.2266-0.36718 3.1456 0.74359 3.7483 0.78395 0.42537 2.4566 0.38342 3.374-0.08463zm37.939-0.04375c0.49552-0.41125 0.86964-1.3684 0.75631-1.935-0.06089-0.30443-0.45949-1.1276-0.88578-1.8293-0.99289-1.6343-1.0873-1.9504-0.6985-2.3392 0.46904-0.46904 1.0317-0.38221 1.6719 0.25799 0.41922 0.41922 0.57231 0.75964 0.57231 1.2726 0 0.80141 0.23408 0.89349 0.67417 0.26518 0.44716-0.63841 0.37397-1.189-0.23364-1.7575-1.3075-1.2233-3.0185-1.5126-3.8758-0.65525-0.81424 0.81424-0.61186 1.8592 0.7148 3.6906 0.67341 0.92961 0.70218 1.2818 0.16094 1.9698-0.53047 0.67438-1.3965 0.68929-2.0505 0.03531-0.38324-0.38324-0.48058-0.68065-0.48058-1.4684 0-1.2713-0.42496-1.3283-0.88683-0.11892-0.32179 0.84259-0.31947 0.88632 0.07664 1.4426 0.48932 0.68719 1.2718 1.2258 2.0787 1.4308 0.72281 0.18362 2.0423 0.04029 2.4057-0.26133zm-6.5099-2.3116c0.0684-0.11066-0.15742-0.46442-0.50181-0.78613-0.69314-0.64749-0.69338-0.5292 0.0062-3.111 0.21688-0.80035 0.39432-1.7407 0.39432-2.0897 0-0.77821-0.70175-1.6632-1.6912-2.1327-0.90271-0.42836-3.0121-0.50083-3.4719-0.11928-0.49502 0.41077-0.23002 0.51052 1.3562 0.51052 1.2393 0 1.5081 0.06302 1.8883 0.4426 0.56592 0.56498 0.55461 1.4295-0.04512 3.4497-0.53818 1.8129-1.0045 2.2751-2.2953 2.2751-0.75848 0-0.98093-0.10324-1.6378-0.76012-0.41807-0.41807-0.76013-0.94953-0.76013-1.181 0-0.76829 0.54674-1.7478 1.1496-2.0595 0.77862-0.40264 1.0213-0.38837 2.0714 0.12182 1.0975 0.53321 1.3886 0.30934 0.56025-0.43083-1.6724-1.4943-4.8707-0.61822-5.2568 1.44-0.18047 0.96195-0.0027 1.5587 0.70437 2.3639 0.84136 0.95826 2.0379 1.3734 3.486 1.2096 0.9396-0.1063 1.1752-0.07471 1.2691 0.1702 0.07045 0.1836 0.36565 0.30343 0.75787 0.30767 0.35336 0.0038 0.86273 0.13285 1.1319 0.28675 0.59337 0.3392 0.72351 0.35281 0.88441 0.09248zm-23.988-1.0714c0.45782-0.16153 1.1517-0.29504 1.542-0.29668 0.39028-0.0016 0.84176-0.08975 1.0033-0.19579 0.26105-0.17137 0.26105-0.21421 0-0.38558-0.16153-0.10604-0.45005-0.19414-0.64117-0.19579-0.47312-0.0041-0.65864-0.58233-1.018-3.173-0.43327-3.1236-0.34078-2.9554-1.5407-2.8033-1.31 0.16598-1.6949 0.28051-1.6949 0.50437 0 0.10043 0.16645 0.1826 0.36989 0.1826 0.8023 0 1.1456 0.60844 1.471 2.607 0.41835 2.5698 0.40518 2.7752-0.20648 3.2208-0.29962 0.21825-0.46039 0.47366-0.38003 0.6037 0.17217 0.27857 0.09914 0.28312 1.0951-0.06829zm5.8737-1.059 1.6642-0.34547-1.4071-0.60577-0.34135-2.2235c-0.41301-2.6902-0.69737-3.4347-1.4163-3.7081-0.71968-0.27362-1.8531 0.23143-2.6274 1.1708-0.94846 1.1506-0.69218 1.6496 0.31001 0.60356 0.55417-0.57842 1.5089-0.80136 1.7514-0.40898 0.06064 0.09812 0.23407 0.86904 0.38541 1.7132 0.51446 2.8695 0.51819 2.9914 0.10423 3.4054-0.20954 0.20954-0.4691 0.38099-0.57678 0.38099s-0.19579 0.0881-0.19579 0.19579c0 0.26046 0.37428 0.23212 2.3495-0.1779zm6.324 0.0571c0.80555-0.407 1.5077-1.0505 1.5077-1.3818 0-0.3485-0.09044-0.33188-0.98014 0.18016-1.2308 0.70835-1.2834 0.56882-1.2127-3.2195l0.03909-2.0945 1.0125-0.05917c1.4115-0.0825 1.4466-0.48232 0.05753-0.65587l-1.106-0.13818 0.04053-1.982c0.05064-2.4761 0.05114-2.4715-0.27125-2.4715-0.18482 0-0.30746 0.39839-0.39966 1.2983-0.1835 1.7911-0.53569 2.5435-1.3787 2.9455-0.85051 0.40558-0.89274 0.77248-0.10872 0.94468l0.58737 0.12901v5.6769l0.57231 0.57231c0.66245 0.66245 0.79435 0.68302 1.6401 0.25572z"/></svg>
