<svg width="100" height="100" version="1.1" viewBox="0 0 100 100" xml:space="preserve" xmlns="http://www.w3.org/2000/svg"><path d="m35.738 87.488c-8.7852-8.0068-13.853-12.899-13.853-13.373 0-0.72347 0.90038-0.74724 28.31-0.74724 26.697 0 28.31 0.03975 28.309 0.6978-2e-3 0.78478-27.202 25.749-28.255 25.933-0.39956 0.0697-6.0964-4.842-14.511-12.511zm-13.269-1.2878c-7.1647-4.2233-12.8-7.794-12.87-8.1548-0.15334-0.79198 5.7788-4.392 6.5315-3.9637 0.2736 0.15568 4.9196 4.294 10.324 9.1963 9.1912 8.3366 10.534 9.8443 9.1722 10.298-0.2271 0.0756-6.1484-3.2434-13.158-7.3755zm41.832 6.9185c-0.12346-0.32173-0.16268-0.73782-0.08717-0.92466 0.07552-0.18683 4.1745-3.9892 9.1089-8.4498 4.9344-4.4606 9.4544-8.5536 10.044-9.0957l1.0728-0.98558 3.2334 1.8956c2.0253 1.1873 3.1888 2.1123 3.114 2.4756-0.10599 0.51486-25.173 15.644-25.95 15.662-0.17137 4e-3 -0.41258-0.25599-0.53604-0.57772zm-57.355-19.053c-0.088533-0.27414-0.35357-6.2403-0.58898-13.258-0.2354-7.0178-0.53771-14.778-0.6718-17.246-0.23573-4.3374-0.21672-4.4858 0.57462-4.4858 0.45013 0 0.91258 0.31401 1.0277 0.6978 0.78466 2.6168 6.6452 30.569 6.4926 30.966-0.21284 0.55464-5.5407 3.8237-6.2319 3.8237-0.24267 0-0.51366-0.22429-0.6022-0.49842zm82.432-1.2035c-2.3159-1.3547-2.886-1.878-2.8909-2.654-0.0061-0.98022 6.3016-30.283 6.6372-30.833 0.10032-0.16448 0.44097-0.29906 0.75699-0.29906 0.71606 0 0.7315 1.7371 0.16659 18.741-0.48029 14.457-0.66048 16.75-1.3154 16.74-0.25835-4e-3 -1.7679-0.76657-3.3545-1.6946zm-69.885-3.5965c0-0.61883 29.305-52.47 30.124-53.299 0.37144-0.37634 0.71004-0.44444 0.96118-0.1933 0.91103 0.91104 30.315 53.294 30.106 53.632-0.14039 0.22716-12.183 0.3737-30.711 0.3737-24.595 0-30.48-0.09915-30.48-0.51348zm39.934-8.2689c3.3872-0.94081 5.4068-5.0996 5.0305-10.359-0.44723-6.2506-4.5736-9.7652-9.1971-7.8333-3.1881 1.3321-4.9331 5.2103-4.5769 10.172 0.29015 4.0419 2.0927 6.9687 4.895 7.9479 1.5651 0.54693 2.1027 0.557 3.8484 0.07211zm-3.5742-4.5707c-1.4529-1.8471-1.5628-6.4462-0.2169-9.076 0.78508-1.534 3.0074-1.5637 3.997-0.05343 0.7345 1.121 0.99276 5.797 0.43085 7.801-0.67098 2.3929-2.8363 3.076-4.2109 1.3285zm-6.5326 2.6868-0.12153-1.894-4.1316-0.19937c-4.6835-0.22601-4.6992-0.31931-0.45392-2.7022 3.946-2.2148 5.5587-4.8777 4.743-7.8317-0.4211-1.5251-2.6314-3.676-4.176-4.0636-3.9047-0.98001-8.1812 1.7481-8.2938 5.2908l-0.04867 1.5312h1.7509c1.1662 0 1.8442-0.19972 2.0305-0.59811 0.9174-1.9623 1.1605-2.2007 2.3657-2.32 2.6264-0.26002 3.3274 2.0032 1.13 3.6482-0.71275 0.53354-1.8886 1.2699-2.613 1.6365-2.4619 1.2456-4.345 3.5352-4.8823 5.9359-0.79375 3.5468-0.9539 3.4604 6.4081 3.4604h6.4142zm-33.568 4.6112c-2.5005-9.015-9.8895-40.684-9.5676-41.006 0.33828-0.33828 37.841-8.3516 39.126-8.3603 0.27413-0.0018 0.49842 0.32941 0.49842 0.73616 0 1.0992-28.151 50.478-28.861 50.624-0.43318 0.08919-0.77839-0.48601-1.1966-1.9937zm66.586 1.1706c-0.78337-1.2267-26.666-46.817-27.53-48.493-0.45243-0.87705-0.55668-1.4772-0.30101-1.7328 0.40362-0.40362 39.046 7.3943 39.653 8.002 0.29356 0.29357-9.2552 40.353-10.065 42.224-0.21352 0.49344-0.56737 0.89717-0.78632 0.89717-0.21895 0-0.65591-0.40372-0.97102-0.89717zm-65.537-48.017c-1.5259-0.60351 0.45814-1.8033 15.05-9.1013 8.5519-4.277 15.719-7.7764 15.926-7.7764 0.38537 0 0.78851 9.5436 0.42418 10.042-0.10965 0.14992-6.8384 1.7242-14.953 3.4983-8.1143 1.7742-15.023 3.2953-15.351 3.3803-0.32896 0.08501-0.8224 0.06585-1.0965-0.04258zm51.088-3.1072c-8.1421-1.8041-15.095-3.392-15.451-3.5286-0.91816-0.35233-0.97378-9.7429-0.059775-10.094 0.327-0.12548 7.3547 3.2213 15.85 7.548 11.4 5.8061 15.262 7.9519 15.262 8.4786 0 0.38782-0.17943 0.74355-0.39874 0.7905-0.21931 0.04696-7.0605-1.3907-15.203-3.1949z"/></svg>
