<svg width="100" height="100" version="1.1" viewBox="0 0 100 100" xmlns="http://www.w3.org/2000/svg"><path d="m99.892 4.7206e-4c-0.018165 8.618e-4 -0.18041 0.046739-0.20795 0.050544-0.38532 0.071701-1.1284 0.25745-2.1277 0.52569-0.27981 0.075738-0.45753 0.11949-0.77347 0.20724-5.1323 1.409-14.634 4.2736-14.955 4.5947-0.11401 0.11398 1.6796 1.2197 3.9865 2.4566l1.5343 0.81886 0.30685 0.32855-65.387 65.165-1.9121-0.040437-5.4143-0.11121-14.942 14.982 8.9875 2.0648 2.0719 8.9569 15.033-14.891-0.11159-5.3959-0.04057-1.9056 65.256-65.034 0.45394 0.48525 0.5503 1.0716c1.2059 2.3378 2.2532 4.1906 2.3255 4.1145 0.28176-0.29644 5.5843-18.152 5.4726-18.427-0.0035-0.0086698-0.02167-0.011775-0.05833-0.010093-0.0028-0.007117-0.01801-0.009058-0.04818-0.0076346z"/></svg>
