<svg width="100" height="100" version="1.1" viewBox="0 0 100 100" xmlns="http://www.w3.org/2000/svg"><path d="m63.576 0.011719c-8.595 0.22901-16.755 3.6732-22.818 9.7305-6.9224 6.9298-10.431 16.597-9.6289 26.523 6.7163-1.4803 13.578-0.58714 19.389 2.5234 0.34731-0.75691 0.84753-1.4686 1.4707-2.0918l15.725-15.725c0.62467-0.62469 1.3389-1.119 2.0977-1.4609-3.1151-5.8132-4.0106-12.678-2.5293-19.398-1.2408-0.10028-2.4772-0.13428-3.7051-0.10156zm12.584 19.826c-1.0237 0-2.0471 0.39083-2.8281 1.1719l-0.15234 0.15234c-1.1427-0.49291-2.7933-0.034856-4.0527 1.2246l-15.725 15.725c-1.2594 1.2595-1.7175 2.91-1.2246 4.0527l-51.006 51.008c-0.023393 0.023394-0.025432 0.037974-0.046875 0.060547a4 4.0001 0 0 0-1.125 2.7676 4 4.0001 0 0 0 4 4 4 4.0001 0 0 0 2.7676-1.125c0.022572-0.021443 0.037154-0.023481 0.060547-0.046875l51.006-51.006c1.1427 0.49291 2.7933 0.032903 4.0527-1.2266l15.725-15.725c1.2594-1.2595 1.7175-2.91 1.2246-4.0527l0.15234-0.15234c1.5621-1.5621 1.5621-4.0942 0-5.6562-0.78103-0.78105-1.8045-1.1719-2.8281-1.1719zm4.3262 10.35c-0.34192 0.7588-0.83627 1.473-1.4609 2.0977l-15.725 15.727c-0.61995 0.61996-1.3276 1.1177-2.0801 1.4648 3.1226 5.8085 4.0275 12.673 2.5547 19.395 9.912 0.78926 19.561-2.7194 26.48-9.6309 6.9235-6.9293 10.432-16.596 9.6309-26.523-6.7215 1.4821-13.587 0.58652-19.4-2.5293z"/></svg>
