<svg width="100" height="100" version="1.1" viewBox="0 0 100 100" xmlns="http://www.w3.org/2000/svg"><path d="m0.068359 0c-0.043706-0.0015371-0.068359 0.015966-0.068359 0.054688 0 0.69637 3.4928 5.4011 5.7793 7.7852 0.6576 0.68563 1.3432 1.3315 2.0488 1.9512l7.0605 61.41 1.4727-1.4805 1.3145-0.53125-6.5352-56.854c5.1583 3.4547 11.488 5.5414 19.447 6.4434 6.0534 0.68598 10.21 2.0202 14.299 4.5918 1.0501 0.66038 2.2263 1.6255 3.3359 2.6719 0.26197-0.37393 0.56236-0.73228 0.90234-1.0723l3.1309-3.1309c0.48474-0.48469 1.0264-0.88254 1.5977-1.2129-3.392-3.162-6.3903-5.3434-9.7246-6.9961-3.7731-1.8702-5.9593-2.3664-11.695-2.6562-5.0893-0.25715-9.2511-0.77702-12.73-1.5918-7.252-1.698-13.622-4.7118-18.842-8.916-0.35503-0.28592-0.66185-0.46219-0.79297-0.4668zm84.557 15.357c-0.72037 0.03433-11.213 3.1454-11.482 3.416-0.07228 0.072498 1.0648 0.77573 2.5273 1.5625l0.97266 0.52148-6.666 6.666 2.8281 2.8281 6.5645-6.5645 0.34961 0.68164c0.76448 1.4871 1.4288 2.6656 1.4746 2.6172 0.17862-0.18857 3.5396-11.548 3.4688-11.723-0.0022-0.0055-0.013869-0.006959-0.037109-0.005859zm-26.633 8.1543c-1.0983 0.0038-2.1349 0.38304-2.9082 1.1562l-3.1309 3.1309c-1.7674 1.7674-1.4763 4.9046 0.65234 7.0332l12.373 12.371c2.1286 2.1286 5.2639 2.4198 7.0312 0.65234l3.1309-3.1309c1.7674-1.7674 1.4763-4.9027-0.65234-7.0312l-12.371-12.373c-1.1974-1.1974-2.7129-1.8135-4.125-1.8086zm-3.1836 19.18-29.967 29.967-1.4727-0.03125-4.1699-0.085937-11.508 11.578 6.9219 1.5957 1.5957 6.9219 11.578-11.508-0.085937-4.1699-0.03125-1.4727 29.967-29.967-2.8281-2.8281zm24.393 3.2695c-0.33094 0.56268-0.73801 1.0974-1.2324 1.5918l-3.1309 3.1309c-0.33704 0.33705-0.69203 0.63419-1.0625 0.89453 1.1171 1.1672 2.1547 2.4239 2.8535 3.5352 2.5716 4.0892 3.9058 8.2453 4.5918 14.299 0.902 7.9597 2.9886 14.289 6.4434 19.447l-56.414-6.4844-0.64258 1.5918-1.2207 1.2129 60.822 6.9922c0.61962 0.70565 1.2655 1.3912 1.9512 2.0488 2.384 2.2865 7.0888 5.7793 7.7852 5.7793 0.15489 0-0.03088-0.38796-0.41211-0.86133-4.2042-5.2203-7.218-11.59-8.916-18.842-0.81478-3.4799-1.3346-7.6417-1.5918-12.73-0.28984-5.7363-0.7861-7.9225-2.6562-11.695-1.6828-3.3951-3.9094-6.4406-7.168-9.9102z"/></svg>
