<svg width="100" height="100" version="1.1" viewBox="0 0 100 100" xml:space="preserve" xmlns="http://www.w3.org/2000/svg"><path d="m94.249 5.7496c-4.9704-4.9705-10.867-7.1313-13.171-4.8271 0 0-0.22207 0.24271-0.6726 0.73744-0.43322 0.47576-4.5831-2.2476-5.9616-0.8806-1.4081 1.4081 1.5446 5.7174 1.1021 6.202-0.44249 0.48466-3.0986 3.3918-3.5413 3.8763-0.44266 0.4845-4.1721-2.0318-5.4254-0.79011-1.2801 1.2801 1.4433 5.1515 1.0008 5.6361-0.44251 0.48464-1.6869 1.849-1.6869 1.849s-1.8498 2.0302-2.3001 2.5216c-0.4364 0.47626-3.7515-1.8389-4.8797-0.71988-1.1521 1.1521 1.3747 4.6169 0.91706 5.0878-0.457 0.47015-3.8587 4.1964-3.8587 4.1964s-4.0267 4.4107-4.5434 4.9595c-0.52634 0.559-2.0859-0.33782-2.5878 0.15667-0.51204 0.51205 0.53301 2.1454 0.12291 2.5945-0.49902 0.54653-3.4364 3.7382-8.1752 8.9181-4.7388 5.18-13.827 14.493-20.244 22.173-5.127 6.136-14.558 19.067-14.558 19.067a2.6224 2.6224 0 0 0-3.6385 0.05402 2.6224 2.6224 0 0 0-0.00135 3.7075l0.060777 0.06078-0.6726 0.71853c-1.0241 1.0241-1.5343 2.3666-1.5343 3.7088 0 1.3422 0.5102 2.6847 1.5343 3.7088 1.0241 1.0241 2.3665 1.5343 3.7088 1.5343 1.3422 0 2.6847-0.51021 3.7088-1.5343l0.71852-0.67261 0.06078 0.06078a2.6224 2.6224 0 0 0 3.7074-0.0014 2.6224 2.6224 0 0 0 0.05942-3.644s12.927-9.4276 19.061-14.553c7.6801-6.417 16.999-15.5 22.173-20.244 5.1742-4.7448 8.3778-7.7201 8.8978-8.1956 0.552-0.50486 2.1027 0.65522 2.6148 0.14317 0.4988-0.50033-0.42064-2.0721 0.12831-2.6162 0.49342-0.48886 4.9878-4.5151 4.9878-4.5151s3.6783-3.4496 4.1626-3.8925c0.48428-0.44287 3.9707 2.1016 5.1228 0.94949 1.1228-1.1273-1.2487-4.4923-0.76444-4.9352 0.48428-0.44287 2.5162-2.2947 2.5162-2.2947s1.3607-1.2454 1.8449-1.6883c0.48428-0.44287 4.4086 2.3336 5.6888 1.0535 1.2481-1.2511-1.3311-5.0412-0.85628-5.4754 0.43593-0.39873 3.3987-3.1079 3.883-3.5508 0.48428-0.44286 4.8533 2.5697 6.2614 1.1615 1.3733-1.3764-1.4176-5.5904-0.93326-6.0332 0.48428-0.44286 0.79145-0.59968 0.79145-0.59968 2.3042-2.3042 0.14198-8.2022-4.8284-13.173z"/></svg>