<svg width="100" height="100" version="1.1" viewBox="0 0 100 100" xmlns="http://www.w3.org/2000/svg"><path transform="rotate(45)" d="m0.048337-0.048337c-0.031992 0.029818-0.037048 0.059627-0.0096675 0.087007 0.49241 0.49241 6.2889 1.3493 9.5915 1.4184 0.9498 0.01982 1.8913-0.0083132 2.8284-0.069053l45.253 35.92v-3.8283l-41.112-32.635c6.0903-1.2046 12.042-4.2051 18.307-9.1952 4.7654-3.7953 8.648-5.7909 13.358-6.8639 1.7572-0.40036 4.1525-0.55152 6.2977-0.46956h6.1485v-7.8831h-5.9386l-0.25135 0.002762c-5.5876 0.053104-9.6812 0.65024-13.679 1.9984-3.9904 1.3455-5.8872 2.5406-10.148 6.3916-3.7805 3.4168-7.0909 5.9921-10.127 7.8762-6.3286 3.9273-12.964 6.3003-19.628 7.0186-0.45322 0.048868-0.79481 0.14118-0.89079 0.23064zm70.65-48.931c-0.4851 0.53365-5.7049 10.153-5.7038 10.535 1.54e-4 0.10237 1.3015-0.20444 2.892-0.68225l1.0565-0.31903v4.6873h3.9996v-4.5437l0.7292 0.23478c1.5921 0.51097 2.8952 0.87453 2.8933 0.80792-0.007036-0.25964-5.6625-10.668-5.8364-10.742-0.005445-0.002334-0.014728 0.004886-0.030383 0.022097zm-5.11 19.097c-0.54225 0.54225-0.87698 1.2917-0.87698 2.1227v42.567c-1.7282 0.44237-2.9997 1.9998-2.9997 3.8698v33.356c0 2.216 1.7836 3.9996 3.9996 3.9996h9.9989c2.216 0 3.9996-1.7836 3.9996-3.9996v-33.356c0-1.8699-1.2714-3.4274-2.9997-3.8698v-42.567c0-1.662-1.3377-2.9997-2.9997-2.9997h-5.9994c-0.831 0-1.5805 0.33473-2.1227 0.87698zm15.123 6.3142v7.8887h5.8778c2.2092-0.10712 4.7373 0.048512 6.567 0.46542 4.7099 1.0731 8.5921 3.0685 13.358 6.8639 6.2662 4.9905 12.217 7.9908 18.307 9.1952l-41.112 32.635v3.8283l45.253-35.92c0.93711 0.06083 1.8786 0.088923 2.8284 0.069053 3.3025-0.068943 9.0991-0.92593 9.5915-1.4184 0.10952-0.10952-0.29617-0.25249-0.90046-0.31765-6.6641-0.71849-13.299-3.0913-19.628-7.0186-3.0368-1.8845-6.3472-4.4598-10.127-7.8762-4.2611-3.8512-6.1579-5.0462-10.148-6.3916-3.9982-1.3482-8.0918-1.9454-13.679-1.9984l-0.51652-0.005524-5.672 0.001381z"/></svg>
