<svg width="100" height="100" version="1.1" viewBox="0 0 100 100" xml:space="preserve" xmlns="http://www.w3.org/2000/svg"><path d="m90 10s-11.589 6.8654-16.912 10.965c-8.1565 6.282-15.129 13.969-22.864 20.764-3.406 2.992-6.7443 6.0792-10.365 8.8069-2.2539 1.6978-7.0494 4.6891-7.0494 4.6891l-0.12714 5.9067-7.6283-7.6283a4.3321 4.3321 0 0 0-6.1265 0 4.3321 4.3321 0 0 0 0 6.1265l7.6582 7.6582-15.316 15.316a4.3321 4.3321 0 0 0 0 6.1265 4.3321 4.3321 0 0 0 6.1265 0l15.316-15.316 7.6582 7.6582a4.3321 4.3321 0 0 0 6.1265 0 4.3321 4.3321 0 0 0 0-6.1265l-7.7165-7.7165 5.9964-0.04039s2.9899-4.7942 4.6876-7.0479c2.7278-3.6212 5.8148-6.9593 8.8069-10.365 6.7945-7.7348 14.482-14.707 20.764-22.864 4.0997-5.3231 10.965-16.912 10.965-16.912z"/></svg>