<svg width="100" height="100" version="1.1" viewBox="0 0 100 100" xml:space="preserve" xmlns="http://www.w3.org/2000/svg"><path d="m95.454 2.9144a1.5697 1.5697 0 0 0-2.2187-1e-6l-0.38357 0.38357-0.20495-0.20495-1.0661-1.0661s-0.77742-0.63269-1.2316-0.8292c-0.49066-0.2123-1.5625-0.35537-1.5625-0.35537l-12.109-0.84236-3.3732 5.2309s1.4006 1.483 1.8051 2.3992c0.296 0.6705 0.51799 1.438 0.40614 2.1623-0.08775 0.56821-0.42238 1.1002-0.81604 1.5193-0.64918 0.69105-1.5477 1.1181-2.4161 1.4986-0.70503 0.30889-1.4707 0.46202-2.2244 0.61861-0.66122 0.13738-2.0062 0.28016-2.0062 0.28016s-3.0719 8.5293-3.8696 12.97c-0.11676 0.64999-0.16995 1.3188-0.13162 1.978 0.02433 0.41854 0.03879 0.86096 0.22751 1.2353 0.0052 0.01021 0.01529 0.02161 0.02068 0.03197l-9.4258 9.4258a4.0844 4.0844 0 0 0-1.1714 3.0968l-46.001 46.001-7.7016 5.7762v5.7762h5.7762l5.7762-7.7016 46.001-46.001a4.0844 4.0844 0 0 0 3.0968-1.1714l9.4258-9.4258c0.01035 0.0054 0.02169 0.01551 0.03197 0.02068 0.37437 0.18872 0.81679 0.20318 1.2353 0.22751 0.65928 0.03833 1.328-0.01485 1.978-0.13162 4.4407-0.79773 12.97-3.8696 12.97-3.8696s0.14278-1.345 0.28016-2.0062c0.15658-0.75363 0.30971-1.5193 0.6186-2.2244 0.38049-0.86846 0.80752-1.767 1.4986-2.4161 0.41905-0.39365 0.95105-0.72829 1.5193-0.81604 0.72434-0.11186 1.4918 0.11014 2.1623 0.40614 0.91622 0.40446 2.3992 1.8051 2.3992 1.8051l5.2309-3.3732-0.24068-3.4597-0.48134-6.9194-0.12034-1.7298s-0.14307-1.0718-0.35537-1.5625c-0.19651-0.45415-0.8292-1.2316-0.8292-1.2316l-1.2711-1.2711 0.38357-0.38357a1.5697 1.5697 0 0 0 0-2.2187l-0.81603-0.81603z"/></svg>