<svg width="100" height="100" version="1.1" viewBox="0 0 100 100" xmlns="http://www.w3.org/2000/svg"><path d="m100 0-30.777 30.65c1.3941 0.25218 2.6921 0.91848 3.707 1.9336 2.7078 2.7084 2.7078 7.19 0 9.8984l-15.227 15.227a16 30 45 0 1-3.834 19.477c2.1663-1.3949 4.5431-2.9704 6.1797-4.2324 3.6982-2.8519 6.9642-5.8681 10.795-9.6777 3.8307-3.8097 8.6204-8.6061 12.035-13.275 3.4148-4.6692 5.6924-8.5511 8.4355-14.516 2.7431-5.9646 6.1574-15.343 7.4453-21.34 1.2879-5.9964 1.2402-14.145 1.2402-14.145zm-32.021 33.533a4 4 0 0 0-2.8281 1.1719l-65.15 65.15v0.14453h11.168l59.639-59.639a4 4 0 0 0 0-5.6562 4 4 0 0 0-2.8281-1.1719z"/></svg>
