<svg width="100" height="100" version="1.1" viewBox="0 0 100 100" xmlns="http://www.w3.org/2000/svg"><path d="m95.481 4.5-12.209 4.0702-5.7185 8.5508c0.26613 0.1975 0.52421 0.40884 0.76443 0.64903l3.8925 3.8923c0.23974 0.23973 0.44991 0.49882 0.64712 0.76438l8.5553-5.7182zm-60.323 14.257c-2.8459-0.03183-5.5133 0.90711-7.48 2.8737l19.674 19.672 8.1389-8.1403-9.5856-9.585c-3.1334-3.1332-7.0879-4.7799-10.747-4.8208zm38.206 0.96378c-0.76852 0-1.5368 0.29339-2.1232 0.87972-0.8237 0.83045-1.0915 2.0647-0.68427 3.1611l-70.556 70.348 0.0058652 5.8824 5.8789 0.0078 70.335-70.577c1.0965 0.40724 2.3289 0.14137 3.1594-0.68227 1.1727-1.1727 1.1727-3.0754 0-4.2481l-3.8925-3.8923c-0.58636-0.58632-1.3547-0.87972-2.1232-0.87972zm1.2903 16.93-23.815 23.813c6.5914 8.8236 7.8139 19.149 2.3617 24.601-0.08761 0.0876-0.18166 0.16607-0.27175 0.25023 12.384 1.9435 25.41-2.4797 34.767-11.808 9.3579-9.3587 13.801-22.408 11.853-34.811-0.09774 0.10583-0.19278 0.21427-0.29521 0.3167-5.4522 5.4518-15.776 4.2295-24.6-2.3616z"/></svg>
