<svg width="100" height="100" version="1.1" viewBox="0 0 100 100" xmlns="http://www.w3.org/2000/svg"><path d="m54.499 0.0052177c-0.75699 0.040141-1.4478 0.31111-1.9668 0.83007l-19.984 19.986c-1.3839 1.3839-1.0132 3.9828 0.83201 5.828l6.662 6.662c1.8453 1.8453 4.4441 2.2159 5.828 0.83202l3.7089 3.7089 19.984-19.986-3.707-3.707c1.3839-1.3839 1.0113-3.9828-0.83397-5.828l-6.66-6.662c-1.1533-1.1533-2.6016-1.7309-3.8632-1.664zm21.349 18.256a5.8899 5.8899 0 0 0-4.1542 1.7363l-0.0098-0.0098-69.958 69.96 0.00977 0.0098a5.8899 5.8899 0 0 0-1.7363 4.1542 5.8899 5.8899 0 0 0 5.8886 5.8886 5.8899 5.8899 0 0 0 4.1542-1.7363l0.0098 0.0098 69.96-69.958-0.0098-0.0098a5.8899 5.8899 0 0 0 1.7343-4.1542 5.8899 5.8899 0 0 0-5.8886-5.8905zm6.285 12.176-19.986 19.984 3.7089 3.7089c-1.3839 1.3839-1.0132 3.9828 0.83201 5.828l6.662 6.662c1.8453 1.8453 4.4441 2.2159 5.828 0.83202l19.986-19.984c1.3839-1.3839 1.0113-3.9847-0.83397-5.83l-6.662-6.6601c-1.8453-1.8453-4.4441-2.2179-5.828-0.83397z"/></svg>
