<svg width="100" height="100" version="1.1" viewBox="0 0 100 100" xml:space="preserve" xmlns="http://www.w3.org/2000/svg"><path d="m80.011 19.989a5.8881 5.8881 0 0 0-8.327 0l-5.8289-5.8289c1.3839-1.3839 1.0126-3.9836-0.8327-5.8289l-6.6616-6.6616c-1.8453-1.8453-4.445-2.2166-5.8289-0.8327l-19.985 19.985c-1.3839 1.3839-1.0126 3.9836 0.8327 5.8289l6.6616 6.6616c1.8453 1.8453 4.445 2.2166 5.8289 0.8327l5.8289 5.8289-49.975 49.975a5.8881 5.8881 0 0 0 0 8.327 5.8881 5.8881 0 0 0 8.327 0l49.975-49.975 5.8289 5.8289c-1.3839 1.3839-1.0126 3.9836 0.8327 5.8289l6.6616 6.6616c1.8453 1.8453 4.445 2.2166 5.8289 0.8327l19.985-19.985c1.3839-1.3839 1.0126-3.9836-0.8327-5.8289l-6.6616-6.6616c-1.8453-1.8453-4.445-2.2166-5.8289-0.8327l-5.8289-5.8289a5.8881 5.8881 0 0 0 0-8.327z" stroke-linecap="round" stroke-width="8"/></svg>
