<svg width="100" height="100" version="1.1" viewBox="0 0 100 100" xmlns="http://www.w3.org/2000/svg"><path class="fil0" d="m61.023 6.0944c-0.69702-0.23671-1.5091-0.019936-2.0576 0.55461l-10.121 11.42c-0.77754 0.91696-1.6015 1.9861-0.16447 3.2514l15.656 13.871c2.1622 2.1475 7.8992 14.302 10.293 19.49 0.58684 1.3349 1.206 2.0184 2.6493 1.6354 8.8771-3.5515 20.553-16.807 22.713-26.046 0.07893-0.80092-0.34325-1.59-1.0551-1.9731l-21.46-7.893-15.808-13.92c-0.19282-0.18283-0.41198-0.3122-0.64432-0.39111zm-14.621 19.872c-4.3578 5.302-44.424 54.053-44.42 54.318-6.7736 9.1464 5.4533 18.502 12.069 10.957l45.822-53.338z"/></svg>
