<svg width="100" height="100" version="1.1" viewBox="0 0 100 100" xml:space="preserve" xmlns="http://www.w3.org/2000/svg"><path d="m100 0-38.035 34.277-19.02 17.139-19.018 17.139s-0.30758 0.17822-0.46484 0.021484c-0.33186-0.33074-1.0796-0.52324-1.6055-0.41406-0.25676 0.053292-1.8669 0.11468-3.5762 0.13867-3.1644 0.044414-5.1013-0.13474-6.5586-0.60742-0.44731-0.14509-1.0571-0.25445-1.3555-0.24414l-0.54297 0.017578 4.498 4.4824 4.2969 4.2832-16.227 18.141-0.43555 1.1895c-0.23939 0.65419-0.77674 1.891-1.1953 2.748-0.41856 0.85701-0.7617 1.614-0.76172 1.6816 7.0236e-6 0.067632 0.75217-0.27342 1.6719-0.75781 0.9197-0.48439 2.1771-1.0987 2.793-1.3633l1.1191-0.48047 18.109-15.996 4.2227 4.1562h0.001953c4.1348 4.0684 4.4325 4.3375 4.5742 4.1289 0.085041-0.12516-0.016986-0.78078-0.23242-1.4922-0.59131-1.9526-0.77351-4.1821-0.62891-7.6992 0.14519-3.5315 0.14046-3.6321-0.18555-3.957-0.17069-0.17012-0.20508-0.41406-0.20508-0.41406l17.191-19.029 51.568-57.088z"/></svg>