<svg width="100" height="100" version="1.1" viewBox="0 0 100 100" xmlns="http://www.w3.org/2000/svg"><path d="m77.027 0-3.625 7.5215a20 20 0 0 0-0.90234-0.021484 20 20 0 0 0-6.7461 1.2246l-5.7227-6.1387 1.4785 8.2227a20 20 0 0 0-5.5254 5.4668l-8.1875-1.5879 6.0293 5.791a20 20 0 0 0-1.3262 7.0215 20 20 0 0 0 0.046875 0.65039l-7.5469 3.5332 8.2402 1.1289a20 20 0 0 0 13.709 13.895l1.0234 8.293 3.6465-7.5625a20 20 0 0 0 0.88086 0.0625 20 20 0 0 0 6.7461-1.2246l5.7227 6.1387-1.4785-8.2227a20 20 0 0 0 5.5254-5.4668l8.1875 1.5879-6.0293-5.791a20 20 0 0 0 1.3262-7.0215 20 20 0 0 0-0.015625-0.66406l7.5156-3.5195-8.2246-1.127a20 20 0 0 0-3.5059-6.9824l4.0234-7.2891-7.334 3.9434a20 20 0 0 0-6.9082-3.5703l-1.0234-8.291zm-25.213 41.115-50.35 50.35 0.0078124 0.007812a5 5 0 0 0-1.4727 3.5273 5 5 0 0 0 5 5 5 5 0 0 0 3.5273-1.4727l0.0078124 0.007812 50.35-50.35c-2.8196-1.8561-5.2206-4.2485-7.0703-7.0703z"/></svg>
