<svg width="100" height="100" version="1.1" viewBox="0 0 100 100" xml:space="preserve" xmlns="http://www.w3.org/2000/svg"><path d="m78.945 0.0055544c-0.078 0.027503-0.15533 0.15884-0.25355 0.398-0.13598 0.33107-0.90773 1.0014-1.7163 1.4908-1.5326 0.92747-2.1078 1.4796-3.4564 3.3297-1.35 1.8521-1.7735 2.0547-3.3355 1.5912-2.1026-0.62379-3.6965-0.59354-3.5764 0.067002 0.10752 0.59104-0.33417 1.2802-2.1145 3.2928-1.1634 1.3152-1.2424 1.3499-2.2994 1.0262-1.6057-0.49171-1.9467-0.32857-3.1807 1.51l-1.1174 1.6675-1.1962-0.58886c-1.5725-0.77216-1.9948-0.22805-1.1003 1.4134 0.61752 1.1332 0.61135 1.2406-0.1095 2.0653-0.4182 0.47844-0.73065 1.0352-1.0119 1.7157-0.28125 0.68043-0.42871 1.1683-0.37132 1.4837 0.16678 0.91678-1.0437 2.1858-2.5897 2.7147-0.78514 0.26861-1.8168 0.79144-2.2947 1.1598-0.4779 0.36831-1.326 0.75208-2.3155 1.5377-0.98948 0.78558-1.6841 2.1785-2.3873 3.424-0.70323 1.2455-1.3022 2.6287-1.3317 3.0739-0.03454 0.52109-0.36938 0.93337-0.93756 1.1583-0.4854 0.19214-1.5637 1.2899-1.5637 1.2899l-13.547 14.6-6.7767 7.3012-6.7747 7.3011-2.3288-2.1598s-0.03064 0.68748 0.06816 1.4943c0.09882 0.80686 0.82966 2.2101 0.82966 2.2101l-2.1102 2.2709-4.2163 4.5456-2.1121 2.2749c-0.4303-0.3982-1.0012-0.60928-1.5873-0.58718-0.14447 0.0054-0.28846 0.02358-0.42914 0.05689-0.42598 0.10125-0.81125 0.32671-1.1091 0.64739-0.83159 0.89562-0.7797 2.2968 0.1172 3.1271l4.6058 4.2635c0.89605 0.82941 2.2945 0.77551 3.1255-0.1191 0.82975-0.89434 0.77851-2.2905-0.115-3.1211l2.1275-2.2914 2.1024-2.2666 4.2047-4.5372s1.3693 0.54377 2.1404 0.53593c0.77109-0.0079 1.4228-0.12352 1.4228-0.12352l-2.1301-1.9552 13.547-14.604 6.7748-7.2991 6.7747-7.3011s1.4735-1.5599 1.4496-1.699c-0.02396-0.13914 0.32163-0.31886 0.76844-0.40002 1.2944-0.23509 4.0605-2.1692 5.5187-3.8307 1.4583-1.6616 1.6072-3.0501 2.5491-5.3635 0.93836-2.3047 1.55-2.9876 2.897-3.2323 0.46906-0.08519 1.4451-0.64205 2.1683-1.2372l1.3154-1.0837 1.2067 0.4907c1.6069 0.64981 2.2462 0.01686 1.503-1.4853-0.27719-0.56023-0.50647-1.0333-0.50977-1.0519-0.0034-0.01854 0.66919-0.69135 1.4947-1.493 1.4124-1.3716 1.4782-1.5265 1.1275-2.6357-0.31538-0.99735-0.23608-1.373 0.52344-2.443 0.88924-1.2528 2.3556-1.8971 2.9112-1.2811 0.45722 0.50696 1.2476 0.15598 1.1282-0.50038-0.06217-0.3417 0.13996-0.95022 0.44974-1.3528 0.30978-0.40256 0.5119-1.0111 0.44974-1.3528-0.1209-0.66456 0.88925-0.97365 2.6384-0.80656 0.59791 0.057116 1.2021-0.18601 1.8561-0.74731 1.0053-0.86294 1.6807-0.87984 1.8327-0.044034 0.1166 0.64095 0.99936 0.46527 1.1298-0.22504 0.05616-0.29719 0.34869-0.58457 0.6503-0.63936 0.30162-0.054782 0.90894-0.47193 1.3509-0.92525 0.78551-0.80576 2.2682-1.0557 2.3871-0.40265 0.03048 0.16758 0.45263 0.40523 0.93857 0.528 0.51986 0.13134 0.84665 0.42718 0.79154 0.71873-0.05868 0.31053 0.13988 0.45438 0.53237 0.38453 0.34447-0.061308 1.1364 0.10666 1.7595 0.37362 0.62308 0.26696 1.4469 0.42992 1.8329 0.36107 0.88193-0.15731 1.5739 0.769 2.205 2.9584 0.52093 1.8071 0.15168 2.8789-1.0693 3.1006-0.30982 0.05626-0.54764 0.18454-0.52885 0.28788 0.05227 0.28733 3.5782 2.6349 3.8764 2.5807 0.30508-0.05541 0.44854 0.87778 0.46175 2.9913 8e-3 1.2685-0.09655 1.4935-0.66481 1.4241-2.2762-0.27778-2.2002-0.29307-1.8258 0.41299 0.2373 0.44757 0.17156 1.0447-0.20056 1.8011-0.30631 0.62258-0.42958 1.3435-0.27345 1.6001 0.33013 0.54257-0.24886 0.96797-1.6677 1.2257-0.55018 0.09994-1.3994 0.48971-1.8878 0.86616-0.79863 0.6155-1.0167 0.65028-2.1577 0.34076-0.69785-0.18931-1.4041-0.63584-1.5695-0.99091-0.28396-0.60959-0.34825-0.58-1.1454 0.52094-2.46 3.3973-2.9981 3.7132-4.9225 2.8999-0.46-0.19436-1.5058-0.27197-2.3273-0.17219-0.82146 0.09979-1.704 0.09891-1.9601-0.0014-0.25607-0.10033-1.3055-0.08168-2.3318 0.04151-1.4797 0.1776-1.8476 0.32887-1.7749 0.72851 0.05043 0.27718-0.14218 0.94347-0.42727 1.4817-0.28509 0.53824-0.46943 1.2453-0.41019 1.5709 0.14566 0.8007-0.64251 1.2494-2.7322 1.5502-1.2508 0.18008-1.9177 0.45458-2.3354 0.9676-0.71601 0.87938-3.6781 2.2789-4.579 2.1635-0.69335-0.08879-0.79546 0.80619-0.12231 1.0699 0.19263 0.07547 0.36056 0.65843 0.3726 1.2961 0.01207 0.6377 0.23505 1.4298 0.49654 1.7588 0.3877 0.4877 0.34349 0.7765-0.2406 1.569-0.39394 0.5345-1.2442 1.734-1.8889 2.6643-0.64472 0.93024-1.4732 1.7437-1.8409 1.8105-0.36766 0.06677-1.0077 0.57749-1.4235 1.1313-0.41584 0.55384-1.0525 1.0594-1.4138 1.125-0.77436 0.14064-0.76756 0.769 0.01011 0.91565 0.29746 0.0561 0.60305 0.42628 0.6794 0.82243 0.07634 0.39615 0.4848 1.0328 0.90768 1.4151 0.92382 0.83525 0.93049 1.8362 0.02054 3.1025-0.36813 0.5123-0.67716 1.4028-0.68732 1.9797-0.01172 0.66532-0.37936 1.3913-1.0046 1.9828-0.54209 0.51292-1.1053 1.3066-1.2537 1.764-0.20758 0.63998-0.56796 0.88384-1.5616 1.0643-1.4959 0.2717-1.5734 0.66834-0.2404 1.2317 0.76 0.32121 1.0217 1.5216 1.2289 2.6692-0.77084 0.0599-1.5362 0.18594-2.2861 0.37717l-5.3329-4.5634 0.28582 7.0406c-0.71291 0.55999-1.3679 1.1908-1.9542 1.8823l-7.2361-0.65137 4.5656 5.6838c-0.22787 0.77797-0.38512 1.575-0.46971 2.3812-8.12e-4 0.02954-0.0022 0.06036-0.0029 0.0899l-6.3083 3.6807 7.0164 1.9622c0.30262 0.82846 0.68656 1.6252 1.1449 2.3787l-2.8414 6.5371 6.6748-2.3883c0.80033 0.57018 1.6621 1.0519 2.567 1.435l1.5799 6.718 3.8986-5.7c0.99876-0.02744 1.9914-0.1658 2.9595-0.41266l5.3348 4.5633-0.28582-7.0406c0.71291-0.55999 1.3679-1.1908 1.9542-1.8823l7.2341 0.65144-4.5656-5.6838c0.22857-0.77784 0.38642-1.5751 0.4717-2.3813 0.0022-0.0301 0.0048-0.05992 0.0068-0.09005l6.3044-3.6806-7.0185-1.9641c-0.29546-0.83968-0.6733-1.6481-1.1282-2.4132l2.8267-6.5007-6.6473 2.3754c-0.81091-0.5727-1.6823-1.0547-2.599-1.4359 0 0-0.02156-0.05221-0.02401-0.05903l0.30696 0.04515c0.45272-0.64026 0.92587-1.3997 0.89779-1.554-0.02807-0.15434 0.5555-0.38956 1.297-0.52424 1.5677-0.28474 1.6183-0.5625 0.26107-1.44-0.60642-0.39208-1.054-1.0097-1.1617-1.6018-0.09639-0.52985-0.48299-1.2868-0.85912-1.6823-0.46886-0.49299-0.67167-1.063-0.64422-1.8155 0.02202-0.60364-0.05538-1.6137-0.17023-2.2451-0.11486-0.63141-0.08485-1.2558 0.06326-1.3892 0.1481-0.13332 0.21892-0.51932 0.15773-0.85565-0.07226-0.39719 0.19866-0.73609 0.77857-0.96713 0.49105-0.19564 1.1717-0.73081 1.5113-1.1883 0.33966-0.45747 0.84254-0.87316 1.1174-0.92308 0.62203-0.11298 0.9515-0.86768 0.47124-1.0801-0.19568-0.08656-0.60443-0.65905-0.90872-1.2734-0.472-0.95299-0.47126-1.3219 4e-6 -2.5145 0.30381-0.76885 0.52692-1.5315 0.49778-1.6917-0.11016-0.60554 1.1752-1.8399 2.1802-2.0957 0.57517-0.14641 1.6735-0.48112 2.4391-0.74173 1.3902-0.47326 1.391-0.47361 0.97377-1.6644-0.37786-1.0785-0.32843-1.2719 0.52864-2.0081 0.52109-0.44758 1.0478-1.2091 1.1704-1.6932 0.12257-0.48415 0.62837-1.1838 1.1233-1.5539 0.79637-0.59554 1.0271-0.63201 2.0083-0.33155 0.61232 0.1875 1.444 0.18459 1.8581-0.0031 0.41242-0.18683 0.8718-0.20263 1.0206-0.03764 0.49997 0.55438 1.3116 0.15901 0.97539-0.47509-0.39703-0.74884 0.11682-1.2964 1.5914-1.696 0.63878-0.17308 1.3934-0.49771 1.6754-0.72105 1.087-0.86117 2.477-0.78973 4.027 0.20663 3.0071 1.933 2.721 1.8715 3.5778 0.77312 4.0863-5.2384 6.3296-7.1442 7.5792-6.4411 0.31096 0.17496 1.2206 0.30652 2.0222 0.2946 0.80155-0.01185 1.7426 0.04417 2.092 0.12253 0.50017 0.11218 0.60733-0.02571 0.50216-0.65214-0.07351-0.4376 0.0348-1.1321 0.24158-1.5411 0.50886-1.0064 0.24378-2.1986-0.74085-3.3248-0.65341-0.74739-0.87009-1.3957-1.0707-3.2255-0.23834-2.1739-0.1989-2.3352 0.7675-3.1699 0.5603-0.48394 0.99188-1.0373 0.95705-1.2288-0.03483-0.19145 0.15469-0.38928 0.42182-0.4378 1.0791-0.19601 0.70879-0.96472-1.0244-2.1275-1.0059-0.67469-1.8492-1.3308-1.8732-1.4571-0.024063-0.12638-0.30936-0.77908-0.63555-1.4526-0.45861-0.94694-0.87456-1.2876-1.8367-1.4985-1.4253-0.31236-1.4862-0.43899-0.99769-2.1065 0.82844-2.8277 1.3193-2.3796-3.946-3.6-1.5376-0.35641-3.0008-0.082268-4.1067 0.77002-0.92381 0.71197-2.9741 0.91673-3.085 0.30728-0.033454-0.18391-0.58841-0.75476-1.2338-1.2661-0.64538-0.5113-1.2955-1.1178-1.4443-1.3485-0.10746-0.16664-0.18697-0.24176-0.26496-0.21426zm0.0214 2.7273c0.27065-0.02323 0.6254 0.095016 1.0331 0.37703 0.82043 0.5675 0.91911 1.2541 0.2649 1.8128-0.63624 0.5433-0.75251 0.57613-1.2437 0.33678-0.21013-0.1024-0.4724-0.67918-0.58364-1.2808-0.1422-0.76852 0.07824-1.2071 0.52932-1.2458zm7.706 0.79062c0.05202-1.646e-4 0.09625 0.011318 0.13097 0.03534 0.10009 0.069254 0.1126 0.30621 0.02635 0.52593-0.18983 0.48353-1.1054 0.69429-1.1821 0.27277-0.04657-0.25601 0.4709-0.68584 0.85013-0.80399 0.0632-0.019694 0.12258-0.029879 0.17459-0.030044zm3.9827 0.42371c0.14386-0.051026 0.2903 0.033724 0.51883 0.22535 0.84403 0.70775 0.44158 1.5008-0.88128 1.741-0.65465 0.1189-1.216 0.063203-1.2497-0.122-0.03369-0.18521 0.08351-0.36193 0.26167-0.39429 0.17816-0.032358 0.55399-0.41969 0.83622-0.85938 0.22663-0.35307 0.37043-0.53968 0.51428-0.5907zm-14.736 1.3068c0.13976-0.023673 0.25656-0.00131 0.33014 0.080272 0.14992 0.16623-0.05082 0.50822-0.44856 0.75804-0.96723 0.60751-1.2902 0.67145-1.1139 0.22249 0.19934-0.50776 0.81309-0.98978 1.2324-1.0608zm-6.6419 3.1036c0.20792-0.023735 0.46452 0.078438 0.7537 0.32092 0.66822 0.56032 0.37918 1.5419-0.50142 1.7018-0.6396 0.11617-0.7518-0.01602-0.782-0.90266-0.0235-0.68931 0.1832-1.0805 0.52972-1.1201zm24.393 1.2218c0.05468-0.021964 0.14121-0.016998 0.24432 0.0234 0.2062 0.080792 0.42341 0.48296 0.4842 0.89111 0.10656 0.71545 0.09622 0.71885-0.30118 0.12028-0.22671-0.34147-0.44583-0.74158-0.48612-0.88905-0.02015-0.073739 0.0041-0.12376 0.05879-0.14574zm-27.574 1.4856c0.38274-0.07587 0.47063 0.53829-0.02913 1.6235-0.3195 0.69376-0.50627 0.79985-0.95693 0.54629-0.47979-0.26995-0.47591-0.44862 0.03844-1.2426 0.38163-0.58913 0.71797-0.88162 0.94762-0.92713zm30.502 1.705c0.36022-0.06544 0.70167 1.3729 0.42134 1.7774-0.34525 0.49817-1.8732 0.57257-2.5923 0.12644-1.0649-0.66074-0.95247-0.96952 0.35847-0.99437 0.68523-0.01298 1.2364-0.19218 1.332-0.43566 0.08978-0.22872 0.306-0.44209 0.48044-0.47378zm-1.7437 10.079c0.25208 0.0032 0.45773 0.18992 0.52441 0.55643 0.15637 0.85955 0.79792 1.0837 1.3195 0.46282 0.34566-0.41144 0.44368-0.35445 0.56844 0.33138 0.24319 1.3368-0.45054 1.7523-2.3362 1.4027-1.0045-0.18624-1.4677-1.3603-0.87572-2.2145 0.2512-0.36247 0.54744-0.54203 0.79952-0.5388zm-9.6109 5.9293c0.18198-1.1e-5 0.33958 0.03341 0.44481 0.1062 0.13831 0.09567 0.08967 0.51918-0.10483 0.94161-0.25495 0.55357-0.22641 0.92619 0.1006 1.3376 0.40686 0.51183 0.35312 0.56806-0.53074 0.51944-0.5421-0.02982-1.1115-0.09874-1.2647-0.15141-0.43808-0.15061-0.58818-1.556-0.22247-2.0837 0.1757-0.25352 0.57514-0.46494 0.98373-0.57916 0.2043-0.05711 0.41164-0.09058 0.59362-0.09058zm-12.51 2.632c0.26204-0.02263 0.32296 0.14163 0.28966 0.5786-0.03054 0.40056 0.17324 0.92054 0.45352 1.1556 0.43391 0.36384 0.35182 0.45563-0.55318 0.62-0.67322 0.12228-1.1788 0.0074-1.3763-0.31715-0.41651-0.68453 0.01312-1.6682 0.8519-1.9535 0.13573-0.04619 0.24705-0.07608 0.3344-0.08352zm3.9332-0.02159c0.11622-0.02602 0.25466-0.02801 0.38516-0.0015 0.28843 0.05865 0.22249 0.15383-0.16722 0.24132-0.35266 0.07916-0.56615 0.03306-0.4745-0.09918 0.04583-0.06611 0.14033-0.11462 0.25656-0.14067zm-9.655 5.2384c0.08672 0.01821 0.14438 0.06691 0.15879 0.14612 0.08806 0.48409-0.9902 1.2931-1.3751 1.0319-0.25944-0.1761-0.24285-0.40699 0.05023-0.67628 0.25588-0.23511 0.57365-0.40411 0.83371-0.47414 0.13003-0.03503 0.24563-0.04578 0.33236-0.02757zm-4.2613 2.0007 0.39034 0.6609c0.21487 0.36295 0.74413 0.77405 1.1756 0.91287 0.62818 0.20212 0.72148 0.36186 0.47124 0.80575-0.41369 0.73383-1.7117 0.9427-2.4928 0.40235-0.83022-0.57427-0.85445-0.88994-0.14279-1.9168zm-5.8581 11.43c0.11464-0.02834 0.20317 0.07182 0.33332 0.28571 0.16177 0.26586 0.67585 0.41245 1.1451 0.32722 1.0277-0.18666 1.1694 0.24306 0.42712 1.3142-0.66404 0.95816-1.3017 1.1182-2.1408 0.53774-0.82511-0.57074-0.89921-1.1392-0.25466-1.9768 0.23384-0.30387 0.37528-0.45972 0.48992-0.48808zm-2.2882 12.606c0.10853-0.03236 0.22758 7.26e-4 0.35846 0.09126 0.22836 0.15794 0.8582 0.20733 1.401 0.10874 0.9675-0.17573 0.98595-0.15181 1.0157 1.2497 0.0237 1.1179-0.13444 2.135-0.37441 2.5954-0.35527-0.50339-0.80411-0.95104-1.3243-1.0573-0.66022-0.13492-1.473 0.29839-2.1248 0.76668l-0.09918 0.01743 0.28731-1.4888c0.28911-1.4997 0.53474-2.186 0.86035-2.2831z"/></svg>