<svg width="100" height="100" version="1.1" viewBox="0 0 100 100" xml:space="preserve" xmlns="http://www.w3.org/2000/svg"><path d="m3.8002 94.803-3.8002-5.1975 0.13574-1.1983c0.07465-0.65908 0.23435-1.2706 0.35488-1.3589 0.12053-0.088328 0.16727-0.2315 0.10386-0.31823-0.18393-0.25155 1.9564-4.0806 3.0486-5.4539 0.99019-1.2451 2.154-3.0068 3.1395-4.7526 1.7388-3.0802 2.4917-4.5411 2.8102-5.453 0.19817-0.56734 0.65313-1.5716 1.011-2.2318 0.55956-1.0321 0.82325-1.3211 1.8821-2.0627 1.1566-0.81009 1.263-0.94042 1.7522-2.1454 0.47652-1.1738 2.2469-4.1311 4.285-7.1576 1.4392-2.1372 2.3852-3.0444 5.7502-5.5142l3.1552-2.3158-0.58736-0.29258c-0.56434-0.2811-1.2259-1.1497-1.1668-1.5318 0.04352-0.28289-0.47502-0.91257-0.73499-0.89216-0.43855 0.03438-0.63312-0.53242-0.4562-1.3291 0.1945-0.87578 0.63862-1.314 1.332-1.3143 0.45432-1.79e-4 0.47657 0.03106 1.0892 1.5366 0.23257 0.57152 0.63353 0.54421 1.5246-0.10382 0.54191-0.3941 0.76031-0.4526 0.99019-0.2653 0.18595 0.15151 0.41549 0.13633 0.6212-0.04114 0.78492-0.6771 1.6026-0.34238 1.1966 0.48981-0.12143 0.24888-0.21464 0.56954-0.20712 0.71256 0.01915 0.365 1.3154-0.3021 1.3789-0.70964 0.02696-0.17134 0.31603-0.76448 0.64294-1.3181 0.32691-0.55357 0.99782-1.7712 1.4909-2.7058 1.1314-2.1447 1.5503-2.2619 1.2386-0.34675-0.12505 0.76851-0.361 1.7213-0.52429 2.1172l-0.2969 0.71995 9.1853-6.7182 51.748-37.65 4.1063 5.6527-50.834 38.865s-15.052 11.791-15.392 12.313c-0.19053 0.29268-0.47619 1.4171-0.63478 2.4986-0.3321 2.2647-0.81383 3.1249-2.6063 4.6537-1.2414 1.0588-2.8989 1.8013-4.0549 1.8164-0.6771 0.0089-2.2364-0.71331-2.5928-1.2008-0.12327-0.16859-0.45324-0.38454-0.73327-0.47994-0.39078-0.13313-0.59276-0.07808-0.86871 0.23701-0.80916 0.92366-1.3468 1.9167-1.3199 2.4376 0.01695 0.32783-0.21925 0.87894-0.58049 1.3543-2.0982 2.761-2.7688 7.0174-1.9072 12.105 0.32842 1.9392-0.62407 6.556-2.3301 11.294-1.1582 3.2167-0.7676 2.7551-4.8826 5.7699l-3.6629 2.6835zm27.868-33.726c0.77396-1.3625 0.26919-2.6328-1.0195-2.5659-0.58623 0.03043-3.0076 1.4993-2.8429 1.7246 0.05488 0.0751 0.07094 0.32307 0.03573 0.55111-0.04717 0.30383 0.03665 0.46305 0.31311 0.5959 0.20748 0.09972 0.50905 0.36156 0.67014 0.58189s0.39726 0.3924 0.52477 0.3824c0.1275-0.01015 0.30763 0.08548 0.40024 0.2121 0.50732 0.69386-1.3491 0.3958-2.2638-0.36353-0.8072-0.67002-0.85117-0.67225-1.7191-0.08707-0.84471 0.56939-1.0323 1.3039-0.51396 2.0128 0.75035 1.0263 2.3322 0.65827 4.5049-1.048 1.017-0.79866 1.5413-1.3465 1.9103-1.9961z"/></svg>