<svg width="100" height="100" version="1.1" viewBox="0 0 100 100" xml:space="preserve" xmlns="http://www.w3.org/2000/svg"><path d="m100 0s-10.809 7.1032-15.97 10.992c-6.4613 4.8686-12.749 9.9854-18.74 15.423-4.4184 4.0101-8.9423 7.9893-12.658 12.658-3.2548 4.0895-8.3151 13.293-8.3151 13.293l-0.90619 0.90619c-1.3475-0.25388-2.7336 0.17269-3.7052 1.1403-0.96759 0.97161-1.3942 2.3577-1.1403 3.7052l-0.51844 0.51844-1.2825-1.2825c-0.40609-0.40609-1.0645-0.40609-1.4706 0l-4.0441 4.0441-3.3533-3.3533c0.46667-0.30318 0.94677-0.5834 1.4548-0.80566 0.92609-0.40518 2.9196-0.82002 2.9196-0.82002s-2.4183-1.5541-3.7397-2.0996c-1.7799-0.7348-4.4717-1.2773-5.5664-1.551-1.0947-0.27368-3.9247-0.47139-5.8924-0.40068-1.824 0.06554-5.4214 0.76258-5.4214 0.76258s3.2671 2.0175 4.4721 3.4697c1.0674 1.2863 1.9836 2.2568 2.6008 3.6032 0.73604 1.6058 1.2308 5.1542 1.2308 5.1542l1.7363-1.7535s0.46127-0.36765 0.73529-0.36765c0.27403-1e-6 0.7353 0.36765 0.7353 0.36765l2.9412 2.9412-11.397 11.397c-0.40609 0.40609-0.40609 1.0645 0 1.4706l-14.706 14.706v5.8824l5.8824-1e-6 14.706-14.706c0.40609 0.40609 1.0645 0.40609 1.4706 0l11.397-11.397 2.9412 2.9412s0.36765 0.46126 0.36765 0.73529c0 0.27403-0.36765 0.73529-0.36765 0.73529l-1.7535 1.7363s3.5484 0.49471 5.1542 1.2308c1.3465 0.61717 2.3169 1.5335 3.6032 2.6008 1.4522 1.205 3.4697 4.4721 3.4697 4.4721s0.69703-3.5974 0.76258-5.4214c0.07071-1.9677-0.12699-4.7977-0.40068-5.8924-0.27368-1.0947-0.81621-3.7865-1.551-5.5664-0.5455-1.3214-2.0996-3.7397-2.0996-3.7397s-0.41485 1.9935-0.82003 2.9196c-0.22226 0.50802-0.50248 0.98812-0.80566 1.4548l-3.3533-3.3533 4.0441-4.0441c0.40609-0.40609 0.40609-1.0645 0-1.4706l-1.2825-1.2825 0.51844-0.51844c1.3475 0.25388 2.7336-0.17269 3.7052-1.1403 0.97152-0.97174 1.4004-2.3606 1.146-3.7109l0.90045-0.90045s9.2031-5.0603 13.293-8.3151c4.6685-3.7156 8.648-8.2397 12.658-12.658 5.4372-5.9907 10.554-12.279 15.423-18.74 3.8889-5.1611 10.992-15.97 10.992-15.97z" color="#000000" stroke-linejoin="round" style="-inkscape-stroke:none;paint-order:stroke fill markers"/></svg>