<svg width="100" height="100" version="1.1" viewBox="0 0 100 100" xml:space="preserve" xmlns="http://www.w3.org/2000/svg"><path d="m9.1012 99.884c-0.46079-0.10746-0.90076-0.29486-0.97769-0.41669-0.076932-0.12186-0.58574-0.37971-1.1307-0.57305-0.54495-0.19333-1.8748-1.0824-2.9553-1.9757-1.0804-0.89332-2.0718-1.5563-2.203-1.4732-0.46434 0.29392-1.6001-2.0242-1.7829-3.639-0.22411-1.9793 0.26134-3.6261 1.8538-6.2886 0.84767-1.4172 1.5072-3.4325 2.2446-6.8583 0.57433-2.6682 1.3925-5.9004 1.8182-7.1826 1.1216-3.3784 3.6893-9.2289 5.3995-12.303 0.81482-1.4646 1.4799-2.8219 1.4779-3.0163-0.0058-0.58287 5.4776-7.0116 8.1661-9.5738 1.9575-1.8655 2.5156-2.5932 2.5502-3.3252 0.0243-0.51542 0.20848-1.5105 0.40917-2.2112 0.20068-0.70076 0.21911-1.5049 0.04074-1.787-0.1781-0.28208-0.09441-1.532 0.18596-2.7776 0.28037-1.2456 0.46638-2.3438 0.41333-2.4404-0.05316-0.09668-0.11909-0.57528-0.14678-1.0637-0.07116-1.2536 1.7535-2.3936 3.2226-2.0135 1.5555 0.40242 1.9025 1.2398 1.1767 2.84-0.34587 0.76256-0.58031 1.5729-0.52097 1.8008 0.05947 0.2279 0.92294 0.64225 1.9191 0.9208 0.99616 0.27853 1.8607 0.71 1.9212 0.95879 0.20649 0.84908 1.2648 0.53914 3.5455-1.0383l2.2793-1.5765-0.77622-0.83563c-0.76576-0.82443-0.75704-0.86378 0.65002-2.9352 0.78444-1.1548 2.1949-3.3678 3.1344-4.9178 2.0965-3.459 2.7916-3.5499 2.0802-0.27191-0.62774 2.8923-2.2128 6.1003-3.1337 6.3421-0.68843 0.18073 0.25526 1.1363 0.25526 1.1363l54.637-33.389 5.1451 10.08-52.108 35.312s-9.0826 6.1294-9.9611 10.65c-0.7333 3.7734-1.9353 5.5161-5.917 8.5786-1.5641 1.203-4.7994 2.6338-6.2381 2.7587-0.65882 0.05722-2.1517-0.12549-3.3174-0.40612-1.8932-0.45564-2.2073-0.42646-2.941 0.27329-1.8052 1.7216-3.9196 7.7911-4.1286 11.851-0.2106 4.092 0.15498 6.2391 1.3991 8.217 0.78114 1.2418 1.0598 2.068 1.0587 3.1383-0.0017 1.6454-1.2994 4.1111-2.9125 5.5343-0.59209 0.52238-1.0749 1.1086-1.0729 1.3027 0.0049 0.53976-2.39 1.9351-3.0881 1.7988-0.49367-0.0964-0.59774-0.0305-0.52028 0.32934 0.12781 0.59377-0.13952 0.70193-1.1519 0.46609zm25.768-40.682c0.99616-1.3873 1.4838-3.63 0.96713-4.4483-0.68863-1.0907-1.7816-1.1334-3.8292-0.14951-1.0948 0.52606-2.4982 1.171-3.1187 1.4333-1.0429 0.44079-1.117 0.57816-0.98061 1.8171 0.08786 0.79875 0.30505 1.3386 0.5374 1.3362 0.21441-0.0015 0.62378 0.36651 0.90969 0.81934 0.2859 0.45283 0.82006 0.86231 1.187 0.90996 0.7355 0.09562 1.3307 0.79312 0.90598 1.0619-0.63902 0.40448-3.0901-0.27891-4.074-1.1359-1.3984-1.2181-2.0342-1.2653-3.8119-0.28301-1.2333 0.68146-1.4806 0.96568-1.5174 1.7443-0.08822 1.8646 1.3216 3.2722 3.1215 3.1168 2.495-0.21545 7.8604-3.6561 9.703-6.2222z"/></svg>