<svg width="100" height="100" version="1.1" viewBox="0 0 100 100" xml:space="preserve" xmlns="http://www.w3.org/2000/svg"><path d="m93.809 0-26.353 27.342-16.521 17.168s-0.93021-0.84613-2.1465-1.8418c-1.8982-1.554-3.7185-2.4859-6.4668-3.3125-1.1384-0.34237-2.347-0.38129-2.9375-0.09375-0.15032 0.0732-0.68292 0.22686-1.1816 0.3418-1.6484 0.37986-3.8685 1.4541-5.0703 2.4531-0.7453 0.61956-1.4344 1.7188-2.1133 2.6074-0.29145 0.38154-0.59566 0.75574-0.84179 1.168-0.54387 0.91094-1.2077 1.9543-1.3926 2.8614-0.04339 0.21305-0.10955 0.93635-0.14648 1.6055-0.03694 0.66914-0.12606 1.3177-0.19726 1.4414-0.07118 0.12377-0.36485 0.28511-0.65234 0.35938-0.4706 0.12158-0.56195 0.10348-0.92773-0.18946-0.30886-0.24736-0.40299-0.42955-0.39062-0.75782 0.03583-0.93322 0.51769-2.5232 1.1562-3.8184 0.69614-1.412 1.5678-1.9079 2.4355-2.7832 0.45015-0.45405 0.96212-0.84141 1.4316-1.2754 0.47681-0.44073 1.0112-1.0148 1.4062-1.3477 0.395-0.33289 0.58593-0.61329 0.58593-0.61329s-2.0385 0.7074-3.0215 1.1484c-0.88638 0.39772-1.796 0.78013-2.5859 1.3457-0.86611 0.62013-1.6788 1.3513-2.3105 2.209-0.53857 0.73117-0.85778 1.4004-1.2129 2.4395-0.15164 0.44375-0.4043 0.80079-0.4043 0.80079 0 1e-6 -1.5793-1.4413-1.6562-1.5234-0.07692-0.08216-2.8756-2.8703-7.1425-7.2715l-2.9043-2.9961c-2.6398-2.7229-4.9138-5.0025-5.1113-5.125-0.24651-0.15292-1.5839 1.0178-2.0664 1.8086-0.16042 0.26293-0.26413 0.41644-0.25976 0.57227 0.00711 0.25277 0.29731 0.50961 1.084 1.2422 1.9619 1.8271 4.0011 3.7783 6.0586 5.711 0.70678 0.67253 1.399 1.3155 2.0996 1.9707 0.81119 0.75868 1.6261 1.513 2.4375 2.2715 1.5255 1.4262 3.1348 2.9485 4.5683 4.2852 2.3477 2.189 2.6046 2.469 2.5722 2.8242-0.01977 0.21689-0.07886 0.43438-0.13086 0.48243-0.05197 0.04803-1.6534 9e-3 -3.5586-0.08594-2.6924-0.13412-3.0474-0.16877-4.5586-0.0078-1.0724 0.11423-2.1304 0.3731-3.1621 0.68751-0.42264 0.1288-0.82491 0.31755-1.2324 0.48828-0.33699 0.14119-0.67126 0.288-1.0019 0.44336-0.52119 0.24487-1.0365 0.50281-1.5469 0.76954-0.69171 0.36151-1.4273 0.66067-2.0547 1.125-1.5557 1.1515-3.2364 2.3515-4.1523 4.0567-1.7713 3.2974-2.5523 7.9084-2.1094 11.029 0.18098 1.2751 0.25411 1.5618 0.74414 2.9356 0.61476 1.7234 1.3315 2.8964 2.8203 4.6133 0.47994 0.55352 0.87151 1.0557 0.86914 1.1152-0.00228 0.05955-0.12892 0.23133-0.28125 0.38282-0.15233 0.15148-0.41372 0.5152-0.58007 0.80665-0.29731 0.52083-0.29777 0.53823-0.074219 1.0352 0.36729 0.81645 0.81296 1.082 1.8828 1.1231 0.86624 0.03329 0.94768 9e-3 1.4101-0.40625 0.59204-0.53155 0.84465-1.1514 0.78711-1.9297-0.043441-0.58752-0.712-1.0623-1.0996-1.5703-1.023-1.3408-2.4973-2.3767-3.2285-3.8965-0.80415-1.6714-1.4078-3.613-1.1328-5.4473 0.37982-2.5336 1.8485-4.9669 3.7012-6.7364 1.2924-1.2344 3.0609-2.0085 4.8125-2.3633 3.1419-0.63638 6.4982-0.25708 9.6015 0.54688 1.5774 0.40867 2.994 1.3073 4.4023 2.127 1.1572 0.67351 3.4077 2.1235 3.3066 2.2813-0.09471 0.14784-1.0212 1.2268-1.5488 1.8242-0.44207 0.50058-0.91373 0.97375-1.3555 1.4746-0.66662 0.75586-1.3108 1.532-1.9531 2.3086-0.73588 0.88984-1.4454 1.799-2.1758 2.6934-0.82602 1.0115-1.655 2.0209-2.4941 3.0215-0.49416 0.58924-1.013 1.1575-1.4961 1.7559-0.32561 0.40324-0.63124 0.82404-0.94531 1.2363-0.37265 0.48919-1.0992 1.4621-1.1152 1.4688-0.24563 0.10285-0.68139 0.13916-1.3359 0.11523-1.9069-0.06967-4.1064 0.58394-5.416 1.6113-0.38914 0.30529-0.74415 0.52545-1.3281 1.1133-0.58396 0.58785-1.3518 1.8703-1.8066 3.0918-0.5437 1.4602-0.64835 3.7707-0.24023 5.2754 0.27855 1.027 0.27798 1.0539 0.021484 1.3164-0.14397 0.14737-0.53239 0.39064-0.86523 0.54102-1.006 0.45456-1.4128 1.4925-0.94531 2.4102 0.31438 0.61714 1.3019 1.5331 2.0215 1.875 0.52405 0.24897 0.71923 0.27976 1.1484 0.18164 0.61673-0.14098 1.1619-0.69608 1.3066-1.332 0.057764-0.25384 0.19724-0.53268 0.36133-0.81837 0.16408-0.28571 0.24278-0.32144 0.38672-0.25977 0.4642 0.199 1.7547 0.34216 2.6445 0.36133 0.76558 0.01651 1.5497-0.0064 2.2871-0.21289 1.1335-0.31744 2.2126-0.86826 3.1758-1.5449 0.43289-0.30411 0.80557-0.69484 1.1367-1.1074 1.8212-2.2691 2.4268-4.0398 2.2637-6.8751l-0.07227-1.2481c0.59715-0.5047 1.7207-1.5938 1.7207-1.5938l4.0996-3.6035s1.6885-1.3747 2.9433-2.5117c1.2549-1.137 2.4863-2.2379 4.1875-3.9082 0.904-0.89062 2.7461-2.7207 2.7461-2.7207s0.67244 0.22158 1.5879 0.86719c2.8357 1.9999 5.7017 3.444 8.3535 4.209 1.191 0.34363 1.871 0.44883 3.709 0.57618l2.2519 0.15625s0.48666 0.45477 0.73242 0.6797c0.29116 0.26648 0.58543 0.53099 0.8789 0.79493 0.54008 0.48574 1.0865 0.96372 1.625 1.4512 0.71668 0.64873 1.4266 1.305 2.1367 1.961 3.4137 3.1533 8.7958 8.1572 10.207 9.4962 0.7826 0.74258 1.5576 1.4283 1.7226 1.5234 0.43497 0.2508 0.79172 0.09745 1.2129-0.52149 0.20403-0.29984 0.52002-0.71055 0.70117-0.91212 0.49562-0.5515 0.44604-0.96576-0.1914-1.6016-0.57162-0.57017-4.1096-3.5138-6.1796-5.252-0.95025-0.79791-1.91-1.585-2.8652-2.377-0.59189-0.4907-1.1906-0.97347-1.7754-1.4727-0.567-0.48406-1.1218-0.98199-1.6797-1.4766-0.50269-0.44569-1.0138-0.88233-1.5039-1.3418-0.61241-0.57412-1.8021-1.5434-1.7949-1.7656 3e-3 -0.09021 0.2055-0.25859 0.44922-0.37305 1.004-0.4715 3.2734-2.5237 4.2422-4.2852 1.613-2.9329 1.9003-5.7667 2.248-8.7618 0.24803-2.1361 0.10633-4.3137-0.1289-6.4512-0.09642-0.87617-0.18696-1.7771-0.52343-2.5918-0.4996-1.2097-1.3603-2.2425-2.1641-3.2754-0.77185-0.99196-2.539-2.7871-2.539-2.7871l16.832-18.055 17.346-18.662 9.6894-10.426v-1.8985zm-56.808 42.248c0.34604 0.0133 0.33876 0.05828-0.13086 0.70899-0.77944 1.08-1.0258 1.7766-1.1602 3.2813l-0.10156 1.1211-0.92773 0.79688c-0.51085 0.4385-0.99023 0.86524-0.99023 0.86524s-1.8097 1.3487-2.4902 1.5235l-0.32617 0.08398 0.12109-0.84962c0.26873-1.8804 1.1802-3.703 2.6328-5.2696 0.63534-0.68519 2.3051-1.8665 2.7812-1.9668 0.17336-0.03652 0.31771-0.11985 0.32031-0.18555 0.0025-0.06567 0.12422-0.11498 0.27148-0.10938zm5.6191 0.25781c0.84848 0.01216 1.6166 0.06035 1.707 0.10547 0.28132 0.14034 0.25208 1.034 0.54101 1.6133 0.19268 0.38633 0.46835 0.7663 0.74218 1.0762 0.27383 0.30988 0.36523 0.65821 0.36523 0.65821s-2.3812 2.4964-3.4414 3.3457c-0.88648 0.62246-2.6282 1.2685-2.8398 1.1777-0.23794-0.102-1.2687-2.4001-1.3633-3.0391-0.0499-0.33707 0.02761-0.63456 0.29687-1.1445 0.50159-0.95 0.65662-1.3728 0.79101-2.1465 0.15851-0.91261 0.26402-1.0583 1.0098-1.3848 0.54082-0.23675 0.9043-0.28017 2.1914-0.26172zm4.9101 4.9922c0.05393 0.02054 0.0934 0.07806 0.14648 0.1543l0.21289 0.30469s0.10912 0.11269-0.67382 0.98829c-1.5693 1.7551-1.636 1.8211-2.2851 2.5449-0.64912 0.72381-0.76331 0.82523-1.4883 1.6055l-1.0117 1.1524-0.70117-0.82423c-0.38558-0.45337-0.69901-0.90355-0.69531-1 0.0037-0.09646 0.28029-0.29508 0.61328-0.44141 0.9662-0.42458 2.6364-1.6769 4.2871-3.2129 1.1456-1.066 1.4339-1.3331 1.5957-1.2715zm-11.549 2.2754c0.09854-0.01062 0.28938 0.24456 0.42578 0.56641 0.26316 0.621 0.43883 1.2909 0.33594 1.2871-0.03399-0.0013-0.48311 0.13479-0.99804 0.30078-0.51493 0.16599-1.2412 0.37438-1.6133 0.46289-2.0673 0.49169-2.8122 0.64506-2.8633 0.58985-0.03135-0.03387 0.55016-0.42933 1.291-0.87696 0.74084-0.44763 1.7736-1.1506 2.2949-1.5625 0.5213-0.41197 1.0284-0.75684 1.1269-0.76758zm16.56 2.8828c0.09599-0.03471 0.14698 0.0035 0.14258 0.11719-0.0028 0.07177-0.2033 0.22338-0.44726 0.33594l-0.44336 0.20313 0.33789-0.33789c0.17456-0.17526 0.31416-0.28365 0.41016-0.31836zm-14.721 0.86329c0.17445 0.06375 0.43342 0.35614 0.97851 1.0625 0.49554 0.64215 0.89773 1.2305 0.89453 1.3086-0.0036 0.09258-0.59839 0.11879-1.7109 0.07617-1.8638-0.07143-5.9137-0.4957-5.9082-0.61915 0.0019-0.04235 0.4754-0.20661 1.0527-0.36524 0.57733-0.15862 1.1118-0.32776 1.1875-0.37696 0.07563-0.04919 0.8085-0.28761 1.6289-0.5293 0.8204-0.24169 1.5953-0.48964 1.7226-0.55079 0.0467-0.02242 0.09615-0.02711 0.1543-0.0059zm16.795 0.55274c0.12728 0.01208 0.61211 0.30441 1.0781 0.6504 0.46601 0.34599 1.3278 0.88819 1.916 1.2051 1.1029 0.59415 1.1037 0.59476 1.4551 1.7891 0.21593 0.73397 0.19904 3.2967-0.0293 4.3926-0.25106 1.2051-0.63359 1.7437-1.4277 2.0137-0.81163 0.2759-1.3479 0.24626-2.6758-0.14453-1.7987-0.52935-3.6177-1.5766-5.4297-3.127-1.0003-0.85592-2.6655-2.5183-2.6523-2.6485 0.0046-0.04622 0.33667-0.4108 0.73632-0.81055 0.7588-0.75899 1.1016-0.94373 2.5605-1.3731 1.0303-0.3032 2.1069-0.77693 3.3476-1.4727 0.48862-0.27399 0.99383-0.48674 1.1211-0.47461zm-36.539 1.6231c0.6511-0.0113 1.2246 0.0062 1.5801 0.05273 1.1354 0.14873 2.5813 0.44141 3.7676 0.76173l1.2383 0.33399 0.43945 0.96485c0.37618 0.82775 1.3245 2.4658 1.5547 2.6856 0.04026 0.03843 0.24971 0.34914 0.46679 0.68946 0.21708 0.34032 0.60734 0.86876 0.86718 1.1738 1.0962 1.287 1.0769 1.2466 0.36523 0.76954-2.2245-1.4911-5.089-2.743-7.9121-3.4551-2.3909-0.60309-3.3364-0.7508-5.2461-0.82422-2.2532-0.08659-4.0754 0.07622-5.4648 0.48828-1.3232 0.39244-3.6444 1.6106-4.2519 2.2324-0.16194 0.16577-0.32422 0.26172-0.32422 0.26172s0.00839-0.23752 0.35351-0.63868c0.82781-0.96222 2.0537-2.0948 2.1328-2.166 0.079148-0.07128 1.2667-0.92161 2.498-1.5957 2.0075-1.099 2.8152-1.3208 5.8925-1.6192 0.66242-0.06421 1.3919-0.10393 2.043-0.11524zm17.017 2.3613c0.31661-0.01579 0.82148-0.01068 1.5762 0.01367l2.0176 0.06641-0.75781 0.91798-1.1523-0.0957c-1.1796-0.09821-2.1435-0.45452-2.1308-0.78712 0.0024-0.06217 0.13065-0.09945 0.44726-0.11524zm-5.6211 1.0254c0.18983 0.0292 0.43945 0.14844 0.43945 0.14844l2.9277 1.916s0.33864 0.34669 0.33594 0.41602c-0.0062 0.16218-1.0136 1.1562-1.166 1.1504-0.06363-0.0023-0.30238-0.238-0.53125-0.52344-0.22887-0.28544-0.69738-0.87045-1.041-1.2988-0.34364-0.42839-0.81412-1.0642-1.0449-1.4141-0.23881-0.36201-0.10975-0.42373 0.08008-0.39453zm15.035 1.8379c0.05822 0.01356 0.10575 0.05406 0.14258 0.11914 0.1552 0.27425 3.0686 2.5532 4.0801 3.1914 1.0566 0.66671 1.3575 0.921 1.0781 0.91016-0.24344-0.0094-4.2784-1.586-5.2285-2.043-0.5068-0.24377-1.057-0.49046-1.2207-0.54688-0.41772-0.14384-0.36481-0.32889 0.28711-1.0332 0.41077-0.4438 0.68665-0.63834 0.86132-0.59766zm-2.3496 3.2715c0.35797 0.06956 0.67171 0.20525 1.6934 0.69922 1.0216 0.49397 1.4926 0.70479 1.8301 0.80665 0.33742 0.10187 0.60888 0.19691 1.2715 0.43946 0.6626 0.24254 1.3648 0.4873 1.9121 0.72266 1.0452 0.44946 1.8174 0.65144 3.5781 0.93555 0.58627 0.09461 1.3016 0.22622 1.5898 0.29297l0.52344 0.12109-0.34766 0.20899c-1.4803 0.89094-4.0507 1.284-5.914 0.90235-1.4116-0.28916-2.1775-0.51768-2.914-0.77149-1.4043-0.97292-2.8117-2.3928-3.5176-3.2598 0.08998-0.179 0.17149-0.50318 0.17969-0.72071 0.0084-0.21753 0.06033-0.38754 0.11523-0.37696zm16.984 3.3203c0.13332 0.0051-0.11128 1.2349-0.42187 2.1192-0.40489 1.1528-1.9727 3.2484-3.2754 4.3809-1.6735 1.4549-1.8361 1.5604-2.5293 1.6231l-0.64257 0.05859s-0.72896-0.70868-1.0996-1.0566c-0.45714-0.42918-0.93652-0.83504-1.3867-1.2715-0.22417-0.21734-0.45421-0.43023-0.65429-0.66993-0.13543-0.16224-0.36718-0.51758-0.36718-0.51758s0.30568-0.11012 0.73242-0.14063c2.1975-0.15695 4.4738-0.87899 6.4121-2.0332 0.84772-0.50482 2.7359-1.9748 2.8672-2.1778 0.13126-0.20293 0.32301-0.31616 0.36523-0.31446zm-19.283 0.22852c0.94335 0.93541 1.0446 0.88411 1.8691 1.7344 0.22965 0.23683 1.2991 1.3005 1.4199 1.3789 0.12083 0.07842 0.59085 0.49711 1.0449 0.9297 0.45406 0.4326 1.1171 1.0558 1.7246 1.5899 0.60754 0.53402 1.4976 1.3607 1.5332 1.4258 0.03557 0.0651 0.61342 0.51321 0.60742 0.66797-0.01198 0.31209-4.3517-1.8482-5.7363-2.8555-1.1656-0.848-3.4317-2.8056-3.6308-3.1367-0.18673-0.3105-0.17386-0.35057 0.26758-0.79884 0.25528-0.25922 0.51524-0.55454 0.57812-0.65626-0.03269-0.17164 0.32226-0.2793 0.32226-0.2793z"/></svg>