<svg width="100" height="100" version="1.1" viewBox="0 0 100 100" xml:space="preserve" xmlns="http://www.w3.org/2000/svg"><path d="m76.859 23.662c-0.53027 3.0321-1.397 6.3299-3.0491 9.9663-1.6521 3.6364-4.0897 7.6114-7.7618 11.998-3.6721 4.3865-8.5786 9.1845-15.169 14.467-6.59 5.2824-14.864 11.049-25.27 17.373l-2.8818-5.1128c-0.69904-1.2398-2.2652-1.675-3.498-0.97203-1.2329 0.70299-1.6656 2.278-0.96654 3.5178l2.6992 4.7882-16.145 9.3994-2.2117 1.2582c-2.4671 1.4035-3.3357 4.5526-1.94 7.0336 1.3956 2.4811 4.527 3.3546 6.9941 1.951l2.2335-1.2707c0.015314-0.0089 0.030579-0.01725 0.045808-0.02603l16.079-9.3587 0.46642 0.82916c0.0015-2e-3 0.0068-8e-3 0.0085-0.01082l2.387 4.2332c0.69904 1.2398 2.2652 1.675 3.498 0.97203 1.2328-0.70299 1.6656-2.278 0.96654-3.5178l-2.8362-5.0317 23.821-15.339 15.681-10.089c4.3688-2.8929 8.6228-6.6875 12.489-11.114 3.8664-4.4263 7.3453-9.4844 10.163-14.904 2.8182-5.4199 4.9758-11.202 6.1998-17.075 1.224-5.8736 1.5144-11.839 0.59833-17.627-3.982 7.9937-7.2759 12.671-10.753 15.968-3.4768 3.2978-7.1365 5.2165-11.85 7.6938z"/></svg>