<svg width="100" height="100" version="1.1" viewBox="0 0 100 100" xml:space="preserve" xmlns="http://www.w3.org/2000/svg"><path d="m85.869 7.7289c-3.7696-2.9399-4.6051-3.486-6.7479-4.4135-6.4047-2.7721-12.263-3.7409-19.045-3.1485-9.2854 0.81118-17.544 5.3121-23.438 12.772-3.83 4.8475-6.27 10.014-7.6434 16.179-2.0426 9.1689-0.65215 19.661 3.7935 28.652l0.96214 1.9472-1.175 1.1798c-0.74881 0.75277-2.1818 1.2791-2.4096 1.3613a4.9497 4.9503 0 0 0-3.1687 1.5468l-25.688 27.89a4.9497 4.9503 0 0 0 0.28621 6.9954 4.9497 4.9503 0 0 0 6.9945-0.28624l25.689-27.892a4.9497 4.9503 0 0 0 1.3061-3.4376c-0.0053-0.38253 0.05323-2.0136 1.4833-3.7778l1.8405-2.2734 0.32064-4.2765c0.24775-3.3017 0.16351-5.5717-0.3713-9.9535-0.76031-6.2294-0.71739-9.0286 0.20377-13.555 0.97753-4.8034 2.7225-8.571 5.7858-12.491 7.2353-9.2594 19.601-12.568 31.846-8.5194 3.3987 1.1238 6.047 2.577 9.1828 5.0395 6.7681 5.3148 11.371 12.652 13.259 21.141 0.32185 1.4464 0.65796 2.5398 0.7453 2.4282 0.31633-0.40422-0.05194-7.3077-0.55978-10.497-0.82402-5.1749-2.4638-9.5977-5.0615-13.659-2.6889-4.2036-3.727-5.3129-8.3925-8.9515z"/></svg>