<svg width="100" height="100" version="1.1" viewBox="0 0 100 100" xmlns="http://www.w3.org/2000/svg"><path d="m12 0a6 6 0 0 0-4.2422 1.7578 6 6 0 0 0 0 8.4844l3.1719 3.1719 8.4805-8.4805c0.001307-0.0013075 0.0026-0.0026009 0.003906-0.0039063l-3.1719-3.1719a6 6 0 0 0-4.2422-1.7578zm75.061 0.074219a6 6 0 0 0-3.3027 1.6836l-3.1719 3.1719c0.001311 0.0013083 0.002595 0.0025959 0.003906 0.0039063l8.4805 8.4805 3.1719-3.1719a6 6 0 0 0 0-8.4844 6 6 0 0 0-5.1816-1.6836zm-64.822 5.6875a2 2 0 0 0-1.4141 0.58594l-9.0801 9.0801v23.572h4v-21.916l7.9082-7.9082a2 2 0 0 0 0-2.8281 2 2 0 0 0-1.4141-0.58594zm55.697 0.0078124a2 2 0 0 0-0.69141 0.060547 2 2 0 0 0-0.89648 0.51758 2 2 0 0 0 0 2.8281l7.9082 7.9082v21.916h4v-23.572l-9.0801-9.0801a2 2 0 0 0-1.2402-0.57812zm-52.865 4.8164c-0.00131 0.001314-0.002591 0.002591-0.003906 0.003906l-7.3223 7.3223v2.3164l26.256 26.256v22.516 6.25 6.25 12.5a6 6 0 0 0 6 6 6 6 0 0 0 6-6v-12.5-6.25-6.25-22.516l26.256-26.256v-2.3164l-7.3223-7.3223c-0.001315-0.001315-0.002595-0.002591-0.003906-0.003906l-24.93 24.93-24.93-24.93zm-13.289 28.496c0.69822 19.536 12.561 35.652 28.219 37.893v-1.7246-2.3281c-13.096-2.257-23.545-16.177-24.221-33.84h-3.998zm72.439 0c-0.67564 17.663-11.124 31.583-24.221 33.84v2.3281 1.7246c15.657-2.2405 27.521-18.357 28.219-37.893h-3.998z"/></svg>
