<svg width="100" height="100" version="1.1" viewBox="0 0 100 100" xml:space="preserve" xmlns="http://www.w3.org/2000/svg"><path d="m94.497 0.034058a0.99999 0.99999 0 0 0-0.44726 0.25976l-20.506 20.506-2.123 2.1211a0.99999 0.99999 0 0 0 0 1.4141v2e-3l-47.086 47.086h-2e-3a0.99999 0.99999 0 0 0-1.4141 0l-2.121 2.123-20.506 20.506a0.99999 0.99999 0 0 0 0 1.4141l4.2422 4.2422a0.99999 0.99999 0 0 0 1.4141 0l20.506-20.506 2.123-2.1211a0.99999 0.99999 0 0 0 0-1.4141v-2e-3l47.086-47.086h2e-3a0.99999 0.99999 0 0 0 1.4141 0l2.121-2.123 20.506-20.506a0.99999 0.99999 0 0 0 0-1.4141l-4.2422-4.2422a0.99999 0.99999 0 0 0-0.96679-0.25976z"/></svg>