<svg width="100" height="100" viewBox="0 0 100 100" xmlns="http://www.w3.org/2000/svg"><path d="m92.663 2.0325c-0.23078-0.23681-0.47892-0.45713-0.7422-0.65767-1.4209-1.0812-3.2131-1.5537-4.9824-1.3136l-10.411 1.4134c0.05024 0.11581 0.08696 0.20838 0.14202 0.33137 0.84875 1.8964 1.8842 4.4479 3.2241 7.8937 0.5478 1.4088 0.78448 2.0331 1.2274 3.1683l0.58328 1.4928 7.0467-0.95691c3.6844-0.50064 6.2654-3.8931 5.7651-7.5775-0.17964-1.3189-0.74621-2.555-1.6281-3.5521-0.073019-0.08269-0.14793-0.16283-0.22486-0.24176zm2.7321 17.907a6.7329 6.7329 0 0 0-0.97213-0.89098 6.7329 6.7329 0 0 0-4.9908-1.2849l-6.0373 0.85716c0.84738 2.2273 1.3856 3.8428 1.7059 5.4084 0.31778 1.5533 0.21942 3.8061-0.65936 5.383-0.87878 1.577-1.563 1.9873-1.973 2.443-0.17476 0.19428-0.34045 0.37969-0.50889 0.56975l9.3662-1.3289a6.7329 6.7329 0 0 0 5.7178-7.6113 6.7329 6.7329 0 0 0-1.6484-3.5453zm-24.557-18.984c-0.11824-0.11533-0.23724-0.2166-0.35842-0.30094-0.11011-0.11428-0.20739-0.17779-0.29248-0.19781-0.0093-0.0022-0.07722 0.01309-0.08961 0.01188-2.6715-0.98243-12.372 0.57482-12.372 0.57482-8.5368 0.71393-17.114 2.8046-19.49 5.684-2.3758 2.8794-3.3921 15.371-4.7203 22.053l-4.1759 21.001-13.571 10.399c-11.24 8.6116-13.542 10.546-13.387 11.256 0.37048 1.6963 2.7764 6.5776 4.3703 8.8709 0.89424 1.2866 4.5414 5.1357 8.1067 8.553 5.6037 5.3712 7.0828 6.5373 10.91 8.6139 7.0346 3.817 5.0193 4.6952 17.204-7.4896l10.563-10.563 3.1463-0.42097c7.2085-0.96756 19.031-6.2342 25.101-11.18 0.35464-0.28898 0.57239-0.47898 0.83856-0.70331l-7.5285-0.1268-0.0017 0.0017c-5.6858-0.09754-10.32-4.8909-10.225-10.577 0.03223-1.9135 0.62616-3.6869 1.5791-5.2207-2.2478-1.8172-3.7999-4.4918-4.0745-7.5572-0.14523-1.6211 0.08937-3.1948 0.61202-4.6459-0.19097-0.42951-0.4305-0.93228-0.63569-1.383-2.9754-1.7389-5.1766-4.7576-5.6924-8.3907-0.45517-3.2041 0.48172-6.3126 2.3365-8.717 0.01241-0.03965 0.02847-0.07858 0.04058-0.11834 0.04408-0.14491 0.30643-0.4908 0.63568-0.9941 0.16463-0.25165 0.34646-0.54323 0.52579-0.86731s0.35594-0.68176 0.51227-1.0668c0.31265-0.77009 0.6565-1.4707 0.95691-1.9781 0.15021-0.25371 0.2893-0.45972 0.40914-0.60188 0.11984-0.14215 0.21952-0.21978 0.29079-0.21978 0.05266 2e-6 0.10632 0.07141 0.15723 0.17752 0.0077 0.01578 0.01598 0.02939 0.02366 0.04734 0.16189 0.38828 0.3048 1.257 0.39054 2.3416 0.028 0.35406 0.05626 0.71311 0.06931 1.104 0.1476 4.4208 0.70964 5.445 4.9587 9.0399 2.9443 2.491 4.6608 3.8387 6.034 4.1675l1.6704-0.14878c0.91704-0.40781 1.851-1.3462 3.1615-2.8031 2.2137-2.4609 1.9961-1.3272-2.394-13.917l0.12511-0.01691c-0.44732-1.1465-0.68595-1.7705-1.2308-3.1717-1.2676-3.7285-2.7167-8.7893-4.4904-10.519zm24.591 35.374a6.1208 6.1208 0 0 0-4.4701-1.3999l-18.159 1.6281a6.1208 6.1208 0 0 0-5.5504 6.6426 6.1208 6.1208 0 0 0 6.6426 5.5504l18.159-1.6281a6.1208 6.1208 0 0 0 5.5504-6.6426 6.1208 6.1208 0 0 0-2.1725-4.1506zm-0.03212 16.705a5.5087 5.5087 0 0 0-3.8665-1.6788l-16.166-0.27389a5.5087 5.5087 0 0 0-5.6011 5.4152 5.5087 5.5087 0 0 0 5.4135 5.5995l16.166 0.27388a5.5087 5.5087 0 0 0 5.6028-5.4135 5.5087 5.5087 0 0 0-1.5486-3.9223zm-26.819-18.761c-1.1794-0.86734-2.3178-1.9341-3.7786-3.17-1.3086-1.1071-2.3721-2.1241-3.3238-3.1953a6.7329 6.7329 0 0 0 0.02705 0.62216 6.7329 6.7329 0 0 0 7.0754 5.7432z"/></svg>
