<svg width="100" height="100" version="1.1" viewBox="0 0 100 100" xmlns="http://www.w3.org/2000/svg"><path d="m100 0-11.16 4.0898-67.646 67.646-6.0312-6.0957a2.5 2.5 0 0 0-1.7637-0.74023 2.5 2.5 0 0 0-1.7715 0.72266 2.5 2.5 0 0 0-0.019531 3.5352l7.2812 7.3574-11.164 11.162a6.25 6.25 0 0 0-1.4746-0.17773 6.25 6.25 0 0 0-6.25 6.25 6.25 6.25 0 0 0 6.25 6.25 6.25 6.25 0 0 0 6.25-6.25 6.25 6.25 0 0 0-0.17773-1.4746l11.137-11.139 7.1465 7.2227a2.5 2.5 0 0 0 3.5352 0.017578 2.5 2.5 0 0 0 0.019531-3.5352l-5.9355-5.9961 67.686-67.686 4.0898-11.16z"/></svg>
