<svg width="100" height="100" version="1.1" viewBox="0 0 100 100" xmlns="http://www.w3.org/2000/svg"><path d="m63.514 0c-0.047072-0.048483-4.2258 2.3474-9.2852 5.3223-6.9639 4.0948-9.1973 5.5062-9.1973 5.8105 0 0.28907-1.7173 2.1177-6.1113 6.5117-4.7022 4.7022-6.4042 6.5276-7.3867 7.9199-6.4559 9.1491-7.5135 20.906-2.793 31.043 0.72993 1.5675 0.79034 1.8891 0.4707 2.5332-0.53516 1.0785-0.47111 2.8723 0.1582 4.3926l0.42188 1.0195-29.791 29.791v5.6562h5.6562l29.791-29.791 1.0176 0.41992c1.5203 0.62932 3.3141 0.69532 4.3926 0.16016 0.64415-0.31964 0.96762-0.26118 2.5352 0.46875 10.137 4.7205 21.894 3.6629 31.043-2.793 1.3924-0.98249 3.2157-2.6845 7.918-7.3867 4.3811-4.3811 6.2245-6.1094 6.5117-6.1094 0.30236 0 1.7272-2.2546 5.8125-9.1992 2.9763-5.0594 5.3713-9.2381 5.3223-9.2852-0.049061-0.047018-4.2186 2.3527-9.2637 5.332l-9.1719 5.418-0.24023 1.8398c-0.46836 3.5952-3.2574 7.8904-7.3184 11.268-6.6118 5.4985-15.721 7.0319-23.998 4.0371-1.8855-0.68224-5.0777-2.3531-5.7168-2.9922-0.19227-0.19227 1.7879-2.2547 11.373-11.84l11.605-11.605 5.6367-2.3379c3.0999-1.2852 5.7144-2.4148 5.8105-2.5098 0.25083-0.24791 8.5281-20.132 8.4238-20.236-0.10424-0.10424-19.988 8.173-20.236 8.4238-0.094995 0.096114-1.2245 2.7107-2.5098 5.8105l-2.3359 5.6367-11.607 11.607c-9.5852 9.5851-11.646 11.565-11.838 11.373-0.6391-0.6391-2.3099-3.8313-2.9922-5.7168-1.0621-2.9355-1.4922-5.3781-1.4922-8.4707 0-7.3143 3.1089-14.022 8.6641-18.695 3.0431-2.5598 5.5968-3.864 8.1777-4.1738l1.793-0.21484 5.418-9.1738c2.9799-5.046 5.3791-9.2152 5.332-9.2637z"/></svg>
