<svg width="100" height="100" version="1.1" viewBox="0 0 100 100" xmlns="http://www.w3.org/2000/svg"><path d="m55.959 0.0031582c-5.1897-0.057591-10.391 0.67268-15.279 2.1738-6.9077 1.9069-12.777 5.7739-18.434 9.7422-5.6879 4.8615-11.039 10.373-13.824 17.121-2.9506 6.0789-4.6955 12.657-5.5156 19.24-0.39753 3.1604-0.64913 6.2641-0.85547 9.17h9.4825c0.131-1e-6 0.25947 0.01078 0.38867 0.01953 0.09813-2.2031 0.22995-4.4943 0.4668-6.5723 0.75149-8.2804 2.7817-16.696 7.291-23.973 3.016-4.0126 6.4009-7.981 10.799-10.813 9.0522-7.1822 21.767-10.498 33.547-8.2168 5.3272 0.67801 10.074 3.0077 14.453 5.7617 6.0833 4.9433 11.402 11.105 13.701 18.356 4.1334 11.724 0.30101 25.053-8.3907 34.229-5.0526 5.5876-13.077 9.6106-21.139 8.5313-9.895-0.89966-19.503-5.6301-24.955-13.371-5.0082-5.9709-4.5902-14.245-1.8203-20.967 2.5908-5.2168 7.2675-9.8647 13.291-11.668 6.5672-2.2356 14.577 0.1524 18.58 5.4531 2.8654 4.5003 3.6683 11.958 2.0059 18-1.1431 4.0827-4.3351 7.9719-9.1309 8.6661-5.4827 0.93068-9.6112-4.3683-9.1446-8.9844 0.78041-7.2115 6.2228-13.222 11.838-17.918-5.111 2.9188-8.7518 7.6223-11.344 12.527-2.7885 4.9261-1.9783 12.279 3.8692 14.99 3.9582 1.942 8.4902 0.05624 11.393-2.6172 5.304-5.9804 6.3202-14.04 3.7637-21.729-1.5369-5.1624-7.4723-10.312-13.998-11.131-8.8267-1.3422-17.544 3.6838-22.078 10.424-4.9752 7.3975-6.2947 17.351-1.4219 25.07 5.0581 8.7435 14.728 14.763 25.184 16.801 7.4189 1.8989 15.509 0.60007 21.94-3.2363 2.1799-1.3031 4.0756-2.9358 5.9668-4.5606 6.6393-6.274 11.125-14.503 12.815-23.086 1.7026-8.7733-0.32706-17.879-4.9199-25.67-3.6654-5.6779-8.1839-11.053-14.158-14.807-7.0952-4.574-15.716-6.8611-24.365-6.9571zm-53.959 61.448c-1.108 0-2 0.89201-2 2v0.6543c0 1.0293 0.77003 1.8698 1.7676 1.9844v28.91c0 2.7614 2.2386 5 5 5s5-2.2386 5-5v-28.91c0.99662-0.11548 1.7656-0.9558 1.7656-1.9844v-0.6543c0-1.108-0.89201-2-2-2h-6.5801z"/></svg>
