<svg width="100" height="100" version="1.1" viewBox="0 0 100 100" xmlns="http://www.w3.org/2000/svg">
 <path d="m30.463-2.3384e-8c-0.74877 0-1.4714 0.29574-2.0025 0.82682l-27.634 27.634c-0.5311 0.52673-0.82682 1.2473-0.82682 1.996v39.087c0 0.74874 0.29572 1.4649 0.82682 1.996l27.634 27.634c0.52675 0.53106 1.2537 0.82682 2.0025 0.82682h39.074c0.75312 0 1.4714-0.29785 2.0025-0.83328l27.634-27.634c0.53109-0.52673 0.82682-1.2473 0.82682-1.996v-39.08c0-0.74873-0.29572-1.4649-0.82682-1.996l-27.634-27.634c-0.52675-0.53108-1.2537-0.82682-2.0025-0.82682zm1.1692 5.6585h36.729l25.98 25.974v36.735l-25.98 25.974h-36.729l-25.98-25.974v-36.735zm18.364 9.3405c-1.2577 0-2.3787 0.7966-2.797 1.9831l-6.9569 19.74-20.651 0.3359c-1.2547 0.01977-2.3632 0.82593-2.7647 2.0154s-0.01038 2.4988 0.97539 3.275l16.407 12.932-5.82 19.585c-0.35594 1.1974 0.07965 2.4947 1.0852 3.2362 1.0075 0.74155 2.366 0.77062 3.4042 0.07752l17.118-11.433 17.118 11.433c0.5003 0.33419 1.0737 0.49738 1.6472 0.49738 0.61994 0 1.2424-0.19028 1.7635-0.5749 1.0065-0.74353 1.4357-2.0389 1.0787-3.2362l-5.8265-19.585 16.42-12.932c0.98478-0.77714 1.3713-2.0865 0.96893-3.275-0.40044-1.1894-1.5015-1.9956-2.7582-2.0154l-20.658-0.3359-6.9505-19.74c-0.41922-1.1865-1.5467-1.9831-2.8034-1.9831zm-18.875 6.2657c-0.57092 0.02185-1.145 0.21191-1.6407 0.5749-1.321 0.96797-1.6075 2.8251-0.63949 4.147l3.3008 4.5023c0.58039 0.79296 1.4839 1.2144 2.3965 1.2144 0.60808 0 1.2216-0.18731 1.7505-0.5749 1.321-0.96797 1.6075-2.8251 0.63949-4.147l-3.3008-4.5023c-0.60498-0.82621-1.5548-1.2508-2.5063-1.2144zm37.762 0c-0.95102-0.03667-1.9065 0.38756-2.5128 1.2144l-3.3008 4.5023c-0.96995 1.3219-0.68344 3.179 0.63949 4.147 0.527 0.38758 1.1405 0.5749 1.7505 0.5749 0.91162 0 1.8151-0.42143 2.3965-1.2144l3.3008-4.5023c0.96798-1.3219 0.68047-3.179-0.63949-4.147-0.49424-0.36262-1.0636-0.5529-1.6343-0.5749zm-43.957 33.919c-0.29195 0.0051-0.58651 0.05273-0.8785 0.14857l-5.342 1.7699c-1.5543 0.51612-2.3958 2.1987-1.8797 3.753 0.4123 1.2458 1.5725 2.0348 2.8164 2.0348 0.30948 0 0.62716-0.04772 0.93663-0.14857l5.3356-1.7764c1.5543-0.51513 2.3958-2.1932 1.8797-3.7465-0.41854-1.2653-1.6029-2.0571-2.868-2.0348zm50.145 0c-1.2666-0.02361-2.4487 0.76543-2.868 2.0283-0.51513 1.5543 0.32642 3.2369 1.8797 3.753l5.342 1.7699c0.31046 0.10283 0.62169 0.15503 0.93017 0.15503 1.2438 0 2.4031-0.78796 2.8164-2.0348 0.51612-1.5513-0.32246-3.2349-1.8797-3.753l-5.3356-1.7699c-0.29291-0.09659-0.59267-0.14312-0.88496-0.14857zm-25.069 18.177c-1.6383 0-2.9289 1.3281-2.9714 2.9649l-0.14857 5.7102c-0.04251 1.6378 1.333 2.9649 2.9714 2.9649 1.6383 0 2.9224-1.3271 2.9649-2.9649l0.14857-5.7102c0.04248-1.6368-1.3266-2.9649-2.9649-2.9649z"/>
</svg>
