<svg width="100" height="100" version="1.1" viewBox="0 0 100 100" xmlns="http://www.w3.org/2000/svg"><path d="m30.461 0c-0.7488 0-1.4669 0.29509-1.998 0.82617l-27.635 27.635c-0.5311 0.5267-0.82812 1.2493-0.82812 1.998v39.082c0 0.7488 0.29704 1.467 0.82812 1.998l27.635 27.635c0.5268 0.53106 1.2493 0.82617 1.998 0.82617h39.074 0.001953c0.7531 0 1.4709-0.2966 2.002-0.83203l27.635-27.633c0.5311-0.5267 0.82812-1.2493 0.82812-1.998v-39.078c0-0.7488-0.29701-1.467-0.82812-1.998l-27.635-27.635c-0.5268-0.53108-1.2493-0.82617-1.998-0.82617h-39.08zm1.1719 5.6582h36.732l25.977 25.977v36.73l-25.977 25.977h-36.732l-25.977-25.973v-36.734l25.977-25.977zm14.367 12.342a3 3 0 0 0-3 3h-14.998a4 4 0 0 0-4 4 4 4 0 0 0 4 4h43.996a4 4 0 0 0 4-4 4 4 0 0 0-4-4h-14.998a3 3 0 0 0-3-3h-8zm-17.139 14 6.1387 50h30l6.1387-50h-42.277zm21.139 7.5a2.5 2.5 0 0 1 2.5 2.5v25a2.5 2.5 0 0 1-2.5 2.5 2.5 2.5 0 0 1-2.5-2.5v-25a2.5 2.5 0 0 1 2.5-2.5zm-10 5a2.5 2.5 0 0 1 2.5 2.5v15a2.5 2.5 0 0 1-2.5 2.5 2.5 2.5 0 0 1-2.5-2.5v-15a2.5 2.5 0 0 1 2.5-2.5zm20 0a2.5 2.5 0 0 1 2.5 2.5v15a2.5 2.5 0 0 1-2.5 2.5 2.5 2.5 0 0 1-2.5-2.5v-15a2.5 2.5 0 0 1 2.5-2.5z"/></svg>