<svg width="100" height="100" version="1.1" viewBox="0 0 100 100" xmlns="http://www.w3.org/2000/svg"><path d="m30.461 0c-0.7488 0-1.4669 0.29509-1.998 0.82617l-27.635 27.635c-0.5311 0.5267-0.82813 1.2493-0.82812 1.998v39.082c0 0.7488 0.29705 1.467 0.82812 1.998l27.635 27.635c0.5268 0.53106 1.2493 0.82617 1.998 0.82617h39.074 0.001953c0.7531 0 1.4709-0.2966 2.002-0.83203l27.635-27.633c0.5311-0.5267 0.82812-1.2493 0.82812-1.998v-39.078c0-0.7488-0.29701-1.467-0.82812-1.998l-27.635-27.635c-0.5268-0.53108-1.2493-0.82617-1.998-0.82617h-39.08zm1.1719 5.6582h36.732l25.977 25.977v36.73l-25.977 25.977h-36.732l-25.977-25.973v-36.734l25.977-25.977zm16.707 4.8418v8.7598c-5.2584 0.49816-9.4661 2.2682-12.621 5.3125-3.155 3.0166-4.7324 6.8638-4.7324 11.541 0 2.7952 0.4425 5.1757 1.3281 7.1406 0.88562 1.965 2.1598 3.695 3.8203 5.1895 1.6605 1.4945 3.6385 2.8087 5.9355 3.9434 2.2971 1.1347 4.8015 2.2563 7.5137 3.3633 2.7122 1.107 4.6082 2.2839 5.6875 3.5293 1.0794 1.2454 1.6191 2.9601 1.6191 5.1465 0 1.965-0.53979 3.5157-1.6191 4.6504-1.0793 1.107-2.5595 1.6602-4.4414 1.6602-2.5738 0-4.5671-0.81636-5.9785-2.4492-1.3838-1.6605-2.0742-4.0696-2.0742-7.2246h-13.99c0 5.7289 1.6041 10.352 4.8145 13.867 3.238 3.4871 7.8749 5.549 13.908 6.1855v8.3848h6.5996v-8.3438c5.1753-0.49816 9.2571-2.2415 12.246-5.2305 3.0166-2.989 4.5254-6.8495 4.5254-11.582 0-2.7952-0.47114-5.189-1.4121-7.1816-0.94097-1.9926-2.2418-3.7379-3.9023-5.2324-1.6605-1.4945-3.6385-2.822-5.9355-3.9844-2.2694-1.1901-4.6918-2.3249-7.2656-3.4043-2.5738-1.107-4.4411-2.2553-5.6035-3.4453-1.1624-1.2177-1.7441-2.8504-1.7441-4.8984 0-2.0203 0.49782-3.5977 1.4941-4.7324 1.024-1.1624 2.4508-1.7441 4.2773-1.7441 2.048 0 3.6254 0.77438 4.7324 2.3242s1.6602 3.7643 1.6602 6.6426h14.031c0-5.2584-1.4534-9.59-4.3594-12.994-2.8783-3.4318-6.8494-5.5203-11.914-6.2676v-8.9258h-6.5996z"/></svg>