<svg width="100" height="100" version="1.1" viewBox="0 0 100 100" xmlns="http://www.w3.org/2000/svg">
 <path d="m30.46 2.3069e-7c-0.74877 0-1.4672 0.29626-1.9983 0.82734l-27.634 27.633c-0.5311 0.52673-0.82734 1.2491-0.82734 1.9978v39.082c0 0.74873 0.29624 1.4672 0.82734 1.9983l27.634 27.633c0.52675 0.53106 1.2496 0.82734 1.9983 0.82734h39.076c0.75312 0 1.4714-0.29603 2.0025-0.83147l27.634-27.633c0.5311-0.52673 0.82734-1.2496 0.82734-1.9983v-39.078c0-0.74874-0.29623-1.4667-0.82734-1.9978l-27.634-27.633c-0.52675-0.53108-1.2496-0.82734-1.9983-0.82734zm1.171 5.6591h36.733l25.977 25.975v36.732l-25.977 25.975h-36.733l-25.976-25.971v-36.736zm18.654 9.3405c3.6258 17.284-22.656 20.349-17.766 40.073 3.5705 8.1917-7.3068 5.8142-3.1517-3.7915-3.6732 6.6039-4.5263 12.497-2.5435 17.687 1.4851 3.8944 5.9482 8.7212 9.3291 11.273 3.8628 2.9228 8.6654 4.9292 13.863 4.7475-0.1264 0-0.25238 1.85e-4 -0.37879-0.0076-12.529-1.5246-11.091-21.234-0.75086-30.492-2.4093 6.9752-1.5957 13.034 1.6826 16.707 0-3.847 2.2357-5.4584 2.6386-9.495 9.8427 11.075 6.6752 22.039-1.635 23.192 25.649-2.2513 29.923-33.549 10.696-50.762 3.5626 7.4097 4.4234 13.098 2.5828 17.063-2.6779 8.3497-11.92-0.59232-5.9562-8.6418 3.5705-5.2136 0.15015-16.391-8.6103-27.553z"/>
</svg>
