<svg width="100" height="100" version="1.1" viewBox="0 0 100 100" xmlns="http://www.w3.org/2000/svg">
 <path d="m30.46 5.7705e-4c-0.74877 0-1.4672 0.29626-1.9983 0.82735l-27.634 27.633c-0.53112 0.52672-0.82735 1.2491-0.82735 1.9978v39.082c0 0.74874 0.29624 1.4672 0.82735 1.9983l27.634 27.633c0.52675 0.53105 1.2496 0.82735 1.9983 0.82735h39.076c0.75314 0 1.4713-0.29603 2.0025-0.83148l27.634-27.633c0.53108-0.52672 0.82735-1.2496 0.82735-1.9983v-39.079c0-0.74874-0.29624-1.4667-0.82735-1.9978l-27.634-27.633c-0.52675-0.53109-1.2496-0.82735-1.9983-0.82735zm1.171 5.6591h36.734l25.977 25.975v36.731l-25.977 25.975h-36.734l-25.976-25.971v-36.734zm30.036 9.3411-3.3728 10.12c-1.55 4.6467-5.1967 8.2937-9.8402 9.8402l-10.12 3.3734 10.12 3.3728c4.6434 1.55 8.2904 5.1934 9.8402 9.8402l3.3728 10.12 3.3705-10.12c1.55-4.6467 5.1964-8.2904 9.8399-9.8402l10.123-3.3728-10.123-3.3734c-4.6434-1.5467-8.2897-5.1934-9.8399-9.8402zm-33.334 23.334-1.7534 5.2566c-0.99665 2.9867-3.3404 5.33-6.3235 6.3269l-5.2566 1.7498 5.2566 1.7534c2.9833 0.99334 5.3271 3.3364 6.3235 6.3232l1.7534 5.2569 1.7498-5.2569c0.99665-2.9867 3.3397-5.3297 6.3232-6.3232l5.2602-1.7534-5.2602-1.7498c-2.9833-0.99665-5.3264-3.34-6.3232-6.3269zm20 20-1.7534 5.2566c-0.99665 2.9867-3.3397 5.33-6.3232 6.3269l-5.2569 1.7498 5.2569 1.7534c2.9833 0.99334 5.3264 3.3371 6.3232 6.3235l1.7534 5.2566 1.7498-5.2566c0.99665-2.9867 3.3404-5.3304 6.3235-6.3235l5.2596-1.7534-5.2596-1.7498c-2.9833-0.99665-5.3271-3.34-6.3235-6.3269z"/>
</svg>
