<svg width="100" height="100" version="1.1" viewBox="0 0 100 100" xmlns="http://www.w3.org/2000/svg">
 <path d="m37.535 0c-20.735 0-37.535 16.8-37.535 37.535 0 20.735 16.8 37.535 37.535 37.535 6.4937 0 12.601-1.6484 17.928-4.5487-1.5691-1.0967-2.7539-2.6742-3.1366-4.6449 0.05618-0.67865 0.12168-1.356 0.19294-2.0323-4.4176 2.5204-9.5317 3.9611-14.984 3.9611-16.724 0-30.271-13.546-30.271-30.271 0-16.724 13.546-30.271 30.271-30.271 10.463 0 19.682 5.3021 25.118 13.367 0.50557-0.48011 1.0915-0.88822 1.7737-1.2016 1.8219-0.43602 3.6587-0.7035 5.5046-0.86329-6.5168-11.109-18.582-18.567-32.396-18.567zm-2.4218 14.53c-0.99892 0-1.8161 0.81766-1.8161 1.8166v24.852c0 0.57513 0.27255 1.1198 0.74174 1.468l12.85 9.3384c0.8173 0.59027 1.9525 0.40906 2.5428-0.39311l2.8454-3.9202c0.59028-0.8173 0.42368-1.9525-0.39362-2.5428l-10.11-7.3558v-21.446c0-0.99892-0.81715-1.8166-1.8161-1.8166zm37.937 10.494c-5.3026-0.0012-5.5172 0.04795-5.8248 0.23483-0.22987 0.13969-0.48838 0.38565-0.57415 0.54673-0.08577 0.1611-1.978 8.8909-4.2052 19.399-4.4628 21.056-4.2327 19.665-3.3699 20.379l0.3988 0.33h6.177c3.3975 0 6.2028 0.04335 6.2334 0.09621 0.03064 0.0529-1.2849 6.4148-2.9235 14.138-4.2315 19.943-3.8965 18.27-3.7583 18.762 0.14179 0.50491 0.5903 0.95345 1.1142 1.1142 0.48834 0.14981 1.0755 0.0557 1.484-0.23741 0.44653-0.32042 32.048-48.32 32.157-48.843 0.1243-0.59831-0.02703-1.0394-0.52398-1.528l-0.43552-0.42828h-6.5127c-3.5818 0-6.5429-0.02972-6.5799-0.06621-0.03709-0.03647 1.7193-4.9845 3.9032-10.996 4.4058-12.127 4.2693-11.633 3.4361-12.452l-0.40759-0.40139-12.598-0.03414c-3.09-0.0083-5.4228-0.01408-7.1903-0.01448z"/>
</svg>
