<svg width="100" height="100" version="1.1" viewBox="0 0 100 100" xmlns="http://www.w3.org/2000/svg"><path d="m30.461 0c-0.7488-7.4015e-17 -1.4669 0.29509-1.998 0.82617l-27.635 27.635c-0.5311 0.5267-0.82812 1.2493-0.82812 1.998v39.082c7.4015e-17 0.7488 0.29703 1.467 0.82812 1.998l27.635 27.635c0.5268 0.53106 1.2493 0.82617 1.998 0.82617h39.074 0.001953c0.7531 0 1.4709-0.2966 2.002-0.83203l27.635-27.633c0.5311-0.5267 0.82812-1.2493 0.82812-1.998v-39.078c0-0.7488-0.29701-1.467-0.82812-1.998l-27.635-27.635c-0.5268-0.53108-1.2493-0.82617-1.998-0.82617h-39.08zm1.1719 5.6582h36.732l25.977 25.977v36.73l-25.977 25.977h-36.732l-25.977-25.973v-36.734l25.977-25.977zm0.49024 17.342-12.123 50h12.227l5.8047-25.639 5.8379 25.639h0.068359 12.125 0.10352l5.8027-25.639 5.8398 25.639h12.191l-12.123-50h-11.814l-6.0625 25-6.0625-25h-11.814z"/></svg>