<svg width="100" height="100" version="1.1" viewBox="0 0 100 100" xmlns="http://www.w3.org/2000/svg">
 <path d="m30.46 0c-0.74877 0-1.4672 0.29626-1.9983 0.82734l-27.634 27.633c-0.5311 0.52673-0.82734 1.2491-0.82734 1.9978v39.082c0 0.74874 0.29624 1.4672 0.82734 1.9983l27.634 27.633c0.52675 0.53106 1.2496 0.82734 1.9983 0.82734h39.076c0.75312 0 1.4714-0.29604 2.0025-0.83147l27.634-27.633c0.5311-0.52673 0.82734-1.2496 0.82734-1.9983v-39.078c0-0.74874-0.29623-1.4667-0.82734-1.9978l-27.634-27.633c-0.52675-0.53108-1.2496-0.82734-1.9983-0.82734zm1.171 5.6591h36.733l25.977 25.975v36.732l-25.977 25.975h-36.733l-25.976-25.971v-36.736zm16.249 9.341c-1.3793 0-2.5823 0.26112-3.6261 0.75189-16.249 3.2882-21.256 16.354-22.582 19.002-1.5197 3.035-0.58845 10.928-0.2005 14.366 0.38795 3.4371 0.98926 2.9733 2.1637 5.5258 1.1744 2.5525 1.4417 6.7521-0.04341 8.2579-1.4851 1.5057-0.39998 2.4727-0.39998 2.4727s0.96452 0.26743 2.651 3.5207c1.6865 3.2533 7.2373 3.7336 7.2373 3.7336s0.12298-1.0723 2.6277-1.0723 4.1444 3.5925 4.1444 3.5925l-1.8231 2.5249s-0.46096 1.2327-0.46096 2.4955c0 1.6244 0.74562 1.1075 2.2841 1.7043 0.70021 0.27161 1.8413 1.7951 2.6448 2.1353 1.2839 0.54359 2.7392 0.29399 3.977 0.37724 1.5013 0.10098 2.7592 0.37696 3.3383 0.52142 0.02087 0.06011 0.03204 0.09095 0.03204 0.09095s0.05386-0.01603 0.15503-0.04289c0.10117 0.02685 0.15555 0.04289 0.15555 0.04289 0 0 0.01066-0.03084 0.03152-0.09095 0.5791-0.14446 1.837-0.42044 3.3383-0.52142 1.2378-0.08325 2.6931 0.16635 3.977-0.37724 0.80347-0.34018 1.9446-1.8637 2.6448-2.1353 1.5385-0.59678 2.2841-0.07985 2.2841-1.7043 0-1.2627-0.46095-2.4955-0.46095-2.4955l-1.8231-2.5249s1.6397-3.5925 4.1444-3.5925c2.5048 0 2.6277 1.0723 2.6277 1.0723s5.5513-0.48033 7.2378-3.7336c1.6865-3.2533 2.6505-3.5207 2.6505-3.5207s1.0857-0.96697-0.39946-2.4727c-1.4851-1.5057-1.2184-5.7054-0.04392-8.2579 1.1744-2.5525 1.7757-2.0887 2.1637-5.5258 0.38795-3.4371 1.3192-11.331-0.2005-14.366-1.326-2.6481-6.3329-15.714-22.582-19.002-1.0438-0.49077-2.2469-0.75189-3.6261-0.75189-0.72304 0-1.4296 0.01682-2.1198 0.05013-0.69013-0.03331-1.3967-0.05013-2.1198-0.05013zm-6.3009 34.166c1.4691 0 2.7131 1.0638 4.0106 2.4138 1.2975 1.35 1.0594 3.374 1.0594 3.374l-0.07286 0.4315s0.69988 2.2647-1.9823 4.4643c-2.6822 2.1996-5.2405 3.0458-8.8408 2.4789s-4.0866-1.0507-4.0866-6.9009c0-5.8502 8.4435-6.2616 9.9126-6.2616zm16.841 0c1.4691 0 9.9131 0.41146 9.9131 6.2616 0 5.8502-0.48682 6.334-4.0871 6.9009-3.6003 0.56684-6.1586-0.2793-8.8408-2.4789-2.6822-2.1996-1.9823-4.4643-1.9823-4.4643l-0.07286-0.4315s-0.23812-2.0239 1.0594-3.374c1.2975-1.35 2.5416-2.4138 4.0106-2.4138zm-8.1008 13.412c0.03426 0.0052 0.06624 0.0163 0.09663 0.03307 0.24313-0.13429 0.60708 0.08619 1.1462 0.93069 1.6911 2.8523 2.9474 4.5463 2.604 5.7289-0.51059 1.4006-1.5622 1.5627-1.5622 1.5627s-0.64059 0.16117-1.0418-0.5209c-0.19106-0.47366-0.49788-0.57876-0.72915-0.58033v0.05943h-0.83354v-0.05943c-0.23128 0.0016-0.5381 0.10667-0.72916 0.58033-0.4012 0.68207-1.0418 0.5209-1.0418 0.5209 0 0-1.0516-0.16205-1.5622-1.5627-0.34347-1.1826 0.9129-2.8765 2.604-5.7289 0.47172-0.73894 0.80919-1.0001 1.049-0.96377z"/>
</svg>
