<svg width="100" height="100" version="1.1" viewBox="0 0 100 100" xmlns="http://www.w3.org/2000/svg"><path d="m30.461 0c-0.7488 0-1.4669 0.29509-1.998 0.82617l-27.635 27.635c-0.5311 0.5267-0.82813 1.2493-0.82812 1.998v39.082c0 0.7488 0.29704 1.467 0.82812 1.998l27.635 27.635c0.5268 0.53106 1.2493 0.82617 1.998 0.82617h39.074 0.001953c0.7531 0 1.4709-0.2966 2.002-0.83203l27.635-27.633c0.5311-0.5267 0.82812-1.2493 0.82812-1.998v-39.078c0-0.7488-0.29701-1.467-0.82812-1.998l-27.635-27.635c-0.5268-0.53108-1.2493-0.82617-1.998-0.82617h-39.08zm1.1719 5.6582h36.732l25.977 25.977v36.73l-25.977 25.977h-36.732l-25.977-25.973v-36.734l25.977-25.977zm18.48 17.342c-5.9122 0-10.696 1.4404-14.35 4.3223-3.6542 2.8521-5.4824 6.4913-5.4824 10.918 0 2.4956 0.63854 4.7095 1.916 6.6406 1.2775 1.9311 3.1342 3.5806 5.5703 4.9473 2.4361 1.3369 5.5259 2.4201 9.2695 3.252 3.7434 0.83188 6.2842 1.6339 7.6211 2.4062 1.3369 0.77244 2.0039 1.7987 2.0039 3.0762 0 1.3369-0.51877 2.4201-1.5586 3.252-1.0101 0.83188-2.5399 1.248-4.5898 1.248-2.2282 0-4.0564-0.50548-5.4824-1.5156-1.4261-1.0398-2.1691-2.6741-2.2285-4.9023h-14.037c0 2.8224 0.9065 5.5113 2.7188 8.0664 1.8123 2.555 4.3379 4.5751 7.5762 6.0605 3.2382 1.4855 6.923 2.2285 11.053 2.2285 6.2092 0 11.258-1.3815 15.15-4.1445 3.9216-2.763 5.8828-6.3437 5.8828-10.74 0-6.4469-3.6243-10.917-10.873-13.412-2.1688-0.74273-4.6943-1.3813-7.5762-1.916-2.8521-0.53477-4.9311-1.2189-6.2383-2.0508-1.3072-0.83188-1.9609-1.917-1.9609-3.2539 0-1.3072 0.53593-2.3904 1.6055-3.252 1.0695-0.89131 2.3902-1.3359 3.9648-1.3359 4.0702 0 6.1055 1.9288 6.1055 5.791h15.062c0-4.6941-1.9327-8.4797-5.7949-11.361-3.8622-2.8818-8.9707-4.3242-15.328-4.3242z"/></svg>