<svg width="100" height="100" version="1.1" viewBox="0 0 100 100" xmlns="http://www.w3.org/2000/svg">
 <path d="m30.461 3.4225e-7c-0.74877 0-1.4669 0.29509-1.998 0.82617l-27.637 27.635c-0.5311 0.52673-0.82617 1.2493-0.82617 1.998v39.082c0 0.74874 0.29507 1.467 0.82617 1.998l27.637 27.635c0.52675 0.53106 1.2493 0.82617 1.998 0.82617h39.074c0.75312 0 1.4708-0.2966 2.002-0.83203l27.637-27.633c0.5311-0.52673 0.82617-1.2493 0.82617-1.998v-39.078c0-0.74874-0.29506-1.467-0.82617-1.998l-27.637-27.635c-0.52675-0.53108-1.2493-0.82617-1.998-0.82617zm1.1699 5.6582h36.734l25.975 25.977v36.73l-25.975 25.977h-36.734l-25.977-25.971v-36.736zm18.393 6.8418c-1.1093 0-2.2196 0.53215-2.8535 1.5977l-20.68 33.545c-1.347 2.2889 0.23683 5.1289 2.8516 5.1289h11.332v32.045c0 1.4996 1.1879 2.6836 2.6934 2.6836h13.232c1.5055 0 2.6934-1.184 2.6934-2.6836v-32.045h11.33c2.6147 0 4.2797-2.919 2.8535-5.1289l-20.602-33.545c-0.63387-1.0655-1.7423-1.5977-2.8516-1.5977z"/>
</svg>
