<svg width="100" height="100" version="1.1" viewBox="0 0 100 100" xmlns="http://www.w3.org/2000/svg"><path d="m89.328 0-29.773 44.781-1.3242-0.88477-10.359-6.834c-0.62214-0.41632-1.4278-0.36638-1.9707 0.18164-0.232 0.21009-6.2664 5.8897-10.227 14.576l-1.1699 2.8574c-3.9761 10.758-2.5116 21.239 4.3203 30.52 0.22041 0.28226 0.53048 0.4942 0.93359 0.57617 4.8631 1.1896 9.623 1.3206 14.072 0.42187 6.5281-1.3186 12.518-4.8126 17.746-10.439 1.3837-1.5348 2.6628-3.0359 3.7109-4.5547l2.2988-3.4141c2.375-3.9069 3.5594-6.9196 3.6172-7.1465h-0.003906c0.24453-0.70303-0.02057-1.4614-0.64648-1.877l-10.498-6.9707-1.3535-0.90625 31.299-46.816v-4.0703h-10.672zm-60.688 61.961a50 20 0 0 0-28.641 18.039 50 20 0 0 0 50 20 50 20 0 0 0 50-20 50 20 0 0 0-16.439-14.822c-0.63541 1.3029-1.4538 2.8733-2.5566 4.6875-0.032632 0.052865-0.066502 0.10496-0.10156 0.15625l-2.2988 3.4141c-0.00839 0.01242-0.016891 0.024789-0.025391 0.037109-1.2119 1.7561-2.5994 3.3727-4.0312 4.9609-0.01356 0.01508-0.027226 0.030052-0.041016 0.044922-5.7028 6.1382-12.476 10.141-19.883 11.637-5.0329 1.0166-10.365 0.85015-15.713-0.44336-1.3115-0.28192-2.5077-1.078-3.2383-2.0137-0.02321-0.02962-0.045999-0.059574-0.068359-0.089844-5.6943-7.7348-8.0502-16.611-6.9629-25.607z"/></svg>