<svg width="100" height="100" version="1.1" viewBox="0 0 100 100" xmlns="http://www.w3.org/2000/svg"><path d="m0 0v100h25v-100h-25zm29.215 5.3496a4 4 0 0 0-2.8516 1.1133 4 4 0 0 0-0.11719 5.6543l20.432 21.291c-0.27427 1.7284-0.60017 4.2905-0.67578 7.3906-0.076534 3.1379 0.001847 9.0872 0.089844 14.213l-8.1152-5.1328a4.0004 4.0004 0 0 0-2.4258-0.60938 4.0004 4.0004 0 0 0-0.83203 0.15039 4.0004 4.0004 0 0 0-2.5 2.1387l-6.707 14.268a4 4 0 0 0 1.9199 5.3223 4 4 0 0 0 5.3203-1.9199l4.7793-10.166 6.916 4.373-7.5762 10.193a4.0004 4.0004 0 0 0-0.63086 1.2734l-4.4902 15.498a4 4 0 0 0 2.7305 4.9551 4 4 0 0 0 4.9551-2.7305l4.2871-14.803 9.7168-13.074a4 4 0 0 0 0.085938-0.12695 4.0004 4.0004 0 0 0 0.027343-0.03125l9.8164-14.639 2.541 6.2988v14.23a4 4 0 0 0 4 4 4 4 0 0 0 4-4v-15.008a4.0004 4.0004 0 0 0-0.29102-1.4961l-5.6582-14.021a4 4 0 0 0-0.025391-0.044922 4.0004 4.0004 0 0 0-0.46094-0.81641 4 4 0 0 0-0.060547-0.080078 4.0004 4.0004 0 0 0-0.66211-0.67383 4 4 0 0 0-0.070312-0.058594 4.0004 4.0004 0 0 0-0.12695-0.10156l-12.971-9.125-21.564-22.477a4 4 0 0 0-2.8047-1.2285zm36.398 12.928a7 7 0 0 0-7 7 7 7 0 0 0 7 7 7 7 0 0 0 7-7 7 7 0 0 0-7-7z"/></svg>