<svg width="100" height="100" viewBox="0 0 100 100" xmlns="http://www.w3.org/2000/svg"><path d="m0 14.659s2.1706 5.6444 3.9258 8.2638c1.7552 2.6194 4.1754 5.0209 6.565 7.2325 1.9673 1.8208 4.3003 3.7942 6.3535 4.9296 2.0532 1.1353 5.6686 2.0709 5.6686 2.0709l41.198 11.848 1.0855 0.26954c0.03025 0.16451 0.05764 0.3247 0.08837 0.48989l-59.618-13.462s0.85124 2.814 1.4668 4.2367c0.61557 1.4227 1.2265 2.7563 2.2493 4.1808 1.0228 1.4244 2.0947 2.9216 3.5875 4.3472 1.4928 1.4256 3.5527 3.0986 5.3955 4.0513 1.8428 0.95267 5.4286 1.741 5.4286 1.741l45.943 7.8722c0.12463 0.24329 0.26652 0.50484 0.39425 0.75173-1.8554-0.23974-4.2912-0.56634-6.3246-0.83009l-50.14-6.8703s0.99431 2.1573 1.8958 3.3051c0.90153 1.1478 1.4852 2.1652 2.9648 3.6661 1.4796 1.5009 2.8915 3.0076 4.4336 4.0488 1.5422 1.0412 2.6991 1.7491 4.3899 2.2423 0.8454 0.24662 2.6971 0.82756 4.4829 1.1682 1.7858 0.34061 3.5066 0.44045 3.5066 0.44045l39.454 1.3865c0.17729 0.31249 0.14808 0.25373 0.31728 0.55036l-44.902 0.97499s1.7936 1.9846 2.9999 3.0859c1.2063 1.1013 2.0243 1.7916 3.432 2.6219 1.4077 0.83026 2.3297 1.5571 4.0048 2.4742 1.675 0.91712 2.965 1.7967 5.1435 2.4536 2.1785 0.65693 6.2378 1.1503 8.2796 1.1402 2.0419-0.01017 8.8846-0.50558 8.8846-0.50558l17.951-2.4171c0.84522-0.07601 1.7194-0.15469 2.2882-0.21977 3.108-0.35561 5.0663-0.4032 7.0581-1.0406 1.9918-0.63743 3.5179-1.4773 4.4507-2.1602 0.72285-0.52922 1.5555-1.6049 2.4688-3.8178 0.91336-2.2129 1.8057-6.6273 2.3419-10.053 0.53615-3.4258 1.0099-7.8854 0.859-10.468-0.15089-2.5822-0.40481-3.4112-0.96635-4.892-0.56154-1.4808-0.97528-2.8261-2.2462-3.918s-7.0889-2.6519-7.0889-2.6519z"/></svg>