<svg width="100" height="100" version="1.1" viewBox="0 0 100 100" xmlns="http://www.w3.org/2000/svg"><path d="m97.603 6.0028c-0.74878-0.018131-2.0544 0.051595-3.3443 0.18764-13.339 1.4069-26.616 7.0137-39.576 16.714-5.4645 4.0901-8.2146 6.4625-13.784 11.894-12.53 12.219-23.958 27.253-34.172 44.934 1.3579 0.48499 2.6005 1.3279 3.5495 2.5253 0.0072 0.0089 1.3422 1.6705 3.2387 3.3247 0.84045 0.73309 1.9016 1.4465 2.7618 1.9057 0.12887 0.0688 0.21297 0.07555 0.34205 0.12705 0.28021-0.30683 0.37154-0.38443 0.83851-0.97337 0.81948-1.0335 2.0855-2.7381 4.085-4.3196 2.1807-1.7248 5.1881-3.098 8.7642-3.098 3.5761 0 6.5835 1.3731 8.7642 3.098 1.9995 1.5815 3.2655 3.2861 4.085 4.3196 0.16876 0.21284 0.14539 0.16642 0.30296 0.35182 0.15789-0.18585 0.13373-0.1384 0.30296-0.35182 0.82129-1.0358 2.0888-2.7391 4.087-4.3196 2.1807-1.7248 5.1881-3.098 8.7642-3.098 3.5761 0 6.5835 1.3731 8.7642 3.098 1.9995 1.5815 3.2655 3.2861 4.085 4.3196 0.16876 0.21284 0.14535 0.16638 0.30296 0.35182 0.15761-0.18545 0.1342-0.13899 0.30296-0.35182 0.81948-1.0335 2.0855-2.7381 4.085-4.3196 1.3179-1.0424 2.9415-1.9496 4.8063-2.5097-1.2701-21.241 5.0956-44.83 18.261-66.606 1.5683-2.5939 2.8517-4.9593 2.8517-5.2558 0-0.70361-0.96991-1.6571-1.9292-1.8979-0.10446-0.026218-0.29182-0.04282-0.54141-0.048864zm-67.295 77.223c-2.4935 0-4.7364 1.0116-6.282 2.2341-1.5456 1.2225-2.5612 2.5707-3.4303 3.6668-0.86905 1.0961-1.5916 1.9395-2.1246 2.3611-0.53304 0.42161-0.70882 0.50623-1.3154 0.50623-1.2132 0-4.0643-1.4729-6.2702-3.397-2.2059-1.9241-3.7449-3.8544-3.7449-3.8544a4.0027 4.0027 0 0 0-5.6233-0.65087 4.0027 4.0027 0 0 0-0.65087 5.6233s1.9371 2.4537 4.7574 4.9138c2.8203 2.4601 6.5449 5.3712 11.532 5.3712 2.4935 0 4.7364-1.0116 6.282-2.2341 1.5456-1.2225 2.5612-2.5707 3.4303-3.6668 0.86905-1.0961 1.5916-1.9395 2.1246-2.3611 0.53304-0.42161 0.70882-0.50623 1.3154-0.50623 0.6066 0 0.78238 0.08462 1.3154 0.50623 0.53304 0.42161 1.2556 1.2651 2.1246 2.3611 0.86905 1.096 1.8847 2.4443 3.4303 3.6668 1.5456 1.2225 3.7885 2.2341 6.282 2.2341 2.4935 0 4.7364-1.0116 6.282-2.2341 1.5456-1.2225 2.5632-2.5707 3.4322-3.6668 0.86905-1.0961 1.5896-1.9395 2.1227-2.3611 0.53304-0.42161 0.71077-0.50623 1.3174-0.50623 0.6066 0 0.78238 0.08462 1.3154 0.50623 0.53304 0.42161 1.2556 1.2651 2.1246 2.3611 0.86905 1.096 1.8847 2.4443 3.4303 3.6668 1.5456 1.2225 3.7885 2.2341 6.282 2.2341 2.4935 0 4.7364-1.0116 6.282-2.2341 1.5456-1.2225 2.5612-2.5707 3.4303-3.6668 0.86905-1.0961 1.5916-1.9395 2.1246-2.3611 0.53304-0.42161 0.70882-0.50623 1.3154-0.50623 1.2132 0 4.0643 1.4729 6.2702 3.397 2.2059 1.9241 3.7449 3.8544 3.7449 3.8544a4.0027 4.0027 0 0 0 5.6233 0.65087 4.0027 4.0027 0 0 0 0.65087-5.6233s-1.9371-2.4537-4.7574-4.9138c-2.8203-2.4601-6.5449-5.3712-11.532-5.3712-2.4935 0-4.7364 1.0116-6.282 2.2341-1.5456 1.2225-2.5612 2.5707-3.4303 3.6668-0.86905 1.0961-1.5916 1.9395-2.1246 2.3611-0.53304 0.42161-0.70882 0.50623-1.3154 0.50623-0.6066 0-0.78238-0.08462-1.3154-0.50623-0.53304-0.42161-1.2556-1.2651-2.1246-2.3611-0.86905-1.0961-1.8847-2.4443-3.4303-3.6668-1.5456-1.2225-3.7885-2.2341-6.282-2.2341-2.4935 0-4.7364 1.0116-6.282 2.2341-1.5456 1.2225-2.5632 2.5707-3.4322 3.6668-0.86905 1.0961-1.5896 1.9395-2.1227 2.3611-0.53304 0.42161-0.71077 0.50623-1.3174 0.50623-0.6066 0-0.78238-0.08462-1.3154-0.50623-0.53304-0.42161-1.2556-1.2651-2.1246-2.3611-0.86905-1.0961-1.8847-2.4443-3.4303-3.6668-1.5456-1.2225-3.7885-2.2341-6.282-2.2341z"/></svg>