<svg width="100" height="100" viewBox="0 0 100 100" xmlns="http://www.w3.org/2000/svg"><path d="m58.781 4.1683e-4c1.0107-0.0159 2.0592 0.42291 2.9637 1.3442 1.3271 1.3491 1.8151 3.0433 1.8755 5.1326v0.0279a13.447 13.447 0 0 1-0.21957 1.492c-0.36194 1.4423-1.0418 2.6973-2.4292 3.3718-2.2374 1.0913-4.1344-0.25719-5.2312-2.034a7.2498 7.2498 0 0 1-1.009-4.3872 6.4985 6.4985 0 0 1 0.72298-2.6927c0.78969-1.4622 2.0273-2.2342 3.3268-2.2546zm9.3045 3.4478c0.97015-0.019 1.931 0.50732 2.5428 1.5649a4.1952 4.1952 0 0 1-0.54839 4.7877 2.742 2.742 0 0 1-4.3872-0.33953 3.8059 3.8059 0 0 1-0.68549-2.1336h-0.0054a4.2172 4.2172 0 0 1 0.72941-2.5449c0.63494-0.87657 1.4982-1.3178 2.3542-1.3346zm6.9674 4.0498a2.5446 2.5446 0 0 1 0.36845 0.0321 2.3416 2.3416 0 0 1 1.8433 1.7062 3.6852 3.6852 0 0 1-0.94362 4.0305 2.3197 2.3197 0 0 1-3.888-0.7187 9.4379 9.4379 0 0 1-0.4113-1.5348l0.01071-0.0171a4.5133 4.5133 0 0 1 0.8333-2.3189 2.5446 2.5446 0 0 1 2.1872-1.1793zm5.3801 5.0084a2.3746 2.3746 0 0 1 2.2107 1.4406 3.6359 3.6359 0 0 1-0.75083 4.0144c-1.0584 0.99258-2.4623 1.0805-3.4275 0.17565a2.8736 2.8736 0 0 1-0.889-2.1775 3.4823 3.4823 0 0 1 0-1e-3 3.4823 3.4823 0 0 1 0-1e-3 3.4823 3.4823 0 0 1 0-1e-3 3.4823 3.4823 0 0 1 0-1e-3 3.4823 3.4823 0 0 1 0-1e-3 3.4823 3.4823 0 0 1 0-9.99e-4 2.8736 2.8736 0 0 1 0-1e-3 2.8736 2.8736 0 0 1 0-1e-3 2.8736 2.8736 0 0 1 0-1e-3 2.8736 2.8736 0 0 1 0-1e-3 2.8736 2.8736 0 0 1 0-1e-3 2.8736 2.8736 0 0 1 0-1e-3 2.8736 2.8736 0 0 1 0-1e-3 2.8736 2.8736 0 0 1 0-1e-3 2.8736 2.8736 0 0 1 0-1e-3 3.4823 3.4823 0 0 1 1.3828-2.9016 2.3746 2.3746 0 0 1 1.4738-0.53555zm-15.736 0.40808a10.096 10.096 0 0 1 3.5142 0.74762 25.44 25.44 0 0 1 12.7 10.842 12.416 12.416 0 0 1 1.7887 8.4016 41.13 41.13 0 0 1-1.0529 5.0116c-0.71291 2.6158-1.5303 5.1995-2.0458 7.8757-0.7184 3.7126-1.5031 7.4195-2.3093 11.116-0.66904 3.0765-1.3867 6.1364-2.1325 9.191a10.902 10.902 0 0 1-4.5468 6.6354 9.9095 9.9095 0 0 1-11.056 0.3074c-1.7878-1.2065-3.2193-2.742-3.691-4.9355a11.33 11.33 0 0 1 0.14353-4.8145c0.35646-1.6452 0.77225-3.2904 1.3206-4.9356 0.61968-1.9303 1.3326-3.8287 2.0565-5.7207a16.534 16.534 0 0 0 1.2671-7.3423 38.432 38.432 0 0 0-1.9354-8.3362c-0.54291-1.6891-1.1407-3.3503-1.6891-5.0448a26.142 26.142 0 0 1-1.3378-7.8146h0.01071a14.67 14.67 0 0 1 1.974-7.1291c1.0968-2.0949 2.7417-3.5696 5.2205-3.948a10.096 10.096 0 0 1 1.8005-0.10604zm19.664 5.5289a1.9742 1.9742 0 0 1 1.9472 1.3603 3.0765 3.0765 0 0 1-2.1282 3.8827 2.0126 2.0126 0 0 1-2.3746-1.0968 3.0107 3.0107 0 0 1 2.5395-4.1462zm-43.187 7.0092c0.95832 0 1.8875 0.41131 2.6552 1.2339a5.7252 5.7252 0 0 1 1.4802 3.7724l-0.01069 0.0225c-0.02194 2.4349-0.69591 4.1731-1.8969 5.4015-1.8645 1.8974-4.4264 1.7105-5.9509-0.48306-1.7274-2.4513-1.2992-6.6678 0.89436-8.7133 0.88292-0.82259 1.8704-1.2339 2.8287-1.2339zm-9.3345 3.4564a2.742 2.742 0 0 1 1.9922 0.83115 4.1294 4.1294 0 0 1 0.21422 5.484 2.6871 2.6871 0 0 1-3.7402 0.36846 3.7949 3.7949 0 0 1-1.4481-3.1318 3.8881 3.8881 0 0 1 0.72941-2.336 2.742 2.742 0 0 1 2.2525-1.2157zm-6.8582 4.0176c0.38654-4e-3 0.77825 0.0976 1.1407 0.31812a3.7839 3.7839 0 0 1 1.3924 4.8156 2.3362 2.3362 0 0 1-3.7295 0.75618 3.9594 3.9594 0 0 1-1.2778-3.0376h-0.02144a8.5879 8.5879 0 0 1 0.19708-1.009c0.35474-1.1391 1.3107-1.8341 2.2985-1.8433zm-5.5236 4.9655c0.46784-0.0151 0.95228 0.11675 1.4042 0.42522a3.5755 3.5755 0 0 1 1.3271 4.234 2.38 2.38 0 0 1-3.7509 1.0968 3.4549 3.4549 0 0 1-1.3763-2.8245v-0.42734c0.11825-1.4663 1.2004-2.4656 2.396-2.5042zm16.463 0.42094c2.1995-7e-3 4.1226 0.7453 5.5621 2.6263a14.368 14.368 0 0 1 2.9283 9.6462 30.639 30.639 0 0 1-1.8048 8.2805 79.271 79.271 0 0 0-2.742 9.2895 15.629 15.629 0 0 0 0.5484 8.8568c0.7056 1.8682 1.3894 3.7453 2.0511 5.6318a31.862 31.862 0 0 1 1.9686 8.062 7.7927 7.7927 0 0 1-0.68014 4.3872 9.4379 9.4379 0 0 1-9.8711 4.7706c-4.3652-0.82808-7.3593-3.3509-8.6426-7.6229-0.87195-2.9175-1.4694-5.9231-2.1604-8.8954-0.45517-1.9578-0.85567-3.9256-1.2725-5.8888-0.98162-4.6504-1.7442-9.3502-3.2304-13.891a22.917 22.917 0 0 1-1.25-6.9321l-0.03318-0.0279a11.889 11.889 0 0 1 1.2896-5.5279 25.116 25.116 0 0 1 8.7743-9.673c2.3197-1.5355 4.7815-2.7698 7.6058-3.044 0.32492-0.0309 0.64442-0.0472 0.95862-0.0482zm-20.3 5.5707c1.9961-0.0274 3.493 2.4188 2.5717 4.1901a1.9907 1.9907 0 0 1-2.3521 1.0143 3.0875 3.0875 0 0 1-2.2707-3.2904 2.0291 2.0291 0 0 1 2.034-1.914z"/></svg>
