<svg width="100" height="100" version="1.1" viewBox="0 0 100 100" xmlns="http://www.w3.org/2000/svg">
 <path d="m50 0c-27.555 0-50 22.445-50 50 0 27.555 22.445 50 50 50s50-22.445 50-50-22.445-50-50-50zm0 10c22.151 0 40 17.849 40 40s-17.849 40-40 40c-22.151 0-40-17.849-40-40s17.849-40 40-40zm-18.121 12.309c-0.87877 0.0082-1.6603 0.37939-2.1562 0.94141-0.49595 0.56201-0.72266 1.2697-0.72266 1.9648 0 0.69519 0.22671 1.4048 0.72266 1.9668 0.49595 0.56201 1.2775 0.93125 2.1562 0.93945h0.00586 1.0938c0.5924 7.6555 4.5746 14.664 10.996 18.939l2.4023 1.6016c0.98525 0.65652 0.98525 2.0212 0 2.6777l-2.4023 1.6016c-6.4213 4.2749-10.403 11.282-10.996 18.938h-1.0938-0.00586c-0.87873 0.0082-1.6603 0.37745-2.1562 0.93945-0.49592 0.56201-0.72266 1.2716-0.72266 1.9668 0 0.69517 0.22674 1.4028 0.72266 1.9648 0.49592 0.562 1.2775 0.93316 2.1562 0.94141h0.00586 16.047 20.184 0.00586c0.87865-0.0082 1.6603-0.3794 2.1562-0.94141 0.49584-0.562 0.72266-1.2697 0.72266-1.9648 0-0.69516-0.22674-1.4048-0.72266-1.9668-0.49592-0.562-1.2775-0.9312-2.1562-0.93945h-0.00586-1.0918c-0.59238-7.6558-4.5759-14.665-10.998-18.939h-0.001953l-2.4004-1.6016c-0.98455-0.65657-0.98455-2.0192 0-2.6758l2.4004-1.6016c6.4228-4.2746 10.408-11.283 11-18.939h1.0918 0.00586c0.87877-0.0082 1.6603-0.37744 2.1562-0.93945 0.49596-0.56202 0.72266-1.2716 0.72266-1.9668 0-0.69519-0.22671-1.4028-0.72266-1.9648-0.49595-0.56201-1.2775-0.93321-2.1562-0.94141h-0.00586-36.23-0.00586zm3.9512 5.8125h28.34a22.15 22.15 0 0 1-3.498 10.209 29.565 29.565 0 0 1-21.344 0 22.151 22.151 0 0 1-3.498-10.209zm14.17 21.879a4.5056 4.5056 0 0 0 2.0117 3.7578l2.4004 1.6016a22.151 22.151 0 0 1 9.0684 12.654c-0.40294-0.34772-2.3369-1.9902-3.6055-2.5332-3.0902-1.3228-6.537-1.9273-9.8984-1.9258-3.3463 0.001497-6.7743 0.61109-9.8516 1.9258-1.2528 0.53521-3.1504 2.1294-3.5996 2.5137a22.152 22.152 0 0 1 9.0625-12.635l2.4004-1.6016a4.5057 4.5057 0 0 0 2.0117-3.7578z"/>
</svg>
