<svg width="100" height="100" version="1.1" viewBox="0 0 100 100" xmlns="http://www.w3.org/2000/svg">
 <path d="m2.3318 90.189c-0.75286-0.19626-1.4479-0.48362-1.5445-0.63858-0.30383-0.48741-0.78732-2.9185-0.78732-3.9588 0-0.54872 0.096016-1.2511 0.21336-1.5608 0.50258-1.3264 2.0133-2.2517 3.6886-2.259l1.0014-4e-3 5.8497-5.8522c3.2173-3.2187 5.8497-5.9377 5.8497-6.0422 0-0.10447-1.2152-1.4163-2.7005-2.9153-1.6898-1.7053-2.7005-2.8777-2.7005-3.1324 0-0.70395 0.75631-1.4612 1.4594-1.4612h0.63022l-1.3399-1.3502c-1.6165-1.629-1.8659-2.3526-1.0812-3.1373 0.98476-0.98476 1.3054-0.80936 4.7223 2.5836l3.1189 3.0969 22.994-22.997-20.07-20.103-1.4284-5.4718c-0.78564-3.0095-1.3955-5.5047-1.3553-5.5449 0.04022-0.040207 2.5701 0.58094 5.6219 1.3804l5.5488 1.4535 19.986 19.983 19.986-19.983 5.5488-1.4535c3.0518-0.79941 5.5817-1.4206 5.6219-1.3804 0.04021 0.040207-0.56968 2.5354-1.3553 5.5449l-1.4284 5.4718-20.07 20.103 22.994 22.997 3.1189-3.0969c3.417-3.3929 3.7376-3.5684 4.7223-2.5836 0.78463 0.78463 0.53522 1.5083-1.0813 3.1373l-1.3399 1.3502h0.63022c0.70309 0 1.4594 0.75725 1.4594 1.4612 0 0.25472-1.0107 1.427-2.7005 3.1324-1.4852 1.4989-2.7005 2.8119-2.7005 2.9178 0 0.10585 2.6335 2.8248 5.8522 6.0422l5.8522 5.8497 0.99892 4e-3c1.8655 8e-3 3.5314 1.1974 3.8181 2.7257 0.17485 0.93198-0.0191 2.895-0.4165 4.2151-0.30394 1.0097-0.34877 1.0547-1.3585 1.3622-1.2153 0.37004-3.6749 0.6052-4.4073 0.42137-1.3237-0.33224-2.5441-2.0893-2.6031-3.7479l-0.03471-0.97592-11.901-11.902-2.7538 2.7485c-2.1953 2.1911-2.8648 2.7485-3.3013 2.7485-0.89607 0-1.4952-0.79758-1.3523-1.8003 0.02351-0.16503-0.63134 0.35256-1.4552 1.1502-1.6744 1.6211-2.3183 1.8257-3.106 0.98727-0.91891-0.97814-0.69989-1.3675 2.6648-4.7371l3.0997-3.1043-23.002-23-23.002 23 3.0997 3.1043c2.6499 2.6538 3.0997 3.1932 3.0997 3.7172 0 0.76467-0.71895 1.4828-1.4845 1.4828-0.42223 0-0.92405-0.35388-2.0565-1.4502-0.82389-0.79763-1.4787-1.3152-1.4552-1.1502 0.14288 1.0027-0.45621 1.8003-1.3523 1.8003-0.43647 0-1.106-0.55738-3.3013-2.7485l-2.7538-2.7485-11.901 11.902-0.034906 0.979c-0.052929 1.4845-0.90199 2.9108-2.1055 3.537-0.73386 0.38183-2.7587 0.33664-4.4293-0.09882z"/>
</svg>
