<svg width="100" height="100" version="1.1" viewBox="0 0 100 100" xmlns="http://www.w3.org/2000/svg">
 <path d="m50 0c-27.555 0-50 22.445-50 50s22.445 50 50 50 50-22.445 50-50-22.445-50-50-50zm0 10c22.151 0 40 17.849 40 40s-17.849 40-40 40-40-17.849-40-40 17.849-40 40-40zm-7.5391 13.553c-6.563-0.01093-12.752 0.1543-12.752 0.1543v50.182h13.016v-19.051l2.7207 0.06445c3.5871 0.08658 4.5784 0.34133 6.2461 1.5977 1.4 1.0546 2.05 2.142 5.8262 9.7559 1.1672 2.3542 2.3552 4.6878 3.7207 7.6328l13.773-0.04883c0-0.39532-8.0929-16.501-8.9141-17.74-2.0253-3.0559-3.8596-4.6568-6.2793-5.4805l-0.61328-0.20898 0.80078-0.29102c3.4657-1.2558 6.0227-3.4078 7.3848-6.2168 1.7023-3.5106 1.7341-9.1259 0.07227-12.723-2.0253-4.3836-6.4557-6.7004-14.039-7.3418-2.953-0.20762-7.0251-0.2786-10.963-0.28516zm0.26367 9.5117 3.8477 0.06445c4.205 0.06985 4.9626 0.16768 6.3398 0.82227 1.9963 0.94883 2.9475 3.0364 2.7773 6.0996-0.184 3.3122-1.4437 4.902-4.4551 5.623-0.76096 0.18221-1.6554 0.23645-4.7246 0.28125l-3.7852 0.05469v-6.4727z"/>
</svg>
