<svg width="100" height="100" version="1.1" viewBox="0 0 100 100" xml:space="preserve" xmlns="http://www.w3.org/2000/svg"><path d="m29.712 98.966c-1.4129-2.2861-1.9843-4.8256-1.5986-7.1048 0.29998-1.7727 1.052-3.2668 4.0137-7.9741 4.1135-6.5381 6.4162-11.687 6.9441-15.527 0.54811-3.9872-1.3593-9.1797-3.372-9.1797-0.73581 0-0.99198 0.16044-3.4643 2.1696-1.7518 1.4237-3.5983 2.406-7.1373 3.7969-7.214 2.8354-10.361 5.0628-11.991 8.4865-0.61036 1.2819-0.6968 1.6477-0.69224 2.9297 0.0044 1.2423 0.10034 1.6619 0.63135 2.7618 1.5546 3.2201 4.6286 5.0626 7.4251 4.4504 1.0866-0.23786 1.4305-0.47072 1.8539-1.2552 0.2544-0.47135 0.31763-0.50955 0.32333-0.19531 0.01217 0.6705-0.72182 1.6261-1.5951 2.0766-1.159 0.59796-3.5781 0.72666-5.1525 0.27411-3.0468-0.87578-5.5322-3.7287-6.2567-7.1818-0.62346-2.9717 0.38345-6.1799 2.8727-9.1531 1.0687-1.2765 3.9004-3.5287 7.5427-5.9992 4.5102-3.0592 6.977-5.357 9.2919-8.6552 0.49983-0.71214 1.0509-1.3493 1.2247-1.416 0.85449-0.3279 2.2319 0.11576 2.6219 0.84453 0.29052 0.54284 0.24698 1.4874-0.08112 1.7597-0.15522 0.12882-0.48481 0.2055-0.73242 0.1704-0.33299-0.0472-0.4502-0.19095-0.4502-0.5521 0-0.30284 0.09853-0.4678 0.25944-0.43435 0.15605 0.03244 0.23282-0.08432 0.19264-0.29297-0.10376-0.53876-0.8055-0.42594-1.0125 0.16278-0.5882 1.6725 1.2162 2.5632 2.5304 1.2491 0.94084-0.94084 0.42495-2.8304-0.95101-3.4834-1.2547-0.59538-2.3917-0.43586-4.6037 0.64582-2.7023 1.3215-3.9439 1.6255-6.5715 1.6089-5.7714-0.036359-10.388-2.8522-12.717-7.7567-0.89179-1.8778-1.2543-3.3654-1.3848-5.682-0.19437-3.4512 0.53571-5.6284 3.2687-9.7477 2.5383-3.8258 3.624-6.7943 3.4683-9.4835-0.06609-1.1417-0.19012-1.6392-0.52647-2.1115-1.1089-1.5573-3.1304-1.5946-3.9103-0.07219-0.33851 0.66084-0.06825 1.6606 0.81887 3.0293 1.1463 1.7686 1.5015 2.6556 1.5037 3.755l0.0019 0.97656-0.50214-0.87891c-0.27618-0.4834-1.0251-1.4237-1.6643-2.0895-1.4988-1.5612-2.0006-2.6671-1.892-4.1693 0.16307-2.2544 2.0465-3.6281 4.2229-3.0802 1.2008 0.30232 2.7664 1.7883 3.4211 3.2471 1.5335 3.4171 0.97817 7.5369-1.7488 12.974-0.57892 1.1543-1.2811 2.7796-1.5604 3.6116-0.44409 1.3229-0.49867 1.7605-0.4348 3.4861 0.06745 1.8222 0.13058 2.0897 0.82443 3.4936 1.3425 2.7164 3.9991 4.9614 6.6911 5.6546 2.1736 0.5597 4.7408 0.22865 6.0662-0.78224 0.9879-0.75351 0.99845-1.2058 0.07238-3.1013-1.5149-3.1007-2.0154-6.3648-1.5014-9.791 0.57601-3.8395 2.243-7.1217 6.1934-12.194 3.2693-4.1979 5.0511-7.3989 5.4585-9.8062 0.49009-2.8962-0.43707-5.8203-2.5207-7.9496-2.6178-2.6753-5.4112-3.0446-7.4685-0.98736-1.0585 1.0585-1.4623 2.3093-1.2388 3.8371 0.16881 1.1539 0.73997 2.6604 1.3147 3.4675l0.42671 0.59926-0.64016-0.45583c-0.94277-0.67133-2.1444-2.363-2.6053-3.6678-0.78922-2.2343-0.12931-4.4467 1.8719-6.2757 1.4911-1.3628 2.8481-1.8715 4.9922-1.8715 2.5752 0 4.6302 0.9625 6.8554 3.2108 3.5662 3.6032 4.6987 9.3237 3.0824 15.57-0.37496 1.449-1.1523 3.3461-3.269 7.9781-2.4216 5.2992-2.9144 9.9428-1.3884 13.084 0.76342 1.5717 1.9375 2.654 2.7894 2.5715 0.98016-0.09496 1.2024-1.0235 0.92585-3.8688-0.34318-3.5312 0.26814-6.6805 1.7429-8.9787 1.6082-2.5062 4.9203-4.6831 7.7185-5.0731 4.5297-0.6314 9.192 1.8232 11.204 5.8987 1.2042 2.439 1.4332 3.7297 1.3589 7.6588-0.06496 3.4327 0.09451 4.4272 0.7502 4.6788 1.009 0.38718 3.0654-2.4149 3.6774-5.0108 0.79909-3.3893 0.1366-6.3486-2.8319-12.65-2.3778-5.0476-3.161-7.9566-3.1814-11.816-0.01995-3.7784 0.79972-6.4214 2.8574-9.2136 2.0916-2.8383 5.7556-4.5172 8.6786-3.9769 3.2181 0.59489 5.3011 2.8259 5.4702 5.8587 0.11468 2.0572-0.4047 3.3907-1.9326 4.9618-1.2425 1.2777-1.6548 1.3806-0.86429 0.2157 1.103-1.6253 1.4346-4.4962 0.68845-5.9589-0.60327-1.1825-1.7214-1.8223-3.3453-1.914-1.1445-0.06467-1.4951-6.929e-4 -2.3867 0.43555-3.3083 1.6186-5.2419 6.0642-4.4011 10.119 0.48265 2.3276 2.6748 6.1084 5.8719 10.127 2.7744 3.4874 3.9284 5.4309 4.8386 8.1492 0.68729 2.0525 0.98908 3.8791 0.98552 5.965-0.0046 2.7217-0.38374 4.3539-1.5524 6.6838-0.5408 1.0781-0.98326 2.0638-0.98326 2.1905 0 0.44615 1.1865 1.5745 1.9965 1.8986 4.5864 1.8351 10.83-1.7041 12.364-7.008 0.56862-1.9667 0.3492-3.8708-0.75041-6.512-0.50313-1.2085-1.3132-3.1557-1.8002-4.3271-1.4085-3.3881-1.8951-5.5615-1.7968-8.0264 0.07011-1.7589 0.16464-2.2314 0.66424-3.3203 0.99977-2.179 2.3343-3.198 4.2031-3.2094 0.92527-0.0056 1.2482 0.09059 1.9329 0.57593 1.0602 0.75148 1.5472 1.675 1.5418 2.9234-0.0058 1.3356-0.55251 2.4381-1.9206 3.8735-0.63306 0.66421-1.3086 1.5153-1.5013 1.8913l-0.35025 0.68359-0.14372-0.52965c-0.23121-0.8521 0.10502-1.8329 1.1676-3.4056 0.7699-1.1396 0.99471-1.6427 0.99471-2.2262 0-1.0032-0.34884-1.7171-1.0049-2.0563-1.83-0.94633-3.4771 0.67826-3.4801 3.4326-0.0029 2.664 0.8094 4.8074 3.2775 8.6478 2.8192 4.3868 3.5513 6.3226 3.5513 9.3905 0 5.5271-2.9165 10.218-7.9102 12.723-2.2525 1.13-3.8284 1.5236-6.1523 1.5366-2.1409 0.01197-3.6755-0.38748-6.5317-1.7001-1.4992-0.68903-1.9628-0.81305-3.0386-0.81305-1.4954 0-2.2885 0.44461-2.8304 1.5868-0.87965 1.8537 1.1579 3.7168 2.5464 2.3284 0.51457-0.51457 0.62511-1.2499 0.24503-1.63-0.28382-0.28382-0.9375-0.31105-0.9375-0.03906 0 0.10742 0.07849 0.19531 0.17442 0.19531 0.2962 0 0.43057 0.62061 0.19566 0.90366-0.12243 0.14752-0.43374 0.26821-0.6918 0.26821-0.55136 0-0.9171-0.73948-0.7315-1.479 0.16253-0.64757 1.1624-1.4507 1.806-1.4507 0.75375 0 1.2411 0.40602 2.5476 2.1223 2.4368 3.2012 4.0466 4.6764 8.4184 7.7151 4.3919 3.0526 4.7562 3.3301 6.3181 4.8111 3.8179 3.6202 5.4341 7.1571 4.8257 10.561-0.81798 4.5772-4.8815 7.9341-9.1244 7.5379-2.0955-0.19568-3.6443-1.1529-4.1611-2.5717l-0.21342-0.58594 0.51236 0.64018c1.2742 1.5921 3.8583 2.0013 5.9269 0.93858 1.3572-0.69724 2.6935-2.0758 3.4354-3.5442 0.52882-1.0465 0.58594-1.3408 0.58594-3.0191 0-1.6977-0.05445-1.9702-0.62567-3.1305-1.6353-3.3217-4.5173-5.3851-11.581-8.2917-4.4762-1.8418-6.575-3.0591-8.8091-5.1093-1.639-1.5042-2.288-1.6229-3.2944-0.60304-1.9551 1.9814-2.8346 6.2939-2.0612 10.107 0.64731 3.1921 2.4948 7.2572 5.5175 12.14 2.774 4.4812 4.3153 7.23 4.7529 8.4765 0.5876 1.6736 0.70619 3.8287 0.28954 5.2619-0.34631 1.1913-1.212 3.0285-1.7488 3.7114-0.27529 0.35022-0.27463 0.29971 0.0063-0.48828 0.17236-0.4834 0.35695-1.7578 0.41019-2.832 0.16094-3.247-0.25283-4.0643-4.4468-8.7842-1.4231-1.6015-3.1091-3.6155-3.7468-4.4756-1.6934-2.2839-3.1833-5.4525-3.7822-8.0436-0.27128-1.1738-0.80931-3.3206-1.1956-4.7708-1.5257-5.7274-1.829-8.0434-1.4293-10.916 0.2436-1.751 0.82527-3.5464 1.3041-4.0252 0.16106-0.16106 0.59547-0.29284 0.96535-0.29284 1.0882 0 1.988-0.97977 2.2421-2.4414 0.11207-0.64453 0.37476-1.6776 0.58374-2.2957 0.47653-1.4094 0.4742-1.6507-0.02819-2.9217-0.22449-0.56794-0.8475-2.3949-1.3845-4.06l-0.9763-3.0273 0.15021-2.6367c0.2477-4.3479 0.19068-5.2884-0.39894-6.5796-0.7574-1.6586-2.1644-3.006-3.7228-3.5649l-0.58376-0.20937 0.58594 0.43064c1.0262 0.75424 2.0409 1.9545 2.5348 2.9985 0.83561 1.7663 0.94049 2.631 0.686 5.6552-0.26982 3.2063-0.10842 4.2053 1.176 7.2794 0.42842 1.0253 0.77895 1.9383 0.77895 2.0288 0 0.09048-0.22255 0.1645-0.49455 0.1645-1.8291 0-4.4429 2.6327-6.3019 6.3477-0.96052 1.9195-1.5017 3.6448-2.0216 6.4453-0.36129 1.9461-0.41362 3.3074-0.55558 14.453-0.0862 6.7676-0.17612 12.349-0.19983 12.402-0.23722 0.53741-0.34509-2.5779-0.3652-10.547-0.01315-5.21-0.11538-10.703-0.22717-12.207-0.24765-3.3313-0.96626-7.0237-1.7752-9.1214-1.523-3.9494-5.4689-8.1692-7.2125-7.7132-0.20775 0.05433-0.37772 0.07439-0.37772 0.04459s0.38483-0.92245 0.85518-1.9837c1.21-2.73 1.3681-3.6844 1.2093-7.3006-0.14571-3.3191 0.01246-4.5496 0.78097-6.0757 0.61466-1.2206 1.3697-2.0819 2.4241-2.7652 0.56168-0.36403 0.70515-0.52048 0.39446-0.43015-1.792 0.52101-3.4169 1.9215-4.1572 3.5831-0.45698 1.0257-0.53342 3.1459-0.25434 7.0552 0.19277 2.7003 0.041 3.319-2.3568 9.6081-0.30207 0.79227-0.31643 1.0308-0.1058 1.7578 0.13403 0.46264 0.40867 1.6218 0.61031 2.5759 0.46916 2.2199 0.81935 2.6981 2.1623 2.9528 1.2501 0.23708 1.6098 0.65671 2.0925 2.4414 0.25742 0.95181 0.34405 2.0272 0.34614 4.2969 0.0028 3.0252 0.0021 3.0297-0.91702 6.25-0.5059 1.7725-1.1517 4.2738-1.435 5.5586-0.64594 2.9287-1.2314 4.5799-2.4698 6.9661-1.2196 2.3499-2.568 4.1506-5.4138 7.2297-2.5341 2.7418-3.595 4.2618-4.0641 5.8224-0.39604 1.3176-0.38764 3.7674 0.01812 5.2823 0.15821 0.59068 0.26094 1.1007 0.22829 1.1333s-0.24414-0.23961-0.46998-0.60502zm28.752-31.632c-0.20796-2.108 1.0366-5.7231 2.5986-7.5479 0.37165-0.43419 1.2304-1.1482 1.9084-1.5866 1.2805-0.8281 1.6771-1.3801 1.6771-2.3343 0-0.60593-0.83718-1.7636-1.2754-1.7636-0.9444 0 0.0892-1.3198 2.3894-3.0509 2.1474-1.6162 2.554-2.4567 1.8763-3.8779-0.63734-1.3365 0.44215-2.5343 1.6617-1.8437 0.47667 0.26991 0.52365 0.40118 0.52197 1.4584-0.0013 0.80403-0.13487 1.4292-0.43384 2.03-0.2376 0.47754-0.39874 0.9015-0.3581 0.94214 0.04064 0.04064 0.35263-0.07026 0.69332-0.24644 0.71615-0.37034 1.3569-1.6042 1.3701-2.6382 0.0073-0.56902 0.11226-0.7346 0.62647-0.98793 1.8406-0.90682 2.0055-3.4437 0.29164-4.4887-0.87289-0.53223-1.8006-0.49473-2.392 0.09669-0.57134 0.57134-0.66073 1.2046-0.13761 0.97473 0.78055-0.34292 1.7202-0.31718 2.1859 0.05987 0.64683 0.52377 0.60525 1.5539-0.08675 2.1492l-0.51214 0.44055-0.83507-0.48938c-2.4681-1.4464-4.8953 0.59875-3.6958 3.1141 0.45035 0.94439 0.19397 1.3666-1.9181 3.1585-2.4779 2.1023-3.2186 3.032-4.4844 5.6293-1.4963 3.0701-1.9821 5.0795-2.0098 8.3118-0.01847 2.1627 0.11983 3.5156 0.35938 3.5156 0.0439 0 0.0343-0.46143-0.02133-1.0254zm0.03655-5.1187c0.21222-1.3044 1.1877-3.1729 2.2343-4.2795 0.92841-0.98166 0.98042-1.0883 0.76325-1.5649-0.3485-0.76486 0.03352-1.488 0.78605-1.488 0.83047 0 1.1986 0.18708 1.3975 0.71023 0.28672 0.75412-0.09849 1.3745-1.2607 2.0304-1.6123 0.90993-2.7001 2.2027-3.567 4.2391-0.44642 1.0487-0.47059 1.0728-0.35343 0.35267zm-16.563 2.3844c-0.12099-3.7957-0.41593-5.1686-1.6889-7.8613-1.0448-2.2102-2.2409-3.7237-4.4818-5.6709-2.2495-1.9547-2.5868-2.5201-2.1055-3.5294 0.64153-1.3453 0.18477-2.6568-1.1451-3.2879-0.87676-0.41605-1.7956-0.31586-2.6441 0.28829-0.76044 0.54148-1.4206 0.39209-1.7468-0.39528-0.62069-1.4985 1.1243-2.7606 2.414-1.7461l0.51462 0.4048v-0.48828c0-0.29487-0.20385-0.64863-0.51462-0.89308-1.4-1.1012-3.5843 0.24422-3.5862 2.2089-9.05e-4 0.94002 0.60152 1.9523 1.3452 2.2603 0.50206 0.20796 0.57053 0.34503 0.64978 1.3006 0.09597 1.1572 0.54276 1.938 1.3814 2.4139 0.73079 0.41474 0.80213 0.18095 0.24316-0.79689-0.63684-1.1141-0.68763-2.7164-0.10458-3.2995 1.1484-1.1484 3.0321 0.38244 2.057 1.6717-0.37071 0.49013-0.37484 1.3264-0.01002 2.0319 0.15904 0.30755 1.1934 1.3464 2.2987 2.3086 2.6072 2.2697 2.6373 2.307 1.9906 2.4694-0.80847 0.20292-1.4534 1.0337-1.4534 1.8722 0 0.88567 0.50862 1.5794 1.6472 2.2466 2.6645 1.5615 4.7858 5.4699 4.7953 8.8352 0.0016 0.56396 0.05883 1.0254 0.1272 1.0254 0.06837 0 0.07599-1.5161 0.01692-3.3691zm-0.53186-1.9432c0-0.62124-1.3803-3.0204-2.1873-3.802-0.462-0.44742-1.2795-1.0682-1.8166-1.3794-0.84318-0.48866-0.98453-0.65901-1.0349-1.2473-0.0957-1.1183 1.174-1.8446 2.0108-1.1501 0.34782 0.28866 0.3881 1.195 0.06736 1.5158-0.1714 0.1714 0.01252 0.45296 0.75916 1.1621 0.54195 0.51474 1.1729 1.3096 1.4022 1.7663 0.47675 0.94973 1.0818 3.1514 0.91252 3.3207-0.06231 0.06231-0.11328-0.02139-0.11328-0.18599zm-2.4904 33.851c2.6252-2.7829 4.0046-5.5226 4.837-9.6072 0.42228-2.0721 0.56122-6.5931 0.27008-8.7878l-0.13551-1.0215-0.42408 1.1712c-0.56852 1.5701-1.4386 3.0923-3.0753 5.3802-1.6318 2.2811-1.9624 2.5628-1.0478 0.8931 1.7516-3.198 2.7868-6.3095 3.528-10.604 0.26005-1.5068 0.7085-3.5307 0.99655-4.4975 2.0049-6.729 2.2487-10.236 0.93913-13.509l-0.50803-1.2699 0.70364-0.64451c0.387-0.35448 0.70364-0.74252 0.70364-0.86231 0-0.29721-0.06462-0.28174-0.91228 0.2184-0.53889 0.31795-1.0502 0.4362-1.8863 0.4362-1.011 0-1.2022-0.06415-1.6122-0.54072-0.25581-0.2974-0.60722-1.0296-0.78091-1.627s-0.4889-1.4776-0.70046-1.9559c-0.66458-1.5024-0.06988-2.6649 1.1299-2.2088 0.92722 0.35253 3.1099 1.9009 3.9228 2.7828 1.597 1.7325 2.517 3.9071 3.081 7.2824 0.28238 1.6899 0.31412 3.387 0.24809 13.266-0.06531 9.7722-0.12262 11.57-0.41721 13.086-0.90975 4.6828-2.8321 8.36-5.8133 11.12-1.2093 1.1196-3.7431 2.8447-4.1783 2.8447-0.07484 0 0.43446-0.60478 1.1318-1.344zm7.2739-18.641c-0.4285-2.7778-0.44259-5.6088-0.03906-7.847 0.1743-0.9668 0.36374-2.5488 0.42098-3.5156l0.10406-1.7578-0.29916 1.0742c-0.16454 0.59082-0.58113 1.9092-0.92577 2.9297-0.57798 1.7115-0.6266 2.0525-0.6266 4.3945 0 2.4352 0.03196 2.6365 0.78125 4.9201 0.42969 1.3096 0.8127 2.2919 0.85114 2.1829 0.03844-0.10897-0.08164-1.1804-0.26684-2.381zm-1.3766-25.4c0.34161-0.22383 0.49938-0.50246 0.49938-0.88192 0-1.0961-3.2583-3.5238-4.0607-3.0255-1.2792 0.79435-0.74523 3.5169 0.82213 4.1919 0.59483 0.25617 2.1626 0.09338 2.7392-0.28444zm15.941 44.574c-2.534-1.4472-5.9796-5.7276-7.2474-9.0032-1.4516-3.7506-1.7487-6.8852-1.7487-18.45 0-11.364 0.20903-13.511 1.6003-16.439 1.0588-2.2279 4.9003-5.6877 6.3152-5.6877 0.92024 1e-6 1.1032 0.79918 0.50329 2.1987-0.20366 0.47512-0.47292 1.3582-0.59835 1.9624-0.44638 2.1502-2.4282 2.8899-4.4513 1.6613-0.88905-0.53991-0.86501-0.01031 0.03542 0.78028l0.67019 0.58843-0.47178 1.3566c-1.2012 3.4541-1.0936 6.7919 0.38886 12.058 0.48386 1.7188 1.1038 4.3555 1.3777 5.8594 0.72488 3.9806 1.5534 6.6317 2.9338 9.3877 0.66587 1.3294 1.1542 2.3821 1.0851 2.3394-0.22776-0.14076-2.3082-3.1077-3.1558-4.5005-0.45761-0.75195-1.0259-1.9195-1.2628-2.5946-0.55878-1.5922-0.67687-1.2851-0.80975 2.1063-0.1159 2.958 0.2549 6.3023 0.94767 8.5473 0.76107 2.4663 2.4873 5.4497 4.2384 7.3248 0.47803 0.51191 0.83044 0.96945 0.78313 1.0168-0.04731 0.04731-0.55723-0.18311-1.1332-0.51204zm-5.4576-21.707c0.45035-2.2496-0.09168-5.367-1.7899-10.295-0.26595-0.77167 0.0056 2.355 0.42148 4.8534 0.44107 2.6496 0.46777 5.5391 0.07337 7.9396-0.15885 0.9668-0.28344 1.9775-0.27687 2.2461 0.01439 0.58824 1.2524-3.1485 1.572-4.7445zm3.2458-23.045c0.58312-0.58312 1.0586-2.2437 0.85768-2.9952-0.32317-1.2084-1.2237-1.1091-2.9468 0.32485-1.5496 1.2896-1.8731 1.7772-1.5366 2.316 0.6731 1.0778 2.7037 1.2762 3.6257 0.35429z"/></svg>
