<svg width="100" height="100" version="1.1" viewBox="0 0 100 100" xml:space="preserve" xmlns="http://www.w3.org/2000/svg"><path d="m49.346 98.8c-1.0437-1.3334-3.2584-3.2375-6.4752-5.5672-3.567-2.5834-5.3046-4.1161-6.8328-6.0276-1.5345-1.9193-2.2711-3.1187-3.1348-5.1043l-0.66723-1.534 0.04189 1.9531c0.03608 1.682-0.01905 2.0774-0.3972 2.8484-0.2415 0.49242-0.64728 1.0909-0.90173 1.3299l-0.46264 0.43463-0.1357-0.93932c-0.18923-1.3098-0.81048-2.5943-2.5997-5.3753-2.8582-4.4424-4.2337-6.8959-4.7374-8.4503l-0.25181-0.77692-0.29857 0.63044c-0.16421 0.34674-0.36412 0.63044-0.44423 0.63044-0.26495 0-1.289-1.3802-1.8032-2.4305-1.6003-3.2682-2.1269-8.3982-1.1891-11.583 0.22234-0.7551-0.37155-0.52535-2.6505 1.0254-1.184 0.80566-2.1974 1.4648-2.252 1.4648-0.05457 0-0.04803-0.20397 0.01454-0.45327s-0.02365-1.0458-0.19159-1.7699c-0.39562-1.7059-0.37809-3.2912 0.05008-4.5298 0.58718-1.6985 2.0277-3.9907 3.4819-5.5406 1.1579-1.2341 1.8303-1.7337 3.9444-2.9309 1.4017-0.79374 2.7951-1.6481 3.0963-1.8986 0.58826-0.48909 0.78692-0.54733-3.5538 1.0418-0.42969 0.15731-2.0267 0.58569-3.549 0.95196-1.5223 0.36627-3.2309 0.84193-3.797 1.057s-1.0578 0.36244-1.0928 0.32744c-0.05447-0.05447 1.5131-1.5197 6.652-6.2175l1.0056-0.91928-0.72754-0.0085c-0.69632-0.0081-0.72271-0.03262-0.61493-0.5715 0.09779-0.48897 0.03933-0.58775-0.44434-0.75082l-0.55695-0.18777 0.97656-0.49938c0.53711-0.27466 1.1845-0.72238 1.4387-0.99494 0.41698-0.4471 0.45283-0.62566 0.36666-1.826-0.05253-0.73173-0.27727-2.1654-0.49942-3.1859-0.61355-2.8186-0.81785-5.2492-0.81609-9.7091 0.0029-7.4386 0.76464-11.641 2.9306-16.17 0.92012-1.9237 2.5959-4.4583 3.8714-5.8554 0.60184-0.65922 0.68331-0.69242 1.0742-0.43779 0.82564 0.53782 3.1821 3.6641 4.9152 6.5207 0.9668 1.5936 2.3865 3.7325 3.1548 4.753 2.4068 3.1966 8.5765 8.9844 9.5773 8.9844 0.25022 1e-6 0.2603-0.05266 0.05694-0.29769-0.13588-0.16373-0.20047-0.34427-0.14354-0.40121 0.05694-0.05694 0.61241 0.47253 1.2344 1.1766s1.2454 1.2801 1.3854 1.2801c0.33324 0 0.51776-0.77305 0.42262-1.7706-0.0857-0.89871-0.22031-0.87576 1.8424-0.31412 1.1735 0.31952 2.7903 0.20698 3.652-0.2542 0.33599-0.17982 0.39967-0.15611 0.39967 0.14881 0 0.19949-0.14172 0.77863-0.31494 1.287-0.17321 0.50836-0.26962 0.9696-0.21424 1.025 0.12374 0.12374 1.3057-0.48612 2.4776-1.2784 0.56716-0.38342 0.94107-0.52422 1.0645-0.40083 0.34141 0.34141 0.72652 0.20405 2.0404-0.72772 2.3123-1.6398 5.3834-4.9492 8.7544-9.4336 6.1704-8.2083 7.5818-10.034 7.8143-10.108 0.38-0.12094 2.1377 2.416 3.282 4.7369 2.0466 4.1512 2.7163 8.0137 2.7259 15.723 0.0072 5.7973-0.16073 7.6378-1.025 11.23-0.29604 1.2306-0.51981 2.7325-0.52382 3.5156l-7e-3 1.3672-0.92543-0.96259c-1.0108-1.0514-1.3926-1.0855-0.79474-0.07114 0.20847 0.35371 0.47867 0.92933 0.60044 1.2792 0.21497 0.61758 0.2075 0.63256-0.25717 0.51594-0.26321-0.06606-0.47857-0.07913-0.47857-0.02905 0 0.12283 1.831 1.2203 4.1516 2.4884 1.8819 1.0284 2.3188 1.425 1.1027 1.0011-0.34378-0.11984-0.84811-0.2179-1.1207-0.2179h-0.49568l1.0764 1.1235-2.2037 0.27533 1.4775 1.4002c1.0528 0.99766 1.8782 2.0459 2.8714 3.6463 1.7239 2.7779 2.5554 3.7841 3.9544 4.7852 1.0965 0.78462 1.3091 1.0565 0.85608 1.0949-1.3572 0.11505-3.5821-0.47998-6.0449-1.6166-1.8802-0.86776-3.4766-1.3656-3.4766-1.0842 0 0.24796 4.1861 3.6088 6.3021 5.0596 1.2671 0.86881 2.2791 1.6005 2.2489 1.626-0.03021 0.02549-1.0657-0.20521-2.301-0.51266-1.2354-0.30745-2.4289-0.55993-2.6522-0.56107-0.39453-2e-3 -0.39042 0.03006 0.14376 1.121 0.98596 2.0135 1.2284 3.3473 1.234 6.7871 0.0043 2.6823-0.05725 3.3343-0.43445 4.6023-0.2417 0.81252-0.43945 1.7573-0.43945 2.0996s-0.0477 0.62231-0.106 0.62231c-0.17184 0-2.1105-1.4772-2.4747-1.8856-0.18399-0.20632-0.54737-0.85526-0.80748-1.442l-0.47294-1.0668-0.23674 0.87891c-0.1302 0.4834-0.62376 1.8202-1.0968 2.9706s-0.86141 2.293-0.86305 2.5391c-0.0016 0.24607-0.08781 0.57923-0.19149 0.74036-0.15252 0.23705-0.47814-0.0053-1.706-1.2695l-1.5175-1.5625v1.9531c0 1.7505-0.05756 2.0704-0.55496 3.0833-0.30523 0.6216-1.2382 2.0799-2.0733 3.2406-1.9315 2.6847-2.466 3.6086-2.7526 4.7577-0.13002 0.52134-0.31584 0.87273-0.42563 0.80487-0.38581-0.23844-0.99938-1.9491-1.111-3.0974l-0.11387-1.1719-1.1977 2.3438c-0.65876 1.2891-1.6256 3.1948-2.1484 4.2349-0.52288 1.0401-1.0065 1.8971-1.0747 1.9043-0.37048 0.03932-0.84747-1.3002-1.3064-3.6688l-0.51652-2.6657-0.13558 1.8555c-0.07457 1.0205-0.2774 2.3828-0.45073 3.0273-0.34467 1.2816-2.612 6.1523-2.864 6.1523-0.08609 0-0.39054-0.75058-0.67656-1.6679-0.28602-0.91737-0.59416-1.6425-0.68474-1.6113-0.09059 0.03114-1.2129 1.0854-2.494 2.3428-2.4863 2.4403-3.3915 3.8138-3.6502 5.5391-0.07183 0.47902-0.18638 0.90365-0.25456 0.94362-0.06817 0.03997-0.46207-0.3593-0.87533-0.88726zm3.7787-16.938c1.0809-0.41394 3.3203-2.0138 3.3203-2.3721 0-0.36276-1.098-0.19214-2.7458 0.4267-1.4616 0.54888-1.8815 0.61981-3.6995 0.62497-1.7869 0.0051-2.2267-0.06355-3.418-0.5333-1.8954-0.74742-2.5891-0.94136-3.087-0.86304-0.39046 0.06142-0.35035 0.14166 0.45027 0.90077 0.85457 0.81026 3.1154 2.0498 4.1016 2.2489 1.1072 0.22344 4.0105-0.02407 5.0781-0.4329zm-4.1261-4.2098c0.85021-0.44251 0.64644-0.64112-1.4365-1.4001-2.2604-0.82364-2.9554-1.5775-3.7648-4.0836-0.59821-1.8523-0.62461-2.059-0.51121-4.0039 0.10501-1.8011 0.059-2.2886-0.37786-4.0039-0.27359-1.0742-0.76143-2.6385-1.0841-3.4763-0.32267-0.83773-0.64365-1.7826-0.71328-2.0996-0.26424-1.2031-0.42984-0.47676-0.55545 2.4363-0.1312 3.0429-0.51505 5.86-0.93754 6.8807-0.22804 0.55091-0.23122 0.54721-0.36615-0.4254-0.31801-2.2922-1.2428-4.5069-3.4235-8.1985-0.57111-0.9668-1.2856-2.3692-1.5878-3.1164l-0.54938-1.3586-0.05787 0.98306c-0.05202 0.88371 0.47474 3.8604 0.85987 4.859 0.11394 0.29544-0.06061 0.21893-0.71631-0.31401-0.47682-0.38755-1.7836-1.2972-2.9039-2.0215-1.1203-0.7243-2.5486-1.8049-3.1738-2.4013-1.1503-1.0972-1.4888-1.1558-0.71382-0.12351 0.83482 1.1119 1.8544 2.095 3.7762 3.6411 2.4601 1.9791 3.8046 3.2612 4.9057 4.6781 1.5387 1.9799 1.734 2.5807 2.6035 8.0064 0.23305 1.4544 0.64917 2.2989 1.719 3.4888 0.99018 1.1013 2.2384 1.8997 3.551 2.2714 1.2747 0.3609 4.6007 0.22783 5.458-0.21837zm8.3184 0.06857c1.4567-0.54503 2.8251-1.6661 3.4581-2.833 0.28682-0.52878 0.70923-1.6985 0.93869-2.5994 0.88918-3.491 2.3061-5.6258 6.8317-10.293 3.1949-3.295 4.4759-4.9371 4.7858-6.1352 0.10609-0.4101 0.02453-0.3632-0.50942 0.29297-1.2393 1.5229-2.2826 2.3952-4.5406 3.7963-3.8093 2.3636-5.2383 3.94-6.2934 6.943l-0.54798 1.5596-0.34902-2.4385c-0.37437-2.6156-0.47916-5.5754-0.25056-7.0771 0.15614-1.0257 0.04277-1.1137-0.84056-0.6522-1.468 0.7669-2.3812 2.5438-2.9571 5.7532-0.4231 2.3582-0.40089 2.6607 0.31413 4.2795 0.25045 0.56703 0.45536 1.0666 0.45536 1.1101 0 0.04351-0.24093 0.10692-0.53541 0.14092-0.48285 0.05573-0.54932 0.15917-0.67716 1.0537-0.19412 1.3583-1.2445 4.0407-1.7723 4.5261-0.23819 0.21902-1.29 0.73384-2.3374 1.144-1.0474 0.4102-1.9043 0.81708-1.9043 0.90418 0 0.0871 0.2417 0.25519 0.53711 0.37353 1.7087 0.68449 4.582 0.75482 6.1943 0.15161zm9.4144-1.3293c1.1408-1.4617 1.5113-2.7614 1.5212-5.3362 0.0055-1.4158-0.07307-2.367-0.20644-2.5004-0.1568-0.1568-0.2481 0.0925-0.33621 0.91797-0.21322 1.9977-0.9208 4.4029-1.856 6.309-0.5007 1.0205-0.94582 1.9382-0.98916 2.0393-0.18556 0.43299 1.3022-0.70655 1.8666-1.4297zm-33.368-1.0491c-0.03473-0.13428-0.39056-1.2549-0.79073-2.4902-0.40017-1.2354-0.83281-2.9053-0.96141-3.7109l-0.23383-1.4648-0.34894 1.4648c-0.53158 2.2316-0.47653 3.4123 0.21529 4.6186 0.59758 1.0419 1.4147 1.8267 1.9018 1.8267 0.15452 0 0.25253-0.10986 0.2178-0.24414zm14.39-0.92774c0.28967-0.56015 0.28516-0.58594-0.10234-0.58594-0.47403 0-1.5578 0.52436-1.5578 0.75371 0 0.28705 0.25359 0.41816 0.80879 0.41816 0.41176 0 0.62386-0.14597 0.85137-0.58594zm5.5229 0.28189c0.58675-0.41098 0.54641-0.67314-0.10303-0.66953-0.81179 0.0045-1.1617 0.28103-0.84243 0.66572 0.31724 0.38225 0.40465 0.38261 0.94546 0.0038zm-23.048-2.0885c-0.7366-2.0626-0.78444-2.3285-0.78078-4.3395 0.0036-1.9489-0.02269-2.1075-0.29077-1.7578-0.6196 0.80829-1.0942 2.1855-1.1835 3.4346-0.08242 1.1519-0.03096 1.4125 0.4551 2.3056 0.5216 0.95835 2.0248 2.5544 2.4058 2.5544 0.0984 0-0.17419-0.98877-0.60577-2.1973zm19.967-2.2327c4.7356-0.16436 4.1053-0.41589-1.0986-0.43842-3.6904-0.01597-4.5654 0.08345-4.5654 0.51873 0 0.22795 0.17552 0.26471 0.83008 0.17386 0.45654-0.06337 2.6318-0.17774 4.834-0.25418zm22.22-0.6482c0.635-0.752 1.146-2.9467 0.68035-2.9219-0.18135 0.0097-1.6211 3.1138-1.6155 3.4829 0.0035 0.2272 0.05623 0.2272 0.34593 0 0.18799-0.14743 0.45312-0.39989 0.58918-0.56102zm-17.065-15.482c0.49735-1.804 1.1643-2.9092 3.1228-5.1747 2.3715-2.7433 3.4183-3.6563 4.5056-3.9301 0.51587-0.1299 2.7267-0.21809 5.4671-0.21809 2.5306 0 4.601-0.07565 4.601-0.16812 0-0.15604-1.4213-0.64961-3.5156-1.2208-0.4834-0.13185-1.9336-0.24681-3.2227-0.25547-2.3319-0.01567-2.3519-0.0119-3.9464 0.7434-2.2661 1.0734-5.9933 4.2727-6.7394 5.7848-1.2535 2.5406-2.0571 12.551-1.1795 14.692l0.3418 0.83403 0.1273-4.9805c0.09242-3.616 0.21237-5.289 0.43783-6.1068zm-8.7976 9.0223c0.18081-1.7299-0.21004-6.5557-0.75146-9.2784-0.85312-4.2902-1.5885-5.6603-4.0229-7.4946-0.89809-0.67673-1.8326-1.3214-2.0767-1.4326-1.1537-0.52567 0.21416-0.73266 1.7224-0.26065 0.47362 0.14822 1.0149 0.3334 1.2029 0.41152 0.64678 0.26876 0.35143-0.30929-0.74576-1.4596-0.65426-0.68592-1.6189-1.4194-2.4211-1.841-1.8872-0.99167-2.1867-0.92808-1.197 0.25406 1.2709 1.518 1.2473 1.5351-2.0814 1.5091-2.5374-0.01985-3.0363 0.03116-4.1844 0.42792-0.71697 0.24775-1.4037 0.57112-1.5261 0.7186-0.18744 0.22586 0.34152 0.26262 3.3544 0.23314 3.337-0.03266 3.6293-0.0066 4.3581 0.38895 0.90947 0.49354 2.1817 1.7808 4.271 4.3212 1.6515 2.0082 2.3877 3.3013 2.6683 4.6868 0.1532 0.75646 0.74043 8.4581 0.7775 10.197 0.02018 0.94676 0.51942-0.11055 0.65224-1.3814zm12.469-9.8414c0.77022-0.30818 0.90777-0.30767 2.2501 0.0084 1.2066 0.28415 1.5587 0.29882 2.2565 0.09398 1.1375-0.33392 2.5564-1.2693 3.3875-2.2332 0.72243-0.83786 2.7471-4.7436 2.5573-4.9333-0.26613-0.26613-0.95506 0.23644-2.1555 1.5724-1.6818 1.8717-2.4741 2.2614-4.5979 2.2614-2.2202 0-3.2092 0.28195-3.9505 1.1262-0.64753 0.73749-1.2071 1.8902-1.4464 2.9796l-0.14764 0.67221 0.51301-0.60968c0.28216-0.33532 0.88218-0.75739 1.3334-0.93792zm-19.39-0.1169c1.0572-0.4018 2.551-0.5309 3.3198-0.28689 0.22429 0.07119 0.40781 0.04862 0.40781-0.05016 0-0.39808-0.93379-1.5269-1.7205-2.0798-0.76646-0.53869-1.0093-0.59676-2.9268-0.69987-1.15-0.06184-2.3107-0.22667-2.5793-0.36628-0.26855-0.13961-1.1611-0.94854-1.9834-1.7976-2.0376-2.1039-2.3134-2.0517-1.468 0.27732 0.90968 2.5061 2.208 4.1406 3.9239 4.9395 1.2185 0.56737 1.6762 0.57702 3.0266 0.06378zm-1.0604-4.8899c0.25158-0.24908-0.22171-1.0897-0.89497-1.5896-0.49472-0.36731-2.9108-0.74916-2.9108-0.46005 0 0.29758 0.57715 1.2158 1.0301 1.6388 0.78371 0.73194 2.2344 0.94664 2.7756 0.4108zm26.358-0.0017c0.54166-0.37216 1.8676-1.9161 1.8676-2.1746 0-0.12713-1.071-0.01128-2.5324 0.27394-0.79786 0.15572-1.2402 0.38104-1.7512 0.89199l-0.68365 0.68365 0.45444 0.36798c0.62061 0.50254 1.8811 0.48209 2.6452-0.04291zm-3.2867-4.2308c0.11929-0.07892 0.36128-0.42533 0.53775-0.7698 0.17648-0.34447 0.72872-0.93773 1.2272-1.3184 0.82477-0.62976 0.86208-0.69205 0.41454-0.69205-1.5885 0-4.4379 1.9593-3.9642 2.7258 0.14326 0.2318 1.4561 0.27183 1.7847 0.05443zm-37.359-5.3021c0.87756-0.6352 2.6942-1.7006 4.037-2.3674 2.6844-1.3332 4.8828-2.7856 4.8828-3.226 0-0.91893-4.3042 0.7526-6.718 2.6089-2.3281 1.7904-5.0867 4.6341-4.1449 4.2727 0.19113-0.07334 1.0655-0.65306 1.9431-1.2883zm49.301-3.8512c0.77974-0.20896 0.46966-0.40713-0.78125-0.49928-1.3935-0.10265-3.7119 0.09677-3.2715 0.28139 0.75221 0.3153 3.1985 0.44682 4.0527 0.21788zm-3.308-2.7578c-0.38594-0.40283-0.84323-1.0137-1.0162-1.3575-0.66827-1.3282-0.18569-3.4923 0.94379-4.2324 0.75905-0.49735 0.60074-0.67725-0.4282-0.48658-2.0035 0.37126-3.0188 0.77773-3.8281 1.5326-0.79696 0.74338-0.81059 0.77843-0.81059 2.084v1.3279l0.98392 0.14342c0.54116 0.07888 1.7277 0.49597 2.6367 0.92687 2.0843 0.98798 2.4191 1.0016 1.5186 0.06178zm-35.769-1.3322 1.0109-0.13026 0.13268-1.4158c0.10994-1.1733 0.06781-1.5625-0.2459-2.2717-0.64517-1.4585-1.8848-2.2829-4.2035-2.7953-0.6173-0.13643-0.64721-0.07025-0.24542 0.54297 0.49746 0.75923 1.0755 3.4295 1.0755 4.9684v1.4586l0.73242-0.11325c0.40283-0.06229 1.1873-0.17187 1.7433-0.24352zm6.7039-5.7128c0-0.19558-0.2417-0.83218-0.53711-1.4147-0.74316-1.4654-1.7847-2.1927-4.2123-2.9416-1.0939-0.33744-2.3092-0.77465-2.7006-0.97158-0.93302-0.4694-2.2182-1.9951-3.6978-4.3899l-1.1976-1.9384 0.12463 1.33c0.17926 1.9129 1.119 5.3868 1.7473 6.4588 0.87859 1.4992 2.4927 2.5104 4.5824 2.8707 0.60821 0.10488 1.3036 0.23398 1.5453 0.28688 0.37993 0.08315 0.43945 0.01631 0.43945-0.49348 0-0.40432 0.09588-0.58966 0.30506-0.58966 0.58357 0 2.4219 1.0037 2.8637 1.5635 0.5187 0.65731 0.73753 0.72537 0.73753 0.22938zm26.165-0.325c1.4116-0.49922 2.5207-1.2422 3.1584-2.1157 1.2277-1.6816 3.4658-6.7447 3.2576-7.3693-0.04234-0.12702-0.6449 0.42079-1.339 1.2174s-1.6575 1.7774-2.1409 2.1795c-0.76513 0.63653-5.1432 2.9174-6.9833 3.6382-0.70032 0.27431-1.8057 1.4177-1.8057 1.8678 0 0.36142 0.19532 0.36209 0.70879 0.0024 0.6532-0.45752 3.0576-1.3014 3.2265-1.1325 0.08521 0.0852 0.02563 0.58452-0.1324 1.1096-0.15802 0.52507-0.28731 1.0192-0.28731 1.0982 0 0.17142 1.1271-0.06756 2.3374-0.49557z"/></svg>
