<svg width="100" height="100" version="1.1" viewBox="0 0 100 100" xml:space="preserve" xmlns="http://www.w3.org/2000/svg"><path d="m46.973 92.834c-2.8568-0.3693-6.7724-1.4583-8.1533-2.2676-1.4372-0.84223-1.4759-1.0631-0.75174-4.2818 0.34512-1.5339 1.5391-6.9637 2.6534-12.066 4.9397-22.621 5.4844-24.944 6.2586-26.695l0.48615-1.0993-0.28951-2.0699c-0.15923-1.1384-0.3808-3.2564-0.49239-4.7066-0.39539-5.1388-0.41386-5.1762-0.80746-1.6347-0.66253 5.9613-2.33 16.033-2.9046 17.545l-0.18554 0.48802-0.9747-0.60591c-1.3088-0.81358-1.6746-0.67391-1.4895 0.56874 0.0757 0.50835 0.18334 1.2461 0.23919 1.6394 0.05848 0.41185-0.04343 1.1988-0.24026 1.8555-0.29596 0.98732-0.35892 1.0748-0.46935 0.652l-0.12754-0.48828-0.13279 0.48828c-0.07303 0.26856-0.13399 0.69336-0.13546 0.94401-0.0035 0.59602-0.46498 0.45169-0.56931-0.17806-0.06417-0.38733-0.1226-0.31382-0.32262 0.40592l-0.24426 0.87891-0.04183-1.0742c-0.04266-1.0955-0.07042-1.0689-0.29196 0.27946-0.15119 0.92021-0.47559 0.60407-0.48716-0.47477l-0.0073-0.68359-0.79414 0.97656 0.12571-1.0742c0.1243-1.0621 0.43627-1.8237 1.7602-4.2969 0.37378-0.69824 0.65653-1.4372 0.62833-1.642-0.03786-0.27508-0.50301-0.53954-1.7787-1.0113-0.95007-0.35132-1.7788-0.69018-1.8416-0.75301-0.27212-0.27212 2.4976-5.1818 3.9546-7.0101 1.1099-1.3928 1.1536-1.5171 1.7609-5.0133 0.68912-3.967 1.3303-6.9766 1.6931-7.9472 0.62827-1.6808 1.653-2.3548 4.114-2.7061 0.87512-0.1249 0.96698-0.09232 1.7951 0.6366 0.79222 0.69734 1.9541 1.2276 2.6897 1.2276 0.73518 0 2.3386-0.65239 3.1772-1.2928 0.88843-0.67837 0.9772-0.70372 2.0317-0.58032 1.4794 0.17313 2.6846 0.7866 3.2633 1.6611 0.27556 0.4164 0.59848 1.3692 0.76978 2.2713 0.1623 0.85468 0.67933 3.5499 1.149 5.9893l0.85387 4.4354 0.81602 0.92705c1.2812 1.4555 4.5397 7.1267 4.2572 7.4093-0.07651 0.07651-0.95302 0.42144-1.9478 0.7665-2.186 0.75827-2.2807 0.97343-1.2016 2.7295 1.5157 2.4666 1.7323 3.0275 1.7346 4.4922 0.0027 1.7393-0.11392 2.0304-0.76373 1.9062-0.42562-0.08136-0.50719-0.20626-0.52633-0.80594-0.01319-0.41323-0.0619-0.54649-0.11661-0.31903-0.18584 0.77262-0.4466 0.76705-0.45673-0.0098l-0.01006-0.77148-0.30335 0.73131c-0.37534 0.90486-0.65109 0.77797-0.6593-0.30339-0.0058-0.76215-0.02597-0.79243-0.29297-0.43942-0.20033 0.26485-0.28676 0.29543-0.28676 0.10143 0-0.15273-0.19188-0.74065-0.42641-1.3065-0.41471-1.0006-0.41739-1.0574-0.09766-2.0717 0.37914-1.2028 0.42106-2.0027 0.11486-2.192-0.11764-0.07271-0.73288 0.13547-1.3672 0.46261s-1.1533 0.55406-1.1533 0.50426c0-0.0498-0.21595-1.3452-0.47989-2.8787-0.57246-3.3261-1.1368-7.5499-1.6428-12.295-0.20388-1.9121-0.41212-3.5179-0.46276-3.5686-0.05064-0.05064-0.15262 0.63489-0.22664 1.5234-0.07401 0.8885-0.34553 3.005-0.60338 4.7033l-0.4688 3.0878 0.54635 1.795c0.30049 0.98723 0.99639 3.7286 1.5464 6.0918 1.0867 4.6689 6.8696 33.713 6.8696 34.501 0 1.1357-1.7705 2.1172-5.5664 3.086-2.8062 0.71622-5.2868 0.98619-8.7891 0.95654-1.8262-0.01546-3.584-0.0622-3.9062-0.10386zm-26.944-38.522c-0.05993-0.09697 0.3089-0.48608 0.81963-0.86469 1.1322-0.83929 3.8369-3.5947 7.1449-7.2787 1.3615-1.5162 2.8049-2.9845 3.2077-3.2628 0.7601-0.52528 3.7529-1.967 3.853-1.8561 0.10853 0.12021-11.919 11.784-12.694 12.31-1.0253 0.69595-2.1942 1.1735-2.3309 0.95229zm58.175-0.76781c-2.2448-1.5769-4.4627-3.9688-10.397-11.213l-1.4313-1.7472 0.98998 0.53881c1.9085 1.0387 3.2051 2.3007 5.8158 5.6601 2.8833 3.7102 4.4592 5.3909 6.2595 6.6755 0.67268 0.48001 1.2231 0.90898 1.2231 0.95326 0 0.04428-0.24989 0.08051-0.55531 0.08051-0.34854 0-1.0576-0.35284-1.9043-0.94761zm-62.331-6.7749c-1.0355-0.27889-3.4769-1.4194-3.3372-1.559 0.04192-0.04192 0.46829 0.06216 0.9475 0.2313 0.4792 0.16913 1.6623 0.35179 2.6291 0.40591 2.8895 0.16174 4.4919-0.39197 8.4737-2.9281 1.0328-0.65784 3.3281-1.896 5.1005-2.7514s3.7061-1.8581 4.2969-2.2281l1.0742-0.67276-1.8555 1.8915c-1.3329 1.3587-2.5981 2.3868-4.4922 3.6502-5.533 3.6906-9.4044 4.885-12.837 3.9605zm63.618-0.26004c-2.9025-0.93033-7.2557-3.8954-10.306-7.0195-0.99539-1.0195-1.7677-1.8958-1.7162-1.9472 0.16055-0.16055 4.3974 2.2611 6.7017 3.8304 5.8784 4.0035 6.7989 4.4164 9.8126 4.4009 1.4738-0.0075 2.1466-0.11221 3.2708-0.5088 1.5701-0.55391 1.6823-0.43932 0.31708 0.32374-2.2868 1.2781-5.7377 1.6712-8.08 0.92043zm-41.186-2.0883c-0.42112-0.53536-0.6996-1.304-0.89528-2.471-0.087357-0.52097-0.26591-0.79615-0.63365-0.97656-0.98558-0.48352-1.3175-1.2006-1.4563-3.1459-0.070334-0.98604-0.22849-2.408-0.35145-3.16-0.13845-0.84667-0.17802-2.3339-0.10391-3.9062 0.20474-4.3444-0.35557-6.646-1.8603-7.6418-0.4597-0.30421-1.3491-0.59761-2.3689-0.78142-5.9251-1.068-8.6994-1.7005-10.21-2.3278-0.26712-0.11093-0.33275-0.08877-0.22991 0.07763 0.25485 0.41236 2.2963 1.3285 4.8518 2.1773 1.3696 0.45493 2.4902 0.86614 2.4902 0.9138 0 0.09172-0.97759-0.01821-3.2227-0.36238-2.5242-0.38695-7.2223-2.3555-9.9625-4.1743-1.0631-0.70565-1.3678-1.0244-0.75428-0.78894 0.54472 0.20903 3.9831 0.6607 6.0293 0.79202 6.0595 0.38887 12.19 1.1302 13.867 1.6767 2.2955 0.74824 4.3271 2.5224 6.2771 5.4817 0.68076 1.0331 1.3695 1.9878 1.5306 2.1215 0.61254 0.50836 1.2348-0.34804 0.66612-0.91674-0.1197-0.1197-0.22438-0.66511-0.23263-1.212-0.01855-1.2294 0.34742-1.7714 1.9314-2.8605 1.6229-1.1158 1.8168-1.5203 1.3851-2.8896-0.18983-0.6022-0.28574-1.2965-0.21696-1.5705 0.0678-0.27014 0.62004-0.89654 1.2272-1.392 0.81469-0.66483 1.2069-1.1608 1.4968-1.8931 0.62166-1.57 1.0959-1.8111 3.5765-1.8183 1.1469-0.0033 2.1931-0.07316 2.3249-0.15523 0.39286-0.2446 1.8332 0.2509 2.4121 0.82982 0.29658 0.29658 0.63191 0.8834 0.74518 1.304 0.13886 0.51568 0.56463 1.1142 1.3071 1.8375 1.3033 1.2696 1.6943 2.0546 1.5312 3.0744-0.09949 0.6222-0.02589 0.84826 0.48589 1.4922 0.76892 0.96756 0.80518 2.0038 0.11251 3.2154-0.61484 1.0755-0.61264 1.5929 0.0096 2.2644 0.63045 0.68026 0.7582 0.58036 2.0804-1.6268 1.2166-2.0309 3.3474-4.2061 4.8471-4.9481 1.9416-0.96072 4.4571-1.4005 10.936-1.9122 2.3089-0.18232 3.7766-0.38092 5.1758-0.70034 0.71284-0.16273-2.5899 1.4678-4.5334 2.2381-2.1557 0.8544-3.5771 1.2324-6.4041 1.7029-2.1752 0.36204-2.8234 0.62279-3.7769 1.5192-1.5214 1.4304-1.8856 3.124-1.7068 7.9371 0.11024 2.9674 0.0792 3.6042-0.23546 4.8309-0.20046 0.78146-0.29231 1.5234-0.20551 1.6602 0.08631 0.13598 0.15828 0.61874 0.15992 1.0728 0.0024 0.66692-0.09085 0.88706-0.48529 1.1455-0.26856 0.17596-0.49181 0.50758-0.49612 0.73692-0.0087 0.46219-0.70282 2.1487-1.174 2.8524-0.29017 0.4334-0.31266 0.37939-0.5349-1.2845-0.25366-1.8992-1.772-8.6819-2.2979-10.265-0.63833-1.9218-2.1682-2.9114-4.9663-3.2125-1.6124-0.17349-2.1957-0.69578-2.5512-2.2842-0.28388-1.2685-0.57776-1.4619-0.57614-0.3792 0.0017 1.1732 0.35707 2.1352 0.9833 2.6622l0.58233 0.49-0.91965 0.63274c-1.5546 1.0696-3.2629 0.98672-4.7238-0.22913l-0.46341-0.38569 0.51614-0.40599c0.6842-0.53819 1.0195-1.2318 1.1845-2.45 0.19691-1.4543-0.1845-1.4672-0.49099-0.01667-0.35238 1.6677-0.91646 2.2151-2.4468 2.3746-3.3094 0.34487-4.3738 0.91946-5.3401 2.8826-0.53882 1.0947-2.0323 7.0538-2.9889 11.926-0.12128 0.61768-0.2865 1.123-0.36716 1.123-0.08067 0-0.32382-0.22522-0.54034-0.50048zm6.1184-19.561c0.28527-0.24538 0.69796-0.44614 0.91709-0.44614 0.43297 0 1.5329-0.58249 1.5329-0.81178 0-0.07789-0.2417-0.01554-0.53711 0.13856-0.29541 0.1541-0.8707 0.28072-1.2784 0.28139-1.168 0.0019-1.7035 0.66596-1.6869 2.0919l0.01318 1.1319 0.26029-0.96988c0.15479-0.57675 0.47053-1.1507 0.77896-1.416zm9.5399 0.09097c1.0487-1.0493 1.7112-2.4499 1.8183-3.8443l0.08354-1.0873-0.30394 1.0695c-0.66796 2.3504-2.0904 3.911-3.5649 3.911-0.73043 0-0.96904-0.1181-1.79-0.88598-0.966-0.90358-1.6477-2.1727-1.9731-3.6734-0.15634-0.72094-0.16849-0.66674-0.10862 0.48441 0.08148 1.5666 0.74868 2.927 2.0022 4.0824 0.7677 0.70764 0.93202 0.77375 1.9231 0.77375 1.0146 0 1.1366-0.05292 1.9133-0.83008zm4.5379-1.3054c-0.42056-0.81327-0.50421-0.75373-0.18758 0.13352 0.14376 0.40283 0.27841 0.9082 0.29922 1.123 0.02622 0.27066 0.06244 0.22966 0.11795-0.13352 0.04406-0.28828-0.05925-0.79365-0.22959-1.123zm-2.51-4.3465c-0.06235-0.15581-0.10863-0.10953-0.118 0.118-0.0085 0.20589 0.03768 0.32125 0.10258 0.25635 0.0649-0.0649 0.07184-0.23336 0.01542-0.37435zm-44.932 21.31c-3.2487-0.79814-5.7744-2.5763-7.7464-5.4535l-0.46852-0.68359 0.71893 0.62302c3.6831 3.1917 8.6938 4.8512 13.127 4.3474 2.0426-0.2321 4.6749-1.0878 8.9917-2.923 3.2872-1.3975 4.6223-1.7853 4.8544-1.4098 0.20752 0.33578-1.6406 1.6011-4.0731 2.7885-2.7588 1.3468-5.7093 2.3948-7.9258 2.8152-2.1997 0.41727-5.5454 0.37064-7.4783-0.10423zm71.697 0.10119c-3.7159-0.5783-9.8662-3.1398-12.446-5.1834l-1.2695-1.0058 0.97656 0.11316c0.59049 0.06842 2.199 0.65677 4.0686 1.4882 6.0275 2.6805 9.0063 3.4015 12.262 2.968 3.0518-0.40632 6.4027-1.6828 8.3903-3.1961 1.6342-1.2442 1.6881-1.2155 0.5228 0.27832-1.5341 1.9666-3.2528 3.1802-5.5937 3.9499-1.2452 0.40944-4.2844 0.94068-4.9969 0.87343-0.11024-0.0104-0.97199-0.13899-1.915-0.28575zm-70.265-5.8345c-2.6824-0.55892-5.5506-1.7314-7.2316-2.9562-0.94961-0.6919-2.3273-2.3438-3.1794-3.8124-0.75738-1.3053-0.64587-1.3605 0.50545-0.2502 1.32 1.2729 1.8435 1.6222 4.1782 2.7875 2.4329 1.2143 5.5384 2.2462 7.7158 2.5639 2.2735 0.33167 6.0578 0.15331 10.301-0.48553 1.868-0.28122 3.4814-0.48295 3.5854-0.44828 0.24858 0.08286-4.9556 1.7822-7.0794 2.3117-2.1282 0.53057-6.8872 0.68727-8.7956 0.28961zm67.585-0.31908c-1.0205-0.22043-3.2617-0.87753-4.9805-1.4602l-3.125-1.0595 1.3672 0.10716c0.75195 0.05894 2.5006 0.27722 3.8859 0.48506 3.1195 0.46804 7.1592 0.50028 9.2247 0.07363 3.9181-0.8093 8.2557-2.9162 10.764-5.2283 0.49096-0.45255 0.83234-0.65318 0.83234-0.48917 0 0.5031-1.9359 3.2389-2.8816 4.0723-3.5131 3.0958-9.9945 4.5989-15.087 3.4989zm-60.882-3.7879c-6.0291-1.2524-11.18-3.3131-14.447-5.7791-1.7975-1.3571-3.7467-4.3872-4.0772-6.338l-0.13235-0.78125 0.80912 1.235c1.5863 2.4211 3.7715 4.1513 7.786 6.1646 5.5536 2.7852 13.106 5.0343 18.501 5.5101 1.6478 0.14528 1.7028 0.1639 0.87891 0.29763-0.4834 0.07846-2.2852 0.14342-4.0039 0.14436-2.5202 0.0014-3.5489-0.08635-5.3155-0.45331zm52.995 0.08461c-1.8001-0.20588-2.1603-0.38531-0.77356-0.38531 2.9905 0 10.051-1.8187 15.67-4.036 5.6895-2.2455 8.6407-4.1881 10.884-7.1644 0.87581-1.1619 0.90149-1.1792 0.77199-0.51833-0.07368 0.37598-0.45031 1.3428-0.83696 2.1484-2.0615 4.2955-7.7314 7.3877-17.395 9.4864-2.507 0.54448-5.9601 0.73921-8.3206 0.46923zm-47.452-3.8124c-8.3449-1.6588-21.631-9.7595-24.326-14.832-0.5077-0.95562-0.50885-1.0066-0.025485-1.133 0.39265-0.10268 1.4365 0.59896 4.2795 2.8766 1.5995 1.2814 5.3157 3.9179 8.0144 5.6859 3.3885 2.2199 9.6795 5.2625 14.564 7.0438l1.7578 0.64105-1.4648-0.0086c-0.80566-0.0047-2.0656-0.12802-2.7999-0.27398zm-24.099-15.331c-0.057297-0.2191-0.14782-0.35473-0.20116-0.30139-0.10566 0.10566 0.080975 0.69976 0.21983 0.69976 0.047026 0 0.038622-0.17927-0.018676-0.39837zm70.551 14.691c0.10742-0.11557 1.3379-0.64264 2.7344-1.1713 4.8107-1.821 6.9935-2.7884 9.9378-4.4042 3.3704-1.8496 8.3975-5.0876 11.547-7.4372 1.1816-0.88166 2.2771-1.679 2.4343-1.772 0.43516-0.25724 1.9603-0.44793 1.9603-0.2451 0 0.67617-2.6652 3.5718-4.9825 5.4133-6.1949 4.9228-16.179 9.317-22.06 9.7089-1.256 0.08369-1.7095 0.057-1.5706-0.09245zm-23.305-14.098c-1.9108-0.26991-4.2973-0.92334-5.0331-1.3781-0.71308-0.44071-1.04-1.2203-0.72466-1.728 0.36764-0.59174 1.4225-1.1467 3.033-1.5955 2.1979-0.61258 8.0794-0.77244 10.893-0.2961 3.2279 0.5464 5.0781 1.4621 5.0781 2.5132 0 1.4747-3.3418 2.4457-8.8867 2.5821-1.7188 0.04227-3.6808-0.0017-4.3601-0.09761zm6.8618-0.99093c1.9037-0.28464 3.9074-0.88749 4.4627-1.3427 0.45401-0.37219 0.45452-0.37733 0.0669-0.66891-0.88976-0.66929-4.6212-1.2849-7.8125-1.289-3.5251-0.0044587-7.7148 0.82939-7.7148 1.5354 0 0.52444 2.4072 1.4645 4.5537 1.7784 1.5549 0.22734 4.8808 0.22052 6.444-0.01321z"/></svg>
