<svg width="100" height="100" version="1.1" viewBox="0 0 100 100" xml:space="preserve" xmlns="http://www.w3.org/2000/svg"><path d="m16.774 99.858c0-0.11959-0.2733-0.18854-0.60734-0.15324-0.55312 0.0585-0.62638-0.024-0.82071-0.92377-0.11735-0.54339-0.39602-1.1706-0.61925-1.3938-0.6972-0.6972-0.42114-2.0117 1.2408-5.9079 0.32287-0.75694 0.64523-1.9612 0.71636-2.6762 0.2763-2.7772 0.97047-4.1975 2.3259-4.759 0.55704-0.23073 0.99072-0.23747 2.1022-0.03268 2.2271 0.41036 2.5613 0.34538 4.7056-0.91507 2.7426-1.6121 3.5923-1.9562 4.9506-2.0047 0.64396-0.02301 1.1708-0.12003 1.1708-0.2156 0-0.09557-0.33846-0.6507-0.75215-1.2336-1.095-1.543-2.5212-4.2389-3.0468-5.7591-0.60352-1.7459-0.80028-4.374-0.4429-5.9156 0.15364-0.66271 0.6942-1.9946 1.2013-2.9599 1.0729-2.0424 2.4848-3.4543 5.3247-5.3246 3.494-2.3011 4.1026-3.0609 4.6984-5.8657 0.1812-0.85294 0.40104-1.7264 0.48854-1.9411 0.33193-0.81429-0.84002-0.3788-2.6426 0.98197-3.6695 2.7701-6.0612 3.2264-4.9753 0.94914 0.30377-0.63701 0.31103-0.76028 0.04479-0.76028-0.17476 2e-6 -0.38594 0.11034-0.46929 0.24519-0.08334 0.13486-0.76668 0.5362-1.5185 0.89188-1.5374 0.72734-3.4543 0.88764-3.919 0.32774-0.39554-0.4766 0.02464-1.7206 0.97142-2.876 0.44004-0.53702 0.80008-1.0317 0.80008-1.0993 0-0.06757-0.52687 0.08349-1.1708 0.3357-1.4982 0.5868-3.7625 0.61565-4.8543 0.06184-1.0668-0.54112-1.5574-1.0058-1.5574-1.475 0-0.46468 1.4691-1.7106 2.8992-2.4587l1.0036-0.52502-2.0071-0.13401c-2.0166-0.13464-3.1524-0.53206-4.2441-1.4851-0.5976-0.52166-1.2197-1.4282-1.2197-1.7773 0-0.48126 1.2662-0.96139 3.1772-1.2048 2.5011-0.31857 2.8818-0.4057 2.7443-0.62819-0.06499-0.10516-0.49561-0.26131-0.95694-0.34701-2.6227-0.48722-6.4903-3.6941-6.5178-5.4043-0.01208-0.75136 1.0801-0.83806 4.422-0.351 2.2674 0.33046 2.8611 0.35978 2.672 0.13198-0.13368-0.16107-0.34272-0.29286-0.46452-0.29286-0.565 0-3.2941-2.1038-4.2435-3.2713-1.1819-1.4534-2.6678-4.3192-3.0714-5.924-0.55248-2.1966 0.21559-2.2709 2.9242-0.28288 1.0862 0.79728 2.0324 1.4496 2.1025 1.4496 0.07013 0-0.50643-0.72759-1.2813-1.6169-1.725-1.9798-2.8655-3.8301-3.5395-5.7426-0.65355-1.8544-0.77168-6.4339-0.18122-7.0249 0.51631-0.51676 0.94709-0.23833 2.0082 1.2979 0.52353 0.75799 0.98473 1.42 1.0249 1.4711 0.04016 0.05111 0.1286 0.03734 0.19654-0.0306s-0.12459-0.73416-0.42785-1.4805c-1.4986-3.6881-1.9592-8.3051-1.149-11.517 0.514-2.0374 0.70824-2.3843 1.2875-2.2994 0.35348 0.051777 0.86296 0.80198 2.016 2.9685 3.44 6.4639 6.831 10.949 13.235 17.506 4.2781 4.3803 5.0397 5.3046 6.0561 7.3488 0.70979 1.4276 0.82378 1.8669 0.81006 3.1222-0.01355 1.239-0.17954 1.8334-1.0931 3.914-0.85688 1.9516-1.0776 2.704-1.0794 3.6798-0.0033 1.812 0.76269 3.0211 2.4561 3.8767 1.2867 0.65011 1.9792 0.48378 3.4221-0.82192 0.71871-0.65039 1.9742-1.5729 2.7899-2.0499 1.4399-0.84211 2.3264-1.7512 2.0132-2.0645-0.08452-0.08452-0.49285-0.12446-0.9074-0.08874-1.3042 0.11236-2.3421-0.85541-1.2295-1.1464 0.45881-0.11998 0.62943-0.60443 0.21288-0.60443-0.54831 0-1.328-1.107-1.328-1.8855 0-0.54617-0.10116-0.79069-0.32709-0.79069-0.1799 0-0.68168-0.35459-1.1151-0.78799-0.62141-0.62141-0.78734-0.96321-0.78494-1.6169 0.0048-1.3097 0.21549-1.7857 0.99354-2.2448 0.46162-0.27236 0.77188-0.6607 0.85264-1.0672 0.10635-0.53539-0.01232-0.76787-0.7316-1.4331-1.5322-1.4171-1.3671-3.2213 0.44826-4.8972 0.5746-0.53046 0.88728-1.0136 0.88728-1.3709 0-0.30349 0.27598-1.0941 0.61329-1.7569 0.54177-1.0645 0.80148-1.3052 2.2269-2.0639 0.88751-0.47238 1.8237-1.1539 2.0805-1.5145 0.58776-0.82543 1.5264-1.3179 2.512-1.3179 0.42042 0 1.1302-0.15284 1.5773-0.33964 0.59157-0.24718 0.9295-0.27723 1.2412-0.11039 0.6233 0.33358 2.0041 0.33869 2.9967 0.01107 1.0694-0.35294 2.7089-0.18108 3.8562 0.40422 0.46997 0.23976 1.5557 1.1565 2.4127 2.0372 1.879 1.931 2.8504 2.532 4.9034 3.034 0.85861 0.20994 1.812 0.50786 2.1186 0.66205 1.4123 0.71013 2.2965 2.0859 2.1871 3.4028-0.05743 0.69086-0.14893 0.82005-0.5702 0.80519-0.6689-0.0236-0.63242 0.31444 0.13478 1.2492 1.3239 1.6131 1.7563 3.0228 1.3687 4.4623-0.2696 1.0012-1.0975 2.0002-1.6576 2.0002-0.18792 0-0.50475-0.37634-0.70408-0.83631-0.35718-0.82425-0.36495-0.82827-0.53873-0.27877-0.09698 0.30665-0.30495 1.2071-0.46216 2.0011-0.25365 1.281-0.4319 1.6006-1.5829 2.8378-1.1069 1.1898-1.2968 1.5177-1.2956 2.2362 8.11e-4 0.46467 0.20001 1.1417 0.44456 1.511 0.74765 1.1289 0.47912 2.1186-0.57484 2.1186-0.63844 0-0.93336 0.3857-1.0238 1.339-0.0621 0.65452-0.16876 0.79063-0.66456 0.84803-0.36092 0.04179-0.63466 0.23692-0.70392 0.50178-0.07404 0.2831-0.3063 0.43341-0.66973 0.43341-0.39849 0-0.68588 0.21947-1.0127 0.77335-0.25096 0.42534-0.70356 0.83541-1.0058 0.91126-0.63899 0.16038-2.1017-0.43086-3.5768-1.4458-1.1466-0.78885-1.8054-0.86713-2.1338-0.2535-0.43158 0.80642-0.25956 1.2266 0.71695 1.7512 1.4234 0.76465 2.5834 1.9273 4.3864 4.3964 0.89571 1.2266 2.325 2.9076 3.1762 3.7355l1.5477 1.5054h1.7366c0.95512 0 2.7314 0.14994 3.9473 0.33321 1.2159 0.18326 2.7373 0.3338 3.3809 0.33452 1.0249 0.0011 1.2774-0.09554 2.0338-0.77891 0.99737-0.90106 2.476-1.604 3.598-1.7104 0.73329-0.06955 0.77667-0.0369 0.71636 0.53926-0.04678 0.4469 0.03551 0.61329 0.3033 0.61329 0.56938 1e-6 2.9477 1.3401 3.1048 1.7495 0.08681 0.22624-0.03498 0.50708-0.32003 0.73789-0.27295 0.22102-0.40571 0.51462-0.3263 0.72157 0.09008 0.23475-0.05852 0.4366-0.45413 0.61685-0.33038 0.15053-0.53954 0.39426-0.47738 0.55627 0.13435 0.3501-0.44406 0.9703-0.90493 0.9703-0.22595 0-0.29034 0.13637-0.19952 0.42253 0.07831 0.24674-0.01484 0.57148-0.22392 0.78055-0.42306 0.42306-0.45061 0.42647-1.0132 0.12539-0.33648-0.18008-0.46451-0.15488-0.56674 0.11151-0.18426 0.48016-1.051 0.42893-2.1396-0.12646-1.0585-0.53999-1.2105-0.53057-5.8538 0.36266-2.5168 0.48416-3.5864 0.58364-5.5754 0.51855-2.3494-0.07688-2.5269-0.11747-3.9107-0.89444-0.79728-0.44765-2.5033-1.5636-3.7913-2.48-1.2879-0.91632-2.3732-1.6381-2.4119-1.604-0.03861 0.03412-0.12099 0.59914-0.18306 1.2556-0.06208 0.65646-0.19724 1.6953-0.30036 2.3086-0.10312 0.61329-0.17128 1.1284-0.15146 1.1447 0.55062 0.45251 3.4042 1.624 3.7735 1.5492 0.27493-0.05576 1.3278-0.16016 2.3397-0.232 1.5787-0.11208 1.8399-0.08092 1.8399 0.21949 0 0.19256-0.30044 0.52107-0.66764 0.73002-1.1162 0.63514-0.88828 0.78797 1.5322 1.0275 1.1734 0.11611 2.2577 0.60618 2.2577 1.0204 0 0.11446-0.72759 0.23759-1.6169 0.27363l-1.6169 0.06552 1.2602 0.59081c0.78396 0.36754 1.3184 0.77421 1.4142 1.0761 0.23347 0.73559 0.0072 0.78279-1.2493 0.26061-1.2881-0.5353-2.6191-0.67238-1.4232-0.14658 0.369 0.16224 0.85936 0.50321 1.0897 0.75771 0.36454 0.40282 0.37412 0.47986 0.07401 0.59502-0.18961 0.07276-0.65315-0.02719-1.0301-0.22211-0.89482-0.46273-2.7002-0.71855-2.7002-0.38262 0 0.13636 0.20034 0.57652 0.4452 0.97813s0.44557 0.95599 0.44603 1.232c0.0014 0.82109-0.4892 0.61409-1.3015-0.54916-0.33196-0.4754-0.7534-0.76391-1.2527-0.85758-0.41384-0.07763-0.98675-0.39201-1.2731-0.69861-0.62656-0.67082-1.4413-1.1125-2.8294-1.5338-0.57006-0.17301-1.0641-0.31565-1.0979-0.31698-0.03376-0.0014-0.40265 0.74644-0.81975 1.6617-1.3559 2.9753-2.9463 4.8948-5.419 6.5404-0.64396 0.42856-1.1708 0.85911-1.1708 0.95679 0 0.09768 0.16932 0.86124 0.37628 1.6968 0.49048 1.9803 0.54643 7.8749 0.09168 9.6592-0.69951 2.7448-1.5659 4.0707-3.2556 4.9825-0.87488 0.47209-1.0789 0.48136-10.593 0.48136-11.568 0-10.772-0.17321-12.746 2.7746-0.6934 1.0354-1.697 2.2976-2.2302 2.8049-0.53318 0.50733-1.0698 1.0787-1.1924 1.2698-0.25095 0.39085-1.8956 0.7173-1.8956 0.37626z"/></svg>
