<svg width="100" height="100" version="1.1" viewBox="0 0 100 100" xml:space="preserve" xmlns="http://www.w3.org/2000/svg"><path d="m65.992 99.855-1.8793-0.06355-1.0081-2.2281 0.70087-1.2718c1.5541-2.82 2.1264-3.2403 3.502-2.572 0.8554 0.41559 3.0052 1.9346 3.0052 2.1235 0 0.05098-0.17825 0.67763-0.39611 1.3925-0.40385 1.3252-0.69389 1.9473-0.83115 1.7825-0.04214-0.0506-0.35876-0.50948-0.7036-1.0197s-0.71064-0.92774-0.8129-0.92774c-0.31428 0-0.19801 1.224 0.19944 2.0996 0.20723 0.45654 0.31516 0.81168 0.23985 0.7892-0.07531-0.02248-0.98262-0.06947-2.0162-0.10443zm-35.521-0.09884c0.0012-0.02685 0.13372-0.48268 0.29458-1.013 0.16086-0.53027 0.23984-1.13 0.17551-1.3326-0.11053-0.34826-0.13716-0.35021-0.4849-0.0355-0.20237 0.18314-0.42006 0.49718-0.48376 0.69786-0.18346 0.57803-0.44818 0.42751-0.66514-0.3782-0.50529-1.8765-0.53061-1.7839 0.87779-3.212 0.71507-0.7251 1.401-1.318 1.5244-1.3176 0.64517 0.0021 1.4627 0.84176 2.2998 2.362 1.1943 2.169 1.2498 2.3901 0.85718 3.4181l-0.32835 0.85978h-2.0346c-1.119 0-2.0337-0.02197-2.0325-0.04883zm-4.2199-0.75353c-0.20464-0.22645-0.79116-0.62426-1.3034-0.88401l-0.93131-0.47227-0.40634 0.6887c-0.39631 0.6717-0.43659 0.6887-1.6317 0.6887h-1.2254l0.37107-1.6113c0.65591-2.8482 0.59472-2.7523 2.2724-3.5638 0.82833-0.4007 1.8268-0.7729 2.2188-0.82713 0.60613-0.08384 0.76182-0.02377 1.0404 0.40142 0.26959 0.41145 1.8362 5.3487 1.8546 5.845 3e-3 0.08057-0.42039 0.14648-0.94085 0.14648-0.71459 0-1.0374-0.10081-1.3184-0.41174zm10.391-0.61275c-1.2187-3.4314-2.9235-5.8558-4.2992-6.1138-1.1053-0.20735-1.5813 0.02555-2.5906 1.2676-0.51892 0.63856-0.98744 1.1657-1.0412 1.1714-0.05371 0.0057-0.25922-0.38252-0.45669-0.86272-0.38655-0.93998-1.4959-2.0563-2.0403-2.0532-0.18425 1e-3 -0.8092 0.22265-1.3888 0.49245-0.57958 0.2698-1.0885 0.4558-1.131 0.41333-0.04246-0.04246 0.12412-0.41543 0.37018-0.82881 0.24606-0.41338 0.72097-1.3693 1.0553-2.1242 0.65075-1.4693 0.59731-1.4311 2.6147-1.8669 0.59082-0.12762 1.9971-0.48553 3.125-0.79535s2.1473-0.56389 2.2653-0.56459c0.12041-7.17e-4 0.31416 0.70572 0.44158 1.61 0.40169 2.8509 0.57799 3.024 0.59662 0.58594 0.0092-1.2085 0.08747-2.1973 0.17386-2.1973 0.08639 0 0.59176 0.27758 1.123 0.61684s2.0619 1.2621 3.4015 2.0508c2.2633 1.3326 3.1584 1.6682 3.4013 1.2752 0.09114-0.14746-2.5002-2.0337-6.5692-4.7817-0.93994-0.6348-1.709-1.2383-1.709-1.3411 0-0.10284 0.21017-1.1266 0.46705-2.275 0.25688-1.1484 0.52644-2.4506 0.59901-2.8938 0.12595-0.76914 0.21292-0.85366 1.9094-1.8555 1.58-0.93302 5.7266-4.2362 6.6486-5.2962 0.19067-0.21923 0.38082-0.36417 0.42255-0.3221 0.04173 0.04207 0.25439 1.263 0.47259 2.7132 0.2182 1.4502 0.45592 3.005 0.52829 3.4552 0.15675 0.97511-0.19342 1.6432-1.5629 2.982-0.48992 0.47891-0.89076 0.92604-0.89076 0.99362 0 0.06758 0.65918 0.46198 1.4648 0.87644s1.4648 0.81204 1.4648 0.88352c0 0.07147-0.22314 0.82333-0.49587 1.6708-1.2952 4.0247-1.6195 5.4895-1.7596 7.9494l-0.13978 2.4536 0.87401 1.3307c0.90834 1.3829 1.3259 2.1055 1.3259 2.2944 0 0.06077-1.869 0.1105-4.1534 0.1105h-4.1534zm17.85 0.72613c0-0.50788 1.3789-4.3901 2.2588-6.3594 0.46016-1.0299 0.89559-2.1868 0.96764-2.5708 0.12548-0.66889-0.18635-2.0858-1.6627-7.5551-0.21551-0.7984-0.39184-1.6128-0.39184-1.8098 0-0.40806 1.1736-1.0539 1.6104-0.88623 0.15332 0.05883 1.206 1.4116 2.3394 3.0062 1.1333 1.5946 2.2326 3.1116 2.4429 3.3712l0.38227 0.47194 1.0559-1.088c2.0705-2.1335 5.8745-5.6248 6.4564-5.9258 0.79606-0.41166 1.0428-0.27266 1.2954 0.72985 0.1175 0.46632 0.49869 1.9465 0.84708 3.2893 0.38986 1.5026 0.68758 3.23 0.77424 4.4922 0.07745 1.1279 0.20386 2.4166 0.28092 2.8637 0.1319 0.76531 0.10576 0.83071-0.44598 1.116-0.70428 0.3642-1.4476 1.2133-1.7937 2.049-0.1394 0.33654-0.32975 0.61189-0.423 0.61189-0.09325 0-0.65024-0.43531-1.2377-0.96736-1.3453-1.2183-2.0282-1.5717-3.0371-1.5717-0.69618 0-0.91968 0.12095-1.7187 0.9301-0.50514 0.51155-1.3854 1.72-1.9562 2.6855-0.88839 1.5027-1.0288 1.8749-0.97516 2.5855l0.06263 0.83008h-3.5659c-3.068 0-3.5659-0.04165-3.5659-0.29835zm5.8607-7.1254c0.53227-0.15379 5.4542-1.3398 9.3479-2.2525 0.25438-0.05963 0.42356-0.14735 0.37597-0.19494-0.23602-0.23602-8.6914 1.7349-10.213 2.3807-0.70992 0.30122-0.4463 0.33717 0.48957 0.06676zm10.535 6.8866c0.09016-0.29541 0.3188-1.2583 0.50809-2.1398 0.38446-1.7903 0.90836-2.8592 1.6827-3.4333l0.51958-0.38521 1.7265 0.73406c0.94958 0.40373 1.8724 0.86095 2.0508 1.016 0.27626 0.24021 0.71055 1.567 1.2496 3.8176l0.12864 0.53711h-2.3782l-0.4186-0.83008c-0.23023-0.45654-0.44557-0.86052-0.47852-0.89773-0.09719-0.10973-1.7069 1.0567-2.221 1.6094-0.39468 0.42429-0.64496 0.50903-1.5035 0.50903h-1.03zm-44.161-13.748c-0.04169-2.4623-0.07638-2.2784 0.89304-4.7333 0.47188-1.1949 1.1082-2.8684 1.414-3.7189 0.30579-0.85043 0.64664-1.5764 0.75745-1.6134 0.11081-0.03693 0.94577 0.40041 1.8555 0.97186l1.654 1.039-0.07251 3.5041c-0.03988 1.9272-0.14363 3.6407-0.23055 3.8076-0.14713 0.28261-4.502 2.1454-5.7028 2.4393l-0.53711 0.13149zm35.055-1.3884c-0.32979-0.34912-1.2828-1.5469-2.1179-2.6617l-1.5183-2.027 0.25213-2.2699c0.13867-1.2484 0.3069-2.6157 0.37384-3.0384l0.12171-0.76848 2.2023 2.6239c1.9866 2.367 2.1908 2.6813 2.0848 3.2099-0.34884 1.7401-0.48176 2.8635-0.47374 4.0039l0.0089 1.2695 0.26198-0.68359c0.14409-0.37598 0.40935-1.2109 0.58946-1.8555 0.8926-3.1942 0.7495-2.9989 3.1153-4.2508 1.1701-0.61918 2.1432-1.1026 2.1625-1.0742 0.01924 0.02836 0.24185 0.57194 0.49468 1.208l0.4597 1.1564-0.46578 0.30843c-0.48252 0.31951-3.5951 2.9148-5.4562 4.5494-0.58541 0.51416-1.1614 0.93484-1.28 0.93484s-0.4855-0.28564-0.81528-0.63477zm18.25-0.79518c-1.3334-0.91473-3.6643-3.0424-3.6643-3.3448 0-0.53823 1.8874-0.67872 2.625-0.19539 0.45183 0.29605 0.46862 0.28558 0.7048-0.43945 0.13307-0.4085 0.49298-1.2942 0.7998-1.9683 0.67771-1.4889 0.68202-1.6194 0.08368-2.5384-0.57959-0.89012-0.62865-1.1598-0.33887-1.8627 0.12439-0.30172 0.28155-0.89498 0.34925-1.3184 0.0677-0.42338 0.18254-0.76978 0.2552-0.76978 0.43688 0 2.2189 1.4396 4.6031 3.7187 3.8129 3.6447 3.5777 3.2475 2.7953 4.7211-0.7075 1.3325-0.92727 1.4644-3.186 1.913-1.0728 0.21305-1.271 0.33849-2.3439 1.483-0.64464 0.68763-1.3038 1.2471-1.4648 1.2433-0.16103-0.0038-0.70925-0.2926-1.2183-0.64179zm-64.37-2.7204c-0.31232-0.45654-0.70373-1.0953-0.8698-1.4194-0.22126-0.43183-0.52871-0.6526-1.1505-0.82615-1.8842-0.52587-3.6433-2.2067-3.1675-3.0263 0.44078-0.75924 8.1835-7.3369 8.3915-7.1288 0.05053 0.05053 0.14033 0.56522 0.19954 1.1438 0.05921 0.57853 0.19253 1.278 0.29625 1.5543 0.15015 0.40005 0.08716 0.70439-0.30904 1.4932-0.27369 0.54491-0.49821 1.1098-0.49893 1.2554-7.18e-4 0.14553 0.41064 1.1616 0.91412 2.258 0.61803 1.3458 1.015 1.9861 1.222 1.971 1.2016-0.08781 2.5527 0.06663 2.5527 0.29179 0 0.33553-1.5083 1.7775-2.2461 2.1474-1.0973 0.55007-3.0897 1.1159-3.9291 1.1159-0.76574 0-0.88578-0.07092-1.4051-0.83008zm47.289-4.8737c-0.62404-0.77377-1.5658-1.8734-2.0927-2.4436-0.52696-0.5702-0.91311-1.0817-0.8581-1.1367 0.05501-0.05501 1.387-0.15561 2.9601-0.22355l2.86-0.12353-0.0038 0.46986c-0.0021 0.25842-0.13088 1.173-0.28616 2.0324-0.15527 0.85938-0.2828 1.6943-0.2834 1.8555-0.0013 0.34141 1.4179-2.96 1.621-3.7709 0.11437-0.45668 0.20958-0.52563 0.57024-0.413 0.96912 0.30265 2.4837 1.0494 2.4837 1.2245 0 0.78088-4.3212 3.9359-5.3907 3.9359-0.31759 0-0.77136-0.404-1.5802-1.4069zm-28.967 0.61348c-0.59082-0.32504-1.1804-0.69699-1.3103-0.82654-0.35537-0.35462-2.01-3.3151-2.01-3.5962 0-0.13483 0.2417-0.30079 0.53711-0.36879s1.2402-0.4952 2.0996-0.94933c1.6717-0.88341 2.4414-1.1563 2.4414-0.86573 0 0.09934-0.17928 0.84964-0.39841 1.6673-0.21913 0.8177-0.36571 1.5848-0.32574 1.7047 0.0829 0.24871 1.3101-2.8331 1.3101-3.29 0-0.1646 0.07902-0.29927 0.17561-0.29927 0.32 0 2.3232 1.4498 3.3392 2.4167l1.0002 0.95186-0.45084 0.48423c-1.3054 1.4022-4.4024 3.5751-5.0817 3.5655-0.13856-0.0019-0.73532-0.26948-1.3261-0.59453zm52.065-3.3051c-2.0689-2.0917-3.2422-3.419-3.1756-3.5926 0.18459-0.48104 1.9331-2.6886 2.2152-2.7969 0.39052-0.14986 5.1518 0.25818 5.3376 0.45742 0.31754 0.34061 0.59959 5.0779 0.36721 6.1675-0.25531 1.197-1.0465 3.0819-1.2937 3.0819-0.09326 0-1.6461-1.4928-3.4508-3.3173zm-11.196 2.7973c-0.15402-0.06214-0.24414-0.49733-0.24414-1.1789 0-0.91953 0.16485-1.4143 1.1071-3.3228 0.60889-1.2333 1.2329-2.2906 1.3866-2.3496 0.15374-0.059 0.89295 0.18949 1.6427 0.55219 1.2919 0.62496 1.3573 0.68861 1.2517 1.217-0.11742 0.58707-1.9612 3.8405-2.5826 4.557-0.35988 0.41498-2.0005 0.75136-2.5613 0.52513zm-51.523-2.1686c-0.11243-0.078922-0.61578-0.68351-1.1186-1.3435-0.52785-0.69294-1.1512-1.2827-1.4752-1.3956-0.48096-0.16766-0.57922-0.32792-0.68808-1.1222-0.06985-0.50961-0.127-1.2093-0.127-1.5548v-0.62829l1.3184-0.12264c0.7251-0.06745 1.727-0.1787 2.2265-0.24722 1.1428-0.15677 1.1479-0.14801 1.808 3.1118 0.7241 3.5756 0.74608 3.4526-0.61651 3.449-0.61768-0.0016-1.215-0.06756-1.3275-0.14648zm-13.76-0.34704c0-0.05824-0.14179-0.78334-0.31509-1.6113-0.35203-1.682-0.294-6.1034 0.089511-6.82 0.27907-0.52146 5.5263-2.6017 6.536-2.5912 0.2353 0.0025 0.99552 0.2881 1.6894 0.63476l1.2616 0.63031 0.24678 1.3562c0.13573 0.74593 0.22175 1.3813 0.19116 1.4119-0.03059 0.03059-0.57751 0.39393-1.2154 0.80741-0.63786 0.41348-2.5221 1.8454-4.1871 3.182-3.8321 3.0763-4.2969 3.4008-4.2969 2.9998zm29.755-3.3638-2.1783-2.0967-0.25843-1.3672c-0.50272-2.6596-0.36749-3.952 0.77661-7.4219 0.56671-1.7188 1.1023-3.1979 1.1902-3.287 0.14162-0.1436 1.3762 1.9015 3.6067 5.9746 0.39771 0.72624 0.98195 1.5118 1.2983 1.7457 0.31637 0.2339 0.57522 0.57737 0.57522 0.76326s-0.51824 1.8173-1.1517 3.6254c-0.63341 1.8081-1.2106 3.4851-1.2827 3.7268-0.07207 0.2417-0.19104 0.43815-0.26436 0.43656-0.07333-0.0016-1.1136-0.94642-2.3116-2.0996zm19.1 0.42663c-0.75586-0.8587-2.5841-3.5072-3.1372-4.5447-0.21393-0.4013-0.16453-0.62179 0.39379-1.7578 1.0894-2.2167 6.4797-10.003 6.7427-9.7401 0.04849 0.04849 0.0048 1.2645-0.09716 2.7022-0.21065 2.971-0.3775 2.443 1.7659 5.5884l1.3005 1.9084 0.22884 5.3859-0.82895 0.3544c-0.45592 0.19492-1.576 0.45728-2.4891 0.58302-0.91308 0.12574-1.9773 0.27616-2.365 0.33428-0.64853 0.09722-0.76946 0.03222-1.5143-0.81398zm9.8363 0.52-1.1719-0.11365-0.05779-1.0966c-0.03178-0.60314 0.01485-1.526 0.10362-2.0508l0.16141-0.95417 1.8273 1.7697c1.675 1.6223 1.8082 1.8054 1.5985 2.1973-0.24253 0.45316-0.2942 0.45838-2.4612 0.24822zm-37.309-0.81654c-0.10708-0.48754 0.0089-0.76541 0.70862-1.6978 1.278-1.7031 3.3416-4.2327 3.5069-4.299 0.15978-0.06409 0.83362 1.6256 1.0518 2.6375 0.12803 0.59374 0.07288 0.67088-1.0935 1.5295-1.2285 0.90437-3.0979 2.0555-3.7171 2.2888-0.24938 0.09399-0.35963-0.01681-0.45676-0.45905zm49.516-1.0402c-0.26856-0.14441-0.99365-0.42062-1.6113-0.61379s-1.123-0.45515-1.123-0.58218 0.18216-0.46254 0.4048-0.74558c0.39689-0.50456 0.45033-0.51462 2.7344-0.51462 1.4952 0 2.3296 0.07337 2.3296 0.20486 0 0.39663-1.6431 2.5294-1.9427 2.5217-0.16684-0.0043-0.52307-0.12598-0.79163-0.27039zm-31.395-0.2507c-0.42485-0.36806-0.62609-0.72211-3.0854-5.4281-0.84207-1.6113-1.7888-3.3691-2.1038-3.9062-1.3458-2.2947-4.4611-8.5272-4.3748-8.7522 0.1669-0.43492 8.1281-4.0408 8.9215-4.0408 0.28768 0 0.37425 0.22175 0.47656 1.2207 0.2025 1.9774 0.48065 6.6217 0.6262 10.456 0.12922 3.4041 0.32515 4.5181 0.54932 3.1234 0.05659-0.35211 0.1952-2.2662 0.30802-4.2535 0.25005-4.4046 0.56355-8.538 0.69253-9.1309 0.06189-0.28449 0.23907-0.43945 0.50245-0.43945 0.52639 0 8.5977 4.0411 9.4038 4.7082l0.61498 0.50897-2.3988 3.2746c-2.9172 3.9824-6.166 8.5417-7.8656 11.039-0.69435 1.0201-1.3976 1.8807-1.5627 1.9125-0.16514 0.0318-0.48205-0.09968-0.70425-0.29218zm19.481-2.5281c-1.2354-1.3549-3.0109-3.4066-3.9456-4.5595l-1.6995-2.0961-0.02364-2.8097c-0.01886-2.2412 0.02863-2.7967 0.23468-2.7451 0.14208 0.03553 0.31716 0.16737 0.38907 0.29297 0.35995 0.62872 2.4168 3.2628 4.0669 5.2082l1.8539 2.1857 0.82862 3.1555c0.83708 3.1877 0.95452 3.8422 0.68816 3.8353-0.08057-0.0021-1.1572-1.1124-2.3926-2.4672zm-38.65-1.2796c-1.0037-4.2157-1.0389-3.7695 0.42974-5.4433 0.70001-0.7978 1.9175-2.2771 2.7055-3.2872 0.78801-1.0102 1.583-1.9303 1.7666-2.0447 0.46946-0.29258 2.1076 0.50435 2.1076 1.0253 0 1.2329-1.3126 6.5915-1.8864 7.7011-0.34381 0.66485-3.9123 4.501-4.2678 4.588-0.15499 0.03791-0.45056-0.83967-0.85516-2.5391zm-9.6787 0.69825c-0.13975-0.55682 0.03056-1.6351 0.25826-1.6351 0.0774 0 0.22423 0.07517 0.32628 0.16704 0.10205 0.09187 0.78267 0.37316 1.5125 0.62508 0.72981 0.25192 1.4205 0.5708 1.5349 0.70863 0.31352 0.37777-0.5907 0.64768-2.1698 0.64768-1.2767 0-1.3388-0.02181-1.4621-0.51335zm64.833-0.21613c-0.42969-0.04283-0.85022-0.14536-0.9345-0.22784-0.08429-0.08248-0.51034-1.9443-0.94679-4.1373-0.67721-3.4028-0.80882-4.4762-0.89784-7.3217-0.05737-1.8339-0.04033-4.2729 0.03785-5.4199 0.12799-1.8778 0.17954-2.0856 0.51754-2.0856 0.50114 0 4.8743 2.2641 5.27 2.7284 0.18922 0.22204 0.36116 0.92878 0.43726 1.7973 0.465 5.3069 0.70644 8.3385 0.80617 10.123 0.06305 1.1279 0.1653 2.644 0.22724 3.3691l0.11261 1.3184-1.9241-0.03283c-1.0583-0.01806-2.2757-0.06788-2.7054-0.11071zm-6.6643-0.20125c-0.5754-0.377-5.5427-9.6504-5.5427-10.348 0-0.62865 0.93786-2.1983 1.3135-2.1983 0.40515 0 4.8609 2.7034 5.5065 3.3409 0.31485 0.3109 0.68442 1.0708 0.94984 1.9531 0.23895 0.79432 0.78865 2.6307 1.2215 4.0809s0.83406 2.7905 0.89147 2.9785c0.09498 0.31101-0.08592 0.34153-2.0084 0.33881-1.162-0.0016-2.2113-0.06756-2.3318-0.14648zm-57.605-2.4712c-0.35034-0.25587-0.38339-0.5784-0.43526-4.248-0.03087-2.1841 0.01307-4.7111 0.09766-5.6155 0.14265-1.5252 0.18916-1.6549 0.64207-1.7902 0.26856-0.08022 1.9279-0.60137 3.6875-1.1581 2.5711-0.81353 3.232-0.96055 3.3662-0.74887 0.09181 0.14486 0.16826 0.32655 0.16991 0.40375 0.0016 0.0772-0.98676 2.1426-2.1965 4.5898-1.2097 2.4472-2.6614 5.4383-3.2261 6.6467-1.0726 2.2955-1.3035 2.5061-2.1055 1.9204zm-11.213-0.20464c-0.14781-0.1781-0.19272-0.56542-0.1189-1.0254 0.065253-0.40655 0.20022-1.5302 0.29993-2.497 0.62467-6.0571 1.0952-9.7991 1.6047-12.763 0.20638-1.2005 0.24464-1.2597 1.2128-1.8783 0.54984-0.3513 1.719-1 2.5981-1.4417l1.5984-0.80294 0.22598 1.1187c0.12429 0.61529 0.56957 2.3783 0.98951 3.9179s0.76353 2.8903 0.76353 3.0018c0 0.22571-0.43648 0.97283-3.6442 6.2379-2.2651 3.7178-3.0961 5.3177-2.9146 5.6114 0.097576 0.15788-1.6165 0.80684-2.1311 0.80684-0.13564 0-0.35352-0.1288-0.48416-0.28621zm7.9102-1.0863c-0.74886-0.31936-1.4573-0.58065-1.5743-0.58065-0.11701 0-0.75675 0.2132-1.4216 0.47377s-1.2089 0.42513-1.2089 0.36569c0-0.05945 0.42728-0.69012 0.9495-1.4015 1.0118-1.3783 2.8461-4.2483 3.9475-6.1762l0.66943-1.1719 0.12422 2.5391c0.18067 3.693 0.19038 6.5437 0.02227 6.5377-0.08057-0.0029-0.75918-0.26658-1.508-0.58594zm61.248-8.0963c-0.57811-0.36835-1.6548-0.95296-2.3926-1.2991-0.7378-0.34617-1.3415-0.68554-1.3415-0.75417 0-0.1431 1.9459-0.97791 2.2794-0.97791 0.12159 0 0.40667 0.31456 0.63351 0.69903 0.22684 0.38447 0.52117 0.66286 0.65406 0.61866 0.15998-0.05321 0.35279-1.1638 0.57063-3.2869 0.48788-4.7549 0.57679-4.2608-1.0796-5.9987-0.7888-0.8276-2.3807-2.5375-3.5376-3.7997s-2.1594-2.2981-2.2279-2.3019c-0.06848-0.0039-0.38656-0.22115-0.70686-0.48287l-0.58236-0.47584 3.9887 0.243 0.93176-0.95699c1.1399-1.1708 2.6568-2.4218 2.9365-2.4218 0.54 0 1.3257 1.5553 3.3447 6.621 1.2043 3.0217 2.1415 5.572 2.0825 5.6674-0.05895 0.09539-0.72609 0.36142-1.4825 0.59118-1.5722 0.47753-1.6279 0.5587-1.8182 2.6478-0.5656 6.2104-0.58711 6.351-0.9706 6.3427-0.12704-0.0027-0.70398-0.30638-1.2821-0.67473zm-19.945-3.6802c-1.0205-0.56843-2.9602-1.6313-4.3103-2.362-1.3502-0.73068-2.667-1.4885-2.9263-1.6841l-0.47144-0.3556 1.0544-1.5274c0.57993-0.84006 1.0726-1.5528 1.0948-1.5839 0.26529-0.37132 10.579 2.7069 10.775 3.2157 0.06916 0.17991-3.1437 5.3461-3.3171 5.3339-0.02375-0.0017-0.87814-0.46812-1.8986-1.0365zm14.649 0.2095c-0.38518-0.44796-3.5531-6.0796-4.4239-7.8644l-0.85914-1.7609 0.4023-1.2255c0.22127-0.67402 0.59796-1.6719 0.8371-2.2176l0.4348-0.99209 3.4431 3.6106-0.13844 2.7949-0.13844 2.7949 1.7834 2.0371c0.98089 1.1204 1.7834 2.085 1.7834 2.1435 0 0.12517-2.3055 0.92356-2.6669 0.92356-0.13604 0-0.34181-0.10986-0.45727-0.24414zm-37.159-2.8809c-0.93994-1.6005-1.709-3.0321-1.709-3.1814 0-0.30903 0.22489-0.42405 3.3203-1.6982 3.8168-1.571 5.3734-2.0213 6.5214-1.8864 1.1965 0.14062 6.5986 1.4615 6.8099 1.6651 0.08121 0.07826-0.49008 0.83448-1.2695 1.6805-1.2598 1.3674-1.6341 1.6399-3.3703 2.454-1.0742 0.50366-3.0078 1.4213-4.2969 2.0393-2.6862 1.2877-3.9799 1.8611-4.1666 1.8469-0.07166-0.0054-0.89934-1.3194-1.8393-2.9198zm-16.24 1.9923c-0.44539-0.86129-1.0375-2.8868-1.4953-5.1156-0.23417-1.1399-0.59503-2.2936-0.81327-2.6001-0.45586-0.6402-0.45739-0.62779 0.55684-4.5305 0.68649-2.6416 1.2802-4.1992 1.6006-4.1992 0.24604 0 2.0223 2.1362 2.4122 2.901 0.638 1.2514 0.5026 1.6763-1.0416 3.2688l-1.397 1.4408 0.81109 1.7457c0.87525 1.8838 0.95461 2.4894 0.53348 4.0714-0.15013 0.56396-0.23478 1.0254-0.18811 1.0254 0.04668 0 0.58804-0.53359 1.203-1.1858 1.2069-1.2799 1.9462-1.5529 3.4441-1.2719 0.61108 0.11464 0.71546 0.22417 0.90701 0.95179 0.11906 0.45224 0.38075 1.1054 0.58155 1.4515 0.22125 0.38138 0.28912 0.67625 0.17227 0.74846-0.10605 0.06554-0.95856 0.32472-1.8945 0.57596-0.93592 0.25124-2.3812 0.63952-3.2118 0.86286-1.8957 0.50976-1.8425 0.5132-2.1806-0.14072zm56.701-1.5528c-0.59367-0.61768-1.4039-1.4968-1.8005-1.9537l-0.72113-0.83064v-4.7172l3.8898 4.0347 0.0082 2.2949c0.0045 1.2622-0.06045 2.2949-0.14437 2.2949-0.08393 0-0.63833-0.50537-1.232-1.123zm-14.338-3.657c-0.75195-0.24635-2.631-0.89781-4.1756-1.4477-1.5446-0.54987-4.0495-1.2589-5.5664-1.5757-1.5169-0.31676-3.8127-0.81112-5.1018-1.0986-3.5347-0.78822-4.7947-0.7333-8.5169 0.3712-1.6765 0.49747-3.3381 0.92851-3.6924 0.95786-0.63905 0.05294-0.65002 0.03925-1.3654-1.7044-0.39663-0.9668-1.2582-3.0286-1.9146-4.5818-0.65641-1.5532-1.152-2.8655-1.1013-2.9162 0.13611-0.13611 3.5678 0.52657 6.1413 1.1859 2.1464 0.54991 2.3285 0.56613 4.1016 0.36533 1.0205-0.11558 2.6465-0.29676 3.6133-0.40264 2.0632-0.22595 11.087-0.24141 13.785-0.02362 1.708 0.13789 2.05 0.23888 3.9363 1.1624 1.1361 0.55626 2.1871 1.0114 2.3354 1.0114s0.75006-0.16823 1.3372-0.37384c1.4737-0.51611 2.5323-0.69811 2.5323-0.43535 0 0.25478-4.6102 9.4852-4.9558 9.9224-0.01357 0.01717-0.63991-0.17035-1.3919-0.4167zm-36.103-0.45996c-0.45922-0.50744-0.41774-0.64315 0.45801-1.4983 0.42969-0.41958 0.78125-0.90924 0.78125-1.0881s-0.79102-0.99803-1.7578-1.8203c-1.7139-1.4577-1.7578-1.5162-1.7578-2.3427v-0.84764l1.416-0.2215c0.77881-0.12183 1.9434-0.27845 2.5879-0.34806 1.3371-0.1444 2.0508-0.36654 2.0508-0.63836 0-0.10309 0.09435-0.43485 0.20967-0.73726 0.20955-0.54953 0.20987-0.54925 0.59169 0.5244 0.81836 2.3012 0.95646 2.7636 0.95646 3.2027 0 0.57987-4.4284 6.1723-4.8875 6.1723-0.17895 0-0.47083-0.16073-0.64861-0.35718zm-4.083-1.3943c-0.51025-0.84829-0.92774-1.6175-0.92774-1.7094 0-0.09188 0.43355-0.59408 0.96344-1.116l0.96344-0.94895 1.4729 1.0539c1.5765 1.1281 1.7773 1.383 1.4991 1.9028-0.32614 0.60941-2.3315 2.3739-2.6899 2.3669-0.22951-0.0045-0.67887-0.54786-1.2812-1.5493zm0.36572-8.5248c-0.49656-0.60316-0.90283-1.2114-0.90283-1.3517s0.26894-0.31408 0.59764-0.38628c0.3287-0.07219 2.3205-0.78266 4.4263-1.5788 2.1058-0.79615 3.8656-1.4106 3.9108-1.3654 0.04519 0.04519-0.27314 0.67127-0.7074 1.3913-0.43426 0.72002-0.93534 1.7601-1.1135 2.3112s-0.44178 1.1271-0.5858 1.28c-0.21779 0.23113-3.1816 0.76224-4.4045 0.78928-0.17483 0.0039-0.72415-0.48647-1.2207-1.0896zm49.201 0.66935c-0.96355-0.09866-1.7843-0.2118-1.824-0.25142-0.07348-0.07348-1.5516-4.0224-1.7382-4.6435-0.07484-0.24923 0.0079-0.3418 0.30554-0.3418 0.69135 0 8.2672 2.601 8.3721 2.8743 0.05429 0.14148-0.1368 0.44248-0.42464 0.6689-0.28784 0.22642-0.73837 0.75228-1.0012 1.1686-0.54006 0.8555-0.50699 0.8508-3.6897 0.52492zm-9.4831-1.2305-2.6413-1.2815-4.5732-0.21041c-2.5152-0.11572-4.7407-0.27239-4.9455-0.34814-0.3004-0.11112-0.03861-0.34053 1.3551-1.1875 0.95008-0.57736 2.2601-1.4251 2.9112-1.884 0.65108-0.45882 1.4236-0.92539 1.7167-1.0368 0.70074-0.26642 8.103 0.07276 9.2947 0.42589l0.86708 0.25693 0.74036 2.7292c0.4072 1.5011 0.74211 2.8251 0.74425 2.9423 0.0021 0.11718-0.45754 0.31687-1.0215 0.44374s-1.2012 0.27592-1.416 0.33122c-0.24114 0.06206-1.4014-0.38985-3.0319-1.1809zm-45.196-1.0536c-0.05858-0.09478 0.10507-0.86382 0.36365-1.709 0.25859-0.84516 0.87858-2.9429 1.3778-4.6617 1.3932-4.7969 1.4647-4.9892 1.9266-5.1838 0.23062-0.09711 1.9574-0.73981 3.8373-1.4282 8.437-3.0896 7.7212-2.8788 7.8903-2.3236 0.15222 0.49979 0.64529 4.1142 0.89924 6.5918 0.12111 1.1816 0.25032 2.3026 0.28712 2.491 0.04657 0.23844-0.09091 0.37687-0.45213 0.45528-0.28547 0.06197-2.0132 0.71852-3.8394 1.459-5.225 2.1186-11.469 4.4814-11.843 4.4814-0.18754 0-0.38892-0.07755-0.4475-0.17233zm19.419-0.24897c-0.69824-0.09692-2.236-0.30948-3.4172-0.47236-1.1812-0.16288-2.2223-0.37083-2.3136-0.46211-0.09128-0.09128 0.32608-0.86816 0.92747-1.7264 1.2822-1.8299 0.64761-1.6521 7.1772-2.0103 2.717-0.14904 4.1487-0.15714 4.3851-0.02481 0.19309 0.10806 1.1244 1.062 2.0696 2.1198l1.7185 1.9233-0.53719 0.13617c-1.0792 0.27356-5.8502 0.74542-7.2755 0.71955-0.80566-0.01462-2.0361-0.10588-2.7344-0.2028zm40.137-1.4625c-3.0428-1.0885-10.767-3.7691-11.169-3.8762-0.05665-0.01508 0.48903-5.0981 0.72355-6.7399 0.35879-2.5118 0.60113-3.5156 0.8487-3.5156 0.32827 0 8.8218 2.8877 10.996 3.7385l1.0082 0.39452 0.3015 1.3027c0.16582 0.71646 0.52039 2.3134 0.78793 3.5487s0.66694 3.0657 0.88757 4.0675c0.49423 2.2441 0.50194 2.577 0.05934 2.5602-0.18799-0.0071-2.1875-0.67324-4.4434-1.4802zm-28.929-0.89936c-0.32255-0.2417-2.2763-2.1186-4.3417-4.1708l-3.7552-3.7314 0.12238-0.85847c0.67183-4.7126 1.34-6.9248 3.0126-9.9741 1.6376-2.9855 5.7185-9.5642 6.1604-9.931 0.42214-0.35034 0.84757 0.091784 3.1742 3.2988 3.3584 4.6291 5.7374 8.3144 5.971 9.2495 0.07321 0.29307 0.34941 2.2267 0.61378 4.2969 0.26437 2.0702 0.53644 4.1644 0.60461 4.6537l0.12394 0.88966-3.4671 2.2353c-6.3214 4.0756-6.9833 4.4814-7.3091 4.4814-0.17785 0-0.58727-0.19775-0.90983-0.43945zm-1.5638-7.6808-0.13163-2.036h7.04l0.12207 0.61035c0.06714 0.33569 0.12256 0.92896 0.12316 1.3184 0.0014 0.92836 0.37801 2.2663 0.57694 2.0498 0.08587-0.09345 0.35306-1.7519 0.59378-3.6855 0.43642-3.5057 0.43948-3.5173 1.084-4.1104 0.70216-0.64609 0.97858-1.3842 0.79392-2.12-0.10757-0.42858-0.25536-0.48296-1.7302-0.63654-1.6002-0.16665-1.6079-0.17007-1.0016-0.44745 0.62197-0.28454 1.1689-0.93181 0.96214-1.1386-0.06275-0.06275-0.92577 0.17482-1.9178 0.52794-1.6499 0.58728-2.576 0.77249-2.7904 0.55806-0.045338-0.045337-0.14044-1.2628-0.21134-2.7054-0.15958-3.247-0.4239-4.1133-0.47256-1.5488-0.01937 1.0205-0.09085 2.4268-0.15886 3.125-0.15539 1.5953-0.34775 1.6468-2.5447 0.68084-1.9759-0.86876-2.5692-0.84882-1.5939 0.05355 0.36991 0.34227 0.61978 0.67509 0.55528 0.73959-0.0645 0.0645-0.718 0.17672-1.4522 0.24938l-1.3349 0.1321-0.34948 1.916 0.9061 0.79979c0.89687 0.79165 0.91429 0.83061 1.7111 3.8271 0.44274 1.665 0.84785 3.2681 0.90025 3.5625 0.0524 0.29431 0.17567 0.48543 0.27393 0.42471 0.10331-0.06385 0.12314-0.96902 0.04702-2.1464zm-0.26191-2.7196c-0.24886-0.31658-0.44538-2.0508-0.23239-2.0508 0.10432 0 1.0094 0.26788 2.0113 0.59528l1.8216 0.59528 1.7952-0.59528c0.98737-0.3274 1.8894-0.59528 2.0046-0.59528 0.25772 0 0.27184 1.1608 0.019 1.5625-0.14482 0.23011-0.9441 0.33488-3.7251 0.48828-2.3605 0.13021-3.5919 0.13021-3.6942 0zm3.6383-2.181c-0.20156-0.20156-0.15365-3.1526 0.05325-3.2804 0.1009-0.06236 0.51838-0.05981 0.92773 0.0057 0.66402 0.10623 0.81137 0.24212 1.3665 1.2602 0.6926 1.2703 0.68418 1.293-0.67498 1.8208-0.88152 0.34232-1.4572 0.40899-1.6725 0.19368zm-2.2786-0.31349c-0.37598-0.11468-0.70819-0.22552-0.73825-0.2463-0.05816-0.04022 0.6269-0.87649 1.6607-2.0273l0.62948-0.7007 0.0053 1.3024c0.0029 0.71631 0.05863 1.4414 0.12384 1.6113 0.14102 0.3675-0.58858 0.39378-1.6811 0.06056zm-3.183-1.2735c-1.1639-1.1919-1.0404-1.3335 1.2744-1.4611 1.0987-0.06054 2.0669-0.06729 2.1515-0.015 0.22636 0.1399-0.84256 1.5525-1.4449 1.9095-0.78588 0.46573-1.1892 0.37749-1.981-0.43343zm8.9107 0.06012c-0.22765-0.15946-0.50631-0.55496-0.61924-0.87891l-0.20532-0.58899h1.65c1.8902 0 2.0221 0.14867 1.0059 1.1336-0.70757 0.6858-1.201 0.77588-1.8314 0.33434zm7.7716 10.426c-1.2229-0.08791-2.3189-0.1917-2.4357-0.23063-0.11679-0.03893 0.33195-0.3609 0.99722-0.71548 0.66526-0.35458 1.2593-0.80127 1.32-0.99264 0.06074-0.19137-0.02218-1.1692-0.18426-2.173-0.53374-3.3054-1.0615-6.8831-1.1983-8.1238-0.12265-1.1121-0.10198-1.2207 0.2324-1.2206 0.40478 1.5e-4 5.8984 1.6575 6.0731 1.8322 0.06008 0.06008 0.01458 0.83694-0.10111 1.7263-0.34082 2.6201-0.97999 7.7773-1.1142 8.9901-0.14327 1.2946 0.28608 1.186-3.5891 0.90742zm-26.078-0.40498c-0.05102-0.24949-0.13856-1.2446-0.19453-2.2114-0.05597-0.9668-0.2448-3.2347-0.41962-5.0399-0.17483-1.8051-0.27741-3.3875-0.22797-3.5163 0.10082-0.26272 0.41212-0.37888 3.8016-1.4186 1.3162-0.40371 2.4557-0.67136 2.5322-0.59478 0.12654 0.12654-0.19321 1.5101-1.6077 6.9562-0.26504 1.0205-0.48272 2.0646-0.48373 2.3202-0.0013 0.32894 0.46677 0.91126 1.6015 1.9924 1.0864 1.0351 1.5115 1.5574 1.3184 1.62-0.15673 0.05082-1.622 0.14937-3.2562 0.21901l-2.9712 0.12661z"/></svg>
