<svg width="100" height="100" version="1.1" viewBox="0 0 100 100" xml:space="preserve" xmlns="http://www.w3.org/2000/svg"><path d="m65.312 99.497c-0.67586-0.47307-2.9001-0.82661-6.621-1.0524-9.165-0.55616-11.02-0.8442-15.899-2.469-4.917-1.6373-9.9448-4.1399-13.171-6.5556-1.2548-0.93971-2.5205-2.25-5.2506-5.4357-1.9249-2.2461-2.2612-2.0739-1.5265 0.78125l0.37693 1.4648-0.76985-0.87891c-0.44156-0.50411-1.6861-2.6881-2.9184-5.1216-2.9596-5.8444-3.9506-7.4011-4.4154-6.9363-0.07441 0.07441-0.17803 0.58015-0.23027 1.1239-0.11602 1.2075-0.35278 1.1802-1.0598-0.12201-0.63761-1.1743-1.4088-4.8501-1.7166-8.1822-0.33311-3.6055-0.66083-4.2043-1.7471-3.1923-0.74676 0.69572-1.1773 1.9351-1.232 3.5461-0.027501 0.81105-0.11765 1.4087-0.20033 1.3281-0.082679-0.08061-0.33047-1.0633-0.55064-2.1837-0.62614-3.1864-0.47509-5.9769 0.50352-9.3015 0.86564-2.9409 0.82064-3.3758-0.40209-3.8867-0.61834-0.25836-0.88625-0.2574-2.3921 0.0086-0.9327 0.16472-1.9099 0.35868-2.1715 0.43101l-0.47573 0.13151 0.40661-0.56938c0.95867-1.3424 3.0705-3.4242 5.7759-5.6938 1.595-1.3381 3-2.6523 3.1222-2.9205 0.26953-0.59155-0.05163-1.2698-0.89829-1.897-0.78003-0.57789-2.743-0.51892-5.5632 0.16712-1.2154 0.29566-2.2521 0.49522-2.3039 0.44348-0.18522-0.18522 2.5978-2.5362 4.5853-3.8736 2.3756-1.5984 3.207-2.037 5.6964-3.0048 1.017-0.39539 2.772-1.0767 3.9-1.5141 2.5442-0.9865 3.5156-1.8231 3.5156-3.0277 0-0.95243-0.51365-1.659-1.6298-2.2419-0.72258-0.37737-1.2187-0.43569-4.5226-0.53166l-3.7109-0.1078 2.5762-1.294c5.3538-2.6891 12.033-4.2327 20.08-4.641l3.125-0.15853 0.52909 0.58834c0.291 0.32359 0.90624 1.4705 1.3672 2.5487 0.46095 1.0782 0.86254 2.0161 0.89243 2.0843 0.02988 0.06818-0.45352 0.23655-1.0742 0.37416-2.5195 0.55858-8.3356 3.0196-11.255 4.7624-4.3747 2.6116-8.2363 6.2649-10.047 9.5051-0.93304 1.6695-1.7468 3.8953-2.2282 6.0948-0.39931 1.8243-0.43903 2.5084-0.4285 7.3817 0.0111 5.1406 0.27042 8.4849 0.87078 11.23 0.16395 0.74977 0.16718 0.7419 0.08018-0.19531-0.04986-0.53711-0.18802-1.8994-0.30702-3.0273-0.57355-5.4361-0.21608-11.713 0.91212-16.016 1.6311-6.2206 6.3413-11.28 13.643-14.653 3.3385-1.5424 7.2702-2.3507 11.336-2.3306l1.7636 0.0087 0.85536 1.8285c0.47045 1.0057 1.1942 2.2762 1.6083 2.8233l0.75297 0.99484h-0.71583c-1.1655 0-8.863 1.1636-9.9227 1.4999-2.3972 0.76091-6.3315 3.0573-8.2777 4.8315-0.85786 0.78205-2.7887 4.7578-3.3752 6.9498-0.3771 1.4093-0.44285 2.1323-0.43517 4.7852 0.0082 2.8199 0.0607 3.2966 0.53825 4.8828 1.1 3.6536 3.8758 8.4315 7.2827 12.535 2.1789 2.6246 7.0373 7.3384 9.0524 8.7828 1.7347 1.2435 5.0398 3.309 9.1797 5.7368 2.7063 1.5871 6.8887 4.3596 9.2809 6.1523 2.7878 2.0891 5.0411 4.5805 6.2232 6.8808 0.35375 0.68835 0.25196 0.77439-0.38701 0.32714zm-39.141-22.227c0-0.04056-0.15381-0.19437-0.3418-0.3418-0.30978-0.24294-0.31668-0.23604-0.07374 0.07374 0.25515 0.32534 0.41554 0.4288 0.41554 0.26806zm-3.0581-4.3696c-1.3431-2.0142-2.6126-3.9917-2.821-4.3945-0.20839-0.40283-0.42284-0.73242-0.47656-0.73242-0.13765 0 0.57633 1.3674 1.5138 2.8992 0.76906 1.2566 4.0469 5.8899 4.1668 5.8899 0.03245 0-1.0399-1.6479-2.3831-3.6621zm-6.5741-4.9683c-0.06235-0.15581-0.10863-0.10953-0.118 0.118-0.0085 0.20589 0.03768 0.32125 0.10258 0.25635 0.0649-0.0649 0.07184-0.23336 0.01542-0.37435zm37.725 19.491c-8.1146-4.8057-11.057-6.9295-15.173-10.953-5.204-5.0859-8.7117-10.058-10.954-15.527-1.1068-2.6992-1.3728-4.005-1.3762-6.757-0.0046-3.754 0.51734-5.6777 2.2503-8.2939 1.6599-2.5059 3.6044-4.0138 6.5729-5.0972 2.5426-0.92795 4.5438-0.731 7.4293 0.7312l0.9578 0.48536-0.12649 1.1133c-0.2254 1.9838-0.07467 1.8662-2.1917 1.7108l-1.8596-0.1365 0.9688 1.1367c0.53284 0.62518 1.3967 1.6918 1.9197 2.3703 0.8767 1.1374 0.9297 1.2669 0.67936 1.6602-1.5523 2.4387-2.5096 4.7297-2.2143 5.2989 0.05874 0.1132-0.28876-0.21165-0.77222-0.72191-0.48346-0.51025-0.97339-0.92773-1.0887-0.92773-0.83825 0-2.567 2.6546-2.567 3.9417 0 0.59967 0.13235 0.82466 0.83008 1.4111l0.83008 0.69767-0.63864 0.50759c-1.6301 1.2956-1.6072 3.0803 0.07243 5.649 1.1555 1.767 3.3706 4.2282 8.3499 9.2775 5.3868 5.4625 7.9857 8.3037 9.107 9.9559 0.85539 1.2604 2.42 4.307 2.2032 4.2903-0.08177-0.0063-1.5255-0.82689-3.2082-1.8235zm22.237-8.6619c-0.51554-1.1003-0.8169-2.1524-1.1011-3.8443-0.21519-1.2812-0.47071-2.4089-0.56784-2.5061-0.21375-0.21375-1.3428 0.35846-2.5647 1.2998-0.48222 0.3715-0.90432 0.6479-0.93799 0.61422-0.03368-0.03367 0.52353-1.1848 1.2382-2.558 1.1691-2.2462 1.2868-2.5758 1.1735-3.2848-0.25576-1.5994-1.3771-2.7115-2.9948-2.9702-0.44955-0.071887-0.92665-0.26238-1.0602-0.42332-0.20243-0.24392-0.11748-0.39787 0.51049-0.92508l0.75333-0.63246-0.46114-0.62372c-1.1313-1.5302-5.7712-4.3765-8.9873-5.5131-1.1228-0.39684-1.7275-0.4518-6.033-0.54834-4.7345-0.10616-4.7968-0.11303-5.889-0.64937-0.60711-0.29814-1.2416-0.7523-1.4099-1.0092-0.30345-0.46313-0.29897-0.46832 0.5179-0.59973 0.8719-0.14026 2.2422-0.83772 2.6783-1.3632 0.22553-0.27175 0.19709-0.33055-0.21088-0.43599-0.9743-0.25181-4.6156-2.219-5.7035-3.0812-0.98948-0.78426-3.0577-3.2546-3.0659-3.6619-0.0016-0.08057 0.42552-0.14648 0.9492-0.14648 1.0938 0 1.0694 0.04848 1.3097-2.6036 0.15619-1.7236 0.07744-1.8816-1.2814-2.5702-1.0775-0.546-2.6001-1.0027-4.8688-1.4604-1.5682-0.31639-1.6822-0.37246-1.7399-0.85607-0.07528-0.63036-0.0077-0.63521 2.7395-0.19674 1.7827 0.28454 2.411 0.29246 5.5611 0.07013 3.9778-0.28075 6.4348-0.18363 10.465 0.41363 1.4783 0.2191 2.7947 0.36274 2.9254 0.31918 0.13066-0.04355-0.46363-0.19018-1.3206-0.32583-3.5698-0.56504-3.2434-0.38121-4.7945-2.7008-1.9291-2.885-5.4704-10.136-6.243-12.783-0.83595-2.8639-0.73884-3.2599 0.41166-1.6787 1.4921 2.0507 6.1791 7.5029 7.0952 8.2536 0.83619 0.68519 4.0234 2.5116 4.1544 2.3807 0.03585-0.03585-0.66016-0.62723-1.5467-1.3142-2.4997-1.9369-2.9132-2.3587-6.4313-6.5598-2.2033-2.631-3.9838-4.5381-5.3698-5.7516-3.8376-3.3598-5.5366-5.7985-6.9053-9.9117-0.33418-1.0043-0.56809-1.8655-0.51978-1.9138 0.0483-0.048303 0.69986 0.18584 1.4479 0.52032 1.1198 0.50069 1.42 0.73531 1.699 1.3279 0.90265 1.9166 1.5411 2.5887 5.5497 5.8424 2.2192 1.8012 5.2626 4.3298 6.7633 5.6191 5.5632 4.7797 6.0201 5.3118 7.5469 8.7895 0.67565 1.5389 0.87024 1.8432 0.9175 1.4349 0.07997-0.69098-0.76957-3.1785-1.5319-4.4856-0.33707-0.57793-0.97874-1.433-1.4259-1.9002-1.5037-1.5708-7.9339-7.0357-12.858-10.928-1.2537-0.99087-2.5094-2.0749-2.7904-2.4089-0.41482-0.49298-1.0825-1.7522-1.0825-2.0415 0-0.2964 6.4916 2.871 8.3538 4.076 2.1738 1.4066 6.4181 4.9674 11.999 10.066l2.6766 2.4456-0.1755 4.5223 0.38713-1.1719c0.4779-1.4467 0.84102-3.3612 0.68528-3.6132-0.24836-0.40186-6.8046-6.1865-10.736-9.4728-1.2852-1.0742-3.3168-2.876-4.5146-4.0039-1.8993-1.7884-2.5517-2.2574-5.0999-3.6661-2.9814-1.6481-5.1431-2.6447-7.5789-3.4939-1.7644-0.61517-6.557-1.4337-8.3944-1.4337-1.3631 0-1.4605-0.030703-2.0879-0.65812l-0.65812-0.65812 1.5663-0.12196c6.622-0.51563 11.579 0.17371 17.68 2.4587 4.1831 1.5667 3.7385 1.2181 10.84 8.502 5.6175 5.7619 8.228 8.5714 11.298 12.159 0.41291 0.48255 0.68324 0.74552 0.60075 0.58439-0.44915-0.87733-1.8692-2.7803-3.8752-5.1931-1.9765-2.3774-2.441-3.0832-3.7157-5.6467-1.7422-3.5037-4.5321-7.9335-5.8635-9.3103-0.52915-0.54717-1.954-1.7361-3.1662-2.6421-1.2123-0.90601-2.2549-1.7294-2.3169-1.8298-0.339-0.54852 2.9118 0.47904 4.7422 1.499 2.3178 1.2916 3.9849 3.1686 10.649 11.99 1.2578 1.665 4.2199 5.5597 6.5823 8.6549 2.9152 3.8194 4.3712 5.8903 4.5315 6.4453l0.23622 0.81778 0.1098-0.68002 0.1098-0.68002 0.37822 0.87533c0.20802 0.48143 0.9201 1.6224 1.5824 2.5355 2.0526 2.8299 2.8774 4.1408 3.1181 4.9563 0.12752 0.4319 0.32773 0.81723 0.4449 0.85628 0.22302 0.07434 0.62574-1.1102 0.62762-1.846 5.99e-4 -0.23536 0.07545-0.47388 0.16632-0.53005 0.2119-0.13096 0.94622 1.477 1.1956 2.6181 0.43557 1.9929 0.17076 3.0531-1.2095 4.8422-0.69093 0.89558-0.82478 1.2216-0.89392 2.1775l-0.08132 1.1242 1.9024 2.5198c2.9837 3.952 3.7369 4.6493 5.4535 5.0483 1.6143 0.37527 2.7712 1.1493 3.3871 2.2662 0.64254 1.1652 0.98404 1.2153 2.5069 0.36804 1.232-0.68546 1.6366-0.56691 1.6366 0.47953 0 0.80043-0.456 1.6154-1.6778 2.9986-1.0086 1.1418-1.2222 1.6135-1.6318 3.6031-0.27363 1.3294-0.79197 2.0498-1.6315 2.2673-0.46595 0.12074-0.86827 0.51166-1.6217 1.5757-1.0237 1.4459-1.9996 2.5654-2.2362 2.5654-0.07271 0 0.07557-0.4104 0.32951-0.91201 0.41145-0.81272 0.63588-2.213 0.35469-2.213-0.05886 0-0.32851 0.2417-0.59921 0.53711-0.35689 0.38946-0.52159 0.46479-0.59915 0.27404-0.05883-0.14469-0.36048-0.5518-0.67032-0.90469-0.30984-0.35289-0.56335-0.73988-0.56335-0.85998 0-0.3095-0.13443-0.27506-0.77506 0.19858-0.63428 0.46894-1.1781 0.3748-1.1781-0.20396 0-0.54341-0.35422-0.69708-0.76011-0.32976-0.18968 0.17166-0.43249 0.3121-0.53958 0.3121-0.29383 0-1.0441-0.86282-1.0441-1.2007 0-0.49542-0.2409-0.57615-0.64374-0.2157-0.36556 0.32709-0.39217 0.32521-0.60179-0.04246-0.12062-0.21158-0.44624-0.60709-0.7236-0.87891-0.27736-0.27182-0.56874-0.75213-0.64753-1.0674l-0.14325-0.57314-0.88195 1.1061-0.89223-1.7874c-0.59196-1.1859-0.93185-1.6841-1.01-1.4806-0.08764 0.22838-0.78586-0.3499-2.7326-2.2632-3.1199-3.0663-3.8944-3.6465-6.523-4.8867-1.5171-0.71576-2.4225-1.3116-3.7109-2.4424-2.2852-2.0055-3.9002-2.7772-6.4894-3.1011-0.71388-0.08929-0.55109 0.0038 0.86703 0.49595 2.1778 0.75576 2.9761 1.2492 4.6994 2.905 0.75195 0.7225 1.7627 1.5194 2.2461 1.7708 0.6188 0.32188 0.77776 0.47897 0.53711 0.53081-0.43272 0.09321-0.45348 0.96211-0.04626 1.9367 0.16254 0.38902 0.266 0.73684 0.2299 0.77294-0.0361 0.0361-0.30797-0.18732-0.60416-0.49648-0.33882-0.35365-0.57848-0.85992-0.64624-1.3652-0.11869-0.88488-0.32137-1.0119-0.64616-0.40504-0.54649 1.0211 0.3126 2.014 3.7065 4.2839 2.4696 1.6516 4.3267 3.1598 6.4537 5.241 1.5065 1.474 5.7504 5.2484 6.2744 5.5802l0.61339 0.38837-0.22228-0.41534c-0.12226-0.22844-0.3097-0.46937-0.41654-0.5354-0.35747-0.22093-0.19951-0.5952 0.34285-0.81235 0.29541-0.11827 0.86465-0.35759 1.265-0.53182l0.72786-0.31677-0.19832 0.52162c-0.24939 0.65595-0.07514 0.77585 1.3717 0.94377 0.74518 0.08649 1.3541 0.03647 1.917-0.15748 0.45374-0.15632 0.82497-0.24512 0.82497-0.19732 0 0.38592-1.1084 2.2874-1.5499 2.6589-0.38221 0.32161-0.59795 0.73243-0.69708 1.3274-0.07896 0.47389-0.30113 1.1692-0.49373 1.5452-0.44554 0.86978-1.6588 2.2818-2.2081 2.5698-0.40108 0.2103-0.40629 0.20285-0.10398-0.14884 0.70038-0.81476 1.325-2.6783 0.97101-2.8971-0.24342-0.15044-1.7593 1.0963-2.8034 2.3056-1.6982 1.967-2.0727 3.0281-1.6932 4.7974 0.11998 0.55945 0.17973 1.0556 0.13277 1.1026-0.04695 0.04695-0.40479-0.59632-0.79519-1.4295zm13.523-18.915c0.7401-0.62275 0.81368-1.4716 0.16684-1.9247-0.23875-0.16722-0.52197-0.30404-0.6294-0.30404s2.5e-5 0.13682 0.23877 0.30404c1.1986 0.83955-0.40538 2.1319-1.776 1.4309-0.68832-0.35201-1.1012-1.0018-1.1059-1.7403-0.0052-0.82733 0.39576-1.451 1.2004-1.8671 0.76468-0.39543 1.4466-0.22749 2.262 0.55711l0.63477 0.61074v-0.50923c0-0.79131-0.99535-1.5205-2.0755-1.5205-1.0552 0-1.8557 0.38393-2.4029 1.1525-0.91948 1.2913-0.605 2.7137 0.82978 3.753 0.99209 0.71867 1.8493 0.73725 2.6571 0.0576zm-4.1957-6.035c-1.0577-0.81078-3.8615-1.269-5.4573-0.89186-0.48532 0.1147-0.35117 0.16349 0.78125 0.28413 1.8262 0.19454 3.5413 0.49051 4.0649 0.70148 0.71239 0.287 1.0418 0.23646 0.61107-0.09375zm-2.7414-2.2768c-0.59951-0.6751-1.8572-1.1244-3.4133-1.2195l-1.451-0.08864 1.2695 0.38576c0.69824 0.21217 1.7969 0.59649 2.4414 0.85404 1.4611 0.58387 1.6195 0.59325 1.1533 0.06834zm-10.431-0.24752c0-0.1118-2.761-1.6672-4.2969-2.4206-0.69824-0.34251-1.9946-1.2392-2.8809-1.9926-0.88623-0.75339-1.6113-1.3131-1.6113-1.2438 0 0.06931 0.80721 0.94914 1.7938 1.9552l1.7938 1.8292h-0.78619c-0.84736 0-1.757-0.24722-3.8268-1.04-0.7251-0.27774-1.3184-0.46143-1.3184-0.40819 0 0.05323 0.90088 0.53323 2.002 1.0667 1.6898 0.81866 2.2408 0.98962 3.5342 1.0966 1.1102 0.09179 1.5728 0.06121 1.6792-0.11103 0.16493-0.26686 1.6373 0.17844 3.0385 0.91898 0.8684 0.45895 0.87891 0.46313 0.87891 0.34959zm3.6961-1.3843c0.02435-0.75262-0.37426-1.7705-0.95738-2.4447l-0.58834-0.68027 0.47797 1.0632c0.26288 0.58476 0.5391 1.5516 0.61382 2.1484 0.10165 0.81204 0.17429 0.9869 0.28857 0.69461 0.084-0.21484 0.15841-0.56641 0.16536-0.78125zm-8.9696-3.8786c0-0.15076-2.1632-1.495-3.439-2.1371-1.5997-0.80504-5.2863-2.0936-5.9531-2.0807-0.38365 0.0074-0.30174 0.09731 0.44106 0.48413 0.50171 0.26127 1.6003 0.74695 2.4414 1.0793 0.84106 0.33234 1.8808 0.77369 2.3105 0.98078 0.61494 0.29638 3.932 1.6807 4.1504 1.7321 0.02686 0.0063 0.04883-0.02001 0.04883-0.05851zm5.8551-1.4437c-0.0051-0.87813-0.51156-2.052-1.2759-2.9576-0.6264-0.74215-2.2478-1.5786-3.0655-1.5815-0.51514-0.0018-0.53711 0.03835-0.53711 0.98244 0 1.9276 1.4608 3.5882 3.6133 4.1077 1.1711 0.28263 1.2699 0.23962 1.2652-0.55103zm0.11831-3.6664c-0.29772-1.1862-2.7551-2.652-6.0718-3.6217-2.4848-0.72649-3.3232-1.1124-4.3235-1.9904-0.52284-0.45888-0.66179-0.52122-0.50396-0.2261 0.28382 0.5307 1.627 1.7402 2.3263 2.0948 0.30183 0.15303 1.3398 0.56536 2.3066 0.9163s2.187 0.85333 2.7115 1.1164c1.1658 0.58476 2.6586 1.9513 3.1637 2.896l0.37477 0.70094 0.06242-0.72704c0.03433-0.39987 0.01361-0.92152-0.04605-1.1592zm2.7195 0.29574 0.56285-0.58749-0.34646-0.96348c-0.19055-0.52991-0.87337-2.1772-1.5174-3.6606-0.91027-2.0967-1.1447-2.5076-1.053-1.8457 0.06483 0.46824 0.43932 1.8305 0.8322 3.0273 0.54119 1.6486 0.70849 2.4719 0.69026 3.3967-0.01324 0.67139 0.04181 1.2207 0.12233 1.2207 0.08052 0 0.39968-0.26437 0.70925-0.58749zm6.153-0.4379c0.47795-0.7839 0.53538-2.5158 0.09552-2.8809-0.16113-0.13373-0.29597-0.21041-0.29963-0.1704-0.0037 0.04001-0.0306 0.73192-0.05986 1.5376-0.02926 0.80566-0.12355 1.6187-0.20954 1.8066-0.26599 0.58148 0.06535 0.37648 0.47352-0.29297zm-9.2004-2.75c-0.94818-2.3797-1.7584-3.5299-4.0815-5.7949-2.7835-2.7138-2.5745-2.0056 0.42931 1.4542 1.0744 1.2375 1.8369 2.377 2.614 3.9062 1.609 3.1665 1.5226 3.0327 1.6053 2.4852 0.03782-0.25032-0.21735-1.1732-0.56704-2.0508zm-13.706 1.1184c-0.0649-0.0649-0.23336-0.07184-0.37435-0.01542-0.15581 0.06235-0.10953 0.10863 0.118 0.118 0.20589 0.0085 0.32125-0.03768 0.25635-0.10258zm18.556 26.613c-0.61914-0.5535-1.1245-1.0603-1.123-1.1263 0.0015-0.06597 0.3981-0.17414 0.88143-0.24039 0.48332-0.06625 1.1063-0.17756 1.3844-0.24736l0.50566-0.12691-0.13871 1.1485c-0.07629 0.6317-0.19391 1.2498-0.26138 1.3737-0.07754 0.14229-0.53683-0.14514-1.2484-0.78125zm-2.7736-2.5463-1.165-1.0421 1.2786-0.22266c1.6321-0.28422 1.7349-0.28063 1.7349 0.06069 0 0.53481-0.423 2.2557-0.55329 2.251-0.07167-0.0026-0.65454-0.4737-1.2953-1.0469zm-2.5045-2.4219c-0.50622-0.51394-0.92039-0.99336-0.92039-1.0654 0-0.13402 0.56122-0.24317 2.1973-0.42734 0.67948-0.07649 0.92773-0.0373 0.92773 0.14645 0 0.3397-0.97689 2.2807-1.1479 2.2807-0.075 0-0.55053-0.4205-1.0567-0.93444zm-1.9039-1.8716c-0.1573-0.14685-1.1649-0.86023-2.2391-1.5853-1.0742-0.72505-1.7639-1.2609-1.5326-1.1907 0.86244 0.26168 2.7439 0.50168 3.9414 0.50277 0.9136 8.35e-4 1.2102 0.06496 1.1347 0.24527-0.05625 0.13428-0.24559 0.70557-0.42076 1.2695-0.3399 1.0943-0.43574 1.1766-0.88368 0.75838zm-25.22-4.9088c-0.57445-1.2938-1.1398-3.1007-1.1398-3.6428 0-0.31306 0.07157-0.30072 0.69002 0.11897 0.37951 0.25754 0.77833 0.4977 0.88625 0.53367 0.11967 0.03989 0.17431 0.8646 0.14006 2.1137l-0.05617 2.0483zm5.4828-16.587c-1.3571-0.27885-3.1799-1.4321-4.045-2.5592-1.0949-1.4265-2.6833-5.1265-3.058-7.1232-0.12246-0.65254-2.2541-2.356-2.2541-1.8013 0 0.20352 0.29643 0.758 0.65873 1.2322s0.7191 1.118 0.79289 1.4308c0.13136 0.55681 0.12476 0.5625-0.31693 0.27289-0.75794-0.49697-1.6364-1.8001-2.2989-3.4103-1.1429-2.7775-1.4561-3.2741-3.1326-4.9664-1.1743-1.1853-2.1746-1.9713-3.418-2.6854-0.9668-0.55531-1.8409-1.0374-1.9425-1.0714-0.10159-0.03394 0.01732-0.38862 0.26426-0.78817 0.34323-0.55535 0.53789-0.69824 0.82647-0.60664 2.2038 0.69944 11.172 5.3416 11.498 5.952 0.0916 0.17116 0.48861 1.317 0.88224 2.5464 0.39363 1.2294 1.1401 3.0482 1.6588 4.0418 0.51872 0.99365 0.9278 1.8066 0.90907 1.8065-0.01872-5.5e-5 -0.49547-0.17548-1.0594-0.38983-1.2-0.45608-1.2399-0.37211-0.53939 1.1327 0.43939 0.94381 0.59489 1.0868 1.752 1.6115 1.0627 0.48184 1.3384 0.71117 1.69 1.4057 0.23111 0.45644 0.8261 1.4451 1.3222 2.1971 0.4961 0.75195 0.96902 1.4712 1.0509 1.5983 0.23836 0.36991-0.07414 0.41371-1.241 0.17394zm-34.935-17.007c1.2555-2.336 2.6705-4.1522 5.2612-6.7528l2.6411-2.6513 2.9297-0.83972c1.6113-0.46184 3.7373-1.053 4.7243-1.3137l1.7946-0.47403 3.319 1.0123 0.80008 1.4833c0.44004 0.81581 0.7719 1.5115 0.73747 1.5459-0.03443 0.03443-0.45468-0.08027-0.93389-0.25489-1.0972-0.39982-5.1148-0.4467-7.2189-0.08424-2.1744 0.37456-5.0375 1.1731-6.0554 1.6889-2.1213 1.075-4.9612 3.5685-7.7851 6.8356l-0.84407 0.97656z"/></svg>
