<svg width="100" height="100" version="1.1" viewBox="0 0 100 100" xml:space="preserve" xmlns="http://www.w3.org/2000/svg"><path d="m52.112 99.671c0.14099-0.05642 0.30945-0.04948 0.37435 0.01542s-0.05045 0.11106-0.25635 0.10258c-0.22753-0.0094-0.27381-0.05565-0.118-0.118zm1.1108-0.30159c1.3662-0.48699 3.0644-1.9559 3.9001-3.3736 0.55515-0.94178 1.5477-3.729 1.9686-5.5277 0.38117-1.6293 0.56088-4.9247 0.33229-6.0934l-0.17191-0.87891-0.24333 1.3672c-0.31231 1.7548-1.2712 4.634-1.9189 5.7617-1.6106 2.8043-3.9519 5.1434-6.1602 6.1544-0.95111 0.43543-3.6718 1.1013-4.3156 1.0563-0.12483-0.0087 0.40368-0.21626 1.1745-0.46117 3.4213-1.0871 4.4533-2.3274 4.8634-5.8447l0.13359-1.146-1.1105 0.90451c-2.787 2.27-5.3498 2.9495-9.8777 2.6187-2.6899-0.19647-3.6491-0.54775-1.4957-0.54775 1.4466 0 3.8088-0.42987 4.925-0.89623 0.99906-0.41743 0.69823-0.56363-0.64014-0.31109-3.9537 0.74602-6.9027 0.37808-11.871-1.4812-3.0363-1.1362-4.472-1.8663-6.955-3.5371-2.4208-1.6289-4.3338-3.3307-5.5904-4.9732l-0.92072-1.2035 1.4188 1.2881c2.3228 2.1088 5.6353 3.772 9.5628 4.8013 3.9278 1.0294 9.5347 0.74037 13.925-0.71771 3.8236-1.2698 7.184-3.8833 8.5393-6.6412 0.46771-0.95175 0.52565-1.2858 0.50818-2.9297-0.01285-1.2099-0.16512-2.4118-0.43764-3.4546-0.97683-3.7377-1.5967-4.6417-4.9843-7.2687-5.0652-3.928-8.0312-8.6205-9.3324-14.765-0.34379-1.6234-0.34008-6.0373 0.0059-7.0176 0.46931-1.3298 1.4924-2.8785 3.2347-4.8964 2.0815-2.4109 2.7307-3.4475 2.5672-4.099-0.16745-0.66716-0.59561-0.84346-2.5997-1.0705-0.95937-0.10868-2.0137-0.25148-2.343-0.31734-0.54796-0.10959-0.66566-0.03109-1.3879 0.92576-1.177 1.5593-1.5041 2.7621-1.0048 3.6951 0.3014 0.56317-0.10282 0.46806-0.57797-0.13599-0.55224-0.70206-0.84917-1.9143-0.69394-2.8332 0.07098-0.42013 0.47417-1.2807 0.89597-1.9123l0.76692-1.1485-0.63838-1.0278c-0.59317-0.955-0.63803-1.1465-0.63344-2.7043 0.0071-2.4199 0.614-3.5139 3.5864-6.4653 4.4169-4.3857 6.0798-7.2673 6.7419-11.683l0.25376-1.6923 0.17525 0.97656c0.09639 0.53711 0.17525 2.251 0.17525 3.8086 0 2.6231-0.03812 2.9225-0.51668 4.0584-0.77659 1.8432-1.6998 3.2924-2.9725 4.6662-0.62999 0.68001-1.0518 1.2364-0.93742 1.2364 0.11441 0 1.0693-0.30996 2.122-0.68879 4.2043-1.513 7.5053-3.5487 9.7164-5.9921 1.1385-1.2581 1.3348-1.185 0.75337 0.28043-1.2303 3.1005-3.698 5.7209-7.6769 8.1515-1.8017 1.1006-1.7325 1.1038 1.4562 0.06721 2.5395-0.82557 4.7473-1.749 6.7245-2.8125 0.79333-0.42673 1.4763-0.74203 1.5176-0.70066 0.14098 0.14098-2.7702 2.7791-3.8108 3.4534-0.57045 0.36964-0.94584 0.70252-0.8342 0.73973 0.11164 0.03721 1.0511-0.1634 2.0878-0.44582 1.0366-0.28241 1.9414-0.45576 2.0105-0.38522 0.06914 0.07055-0.33916 0.55678-0.90734 1.0805-1.1042 1.0178-2.4482 1.5635-4.5334 1.8406-1.5976 0.21232-1.7124 0.37121-0.53581 0.74208 1.6498 0.52004 3.4194 1.8243 4.3802 3.2282 0.89609 1.3094 1.5013 3.0128 1.3823 3.8903l-0.07317 0.5394-0.24527-0.58594c-0.64814-1.5484-1.1668-2.358-1.9554-3.0521-0.47268-0.41607-0.92828-0.75649-1.0125-0.75649-0.08417-1e-6 0.02013 0.49269 0.23178 1.0949 0.56192 1.5987 0.75487 2.7894 0.93037 5.7411 0.12866 2.1639 0.23735 2.7943 0.60607 3.5156 0.70722 1.3835 1.2951 2.0459 2.3023 2.594 1.22 0.66401 3.8457 1.3808 4.4773 1.2222 0.81694-0.20504 2.5591-2.0346 3.7199-3.9064 1.1834-1.9083 2.484-4.5563 3.7232-7.5802 1.0508-2.5641 3.3033-6.4712 6.3878-11.08 4.4801-6.6937 5.473-8.5399 6.2483-11.619 0.67212-2.6691 0.94529-5.5589 0.83436-8.8265l-0.098-2.8867 0.56083 1.8516c0.30846 1.0184 0.78867 2.9502 1.0671 4.293 0.45572 2.1975 0.49598 2.7341 0.40303 5.3711-0.10754 3.051-0.58327 5.888-1.3264 7.9102-0.32681 0.8893-1.5836 3.3875-3.2917 6.543-0.17444 0.32226-0.61892 1.2891-0.98774 2.1484-0.36881 0.85938-1.2222 2.2876-1.8965 3.1738-0.67424 0.88623-1.1737 1.6113-1.11 1.6113 0.06376-1e-6 0.69567-0.54932 1.4043-1.2207 0.76744-0.72716 1.1275-0.9838 0.89049-0.63476-0.21881 0.32226-0.95086 1.5967-1.6268 2.832-3.5976 6.5752-8.4144 12.154-15.261 17.676-1.4651 1.1815-2.9592 2.3961-3.3203 2.6989l-0.6565 0.55066 0.97656-0.5344c1.5471-0.84663 3.3805-2.0981 5.1758-3.5328 2.291-1.831 7.392-6.9842 9.2773-9.3723 0.85938-1.0886 1.5965-1.9464 1.6381-1.9063 0.12328 0.11881-3.2027 5.0202-4.5216 6.6634-1.7324 2.1583-4.5603 4.9155-6.6165 6.451l-1.7641 1.3173 0.94451 0.22007c0.51948 0.12104 1.6476 0.37547 2.507 0.5654 1.5235 0.33672 6.6164 1.9992 10.938 3.5703 2.6464 0.9622 4.6006 1.3069 6.5401 1.1536 1.9155-0.15142 3.2474-0.56429 4.5289-1.404l1.0404-0.6817-0.9006 0.83845c-2.439 2.2707-7.6402 3.8718-11.679 3.595-3.5682-0.24449-6.8764-1.4754-9.0027-3.3497-1.5639-1.3786-2.7087-2.1827-3.6643-2.5738-0.70551-0.28875-0.68722-0.25694 0.53963 0.9386 0.69844 0.68062 1.8135 1.8743 2.4779 2.6526 3.0391 3.5603 5.5972 4.9325 9.1954 4.9325 0.78944 0 1.3879 0.07682 1.3298 0.1707-0.20096 0.32516-2.3113 1.2137-3.6018 1.5165-3.7958 0.89066-8.2719-0.86504-10.519-4.1259-1.0188-1.4785-0.59951-0.3588 0.84005 2.2433 1.4891 2.6916 2.1116 4.1782 2.4308 5.8043 0.28007 1.4269 0.17472 4.6406-0.16319 4.9786-0.18011 0.18011-0.23274 0.1406-0.23274-0.17473 0-0.65132-0.96259-3.3514-1.7626-4.9441-0.40468-0.80566-1.2943-2.2894-1.9768-3.2971-0.68258-1.0077-1.5706-2.3181-1.9735-2.9118l-0.73243-1.0796v0.86343c0 0.47488 0.21973 1.5557 0.48828 2.4019 0.26856 0.84616 0.48746 1.9437 0.48645 2.439l-0.0018 0.90058-0.58806-1.0254c-0.32343-0.56396-0.61943-1.0254-0.65777-1.0254-0.03834 0-0.02731 0.37619 0.02451 0.83597 0.05907 0.52406-0.02276 1.116-0.2193 1.5864-0.17244 0.41271-0.30734 0.89346-0.29978 1.0683 0.0076 0.17487 1.0252 1.065 2.2615 1.9781 3.8361 2.8334 5.4386 4.8944 6.2412 8.0272 0.48574 1.896 0.32105 4.2823-0.39275 5.691-0.31227 0.61629-0.74291 1.2755-0.95698 1.4648-0.38074 0.33683-0.38604 0.33157-0.24344-0.24162 0.23568-0.94736 0.14253-3.8634-0.17153-5.3697-0.57919-2.7778-2.2607-6.0242-4.0661-7.85-1.1389-1.1518-1.7626-1.502-1.2315-0.69139 0.51706 0.78913 1.9904 4.4863 2.5082 6.2939 0.71006 2.479 0.9831 4.3691 0.97338 6.7383-0.0069 1.6864-0.101 2.3284-0.52959 3.6133-0.9646 2.8919-2.9645 5.6372-5.2569 7.216-1.0529 0.72516-3.366 1.6843-3.9919 1.6553-0.1831-0.0085-0.06924-0.10941 0.25302-0.22428zm-13.887-67.984c0.43492-0.43492 0.84851-1.8133 0.61436-2.0474-0.17663-0.17663-1.864 1.5616-1.864 1.9202 0 0.71151 0.60384 0.77299 1.2496 0.12723zm38.039-4.3834c2.1343-2.2467 3.88-5.3686 4.0329-7.212 0.09973-1.2026-0.22102-1.4945-1.0472-0.95321-0.74566 0.48857-1.1763 1.3275-2.0609 4.0148-0.44203 1.3428-1.1478 3.0786-1.5683 3.8574-0.42052 0.77881-0.6878 1.416-0.59395 1.416 0.09385 0 0.65071-0.50537 1.2375-1.123zm-28.398 53.747c-0.69188-0.37541-1.0435-1.0892-1.2096-2.4556-0.171-1.4067-0.46566-1.8313-1.1515-1.6591-0.76412 0.19178-1.8338 1.2186-2.0955 2.0116-0.12644 0.38313-0.18412 1.0379-0.12817 1.4551 0.05595 0.41716 0.07332 0.75848 0.03859 0.75848-0.26804 0-0.87625-1.4587-0.87625-2.1015 0-0.65876 0.14512-0.94731 0.89701-1.7836 0.91761-1.0206 0.87256-1.1418-0.29942-0.80571-0.36815 0.10558-0.71054 0.1508-0.76087 0.10047-0.18504-0.18504 2.068-1.0699 3.1013-1.218 1.0311-0.14781 1.0719-0.17705 1.2497-0.89497 0.26332-1.0631-0.12835-2.316-1.1672-3.7337-3.2909-4.4911-4.2641-5.5845-5.5055-6.1855l-0.83661-0.405-1.3444 1.2447c-1.2883 1.1928-2.8278 2.1209-4.0102 2.4177-0.51722 0.12982-0.49434 0.0836 0.33904-0.68458 0.98804-0.91074 2.0871-2.4993 2.0871-3.0167 0-0.24322-0.35576-0.05-1.3184 0.71606-1.9651 1.5638-2.3957 1.8286-3.67 2.2564-1.0481 0.35189-3.9974 0.87661-4.1378 0.73619-0.03105-0.03105 0.97691-0.74247 2.2399-1.5809 4.0527-2.6904 6.5332-5.0385 7.9216-7.4987 0.58165-1.0306 0.60295-1.0459 0.90318-0.64947 0.16912 0.22333 0.59521 0.91697 0.94688 1.5414 1.5906 2.8245 4.3806 5.9404 7.7525 8.658 1.2338 0.99439 2.2936 1.9668 2.3552 2.1609 0.0616 0.19408-0.0824 0.7314-0.31999 1.1941-0.44773 0.87184-1.0267 3.203-0.86182 3.4698 0.0517 0.08366 0.4325 0.20623 0.8462 0.27238 0.78926 0.12621 2.0022 0.83411 2.138 1.2478 0.0594 0.18093-0.14768 0.2114-0.81502 0.11994-0.86702-0.11884-1.2624 0.13819-0.60223 0.39152 0.16084 0.06172 0.48421 0.50696 0.71861 0.98942 0.36002 0.74102 0.39009 0.95642 0.1937 1.3874-0.14639 0.3213-0.35824 0.48628-0.57212 0.44557-0.26122-0.04973-0.3629-0.32563-0.44036-1.1948-0.09067-1.0174-0.34528-1.489-0.80966-1.4997-0.07102-0.0016-0.36607 0.27861-0.65568 0.62278-0.43907 0.5218-0.51117 0.76222-0.43399 1.447 0.05091 0.45168 0.28603 1.0929 0.52249 1.425 0.23646 0.33208 0.40197 0.60026 0.3678 0.59596-0.03417-0.0043-0.30272-0.13836-0.59678-0.29792zm-23.391-16.619c-0.95868-0.17341-2.254-0.66775-2.7344-1.0435l-0.48828-0.38196 1.2413-0.0043c1.7152-6e-3 3.353-0.46634 5.2708-1.4814 1.7703-0.93702 4.4806-2.9587 5.4564-4.07l0.61227-0.69734 0.20264 0.72964c0.29526 1.0632 0.25388 1.5792-0.20217 2.5212-0.44255 0.91418-1.7451 2.1626-3.0641 2.9366-1.7626 1.0344-4.818 1.7582-6.2946 1.4911zm-6.25-3.6767c-1.5624-0.33023-3.1855-0.89174-4.5395-1.5704-1.1165-0.55963-2.3728-1.4492-2.2376-1.5844 0.04646-0.04646 0.77733 0.11248 1.6242 0.3532 1.3213 0.37558 2.0107 0.4378 4.86 0.43857 4.9731 0.0013 8.7021-0.77341 11.768-2.4449l1.416-0.7721v0.59312c0 1.5672-1.6394 3.5881-3.7109 4.5743-1.251 0.59558-1.318 0.60496-4.5898 0.6427-2.2093 0.02548-3.7451-0.05149-4.5898-0.23004zm59.971-3.6324c-1.661-0.18686-3.8859-0.6244-9.2872-1.8264l-2.9297-0.65197 1.4648-0.69996c2.8539-1.3637 4.6701-1.5524 9.5703-0.99409 3.3437 0.38093 8.3079 0.43336 9.8633 0.10417 1.8115-0.3834 3.7641-1.4123 5.2308-2.7562 0.72167-0.66128 1.3121-1.0975 1.3121-0.96944 0 0.12809-0.3272 0.85555-0.72712 1.6166-1.4606 2.7796-4.4619 5.0594-7.769 5.9015-1.5098 0.38443-4.6271 0.51223-6.7284 0.27584zm-64.17-0.47542c-3.1568-0.44679-4.8765-0.98312-7.0004-2.1832-1.3057-0.7378-2.9418-1.9995-2.7898-2.1515 0.051998-0.052 1.0129 0.04946 2.1353 0.22546 1.5117 0.23704 4.4141 0.3658 11.195 0.49664 8.6162 0.16624 10.534 0.30305 11.078 0.79018 0.19389 0.1737-1.769 1.5252-2.8998 1.9966-2.4553 1.0235-7.7073 1.3936-11.719 0.82588zm22.449-1.1216c-1.0642-0.57527-5.4675-3.6087-6.9218-4.7685-3.8507-3.0708-8.0832-7.7869-10.517-11.718-1.3469-2.1761-2.6811-4.649-2.4216-4.4886 0.1212 0.0749 1.1363 1.5184 2.2557 3.2078 1.1194 1.6894 2.6496 3.8642 3.4003 4.8328 2.1444 2.767 7.1255 7.4837 9.7236 9.2074 1.7188 1.1403 3.4536 2.1505 3.9551 2.303 0.96587 0.29368 0.3415-0.3056-1.4928-1.4328-4.5518-2.7972-11.089-8.7727-13.743-12.561-1.5786-2.2539-1.9965-2.9554-5.5614-9.3363-5.2799-9.4505-5.9736-11.381-5.9653-16.602 0.0052-3.2809 0.24956-4.9097 1.1678-7.7833l0.53978-1.6893 0.14117 2.9003c0.18861 3.8749 0.77184 7.2256 1.5836 9.098 0.3525 0.81304 1.4638 2.8845 2.4695 4.6033 2.2631 3.8675 4.6257 7.4563 6.0739 9.226 0.10876 0.13291 0.26184 0.39658 0.34018 0.58594 0.07834 0.18936 0.4814 0.86103 0.89569 1.4926 0.41429 0.63157 1.1061 1.9499 1.5374 2.9297s1.0585 2.1791 1.3939 2.6652 0.78549 1.2332 1.0003 1.6602c0.5776 1.1479 6.7501 7.2899 8.4365 8.3947 1.469 0.96243 1.4577 0.94393 1.7263 2.8308 0.06882 0.4834 0.29325 1.5527 0.49874 2.3763s0.37361 1.6271 0.37361 1.7857c0 0.39278-0.43127 0.52835-0.8907 0.28001zm-20.567-27.721c-0.22218-0.67825-0.67164-2.3318-0.99878-3.6746-0.67074-2.753-1.2555-4.0642-1.9988-4.4814-1.1694-0.65635-1.4833 0.80151-0.64961 3.0165 0.91332 2.4265 3.6091 6.8147 3.9667 6.4571 0.04643-0.04642-0.09737-0.63934-0.31956-1.3176zm8.274 23.853c-1.5458-0.25427-6.7406-0.57481-9.3417-0.57642-3.0719-0.0019-4.6193-0.25573-6.1792-1.0136-1.4399-0.69958-2.6826-1.8597-3.8772-3.6197-1.2775-1.882-1.2543-1.9101 0.77297-0.93781 2.6891 1.2897 3.5178 1.454 10.657 2.1138 0.47372 0.04378 0.5773 6e-5 0.4275-0.18044-0.17577-0.21179-3.0065-1.6461-7.9863-4.0465-2.3261-1.1213-4.4686-3.2568-5.6138-5.5955-1.0578-2.1603-1.6146-4.2245-1.6058-5.9531l0.00702-1.3711 0.65757 1.4013c2.0762 4.4243 4.3884 6.7171 9.0267 8.9507 1.0576 0.50928 2.3623 1.1401 2.8994 1.4018l0.97656 0.4758-0.78125-0.76259c-0.42969-0.41942-2.3018-2.1957-4.1602-3.9474-4.8812-4.6008-7.1486-7.8199-8.2128-11.66-0.47489-1.7137-0.71461-4.5193-0.517-6.0511l0.14658-1.1363 0.44838 1.6707c0.51853 1.9321 1.7177 4.8045 2.6582 6.3673 0.35884 0.59624 1.2623 1.8441 2.0078 2.773 0.74542 0.92892 2.2044 2.7461 3.2423 4.0383 4.2196 5.2535 7.6277 8.7437 12.102 12.393 3.6723 2.9955 6.0909 5.1108 5.9754 5.2262-0.21089 0.21089-4.1369-1.5953-5.7313-2.6366-0.2417-0.15787-0.43945-0.23673-0.43945-0.17524 0 0.1519 2.5163 2.1498 3.3404 2.6522 0.70823 0.43177 0.62479 0.4503-0.89902 0.19965zm45.41-0.95905c0.26856-0.22347 1.0509-0.72688 1.7386-1.1187 2.9115-1.6589 5.7098-2.4007 9.078-2.4065 6.5518-0.01137 9.8861-1.0349 12.988-3.9869 1.4035-1.3357 1.4377-1.2062 0.3064 1.158-1.1408 2.3839-2.8203 4.0699-5.2702 5.2904-2.2411 1.1165-3.5397 1.2664-11.907 1.3743l-7.4219 0.09572zm0.45861-3.2294c0.19853-0.14639 1.3411-0.77022 2.5391-1.3863 1.964-1.01 2.3834-1.3278 4.2665-3.2327 1.8581-1.8796 4.4546-4.9996 4.4546-5.3526 0-0.07237-0.57485 0.40616-1.2774 1.0634-1.7732 1.6588-2.9056 2.2044-4.4212 2.1303l-1.1838-0.05785 1.4308-0.97611c0.78694-0.53686 2.0938-1.5079 2.9041-2.1578 0.8103-0.64995 2.3961-1.8728 3.5241-2.7175 6.2138-4.6534 8.8012-7.7797 11.357-13.722 0.56438-1.3123 1.0598-2.3523 1.101-2.3112 0.13887 0.13887-0.53016 5.2733-0.8411 6.455-1.3132 4.9905-4.4118 9.1858-9.3766 12.695-2.4417 1.726-3.8583 2.8414-3.7484 2.9513 0.22427 0.22427 3.7515-0.81776 5.3811-1.5897 4.9674-2.3531 7.9323-5.8874 9.5392-11.371 0.19669-0.67124 0.43482-1.2206 0.52919-1.2207 0.30537-4.82e-4 -0.01571 4.1368-0.44713 5.7614-0.54823 2.0645-2.1051 5.195-3.2759 6.5874-1.8739 2.2283-5.5699 4.642-8.1288 5.3085-0.59853 0.1559-2.3022 0.38041-3.786 0.49892-3.5457 0.2832-3.6141 0.2993-5.4321 1.2783-1.6176 0.87108-3.0741 1.3569-4.5898 1.531-0.77601 0.08913-0.83665 0.06979-0.51795-0.16522zm-54.096-8.74c-1.0818-1.1664-4.2967-5.1047-5.7796-7.0801-3.2074-4.2725-5.5074-8.2305-6.3652-10.954-1.0794-3.4268-1.2309-5.3772-0.68592-8.8341 0.27782-1.7623 0.34924-1.9808 0.45889-1.4036 0.071421 0.37598 0.24414 1.2988 0.38382 2.0508 0.69269 3.7291 2.4711 7.7208 5.8049 13.03 2.0424 3.2523 2.8097 4.7768 3.8483 7.6459 0.71012 1.9618 1.6789 4.0124 2.5396 5.3759 0.27914 0.44219 0.47972 0.80398 0.44574 0.80398-0.03399 0-0.32671-0.28564-0.6505-0.63477zm62.12-3.7352c0.65197-0.99073 1.8006-2.9198 2.5526-4.2868 0.75605-1.3745 2.3995-3.8585 3.6765-5.557 3.4766-4.6239 5.084-7.4515 6.2978-11.079 0.74634-2.2304 1.243-5.0852 1.2743-7.3245l0.02046-1.4648 0.27662 0.87891c0.99655 3.1663 1.1359 9.1667 0.28117 12.109-1.1566 3.982-2.8728 6.3911-8.6961 12.207-2.4739 2.4707-5.0314 4.903-5.6833 5.4052l-1.1854 0.91296z"/></svg>
