<svg width="100" height="100" version="1.1" viewBox="0 0 100 100" xml:space="preserve" xmlns="http://www.w3.org/2000/svg"><path d="m44.599 99.185c3.7688-3.8801 4.5194-6.9894 2.9683-12.296-1.0389-3.5544-1.319-5.6949-1.1644-8.9004l0.13331-2.7653-0.58662 1.5363c-1.1233 2.9416-1.3668 4.2259-1.2403 6.5403 0.06511 1.1908 0.18789 2.3495 0.27286 2.5748 0.08496 0.22532-0.0631 0.02671-0.32901-0.44135-1.0659-1.8762-1.3292-3.2623-1.2977-6.8302 0.01704-1.9241 0.19834-4.3429 0.42093-5.616 0.21505-1.23 0.35305-2.2686 0.30667-2.3081-0.13884-0.11817-2.8131 5.8758-3.2103 7.1954-0.53476 1.7766-0.34221 4.632 0.39447 5.8495 0.51201 0.84622 0.51826 0.89177 0.07617 0.55591-0.26485-0.20122-0.84347-1.0308-1.2858-1.8435-0.69538-1.2775-0.81648-1.7412-0.89421-3.4236-0.04945-1.0703 0.02143-2.3582 0.1575-2.8621 0.13608-0.50391 0.2084-0.9494 0.16072-0.98998-0.21877-0.18621-1.238 2.2486-1.6554 3.9545-0.05513 0.22532-0.1128-0.3076-0.12816-1.1843-0.03304-1.886 0.41443-3.1639 2.1221-6.0606 1.0906-1.85 2.1818-4.395 2.1818-5.0886 0-0.46165-3.566 4.1327-4.4854 5.7788-0.48902 0.87559-0.92991 2.1117-1.1324 3.1749-0.43782 2.2989-0.76085 1.7301-0.75619-1.3314 4e-3 -2.615 0.53495-4.381 1.8934-6.2975 0.59604-0.84089 0.71108-1.1206 0.4032-0.98038-0.83591 0.38077-2.8135 2.4222-3.698 3.8173-0.93387 1.473-0.98112 1.1626-0.14071-0.92451 0.74506-1.8503 2.358-3.9088 4.6268-5.905 1.1862-1.0437 2.0786-1.8976 1.9829-1.8976-0.48881 1e-6 -3.7912 1.8462-4.9228 2.7521l-1.2957 1.0373 0.54652-0.92175c1.0298-1.7369 1.8982-2.6 4.203-4.1779 2.6949-1.8449 4.0956-3.2803 5.425-5.5593 0.88612-1.5192 0.96029-1.7769 0.96029-3.3367 0-1.9649-0.37547-2.7603-1.893-4.0102l-0.97119-0.79986-0.30208 0.59503c-0.54494 1.0734-1.6853 2.1416-2.9402 2.7542-0.67846 0.33121-1.32 0.60306-1.4256 0.60412-0.10564 1e-3 0.12086-0.38982 0.50331-0.86862 0.58913-0.73755 1.253-1.9932 1.253-2.3698 0-0.05872-0.60936 0.46637-1.3541 1.1669-1.4776 1.3897-3.0797 2.2026-4.7026 2.3859l-1.0427 0.11778 0.78333-0.30802c1.2993-0.51091 2.5192-1.8626 3.068-3.3995 0.14682-0.41116-0.10661-0.2782-1.2859 0.67464-1.8025 1.4564-3.0449 1.9436-5.3561 2.1003l-1.7818 0.12083 0.98212-0.3982c0.54017-0.21901 1.3667-0.80143 1.8368-1.2943 0.88551-0.92833 2.3552-2.8827 2.3552-3.1319 0-0.07823-0.6227 0.29169-1.3838 0.82204-1.9376 1.3502-3.6767 1.9947-5.652 2.0946-0.89153 0.04511-1.9087 0.02054-2.2604-0.05459-0.62842-0.13424-0.62121-0.14427 0.41768-0.58091 0.96508-0.40562 5.1519-3.5927 4.9478-3.7664-0.04797-0.04083-0.67227 0.15133-1.3873 0.42704-2.918 1.1251-6.61 1.1078-9.4131-0.04403l-1.3746-0.56484 1.8559 0.0012c1.6683 1e-3 2.0262-0.07436 3.5405-0.74586 1.5636-0.69336 2.8083-1.3762 2.5269-1.3863-0.06618-0.0024-0.65195 0.13297-1.3017 0.30074-1.5804 0.40808-3.1964 0.3781-5.7752-0.10715-2.0756-0.39056-4.9253-1.4312-6.1593-2.2492l-0.60164-0.39883 0.96263 0.22761c1.8285 0.43234 8.7209 0.14448 9.9102-0.41391 0.15615-0.07331-1.1975-0.13551-3.0082-0.13823-2.4072-0.0036-3.7126-0.1036-4.8564-0.37194-2.2609-0.53043-5.218-1.8042-6.6979-2.8851-0.70571-0.51543-1.2472-0.9371-1.2033-0.93705 0.043906 5.7e-5 0.67544 0.19693 1.4034 0.4375 1.6088 0.53162 5.0279 0.71411 8.8193 0.4707l2.6119-0.16768-2.1059-0.16115c-5.5023-0.42104-9.6452-2.0127-12.809-4.921-1.6568-1.5231-2.0879-2.2105-0.81416-1.2983 2.0001 1.4324 5.1501 2.2143 10.302 2.5569 4.2982 0.28584 4.6692 0.24881 1.9373-0.19339-6.4448-1.0432-11.918-3.971-14.185-7.589l-0.82884-1.3223 1.3023 0.99304c0.71624 0.54617 2.1574 1.359 3.2026 1.8063 2.8057 1.2007 10.101 3.4547 10.388 3.2098 0.04613-0.03925-1.0719-0.51904-2.4846-1.0662-3.451-1.3367-6.8787-2.9935-8.3442-4.0334-1.9616-1.3919-3.7384-3.6409-4.5908-5.8109-0.3194-0.81317-0.31726-0.82122 0.086018-0.32368 1.5402 1.9002 4.0701 3.4681 8.6705 5.3734 1.6293 0.67481 3.0069 1.1891 3.0613 1.1428 0.05437-0.04628-0.58876-0.42076-1.4292-0.83218-4.0115-1.9638-6.5794-4.3492-8.1028-7.5269-0.82133-1.7133-1.667-4.488-1.6541-5.4268 0.007284-0.52912 0.089574-0.44831 0.59207 0.58159 1.4343 2.9396 4.9063 6.4402 8.9447 9.0183 3.2937 2.1027 3.6247 2.1304 1.219 0.10183-4.294-3.6207-6.0079-6.8095-5.9844-11.134 0.0084592-1.556 0.1435-2.4059 0.55405-3.4874l0.54283-1.43 0.16563 2.2532c0.09109 1.2392 0.35055 2.76 0.57657 3.3794 0.96395 2.6419 3.4312 6.0276 5.8963 8.0913l1.4681 1.229-1.1316-1.4338c-2.3068-2.9231-2.9813-4.893-2.9804-8.7054 6.79e-4 -2.8006 0.3626-4.6489 1.3217-6.75 0.60157-1.3178 1.52-2.8171 1.1979-1.9554-1.3149 3.5172-1.0705 8.2633 0.61726 11.983 0.98556 2.172 2.6445 4.49 4.2066 5.8777l1.3384 1.189-1.0043-1.2896c-1.3038-1.6742-1.9142-3.3617-1.8927-5.2321 0.01801-1.5618 0.41263-2.9369 0.45034-1.5692 0.0315 1.142 0.61098 2.72 1.7096 4.6554 0.80977 1.4266 1.3972 2.1149 2.8509 3.3406 1.6394 1.3822 2.2844 1.7439 6.1628 3.4555 5.6479 2.4925 7.4255 3.5082 8.4354 4.8201 0.203 0.2637 0.6403 1.342 0.97176 2.3962 0.80095 2.5474 1.5197 3.4247 3.5186 4.2947 1.5911 0.69249 3.8639 0.34547 5.0502-0.77108 0.68919-0.64867 1.3864-2.1772 1.3864-3.0394 0-2.2237-2.3256-4.1898-4.6855-3.9612-0.58008 0.05618-0.74182 0.18639-0.8496 0.6839l-0.13312 0.6145-0.2964-0.73862c-0.4738-1.1807 0.48078-2.6411 1.7263-2.6411 0.31039 0 0.76944-0.19289 1.0201-0.42864 0.85633-0.80538 1.3555-0.89201 5.7659-1.0007 4.2845-0.10554 4.3627-0.11563 5.8902-0.76063 0.85145-0.35952 1.5883-0.61947 1.6374-0.57767 0.25319 0.2155-2.297 2.0177-3.728 2.6345-1.5813 0.68162-1.618 0.71424-0.96446 0.85648 0.3737 0.08133 1.5108 0.10455 2.5269 0.05159l1.8475-0.09629-1.3236 0.51675c-0.83731 0.3269-1.7786 0.52206-2.5621 0.53119-1.4077 0.0164-1.4083 0.12226-0.0047 0.87838 0.69524 0.37454 1.3479 0.54466 2.1291 0.55499 1.0154 0.01342 1.0748 0.03944 0.60164 0.26368-0.28872 0.13683-0.95812 0.25408-1.4876 0.26054l-0.96263 0.01176 1.0491 0.40517c0.57699 0.22284 1.2602 0.40517 1.5183 0.40517 0.28363 0 0.40368 0.09029 0.30351 0.22824-0.09904 0.13639-0.54057 0.18545-1.0972 0.12191-0.51229-0.05849-0.93143-0.06698-0.93143-0.0189 0 0.26249 2.37 1.3098 2.9952 1.3236l0.73502 0.01617-0.67751 0.21019c-0.45642 0.1416-0.98652 0.14343-1.6244 0.0056-1.2604-0.2723-1.2383-0.01557 0.13553 1.5728 1.0584 1.2237 1.1876 1.5806 0.3342 0.92326-0.2344-0.18055-0.56781-0.28754-0.74092-0.23775-0.20839 0.05992-0.01792 0.34391 0.56365 0.84035 1.1276 0.9626 2.2025 1.0042 3.9463 0.15289 1.6058-0.78395 2.3971-1.8101 3.0086-3.9013 0.27735-0.9485 0.6557-1.9738 0.84078-2.2784 0.83772-1.3788 2.7071-2.5074 8.0516-4.8608 5.9438-2.6173 7.661-3.8757 9.4684-6.9388 1.2284-2.0818 1.8359-3.6722 1.8577-4.8632 0.01412-0.77116 0.03377-0.79514 0.2632-0.32128 0.13857 0.28618 0.20062 1.3332 0.14066 2.3734-0.11848 2.0556-0.66942 3.3578-2.2368 5.2869l-0.84918 1.0451 1.3936-1.2551c2.2086-1.9892 4.3136-5.3363 5.2651-8.372 0.21187-0.67595 0.44273-2.3846 0.51303-3.797 0.10861-2.1822 0.051143-2.826-0.38245-4.2854-0.28064-0.94458-0.47254-1.7495-0.42644-1.7888 0.17315-0.14738 1.6684 3.1665 2.1304 4.7217 0.4064 1.3679 0.46466 2.0963 0.37709 4.715-0.09464 2.8302-0.16634 3.2391-0.83159 4.743-0.73861 1.6697-1.4852 2.8147-2.8004 4.2944-0.59949 0.67448-0.46259 0.60205 0.77438-0.40967 1.4962-1.2237 3.8834-4.0333 4.9456-5.8206 1.0175-1.712 1.618-3.7214 1.7803-5.9573l0.15613-2.1508 0.45648 1.2128c0.97902 2.6011 0.88272 5.8168-0.25466 8.5044-0.90322 2.1343-3.0753 4.8001-5.4401 6.6767l-1.9814 1.5724 2.2862-1.3001c2.9621-1.6844 7.4766-5.4868 8.8437-7.4487 0.54953-0.78861 1.237-1.9657 1.5278-2.6158 0.29074-0.65006 0.56748-1.1489 0.61497-1.1084 0.18583 0.15817-0.65513 3.6004-1.2303 5.0359-0.71238 1.7779-2.0515 3.9231-3.0812 4.9357-1.1908 1.1711-3.3029 2.628-5.2802 3.6422-1.0198 0.52307-1.8211 0.97917-1.7807 1.0136 0.1148 0.09771 3.1513-1.1371 5.8008-2.359 2.7997-1.2912 4.1269-2.1634 5.4351-3.572 0.5183-0.55809 0.94236-0.94156 0.94236-0.85214 0 0.08942-0.48342 1.0084-1.0743 2.0421-1.9619 3.4325-4.9683 5.5766-11.193 7.9823-1.9851 0.76724-3.5608 1.4362-3.5016 1.4867 0.15911 0.13543 3.985-0.91101 6.7437-1.8445 3.3438-1.1315 5.3276-2.0529 6.8327-3.1735l1.2872-0.95838-0.42012 0.70312c-2.5572 4.2798-7.7522 7.1173-15.16 8.2804-2.1417 0.33628-1.2227 0.36763 2.6943 0.09192 4.8983-0.34479 7.7824-1.0388 9.8801-2.3773 1.2045-0.76863 0.92978-0.22807-0.60164 1.1839-3.1852 2.9367-8.3629 4.8055-13.629 4.9191-1.1493 0.02479-1.1109 0.03933 0.573 0.21678 0.99272 0.10461 3.3211 0.15525 5.1741 0.11252 2.8122-0.06484 3.5633-0.15148 4.5429-0.52403 0.64554-0.24549 1.2229-0.44635 1.2831-0.44635 0.06017 1e-6 -0.45364 0.40906-1.1418 0.90901-2.9245 2.1247-6.7138 3.2602-10.941 3.2786-1.456 0.0063-3.1887-0.04914-3.8505-0.12327l-1.2033-0.13478 1.083 0.29242c2.4761 0.66857 7.7158 0.99995 9.9873 0.63162l0.96263-0.15609-1.106 0.60207c-3.2806 1.7858-8.152 2.669-11.047 2.0029-0.72781-0.16748-1.3606-0.27275-1.4062-0.23394-0.17445 0.14848 2.5581 1.3457 4.0238 1.7629 1.1105 0.31613 1.8757 0.40679 2.7676 0.32789l1.2326-0.10906-1.4439 0.58779c-2.995 1.2192-6.8008 1.2193-9.6401 3.26e-4 -0.72039-0.30928-1.3098-0.49664-1.3098-0.41636 0 0.37083 4.0143 3.3563 5.0757 3.7748l1.1904 0.46944-0.75658 0.12879c-2.9001 0.49367-5.333-0.19731-8.4947-2.4126-1.3101-0.91793-1.2868-0.80834 0.27947 1.3124 1.1297 1.5297 1.9255 2.231 3.0666 2.7027l0.96263 0.39789-1.7818-0.12083c-2.3112-0.1568-3.5536-0.64398-5.3561-2.1004-1.1798-0.95327-1.4328-1.086-1.2863-0.67464 0.55473 1.5568 1.5693 2.7251 2.8265 3.2548 0.93018 0.39189 0.96467 0.43192 0.37236 0.43206-1.5589 3.86e-4 -3.2496-0.79778-4.9052-2.3158-1.1276-1.0339-1.5522-1.3207-1.4231-0.96142 0.21554 0.59982 0.92186 1.7517 1.4758 2.4068 0.52508 0.62094 0.08977 0.59789-1.2406-0.06568-1.2399-0.61848-2.4444-1.7281-2.9139-2.6847-0.18376-0.37433-0.41388-0.68043-0.51137-0.68021-0.3031 6.77e-4 -1.7325 1.9213-1.9828 2.6643-0.13086 0.38837-0.30723 1.4134-0.39193 2.2778-0.14888 1.5194-0.1245 1.6225 0.73345 3.1004 1.1074 1.9076 2.6876 3.5895 4.7129 5.0164 2.9031 2.0453 3.7566 2.8105 4.6475 4.1664 0.48822 0.74311 0.88768 1.407 0.88768 1.4753 0 0.0683-0.52266-0.32067-1.1615-0.86439-1.0709-0.91147-4.6412-2.8861-5.2109-2.882-0.13513 9.8e-4 0.73666 0.81438 1.9373 1.8076 2.817 2.3302 4.732 5.0268 5.261 7.4082 0.14072 0.6335 0.06695 0.57442-0.63413-0.50782-0.78177-1.2068-3.7526-4.1085-3.995-3.9022-0.06847 0.05828 0.04915 0.26927 0.26137 0.46887 0.67789 0.63756 1.8546 3.0091 2.2185 4.4711 0.42503 1.7076 0.45874 3.7826 0.07958 4.8981l-0.27852 0.81934-0.3038-1.6133c-0.43223-2.2953-1.1582-3.785-2.944-6.0411-0.85882-1.085-1.8142-2.3414-2.123-2.7921-1.3659-1.9933-0.04622 1.8166 1.5964 4.6088 1.3029 2.2147 2.1764 4.8722 2.1504 6.5425l-0.01772 1.1388-0.42021-1.4338c-0.23112-0.78861-0.66204-1.8025-0.95762-2.2532-0.36282-0.55317-0.49025-0.65298-0.39226-0.30725 0.80605 2.8439 0.58334 5.0575-0.73833 7.3382-0.92465 1.5956-1.4023 1.8691-0.71652 0.41022 0.52766-1.1224 0.5317-4.1158 0.0078-5.8025-0.20995-0.67595-0.76409-2.0125-1.2314-2.9701-0.46734-0.9576-1.0155-2.1378-1.2182-2.6227s-0.42611-0.83256-0.49659-0.77257c-0.07048 0.05999 1.57e-4 0.91761 0.15698 1.9058 0.46766 2.9469 0.68269 6.6075 0.48763 8.3012-0.16562 1.4381-1.3342 5.0093-1.5728 4.8063-0.05396-0.04592 0.03083-0.78943 0.18842-1.6522 0.21979-1.2033 0.22118-1.9861 0.0059-3.3604-0.2708-1.7293-1.6453-5.9274-1.8763-5.7308-0.06217 0.05292 0.01069 0.96086 0.16206 2.0176 0.36975 2.5824 0.13033 4.9367-0.90361 8.8858-0.72538 2.7705-0.83614 3.5149-0.71625 4.8136 0.16986 1.8399 0.85125 3.6363 1.9896 5.2452 0.61696 0.87205 0.70056 1.0795 0.3168 0.78618-1.1688-0.89336-3.5373-4.3333-3.9412-5.7242-0.16397-0.56453-0.21422-0.49578-0.61792 0.84542-0.81519 2.7083-2.6953 5.3296-4.9738 6.9345l-1.1578 0.81556zm-21.193-60.034c-0.07996-0.06806-0.28754-0.07534-0.46126-0.01617-0.19198 0.06539-0.13495 0.11392 0.1454 0.12375 0.25369 0.0089 0.39583-0.03952 0.31586-0.10758zm22.88-14.46c0.44602-0.37963 0.34506-0.57354-0.29865-0.57354-0.69998 0-1.0536 0.38244-0.58652 0.63427 0.43949 0.23693 0.54386 0.22977 0.88517-0.06073z"/></svg>
