<svg width="100" height="100" version="1.1" viewBox="0 0 100 100" xml:space="preserve" xmlns="http://www.w3.org/2000/svg"><path d="m19.448 99.693c-0.64602-0.64602-0.26024-1.6027 1.4479-3.5908 1.2945-1.5067 1.4152-1.8088 1.3901-3.4804-0.01254-0.83438 0.07287-1.5804 0.19825-1.7315 0.131-0.15785 0.60956-0.26543 1.1807-0.26543 2.1436 0 3.3972-1.3164 5.8591-6.1523 1.6858-3.3114 2.2854-4.2948 3.5666-5.8492 0.5415-0.657 0.67662-0.9207 0.42204-0.82367-1.369 0.52176-4.7545 0.25652-5.9418-0.46552-0.88772-0.53985-0.761-0.73353 0.33325-0.50937 0.59892 0.12269 1.2574 0.12823 1.7801 0.01499 0.77048-0.16693 0.89988-0.29479 1.8178-1.7962 0.59986-0.98117 0.91734-1.6859 0.80782-1.7931-0.18374-0.17995-6.9887-1.5906-11.408-2.3649-1.9223-0.3368-2.7492-0.39497-3.9062-0.27478-0.80727 0.08385-2.6543 0.16678-4.1045 0.18429-2.1254 0.02565-2.8829 0.11403-3.9062 0.45567-1.34 0.44737-2.6323 0.55671-2.8285 0.23931-0.24005-0.38841 0.4856-1.3113 1.4391-1.8303 0.5418-0.29488 1.6239-0.65788 2.4048-0.80666l1.4197-0.27051 1.5719-1.6741c1.9902-2.1196 2.6304-2.2082 3.5204-0.48707 0.54893 1.0615 1.1995 1.2243 4.2796 1.0706 3.2906-0.16415 7.0033-0.60045 8.581-1.0084 1.4309-0.36998 2.6588-0.85409 2.6588-1.0482 0-0.08092-0.57081-0.20562-1.2685-0.27709-2.8781-0.29487-7.2405-1.441-6.8752-1.8064 0.06312-0.06312 0.57572-0.0042 1.1391 0.13098 1.91 0.4582 8.3339-0.07934 8.2459-0.69-0.08706-0.60395-3.1576-1.5269-5.9401-1.7855-0.74576-0.06931-1.3559-0.19057-1.3559-0.26947 0-0.4821 3.7861-1.2792 6.7251-1.4158l0.96335-0.04478-0.63016-0.62835c-0.84223-0.83981-3.088-1.9182-5.0075-2.4046-0.85938-0.21774-2.6611-0.50054-4.0039-0.62842l-2.4414-0.23252 1.0742-0.25594c1.8441-0.43938 5.3018-0.50732 8.4725-0.16649 3.6388 0.39115 5.6065 0.39366 7.8001 0.01 2.1444-0.3751 4.069-1.0514 6.0906-2.1402 4.2826-2.3065 10.078-4.9793 10.797-4.9793 0.0887 0 0.56565-0.25644 1.0599-0.56988 1.0196-0.64659 2.1787-2.5016 2.3898-3.8247 0.17053-1.0685-0.17238-3.8726-0.84052-6.8734-0.30635-1.3759-0.66045-3.0729-0.78688-3.7712s-0.41357-1.8466-0.63808-2.5519l-0.40821-1.2824 0.6998-1.3543c0.86402-1.6721 1.301-2.8897 1.301-3.625 0-0.53391-0.04239-0.56138-0.86619-0.56138-0.47641 0-1.0717-0.07812-1.3228-0.17359-0.7648-0.29078-1.7348-1.419-2.3697-2.7561-0.50287-1.0591-0.6157-1.5643-0.68086-3.0481l-0.07809-1.7786-1.0033 0.6753c-0.87528 0.58913-1.1097 0.66074-1.8368 0.56115-1.1467-0.15706-1.8882-0.57956-2.3617-1.3457-1.2175-1.97-0.30741-4.623 1.7791-5.1864 1.3819-0.37313 3.0076 0.47822 3.4969 1.8312 0.13403 0.37066 0.30554 0.67393 0.38113 0.67393 0.07559 0 0.41872-0.49842 0.76252-1.1076 3.0493-5.403 9.3022-6.1573 14.87-1.7939 0.47447 0.37184 0.93973 0.55775 1.3958 0.55775 1.2106 0 2.3242 1.7568 2.0436 3.2241-0.16899 0.884 0.85543 1.1323 1.128 0.27344 0.06504-0.20492 0.20614-0.37258 0.31356-0.37258 0.24917 0 0.01976 0.77363-0.35677 1.2031-0.4657 0.53122-1.2033 0.60975-2.0043 0.21341l-0.72751-0.35994-0.23347 1.376c-0.12841 0.7568-0.40619 1.7591-0.6173 2.2274-0.56424 1.2516-0.50085 1.9383 0.25094 2.7182l0.63476 0.65847-0.48828 0.40205c-0.26856 0.22113-0.46218 0.49071-0.43027 0.59908 0.05172 0.17567-0.24249 0.86625-0.72614 1.7044-0.09298 0.16113-0.26444 0.53467-0.38104 0.83008-0.28216 0.71491-0.91937 0.70558-2.9719-0.0435-2.1324-0.77823-2.3266-0.67617-2.3266 1.2229 0 1.3244 0.03679 1.4445 0.60742 1.9831 0.33408 0.31532 0.94497 1.0204 1.3575 1.5668 0.96456 1.2776 1.255 1.4835 5.1923 3.6823 4.0955 2.2871 4.8537 2.6724 5.2585 2.6724 0.17704 0 0.90169-0.46143 1.6104-1.0254 2.5288-2.0124 6.594-4.8908 7.4573-5.28 1.1911-0.53705 2.5149-0.89032 4.4932-1.1991 2.0854-0.32549 2.8236-0.14 1.3241 0.33269-1.2638 0.39838-1.8928 0.81897-1.617 1.0812 0.10742 0.10213 0.75091 0.28054 1.43 0.39647 1.2633 0.21567 2.9532 1.0446 2.3618 1.1586-0.17041 0.03283-0.67941-0.02335-1.1311-0.12484l-0.82129-0.18453 0.49636 0.46001c0.65672 0.60863 0.62779 0.75197-0.07809 0.38694-0.31595-0.16338-1.1729-0.38352-1.9043-0.48919-0.73142-0.10567-1.6369-0.28187-2.0122-0.39155-1.5862-0.46361-1.5404-0.49274-5.6716 3.6057-4.7861 4.7481-5.1945 4.9562-7.4633 3.8033-2.7675-1.4063-5.1902-3.2871-8.9366-6.9378-2.3318-2.2722-3.2183-3.0143-3.6006-3.0143-0.06084 0 1.4495 1.5653 3.3563 3.4783 3.4545 3.4659 6.4921 6.153 8.3524 7.3886l0.97919 0.65041 4.1966-0.47263c4.0123-0.45188 6.6271-0.79612 7.5573-0.99492 0.26573-0.05679 0.75793-0.5971 1.2834-1.4089 0.79624-1.23 0.93514-1.3467 2.108-1.7718 0.69059-0.2503 1.4534-0.50224 1.6951-0.55988 0.51423-0.12263 0.60253 0.25259 0.09766 0.41499-0.18799 0.06047-0.73082 0.44604-1.2063 0.85683-0.60365 0.52152-0.82717 0.84416-0.74078 1.0693 0.11317 0.29493 0.19518 0.28997 0.96215-0.05812 0.47874-0.21728 1.2574-0.37909 1.815-0.37717l0.97656 0.0034-0.65036 0.28245c-0.3577 0.15535-1.0608 0.64574-1.5625 1.0898-1.1104 0.9828-2.1022 1.4451-3.6465 1.6998-0.64453 0.1063-2.1826 0.56538-3.418 1.0202-3.3333 1.2271-7.1765 2.3566-8.4304 2.4776-0.8807 0.08497-1.2788 0.02244-1.9531-0.30679-1.0844-0.52954-4.5314-3.1214-7.3129-5.4987-1.193-1.0196-2.7311-2.279-3.418-2.7987l-1.2489-0.94479 1.5379 1.4908c0.84586 0.81996 2.5427 2.294 3.7708 3.2758l2.2329 1.7849-0.12374 0.79403c-0.40786 2.6172-1.5971 6.2509-2.898 8.8548-0.65572 1.3125-0.65675 1.3191-0.77389 4.9275-0.25542 7.8683-2.007 13.971-5.6822 19.797-1.141 1.8087-3.036 4.3001-3.1694 4.1667-0.04263-0.04263 0.32691-0.83775 0.8212-1.7669s0.86378-1.7942 0.82108-1.9223c-0.04274-0.12822-0.78615 0.42969-1.654 1.2413-3.8442 3.595-6.5281 5.2101-11.481 6.9089-3.1071 1.0656-4.2874 1.6911-5.6396 2.9889-0.83672 0.80299-0.91326 0.84151-0.64576 0.32503 0.62612-1.2089 4.2724-4.6109 6.0731-5.6661 0.50084-0.29351 0.87203-0.57224 0.82488-0.61939-0.15489-0.15489-3.0318 1.0529-4.023 1.689-0.53366 0.34245-1.5069 1.1963-2.1628 1.8975-0.65589 0.70115-1.224 1.2433-1.2625 1.2049s0.35855-0.94516 0.88225-2.0149c0.5237-1.0697 0.92333-1.9738 0.88808-2.0091-0.23215-0.23215-11.741 10.189-15.738 14.251-2.3096 2.3468-4.3467 4.2644-4.5271 4.2613-0.18032-3e-3 -0.46596-0.14378-0.63476-0.31259zm28.795-65.713c-7.4924-0.51436-13.747-2.6107-19.131-6.4124-4.6581-3.289-10.295-9.8432-9.8817-11.49 0.11943-0.47584 0.17615-0.49463 1.2388-0.41034 1.2989 0.10303 4.3912 1.3117 15.762 6.1609 5.1981 2.2168 5.3037 2.2594 5.0781 2.0483-0.10742-0.10052-1.5137-0.95809-3.125-1.9057-6.6293-3.8987-10.085-6.5175-13.335-10.107-2.8769-3.1768-4.9031-6.4178-5.9168-9.4641-0.8751-2.6297 0.33173-2.959 4.2072-1.1479 5.6927 2.6602 13.208 7.9332 19.59 13.746 3.7393 3.4055 10.215 10.896 12.481 14.436 1.1247 1.7574 0.96476 1.7908-2.1595 0.45019-3.2812-1.4079-8.0296-2.7384-13.011-3.6456-0.91308-0.1663-2.3193-0.42339-3.125-0.57132-2.4044-0.44149-2.0361-0.29124 1.2695 0.51788 6.8653 1.6804 9.7131 2.5145 13.016 3.812 4.3134 1.6945 5.2177 2.3178 4.8407 3.3369-0.12575 0.33992-0.36233 0.44524-1.1943 0.53163-2.1591 0.22423-4.4331 0.26372-6.6038 0.1147zm1.754-8.902c-3.801-3.8484-6.7377-6.2172-13.18-10.631-4.5175-3.0951-7.0152-4.935-9.7297-7.1676l-1.7938-1.4753 1.1719 1.217c2.2983 2.3867 6.5501 5.7697 14.258 11.344 3.3886 2.4508 5.3265 3.9755 8.7891 6.9152 1.0742 0.91199 2.0393 1.6613 2.1446 1.6651 0.1053 0.0038-0.64177-0.83674-1.6602-1.8678zm-15.088 0.19422c-0.0649-0.0649-0.23336-0.07184-0.37435-0.01542-0.15581 0.06235-0.10953 0.10863 0.118 0.118 0.20589 0.0085 0.32125-0.03768 0.25635-0.10258z"/></svg>
