<svg width="100" height="100" version="1.1" viewBox="0 0 100 100" xml:space="preserve" xmlns="http://www.w3.org/2000/svg"><path d="m45.893 99.745c-1.8362-0.41386-2.7664-1.2883-4.9234-4.6281-1.5894-2.461-3.5842-5.7842-4.7414-7.8988-1.1897-2.1741-2.5975-3.4179-4.6151-4.0774-0.28932-0.09457-0.2956-0.22648-0.06379-1.3398 0.48819-2.3446 0.5532-3.9186 0.21051-5.0974-0.28877-0.99334-2.0065-3.8635-2.4917-4.1633-0.11142-0.06886-0.56792 0.22362-1.0144 0.64996-1.8342 1.7513-2.3573 1.8356-1.8355 0.29579 0.29957-0.88402 0.36143-1.4764 0.29064-2.7832-0.09604-1.7729-0.36439-2.5218-1.6073-4.4861-0.37174-0.58748-0.73393-1.4551-0.80486-1.9281-0.15568-1.0382 0.19089-2.7236 0.81393-3.9582l0.45407-0.89981-5.702-4.8953c-6.4706-5.5552-9.0211-8.0597-10.462-10.273-0.55089-0.8463-1.0016-1.6202-1.0016-1.7197 0-0.09954 0.4959 0.22298 1.102 0.7167 1.5128 1.2324 2.4607 1.7588 4.2778 2.3759 1.4253 0.48409 1.8041 0.52766 4.5812 0.52696 1.665-4.22e-4 3.2407-0.08957 3.5015-0.19811 0.47282-0.19679 0.47114-0.20046-0.59407-1.3002l-1.0682-1.1029 1.037-0.50736c0.57035-0.27905 1.4663-0.92547 1.9909-1.4365 1.8332-1.7856 2.5473-3.9566 2.5519-7.7584 0.0035-2.8479-0.43092-4.5747-1.3927-5.5365-0.3328-0.3328-0.57241-0.63085-0.53247-0.66233 0.03994-0.03149 0.90455-0.26924 1.9214-0.52835 1.7852-0.4549 1.853-0.49237 1.974-1.0898 0.31393-1.5506 1.7523-3.1662 3.5256-3.9602 1.0094-0.4519 1.2273-0.35124 0.5237 0.24186-1.1252 0.94851-1.0806 1.9337 0.12043 2.6589 0.73121 0.44154 1.4839 0.36646 6.608-0.65917 3.5255-0.70566 5.4583-1.3091 6.9013-2.1548 1.0727-0.62867 2.7542-2.4813 3.5958-3.9617 0.37598-0.66139 0.72754-1.2024 0.78125-1.2021s0.48118 0.56936 0.94993 1.2648c1.0628 1.5767 2.6762 3.2309 3.777 3.8725 1.6819 0.98024 4.9353 1.8317 10.589 2.7711 2.6097 0.43366 3.1706 0.41532 3.7429-0.12239 0.69746-0.65523 0.61763-1.3886-0.24204-2.2235-0.39318-0.38185-0.67403-0.73512-0.62411-0.78503 0.15934-0.15934 1.6483 0.66984 2.4777 1.3798 1.1102 0.95029 1.6588 1.7797 1.7829 2.6954l0.10565 0.77954 1.4648 0.3603c2.1863 0.53775 2.1097 0.46298 1.3123 1.2814-1.1536 1.1839-1.3123 1.7971-1.3123 5.073 0 3.0806 0.22152 4.3847 1.0547 6.2094 0.54508 1.1937 2.2175 2.8877 3.4852 3.53 0.51085 0.25886 0.92877 0.5351 0.92872 0.61386-5.3e-5 0.07876-0.43951 0.52161-0.97656 0.98411-0.53706 0.4625-0.97647 0.95998-0.97647 1.1055 0 0.35199 2.8154 0.58931 5.0823 0.4284 2.872-0.20386 5.1617-1.0777 7.4142-2.8295 0.69633-0.54154 1.3008-0.94984 1.3433-0.90736s-0.34635 0.76183-0.86408 1.5985c-0.61962 1.0014-1.7796 2.3599-3.3941 3.9752-2.3568 2.3579-8.7859 8.116-11.527 10.324l-1.3153 1.0595 0.67485 1.5573c0.58622 1.3528 0.66462 1.7178 0.597 2.7798-0.06741 1.0587-0.19692 1.4017-0.96637 2.5591-1.2067 1.8151-1.4233 2.5508-1.4095 4.7875 0.0092 1.4843 0.09605 2.0591 0.40601 2.6855 0.36235 0.73238 0.36702 0.79707 0.05754 0.79707-0.39948 0-1.6292-0.87539-2.4339-1.7327-0.31551-0.3361-0.68058-0.61109-0.81127-0.61109-0.30512 0-2.0892 2.7858-2.4392 3.8086-0.34798 1.0171-0.31495 3.9183 0.06391 5.6148l0.29432 1.3179-1.2933 0.63522c-1.6951 0.8326-2.4857 1.6541-3.5278 3.666-0.47199 0.91118-1.6448 2.9311-2.6062 4.4887-0.96142 1.5576-2.132 3.4565-2.6013 4.2196-1.0042 1.6331-2.2897 2.88-3.561 3.4542-0.79474 0.35894-1.344 0.4193-4.2335 0.46525-2.1332 0.03393-3.7064-0.03423-4.4004-0.19063zm-0.67776-13.542c2.1156-0.51231 6.8669-0.4515 9.2437 0.1183l1.8218 0.43676 0.50092-0.45928c0.99998-0.91686 3.4326-5.0567 3.1421-5.3472-0.05716-0.05716-0.80406 0.26002-1.6598 0.70486l-1.5558 0.8088-2.4261-0.22865c-1.4822-0.1397-3.8318-0.18334-6.0394-0.11216-1.9873 0.06407-4.0967 0.13163-4.6875 0.15014-0.80938 0.02535-1.4354-0.11529-2.5391-0.57045-0.80566-0.33225-1.4927-0.57916-1.5268-0.54868-0.12357 0.11053 1.014 2.173 1.8325 3.3222 1.2286 1.7252 1.7926 2.2826 2.1868 2.1611 0.18677-0.05754 0.95481-0.25361 1.7068-0.4357zm6.8767-7.777c0.83698-0.58621 2.3891-1.6118 3.4491-2.2792 2.0221-1.273 2.6611-1.9941 2.6611-3.0026 0-1.8573-2.3965-3.1255-3.8081-2.0151-0.66768 0.52519-2.0498 2.6287-2.0498 3.1196 0 0.5546 0.80757 0.45085 1.9934-0.25611 1.266-0.75477 2.5965-0.88926 2.5965-0.26246 0 0.29126-0.42574 0.61614-1.6737 1.2772-0.92054 0.48762-2.3981 1.4324-3.2835 2.0996-2.1858 1.6471-2.2363 1.643-4.9843-0.39744-0.87007-0.64606-2.2241-1.48-3.0089-1.8533-1.1853-0.56372-1.4168-0.74962-1.3672-1.0977 0.10302-0.72267 0.97007-0.63452 2.598 0.26415 0.80405 0.44385 1.5595 0.74669 1.6787 0.67298 0.57622-0.35612-0.75629-2.953-1.8609-3.6265-1.1327-0.69071-2.3944-0.37793-3.1804 0.78844-0.93889 1.3932-0.41127 2.7739 1.4796 3.8718 0.49893 0.2897 1.9838 1.2548 3.2998 2.1446 3.0377 2.0541 3.2809 2.0787 5.4606 0.55204zm-1.4068-2.8416c0.3367-0.37205 0.34228-0.63632 0.11039-5.2281-0.13433-2.6599-0.21806-5.2619-0.18606-5.7822l0.05818-0.94602-1.6438-0.07972-0.0018 2.0636c-9.73e-4 1.135-0.08921 3.7264-0.19608 5.7588-0.16867 3.2076-0.15496 3.7553 0.10393 4.1504 0.37561 0.57325 1.2647 0.60532 1.7552 0.06332zm-9.8469-11.648c1.1864-0.64572 1.7723-1.3682 1.3343-1.6455-0.15264-0.09661-0.43298-0.177-0.62299-0.17864-0.49426-0.0043-2.7433-0.8184-4.342-1.5718-1.7464-0.82292-5.6637-3.0208-6.507-3.6509-0.35618-0.26612-0.692-0.43944-0.74626-0.38518-0.05427 0.05427 0.08715 0.72263 0.31427 1.4852 1.5226 5.1127 3.4651 6.7576 7.7619 6.5729 1.5147-0.06511 1.9591-0.16421 2.8078-0.62615zm24.264 0.05386c1.2002-0.58721 2.4312-1.8476 3.0471-3.1197 0.55494-1.1463 1.6148-4.2577 1.4922-4.3803-0.05619-0.05619-0.47748 0.14754-0.93621 0.45272-2.709 1.8023-8.4619 4.6688-10.169 5.0671-0.63471 0.14807-1.196 0.31124-1.2474 0.36261-0.19571 0.19571 0.55175 1.0477 1.2766 1.455 1.105 0.62106 2.0773 0.81032 3.8581 0.75103 1.2595-0.04193 1.8078-0.16239 2.6786-0.58844zm-47.646-21.753c-0.20163-0.20785-1.0258-0.73763-1.8314-1.1773-3.2514-1.7744-6.4252-4.5091-8.5376-7.3566-4.565-6.1537-6.584-14.776-5.2164-22.277 0.88904-4.8762 3.1268-10.26 4.5897-11.043 0.42304-0.2264 0.42981-0.21264 0.30574 0.62077-0.4735 3.1806-0.55445 4.4372-0.45126 7.0047 0.16355 4.0692 0.71628 6.7818 2.0297 9.9609 1.0152 2.4575 2.4621 4.3129 4.88 6.258 2.4725 1.989 5.6726 3.3123 8.0102 3.3123 0.97522 0 1.0572 0.04025 1.595 0.78266 0.31183 0.43047 0.81098 1.3753 1.1092 2.0996 0.463 1.1244 0.54447 1.6025 0.55731 3.2701 0.02305 2.9919-0.84354 5.3727-2.588 7.1102-1.0457 1.0415-1.8972 1.4911-3.1827 1.6805-0.74734 0.11008-0.9661 0.06788-1.2695-0.2449zm62.129-0.12654c-1.1344-0.35546-1.7592-0.8194-2.5447-1.8895-1.0551-1.4373-1.6424-3.0819-1.8316-5.129-0.23058-2.4946 0.01406-3.9903 0.97179-5.9417l0.79083-1.6113h1.4333c5.8392 0 11.975-5.3053 14.344-12.402 1.3769-4.125 1.853-9.2685 1.2166-13.142-0.14627-0.89036-0.21962-1.6652-0.163-1.7218 0.23897-0.23897 1.2029 1.1413 2.1965 3.1453 1.7598 3.5492 2.4413 6.8835 2.4343 11.909-0.0078 5.6353-0.97826 9.8904-3.3271 14.589-2.2366 4.474-5.8591 8.17-10.657 10.874-0.97961 0.55197-1.8912 1.1363-2.0259 1.2985-0.29971 0.36113-1.7214 0.3725-2.8377 0.0227z"/></svg>
