<svg width="100" height="100" version="1.1" viewBox="0 0 100 100" xml:space="preserve" xmlns="http://www.w3.org/2000/svg"><path d="m63.96 97.797c-2.0386-1.1727-3.8303-2.1821-3.9816-2.2432-0.21732-0.08774-0.24813 0.02385-0.14665 0.53123l0.12846 0.6423-1.0252-0.86976c-1.665-1.4126-3.5395-2.9032-3.8999-3.1015-0.22736-0.12506-0.07716 0.29459 0.46559 1.3008l0.80122 1.4854-1.2109-0.74942c-1.4415-0.89216-5.8882-4.5636-6.8322-5.6411l-0.66662-0.76088 0.13323 0.83319c0.1237 0.77357 0.10693 0.81911-0.23433 0.63647-0.8098-0.43339-2.411-2.5851-3.3934-4.5603-0.60197-1.2102-0.96907-1.2808-0.56013-0.10773 0.11762 0.3374 0.17712 0.65019 0.13222 0.69509-0.0449 0.0449-0.45379-0.38684-0.90866-0.9594-1.0568-1.3303-2.3952-4.1076-2.9631-6.1486-0.36953-1.3282-0.54659-1.663-1.0687-2.021-0.34419-0.23597-1.4405-1.2133-2.4363-2.1719-1.0896-1.0489-1.9187-1.7014-2.0822-1.6386-0.21438 0.08226-0.24235 0.37823-0.13261 1.403 0.20054 1.8726 0.61028 3.2883 1.3609 4.7018 0.88159 1.6602 0.48605 1.2768-1.409-1.3659-3.2869-4.5837-5.5182-8.6362-6.2111-11.28-0.19074-0.72787-0.34232-2.0814-0.35527-3.1724-0.01889-1.5917-0.07292-1.9031-0.33034-1.9043-1.2805-0.0059-2.7359-4.4066-2.7457-8.3022l-3e-3 -1.1719 1.6259-1.5459c0.89423-0.85022 1.4501-1.479 1.2353-1.3973-0.21484 0.08168-1.3994 0.23151-2.6325 0.33296-2.5295 0.20813-2.9591 0.43432-3.3588 1.7685-0.12262 0.40926-0.29154 0.74412-0.37537 0.74412-0.08384 0-0.21305-0.40426-0.28714-0.89834-0.20517-1.3682 0.15072-2.2555 1.2858-3.2059 0.54517-0.45644 0.97337-0.97952 0.97337-1.189 0-0.3022-0.06568-0.33569-0.3418-0.17425-0.18799 0.10992-1.0669 0.40509-1.9531 0.65594-1.6011 0.4532-1.6113 0.45357-1.6113 0.05879 0-1.2011 1.1667-2.525 2.9702-3.3706 0.82996-0.3891 0.81314-0.56335-0.07144-0.74026-0.82292-0.16458-2.4124-1.1956-2.9009-1.8817-0.48345-0.67894-0.48447-0.77815-8e-3 -0.77815 0.20923 0 1.147-0.27738 2.0839-0.61641 1.8462-0.66804 2.8558-1.4243 3.4873-2.6123l0.38528-0.72479-0.53828-0.41582c-0.29605-0.2287-0.81701-0.64675-1.1577-0.929l-0.61941-0.51319 1.6512-0.27896-0.11173-1.0075c-0.21042-1.8974-0.29845-2.2381-0.71504-2.7677l-0.41717-0.53035 0.7641-0.65936c0.42026-0.36265 1.1349-0.9459 1.5881-1.2961 0.45322-0.35021 0.82676-0.692 0.83008-0.75953 0.0033-0.06753-0.26123-0.2335-0.58789-0.3688-0.75196-0.31147-1.4996-0.8964-1.7545-1.3726-0.17639-0.32958-0.07709-0.40359 0.92897-0.69237 0.61956-0.17784 1.1849-0.35706 1.2562-0.39827 0.07137-0.04121-0.16944-0.93133-0.53514-1.978s-0.66579-2.0479-0.66687-2.2249c-0.0021-0.33496 0.6309-0.48908 3.8926-0.94783 0.79922-0.11241 1.4817-0.23295 1.5166-0.26787s-0.41288-0.37978-0.99512-0.76637c-1.2616-0.83768-2.4629-1.8673-2.4629-2.1109 0-0.09629 0.37354-0.17557 0.83008-0.17617 1.1571-0.0015 2.1338-0.29995 4.0131-1.2263l1.6205-0.79876-0.05804-0.89023c-0.05342-0.81934-0.1047-0.89831-0.64398-0.99171-0.58558-0.10141-0.58515-0.10203 0.68359-1.0058 1.8076-1.2876 3.5516-2.2046 5.8213-3.0611l1.9738-0.74479-0.82138-0.39944c-0.78494-0.38172-2.5179-1.7017-2.6348-2.0069-0.0306-0.079865 1.3317-0.25227 3.0273-0.38312s4.4013-0.44713 6.0127-0.70283c1.6113-0.25571 3.3032-0.52073 3.7598-0.58893 0.45654-0.068207 0.83008-0.17984 0.83008-0.24807 0-0.068234-0.54678-0.67574-1.2151-1.35l-1.2151-1.226 1.6545 0.001368c4.2521 0.003517 9.734 2.463 13.595 6.0995l1.0029 0.94463 0.07706-1.3638c0.04238-0.7501 0.13829-1.425 0.21312-1.4999 0.28401-0.28401 4.2953 3.5123 5.9 5.5838 0.88729 1.1454 2.0578 3.3086 2.0578 3.803 0 0.54127 0.32549 0.31143 0.68359-0.48271 0.19376-0.42969 0.41056-0.78125 0.48177-0.78125 0.28454 0 0.83706 1.5296 0.93402 2.5857 0.1193 1.2994-0.31703 3.3772-1.064 5.0665l-0.49045 1.1092 0.48745 0.64858c1.404 1.868 2.5501 5.1449 2.7937 7.9876 0.10366 1.2093 0.27082 1.7256 1.007 3.1102 1.0195 1.9175 1.8015 3.0964 2.7506 4.1469 0.6579 0.72822 0.66464 0.75275 0.31354 1.1407-0.31496 0.34802-2.5495 1.5143-4.0121 2.094-0.65382 0.25914-0.78416 0.9071-0.58329 2.8997 0.11601 1.1508 0.31362 1.8468 0.77039 2.7133 0.3379 0.64105 0.61455 1.3173 0.61478 1.5029 2.3e-4 0.18554-0.21931 0.9211-0.48786 1.6346-0.51366 1.3647-0.60482 2.584-0.29067 3.8875 0.10356 0.42969 0.27896 2.0996 0.38977 3.7109 0.32336 4.7019 1.0588 7.7148 2.6686 10.933 0.72682 1.4531 0.79912 1.6879 0.42188 1.3707-0.25038-0.21056-0.60709-0.5602-0.79269-0.77698-0.41436-0.48398-0.41662-0.44157-0.04135 0.77773 0.38066 1.2368 0.5864 4.6661 0.33416 5.5698-0.13845 0.49602-0.119 0.93041 0.06996 1.5625 0.14395 0.48152 0.26234 1.7104 0.26309 2.731 4e-3 5.4234-1.3331 9.4339-4.5487 13.643-0.86668 1.1345-1.0674 1.0747-1.0971-0.32684l-0.01373-0.64857-1.123 1.141c-0.61768 0.62756-1.7118 1.6462-2.4315 2.2637-1.6973 1.4564-2.6344 2.6152-3.1595 3.9072l-0.4238 1.0427zm6.0351-14.18c1.6188-2.4596 2.5585-5.5778 2.4216-8.036-0.09614-1.7269-0.75992-3.1626-2.2587-4.8854-0.88496-1.0172-0.894-1.0395-0.23653-0.58463 3.3123 2.2918 5.4247 5.276 6.9172 9.7718 0.37445 1.1279 0.68513 1.8206 0.6904 1.5393 0.01624-0.86688-0.55491-3.8095-1.0063-5.1845-1.1167-3.4018-5.5442-8.3153-9.0427-10.035-1.1129-0.54716-1.2825-0.57373-3.3689-0.52784-1.2084 0.02658-2.1972 0.06804-2.1973 0.09214-1.08e-4 0.0241 0.27353 0.18536 0.60808 0.35836 0.91605 0.47371 2.2814 1.8065 3.1284 3.0536 0.41555 0.61192 0.75554 1.1499 0.75554 1.1955 0 0.04561-0.67341-0.26993-1.4965-0.70122-1.1917-0.62447-1.7664-0.80346-2.8219-0.87899-1.295-0.09266-1.3283-0.08326-1.452 0.40929-0.20906 0.83298 0.69291 2.4054 2.6529 4.625 3.2926 3.7286 4.0722 4.911 4.7556 7.2132 0.35953 1.2111 0.4126 2.9619 0.10884 3.5907-0.19925 0.41246-0.196 0.41402 0.09808 0.04691 0.86825-1.0839 2.1979-6.1431 2.2794-8.6729 0.02136-0.6629 0.03557-0.64438 0.20227 0.26355 0.42576 2.319-0.30301 6.0401-1.5938 8.1379-0.88445 1.4374-0.18517 0.79191 0.85626-0.79041zm-11.632-6.7409c-0.09511-0.95544-0.14819-2.7104-0.11796-3.8999l0.05496-2.1627 0.73912 1.8491c1.2299 3.0769 1.2318 3.0781 1.3847 0.84696 0.1169-1.706-0.01613-3.253-0.37895-4.4067-0.09657-0.30708-0.16593-0.30418-0.97004 0.0405-0.47632 0.20417-1.4168 0.47399-2.09 0.59959-0.67316 0.1256-1.3338 0.25842-1.4681 0.29516-0.22563 0.06173-0.35695 1.0059-0.26906 1.9345 0.02033 0.21484 0.28795 0.87402 0.59471 1.4648 0.30676 0.59082 0.78028 1.6016 1.0523 2.2461 0.51456 1.2193 1.5132 3.0912 1.5945 2.9887 0.02571-0.03245-0.03106-0.84072-0.12617-1.7962zm-3.3796-0.6319c-0.43138-2.7054-0.43754-2.7212-0.90028-2.3024-0.20512 0.18563-0.37366 0.43374-0.37455 0.55137-0.0024 0.31331 1.4134 3.8477 1.5047 3.7564 0.04263-0.04263-0.06081-0.94503-0.22987-2.0053zm20.346-10.082c-0.27072-4.1068-1.672-8.1983-3.4654-10.118-0.63385-0.67854-0.70868-0.68243-3.1312-0.16289l-0.98376 0.21098 0.13376 1.1044c0.07357 0.60739 0.17295 1.1719 0.22085 1.2545 0.0479 0.08261 0.50642 0.36269 1.0189 0.6224 1.555 0.78798 2.7116 2.2703 4.4877 5.7517 0.88211 1.729 1.6566 3.1437 1.7211 3.1437 0.06448 0 0.06364-0.81299-0.0019-1.8066zm-23.803 1.2198c0.46408-0.2106 1.5627-0.8989 2.4414-1.5295 2.0194-1.4493 8.9123-6.0295 10.145-6.7408 0.51139-0.2952 1.3774-0.58973 1.9245-0.65453l0.99472-0.11781-0.12347-0.77215c-0.1323-0.82736-0.56139-1.7908-1.0416-2.3387-0.78995-0.90128-2.8986-0.51909-6.2328 1.1297-1.932 0.95536-2.4569 1.3356-4.5879 3.3233-2.8248 2.6348-3.8177 3.2092-5.5472 3.2092-1.4767 0-2.0748-0.40093-2.7449-1.8401-0.34103-0.73238-0.4624-1.337-0.46381-2.3103-1e-3 -0.7251-0.08253-1.3184-0.18107-1.3184-0.09854 0-0.34024 0.41748-0.53711 0.92773-0.54324 1.408-0.49398 4.8455 0.09047 6.3143 0.47086 1.1833 1.6139 2.6551 2.2673 2.9193 0.7671 0.31015 2.7094 0.20147 3.5968-0.20125zm10.942-4.1459c2.868-0.58762 3.0568-0.60276 4.3945-0.35228 2.0702 0.38762 3.0707 0.4629 3.2863 0.24729 0.27429-0.27429-0.18663-1.6957-0.70902-2.1864-0.37761-0.35474-0.71536-0.40268-3.145-0.44641l-2.722-0.04899-1.1719 0.62355c-0.64453 0.34295-1.9629 1.1584-2.9297 1.8121l-1.7578 1.1886 0.87891-0.11172c0.4834-0.06145 2.2274-0.38802 3.8756-0.72572zm-11.138-5.6222c0.61069-0.9149 1.6377-2.6706 2.2822-3.9016 1.4582-2.785 3.499-4.9763 5.6316-6.047 2.5226-1.2664 4.3128-1.0102 6.332 0.90638 0.92458 0.87759 0.92488 0.8783 0.11684 0.27456-2.5531-1.9076-4.9039-1.8304-5.9372 0.19498-0.56016 1.098-0.39683 1.9286 0.52938 2.6921 0.38554 0.31779 0.87571 0.6235 1.0893 0.67935 0.37527 0.09813 0.37444 0.0868-0.0247-0.33806-0.76057-0.8096-0.42898-1.684 0.63863-1.684 1.0237 0 2.2167 0.75893 3.6351 2.3124l1.3661 1.4962 1.5146-0.01478c1.8657-0.0182 3.2495-0.56482 4.2591-1.6824 0.87917-0.97313 0.8316-1.4694-0.19597-2.0446-0.42446-0.23758-0.8318-0.39484-0.9052-0.34948-0.0734 0.04536-0.19267 0.4571-0.26504 0.91496-0.07237 0.45786-0.24242 1.0952-0.37789 1.4162-0.21618 0.51235-0.23581 0.3642-0.16048-1.2114l0.08583-1.7951-0.9743-2.2066c-0.53587-1.2136-1.1269-2.6743-1.3133-3.2459-0.18645-0.57162-0.46636-1.0882-0.62202-1.1479-0.60897-0.23368-2.43 0.33036-3.5734 1.1068-1.2236 0.83091-1.655 0.92388-2.6381 0.56841-0.5383-0.19465-0.82288-0.12771-2.5529 0.60059-2.6102 1.0988-2.585 1.0935-3.0795 0.65358-0.23654-0.2104-1.0014-0.53498-1.6996-0.72129-1.483-0.3957-2.7354-1.0794-3.306-1.8049-0.6019-0.76519-0.49072-0.93803 0.24327-0.3782 0.57157 0.43596 2.06 1.088 2.4837 1.088 0.08417 0-0.01311-0.34388-0.21617-0.76417-0.61521-1.2733-1.9854-2.0839-2.7333-1.6168-0.28713 0.17932-0.71405-0.04892-2.5584-1.3677-1.2176-0.87064-2.829-1.918-3.581-2.3274-1.3838-0.7535-1.7746-1.1639-2.0617-2.1652-0.15073-0.52558-0.08532-0.60267 1.3106-1.5446 0.80807-0.54528 2.6667-1.9943 4.1303-3.2199s2.7651-2.2285 2.8923-2.2285c0.62352 0 4.2053 3.6541 8.9144 9.0945 1.6796 1.9404 3.2827 3.6323 3.5624 3.7598 0.7834 0.35694 2.5193 0.29355 3.015-0.1101 0.38896-0.31675 1.8223-3.919 2.3727-5.9631 0.12108-0.44965 0.47225-1.1047 0.78037-1.4556 1.0134-1.1542 2.5674-3.6037 3.3682-5.3092 0.65061-1.3856 0.80263-1.9399 0.87637-3.1954 0.07439-1.2666 0.03127-1.5831-0.25942-1.9043-0.39387-0.43522-0.87996-0.49652-1.2223-0.15413-0.34233 0.34233-0.49879 0.06155-0.23763-0.42643 0.2839-0.53048 0.15076-0.68036-0.36106-0.40645-0.21698 0.11612-0.59804 0.21168-0.84681 0.21234s-0.69441 0.1275-0.99034 0.28187c-0.52846 0.27567-0.5358 0.27171-0.41189-0.22198 0.06939-0.27646 0.04784-0.4664-0.04789-0.42209-0.09573 0.04431-0.39378 0.18437-0.66233 0.31125-0.26855 0.12688-0.7959 0.36399-1.1719 0.52692-0.37598 0.16292-0.83136 0.40359-1.012 0.53482-0.27735 0.20152-0.50673 0.09847-1.4762-0.66321-0.91035-0.71521-1.1859-0.84632-1.3318-0.63363-0.14487 0.21123-0.6194-0.04526-2.2347-1.2079-1.1279-0.81185-2.3052-1.608-2.6162-1.7692l-0.56546-0.29306 0.11842 0.5921c0.11739 0.58695 0.11211 0.5912-0.60642 0.48887-0.39866-0.05678-1.429-0.2638-2.2896-0.46004-2.7577-0.62883-5.0386-0.97094-6.4777-0.97158-1.2086-5.37e-4 -1.5735 0.08885-2.6473 0.64858-1.1782 0.61414-3.4704 2.1881-3.4704 2.3831 0 0.04965 0.38306 0.94776 0.85126 1.9958 0.46819 1.048 1.182 2.9046 1.5863 4.1258l0.73506 2.2203-0.85389 0.75747c-1.517 1.3457-3.3905 2.4958-4.5634 2.8013-0.62411 0.16256-1.1655 0.32632-1.2031 0.36392-0.0376 0.0376 0.10754 0.75613 0.32253 1.5967 0.42459 1.6601 0.50436 2.9352 0.19558 3.126-0.36318 0.22446-0.19888 0.43282 1.3184 1.672 0.83252 0.67993 2.3349 1.9881 3.3386 2.9071s2.2964 2.0792 2.8727 2.5782l1.0478 0.90729-1.652 0.79269c-0.90861 0.43598-1.652 0.83088-1.652 0.87754 0 0.04667 0.50537-0.12205 1.123-0.37493 1.6276-0.66634 3.061-0.93791 3.5551-0.67352 0.62927 0.33678 0.52931 1.4734-0.24226 2.7548l-0.64228 1.0666 0.69111-0.33007c0.38011-0.18154 1.0866-0.38525 1.57-0.45269l0.87891-0.12262-0.62494 0.32196c-0.62028 0.31955-2.3779 1.8057-1.8165 1.5359 0.16113-0.07743 0.44678-0.27288 0.63477-0.43432 0.47488-0.40783 0.42673-0.15895-0.13525 0.69893-0.79306 1.2106-1.5144 3.6744-1.6244 5.5482-0.05474 0.93221-0.03782 1.8551 0.0376 2.0508 0.12075 0.31336 0.20703 0.27423 0.72259-0.32774 0.32201-0.37598 1.0851-1.4322 1.6958-2.3471zm11.906-20.26c-1.014-1.2622-2.6591-3.2178-3.6558-4.3457-1.6242-1.838-1.49-1.7266 1.2931 1.0742 2.318 2.3327 3.2672 3.4345 3.7439 4.3457 0.35126 0.67139 0.59897 1.2207 0.55047 1.2207-0.0485 0-0.9178-1.0327-1.9318-2.2949zm1.787-1.7578-0.4735-0.53711 0.53711 0.4735c0.29541 0.26042 0.53711 0.50212 0.53711 0.53711 0 0.15318-0.15816 0.02851-0.60072-0.4735zm-2.036-2.135c-0.85938-0.81506-3.0566-2.6007-4.8828-3.9681s-3.7201-2.9156-4.2087-3.4406c-1.5607-1.6766-3.0984-4.1996-3.6096-5.9224-0.13255-0.44668-0.0939-0.43472 0.63113 0.19531 0.42478 0.36912 1.7148 1.745 2.8666 3.0575 1.1519 1.3125 3.5499 3.7734 5.3289 5.4688 1.779 1.6953 3.7561 3.7636 4.3934 4.5961 0.63735 0.83252 1.1329 1.5096 1.1012 1.5045-0.03168-5e-3 -0.76073-0.67601-1.6201-1.4911zm-15.634-6.0612c-0.29806-0.83634-0.74742-2.0408-0.99859-2.6765-0.25116-0.63576-0.42133-1.1912-0.37816-1.2344 0.04318-0.04318 0.34321 0.30623 0.66674 0.77647 0.32353 0.47024 0.95975 1.1906 1.4138 1.6008 0.80611 0.72827 0.85321 0.74335 1.998 0.63954l1.1724-0.10631-0.99243 0.5668c-0.54584 0.31174-1.2956 0.87898-1.6662 1.2605l-0.67374 0.69373zm-7.7745 30.071c-0.02988-3.0446 0.22011-4.4253 1.0641-5.8769 0.58248-1.0018-0.01127-0.65116-0.75301 0.44475-0.95966 1.4179-1.2935 2.7987-1.1581 4.7909 0.09374 1.3799 0.59018 3.5221 0.81622 3.5221 0.03252 0 0.04641-1.2964 0.03086-2.8809zm-11.072-2.0508c0.0045-0.18799-0.07661-0.3418-0.18025-0.3418-0.30144 0-0.5935 0.70097-0.58462 1.4032l0.0082 0.64761 0.37425-0.68359c0.20584-0.37598 0.37794-0.8374 0.38244-1.0254zm46.567-6.2017c0.38848-0.43 0.70632-0.96026 0.70632-1.1784 0-0.42233-0.74208-1.9804-1.2525-2.6297-0.30223-0.38446-0.31556-0.38089-0.84566 0.22644-0.37 0.42391-0.89013 0.71602-1.6616 0.93319-1.2153 0.34211-1.2226 0.3519-0.91636 1.2304 0.15182 0.43551 0.424 0.67644 1.0254 0.90764 0.45029 0.17311 1.0824 0.5315 1.4046 0.79642 0.32227 0.26492 0.64163 0.48483 0.7097 0.48869 0.06807 0.0039 0.4416-0.34479 0.83008-0.77479zm-43.636-0.76785c0.35396-0.66138 0.22943-1.8567-0.2881-2.7653-1.4128-2.4805-1.9261-3.785-1.9386-4.9271-0.01193-1.0853 0.02364-1.1704 0.78787-1.8836l0.80037-0.747-0.76043-0.99722c-0.41824-0.54847-0.82235-0.99713-0.89802-0.99702-0.07568 1.09e-4 -0.39354 0.45589-0.70636 1.0128-0.44398 0.79047-0.5895 1.3356-0.66324 2.4846-0.15154 2.3613-0.44572 0.99111-0.52033-2.4234-0.03521-1.6113-0.12991-3.3691-0.21046-3.9062l-0.14646-0.97656 0.44843 0.39062c0.24664 0.21484 1.1783 1.2071 2.0704 2.2051 1.8956 2.1206 2.7034 3.6142 3.5082 6.4869l0.57438 2.0502 0.12722-1.1719c0.06997-0.64453 0.18501-2.4023 0.25564-3.9062l0.12841-2.7344-1.6228-1.2019c-2.5733-1.9059-5.9239-3.7794-6.757-3.7784-0.07659 9.7e-5 -0.13777 2.0875-0.13596 4.6387l0.0033 4.6385 0.78804 1.3672c0.43342 0.75195 1.3169 2.2021 1.9633 3.2227 0.64641 1.0205 1.5052 2.4048 1.9083 3.0762s0.81149 1.2207 0.90735 1.2207c0.09586 0 0.26528-0.17 0.37648-0.37778zm40.938-4.5299c0.15405-0.2979 0.28009-0.58995 0.28009-0.64899 0-0.25711-1.4673-0.07732-1.7959 0.22006-0.27736 0.251-0.41541 0.27379-0.59155 0.09766-0.52837-0.52837-0.56709-0.17876-0.04169 0.37647 1.033 1.0916 1.567 1.0804 2.149-0.0452zm-14.661-0.72968c0.73578-0.3347 1.4181-0.92682 1.2485-1.0835-0.04216-0.03897-0.5299-0.13186-1.0839-0.20642-0.91754-0.1235-1.019-0.09843-1.1396 0.28164-0.19361 0.61-0.47678 0.41095-1.1153-0.78397-0.31235-0.58458-0.67296-1.1178-0.80136-1.1849-0.12839-0.0671-0.78276-0.17641-1.4541-0.24292-1.0584-0.10485-1.2207-0.07755-1.2207 0.20525 0 0.34716 2.0475 2.3786 3.0273 3.0036 0.73125 0.46642 1.5306 0.46995 2.5391 0.01123zm-15.039-0.93519c-0.4359-0.34612-3.1075-1.6361-3.3563-1.6206-0.15716 0.0098 3.46 1.9199 3.6493 1.9271 0.05371 2e-3 -0.07813-0.13586-0.29297-0.30646zm28.6-0.74457c0.45846-0.23708 1.875-1.7408 5.942-6.3075l0.39278-0.44105-0.40472-0.54742c-0.85626-1.1581-1.6171-2.9727-1.8315-4.3679-0.12077-0.78602-0.24646-1.4579-0.27931-1.493-0.03285-0.03515-0.66933 0.84375-1.4144 1.9531-0.74508 1.1094-1.8952 2.8081-2.5559 3.7749-0.66068 0.9668-1.496 2.4815-1.8564 3.3659-0.6023 1.4784-0.64137 1.6989-0.48443 2.7344 0.09389 0.61946 0.20989 1.2361 0.25778 1.3704 0.12013 0.33684 1.5538 0.31003 2.2341-0.04177zm-0.94283-3.7895c1.1019-1.4411 2.8338-3.1506 3.6909-3.6433 0.36883-0.21203-2.5528 2.9941-3.9191 4.3008l-1.0212 0.97656zm-20.758 0.05837c0.8246-0.27578 1.5769-0.57755 1.6718-0.67061 0.22536-0.22096-0.95546-0.93869-1.8099-1.1001-0.57909-0.10941-2.9785 0.19456-3.6986 0.46856-0.33638 0.12798 1.4903 1.7828 1.9813 1.7948 0.1959 0.0048 1.0309-0.21689 1.8555-0.49266zm15.288-18.213c-0.10444-0.19515-1.1402-1.3254-2.3018-2.5118-3.8039-3.885-8.2101-6.7289-11.43-7.3772-2.7796-0.55965-7.7827-0.28515-10.853 0.59546-1.1672 0.33477-4.2033 1.6479-4.0846 1.7666 0.0376 0.0376 0.72042-0.1537 1.5174-0.42512 3.8733-1.3192 8.2317-1.6795 12.094-0.99991 2.4664 0.43405 3.9468 1.1845 7.4245 3.7635 2.3838 1.7679 7.5835 5.4665 7.7679 5.5254 0.03064 0.0098-0.02975-0.14187-0.13419-0.33701zm3.0102-3.3007c-0.20321-1.0997-0.62861-2.3861-1.1849-3.5834-0.47734-1.0273-0.86903-2.0381-0.87042-2.2461-0.005456-0.818-5.7547-3.9113-9.0118-4.8487-3.5303-1.016-7.009-1.5579-8.7141-1.3575l-1.0736 0.12618 1.1624 0.42088c3.5003 1.2674 9.3473 5.4969 14.082 10.186 1.2381 1.2263 2.1487 1.9992 2.0777 1.7638-0.71784-2.3829-2.2205-4.8817-4.3192-7.1825l-1.1344-1.2435 1.3672 1.2044c0.75195 0.66243 2.5162 2.3339 3.9206 3.7144 2.0944 2.0589 2.6737 2.7551 3.2227 3.8732 0.36811 0.74975 0.69714 1.2563 0.73117 1.1256 0.03404-0.13066-0.08078-1.0096-0.25515-1.9531zm1.5096 0.44712c0.28061 0.28061 0.5793-1.6565 0.48404-3.1392-0.09548-1.4862-0.97485-4.73-1.0589-3.9063-0.02193 0.21484-0.06963 2.3242-0.10599 4.6875-0.0644 4.1854-0.05802 4.2701 0.24597 3.266 0.17165-0.56697 0.36736-0.97558 0.43492-0.90802z"/></svg>
