<svg width="100" height="100" version="1.1" viewBox="0 0 100 100" xml:space="preserve" xmlns="http://www.w3.org/2000/svg"><path d="m47.446 98.742c-1.1364-0.68185-3.9489-2.2287-6.25-3.4375-6.3051-3.312-8.4075-4.7307-12.582-8.4905-1.2891-1.1609-3.0469-2.5698-3.9062-3.1308-4.1159-2.687-9.2142-4.6074-13.957-5.2573l-1.8634-0.25534 2.1986-0.023024c4.3137-0.04518 9.2137 1.0575 14.176 3.1902l0.74995 0.32228-0.48275-0.64471c-0.26551-0.35459-0.6379-0.95232-0.82752-1.3283-0.26259-0.52064 0.23446-0.12489 2.0851 1.6602 5.0034 4.826 11.747 9.8922 17.94 13.477 4.1972 2.4296 4.5706 2.629 4.9302 2.6327 0.43568 0.0045 6.4825-3.3549 9.0347-5.0195 3.3899-2.2109 10.978-8.0882 12.409-9.6117 0.05753-0.06124 0.82658-0.8124 1.709-1.6693 1.6328-1.5855 2.0016-1.7187 1.1064-0.39956-0.27386 0.40356-0.46208 0.7696-0.41827 0.81341 0.04382 0.04382 0.46751-0.08658 0.94154-0.28978 4.4996-1.9288 10.229-3.1651 14.525-3.1345l1.9531 0.01391-2.2461 0.35569c-2.7911 0.44199-5.2086 1.1206-8.0262 2.253-4.1048 1.6497-6.3902 3.0557-9.6705 5.9496-4.5228 3.99-6.23 5.1578-11.959 8.1804-2.2922 1.2093-5.2997 2.8517-6.6833 3.6498s-2.5843 1.4471-2.6683 1.4422c-0.08395-0.0049-1.0824-0.56678-2.2188-1.2486zm-2.8487-5.7469c-5.9938-4.4986-14.406-11.424-15.989-13.163-1.1581-1.2723-2.1224-2.598-6.1437-8.4457-3.7909-5.5128-6.2111-8.7934-7.9607-10.791-0.88787-1.0136-1.6687-2.0595-1.7352-2.3243-0.20018-0.79759 0.11682-2.7849 0.6611-4.1445 0.8336-2.0823 2.7635-3.9309 9.7428-9.3325 1.0894-0.84314 3.7198-2.9761 5.8452-4.7399 7.4976-6.2219 10.675-8.398 17.127-11.73l3.826-1.9758 2.3818 1.194c7.1701 3.5943 10.709 6.0359 19.235 13.27 2.4734 2.0987 5.7253 4.7537 7.2266 5.9 2.987 2.2808 6.0617 5.2769 6.6923 6.5212 0.64956 1.2817 1.0702 3.1895 0.95476 4.3305-0.09378 0.92694-0.25836 1.2154-1.7707 3.1032-0.91705 1.1447-2.3152 3.0139-3.107 4.1539-0.79181 1.1399-2.5649 3.6883-3.9402 5.6631s-2.9422 4.2599-3.4821 5.0781c-3.0845 4.6753-7.1048 8.3024-19.278 17.392-2.6318 1.9653-4.873 3.6413-4.9805 3.7245-0.1102 0.08533-2.4222-1.5201-5.3055-3.6842zm19.874-10.033c1.7556-2.5404 2.3332-4.0185 4.4472-11.381 0.7403-2.5781 2.0185-6.7969 2.8405-9.375 1.5047-4.7195 2.2773-7.932 1.107-4.6026-0.3185 0.90607-1.0011 2.7074-1.517 4.003-0.90493 2.2728-1.0004 2.4209-2.7163 4.212-0.9781 1.021-2.0665 2.1889-2.4186 2.5953-0.35211 0.40644-0.66752 0.71166-0.70091 0.67827-0.03339-0.03339 0.25126-1.0691 0.63256-2.3015 0.3813-1.2324 0.99186-3.2076 1.3568-4.3892 1.8897-6.1186 2.4333-9.0702 2.412-13.096l-0.0082-1.5522-0.35025 0.65724c-0.64914 1.2181-3.7133 2.7709-7.2362 3.6669-2.9556 0.75177-8.661 1.0778-11.318 0.64669-0.9439-0.15316-1.8961-0.13028-3.9397 0.09467-2.1429 0.23587-3.1482 0.2546-4.9076 0.09142-3.8247-0.35474-7.1884-1.2304-9.7261-2.5321-1.9292-0.98952-2.3129-1.315-2.643-2.2417l-0.2756-0.77377-0.0086 0.80483c-0.01893 1.7771 0.62496 6.6535 1.1639 8.8149 0.61768 2.477 2.0039 6.9554 3.3032 10.671 0.4466 1.2773 0.78438 2.4052 0.75064 2.5065-0.03375 0.10123-0.54232-0.36979-1.1302-1.0467s-1.8384-2.0505-2.7789-3.0523c-1.8965-2.02-2.2258-2.5833-3.5448-6.0638-1.4579-3.8469-1.8729-5.6468-1.8735-8.1264-2.71e-4 -1.1727-0.05409-2.0786-0.1196-2.0131-0.06551 0.06551-0.11309 1.0689-0.10573 2.2298 0.01696 2.6768 0.36027 4.0482 3.0406 12.147 1.1241 3.3963 2.4443 7.6018 2.9339 9.3457 1.3121 4.674 2.3353 6.9822 4.2375 9.5592 0.87023 1.179 1.3069 1.5272 0.88013 0.702-0.49739-0.96192-1.8538-4.6183-3.28-8.8421-1.5187-4.4975-3.0658-8.7386-3.3487-9.1797-0.33135-0.51669 0.88261 0.84705 2.8836 3.2394 3.9055 4.6693 7.2437 7.7954 10.847 10.157 2.1501 1.4096 4.67 2.7064 5.8961 3.0344 0.81376 0.21765 0.93563 0.19107 2.5089-0.54719 2.1071-0.98875 4.8478-2.6598 6.8906-4.2012 1.9768-1.4917 4.9907-4.3899 6.0557-5.8234 0.43894-0.59082 1.244-1.6016 1.7891-2.2461 0.54505-0.64453 1.4947-1.853 2.1103-2.6855 0.61564-0.83252 1.1614-1.5137 1.2128-1.5137 0.05138 0-0.09025 0.46143-0.31471 1.0254-0.22447 0.56396-0.70937 1.9482-1.0776 3.0762-2.4164 7.4026-3.1462 9.5384-3.9742 11.63-0.51221 1.2941-1.118 2.7188-1.3461 3.166-0.22816 0.44723-0.41167 0.88256-0.40781 0.9674 0.0096 0.21092 0.83443-0.78603 1.7681-2.1371zm-14.666-15.374v-13.86l3.2715 0.11262c2.5329 0.08719 3.7786 0.03789 5.5176-0.21839 2.3529-0.34674 6.0714-1.2087 8.1668-1.8931 0.67825-0.22152 1.2608-0.37176 1.2946-0.33387 0.0338 0.0379-0.23676 1.0796-0.60124 2.315-0.83799 2.8402-1.874 7.0861-2.4068 9.8633-0.56112 2.9252-1.5479 7.0871-1.8539 7.8196-0.2571 0.61534-3.498 3.6961-5.7713 5.4863-1.824 1.4363-4.4916 3.1355-5.8031 3.6964-0.62177 0.26592-1.2843 0.57092-1.4723 0.67779-0.32414 0.18427-0.3418-0.52188-0.3418-13.666zm-8.524 8.4349c-0.98217-0.8315-2.3445-1.9848-3.0273-2.5629-0.68807-0.58248-1.4423-1.4375-1.6917-1.918-1.2743-2.4541-3.2568-8.4243-4.5186-13.607-0.70745-2.906-1.3458-6.6664-1.1628-6.8494 0.13038-0.13038 6.7946 2.1806 8.8092 3.0548 1.043 0.4526 1.8755 0.84384 1.8499 0.86941-0.02557 0.02557-1.4678-0.24136-3.2049-0.59318l-3.1584-0.63968 2.0898 2.1749c2.81 2.9244 3.9297 4.2327 6.1894 7.2314 1.0523 1.3965 2.147 2.8027 2.4327 3.125 1.141 1.2874 1.0088 1.283-0.77058-0.02542-3.1846-2.3416-6.4453-4.4104-6.4453-4.0891 0 0.0671 1.1426 1.3201 2.5391 2.7844 1.3965 1.4643 2.5391 2.7361 2.5391 2.8263 0 0.29887-0.46607 0.16806-2.9039-0.81502-1.3286-0.53577-2.4704-0.97413-2.5374-0.97413-0.06701 0 1.8103 1.9336 4.1717 4.2969 2.974 2.9763 4.174 4.2965 3.9046 4.2958-1.0575-3e-3 -1.8143-0.43822-3.217-1.8503-0.80251-0.8079-1.5269-1.4689-1.6097-1.4689-0.08281 0 0.38625 0.724 1.0424 1.6089 1.1543 1.5568 1.178 1.6124 0.73161 1.7178-0.25372 0.05989-0.46266 0.19283-0.4643 0.29541-0.0016 0.10258-0.07347 0.29754-0.15962 0.43325-0.28326 0.44623-0.19637 1.4074 0.16314 1.8046 0.63504 0.7017 0.2231 0.4103-1.591-1.1255zm-10.643 4.2011c-1.0336-1.9135-3.029-5.9668-3.5816-7.2754-0.32373-0.76662-2.8599-7.9934-3.5128-10.01-0.18262-0.56396-0.37839-1.0254-0.43506-1.0254-0.19092 0 0.167 3.988 0.52858 5.8897 0.7132 3.7508 2.516 8.1854 4.4067 10.84 0.7724 1.0843 3.107 3.3848 3.4373 3.387 0.073 4.83e-4 -0.30642-0.81211-0.84316-1.8058zm39.701-0.27729c1.6143-1.683 3.7686-5.3837 4.6882-8.0535 0.91059-2.6438 1.5518-6.4084 1.5161-8.9004l-0.0197-1.3723-0.6647 2.1484c-2.7055 8.7446-3.8274 11.486-6.521 15.933-0.67797 1.1194-1.2819 2.1232-1.3421 2.2307-0.19401 0.34624 1.4102-1.0136 2.3432-1.9863zm3.5696-25.771 0.11164-0.95353-0.28284 1.0742c-0.31151 1.1831-0.37386 1.9058-0.10754 1.2465 0.0919-0.22751 0.21734-0.84275 0.27874-1.3672zm0.25835-3.4438c-0.04112-0.45654-0.07476-0.08301-0.07476 0.83008 0 0.91309 0.03364 1.2866 0.07476 0.83008s0.04112-1.2036 0-1.6602zm-30.612-1.1177c0.69824-0.22209 1.8186-0.42402 2.4896-0.44873 0.67105-0.02472 1.2204-0.10975 1.2207-0.18897 9.27e-4 -0.22082-1.5539-1.1566-2.5385-1.5279-0.4834-0.18226-1.9392-0.47399-3.2351-0.64829-2.9233-0.39319-5.2744-0.9745-6.8936-1.7045l-1.2419-0.55991 0.12847 0.72981c0.473 2.6869 1.6656 4.2118 3.7226 4.7599 1.0566 0.28155 4.9655 0.02821 6.3477-0.4114zm20.117 0.14524c1.4056-0.61555 2.5989-2.4279 2.8619-4.3467l0.12489-0.91115-0.76096 0.33128c-1.4586 0.63499-3.5837 1.2508-5.34 1.5475-0.97272 0.16431-2.5744 0.43501-3.5592 0.60154-1.7482 0.29561-3.3007 0.88976-4.2445 1.6243l-0.46875 0.36485 1.25 0.13652c0.6875 0.07508 1.9531 0.35126 2.8125 0.61374 1.3888 0.42418 1.8447 0.46945 4.1016 0.40734 1.7184-0.04729 2.76-0.16664 3.2227-0.36924zm-8.4458-5.1267c2.6579-1.3404 5.9869-3.0406 7.3978-3.7784s2.949-1.5047 3.418-1.7044c0.83297-0.35462 0.8397-0.36469 0.29179-0.43612-1.4336-0.18691-4.4609 0.98036-11.06 4.2646-2.6318 1.3098-5.0928 2.4209-5.4688 2.4692-0.92592 0.11898-4.5538-1.693-7.882-3.9367-1.3606-0.91726-2.5607-1.6677-2.667-1.6677s-0.1932 0.17726-0.1932 0.39392c0 0.38423-0.02284 0.38234-0.92913-0.07691-1.2506-0.63371-4.1079-1.4906-4.9403-1.4816-0.59555 0.0065-0.42483 0.13226 1.4749 1.0868 1.1816 0.59371 4.2139 2.1438 6.7383 3.4446 5.3824 2.7735 7.7052 3.8314 8.4488 3.8478 0.31911 0.0071 2.508-0.98122 5.3711-2.4251zm-5.4214-6.4497v-6.9336h-0.42519c-0.68231 0-3.5456 1.4787-4.9865 2.5752-0.72963 0.55523-1.7638 1.3429-2.2983 1.7503-0.53442 0.40746-1.2156 0.79441-1.5137 0.85988-0.2981 0.06547-0.54201 0.19548-0.54201 0.2889 0 0.37325 3.0827 2.3055 6.437 4.0346 2.8773 1.4833 1.319 1.0327-2.8237-0.81656-1.2891-0.57541-2.5854-1.1062-2.8809-1.1795-0.4959-0.12312-0.53711-0.08855-0.53711 0.45058 0 0.68995 0.34177 0.97615 3.3004 2.7639 1.9491 1.1777 5.7649 3.1399 6.1061 3.1399 0.09009 0 0.1638-3.1201 0.1638-6.9336zm25.391 39.601c0-0.65376 0.17704-0.92666 2.25-3.4683 1.9845-2.4332 7.1337-9.1518 8.3972-10.956 1.472-2.1025 1.4711-2.1035 0.37556 0.43304-1.3169 3.0489-9.081 13.502-10.654 14.344-0.32081 0.17169-0.36873 0.12594-0.36873-0.35201zm-52.315-0.67617c-0.90222-0.57124-4.6032-5.0611-6.6485-8.0656-1.7402-2.5564-3.2586-5.195-3.8211-6.6406-0.29517-0.75849-0.29402-0.76723 0.03923-0.29986 1.7253 2.4197 6.3285 8.2979 9.1019 11.623 2.1085 2.5279 2.6052 3.3921 2.1214 3.6911-0.08529 0.05271-0.4421-0.08589-0.79291-0.308zm-11.719-20.566c-0.03563-3.9715 0.14918-4.5436 3.06-9.4727 3.0367-5.1423 5.5481-10.368 7.5558-15.723 1.7432-4.6491 1.8542-5.0102 3.417-11.113 1.5364-5.9998 3.2203-8.849 7.0846-11.988 3.6253-2.9444 6.0298-4.1599 13.795-6.973l3.5929-1.3017 3.243 1.1107c4.4052 1.5087 8.8721 3.4509 11.381 4.9485 3.3316 1.9885 6.4227 5.1249 7.8475 7.9622 0.84954 1.6918 1.2746 2.9561 2.1902 6.5138 1.0423 4.0503 1.13 4.3353 2.7448 8.9241 2.3083 6.5595 4.3207 10.92 8.025 17.391 2.7435 4.7922 2.8402 5.0858 2.9127 8.8412l0.05844 3.0273-0.2791-1.4614c-0.43565-2.2811-1.1861-4.6872-1.8287-5.8628-1.2477-2.283-5.0998-6.1002-11.483-11.38-8.3489-6.9047-12.087-10.065-12.759-10.789-0.26856-0.28892 1.0114 0.51581 2.8443 1.7883 8.2265 5.7111 10.667 7.4987 14.018 10.266 1.1639 0.96123 2.1472 1.7168 2.1849 1.679 0.03776-0.03776-0.26572-0.59455-0.6744-1.2373-0.93074-1.4639-2.1079-4.1909-4.34-10.054l-1.7474-4.5898-0.58238-4.0039c-0.65268-4.4872-0.92653-5.6094-1.7849-7.314-0.88733-1.7622-1.6268-2.7748-3.2644-4.4703-3.9366-4.0757-7.1846-5.4552-18.177-7.7201-0.73214-0.15085-3.0209 0.29008-6.9731 1.3434-5.4746 1.459-8.4527 2.9885-11.51 5.9114-3.8239 3.6557-4.9675 6.0185-5.6322 11.637-0.64603 5.4602-0.53368 5.0692-3.5714 12.429-1.4875 3.604-2.3293 5.408-3.3723 7.2266l-0.6721 1.1719 0.87539-0.70646c4.1095-3.3165 6.1825-4.9343 7.2457-5.6547 0.6858-0.46468 2.1007-1.4647 3.1443-2.2223 1.0436-0.75761 3.007-2.1245 4.3631-3.0376s2.8754-1.959 3.3761-2.3242l0.91029-0.66401-0.97656 1.0175c-0.53711 0.55963-1.5479 1.489-2.2461 2.0653-13.688 11.298-15.328 12.721-19.058 16.533-2.0584 2.1041-2.6746 2.8673-3.1756 3.9332-0.74691 1.5892-1.3814 3.8219-1.5874 5.5863-0.13398 1.1471-0.15376 1.0056-0.17395-1.2449zm13.602-20.802c0.33088-0.59014 1.3435-2.699 2.2504-4.6863 1.8803-4.1207 3.4465-7.0621 4.8876-9.1797 0.98666-1.4497 5.1919-5.8594 5.5878-5.8594 0.11287 0-0.22264 0.59962-0.74558 1.3325-1.3597 1.9055-2.532 3.9974-4.2959 7.6656-2.2664 4.7132-2.4291 5.11-2.0013 4.881 0.1911-0.10227 0.46683-0.32979 0.61272-0.50558 0.39313-0.47369 4.101-3.3086 4.7897-3.6621 0.67027-0.34399 5.2126-1.3499 5.0726-1.1233-0.0497 0.08041-1.0815 0.69988-2.293 1.3766-3.9122 2.1854-7.3088 4.6435-11.578 8.3788-3.0477 2.6667-2.9876 2.6304-2.2875 1.3818zm49.065-0.23614c-4.1283-3.8574-8.2688-6.9351-12.451-9.2544-1.5304-0.84883-2.6982-1.5715-2.5952-1.606 0.43504-0.14552 3.501 0.58673 4.3934 1.0493 1.0719 0.55557 3.1462 2.028 4.7849 3.3965l1.0662 0.89039-2.3563-4.5898c-2.0574-4.0076-4.1972-7.7977-5.293-9.375-0.27754-0.3995-0.19748-0.36765 0.44032 0.17519 4.5608 3.8817 7.4106 7.92 11.179 15.84 0.68991 1.4502 1.4632 3.0542 1.7184 3.5645 0.2552 0.51025 0.40171 0.92438 0.32557 0.92029-0.07613-0.0041-0.62182-0.45913-1.2126-1.0112zm-46.411-11.408c0.06329-0.30885 0.2094-1.1768 0.32468-1.9287 0.65222-4.2542 1.837-6.8248 4.264-9.2518 1.7555-1.7555 5.3171-4.3524 3.986-2.9064-0.64554 0.70127-3.9589 6.25-5.473 9.1651-0.76296 1.4691-1.7016 3.1378-2.0858 3.7083s-0.69858 1.1432-0.69858 1.2725-0.09729 0.29535-0.2162 0.36884c-0.1478 0.09135-0.17979-0.04404-0.10112-0.42793zm43.062-1.8828c-0.71416-1.2069-1.8918-3.3369-2.617-4.7334-1.5713-3.0256-3.6191-6.4932-4.3485-7.3633-1.015-1.2107 1.8783 0.9753 3.6756 2.7771 2.3832 2.3891 3.411 4.486 4.1627 8.4925 0.43173 2.301 0.5479 3.0277 0.48343 3.0244-0.03172-0.0016-0.64199-0.99037-1.3561-2.1973z"/></svg>
