<svg width="100" height="100" version="1.1" viewBox="0 0 100 100" xml:space="preserve" xmlns="http://www.w3.org/2000/svg"><path d="m32.689 99.43c-0.70912-0.4324-1.2435-1.1268-1.2435-1.6158 0-0.19931-0.10535-0.30061-0.25352-0.24375-0.13943 0.05351-0.46441-0.1272-0.72216-0.40157-0.54937-0.58478-0.60068-1.6057-0.11773-2.3428 0.17169-0.26203 0.31216-0.63967 0.31216-0.83921 0-0.32328-2.4149-4.4909-4.3528-7.5121-1.7521-2.7314-2.5247-4.9536-2.0112-5.7844 0.07153-0.11574 0.85154-0.55161 1.7333-0.9686 2.0309-0.96039 3.2707-2.0528 3.8452-3.3882 0.39568-0.91978 0.43067-1.2458 0.34148-3.1812-0.06673-1.4481-0.32401-3.1507-0.78334-5.1837-0.86189-3.8149-1.0214-5.2734-0.57672-5.2734 0.28623 0 0.28531-0.02313-0.0097-0.24414-0.28794-0.21574-0.30623-0.48501-0.15727-2.315 0.09271-1.1389 0.27361-2.2671 0.40199-2.507 0.12838-0.23988 0.18313-0.48644 0.12167-0.5479-0.24228-0.24228-1.3084 2.5604-1.4169 3.7247l-0.1123 1.2057-2.5645-0.04948c-3.3179-0.06401-4.5575-0.29795-6.4892-1.2247-3.3966-1.6294-5.557-4.9076-6.1248-9.2933-0.33192-2.5642-0.0269-4.8647 1.2693-9.5726 1.5399-5.5933 1.7659-8.2635 0.93594-11.058-0.58331-1.9642-2.202-3.9263-4.0121-4.8634-1.1616-0.60135-3.1227-0.61384-4.074-0.02594-1.3069 0.80769-2.136 2.3992-2.136 4.1 0 0.95633 0.070489 1.1404 0.66406 1.734 0.52966 0.52966 0.81924 0.66406 1.4308 0.66406 1.376 0 2.1861-1.5317 1.182-2.235l-0.43408-0.30404 0.52066 1e-6c0.58184 0 1.1288 0.62236 1.1288 1.2845 0 0.5097-0.78156 1.3854-1.4701 1.6472-1.6286 0.61922-3.8854-0.2322-4.6844-1.7673-0.41781-0.8027-0.64411-2.4612-0.46596-3.4148 0.37368-2.0002 1.8488-4.0411 3.5783-4.9508 2.886-1.518 6.5385-0.66316 9.4111 2.2028 2.04 2.0353 3.0308 4.2657 3.4115 7.6799 0.2933 2.6304-0.0016 5.146-1.1051 9.428-0.9091 3.5274-0.93158 3.6852-0.94586 6.6406-0.01399 2.8941 0.0085 3.0767 0.51112 4.1492 0.99441 2.1218 2.7179 3.1362 5.3336 3.139 1.7744 0.0019 2.5857-0.27175 3.6963-1.2469 0.70577-0.61967 3.1686-3.6976 2.9587-3.6976-0.05547 0-0.60028 0.22086-1.2107 0.49081-0.6104 0.26995-1.1549 0.44574-1.21 0.39065-0.05509-0.05509 0.28801-0.46401 0.76244-0.90871 0.95955-0.89942 2.959-1.9031 4.823-2.4209 0.6743-0.18735 1.2704-0.41241 1.3246-0.50014 0.21111-0.34159-0.91829-0.78772-2.287-0.90339l-1.4354-0.12131 0.68359-0.282c0.37598-0.1551 1.6504-0.44068 2.832-0.63463 3.7746-0.61953 4.9439-0.99718 6.0242-1.9457 1.1466-1.0067 1.3281-2.9042 0.37821-3.9545-1.1856-1.311-3.2764-1.4822-5.6868-0.46564-0.8588 0.3622-1.8326 0.85158-2.1639 1.0875-0.33135 0.23594-0.60245 0.36217-0.60245 0.28052 0-0.08165 0.43294-0.81274 0.96208-1.6246 1.7025-2.6122 1.9953-4.541 0.90621-5.9689-1.292-1.6939-4.2718-2.1839-7.1359-1.1734-1.2297 0.43386-1.2953 0.37489-0.52788-0.47456 1.8678-2.0674 1.9142-4.1395 0.12882-5.7525-1.3925-1.2581-2.2255-1.5712-4.1966-1.5776-0.9668-0.0032-2.0533 0.05995-2.4145 0.14025l-0.65669 0.14599 1.1754-1.2565c2.1906-2.3418 3.0265-4.9689 2.5968-8.1619-0.50077-3.721-3.0862-7.494-7.0486-10.286-3.1531-2.222-5.1343-2.8976-11.133-3.7961l-1.6602-0.24866 1.7812-0.33687c2.3755-0.44928 6.6162-0.74658 8.668-0.6077 2.3306 0.15776 5.5676 0.62627 8.2031 1.1873 1.2354 0.26297 3.7402 0.79057 5.5664 1.1724 9.7174 2.032 16.588 4.3132 26.638 8.8441 3.6973 1.6669 4.048 1.7866 5.073 1.7327 0.95062-0.05 1.1092-0.11446 1.1602-0.47149 0.14062-0.98533-2.2053-4.0839-5.4041-7.138-2.2164-2.1161-2.1363-2.141 0.95052-0.29543 3.1496 1.8831 4.9895 3.3313 7.7153 6.0729 3.3222 3.3414 4.9047 5.5239 6.8344 9.4257 0.80627 1.6303 1.4659 3.0424 1.4659 3.1382 0 0.09572-0.46327 0.32006-1.0295 0.49855-1.4855 0.46826-2.7294 1.3246-4.4415 3.0575-2.0812 2.1065-2.7328 3.4331-2.7302 5.5584 0.0021 1.7151 0.4203 2.9302 1.4923 4.3356l0.53262 0.6983 0.5759-1.1409c0.34939-0.6922 1.1637-1.7294 2.0705-2.6372 1.9157-1.9178 2.6969-2.1897 6.3322-2.2045l2.5093-0.01018-1.2398-0.5615c-1.925-0.87185-3.2552-1.0309-5.3762-0.64287-1.9947 0.36494-3.162 0.42104-2.0159 0.09688 0.37598-0.10634 1.6594-0.62402 2.8521-1.1504 2.8921-1.2764 4.4195-1.6244 6.4655-1.473 1.7201 0.12725 4.2365 0.83522 5.304 1.4922 1.0462 0.6439 0.99472 0.23225-0.09686-0.77402-0.58398-0.53835-1.9916-1.437-3.3713-2.1524-1.3028-0.67551-2.719-1.4819-3.1471-1.792-0.91221-0.6608-1.9517-2.0231-1.9517-2.5578 0-0.31144 0.18854-0.22834 1.123 0.49497 1.4361 1.1116 1.3741 1.0823 4.8308 2.2808 3.2838 1.1385 3.7106 1.3316 5.0516 2.2845 0.52078 0.37009 0.98498 0.63479 1.0316 0.58821 0.16807-0.16807-2.716-3.0742-3.6542-3.6822-0.52828-0.34232-0.91862-0.66428-0.86742-0.71548 0.12884-0.12884 1.6904 0.47444 3.3245 1.2844 2.8377 1.4065 4.7898 3.1337 6.8798 6.0874 0.16506 0.23327 1.4549-1.3403 1.6292-1.9876 0.23542-0.8743 0.50506-0.80616 0.68895 0.1741 0.18038 0.9615-0.24682 1.7735-1.6466 3.1297l-1.1493 1.1135 1.0959 0.53024c1.1984 0.57988 3.1324 2.3316 3.6242 3.2828 0.27442 0.53066 0.27816 0.68007 0.03183 1.2696-0.25912 0.62017-0.24511 0.73551 0.19507 1.605 0.26084 0.51523 0.63926 1.1166 0.84093 1.3363 0.65066 0.70899 1.1875 1.7526 1.1882 2.3101 0.0015 1.1432-1.3938 3.5113-1.8187 3.0864-0.31859-0.31859-0.45195-0.2681-1.0872 0.41165l-0.58269 0.62348-0.12909-0.51432c-0.09408-0.37484-0.29628-0.55031-0.74557-0.647-0.87466-0.18825-1.6779-0.62584-2.4984-1.3611-0.68876-0.61718-0.75033-0.63319-2.0508-0.53348-0.73739 0.05654-1.3706 0.1284-1.4071 0.15967-0.1232 0.10546 1.5501 2.2006 1.8492 2.3154 0.16296 0.06253 0.47688 0.01705 0.69761-0.10108 0.39541-0.21162 0.73096 0.0086 0.73927 0.48528 0.0016 0.0943 0.34925 0.11608 0.77245 0.04841 0.44288-0.07082 0.82081-0.03997 0.89043 0.07269 0.06653 0.10766 0.33551 0.19574 0.59773 0.19574 0.61911 0 0.60724 0.25478-0.02771 0.5946-0.27746 0.14849-0.72626 0.64844-0.99734 1.111-0.40342 0.68838-0.4486 0.89437-0.24895 1.1349 0.13416 0.16165 0.20942 0.32234 0.16726 0.35708-0.22152 0.18256-2.9311 0.49153-3.2359 0.36899-0.27754-0.11156-0.20609-0.16542 0.32309-0.24359 0.5212-0.07699 0.72332-0.22553 0.86792-0.63786 0.26885-0.76665-0.2042-1.3197-2.6363-3.0818-1.367-0.99051-2.2781-1.8198-2.7895-2.5391-0.55731-0.78386-0.72791-0.9325-0.64095-0.55847 0.13888 0.59734-0.03532 0.77614-1.7574 1.8038-2.6229 1.5652-3.1964 2.813-3.1949 6.9504 0.0011 2.9944-0.19336 3.7859-1.3479 5.4866-0.76365 1.1249-1.8098 2.0092-1.4966 1.2651 0.09042-0.21484 0.20681-0.63858 0.25864-0.94164 0.0868-0.50748 0.01306-0.46517-0.9333 0.53546-0.56515 0.59756-1.9337 1.8053-3.0412 2.6838l-2.0137 1.5973 0.37049 0.52031c0.20377 0.28617 0.96818 1.0395 1.6987 1.6742 0.7305 0.63461 2.2086 1.9936 3.2846 3.02 1.076 1.0264 2.4519 2.2322 3.0574 2.6795 1.656 1.2233 1.9304 1.717 2.235 4.0211 0.33964 2.5689 0.3397 4.6629 1.47e-4 5.4755-0.14881 0.35615-0.58159 0.83977-0.96174 1.0747-0.39626 0.2449-0.94456 0.87615-1.285 1.4794-0.32662 0.57873-0.8909 1.2788-1.254 1.5557-1.0157 0.77469-2.3807 0.63521-2.8781-0.29408-0.20858-0.38973-0.20019-0.39137 0.40378-0.07905 0.81822 0.42312 1.103 0.2782 1.5632-0.79558 0.41877-0.97695 0.50272-1.9432 0.18585-2.1391-0.10979-0.06785-0.79798 0.45431-1.5293 1.1603-0.73133 0.70604-1.4211 1.2837-1.5328 1.2837-0.29079 0-0.71353-1.6515-0.56956-2.2251 0.0667-0.26576 0.29694-0.53895 0.51165-0.60709 0.21471-0.06815 0.4884-0.30706 0.6082-0.53091 0.19143-0.35769 0.17365-0.3889-0.14669-0.25758-0.20049 0.08219-0.5403 0.19533-0.75514 0.25142-0.21484 0.05609-0.63232 0.32624-0.92773 0.60032-0.4673 0.43356-0.53711 0.4521-0.53711 0.14265 0-0.68085 0.45097-1.8544 0.85891-2.2351 0.40726-0.38009 1.4761-0.83262 2.9178-1.2353 0.41212-0.11512 0.79464-0.32743 0.85005-0.47181 0.16472-0.42925-0.83573-1.9203-1.6501-2.4592-1.1619-0.76892-3.0062-1.6656-5.9763-2.9057-1.4887-0.62157-2.8826-1.2889-3.0977-1.4831-0.34426-0.31077-0.38123-0.53968-0.30938-1.9154 0.11286-2.1608 0.82531-3.4479 3.4554-6.2424 2.3413-2.4877 2.9763-3.3054 3.7217-4.7928 1.5089-3.0109 1.4968-6.2986-0.03464-9.3647-0.89861-1.7991-2.31-3.3481-6.828-7.4938-3.7871-3.475-4.9456-5.6167-4.8152-8.9018 0.05997-1.51 0.153-1.8755 0.82114-3.2268 0.84963-1.7182 2.2943-3.2942 4.2159-4.5992l1.2062-0.81912-1.2324-1.1267c-2.6444-2.4177-6.3731-5.5751-7.6436-6.4726-1.5646-1.1053-5.787-3.2644-10.206-5.219-5.6052-2.4791-11.315-4.4463-16.518-5.6911-3.5333-0.84527-4.2922-0.90459-1.7274-0.13503 2.295 0.6886 4.5819 1.512 10.449 3.7621 4.0578 1.5562 7.1212 2.9118 11.695 5.1753 1.9205 0.95047 3.8182 1.816 4.217 1.9234 0.84426 0.22734 1.4704 0.83358 1.3053 1.2638-0.18465 0.4812-0.88319 0.35343-2.5616-0.46855-2.078-1.0177-8.5153-3.1352-11.288-3.7132-4.0466-0.84346-5.9025-1.1809-6.0835-1.106-0.11757 0.04861-0.07425 0.09533 0.09627 0.10381 0.38056 0.01893 6.5808 1.8912 9.4808 2.8629 7.8788 2.64 13.935 5.5707 16.535 8.001l0.54445 0.50902-1.5713 1.6599c-2.4982 2.6392-3.729 5.6778-3.4613 8.5452 0.25309 2.7103 1.1977 4.1493 5.7818 8.8084 2.0082 2.041 3.9654 4.1504 4.3493 4.6875 1.7525 2.4518 2.4021 4.5655 2.251 7.3242-0.15989 2.9194-0.97373 4.8192-3.263 7.6172-2.7211 3.3257-2.9143 3.6063-3.2467 4.7161-0.2699 0.90104-0.45713 1.1859-0.9301 1.4149-0.3257 0.15774-0.66165 0.24386-0.74656 0.19138-0.42907-0.26518-0.03367 0.37938 1.0373 1.6909 1.4581 1.7856 1.925 2.6929 2.589 5.0304 0.62337 2.1946 0.97404 2.9056 2.3148 4.6932 0.69889 0.93179 1.2119 1.8997 1.5845 2.9896 0.30307 0.88645 0.82062 1.9871 1.1501 2.4459 0.59609 0.83005 0.5979 0.84031 0.36253 2.0633-0.23218 1.2064-0.90889 2.8731-1.4208 3.4993-0.3404 0.41641-1.5452 1.1461-1.8939 1.147-0.22016 5.86e-4 -0.21197-0.06826 0.04138-0.34821 0.73814-0.81564 1.153-2.7142 0.79616-3.644-0.09324-0.24298-0.18152-0.26326-0.39062-0.08971-0.14859 0.12332-0.27016 0.34222-0.27016 0.48644 0 0.53734-0.65232 2.1573-1.1742 2.9158-0.67548 0.9819-1.9822 1.6632-3.1441 1.6393-0.84416-0.01734-0.84794-0.02039-0.24259-0.19575 1.0612-0.30742 2.4124-2.1839 2.4124-3.3502 0-0.49528-0.49789-1.3193-0.79716-1.3193-0.10399 0-0.28082 0.24131-0.39295 0.53624-0.33704 0.88648-1.1647 1.8321-1.8567 2.1212-0.7507 0.31366-1.9945 0.35317-2.4219 0.07693-0.23588-0.15244-0.20545-0.18991 0.15618-0.19232 0.91797-0.0061 2.1876-0.99873 2.1876-1.7103 0-0.17258-0.1555-0.2142-0.48828-0.13068-0.57363 0.14397-0.57475 0.13955-0.19531-0.76858 0.3364-0.80511 0.37899-2.0765 0.10192-3.0426-0.15659-0.54599-0.12136-0.77891 0.19531-1.2913 0.2125-0.34383 0.38636-0.8 0.38636-1.0137 0-0.48763-2.5256-2.7827-4.3945-3.9934-1.7713-1.1474-3.6937-3.1706-4.2728-4.4967-0.93996-2.1525-0.91382-2.1248-0.84016-0.88971 0.03684 0.61768 0.03283 1.123-0.0089 1.123-0.26423 0-0.89097-1.9944-0.89097-2.8352 0-1.0596 0.19434-1.5485 1.0469-2.6336 0.95565-1.2163 1.214-2.3627 1.0565-4.6875-0.27918-4.1194 0.02299-6.0947 1.225-8.0078 1.2685-2.0189 1.4381-2.3438 1.2238-2.3438-0.45026 0-2.3169 1.997-2.9143 3.1177-0.6955 1.3049-1.3857 3.7748-1.389 4.9701-0.0012 0.43936-0.05679 1.1295-0.12358 1.5335l-0.12143 0.73471-0.84524-0.69261c-1.3933-1.1417-2.0486-1.3337-4.6044-1.3491-2.0219-0.01215-2.3412 0.03256-2.832 0.39653-0.69662 0.51659-0.75876 0.94961-0.36282 2.5284 0.41968 1.6734 0.18903 2.9473-0.95326 5.2645-1.56 3.1647-4.0971 6.0628-7.6427 8.7303-2.9479 2.2178-3.8014 3.3498-3.8014 5.0415 0 1.4264 2.0888 6.5049 3.1373 7.6279 0.48825 0.52291 2.1492 1.1589 3.0266 1.1589 0.23594 0 0.73393-0.12742 1.1066-0.28315 0.57133-0.23872 0.82791-0.24349 1.6352-0.03042 1.0375 0.27383 2.1338 0.78586 2.3169 1.0821 0.06303 0.10198 0.53003 0.24572 1.0378 0.31943 0.74587 0.10827 1.0826 0.29866 1.7533 0.99128 0.98808 1.0204 1.0766 1.4226 0.19531 0.88741-0.72763-0.44188-1.7995-0.71077-2.0979-0.52631-0.13476 0.08328-0.10657 0.30192 0.08371 0.64924 0.15779 0.28802 0.43171 0.82207 0.60871 1.1868l0.32182 0.66312-0.65444-0.12929c-0.35994-0.07111-1.0616-0.38145-1.5593-0.68965l-0.90485-0.56036-0.09745 0.86454c-0.08886 0.78836-0.57259 1.6299-0.93688 1.6299-0.08072 0-0.10116-0.17437-0.04543-0.38749 0.16147-0.61746-0.09383-1.2965-0.6161-1.6387-0.4583-0.30029-0.52033-0.29049-1.223 0.19313-0.71258 0.49045-0.81312 0.50502-2.6933 0.39032-1.0742-0.06553-2.2763-0.17367-2.6712-0.24032-0.5989-0.10107-0.79939-0.03986-1.208 0.3688-0.56726 0.56726-0.5137 1.2115 0.14541 1.7494 0.58379 0.4764 0.0094 0.45555-0.78439-0.02848zm37.781-46.647c-0.5424-1.9681-2.2265-4.4656-4.5892-6.8053-2.0159-1.9963-6.9775-6.177-7.0559-5.9453-0.11988 0.35432 0.70955 1.9185 1.4546 2.7432 0.41414 0.45841 1.4128 1.3383 2.2193 1.9553 2.0979 1.6051 5.7754 5.5529 7.5919 8.1497 0.2442 0.34912 0.47487 0.63477 0.51261 0.63477 0.03774 0-0.02222-0.32959-0.13324-0.73242zm-12.085-1.1719c-1.2277-1.4055-3.9342-3.3866-6.139-4.4937-1.9441-0.97617-3.7152-1.4377-5.957-1.5522-2.4946-0.12749-2.4222 0.05291 0.3646 0.90868 2.4182 0.74258 4.8404 1.9694 7.747 3.9238 1.9362 1.3019 3.2456 1.8956 4.2621 1.9327 0.29964 0.01091 0.25178-0.11303-0.27774-0.71924zm20.027-5.1084c0.18243-0.54924 0.63344-1.4373 1.0022-1.9734s0.62341-0.97482 0.56578-0.97482c-0.23428 0-1.7987 1.0621-2.3919 1.6239l-0.63477 0.60114 0.0011-0.47777c3e-3 -1.3049 0.99306-3.1857 2.0665-3.9258l0.56909-0.39234-0.97656 0.13091c-0.53711 0.072-1.12 0.25915-1.2952 0.41588-0.54784 0.48988-0.95102 2.3934-0.94853 4.4783 0.0025 2.0608 0.28883 3.4854 1.0156 5.0523l0.44692 0.96356 0.12404-2.2616c0.06956-1.2682 0.26973-2.7002 0.45573-3.2602zm17.84-1.7278c0.04532-0.30678-0.1544-0.53502-0.79841-0.91244-1.0562-0.61898-1.1175-0.62053-1.1175-0.0282 0 0.2924 0.14032 0.51965 0.36487 0.59092 0.20068 0.06369 0.52385 0.29148 0.71816 0.5062 0.42208 0.46639 0.74996 0.40479 0.83288-0.15648zm-25.246-1.8629c0.0124-1.3411 0.72161-3.2162 1.6083-4.2521 0.64895-0.75815 0.66567-0.80805 0.2252-0.67188-2.6508 0.81951-4.1694 2.9206-3.1802 4.3999 0.24917 0.37262 1.2579 1.558 1.3249 1.5569 0.0068-1.05e-4 0.01658-0.46489 0.02183-1.0329zm5.9116-3.5382c0.35356-0.18283 1.0669-0.38265 1.5853-0.44404l0.94249-0.11162-0.41588-0.85388c-0.23956-0.49187-0.55184-0.85414-0.73656-0.85449-0.40922-7.81e-4 -2.2502 1.6466-2.5924 2.3197-0.14306 0.28144-0.32769 0.73144-0.4103 0.99999-0.14406 0.46834-0.12702 0.46354 0.41715-0.11748 0.31204-0.33317 0.85661-0.75535 1.2102-0.93818zm-7.073-2.4262c0.41866-0.34542 1.2007-0.79421 1.7378-0.9973 0.7466-0.28231 0.89551-0.40144 0.63237-0.50594-0.77861-0.30918-3.4286 0.43705-4.2763 1.2042-0.45035 0.40756-0.62312 1.2807-0.46374 2.3436l0.13053 0.87044 0.73906-1.1435c0.40649-0.62891 1.0816-1.4261 1.5003-1.7715zm22.993 1.5422c-1.2089-1.2277-1.4466-1.3798-2.5537-1.634-0.67139-0.15417-1.2207-0.24332-1.2207-0.19809 0 0.04522 0.35061 0.59852 0.77913 1.2296 0.81215 1.1959 0.90876 1.2567 2.3459 1.4757 0.4834 0.07365 1.0107 0.20924 1.1719 0.3013 0.86828 0.49607 0.6588 0.02522-0.52249-1.1744zm-10.143-1.6248c-0.07766-0.13428-0.29822-0.47132-0.49013-0.74898-0.19191-0.27766-0.48855-1.1187-0.65921-1.8691-0.37912-1.6669-1.1106-2.6335-2.3515-3.1074-0.48507-0.18525-0.93618-0.28258-1.0025-0.21628-0.06629 0.06629-0.23114 0.54693-0.36632 1.0681-0.27833 1.073-0.12967 2.2892 0.37374 3.0575 0.32855 0.50144 2.2189 1.5908 2.4169 1.3928 0.05928-0.05928-0.30228-0.54616-0.80346-1.082-0.50118-0.5358-0.99787-1.2021-1.1038-1.4806-0.23591-0.62049-0.25288-1.6528-0.02718-1.6528 0.30847 0 1.5938 1.3854 1.9707 2.1241 0.38744 0.75945 1.8943 2.7587 2.0792 2.7587 0.05755 0 0.0411-0.10986-0.03657-0.24414zm-29.527-0.65228c3.8883-0.49882 4.272-0.66708 1.2728-0.55816-2.4163 0.08775-6.2788 0.67254-6.575 0.99547-0.1377 0.15014 2.2727-0.04867 5.3022-0.43731zm1.7955-6.5422c2.7375-0.02121 2.1-0.24443-1.6457-0.5763-2.9179-0.25853-5.7066-0.18903-9.6647 0.24087l-2.3438 0.25456 2.832 0.11999c1.5576 0.06599 4.1424 0.08797 5.7439 0.04883s3.8867-0.07872 5.0781-0.08795zm-1.0851-6.9129c-0.1181-0.1181-5.2739-1.1759-7.1002-1.4567-2.4971-0.38397-9.1228-0.76893-8.8692-0.5153 0.04544 0.04544 1.0049 0.17872 2.1322 0.29618 1.1272 0.11746 2.9284 0.33856 4.0027 0.49133 1.0742 0.15278 2.876 0.38204 4.0039 0.50948 1.1279 0.12744 2.7979 0.34257 3.7109 0.47808 1.9931 0.29578 2.2417 0.31888 2.1197 0.19696zm-38.852 73.445c-2.5737-0.71021-5.5793-3.0799-6.7918-5.3549-2.3194-4.3516-1.2914-9.7286 2.6005-13.602 1.9854-1.9761 3.9323-3.1237 7.6331-4.4993 6.1219-2.2756 6.6676-2.9683 6.0815-7.7199l-0.15811-1.2817 1.2323-0.25008c2.2165-0.4498 1.9816-0.75429 2.2465 2.9112 0.12812 1.7725 0.26811 3.5303 0.31108 3.9062 0.14259 1.2477-0.20311 4.9759-0.53508 5.7706-0.40534 0.97035-1.0721 1.6796-2.491 2.6501-1.6399 1.1215-1.9875 1.2172-2.7445 0.75567-1.8231-1.1116-6.7473 0.43129-8.4339 2.6425-0.28665 0.37581-0.78948 1.2566-1.1174 1.9574-0.52766 1.1276-0.588 1.4363-0.5247 2.6845 0.21054 4.1513 4.0952 7.2138 8.1016 6.3869 2.3239-0.47964 3.3924-1.3848 3.3924-2.8737 0-0.72349-0.10323-0.96829-0.60659-1.4385-0.70037-0.65424-1.5197-0.74006-1.9999-0.20947-0.37972 0.41959-0.41962 1.0308-0.08886 1.3616 0.12891 0.12891 0.17913 0.23438 0.11161 0.23438-0.33692 0-0.73661-0.687-0.73661-1.2661 0-0.4886 0.15079-0.77916 0.60092-1.1579 1.5868-1.3352 4.2629 0.21997 4.5991 2.6728 0.3393 2.4755-1.7874 4.8024-5.2257 5.7175-1.272 0.33856-4.2338 0.33995-5.4565 0.0026z"/></svg>
