<svg width="100" height="100" version="1.1" viewBox="0 0 100 100" xml:space="preserve" xmlns="http://www.w3.org/2000/svg"><path d="m42.163 97.378c-3.7964-3.1085-7.1708-6.7607-11.971-8.4217-4.3215-0.94171-1.8994-6.6487-7.088-7.2302-4.9855-1.2019-9.7718-2.9849-14.487-4.9967-2.6387-1.8106-12.222-3.5942-7.1681-7.6368 5.4614-0.79861 5.6841-6.5445 5.5009-10.957 0.81402-10.27 0.29762-20.634-2.0862-30.685-0.69152-4.8992-1.6606-9.9256-0.97681-14.866 2.077-5.6144 9.3334-5.1307 14.328-5.4972 5.6247-0.95619 11.251-2.0165 16.92-2.795 5.4136-0.60766 10.091-3.88 15.502-4.2913 5.4957 0.4243 10.259 3.8464 15.728 4.71 5.8558 1.7074 11.819 3.5792 18.025 3.0654 4.919-0.15628 12.177 1.0437 12.937 6.7924-0.07612 11.797-3.9309 23.295-3.2195 35.137 0.33226 6.5809-0.78995 13.496 1.6124 19.795 3.9515 0.8703 6.7525 6.1343 1.0405 7.0727-4.4715 1.6227-9.4007 1.6535-13.466 4.3677-6.31-0.11672-8.5465 5.5525-13.3 7.9971-4.6737 1.8778-9.0445 4.3147-12.639 7.8456-3.3792 3.5123-8.7665 4.2353-13 1.7398-0.74825-0.34759-1.4844-0.72156-2.1913-1.1449zm16.047-3.8702c3.7519-2.4205 7.4691-4.8791 11.797-6.3105 4.0963-2.7537 6.6803-7.9339 12.701-7.8944 4.29-2.7392 9.3959-2.746 14.157-4.1181 6.2386-2.8047-4.1203-3.8225-3.0022-8.0769-1.3369-6.4814-0.64253-13.211-0.97537-19.802-0.0019-2.1726 0.33304-10.881-0.57639-4.3997-0.67816 7.4389-0.066 14.983-0.9034 22.378-5.1594 4.0209-4.9875-5.4817-4.694-8.7826-0.43024-2.9153 1.5621-10.788-1.9351-10.758-3.1575 2.2229-4.5834-2.7743-6.8172-3.2856-2.9444 3.8772-1.0572 9.5177-2.8869 13.864-3.8336-0.091-0.84612-8.2424-4.5126-10.379-5.9414-2.1045-4.6548 8.3687-9.4832 7.3629-0.69806 3.8251 0.28121 9.7809-2.6859 12.228-1.3856-1.8479-0.36615-8.5247-1.4485-7.7304-0.93393 5.1209-2.159 10.21-2.1244 15.461-0.19236 5.5324-1.6279 10.957-1.0725 16.528-0.30876 2.8765 1.2798 5.1994 4.4621 3.7141zm-14.352-6.2004c3.1031-6.6176-0.19361-13.828 0.2163-20.727 0.46208-4.7778-1.5409-9.0834-3.5404-13.295-1.5186-4.3979-3.8114-11.555-9.6311-6.8397-4.9218 1.0486-5.2377-6.3911-7.1143-9.4781-0.88154-5.231-8.8078-10.611-11.215-3.4341-2.3907 4.3957-0.7347 9.2149-0.67779 13.783-0.16365 4.7443-2.2403 9.124-2.1323 13.861-0.74053 4.387-3.523 11.07 3.0487 12.371 3.0912 1.3021 7.6283 2.909 7.1328-2.3651 0.72294-4.276 1.7728-11.375 7.6537-10.91 4.2411 3.8283 5.1135 10.074 6.1568 15.433-0.03726 5.2763 1.5084 10.69 7.4694 11.67 0.7785 0.45834 2.1544 1.1644 2.633-0.06893zm7.9634-52.784c-0.13441-4.9505 2.6033-10.29 8.2536-10.554 5.6665-0.79197 10.699-3.5768 16.302-4.612 5.2738-1.1585 10.252-4.0458 15.598-4.3657 1.692-0.30979 2.5699-2.5606 4.1998-1.154-1.8177-4.7934-8.0211-5.2922-12.517-5.2063-7.1768 0.29674-13.907-2.2832-20.697-4.0987-4.8532-0.35159-8.7417-4.7487-13.725-3.884-5.0559 2.0367-10.209 3.8632-15.643 4.6156-5.3423 0.94389-10.777 1.4568-16.059 2.6721-2.6518-0.39339-13.483 0.97742-6.2507 3.6017 9.9537 4.4179 20.201 8.3591 31.017 10.206 4.6295 0.56536 11.245 2.5788 8.7455 8.4182-0.29935 6.8583-0.8779 13.75-0.46221 20.607 0.54186-5.0901 0.54419-10.934 1.2368-16.245zm-6.6384-15.191c-9.8665-1.8847-19.794-4.5-28.51-9.517 3.2412-2.1235 9.9382-1.579 14.453-2.8416 6.1128-0.82351 12.268-1.9193 17.861-4.559 5.3245-0.75611 9.6963 3.7865 15.098 3.9203 5.4064 1.9562 11.134 2.8305 16.808 3.5694 2.9229 3.0527-6.5216 5.4393-9.5582 5.3501-4.9488 1.1764-9.5319 3.8094-14.756 3.964-3.7768 0.38386-7.6214 0.63577-11.396 0.11378z"/></svg>
