<svg width="100" height="100" version="1.1" viewBox="0 0 100 100" xml:space="preserve" xmlns="http://www.w3.org/2000/svg"><path d="m69.238 99.079c-0.51642-0.12493-1.2576-0.81465-1.5288-1.4227-0.14761-0.33094-0.25206-4.0756-0.32415-11.621-0.10605-11.099-0.10776-11.136-0.56366-12.274-0.63557-1.5864-1.8177-2.7683-2.9414-2.9409-1.6478-0.253-3.4843 1.2442-4.1264 3.3641-0.30139 0.99506-0.54913 5.2782-0.56277 9.7298-0.01001 3.2654-0.05468 3.7892-0.35325 4.1421-0.56852 0.67187-1.3165 0.73316-1.8945 0.15521l-0.49811-0.49811v-5.6633c0-6.499-0.10341-7.2646-1.1373-8.4204-1.2793-1.4301-2.7272-1.4281-4.8763 7e-3 -1.7307 1.1557-2.7893 2.5523-3.7282 4.9185-0.8689 2.1898-1.0004 3.609-1.0004 10.795 0 7.2751-0.01446 7.3731-1.2472 8.4555-1.1032 0.96862-2.5169 0.76625-3.3624-0.48135-0.34529-0.50946-0.3785-1.1248-0.48278-8.9455-0.12658-9.4937-0.18786-9.9524-1.7562-13.144-0.98148-1.9971-1.8998-2.7744-3.2776-2.7744-0.97597 0-2.1035 0.6327-2.671 1.4987-0.88623 1.3526-0.94707 1.8421-1.0596 8.5274l-0.10798 6.4129-0.63785 0.56956c-1.0281 0.91803-2.1934 0.69608-2.699-0.51411-0.2174-0.5203-0.27726-1.9247-0.2803-6.5761-0.0021-3.253-0.09152-6.5297-0.19866-7.2817-0.42818-3.0053-1.4661-4.9499-2.824-5.2907-0.62998-0.15812-0.98762 0.02114-1.553 0.77837-0.35742 0.47872-0.41032 0.90327-0.49808 3.9974-0.10696 3.771-0.27555 4.3843-1.274 4.6349-0.60431 0.15167-1.4068-0.33898-1.665-1.0179-0.10263-0.26993-0.18794-1.6496-0.18959-3.066-0.0034-2.9011-0.11044-3.292-0.7194-2.6261-1.0076 1.1018-1.0354 1.2998-1.0354 7.3717-1e-6 6.1728-0.0613 6.5936-1.0769 7.3925-0.29606 0.23288-0.71063 0.42342-0.92127 0.42342-0.64485 1e-6 -1.5041-0.63614-1.7044-1.2619-0.10452-0.32646-0.21187-3.1863-0.23856-6.3553l-0.04852-5.7617 0.54419-1.5625c0.80008-2.2972 1.5904-3.8537 2.6759-5.2699 0.53069-0.69239 0.96489-1.2945 0.96489-1.3379 0-0.04348-0.647-0.12058-1.4378-0.17132-1.0872-0.06977-1.7658-0.24773-2.7832-0.72984-2.5014-1.1854-3.206-1.1686-3.9868 0.09476-0.35645 0.57675-0.39618 0.94163-0.37425 3.4371 0.023355 2.6572 0.00378 2.8087-0.40583 3.1404-0.56193 0.45505-1.0757 0.44116-1.559-0.04211-0.3536-0.3536-0.39062-0.65104-0.39062-3.1378 0-1.5202-0.090302-2.9159-0.20218-3.125-0.65131-1.217-3.0721 0.66775-4.3633 3.3971-1.1618 2.4559-1.3132 3.4749-1.434 9.6524-0.11511 5.8855-0.17366 6.2711-0.90938 5.9888-0.28512-0.10941-0.31757-0.82621-0.31625-6.9858 8.3081e-4 -3.865 0.091343-7.4185 0.20717-8.1334 0.88845-5.4835 4.4255-9.6629 8.7757-10.369 2.1696-0.35239 2.7453-0.57006 3.6059-1.3633 1.1317-1.0432 1.9032-2.7992 2.0099-4.5748 0.14152-2.3549-0.43922-3.218-3.7244-5.5351-7.1612-5.051-10.397-12.715-8.1386-19.279 0.9226-2.6816 3.306-5.5393 5.5286-6.6287 0.77124-0.37804 1.7099-0.74528 2.0859-0.81609l0.68359-0.12875-1.3677 1.3493c-2.1707 2.1415-3.2221 4.5574-3.2221 7.404 0 4.5018 3.1628 8.7781 7.1032 9.6041 0.65866 0.13807 2.0039 0.25286 2.9894 0.2551l1.7919 0.0041 1.4134-2.7133c1.7928-3.4418 3.4614-5.7907 5.9898-8.4323 1.5518-1.6213 3.8952-3.73 4.9111-4.4193 0.04273-0.02899-0.23687-0.74086-0.62133-1.5819-1.3055-2.8559-1.5891-5.7405-0.84215-8.566 0.66543-2.5172 2.4875-4.6703 5.7255-6.7654 2.9905-1.935 4.258-3.4365 4.6315-5.4866 0.1061-0.58239 0.19145-0.70449 0.36859-0.52737 0.14384 0.14383 0.23029 0.90614 0.22991 2.0274-5.57e-4 1.644-0.05357 1.8966-0.62306 2.9688-0.34235 0.64453-1.156 1.875-1.8081 2.7344-1.5886 2.0936-2.0254 3.2725-1.9191 5.1796 0.09615 1.725 0.64817 3.08 1.8922 4.6446 1.1163 1.4039 1.4199 1.5173 3.0705 1.1472 2.9955-0.67172 6.6515-0.96573 10.521-0.84607 4.073 0.12596 6.2242 0.46666 9.6174 1.5232 2.2793 0.7097 2.7219 0.64812 3.2941-0.45832 0.99502-1.9242-0.12653-3.9881-3.2449-5.9715-1.6858-1.0722-2.5972-2.0407-3.2568-3.461-0.46833-1.0084-0.54424-1.4171-0.54424-2.9297 0-2.0513 0.46615-3.2913 1.8014-4.7917 0.70345-0.79049 2.7823-2.1677 2.7823-1.8433 0 0.070195-0.30691 0.48619-0.68203 0.92443-1.7859 2.0865-1.9285 4.937-0.33984 6.793 0.80163 0.93652 1.5684 1.3498 4.2115 2.2698 1.092 0.38011 2.5691 1.032 3.2824 1.4485 4.0523 2.3667 5.4553 6.9164 3.5791 11.606-0.26442 0.66095-0.48077 1.2894-0.48077 1.3965s0.89485 1.0225 1.9886 2.0342c2.164 2.0017 3.6036 3.7125 5.3306 6.335 0.99792 1.5153 1.1648 1.6802 1.5915 1.5731 0.26222-0.06581 1.5067-0.19984 2.7654-0.29785 2.6701-0.20788 3.3251-0.40016 4.5863-1.3461 1.8086-1.3566 2.7605-3.2781 2.7714-5.594 0.0062-1.3304-0.07522-1.7309-0.5485-2.6963-0.30571-0.62359-0.86063-1.5331-1.2332-2.0211-0.37253-0.48804-0.62712-0.93756-0.56575-0.99894 0.26232-0.26233 2.1536 0.89266 3.1189 1.9047 4.3976 4.6104 3.2819 11.473-2.6098 16.052-2.5691 1.9966-3.1195 2.5112-3.6443 3.4066-0.47053 0.8029-0.50556 1.0127-0.42993 2.5747 0.07135 1.4735 0.17143 1.8674 0.74961 2.95 0.80753 1.5121 1.405 1.9103 3.1041 2.0692 3.2192 0.30102 5.0328 1.0571 7.01 2.9222 3.1449 2.9667 4.2685 5.9633 4.4707 11.923 0.06195 1.8262 0.04726 4.7973-0.03264 6.6026-0.14185 3.2049-0.15514 3.2809-0.56346 3.2227-0.41192-0.05873-0.41994-0.13712-0.5357-5.2354-0.11919-5.2492-0.24204-6.3197-0.98617-8.5938-0.84223-2.5738-1.6472-3.7109-2.6268-3.7109-0.82471 0-0.91366 0.38561-0.76246 3.3057l0.14105 2.7242-0.51285 0.51285c-0.56372 0.56372-1.0914 0.53426-1.7504-0.09776-0.32151-0.30831-0.36893-0.69727-0.39637-3.2511-0.03637-3.3842-0.18701-3.8632-1.3217-4.2032-1.4119-0.42301-4.3127 0.69401-6.3101 2.4299l-0.7762 0.67456 1.1816 1.3451c3.5658 4.0589 4.9493 8.1064 4.7283 13.833-0.09215 2.3879-0.33489 3.0181-1.3196 3.426-0.45337 0.18779-0.66685 0.17331-1.1533-0.07822-0.82132-0.42472-1.0033-1.2292-1.0046-4.441-8.29e-4 -2.0319-0.08598-2.9401-0.35709-3.8086-0.81774-2.6196-2.7459-4.5584-4.5334-4.5584-1.5662 1e-6 -1.9466 0.83128-1.9466 4.2538 0 2.2545-0.04032 2.5518-0.39823 2.936-0.49491 0.53122-0.77764 0.5365-1.4259 0.02661-0.50444-0.3968-0.51013-0.4308-0.56345-3.3691l-0.05386-2.9683h-0.576c-0.77665 0-1.6379 1.1439-2.4534 3.2585-1.4055 3.6446-1.379 3.3653-1.499 15.784-0.10477 10.842-0.12227 11.253-0.50538 11.888-0.21827 0.36145-0.68824 0.77893-1.0444 0.92774-0.67455 0.28185-0.70632 0.28494-1.3437 0.13075zm-20.081-31.068c0.12751-0.08108 0.41943-0.5851 0.64873-1.1201 0.5572-1.3 0.91394-1.6562 1.6585-1.6562 0.7267 0 1.0336 0.30163 1.7388 1.709l0.51384 1.0254 1.0221-0.0027c1.7535-0.0046 1.8692-0.08463 2.6844-1.8575 0.40661-0.88428 0.84112-1.6707 0.96559-1.7476 0.51987-0.3213 1.1151 0.10576 1.7698 1.2699 0.90153 1.6028 0.9861 1.6586 2.0583 1.3584 0.96275-0.26955 1.16-0.52844 1.7286-2.2689 0.6087-1.8632 1.5537-2.1062 2.5575-0.65774 0.30049 0.43361 0.75365 0.84041 1.007 0.904 0.91032 0.22848 1.8345-0.78928 2.1256-2.3407 0.19541-1.0416 0.89938-1.8068 1.7948-1.9508 1.0622-0.17087 1.5434-0.58944 1.8877-1.6419 0.3825-1.1693 0.93983-4.3706 0.78744-4.523-0.06291-0.06291-0.55258 0.13026-1.0881 0.42928-0.53557 0.29902-1.6491 0.81181-2.4745 1.1395-1.8356 0.72881-1.9891 0.85028-1.9891 1.5748 0 0.31605-0.18711 1.0096-0.41579 1.5412-0.41756 0.97065-0.97062 1.341-1.6267 1.0892-0.25053-0.09614-0.98248-1.011-1.5708-1.9634-0.16735-0.27092-0.361-0.28865-1.3528-0.12386-0.63661 0.10577-1.237 0.27182-1.3342 0.369-0.09718 0.09718-0.39572 0.78041-0.66344 1.5183-0.26772 0.7379-0.6258 1.4954-0.79572 1.6834-0.73148 0.80921-1.6584 0.19154-2.3226-1.5478l-0.34007-0.89047-2.162 0.13188c-1.1891 0.07253-2.2965 0.1705-2.4609 0.21771-0.1644 0.04721-0.61841 0.78916-1.0089 1.6488-0.67125 1.4777-0.74388 1.5629-1.3317 1.5629-0.76881 0-1.5851-0.81161-2.0557-2.0439-0.18078-0.47336-0.44159-0.90399-0.57958-0.95694-0.13799-0.05295-1.3947-0.15845-2.7928-0.23445l-2.5419-0.13818-0.4302 0.85666c-1.227 2.4434-2.4418 2.2886-3.3446-0.4264-0.22972-0.6908-0.4401-1.2837-0.46753-1.3175-0.11221-0.13844-2.4773-0.61798-2.6182-0.53087-0.08386 0.05183-0.48984 0.6238-0.90218 1.271-0.65632 1.0302-0.82618 1.1768-1.3636 1.1768-0.83917 0-1.2496-0.52514-1.3909-1.7799-0.06521-0.5787-0.18884-1.1899-0.27473-1.3583-0.08589-0.16838-0.79887-0.55528-1.5844-0.85976-0.78552-0.30448-2.1185-0.89737-2.9621-1.3175-0.84364-0.42015-1.576-0.72177-1.6275-0.67027-0.14397 0.14397 0.52272 3.2261 0.93927 4.3422 0.54202 1.4524 1.1004 1.894 2.5252 1.997 1.3489 0.09757 1.4538 0.21735 2.0459 2.3376 0.38869 1.3919 1.1356 2.1916 2.0468 2.1916 0.44923 0 0.72225-0.21753 1.4095-1.123 1.3162-1.7342 2.1194-1.591 2.8871 0.51485 0.21985 0.60306 0.4936 1.2819 0.60835 1.5085 0.45359 0.89579 2.5741 1.3927 3.1266 0.73262 0.14743-0.17612 0.48778-0.72268 0.75634-1.2146s0.72159-1.0247 1.0068-1.184c0.71019-0.39672 1.0324-0.10325 1.8477 1.6827 0.69032 1.5122 0.65728 1.4909 2.6143 1.6865 0.37598 0.03758 0.72754 0.08105 0.78125 0.09659 0.05371 0.01555 0.20198-0.03807 0.32949-0.11915zm-10.821-15.931c1.3249-0.6482 4.3169-3.4192 4.2133-3.902-0.03809-0.17756-2.2635-2.577-4.9453-5.3321-2.6818-2.7551-5.1629-5.385-5.5135-5.8442-0.65593-0.85904-0.78508-0.91325-3.2617-1.369-0.91995-0.16929-0.89934-0.11868 0.68697 1.6872l1.1286 1.2848-0.78614 0.95134c-2.4014 2.906-2.9317 5.8757-1.5592 8.7314 1.5021 3.1254 3.762 4.5126 7.1607 4.3954 1.459-0.05028 1.9627-0.15586 2.8763-0.60283zm-3.3616-3.5941c-1.0005-0.51017-1.4562-1.2481-1.4562-2.358 0-2.4078 2.2922-3.7816 4.1553-2.4905 1.8518 1.2833 1.8034 3.6586-0.09665 4.7479-0.91872 0.52671-1.707 0.55717-2.6025 0.10057zm32.076 3.8557c1.4659-0.45277 2.9621-1.6626 3.7781-3.0549 0.66237-1.1303 1.2424-3.0211 1.2395-4.0405-5e-3 -1.7512-0.99589-4.1909-2.2791-5.6112-0.83356-0.92265-0.80766-1.0287 0.68766-2.817 0.53818-0.64363 0.95988-1.1889 0.93711-1.2116-0.02277-0.02277-0.74087 0.08005-1.5958 0.22851-1.4995 0.26039-1.5819 0.30316-2.3355 1.2116-0.42965 0.51795-2.6273 2.8617-4.8837 5.2083-2.2564 2.3466-4.4317 4.6453-4.8341 5.1081l-0.73153 0.84157 1.3919 1.4905c2.0882 2.236 3.6207 3.0018 6.0564 3.0263 0.78343 0.0079 1.8016-0.14255 2.569-0.37958zm-4.2574-3.6567c-1.222-0.30598-2.0508-1.478-2.0508-2.9002 0-0.81912 0.08882-1.0031 0.85321-1.7675 0.8108-0.8108 0.90938-0.85321 1.9834-0.85321 1.0615 0 1.1746 0.04672 1.862 0.76931 0.98379 1.0342 1.159 2.028 0.57153 3.2415-0.61808 1.2768-1.8477 1.8536-3.2193 1.5101z"/></svg>
