<svg width="100" height="100" version="1.1" viewBox="0 0 100 100" xml:space="preserve" xmlns="http://www.w3.org/2000/svg"><path d="m40.539 98.066c0.55617-1.0565 1.0112-2.0424 1.0112-2.191 0-0.63982-1.3997-0.15966-3.8803 1.3311-2.3804 1.4305-4.3554 2.0413-6.676 2.0646-1.9153 0.0192-2.9877-0.14568-2.9877-0.45937 0-0.0946 0.56257-0.53852 1.2502-0.9865 1.5948-1.039 2.6267-2.0899 2.4653-2.5106-0.10288-0.26811-0.37535-0.29884-1.7691-0.19955-2.5854 0.18418-4.6756 0.65319-6.7265 1.5093-2.6516 1.1069-4.7857 1.4448-8.2658 1.3087-2.7217-0.10638-5.3712-0.40038-6.5728-0.72934-0.59622-0.16322-0.59586-0.16363 0.15986-0.18392 0.41656-0.01119 1.3577-0.14618 2.0914-0.29998 0.73368-0.15381 1.8269-0.379 2.4294-0.50043 1.6675-0.33608 1.7857-0.36777 3.3569-0.9001 0.80557-0.27294 1.5674-0.57613 1.693-0.67376 0.94143-0.73185 3.1573-1.6945 4.4779-1.9453 0.9905-0.18813 1.8762-0.5098 2.5224-0.91605 0.54774-0.34436 1.8026-1.0435 2.7885-1.5535 3.2777-1.6958 4.0579-2.2133 5.2063-3.4535 1.5319-1.6543 2.1142-2.6189 3.0815-5.1041 0.44986-1.1559 1.4269-3.2668 2.1712-4.6909 1.5137-2.8961 2.8419-6.3454 3.2075-8.3296 0.19386-1.0521 0.18942-1.8377-0.02215-3.9128-0.22074-2.165-0.22032-3.0348 0.0025-5.2354 0.147-1.4515 0.27012-3.7147 0.2736-5.0293 0.0084-3.1441-0.31465-3.9386-2.0428-5.0252-2.6324-1.6551-4.1633-2.6663-5.2445-3.4642-0.9297-0.6861-1.3334-0.85392-2.2336-0.92857l-1.0988-0.09113-1.252 1.2427c-0.76701 0.76131-1.9078 1.602-2.945 2.1703-1.6314 0.89389-1.7184 0.97781-2.3901 2.3058-0.38342 0.75796-0.8749 1.4727-1.0922 1.5883-0.21729 0.11561-0.75506 0.44377-1.1951 0.72924-0.70543 0.45769-2.2938 0.94517-2.2938 0.70397 0-0.04933 0.39494-0.32114 0.87766-0.60403 0.77296-0.45299 2.11-2.151 2.11-2.6796 0-0.08933-0.56018-0.04683-1.2449 0.09446-0.68467 0.14129-1.785 0.25291-2.4452 0.24803-1.5063-0.01113-3.5127 0.7531-4.7179 1.7971-1.8767 1.6256-1.975 1.6642-3.8442 1.5085-2.0388-0.16984-2.0384-0.49204 6.23e-4 -0.49204h1.4682l2.1191-1.9766-0.69712-0.0091c-0.38342-5e-3 -1.2797-0.18704-1.9918-0.40446-0.80965-0.24722-1.8703-0.39588-2.8313-0.39683-1.3506-0.0013-1.5634-0.05157-1.7579-0.41495-0.20267-0.37868-0.18634-0.39474 0.19424-0.19106 0.26864 0.14377 0.93319 0.17546 1.8801 0.08965 1.1241-0.10187 1.7017-0.05399 2.4841 0.2059 0.85885 0.28527 1.2005 0.30332 2.1683 0.11454 1.4037-0.27382 3.4393-0.99031 3.4393-1.2106 0-0.28719-1.0686-0.9203-2.1541-1.2762-0.58222-0.1909-1.0304-0.37001-0.99588-0.39802 0.22973-0.18663 2.8105 0.31122 3.5364 0.68221 1.3116 0.67032 3.4138 0.51464 5.1905-0.38439 1.7891-0.90529 2.2947-1.2923 3.2239-2.4678 0.80355-1.0166 0.80452-1.0199 0.33463-1.1517-0.25919-0.07271-0.83591-0.14114-1.2816-0.15206-1.1067-0.02712-2.8053-0.55563-3.6603-1.1389-1.2032-0.82087-1.9388-0.91978-3.5065-0.47147-0.76062 0.21752-1.8762 0.39746-2.4791 0.39986-0.6581 0.0027-1.4431 0.16181-1.9644 0.39835-0.56135 0.25472-1.2654 0.38778-1.9918 0.37645l-1.1235-0.01753 1.3515-0.34806c1.7921-0.46153 1.9961-0.68072 1.2337-1.3259-0.90711-0.76766-1.6985-1.051-2.9354-1.051-1.4356 0-2.2963-0.40153-0.94448-0.44061 0.49296-0.01425 1.1204-0.09027 1.3942-0.16894l0.49794-0.14303-0.63743-0.33506c-0.39517-0.20772-1.1142-0.33771-1.8921-0.34209-0.69011-0.003883-1.4615-0.1218-1.7142-0.26204-0.39516-0.21929-0.15819-0.25315 1.693-0.24191 2.3519 0.01428 2.4683 0.05716 4.9129 1.8092 1.1615 0.83239 2.2127 0.9107 3.9637 0.29527 0.62336-0.2191 1.2701-0.39835 1.4371-0.39835 0.81305-1e-6 0.0096-0.77334-2.0498-1.9731-1.0403-0.60605-1.7205-1.188-2.3775-2.034-0.50616-0.65179-1.2037-1.3602-1.55-1.5742-0.71082-0.43931-3.3177-0.99148-4.6812-0.99154-0.7166-2.7e-5 -1.0467-0.12326-1.5934-0.59489l-0.6896-0.59486 0.95399 0.4085c1.757 0.75232 1.7951 0.40976 0.12362-1.111-0.84284-0.76683-1.5803-1.4962-1.6388-1.6209-0.17613-0.37543 1.6973 0.74083 2.574 1.5337 1.1 0.99484 1.4464 1.1587 3.1295 1.4807 0.79334 0.15179 1.6863 0.36868 1.9842 0.48198 0.50327 0.19134 0.54179 0.16927 0.54179-0.31046 0-0.51804-0.93564-1.6016-1.9918-2.3067l-0.49794-0.33242 0.61956 0.16659c1.6134 0.43382 2.3161 1.0999 2.9725 2.8177 0.72593 1.8997 1.6325 2.83 3.5706 3.6641 0.87214 0.37531 1.9824 0.97758 2.4672 1.3384 1.7678 1.3156 2.3265 1.5552 4.1452 1.7779 1.9838 0.24286 3.044 0.15836 5.5783-0.4446 1.3581-0.32313 2.2137-0.40119 3.7512-0.34224 1.9232 0.07374 2.0664 0.11215 4.1585 1.1155 1.1917 0.57153 2.3456 1.0391 2.5642 1.0391 0.35929 0 0.38882-0.10369 0.3078-1.0807-0.14248-1.7181-1.0919-3.3964-2.8969-5.1208-2.5027-2.3911-4.1772-2.8866-7.7662-2.2984-3.9747 0.65149-7.5938-0.60459-10.436-3.6221-1.9673-2.0884-3.4533-2.5004-5.822-1.6142l-1.1489 0.42987-1.7294-0.55621c-1.9014-0.6115-1.6928-0.8734 0.32133-0.40353l1.2432 0.29002 1.587-0.73013c0.87285-0.40157 1.5882-0.79424 1.5896-0.87259 0.0014-0.07835-0.27364-0.4571-0.61129-0.84167-0.75715-0.86235-1.5789-1.1041-3.768-1.1083-0.93115-0.0018-2.109-0.12952-2.6174-0.28383-0.52308-0.15876-1.2797-0.23291-1.7428-0.1708-0.49438 0.06631-0.81837 0.02948-0.81837-0.09303 0-0.11153 0.41787-0.26545 0.92861-0.34204l0.92861-0.13924-0.93323-0.60706c-0.51328-0.33388-1.3532-0.68552-1.8665-0.78141-1.3026-0.24335-1.6523-0.64654-0.40193-0.46338 1.0044 0.14714 1.1365 0.02283 0.65366-0.61549-0.59358-0.78479-0.27806-0.71469 0.64099 0.14241 1.6962 1.5818 3.9443 2.6038 4.9947 2.2704 0.3754-0.11915 0.35193-0.20382-0.40564-1.463-1.0707-1.7796-1.2318-1.9507-2.7965-2.9698-0.73944-0.48163-1.3444-0.91503-1.3444-0.96312 0-0.11506 2.1699 0.84552 2.7157 1.2022 0.23382 0.1528 0.77159 0.69973 1.1951 1.2154 1.7522 2.1338 2.312 2.5926 3.7376 3.0636 1.108 0.36608 1.5713 0.65748 2.3917 1.5045 0.63207 0.6526 1.4579 1.2453 2.1803 1.5648 0.63957 0.28285 1.7121 0.92716 2.3834 1.4318 1.618 1.2163 2.3887 1.5906 3.878 1.8836 1.1727 0.23071 3.9012 0.18279 4.157-0.073 0.06462-0.06461-0.15768-0.34903-0.494-0.63203-0.94154-0.79226-1.371-1.6483-1.6998-3.3878-0.5408-2.8614-0.81238-3.2463-3.6028-5.1062l-2.1638-1.4422-2.3099-0.1454c-2.674-0.16832-3.1041-0.30106-4.3664-1.3478-1.141-0.94609-1.4804-1.1239-3.1-1.6242-0.70251-0.21698-1.4878-0.58041-1.7451-0.80762-0.40887-0.36104-0.41763-0.39544-0.06949-0.2729 0.85546 0.30108 2.1628 0.68985 2.3199 0.68985 0.09086 0-0.33962-0.64982-0.95661-1.444-1.1189-1.4403-1.9986-3.066-1.7782-3.2864 0.06393-0.06393 0.11623-0.01699 0.11623 0.10431 0 0.1213 0.61883 0.88795 1.3752 1.7037 0.75634 0.81572 1.4732 1.6663 1.593 1.8902 0.11981 0.22387 0.50129 0.60887 0.84773 0.85556l0.62989 0.44852-0.12379-0.68364c-0.06808-0.376-0.18255-0.88531-0.25436-1.1318-0.26897-0.92317 0.28951-0.40486 0.91149 0.84593 0.35393 0.71174 0.95005 1.5632 1.3247 1.8922 0.64869 0.56956 0.76643 0.59811 2.4669 0.59811 0.98211 0 1.7857-0.07085 1.7857-0.15746 0-0.3204-1.1922-3.7713-1.7656-5.1106-0.68893-1.6092-1.9434-3.2643-3.2072-4.2313-0.48928-0.37439-1.0489-0.92222-1.2435-1.2174-0.38416-0.58252-0.47793-1.7328-0.1574-1.9309 0.11677-0.072169 0.19918 0.13792 0.19918 0.50778 0 0.49738 0.2002 0.81553 0.94609 1.5035 1.1362 1.0479 1.4367 1.095 1.4659 0.2295 0.02043-0.6059 0.03238-0.59392 0.18675 0.18721 0.14952 0.75658 1.4734 2.8112 1.8292 2.8389 0.08006 0.0062 0.09236-0.37689 0.02732-0.85139-0.08211-0.59911-0.02009-1.0526 0.20299-1.4839 0.17668-0.34166 0.32261-0.91695 0.32429-1.2784 0.0023-0.49761 0.04994-0.58466 0.19613-0.35845 0.25467 0.39407 0.25106 1.3235-7e-3 1.8057-0.14388 0.26885-0.14012 0.50869 0.01244 0.79376 0.12024 0.22468 0.27237 1.0496 0.33806 1.8332 0.10132 1.2085 0.22031 1.5568 0.78427 2.2956 0.36566 0.47904 0.66533 0.97615 0.66594 1.1047s0.09621 0.57617 0.21243 0.99473c0.37475 1.3496 1.3743 2.1955 4.2619 3.6071 3.2017 1.5651 3.9028 2.2553 5.0141 4.9364 0.52588 1.2687 1.041 2.1253 1.7347 2.8842 1.0976 1.2009 1.8646 1.6568 3.6205 2.1519 0.65399 0.18439 2.0061 0.81695 3.0046 1.4057 2.6109 1.5393 4.4823 1.8491 5.3537 0.88614 0.45175-0.49918 0.29592-1.6193-0.43212-3.1061-0.61358-1.2531-0.97035-1.609-2.5226-2.5162-0.88455-0.51701-1.2901-0.91397-1.693-1.6571-0.63918-1.1789-1.6207-1.7879-3.1977-1.9841-1.1472-0.1427-2.7822-0.61609-3.0727-0.88962-0.09001-0.08477 0.49259-0.11308 1.2946-0.06293l1.4583 0.09118-1.0955-1.0146c-0.60251-0.55802-1.4988-1.2531-1.9918-1.5447-1.2552-0.7424-1.5802-1.0508-2.0246-1.9216-0.57656-1.1297-0.35083-1.2833 0.3742-0.25472 0.56131 0.79634 1.867 1.7136 2.4392 1.7136 0.46817 0 0.17225-1.0333-0.51318-1.792-0.8853-0.97992-0.63048-1.0397 0.45853-0.10753 0.66983 0.57335 0.82317 0.84363 0.90859 1.6015 0.14481 1.2847 1.4486 2.585 3.2879 3.2791 0.51979 0.19614 1.1019 0.42191 1.2936 0.50171 0.30434 0.12668 0.34856 0.02099 0.34856-0.83312 0-0.74473-0.14262-1.2031-0.59753-1.9204-0.74637-1.1769-0.74504-1.2485 0.01272-0.6883 0.89598 0.66243 1.2974 1.4704 1.563 3.1459 0.13023 0.82161 0.36169 1.6846 0.51435 1.9178 0.15266 0.23319 1.122 0.82936 2.154 1.3248 1.4706 0.70601 2.0007 1.0765 2.4512 1.7129 0.6915 0.97702 0.98159 1.0271 1.1474 0.19815 0.31752-1.5876 0.15539-2.4552-0.70613-3.7784-0.4625-0.71035-1.0802-2.0651-1.3937-3.0569-0.64524-2.0409-1.201-2.9328-2.5213-4.0461-1.4709-1.2403-2.3789-1.5975-5.3663-2.1113-1.5251-0.26229-3.0032-0.6278-3.2847-0.81225-0.39907-0.26148-0.76785-0.30834-1.674-0.21272-0.75137 0.07929-1.479 0.0262-2.0585-0.15019l-0.8963-0.27283 1.2092-0.12998c0.66504-0.07149 1.4098-0.20419 1.6549-0.29488 0.41449-0.15333 0.35765-0.23333-0.81027-1.1403-0.92388-0.71745-1.5722-1.0479-2.4516-1.2494-2.0311-0.4654-5.6771-2.8746-5.6771-3.7513 0-0.085745 0.24648 0.075082 0.54774 0.35739 0.54748 0.51305 1.7464 1.1807 2.5868 1.4405 0.41424 0.12806 0.43681 0.09121 0.31981-0.52218-0.06924-0.36298-0.29846-1.0048-0.50939-1.4262-0.21092-0.42142-0.34148-0.80823-0.29013-0.85958 0.19741-0.19741 1.1486 1.3191 1.4375 2.2918 0.34786 1.1714 0.69794 1.4254 1.9645 1.4254 0.89559 0 0.9025-0.00517 0.70424-0.52661-0.31014-0.81573-1.3025-1.9694-2.3646-2.7491-0.86329-0.63371-1.608-1.6884-1.608-2.2773 0-0.11805 0.47375 0.25401 1.0528 0.82681 0.57902 0.5728 1.4365 1.3428 1.9054 1.7112s1.3321 1.4129 1.918 2.3212c1.1327 1.7558 2.4772 2.9546 4.0958 3.6517 0.96949 0.41759 3.526 0.94307 3.707 0.76199 0.06217-0.06217-0.03149-0.53719-0.20813-1.0556-0.42895-1.2589-0.40469-2.118 0.087014-3.0818 0.25198-0.49392 0.35895-0.96726 0.27954-1.2369-0.070754-0.24025-0.97908-1.2435-2.0185-2.2294-1.7617-1.671-1.8956-1.8534-1.9738-2.6889l-0.08397-0.8963 0.30274 0.79671c0.18373 0.48352 0.56656 0.96759 0.97388 1.2314l0.67114 0.4347 0.12342-0.77183c0.06788-0.42451 0.21974-0.83136 0.33746-0.90412 0.14775-0.091313 0.17208 0.14754 0.07856 0.77114-0.14693 0.97978 0.02808 1.5721 0.32571 1.1024 0.09418-0.14863 0.1726-0.48684 0.17428-0.75158 0.0052-0.81786 0.22314-0.31086 0.30511 0.70974 0.05921 0.73719 0.20148 1.0737 0.59932 1.4177 0.63269 0.54696 0.81928 0.4562 1.0841-0.52736 0.11206-0.41617 0.39858-0.92775 0.63672-1.1369 0.42733-0.37524 0.43102-0.375 0.28314 0.018164-0.0824 0.21909-0.22426 1.2947-0.31524 2.3901-0.09098 1.0955-0.29787 2.3993-0.45977 2.8974-0.24488 0.75341-0.25184 1.0292-0.04139 1.6414 0.4161 1.2104 0.88174 1.7514 1.8616 2.1628 2.244 0.94235 2.8371 1.26 3.3482 1.7935 0.299 0.31209 0.60794 0.56743 0.68653 0.56743 0.07859 0 0.42253-0.49547 0.76429-1.1011 0.46436-0.82281 0.90958-1.2819 1.7618-1.8169 0.62723-0.3937 1.2525-0.85646 1.3894-1.0284 0.46439-0.58301 0.29055-1.6792-0.44815-2.8257-0.58621-0.90989-0.69712-1.2606-0.69712-2.2044 0-0.81462-0.13652-1.3791-0.49794-2.0588-0.31751-0.59715-0.49245-1.2394-0.48279-1.7725l0.01515-0.83596 0.23382 0.61991c0.32233 0.85458 1.1802 2.066 1.4642 2.0676 0.12896 7.485e-4 0.51655-0.33475 0.86132-0.74555 0.57751-0.68812 0.61772-0.82923 0.51071-1.7926-0.094493-0.85072-0.060122-1.0457 0.18436-1.0457 0.17794 0 0.30175 0.18277 0.30355 0.44815 0.0016 0.24648 0.08707 0.58102 0.18975 0.74342 0.1559 0.24657 0.28681 0.19936 0.79366-0.28624 0.82935-0.79457 0.76666-0.33746-0.0952 0.69412-0.91463 1.0947-2.0776 3.0873-2.2213 3.8059-0.09137 0.45687 0.02349 0.71836 0.59189 1.3475 0.3879 0.42936 0.80753 0.97174 0.93253 1.2053 0.22673 0.42365 0.22919 0.42323 1.0516-0.18156 0.45336-0.33341 0.93878-0.6062 1.0787-0.6062 0.28147 0 0.86217-0.99947 0.86217-1.4839 0-0.16976 0.08963-0.30866 0.19918-0.30866 0.25931 0 0.25517 0.82269-0.0076 1.5139-0.11374 0.29916-0.67788 0.99963-1.2537 1.5566-0.7611 0.73624-1.1661 1.3389-1.4839 2.2077-0.26283 0.71871-0.77748 1.5622-1.2911 2.1162-0.60489 0.65236-0.98767 1.3285-1.3118 2.3174-0.64217 1.9588-0.42929 2.5869 1.6053 4.7363 1.743 1.8414 2.0396 2.4694 2.2558 4.7768 0.11687 1.2472 0.23923 1.6541 0.60842 2.0233 0.6028 0.6028 1.71 0.60486 2.7708 0.0052 0.8524-0.48191 3.8581-4.2462 4.4063-5.5183 0.5472-1.2699 1.2697-4.6605 1.2733-5.9753 0.0031-1.133-0.10082-1.4976-0.83181-2.9198l-0.83534-1.6252 0.53042-2.8111-0.6282-1.2761c-0.6376-1.2951-0.73726-1.9041-0.42903-2.6214 0.13972-0.32514 0.17375-0.26885 0.18518 0.30629 0.0093 0.46857 0.2044 0.93271 0.58231 1.3854l0.56831 0.68075 0.75415-1.1358c0.71649-1.0791 0.74646-1.1881 0.60017-2.1821-0.21918-1.4893-0.19522-2.0868 0.09788-2.4399 0.35402-0.42657 0.44914-0.25842 0.20986 0.37095-0.2007 0.52789 0.0641 1.5207 0.40562 1.5207 0.08399 0 0.42812-0.33413 0.76474-0.7425 0.78516-0.95254 0.78516-0.61922-1e-6 0.5397-0.68797 1.0155-0.50521 1.2301 0.51207 0.60139 0.90733-0.56076 0.90962-0.15874 0.0027 0.45759-0.64077 0.43541-2.4745 2.9363-2.5053 3.4168-0.0073 0.11468-0.0452 1.039-0.08411 2.054-0.06633 1.7303-0.03964 1.8825 0.42738 2.4375l0.49812 0.59199 0.65081-0.6449c0.35795-0.35469 1.0483-0.97014 1.534-1.3677 0.78659-0.6437 0.95879-0.94564 1.5743-2.7603 0.62413-1.8402 0.7827-2.1144 1.6372-2.8312 1.1609-0.97387 1.2641-0.60287 0.12254 0.44061-0.67524 0.61723-0.80104 0.84247-0.69858 1.2507 0.06873 0.27386-0.0088 0.87713-0.17234 1.3406-0.16352 0.46347-0.29731 0.88593-0.29731 0.93881 0 0.22924 1.1309-0.22374 2.6467-1.0601l1.6356-0.90253-0.8963 0.9205c-0.52714 0.54137-1.4743 1.1957-2.2996 1.5887-1.5926 0.75835-2.8934 2.0257-3.5102 3.4201-0.43987 0.9944-0.68404 2.7507-0.48994 3.524l0.12598 0.50195 1.0453-0.69494c0.57493-0.38222 1.5413-1.2051 2.1476-1.8287 0.89396-0.91952 1.3644-1.2245 2.4897-1.6143 1.7387-0.60215 2.1991-0.89987 2.9105-1.8819 0.51781-0.71482 0.56832-0.93353 0.56832-2.4608 0-1.7625 0.10835-2.1037 1.0355-3.2608 0.31485-0.39295 0.62685-1.0497 0.69334-1.4594 0.08244-0.50803 0.17418-0.66087 0.28846-0.4806 0.30386 0.47929 0.18114 1.0439-0.53368 2.4553-0.7023 1.3867-0.75213 1.816-0.36412 3.1369 0.16284 0.55436 0.83775 0.063978 1.2565-0.91298 0.19689-0.45942 0.52149-0.96849 0.72128-1.1313 0.33309-0.27136 0.34956-0.26285 0.19822 0.10241-0.09078 0.2191-0.21012 0.66362-0.2652 0.98782-0.09854 0.57999-0.09248 0.58453 0.37673 0.28193 0.26228-0.16915 0.92503-0.56161 1.4728-0.87214 0.54774-0.31053 1.1527-0.69777 1.3444-0.86053s0.34856-0.20918 0.34856-0.10315c0 0.43609-2.403 2.2644-4.0925 3.1137-0.73823 0.37112-1.1872 0.78768-1.6901 1.5682-0.37665 0.58454-0.75736 1.174-0.84602 1.31-0.12552 0.19248 0.18238 0.2231 1.3913 0.13835l1.5525-0.10884-1.0955 0.42419c-0.60251 0.2333-1.7677 0.57837-2.5893 0.76682-2.2202 0.50924-2.9579 0.94478-3.8687 2.2842-0.43484 0.63944-1.1673 1.4218-1.6277 1.7385-0.95926 0.65999-1.8144 1.6837-2.4848 2.9746-0.35062 0.67513-0.46774 1.2322-0.47465 2.2575-0.0086 1.2651 0.03228 1.3969 0.57754 1.8664 0.53551 0.46104 0.70516 0.49665 1.9438 0.40803 2.7487-0.19667 5.1731-2.019 6.6649-5.0097 0.90369-1.8117 1.4601-2.3958 3.054-3.2058 1.5869-0.8065 1.9284-1.1782 2.8806-3.1357 0.88697-1.8235 1.9556-3.1001 3.2105-3.8356 1.317-0.77179 1.2882-0.48678-0.05376 0.53323-0.63512 0.48274-1.3556 1.2322-1.601 1.6655-0.38464 0.67904-1.0503 2.5659-1.0503 2.9772 0 0.15927 1.4064-0.03694 2.3403-0.3265 0.3849-0.11934 0.65087-0.33574 0.65607-0.53382 0.02259-0.86086 1.42-3.4522 1.707-3.1653 0.04514 0.04514-0.1467 0.68984-0.4263 1.4327s-0.46474 1.3942-0.41142 1.4476c0.18166 0.18166 1.6089-0.81079 2.8393-1.9744 1.1931-1.1282 1.7893-1.5194 1.2385-0.81236-2.1821 2.8005-4.102 4.2391-6.5971 4.9432-1.2521 0.35331-1.7717 0.61922-2.4168 1.2366-0.45195 0.43258-1.1974 0.99163-1.6565 1.2423-0.87241 0.47634-0.92678 0.56186-2.4077 3.7873-1.3863 3.0192-2.9516 4.3569-7.0893 6.0581-1.8193 0.74797-3.6907 1.9006-4.4286 2.7277-0.59356 0.66524-1.9307 2.6974-2.4719 3.7568-0.62171 1.217-0.77297 3.4577-0.31447 4.6582 0.50531 1.3231 0.89527 1.5838 2.2067 1.475 1.3097-0.10861 2.5181-0.87678 5.9663-3.7929 2.1085-1.7831 2.2111-1.9077 3.1868-3.8721 1.2305-2.4772 1.6441-2.9409 3.2988-3.6984 2.0135-0.9218 2.2983-1.1936 2.8994-2.7667 0.65781-1.7215 1.4588-2.5681 3.4548-3.652 1.7809-0.96701 2.3444-1.6219 3.0655-3.5633 0.36964-0.99515 0.76243-1.6713 1.1703-2.0145 0.78149-0.65759 0.97271-0.48326 0.36762 0.33516-0.28578 0.38654-0.5036 1.0152-0.56186 1.6215l-0.09515 0.99026 0.58116-0.11623c1.2403-0.24806 2.9535-1.0208 3.5788-1.6141 0.36011-0.34171 0.87298-1.0246 1.1397-1.5176 0.29471-0.54469 0.78738-1.0708 1.2559-1.3412 1.0522-0.60715 1.2845-0.56433 0.52249 0.09631-0.68091 0.59035-1.7066 2.3763-1.5293 2.663 0.05957 0.09638 0.30468 0.1845 0.54469 0.19582 0.26766 0.01262 0.13167 0.10105-0.35172 0.22871-0.43346 0.11447-1.3572 0.59772-2.0527 1.0739-0.69552 0.47617-1.5061 0.92435-1.8012 0.99595-1.0164 0.24659-2.5858 1.0269-2.7864 1.3854-0.1106 0.19763-1.034 0.99278-2.052 1.767-1.6818 1.2791-2.9021 2.692-2.9525 3.4184-0.02385 0.34397 3.8134 0.45418 5.2951 0.15208 1.6982-0.34625 2.3565-0.7349 3.1755-1.8749 0.58058-0.80813 0.9159-1.0589 1.892-1.4148 0.8566-0.31233 1.3567-0.64763 1.7992-1.2063 0.64024-0.80837 1.4934-1.3595 2.1036-1.359 0.21635 1.86e-4 0.08209 0.13836-0.33867 0.34856-0.45743 0.22851-0.86832 0.67493-1.1951 1.2984-0.41389 0.78974-0.7124 1.0582-1.7684 1.5905-2.123 1.0701-2.154 2.056-0.06355 2.022 0.87765-0.01431 1.4722-0.1836 2.6231-0.74692 0.81851-0.40062 1.7148-0.71948 1.9918-0.70856 0.44072 0.01738 0.45385 0.03641 0.10521 0.15246-0.89629 0.29836-2.4897 1.082-2.4897 1.2245 0 0.08397 0.40333 0.27176 0.8963 0.41731 0.49296 0.14556 0.8963 0.33642 0.8963 0.42413 0 0.08772-0.24648 0.09056-0.54774 0.0063-0.30126-0.08424-1.0407-0.1307-1.6432-0.10323-0.60251 0.02747-1.8812 0.0496-2.8415 0.04918-1.6651-7.4e-4 -1.8219 0.03846-3.386 0.84635l-1.64 0.84712-2.3901 0.0094c-3.1992 0.01251-3.1785 0.0091-3.9268 0.65519-0.35984 0.31072-1.1361 0.82408-1.725 1.1408-1.338 0.71957-1.5398 1.0456-1.7028 2.752-0.15861 1.6602-0.52833 2.6016-1.3587 3.4595l-0.62651 0.64732h0.90027c0.49515 0 1.6489 0.22408 2.5639 0.49794 1.9097 0.5716 3.1497 0.63038 4.0019 0.18969 2.4775-1.2812 5.0286-3.5354 5.2864-4.6712 0.34705-1.5292 0.53769-2.0095 1.2649-3.1868 0.8408-1.3612 1.105-1.1783 0.3712 0.25691-0.44356 0.86758-0.95901 2.5688-0.96314 3.1789-0.0032 0.47006 0.69051 0.45239 1.1728-0.02987 0.20814-0.20814 0.51855-0.86044 0.68982-1.4496 0.18812-0.64713 0.55081-1.3005 0.91622-1.6506 0.73502-0.7042 0.77058-0.5677 0.10689 0.41031-0.27387 0.40357-0.49794 0.89829-0.49794 1.0994 0 0.56713 0.90613 0.137 2.0651-0.98029 0.64027-0.61724 0.88638-0.77277 0.72452-0.45787-0.35057 0.68205-1.7658 2.1763-2.1882 2.3104-0.19675 0.06244-0.58302 0.45398-0.85837 0.87007-0.3891 0.58797-0.77014 0.8548-1.7102 1.1975-1.1444 0.41726-1.9246 1.0844-1.6976 1.4517 0.14799 0.23945 3.219 0.20607 3.6788-0.03999 0.21242-0.11369 0.81903-0.75471 1.348-1.4245 0.85761-1.0859 1.152-1.2998 2.7182-1.9747 1.9405-0.83624 1.9633-0.68685 0.06289 0.41198-0.8065 0.46632-1.5372 1.1017-2.0781 1.8072-0.98746 1.2877-0.85996 1.3889 1.1073 0.87863 0.95462-0.2476 1.5598-0.2991 2.1193-0.18038l0.78322 0.16616-0.99588 0.12064c-0.54774 0.06636-1.2648 0.26306-1.5934 0.43714-1.0589 0.56089-3.9211 1.1227-6.3369 1.244-2.5859 0.12976-3.048 0.2874-4.1199 1.4056-1.5499 1.6169-2.7279 1.911-5.5657 1.3894-2.0247-0.37209-3.3901-0.31395-5.1775 0.22045-0.8982 0.26854-1.3928 0.62288-2.8965 2.075-1.4704 1.42-2.1885 1.9399-3.7967 2.7491-2.6317 1.3241-2.9792 3.2958-2.9792 3.2958l0.37586 4.4471s-0.97339 6.8697-0.97339 9.1554v2.0165l2.3634 4.6793-0.26009 1.42c-0.52884 2.8873-0.50933 3.4964 0.16595 5.1829 0.39164 0.97808 0.61882 1.8963 0.61882 2.5012 0 0.52569 0.13091 1.3268 0.29091 1.7803 0.68691 1.9469 3.5404 5.5247 5.459 6.8448 0.49046 0.33745 1.8842 1.0522 3.0971 1.5884 1.2408 0.54849 2.9317 1.5026 3.866 2.1814 1.7137 1.2451 3.397 1.9832 5.3432 2.343 0.61627 0.11392 1.6642 0.47881 2.3286 0.81085 1.2713 0.63527 4.4728 1.388 5.9377 1.396 0.47576 0.0027 1.2235 0.0989 1.6617 0.21396 0.43819 0.11506 1.6482 0.35555 2.6889 0.53442l1.8922 0.32522-1.3942 0.17197c-1.4097 0.17387-10.353 0.04404-12.101-0.17568-0.78144-0.09821-0.92794-0.06793-0.83558 0.17276 0.07744 0.20182-0.06193 0.32665-0.45179 0.40462-0.65845 0.13165-4.0497-0.14405-5.6325-0.45796-0.60251-0.11949-2.0366-0.29658-3.1868-0.39355-1.4743-0.12428-2.6009-0.35656-3.8182-0.78719-2.0642-0.73023-2.9538-0.7954-2.9538-0.21638 0 0.42148 1.7122 3.1233 2.5626 4.0437l0.51203 0.55426-0.82134-0.28979c-0.45174-0.15938-1.8041-0.79041-3.0052-1.4023-2.0837-1.0614-4.6663-1.9062-5.8277-1.9062-0.29734 0-0.91968-0.13374-1.383-0.2972-2.4694-0.87124-6.4642-0.77106-8.8678 0.22239-0.65728 0.27167-1.7192 0.57332-2.3597 0.67034-0.8825 0.13367-1.5339 0.4176-2.6889 1.172-1.2635 0.82531-3.3041 1.8176-3.7379 1.8176-0.05915 0 0.3475-0.86437 0.90367-1.9208zm12.738-44.373c0.12302-0.48856 0.23075-1.1847 0.2394-1.547 0.0155-0.64934 0.01998-0.64595 0.31454 0.23758 0.16435 0.49296 0.33864 1.0212 0.38732 1.1738 0.04868 0.15262 0.13523 0.23074 0.19235 0.17362 0.24823-0.24823 1.0818-2.8528 1.0818-3.3802 0-0.33598 0.08381-0.52825 0.19918-0.45695 0.10955 0.0677 0.19918 0.35682 0.19918 0.64248 0 0.78634 0.26094 0.36224 0.55679-0.90495 0.39583-1.6954 0.49528-2.5738 0.35477-3.1336-0.16335-0.65085-0.51321-0.43707-0.51321 0.3136 0 0.36315-0.13987 0.65363-0.37544 0.7797-0.20649 0.11051-0.43228 0.42737-0.50174 0.70413-0.16126 0.6425-0.4383 0.64493-0.59885 0.0053-0.2041-0.81321-0.4734-0.57521-0.84514 0.74692-0.34387 1.223-0.35241 1.2332-0.48686 0.57908-0.2706-1.3164-0.72219-1.3103-1.4002 0.01869l-0.41818 0.81971-0.32588-0.98261c-0.17924-0.54043-0.39875-0.98261-0.48782-0.98261-0.17309 0-0.61818 0.7392-0.83952 1.3942-0.10923 0.32328-0.21088 0.20128-0.53934-0.64732-0.22261-0.57512-0.47346-1.0457-0.55746-1.0457-0.08399 0-0.23546 0.33611-0.3366 0.74692l-0.18388 0.74691-0.45796-1.0457c-0.25188-0.57512-0.50427-1.0457-0.56086-1.0457-0.0566 0-0.20579 0.14072-0.33156 0.31271-0.19386 0.26512-0.29784 0.1742-0.68326-0.59753-0.25003-0.50063-0.50566-0.91024-0.56808-0.91024-0.06241 0-0.06189 0.49991 0.0012 1.1109 0.11853 1.1485 0.61211 2.1771 0.94571 1.9709 0.10474-0.06473 0.19549 0.13408 0.20167 0.4418 0.01743 0.86727 0.45422 1.9537 0.78546 1.9537 0.18403 0 0.41532 0.37667 0.60229 0.98088 0.36666 1.1849 0.78335 1.4311 0.8118 0.47976 0.02595-0.86803 0.26427-1.7089 0.41338-1.4586 0.0646 0.10844 0.17857 0.48227 0.25327 0.83073 0.0747 0.34846 0.2645 0.74036 0.42178 0.87089 0.15728 0.13053 0.28596 0.40561 0.28596 0.61129 0 0.56793 0.37252 0.44666 0.52774-0.1718 0.12502-0.49811 0.50716-1.0477 0.72852-1.0477 0.04931 0 0.20518 0.2913 0.34637 0.64733 0.55092 1.3891 0.82399 1.4043 1.1613 0.06457zm-4.1538-9.9779c0.71965-0.68946 0.74447-0.89208 0.1093-0.89208-0.339 0-1.0588-0.55148-2.4047-1.8424-2.1701-2.0814-2.2882-2.1858-1.8949-1.6741 0.20085 0.26127 0.26714 0.81813 0.22935 1.9266-0.0843 2.4729 0.49082 3.2477 2.3177 3.1223 0.82532-0.05666 1.177-0.19372 1.6432-0.64034zm5.6095 0.09687c1.0841-0.30111 1.7559-1.2003 1.7545-2.3487-6.11e-4 -0.51195-0.09672-1.2751-0.21357-1.6959-0.17409-0.62696-0.15591-0.82761 0.1007-1.1112 0.43036-0.47554 0.39265-0.66999-0.0808-0.41661-0.21668 0.11596-0.87336 0.85856-1.4593 1.6502-1.1708 1.5818-2.3722 2.734-2.8509 2.734-0.54975 0-0.17782 0.48669 0.72301 0.94609 1.0055 0.5128 1.0377 0.51664 2.0264 0.24203z"/></svg>
