<svg width="100" height="100" version="1.1" viewBox="0 0 100 100" xml:space="preserve" xmlns="http://www.w3.org/2000/svg"><path d="m13.184 99.749c-1.1816-0.08417-3.7305-0.10718-5.6641-0.05114l-3.5156 0.1019 0.97656-0.49329c1.9927-1.0066 3.653-1.4723 6.197-1.7385 1.7474-0.1828 2.6611-0.36865 3.0345-0.61718 0.4298-0.28612 0.4694-0.3689 0.20265-0.42354-0.18236-0.03735-0.51948 0.03265-0.74915 0.15557-0.7594 0.40642-0.62985 0.03543 0.17321-0.49602l0.7885-0.5218 1.1337 0.38477c0.62355 0.21162 1.5952 0.44288 2.1593 0.51392 0.96621 0.12168 1.1301 0.07349 2.832-0.83275 0.99356-0.52905 2.2797-1.071 2.8582-1.2044 1.0077-0.23237 3.0453-0.17248 3.7847 0.11125 0.29332 0.11256 0.33992 0.0015 0.34326-0.8184 0.0063-1.5546 0.36138-3.5512 0.776-4.3639 0.21362-0.41873 0.6981-0.99754 1.0766-1.2863 1.1997-0.91507 2.7871-0.4064 3.7248 1.1936 0.27984 0.47751 0.53109 1.276 0.59046 1.8766 0.21002 2.1243 0.14139 2.0755 1.4037 0.99933 1.8109-1.5438 2.1404-1.7562 3.5759-2.3047 0.90098-0.34428 1.5102-0.71547 1.7855-1.0879 0.29255-0.3957 0.58651-0.56525 0.97996-0.56525 0.91961 0 1.2583-0.31467 2.1186-1.9682 0.52266-1.0046 1.0985-1.7979 1.5933-2.1951 1.7606-1.413 2.247-1.9204 2.7865-2.9064 0.47988-0.87713 0.56781-1.2603 0.57384-2.5007 0.0061-1.2529-0.07038-1.5967-0.52861-2.3762-0.61217-1.0414-1.7594-2.0943-3.1752-2.9141-1.2543-0.72628-1.7483-0.75157-1.58-0.08086 0.16928 0.67446 0.03084 0.6111-0.45169-0.20674-0.22554-0.38226-0.49789-0.64075-0.60523-0.57441-0.29921 0.18492-0.23208 1.2166 0.12453 1.9139 0.31503 0.61596 0.31413 0.62012-0.06207 0.2852-0.99521-0.88599-1.7195-3.6539-1.3458-5.143 0.07398-0.29478 0.71256-1.1347 1.4191-1.8665 1.2091-1.2525 1.2787-1.3739 1.185-2.0687-0.33228-2.464-2.8684-4.9016-7.6334-7.3369-1.9805-1.0122-3.2271-1.1595-4.519-0.5341-0.98558 0.47711-1.5443 1.197-2.7319 3.5195-0.8909 1.7424-2.2668 3.8735-2.8297 4.3829-0.44754 0.40502-0.5096 0.89436-0.19507 1.5382 0.18909 0.38704 0.17356 0.38338-0.16736-0.03941-0.20668-0.25631-0.42901-0.3799-0.49407-0.27464-0.20611 0.3335 0.2416 1.5453 0.78702 2.1302 0.70346 0.75434 1.4621 2.203 1.3579 2.5929-0.05798 0.21692-0.09108 0.18556-0.10671-0.1011-0.01246-0.22855-0.15957-0.52917-0.32691-0.66805-0.16734-0.13888-0.42653-0.54515-0.57597-0.90282-0.32985-0.78944-0.72483-0.82522-1.7112-0.15499-0.80959 0.55013-1.0104 0.27061-0.24065-0.3349 0.61954-0.48733 0.61559-1.0001-0.01747-2.2705-0.64778-1.2999-1.0448-1.3197-1.748-0.08718-0.59757 1.0474-0.67363 1.9532-0.29585 3.5235 0.19913 0.82773 0.4969 1.3039 1.4967 2.3934 0.99927 1.0889 1.248 1.4865 1.2474 1.994-0.0015 1.2866-1.2462 2.5228-2.4798 2.4628-0.52195-0.02539-0.52461-0.03024-0.05853-0.10674 1.4553-0.23885 2.1875-0.96758 2.1875-2.177 0-0.60562-0.16056-0.85242-1.1697-1.7979-1.0177-0.95353-1.2016-1.2385-1.4152-2.193l-0.24551-1.0971-0.63454 0.48399c-0.62814 0.47911-0.91561 1.0035-1.1616 2.119-0.08972 0.40691-0.17403 0.49958-0.28749 0.31599-0.19719-0.31906-0.41589 0.26397-0.44188 1.178-0.01157 0.40678-0.06807 0.5147-0.17213 0.32875-0.0852-0.15225-0.03639-0.95936 0.10847-1.7936 0.20176-1.1619 0.40525-1.6933 0.86969-2.2712 0.76223-0.94849 0.9951-1.5579 0.9951-2.6042 0-0.99534-0.2582-1.2959-1.1133-1.2959-0.35449 0-0.64453-0.09225-0.64453-0.20501 0-0.46714 0.63719-1.3866 1.0767-1.5538 0.4571-0.17379 0.463-0.20119 0.18596-0.86424-0.15736-0.37661-0.28611-0.9073-0.28611-1.1793 0-0.45705-0.06769-0.49456-0.89254-0.49456-0.97715 0-1.703 0.42051-3.502 2.0287l-0.97656 0.873 0.33926 0.55112c1.6254 2.6404 1.8878 4.4033 1.0308 6.9252-0.47666 1.4027-0.50795 1.6537-0.30606 2.4555 0.12368 0.49119 0.69478 1.6938 1.2691 2.6724 1.2728 2.1688 1.473 2.8558 1.4744 5.0605 7.6e-4 1.1993 0.09713 1.9076 0.3189 2.3438 0.41898 0.82404 0.35288 0.7771 1.2971 0.9212 0.77179 0.11778 0.79188 0.13592 0.30374 0.27435-0.65161 0.18478-1.4471-0.18122-1.9909-0.91607-0.31589-0.42682-0.42647-0.96234-0.52426-2.5391-0.14682-2.3671-0.39526-3.1271-1.6864-5.1584-1.663-2.6165-1.9474-3.7416-1.2008-4.7513 0.58214-0.78739 0.76156-3.4613 0.28142-4.1941-0.38507-0.58769-0.70397-0.63777-0.70397-0.11054 0 0.81648-0.43872 1.3743-1.2525 1.5925-0.43904 0.11774-1.1835 0.34446-1.6543 0.50381-0.82654 0.27974-2.0512 0.26672-3.4437-0.03661-0.73163-0.15937-1.5214 0.40334-2.0072 1.4302-0.57697 1.2194-1.8478 1.577-2.1572 0.60689-0.058772-0.18428 0.057221-0.14917 0.3416 0.1034 0.56051 0.49779 0.9251 0.2781 1.61-0.97015 0.84812-1.5457 1.1511-1.6983 3.1091-1.5667 1.5438 0.10376 1.7041 0.0797 2.0508-0.30781 0.20684-0.2312 0.74343-0.57898 1.1924-0.77285 1.0619-0.45853 1.265-0.88447 1.2326-2.5858-0.01471-0.77308-0.02031-1.6005-0.01245-1.8387 0.0095-0.28802 0.37738-0.70726 1.0981-1.2514 1.4234-1.0747 1.6436-1.4762 0.95365-1.7386-0.41348-0.1572-0.47198-0.25139-0.29134-0.46905 0.165-0.19881 0.1673-0.30864 0.0085-0.40678-0.15108-0.09337-0.12224-0.23971 0.09441-0.47912 0.28858-0.31888 0.27485-0.36898-0.18342-0.66925-1.2285-0.80494-2.3794-0.64441-2.9351 0.40938-0.58519 1.1098-2.4607 2.9023-2.961 2.83-0.30609-0.04422-0.46312 0.089-0.61354 0.52051-0.11119 0.31896-0.15075 0.63135-0.087905 0.69419 0.062843 0.06284 0.011721 0.11426-0.1136 0.11426-0.12533 0-0.22786 0.17059-0.22786 0.3791s-0.094102 0.43726-0.20912 0.50834c-0.14633 0.09044-0.16485-0.30192-0.061678-1.3068 0.081091-0.78984 0.15008-1.5899 0.15331-1.7779 0.00451-0.26231 0.17243-0.3418 0.72209-0.3418 0.79019 0 1.1904-0.40578 2.1905-2.2209l0.52418-0.95139-0.56701-0.64579c-0.31186-0.35518-0.61459-0.59821-0.67274-0.54006-0.05815 0.05815-0.0884-0.395-0.06722-1.007 0.03462-1.0004-0.01679-1.1604-0.50949-1.5847-0.40444-0.34835-0.77876-0.472-1.4289-0.472-1.5524 0-2.2402 0.78641-1.0505 1.2011 0.32227 0.11234 0.58594 0.28355 0.58594 0.38046 0 0.3433-1.1143 0.17294-1.4749-0.22548-0.26375-0.29144-0.49988-0.36806-0.86035-0.27915-0.74013 0.18255-0.84079 0.36734-0.62527 1.1479 0.1077 0.39005 0.12599 0.66602 0.040649 0.61328-0.08534-0.05274-0.31588-0.71554-0.51231-1.4729-0.27597-1.064-0.42392-1.3514-0.65094-1.2642-0.16159 0.06201-0.6533 0.16202-1.0927 0.22224-0.67305 0.09225-0.89712 0.02684-1.4225-0.41524-0.61673-0.51894-1.5336-1.6658-1.3317-1.6658 0.05744 0 0.54976 0.39551 1.094 0.87891 0.54428 0.4834 1.1493 0.87891 1.3446 0.87891 0.65687 0 1.68-0.45916 2.0388-0.91492 0.19578-0.24875 0.48142-0.45227 0.63476-0.45227 0.35065 0 0.34947 0.10119-0.00751 0.64602-0.32915 0.50234-0.19317 1.3071 0.22087 1.3071 0.26596 0 1.0193-0.34065 2.3115-1.0453 0.32227-0.17572 0.71447-0.32004 0.87156-0.3207 0.16218-6.83e-4 -0.13326-0.43255-0.68359-0.99927-0.92195-0.94938-0.93724-0.98195-0.31342-0.6677 0.36069 0.1817 1.0241 0.69674 1.4743 1.1445 0.4502 0.4478 1.0567 0.93928 1.3477 1.0922 0.36761 0.19311 0.58908 0.52112 0.72527 1.0742 0.10784 0.43792 0.28643 1.1258 0.39688 1.5286l0.20081 0.73242h1.1238c0.9431 1e-6 1.2952 0.10784 2.1894 0.67053 0.58607 0.36879 1.4232 0.89518 1.8604 1.1697 0.58138 0.36517 1.1376 0.52078 2.0717 0.57955 1.4942 0.09401 2.1295 0.3899 3.1643 1.4737 0.43856 0.45933 1.0868 0.89193 1.5401 1.0277 0.7515 0.22515 0.80057 0.21223 1.2275-0.32316 0.24458-0.30673 0.58821-1.0493 0.76363-1.6502 0.17542-0.60087 0.57863-1.6287 0.89603-2.2841 0.6445-1.3309 0.68931-1.7128 0.28412-2.4216-0.15352-0.26856-0.28224-0.67081-0.28605-0.89391-0.0058-0.34187 0.08648-0.39192 0.58728-0.31842 0.82878 0.12164 2.3024-0.47079 3.129-1.258 0.38274-0.36446 0.76331-0.59495 0.84571-0.5122 0.0824 0.08275 1.0876 0.19844 2.2338 0.25708 1.8055 0.09237 2.3189 0.20201 3.8418 0.82034 0.9668 0.39254 2.0884 0.77202 2.4925 0.84327l0.73467 0.12956-0.868-1.4078c-0.53345-0.86523-1.1472-2.2852-1.5925-3.6843-0.8814-2.7694-1.6176-4.2252-2.6428-5.2263-0.94374-0.92154-1.1423-0.74963-1.1512 0.99675-0.0033 0.64453-0.09963 1.3037-0.2141 1.4648-0.16141 0.22721-0.18289 0.1767-0.09573-0.22506 0.06181-0.28492 0.05765-0.7917-0.0092-1.1262-0.19818-0.9909-0.58325-0.39589-1.0409 1.6085-0.37586 1.646-0.77793 2.7416-0.78545 2.1402-0.0022-0.17838-0.1354-0.18896-0.52305-0.04158-0.36642 0.13931-0.84247 0.12508-1.6113-0.04816-0.6002-0.13524-1.2011-0.23616-1.3354-0.22426-0.13428 0.01189-0.24414-0.05867-0.24414-0.15682 0-0.21072-0.70092-0.50651-2.0508-0.86543l-0.97656-0.25966 1.2597 0.0387 1.2597 0.03871 0.18799-0.64654c0.15844-0.54488 0.12498-0.70955-0.21279-1.0473l-0.40079-0.40079 0.6133-0.55828c0.53299-0.48518 0.56215-0.55865 0.22267-0.56112-0.8773-0.0064-2.9523 0.62197-3.3849 1.025-0.25457 0.23717-0.83765 1.0088-1.2957 1.7148-0.55643 0.85752-1.0621 1.3923-1.5236 1.6113-0.85504 0.40574-0.94338 0.40567-1.797-0.0014-0.68499-0.32665-1.0036-0.82324-0.34842-0.54304 0.65737 0.28113 1.3745 0.32218 1.7856 0.1022 0.22794-0.12199 0.71304-0.81164 1.078-1.5325s0.91366-1.5435 1.2193-1.8279c0.72827-0.67774 1.8382-1.3366 2.2532-1.3375 0.61836-0.0014 0.5631-0.37422-0.17715-1.1952-0.73816-0.81866-2.7301-1.9274-3.4734-1.9334-0.21484-0.0017-0.52246-0.08834-0.68359-0.19248-0.37106-0.2398-0.18903-0.23888 1.3239 0.0066 1.4892 0.24167 3.117 0.98413 3.8616 1.7614 0.68474 0.71472 1.1123 0.72724 1.6464 0.0482 0.32284-0.41043 0.40187-0.74406 0.35597-1.5027-0.05749-0.95018-0.04274-0.97992 0.57576-1.1609 0.34912-0.10213 0.63477-0.25197 0.63477-0.33298 0-0.08101-0.79534-0.55806-1.7674-1.0601l-1.7674-0.91284-1.5603 1.6885 0.40691-0.962c0.2238-0.5291 0.36224-1.0784 0.30764-1.2207-0.14117-0.36788-0.89926-0.3202-1.8933 0.11906-0.4702 0.20777-1.3068 0.43756-1.8591 0.51064-0.80565 0.1066-1.047 0.22682-1.2207 0.60799-0.28966 0.63572-0.27771 0.79644 0.15721 2.1148 0.20553 0.62299 0.326 1.257 0.26771 1.4089-0.15768 0.4109-1.0301-1.87-1.0311-2.6959-1e-3 -0.8163 0.34802-1.9334 0.60414-1.9334 0.09691 0 0.17621-0.08789 0.17621-0.19531 0-0.11368-0.64309-0.19531-1.5386-0.19531-0.89077 0-1.8195-0.11734-2.2056-0.27868l-0.66696-0.27868 0.07447 1.2064c0.06686 1.083 0.01777 1.2815-0.47994 1.9406-0.48948 0.64818-0.62849 0.72154-1.1869 0.62634-0.55632-0.09484-0.68075-0.03035-1.033 0.53537-0.28561 0.45873-0.36432 0.81124-0.27443 1.2291 0.14906 0.69304 0.28602 3.1087 0.14396 2.5391-0.17668-0.70841-0.38159-0.70998-1.2202-0.0094-1.1944 0.9979-1.1885 0.85252 0.01006-0.24961l1.0251-0.94257-0.25338-0.90497c-0.42402-1.5145 0.20227-2.7542 1.5104-2.9898 1.3362-0.24065 1.4156-0.48004 0.90074-2.7162-0.77005-3.3446-0.81661-3.418-2.1696-3.418-1.0393 0-2.0304 0.5327-2.3675 1.2725-0.12688 0.27847-0.56693 0.64912-0.99122 0.83488-0.45331 0.19847-1.0931 0.75469-1.5763 1.3703-1.1303 1.4403-1.7787 1.7942-3.2888 1.7951-0.77192 4.57e-4 -1.1871-0.07223-1.1115-0.19458 0.06639-0.10742 0.62822-0.19531 1.2485-0.19531 1.0009 0 1.2139-0.07441 1.8928-0.66146 0.71686-0.61987 0.76242-0.72324 0.72449-1.644-0.038622-0.93759-0.012735-0.99217 0.56625-1.194 0.3337-0.11633 0.89485-0.21151 1.247-0.21151 0.68632 0 1.0443-0.33384 1.7341-1.6171 0.3776-0.70251 0.37765-0.71864 0.0051-1.4509-0.57375-1.1278-0.56272-1.1845 0.09443-0.48539 0.33386 0.35518 0.65841 0.90271 0.72122 1.2167 0.1131 0.56549 0.12615 0.57054 1.3583 0.5261 1.1848-0.04274 1.4857-0.16769 1.051-0.43636-0.10819-0.06686-0.33682-0.40164-0.50807-0.74395l-0.31137-0.62238 0.70953 0.693c0.42234 0.4125 0.93134 1.2426 1.2575 2.0508 0.7294 1.8072 1.3389 2.2385 3.1267 2.2124 0.90572-0.01323 1.5277-0.14162 2.0747-0.42829 0.62982-0.33004 1.1598-0.41375 2.7344-0.43187 1.7285-0.01989 3.0273-0.26824 3.0273-0.57886 0-0.05818-0.37354-0.47783-0.83008-0.93257-0.45654-0.45474-0.9798-1.1124-1.1628-1.4616-0.49292-0.94042-1.0479-0.84022-2.4942 0.4503-1.1302 1.0085-1.2457 1.0657-1.636 0.81107-0.23095-0.1507-0.59823-0.61052-0.81616-1.0218-0.46106-0.87016-0.68047-0.97973-1.4351-0.71666l-0.55352 0.19296-0.63046-2.2525c-0.34675-1.2389-0.67426-2.3944-0.7278-2.5679-0.07894-0.25579-0.0427-0.24887 0.19173 0.03659 0.15899 0.1936 0.5159 1.0795 0.79314 1.9687 0.50162 1.6089 0.50698 1.6163 1.1035 1.5287 0.51576-0.0757 0.71808 0.04126 1.4495 0.83797 0.46756 0.50927 0.93603 0.87285 1.041 0.80796 0.105-0.0649 0.34518-0.44308 0.53373-0.84041 0.33484-0.70563 0.33331-0.7301-0.06595-1.0534-0.22482-0.18205-0.81804-0.93504-1.3183-1.6733-1.0075-1.487-1.7578-2.3522-2.2898-2.6406-0.31358-0.17001-3.5681 0.20169-4.6622 0.53247-0.21062 0.06368-0.37097-0.04298-0.45295-0.30127-0.25513-0.80384-1.088-1.542-2.1076-1.8681-2.6939-0.86133-4.3788-1.6269-5.472-2.4861-1.0166-0.79899-0.78878-0.87686 0.4012-0.13712 1.1838 0.73587 4.8888 1.8693 5.175 1.5831 0.10672-0.10672 0.20513-0.85266 0.21868-1.6576 0.02117-1.2576 0.05803-1.404 0.26186-1.0403 0.13047 0.23284 0.24033 0.84519 0.24414 1.3608 0.0089 1.2071 0.37547 1.8941 1.3571 2.5438 0.89459 0.59201 1.6072 0.6544 2.6236 0.22972 1.1053-0.46182 2.6101-0.3768 3.7119 0.20973 0.51937 0.27648 0.99066 0.45636 1.0473 0.39972 0.41015-0.41015-0.84669-2.1843-2.4216-3.4184-0.74919-0.58704-1.1716-1.1263-1.6227-2.0715-0.33543-0.70282-0.8025-1.396-1.0379-1.5403-0.23544-0.14433-1.2191-0.4153-2.1859-0.60215-2.1218-0.41008-2.4964-0.50684-2.3866-0.6166 0.17269-0.17269 4.0848 0.52531 4.7846 0.85368 0.59142 0.27751 0.8588 0.60944 1.4335 1.7796 0.55345 1.1269 1.029 1.7328 2.1955 2.797 1.2018 1.0966 1.5403 1.5343 1.7547 2.2699 0.25099 0.86076 0.31336 0.92061 1.1248 1.0794 0.51049 0.09989 1.2038 0.4494 1.7086 0.86131 0.6792 0.55425 0.88414 0.63846 1.0224 0.42009 0.28653-0.45253 0.20167-1.3063-0.20532-2.0656-0.21132-0.39429-0.48564-1.17-0.60958-1.7239-0.19275-0.86129-0.17814-1.0895 0.10098-1.5773l0.32634-0.57033-0.08494 0.56138c-0.1006 0.66492 0.20012 1.88 0.46529 1.88 0.10237 0 0.18613-0.39987 0.18613-0.8886s0.14039-1.1601 0.31198-1.4919c0.24361-0.47109 0.26501-0.7064 0.09766-1.0737-0.31506-0.69147-0.2635-0.77376 0.18391-0.29353 0.21903 0.2351 0.46613 0.42745 0.54911 0.42745 0.3027 0 1.0058-0.80609 1.0058-1.1531 0-0.6067-0.76326-1.3653-1.6218-1.612-0.48249-0.1386-1.2234-0.6101-1.8013-1.1463-1.3139-1.2191-1.4822-1.2887-3.4727-1.4349-0.94601-0.0695-2.0093-0.24723-2.3628-0.39494-0.6049-0.25274-1.6507-1.5785-1.424-1.8052 0.05726-0.05726 0.20222 0.0792 0.32212 0.30324 0.41494 0.77533 1.163 1.0642 3.3612 1.298 2.0619 0.21926 2.1712 0.25522 3.444 1.1328 0.72296 0.49847 1.4653 0.90632 1.6497 0.90632s0.68047 0.13813 1.1024 0.30696c0.62856 0.2515 0.84702 0.4897 1.2091 1.3184 0.67052 1.5345 0.60096 2.0512-0.44134 3.2783-1.0792 1.2704-1.2337 1.8816-0.9445 3.7355 0.19293 1.2368 0.1738 1.597-0.14862 2.7989-0.32411 1.2082-0.33846 1.4878-0.11559 2.2521 0.39841 1.3663 1.8301 2.4829 1.8301 1.4273 0-0.15907 0.18096-0.64393 0.40213-1.0775 0.43587-0.85438 1.2868-1.3446 2.3338-1.3446 0.33-1e-6 0.95657-0.18191 1.3924-0.40425 0.43582-0.22234 0.82768-0.36897 0.8708-0.32584 0.15689 0.15689-1.6564 1.316-2.0588 1.316-0.84252 0-1.6958 0.52665-2.0448 1.2621-0.45989 0.96915-0.2939 1.5 0.84866 2.7143 0.51966 0.55227 1.2371 1.6064 1.5942 2.3424 0.77579 1.5988 2.2903 3.2063 3.5028 3.7177 2.4014 1.0129 2.9824 1.3796 4.2356 2.6735 1.606 1.6581 2.1432 1.7598 3.3826 0.64006 0.89645-0.80988 2.7592-3.5457 3.0921-4.5413 0.46656-1.3955 0.13627-3.0607-0.81274-4.0976-0.23657-0.25848-1.1579-0.94306-2.0473-1.5213-1.8462-1.2002-2.3171-1.838-2.4902-3.3723-0.25338-2.2471-0.69157-4.4605-1.2012-6.0676-0.46004-1.4507-0.6635-1.7966-1.6129-2.742-1.6906-1.6835-3.2638-1.9791-5.1568-0.96893-1.229 0.65581-1.7343 0.78933-0.77607 0.20503 1.1227-0.68459 1.3033-1.7004 0.38986-2.1932-0.23442-0.12646-1.0415-0.33949-1.7934-0.47341s-1.9385-0.41664-2.6367-0.62827l-1.2695-0.38479 1.9361-0.13866-0.80944-0.84911c-0.44519-0.46701-0.9028-0.79141-1.0169-0.7209-0.1141 0.07052-0.20745-0.0015-0.20745-0.16001 0-0.15852-0.10986-0.33576-0.24414-0.39387-0.13428-0.05811 0.1499-0.08741 0.63152-0.0651 0.85809 0.03973 0.8889 0.06458 1.536 1.2385l0.6603 1.198 1.1521 0.13034c1.2586 0.1424 1.5387 0.0625 1.5359-0.43825-6e-3 -1.0839-3.0121-4.6488-4.4141-5.2346-0.83652-0.34952-2.1001-0.34705-2.7715 0.0054-0.29008 0.15228-0.87484 0.63568-1.2995 1.0742-1.0108 1.0439-1.2894 1.0236-0.44984-0.03273 0.36284-0.45654 0.81021-1.0718 0.99414-1.3672 0.27534-0.44222 0.47392-0.53711 1.124-0.53711 0.43427 0 0.95959-0.090983 1.1674-0.20218 0.44639-0.2389 0.50504-0.77438 0.08482-0.77438-0.33167 0-0.39284-0.30585-0.09766-0.48828 0.4414-0.2728 0.1258-0.84078-1.123-2.0211l-1.3184-1.246 1.0742 0.74071c1.7162 1.1834 1.9196 1.4241 2.153 2.5487 0.20227 0.97433 0.85442 1.8333 1.3919 1.8333 0.09459 0 0.65535 0.32094 1.2461 0.7132 0.59079 0.39226 1.1168 0.67058 1.1689 0.61848 0.05209-0.0521 0.19476-0.59287 0.31704-1.2017 0.19646-0.97825 0.17588-1.2284-0.17693-2.1503-0.28397-0.74206-0.35878-1.2354-0.25909-1.7087l0.14016-0.66545 0.13397 0.81284c0.07368 0.44706 0.31432 1.2336 0.53474 1.7478l0.40077 0.93496 0.37964-0.57592c0.48511-0.73593 0.49174-0.48209 0.01197 0.45835-1.0616 2.0809-0.94222 3.3873 0.54727 5.9876 0.79979 1.3963 0.98748 1.5975 1.68 1.8016 0.42881 0.12638 1.3956 0.41025 2.1485 0.63083 1.5194 0.44518 2.4906 1.2244 3.3468 2.6853l0.49399 0.84292 0.82298-1.0226c1.402-1.742 1.6671-2.2074 1.9515-3.4267 0.1979-0.8483 0.22396-1.4184 0.09258-2.025-0.26344-1.2165-1.3462-2.5982-2.4902-3.1779-1.0683-0.54136-1.778-1.3162-1.7776-1.9408 2.36e-4 -0.32148 0.07605-0.26369 0.3418 0.26055 0.34154 0.67376 0.60612 0.8092 2.0232 1.0357l0.70515 0.1127-0.09584-1.3395c-0.081058-1.1329-0.027371-1.4691 0.34821-2.1805 0.24422-0.4626 0.55544-1.2366 0.69159-1.72l0.24754-0.87891 0.01737 0.78125c0.0096 0.42969-0.15837 1.2436-0.37316 1.8087-0.56555 1.488-0.52092 3.056 0.12128 4.2617 0.28149 0.52846 0.69897 1.3124 0.92774 1.7421 0.28327 0.53207 0.44812 1.2796 0.51686 2.3438l0.10093 1.5625 1.5817-1.5684c1.7141-1.6997 1.5735-1.4067 2.6215-5.4628 0.2498-0.9668 0.4893-2.373 0.53223-3.125 0.04293-0.75195 0.17627-1.486 0.29633-1.6312s0.32246-0.89228 0.44979-1.6602l0.23152-1.3961 0.02104 1.0571c0.01157 0.58138-0.12291 1.5137-0.29886 2.0719-0.212 0.67256-0.27339 1.2628-0.182 1.7499l0.1379 0.73509 0.5238-0.47301c1.1823-1.0677 1.0496-1.0394 4.8781-1.0394h3.6066l0.41411-0.5518c0.35444-0.47229 0.41411-0.82028 0.41411-2.4152v-1.8634l0.35562 1.1457c0.42769 1.3778 0.34815 2.8114-0.19711 3.5528-0.21138 0.28741-0.83888 0.76984-1.3945 1.0721-0.55558 0.30223-1.0101 0.67374-1.0101 0.82558 0 0.67632 1.7055 1.207 2.8571 0.88902 0.97074-0.26803 1.098-0.10011 0.20651 0.2724-1.3628 0.56943-2.6283 0.25827-4.0131-0.98677-1.2411-1.1159-2.6357-1.4874-3.7749-1.0055-1.1156 0.47192-2.0467 2.0246-2.3089 3.8503-0.55491 3.8642-0.98738 4.7571-3.784 7.8125-1.9395 2.119-2.6503 3.3946-2.7961 5.0183-0.15454 1.7207 0.18432 2.662 1.3632 3.7864 0.55415 0.52855 1.1171 0.961 1.2509 0.961 0.35397-1e-6 0.69929-0.74993 0.59545-1.2931-0.18213-0.95273 0.39003-0.07916 0.72121 1.1011 0.28199 1.005 0.39236 1.1685 0.78869 1.1685 0.26835 0 0.65919 0.23576 0.93579 0.56448 0.41763 0.49632 0.49099 0.8281 0.60758 2.7478 0.14924 2.4573 0.37206 2.9866 1.446 3.4353 0.99571 0.41603 1.8205 0.34828 2.6997-0.22178 1.4137-0.91664 2.1969-2.6193 1.9102-4.1523-0.18306-0.97857-1.0741-2.9175-1.9138-4.1643-0.69016-1.0248-0.92438-2.1476-0.5024-2.4084 0.10742-0.06639 0.19531-0.58326 0.19531-1.1486 0-0.83768 0.10743-1.1699 0.5805-1.7951 0.622-0.82206 0.75756-1.7695 0.39108-2.7334-0.11016-0.28974-0.13951-0.71294-0.06523-0.94045 0.10956-0.33557 0.18352-0.22931 0.39183 0.56291 0.39786 1.5131 0.33018 2.4697-0.24794 3.504-0.40338 0.72173-0.48959 1.0855-0.40561 1.7116 0.05866 0.43731 0.23131 0.91977 0.38368 1.0721 0.23916 0.23916 0.40736 0.09951 1.2306-1.0218 1.2568-1.7118 1.9167-2.0434 4.0674-2.0434h1.6543l2.0176-1.8555-0.40923-1.2145c-0.22508-0.668-0.40923-1.668-0.40923-2.2223 0-0.76212-0.14293-1.2576-0.58634-2.0326-0.34272-0.59902-0.62534-1.4204-0.68022-1.9769-0.0702-0.71197-0.05394-0.80431 0.06447-0.36616 0.18424 0.68174 0.64386 1.4648 0.85973 1.4648 0.08229 0 0.3468-0.23133 0.58778-0.51407 0.24099-0.28274 0.76176-0.85496 1.1573-1.2716 0.39551-0.41665 0.75708-0.95436 0.80348-1.1949l0.08437-0.43737 0.0266 0.44723c0.03606 0.60639-0.58838 1.7725-1.3227 2.4702-0.6823 0.6482-0.76216 1.2458-0.31086 2.3259 0.16113 0.38564 0.29297 1.0827 0.29297 1.549 0 0.46632 0.11764 1.0087 0.26143 1.2054 0.24584 0.33621 0.35188 0.2965 1.7782-0.66598 0.83423-0.56293 1.6614-1.2778 1.8382-1.5885 0.36375-0.63944 0.55685-0.71334 0.64887-0.24833 0.10218 0.51639 1.6888-0.8154 2.6201-2.1993 0.6605-0.98148 0.81946-1.4049 0.91615-2.4404 0.07656-0.81991 0.29551-1.5723 0.63356-2.1771 0.28411-0.50832 0.54766-0.92423 0.58566-0.92423 0.03801 0-0.06728 0.40027-0.23398 0.88949-0.16669 0.48922-0.26544 0.92713-0.21943 0.97314 0.04601 0.04601 0.62845-0.01232 1.2943-0.12961 1.4479-0.25504 2.4062-0.8502 2.6429-1.6414 0.385-1.2869 0.4883-1.3941 0.50204-0.52137 0.02435 1.5471-0.40822 1.9967-2.7604 2.8693-0.505 0.18733-1.0539 0.49061-1.2199 0.67396s-0.66077 1.2058-1.0996 2.272c-0.43888 1.0663-0.84418 2.0485-0.90065 2.1828-0.14231 0.33836 1.1802 0.30688 2.1852-0.052 1.1877-0.42416 2.2824-0.53715 2.9048-0.29984 0.51949 0.19806 0.62946 0.14998 1.483-0.64838 0.93402-0.87367 1.9268-1.4918 2.3896-1.4879 0.13961 0.0012-0.05378 0.24163-0.42975 0.53431-0.37598 0.29268-1.059 0.9093-1.5177 1.3703-0.97771 0.98239-0.92366 1.2805 0.38952 2.1487 0.73776 0.48777 0.96952 0.53436 2.6581 0.53436h1.8499l-1.5014 0.46294c-1.335 0.41163-1.5963 0.43635-2.358 0.22309-0.49389-0.13828-1.3352-0.64446-1.9867-1.1954-1.3232-1.1188-1.6988-1.1694-4.1509-0.55911-0.876 0.21802-2.2129 0.47427-2.9708 0.56945-2.2775 0.28598-3.5377 1.4765-4.1932 3.9613-0.39175 1.485-0.1932 1.6294 1.6882 1.2274 0.79667-0.17024 1.7039-0.36396 2.016-0.43049 0.40281-0.08587 0.52698-0.05545 0.42793 0.10483-0.07675 0.12419-0.33212 0.22715-0.56748 0.22879-0.3176 0.0022-0.35896 0.04668-0.16042 0.17245 0.19465 0.12331 0.06167 0.23854-0.48828 0.4231l-0.75579 0.25364 1.7578 0.47702-1.2695-0.0073c-0.69824-4e-3 -1.7467 0.06117-2.3299 0.14486-1.0118 0.14518-1.0805 0.12684-1.501-0.40043l-0.44062-0.55259-1.2559 0.23141c-0.69076 0.12728-1.8419 0.23141-2.558 0.23141-1.9222 1e-6 -3.2597 0.67549-3.9448 1.9923-0.39496 0.75911-0.33813 1.3437 0.19549 2.0106l0.46796 0.58489 0.43025-0.38937c0.23664-0.21416 0.59302-0.69708 0.79197-1.0732l0.36171-0.6838 0.0086 1.7775c0.01051 2.1647 0.20314 2.7857 1.3084 4.2183 1.2121 1.5711 1.6211 2.5703 1.6226 3.9652 0.0017 1.5591-0.28815 2.0045-0.44465 0.68316-0.12857-1.0856-0.52266-2.3433-0.73422-2.3433-0.07211 0-0.18709 0.32959-0.25551 0.73242-0.06842 0.40283-0.47671 1.2158-0.90733 1.8066-0.43061 0.59082-1.092 1.6895-1.4698 2.4414-0.6669 1.3275-0.6831 1.3431-0.55752 0.53711 0.17345-1.1132-0.1679-1.0954-1.2959 0.06769-0.47891 0.49377-2.3733 1.8975-4.2099 3.1194-1.8365 1.2219-3.6905 2.6028-4.12 3.0688-2.1377 2.3191-1.8054 5.5886 0.70268 6.9127 1.7424 0.91985 3.9751 0.45154 6.5261-1.3688 1.5539-1.1088 2.3481-2.0874 2.9926-3.6872 0.27203-0.67528 0.55565-1.2921 0.63026-1.3708 0.07461-0.07866 0.49877 0.03663 0.94257 0.25621 0.96483 0.47736 1.7793 0.33158 3.2074-0.57405 1.2589-0.79839 1.8165-1.4578 2.7483-3.2501 1.7213-3.3109 3.0572-5.0135 4.1483-5.2874 0.24432-0.06132 0.93225 0.03039 1.5287 0.20379 1.4247 0.41417 1.9343 0.26372 2.5099-0.74109l0.46747-0.81594 0.0612 0.63477c0.07012 0.72724 0.47043 0.82903 1.1351 0.28863 1.7502-1.423 1.4425-3.701-0.7963-5.8957-0.884-0.86656-0.88827-0.87722-0.88827-2.2168 0-1.4942 0.05831-1.4082-2.321-3.4226-0.54964-0.46535-0.99934-0.92083-0.99934-1.0122 0-0.23756 1.9196 1.0773 2.7615 1.8915 0.81406 0.78728 1.2877 0.79327 1.7207 0.02174 0.24404-0.43479 0.25496-0.64187 0.06172-1.1705l-0.23478-0.64225 0.38445 0.46109c0.52124 0.62515 0.48358 1.2166-0.14969 2.3509-0.50808 0.91001-0.52187 1.0025-0.2827 1.8968 0.27526 1.0292 0.5706 1.4982 0.83897 1.3323 0.09525-0.05887 0.17318-0.27763 0.17318-0.48613 0-0.28896 0.13601-0.3791 0.57199-0.3791 0.73964 0 1.1823-0.45564 1.1996-1.2347 0.01124-0.50826 0.04151-0.54999 0.16694-0.23019 0.3059 0.77993-0.31565 2.0508-1.003 2.0508-0.34239 0-0.36942 0.08971-0.25015 0.83008 0.07355 0.45654 0.3529 1.2256 0.62079 1.709 0.28943 0.52228 0.53932 1.3704 0.61586 2.0901l0.1288 1.2112 1.7844-1.5533c2.0953-1.824 2.3988-2.2375 2.5438-3.4658 0.18119-1.5349-0.21268-2.5252-1.4905-3.7474-0.61974-0.59278-1.2341-1.3571-1.3653-1.6984-0.34478-0.89719-0.68079-1.132-2.7451-1.9184-2.113-0.80496-2.6263-1.0993-2.9402-1.6858-0.202-0.37744-0.16039-0.36869 0.44599 0.09382 0.6481 0.49433 2.0869 1.1037 2.606 1.1037 0.19447-1e-6 0.21177-0.14995 0.0731-0.63348-0.31743-1.1068-0.17581-1.2596 0.21826-0.23549 0.3459 0.89895 0.46645 1.0177 1.3583 1.3384 0.76961 0.27675 1.0027 0.46242 1.091 0.86897 0.17989 0.82886 0.49354 1.562 0.76438 1.7868 0.19262 0.15986 0.34979 5e-3 0.67334-0.66335 0.51607-1.0661 0.59959-2.6952 0.16358-3.1911-0.43841-0.49854-1.1302-1.9307-1.1301-2.3393 8.5e-5 -0.19227 0.18029 0.01434 0.40046 0.45913 0.22017 0.44479 0.55995 0.95318 0.75506 1.1298 0.33288 0.30126 0.41577 0.27282 1.3445-0.46134 0.88508-0.69961 1.0017-0.88112 1.1025-1.7157 0.39268-3.2527 0.84692-4.5656 0.74403-2.1504-0.11659 2.7368-0.20437 3.0457-1.154 4.0609-0.8009 0.85622-0.89469 1.0624-1.077 2.3674-0.3284 2.3505-0.1673 3.164 0.82724 4.1774 0.46711 0.47595 0.89742 0.86536 0.95624 0.86536 0.05883 0 0.29867-0.41748 0.53297-0.92773 0.29324-0.63859 0.74942-1.166 1.4637-1.6921 1.2906-0.95067 1.8435-1.5562 2.3339-2.5559l0.3832-0.78125-0.12644 0.68359c-0.06954 0.37598-0.25667 0.88897-0.41584 1.14-0.15917 0.25102-0.23687 0.50893-0.17266 0.57314 0.09859 0.09859 1.1242-0.095 2.4937-0.4707 0.22107-0.06065 0.49747-0.63 0.82155-1.6923 0.26862-0.8805 0.62366-1.7767 0.78898-1.9915 0.27153-0.35287 0.27235-0.32044 0.0085 0.33552-0.16063 0.39938-0.29398 1.0146-0.29634 1.3672-0.0048 0.71138-0.56401 2.0815-0.99015 2.4258-0.1513 0.12224-0.95877 0.40831-1.7944 0.63571-2.1588 0.58749-2.9789 1.1902-3.7384 2.7472-0.34274 0.70269-0.7746 1.5076-0.95968 1.7888-0.33365 0.5068-0.33146 0.51325 0.25811 0.75746 0.34694 0.1437 0.97654 0.20326 1.5115 0.14296 0.50427-0.05684 1.4859-0.01475 2.1814 0.09352 1.0917 0.16996 1.2963 0.15334 1.4974-0.12156 0.21023-0.28751 0.24287-0.28006 0.33618 0.07675 0.06628 0.25343 0.26752 0.39636 0.56108 0.39846 0.42234 3e-3 0.40793 0.03518-0.18636 0.41571-0.58606 0.37526-0.74299 0.39256-1.7416 0.19202-0.6036-0.12122-1.4265-0.2204-1.8287-0.2204-1.0364-1e-6 -3.0013 0.6521-3.7996 1.261-0.6405 0.48853-1.2633 1.4027-1.2633 1.8543 0 0.27134 1.2841 0.26322 1.7972-0.01136 0.29917-0.16011 0.70085-0.15344 1.5448 0.02565 1.0258 0.21769 1.195 0.206 1.6825-0.11624 0.78876-0.5214 2.252-0.45343 3.545 0.16468 1.4315 0.68432 1.8846 0.50269 2.6846-1.076 0.30106-0.5941 0.81336-1.1839 1.3678-1.5748 2.1386-1.5075 2.8132-1.754 0.94956-0.34693-1.3351 1.008-1.9782 1.9842-2.1009 3.1888l-0.09443 0.92773h1.3272c1.8573 0 1.9407-0.05261 1.9689-1.2416l0.02382-1.0045 0.16893 1.1588c0.09291 0.63732 0.27995 1.235 0.41564 1.3282 0.13569 0.0932 0.7301 0.12967 1.3209 0.08105l1.0742-0.08841-1.0742 0.3838c-0.9441 0.33731-1.1964 0.35536-2.0832 0.14895-0.6038-0.14055-1.3881-0.17868-1.9531-0.09497-0.51929 0.07694-1.2518 0.18346-1.6278 0.23673-0.54353 0.077-0.97926-0.06613-2.1267-0.69857-1.4491-0.79874-2.1586-0.94574-2.9911-0.61972-0.24675 0.09663-0.82121 0.27565-1.2766 0.39782-0.60478 0.16226-0.96011 0.41666-1.3184 0.94387-0.84631 1.2455-0.56974 2.1666 0.80139 2.6691 0.53436 0.19585 0.63268 0.28224 0.33222 0.29193-0.72638 0.02343-1.3975-0.33582-1.6917-0.90558-0.2681-0.51916-0.33876-0.54233-1.4631-0.47988-1.1613 0.0645-1.1828 0.07611-1.2657 0.68359-0.05275 0.38668-0.07519 0.28902-0.05995-0.26093 0.0238-0.85891 0.03991-0.88011 0.70795-0.93163 1.3423-0.10352 1.5359-0.2105 1.7438-0.96321 0.10933-0.39596 0.16888-0.74982 0.13233-0.78636-0.03655-0.03655-0.48702 0.02781-1.001 0.143-0.51403 0.1152-1.3089 0.15332-1.7664 0.08471-0.76471-0.11468-0.85966-0.07984-1.1773 0.43195-1.0268 1.6545-2.1978 2.4382-4.1862 2.8016-0.6956 0.12714-1.376 0.26508-1.5121 0.30656-0.16705 0.05092-0.03499 0.37815 0.40681 1.008 0.35978 0.51295 0.85469 1.416 1.0998 2.0069 0.24511 0.59082 0.53423 1.1841 0.64249 1.3184 0.31563 0.39147 1.9894 0.29747 2.7559-0.15477 1.4962-0.88275 2.9672-0.86294 3.8824 0.05229 0.64298 0.64298 2.4117 0.63155 3.1298-0.02024 0.29541-0.26812 0.53711-0.39391 0.53711-0.27954 0 0.11437-0.12661 0.31302-0.28136 0.44145-0.15475 0.12843-0.23324 0.35892-0.17442 0.5122 0.11607 0.30247-0.04752 0.33276-1.5264 0.28262-0.49935-0.01693-0.95496 0.04535-1.0125 0.1384-0.05751 0.09305 0.11572 0.45066 0.38496 0.79468 0.34426 0.43988 0.65277 0.62549 1.0397 0.62549 0.73513 0 1.2134 0.45136 1.966 1.8555 0.34549 0.64453 0.68386 1.2339 0.75193 1.3097 0.06807 0.0758 0.48086 0.04719 0.9173-0.06359 0.52918-0.13432 1.0168-0.1373 1.4637-9e-3 0.66478 0.19091 0.66219 0.1926-0.32115 0.21008-2.1997 0.03909-2.3862 2.0506-0.23736 2.5597l0.64276 0.15229-0.70608 0.01999c-1.0748 0.03043-1.5663-0.51185-2.7142-2.9941-0.57343-1.2401-1.181-2.292-1.3502-2.3376-0.1692-0.04561-0.62461-0.13616-1.012-0.20122-0.58573-0.09837-0.76344-0.24929-1.0551-0.89596-0.19281-0.42765-0.42117-0.7776-0.50741-0.7776-0.08624 0-0.21256 0.32959-0.28072 0.73242-0.06816 0.40283-0.25841 1.1021-0.42278 1.554-0.17848 0.49067-0.24575 1.0414-0.167 1.3672l0.13185 0.54558-0.3169-0.44226c-0.29003-0.40476-0.29096-0.53152-0.01089-1.4949 0.60324-2.0751 0.33937-3.0475-0.82391-3.0364-0.75802 0.0072-2.0519 0.55843-1.343 0.5721 0.31596 0.0061 0.29661 0.08125-0.16087 0.62494-0.30495 0.36241-0.48122 0.76643-0.4262 0.97683 0.05161 0.19734 0.02207 0.31446-0.06564 0.26025-0.08771-0.05421-0.29924-0.04493-0.47007 0.02063-0.2333 0.08952-0.31039 0.39349-0.30976 1.2213 6.8e-4 0.89699 0.10959 1.2658 0.5851 1.9811 0.32135 0.4834 0.57445 1.0547 0.56244 1.2695l-0.02182 0.39062-0.09832-0.39062c-0.05408-0.21484-0.35456-0.69824-0.66773-1.0742s-0.64857-0.78368-0.74532-0.906c-0.09676-0.12232-0.13034-0.39668-0.07464-0.60968 0.13156-0.50308-0.66487-2.3514-1.1176-2.5937-0.19271-0.10314-0.70135-0.18752-1.1303-0.18752-0.6471 0-0.86514 0.10811-1.2802 0.63477l-0.50027 0.63476-0.0022-0.56102c-0.0019-0.4884-0.042-0.52797-0.30988-0.30565-0.20334 0.16876-0.16304 0.01019 0.1188-0.46751 0.92428-1.5665-0.42976-3.6463-2.3739-3.6463-0.48662 0-0.81196 0.19082-1.4363 0.84247-0.93109 0.97174-1.3876 2.2337-1.5851 4.3821l-0.13021 1.416h0.81298c0.80358 0 2.2486 0.60179 3.4059 1.4184 0.64947 0.45827 0.64341 0.91851-0.04176 3.1709-0.48747 1.6025-0.52005 2.4002-0.13561 3.3203 0.51749 1.2385 1.774 1.1234 4.4471-0.40729 0.82751-0.47386 1.6009-0.86156 1.7187-0.86156 0.41707 0 1.4326 0.63437 1.8947 1.1836 0.2577 0.30626 0.8604 0.75254 1.3393 0.99173 0.47893 0.23919 1.0154 0.59466 1.1921 0.78993 0.25899 0.28618 0.62097 0.35504 1.8664 0.35504 1.7617 0 2.1405-0.14146 3.0519-1.1396l0.65356-0.71584-0.36059 0.65386c-0.41425 0.75115-1.5193 1.7875-1.906 1.7875-0.14424 0-0.37492 0.13575-0.51262 0.30167-0.21162 0.25499-0.13322 0.42164 0.50672 1.077 0.68146 0.69788 0.75311 0.86673 0.71727 1.6903-0.0219 0.50324 0.03508 0.96342 0.12663 1.0226 0.09155 0.05919 0.2268 0.32734 0.30055 0.5959 0.12651 0.46065 0.11751 0.4676-0.15901 0.12281-0.4158-0.51847-1.1756-0.28358-1.483 0.45844-0.15994 0.38613-0.19646 0.95729-0.10698 1.6734 0.10506 0.84083 0.06494 1.1954-0.17704 1.5647-0.17208 0.26263-0.40137 0.4775-0.50953 0.4775-0.10816 0-0.02293-0.2417 0.1894-0.53711 0.34128-0.47481 0.36285-0.66009 0.18597-1.5974-0.25962-1.3758-0.08333-2.2773 0.52301-2.6746 0.38367-0.25139 0.47915-0.4786 0.47915-1.1401 0-0.93906-0.15809-1.1187-1.7578-1.9975-1.2178-0.66899-2.9188-1.1586-3.3929-0.97665-0.36542 0.14023-0.43088 1.1209-0.1143 1.7125 0.11204 0.20935 0.55149 0.60018 0.97656 0.86852 0.42507 0.26834 0.77285 0.63541 0.77285 0.81573 1e-6 0.28296-0.03792 0.27598-0.277-0.05097-0.41639-0.56944-0.52173-0.26766-0.21106 0.6046 0.15158 0.42558 0.27945 0.96077 0.28417 1.1893 0.0047 0.22855 0.14041 0.52495 0.30154 0.65868 0.16113 0.13373 0.29297 0.33707 0.29297 0.45187 0 0.1148-0.13184 0.03812-0.29297-0.1704-0.29001-0.37529-0.29593-0.37529-0.58594 0-0.33931 0.4391-0.3884 0.26179-0.08465-0.30577 0.32581-0.60878 0.02841-1.4578-0.8858-2.5288-0.94293-1.1047-1.3858-2.3647-1.1929-3.3934 0.07206-0.38411 0.03657-0.86172-0.08025-1.08-0.24095-0.45021-1.1752-0.98132-1.7262-0.98132-0.36846 0-0.36817 0.01547 0.01473 0.78937 0.5081 1.027 0.34478 1.1739-0.26221 0.23591-0.68397-1.0569-1.101-0.96381-1.822 0.40688-0.52963 1.0068-0.61273 1.0863-0.71529 0.68359-0.06564-0.25774-0.23576-0.42804-0.39172-0.39215-0.48588 0.11183-1.1546 0.86992-1.1546 1.3089 0 0.69564 0.82704 1.7178 1.8308 2.2626 1.7231 0.93538 2.057 1.4263 2.3851 3.5073 0.52971 3.3595 0.89897 4.0366 2.7575 5.0565 1.5408 0.84553 2.013 1.8969 1.9772 4.4028l-0.0167 1.1719-0.18282-1.4648c-0.26148-2.0953-0.71281-3.0034-1.7523-3.5256-0.46559-0.23391-1.1416-0.64667-1.5023-0.91724-0.67334-0.50511-1.585-2.1703-1.5884-2.9014-0.0024-0.52474-0.81351-1.7379-1.1619-1.7379-0.14604 0-0.37213 0.30762-0.50241 0.68359-0.13028 0.37598-0.5162 1.123-0.85759 1.6602-0.99994 1.5732-1.2561 2.756-1.0983 5.0712 0.1488 2.1832-0.01687 2.8742-0.99732 4.1596-0.68956 0.90406-0.76979 0.68667-0.15352-0.41596 0.68432-1.2244 0.81804-2.8062 0.38617-4.5684-0.30678-1.2519-0.30874-1.4706-0.02548-2.8419 0.16878-0.81713 0.30688-1.5262 0.30688-1.5756 0-0.04947 0.39551-0.55329 0.87891-1.1196 1.5499-1.8157 1.2095-2.6661-1.6038-4.0074l-1.8643-0.88878-0.67793 0.35907c-1.2949 0.68587-1.5682 1.7529-0.823 3.2136 0.22116 0.43351 0.36319 0.93538 0.31563 1.1153-0.06038 0.22836-0.09332 0.19444-0.10914-0.11239-0.01246-0.2417-0.09303-0.43945-0.17905-0.43945-0.2967 0-1.0155-1.7702-1.0155-2.5008 0-0.96892 0.42956-1.5382 1.3743-1.8212 0.85895-0.25735 0.88052-0.32357 0.46892-1.4397-0.42936-1.1642-0.85879-3.7364-0.8641-5.1758-0.0026-0.69824-0.09512-1.5951-0.20564-1.9931-0.37474-1.3493-2.0517-2.0885-2.036-0.89751 0.0055 0.41424-0.07797 0.519-0.38884 0.48828-0.88622-0.08756-1.4616 2.3897-0.71246 3.0677 0.27889 0.25239 0.39757 0.70656 0.48 1.8369 0.06023 0.82589 0.1668 1.8312 0.23682 2.234 0.08121 0.46724 0.05205 0.73242-0.08053 0.73242-0.11431 0-0.26694-0.3151-0.33919-0.70021l-0.13136-0.70021-2.1238 0.06545c-2.0218 0.06231-2.7466-0.08962-1.5862-0.3325 1.1097-0.23227 1.9151-0.43891 2.2461-0.57624 0.24256-0.10065 0.3418-0.05069 0.3418 0.17204 0 0.36783 0.08911 0.38445 0.59878 0.11168 0.72309-0.38698 0.23405-2.5322-0.57726-2.5322-0.24947 0-0.46498-0.28319-0.70602-0.92773-0.19082-0.51025-0.42999-1.0337-0.53147-1.1631-0.31267-0.39887-0.87878 0.12733-1.1397 1.0594-0.37231 1.3298-0.57397 1.1816-0.57397-0.42186 0-1.6863-0.01758-1.6984-1.4648-1.0041-1.3564 0.6507-3.0707 2.0684-3.8228 3.1617-1.4528 2.1115-1.9298 4.9382-1.1715 6.9417 0.5197 1.373 1.6985 2.7362 2.847 3.2921 0.48159 0.23314 0.92019 0.49599 0.97466 0.58413 0.05447 0.08813-0.1647 0.71774-0.48704 1.3991-0.61583 1.3017-0.76015 2.6119-0.39386 3.5753 0.10589 0.27851 0.61126 0.95444 1.123 1.5021l0.93052 0.99567-0.06534 2.7223c-0.07088 2.9531 0.1053 4.0889 0.89435 5.7658 0.60631 1.2885 1.2714 2.0098 1.8532 2.0098 0.35984 0 0.51471 0.17332 0.74175 0.83008 0.2161 0.62514 0.52144 0.98679 1.2368 1.4648 0.52239 0.34912 1.1816 0.63233 1.4648 0.62935 0.3814-4e-3 0.76842 0.27668 1.4916 1.0818l0.97656 1.0872 1.7578 0.26379c2.1453 0.32194 3.564 0.88687 5.849 2.3291 0.9611 0.60661 1.9326 1.1029 2.159 1.1029 0.22632 0 0.70804-0.30596 1.0705-0.67992 0.97173-1.0026 3.0565-1.5023 4.2028-1.0073 0.5711 0.24659 0.55159 0.25622-0.77048 0.38039-1.3404 0.12589-2.0393 0.47824-1.7802 0.89749 0.07276 0.11773 0.33894 0.21405 0.59151 0.21405 0.25257 1e-6 1.0164 0.2636 1.6975 0.58578 0.795 0.3761 1.5529 0.58722 2.1171 0.58981 2.2871 0.01047 5.5716 0.90784 7.1289 1.9477l0.58594 0.39125-4.2969-0.04208c-2.3633-0.02315-20.073-9.24e-4 -39.355 0.04938-19.282 0.05031-36.025 0.0226-37.207-0.06157zm8.4899-35.443c-8e-3 -0.1895-0.49358-0.83008-0.62919-0.83008-0.05723 0-0.1564 0.1364-0.22037 0.30311-0.0667 0.17381-0.03395 0.25221 0.07676 0.18379 0.10619-0.06563 0.19308 0.0177 0.19308 0.18517 0 0.16747 0.13184 0.3045 0.29297 0.3045s0.29017-0.06592 0.28676-0.14648zm10.276-17.139c0.02818-2.0537 0.53479-3.5429 1.4041-4.1272l0.63921-0.42967-0.57906-0.41232c-1.4494-1.0321-2.6591-1.1781-2.4372-0.29421 0.18492 0.73676-0.29365 1.8237-1.214 2.7573-1.1238 1.1399-1.1349 1.7116-0.06088 3.1341 0.73719 0.9764 0.84852 1.0497 1.5111 0.99431l0.71532-0.05975zm-2.846 0.58852c-0.52449-0.55829-0.78368-0.62374-0.78368-0.1979 0 0.47113 0.78098 1.1526 1.0326 0.90102 0.1528-0.1528 0.08308-0.34976-0.24889-0.70312zm-5.4342-19.15c-0.11187-0.70668-1.1376-1.9426-1.6655-2.0069-0.47639-0.05801-0.49106-0.03153-0.31761 0.57327 0.35842 1.2497 2.1602 2.5522 1.9831 1.4336zm-16.112 32.501c-0.49637-0.56567-0.59677-0.59685-1.7474-0.54255-0.6714 0.031687-1.4673-0.013986-1.7687-0.1015-0.4376-0.12707-0.64252-0.070242-1.0177 0.28227-0.4208 0.39532-0.53109 0.416-1.0569 0.19819-0.6155-0.25495-1.1856-0.7871-0.8432-0.7871 0.10742 0 0.30473 0.13184 0.43846 0.29297 0.30374 0.36598 0.85819 0.37796 1.1512 0.02487 0.16537-0.19926 0.16661-0.52869 0.00484-1.283-0.26747-1.2472-0.13687-1.4588 0.27106-0.43931 0.42302 1.0572 1.1647 1.3526 2.5574 1.0185 0.9056-0.21725 1.1187-0.20635 1.7412 0.08903 0.55382 0.2628 0.73697 0.48408 0.83553 1.0095 0.16941 0.90304 0.05853 0.94971-0.56584 0.23817zm3.6725-34.347c-0.45742-0.11442-0.33865-0.1446 0.54144-0.13758 0.65057 0.0052 1.0223 0.07569 0.87891 0.16669-0.28692 0.1821-0.60183 0.17565-1.4204-0.02911zm18.668-8.9869c0.28473-0.59786 0.37494-0.70866 0.37494-0.46051 0 0.10479-0.13668 0.36114-0.30374 0.56966-0.2864 0.35748-0.29047 0.35125-0.0712-0.10916zm15.945-6.1827c-0.062739-0.52043-0.3097-1.3857-0.5488-1.9228-0.36964-0.83033-0.44136-1.3714-0.479-3.6133-0.038144-2.2719-0.11484-2.8372-0.55439-4.0857-0.28057-0.79694-0.47806-1.481-0.43888-1.5202 0.03918-0.039183 0.40437 0.70075 0.81152 1.6443 0.61999 1.4368 0.76777 2.0488 0.90946 3.7663 0.09305 1.1279 0.34291 2.5732 0.55525 3.2118 0.45436 1.3663 0.4811 1.9861 0.1225 2.839l-0.26357 0.62686z"/></svg>
