<svg width="100" height="100" version="1.1" viewBox="0 0 100 100" xml:space="preserve" xmlns="http://www.w3.org/2000/svg"><path d="m45.605 99.8c-2.2153-0.44465-4.7207-1.841-6.4039-3.569-0.5427-0.55716-1.5719-1.8048-2.287-2.7726-1.514-2.0488-2.4432-2.9179-3.6914-3.4529-1.1668-0.5001-1.5178-0.83306-2.1273-2.0176-0.47374-0.92073-0.5112-1.211-0.65522-5.0781-0.21955-5.8953-0.53486-8.1289-1.9095-13.527-0.30794-1.2092-0.5014-2.2348-0.4299-2.279 0.1293-0.07991 3.2563-0.6982 3.5311-0.6982 0.07921 0 0.10227 0.8669 0.05125 1.9265-0.14433 2.9974 0.41851 6.9702 1.4502 10.236 0.60395 1.9118 1.237 2.6656 2.366 2.817 0.79089 0.10606 0.83796 0.14932 0.95433 0.87705 0.10325 0.64572 0.20992 0.78299 0.68175 0.87736 0.30764 0.06153 0.55934 0.2191 0.55934 0.35015 0 0.30203 0.63475 0.88476 0.96375 0.88476 0.13717 0 0.51015 0.21941 0.82885 0.48758 0.474 0.39885 0.65158 0.44898 0.9758 0.27546 0.32729-0.17516 0.48832-0.12399 0.92427 0.29367 0.53653 0.51403 1.2544 0.64453 1.7657 0.32102 0.2012-0.12729 0.47037-0.01392 0.93453 0.39362 0.79901 0.70154 1.0304 0.71029 1.794 0.06783l0.59965-0.50458 0.5767 0.5767c0.31719 0.31719 0.74798 0.6215 0.95732 0.67624 0.51243 0.134 1.5023-0.36842 1.8892-0.95891l0.31464-0.4802 0.76963 0.69532c1.1075 1.0006 1.9369 1.0073 2.8228 0.02291l0.58942-0.65497 0.54451 0.46837c0.29948 0.2576 0.68305 0.46837 0.85237 0.46837 0.42617 0 1.5602-0.72535 1.6989-1.0866 0.0881-0.22958 0.20098-0.25096 0.49482-0.0937 0.64832 0.34697 1.33 0.23492 1.7398-0.28594 0.24521-0.31173 0.49893-0.44603 0.69821-0.36956 0.58949 0.22621 1.292-0.11093 1.6068-0.77115 0.20403-0.42786 0.51311-0.70437 0.92213-0.82495 0.50575-0.1491 0.63261-0.30252 0.71289-0.86212 0.08612-0.60033 0.17841-0.69411 0.78125-0.79392 1.5088-0.24979 2.0545-0.93449 2.7965-3.5087 0.83266-2.8889 1.3468-6.5543 1.2731-9.0766l-0.0657-2.2491 0.70576 2.56e-4c0.72374 2.62e-4 2.7167 0.33029 2.86 0.47361 0.04398 0.04398-0.23281 1.4716-0.61509 3.1724-1.3288 5.9121-1.4484 6.7886-1.665 12.199-0.14676 3.6662-0.22387 4.3415-0.59031 5.1699-0.57635 1.3029-1.0692 1.7773-2.5419 2.447-1.6048 0.72971-1.701 0.8199-3.6195 3.3935-2.4998 3.3535-4.5423 5.0233-7.2609 5.9361-1.8015 0.60486-3.1015 0.70241-4.5195 0.33913-1.0895-0.27912-1.3329-0.28141-2.3289-0.02199-1.201 0.31282-2.0502 0.33617-3.2763 0.09009zm1.8485-14.498c-0.49452-0.80105-1.0165-2.5463-0.93442-3.1243 0.05924-0.41718 0.14898-0.4401 1.7227-0.4401h1.6602l0.06429 0.78125c0.08368 1.017-0.24346 2.0809-0.8681 2.8232-0.64685 0.76874-1.1529 0.75642-1.6446-0.04003zm4.1519 0.19265c-0.56383-0.60017-1.0199-1.7463-1.0199-2.563 0-1.2435 0.07006-1.2918 1.8764-1.2918h1.6393v0.64814c0 0.90993-0.50962 2.5225-0.99033 3.1336-0.49687 0.63167-0.95946 0.65411-1.5054 0.07302zm-7.1606-0.13089c-0.82256-0.90892-1.2354-3.7451-0.58166-3.9959 0.53213-0.2042 1.3918-0.12964 1.6157 0.14012 0.11807 0.14227 0.27171 0.87235 0.34142 1.6224 0.09956 1.0712 0.05756 1.4975-0.19578 1.9874-0.37012 0.71573-0.69356 0.78317-1.1797 0.24599zm10.919-0.21556c-0.23573-0.26048-0.38905-0.79776-0.44386-1.5554-0.12932-1.7878 2e-3 -2.0806 1.0006-2.2303 1.2097-0.1814 1.5007-0.01669 1.5007 0.84943 0 0.93045-0.49384 2.3804-0.99333 2.9166-0.48204 0.51741-0.61146 0.5198-1.0641 0.01968zm-13.71-0.71624c-0.24245-0.36983-0.3463-0.91162-0.3463-1.8066 0-1.2494 0.01219-1.2798 0.53701-1.3402 0.62262-0.07164 0.83073 0.31017 1.0436 1.9145 0.10621 0.80068 0.06471 1.0626-0.21784 1.3748-0.4596 0.50785-0.60327 0.4877-1.0164-0.14255zm16.556-0.14641c-0.35475-0.42745-0.05829-2.7901 0.40869-3.2571 0.56472-0.56472 0.91424-0.44604 1.1384 0.38652 0.15307 0.56846 0.1351 0.9753-0.07374 1.6692-0.42719 1.4194-0.94318 1.8402-1.4734 1.2013zm-18.569-1.2296c-0.32125-1.0791-0.17931-2.47 0.26058-2.5535 0.6452-0.12244 0.91835 0.33504 0.91835 1.5381 0 0.7705-0.09838 1.2324-0.30692 1.4409-0.46205 0.46205-0.63255 0.37885-0.87201-0.4255zm20.833-0.29297c-0.15326-0.57189-0.15596-1.982-0.0046-2.3766 0.0652-0.16992 0.32888-0.30894 0.58594-0.30894 0.45402 0 0.46738 0.04467 0.46738 1.5625 0 1.5161-0.01383 1.5625-0.4655 1.5625-0.31764 0-0.50291-0.13959-0.58327-0.43945zm-22.169-0.35614c-0.30416-0.8725-0.28805-2.5256 0.02456-2.5217 0.6332 0.0078 0.78288 0.3391 0.69597 1.5406-0.10605 1.4661-0.4081 1.8774-0.72054 0.98112zm23.53-1.57c-0.13364-0.83576 0.0901-1.3454 0.59069-1.3454 0.28172 0 0.38271 1.2344 0.1505 1.8395-0.22126 0.5766-0.61158 0.31638-0.74119-0.49414zm-24.377-0.06405c-0.0629-0.31579-0.04428-0.75524 0.04138-0.97656 0.14483-0.37418 0.16573-0.37766 0.29807-0.04963 0.07828 0.19402 0.05966 0.63348-0.04138 0.97656l-0.18371 0.62379zm9.5136 0.13699c-0.32226-0.04712-0.7061-0.1851-0.85297-0.30662-0.66253-0.54818 0.44202-4.0897 1.4896-4.7761 0.41606-0.27261 0.48786-0.26268 0.89996 0.12447 0.82834 0.77818 1.2955 2.0071 1.2955 3.408 0 1.0756-0.06282 1.3237-0.37778 1.4923-0.37456 0.20046-1.3261 0.22294-2.4542 0.05798zm3.7598-0.05306c-0.47541-0.29595-0.44659-1.6564 0.064-3.0211 0.4303-1.1501 1.2264-2.2504 1.6283-2.2504 0.48869 0 1.0812 0.92001 1.5931 2.4737 0.55568 1.6866 0.53812 2.4621-0.06101 2.6947-0.6421 0.24923-2.8749 0.32064-3.2243 0.10312zm5.2246-0.14714c-0.71648-0.16187-0.87891-0.45716-0.87891-1.5978 0-1.305 0.44601-2.7534 1.0031-3.2576 0.38348-0.34705 0.4039-0.34368 0.76914 0.12674 0.7802 1.0049 1.4216 4.0337 0.93545 4.4173-0.33199 0.26197-1.3102 0.42851-1.8288 0.31134zm-13.623-0.17676c-0.41995-0.11477-0.43188-0.61343-0.04976-2.0805 0.4516-1.7338 1.0119-2.7085 1.5149-2.6352 0.77267 0.11253 1.2135 1.2305 1.2171 3.0868l0.0033 1.6617-1.1719 0.03026c-0.64453 0.01664-1.3257-0.01177-1.5137-0.06315zm-3.0201-0.98158c-0.2669-0.69552 0.80237-3.7707 1.3111-3.7707 0.39083 0 0.79546 0.97132 0.90838 2.1806 0.09612 1.0294 0.05723 1.3181-0.2141 1.5894-0.45104 0.45104-1.8324 0.45152-2.0054 6.9e-4zm19.417 0.20737c-0.26754-0.26754-0.13969-2.6437 0.1783-3.3138 0.34484-0.7267 0.66489-0.82814 1.1337-0.35934 0.40884 0.40884 0.93519 2.2709 0.85868 3.0378-0.05888 0.59012-0.10366 0.6198-1.0476 0.69437-0.54237 0.04284-1.0477 0.01628-1.123-0.05902zm-23.681-0.94525c-0.58174-0.7627-1.3254-2.9357-1.6577-4.8438-0.23199-1.3322-0.19396-6.0629 0.0507-6.3066 0.22046-0.21959 0.73648 0.29775 1.5521 1.5561 0.83778 1.2925 0.92364 1.9632 0.45086 3.5217-0.30368 1.0011-0.25571 1.4498 0.23862 2.2322 0.16708 0.26443 0.31045 1.0161 0.33531 1.7578 0.02388 0.71272 0.11461 1.6254 0.20162 2.0283 0.14305 0.6623 0.1193 0.73242-0.24805 0.73242-0.23413 0-0.62538-0.2873-0.92347-0.67812zm28.927-0.0543c0.08837-0.40283 0.16579-1.3037 0.17204-2.002 0.0073-0.81785 0.14135-1.5409 0.37673-2.0323 0.34605-0.72245 0.34863-0.82302 0.04883-1.9013-0.41206-1.4821-0.39918-2.0237 0.07104-2.9871 0.43969-0.90084 1.8584-2.6083 2.0295-2.4425 0.32757 0.3174 0.50345 3.0925 0.31957 5.0425-0.31201 3.3086-0.99747 5.4581-2.0885 6.5491-0.76638 0.76638-1.1277 0.67839-0.92923-0.22629zm-25.744 0.3854c-0.44542-0.09413-0.57147-0.64954-0.49884-2.1981 0.05291-1.1281 0.10493-1.27 0.4855-1.3242 0.63157-0.08991 0.91125 0.5932 0.79006 1.9297-0.11872 1.3093-0.30544 1.6921-0.77671 1.5925zm23.3-0.41704c-0.28401-0.53068-0.46437-1.8819-0.3252-2.4364 0.16092-0.64117 0.88096-0.87524 1.2289-0.39947 0.29876 0.40857 0.34254 1.7923 0.07867 2.4863-0.23944 0.62976-0.7375 0.80697-0.98232 0.34951zm-11.826-2.815c-1.02-1.5342-2.0206-1.6293-3.2406-0.30781l-0.71214 0.77138-0.34298-0.54189c-0.44062-0.69616-1.0821-1.2156-1.5081-1.2211-0.18425-0.0024-0.64863 0.27102-1.032 0.60759-0.38332 0.33656-0.72604 0.57826-0.76159 0.53711s-0.16645-0.27056-0.29088-0.5098c-0.37479-0.72056-0.89162-0.88648-1.4199-0.45581-0.45233 0.36878-0.46283 0.36819-0.91352-0.05166-0.33306-0.31027-0.70151-0.42474-1.3672-0.42474h-0.91126l-0.0159-2.4863c-0.01503-2.3496-0.0474-2.5479-0.58893-3.6068-0.41866-0.81864-0.80898-1.266-1.4489-1.6608-1.3333-0.82246-2.5669-0.97653-6.0517-0.75584-3.1571 0.19994-4.3309 0.0969-5.1717-0.45402-1.0068-0.65968-2.4369-3.0471-3.223-5.3805l-0.4106-1.2188 0.50943-0.81222c0.28019-0.44672 0.81361-1.2956 1.1854-1.8864 0.37177-0.59082 0.76792-1.4154 0.88033-1.8325 0.28826-1.0695 0.28231-3.6464-0.1214-5.5915s-1.5941-2.5717-2.3912-5.8575c-1.5462-6.374-2.3669-21.852 3.888-30.297 4.5944-6.2032 12.593-10.753 21.099-12.002 3.2515-0.47724 8.2761-0.30417 11.194 0.38557 3.1612 0.74729 5.013 1.3829 7.5209 2.5814 9.1805 4.3873 15.381 12.415 17.027 22.047 0.34657 2.027 0.38736 2.898 0.30186 6.4453-0.06195 2.5701-0.21907 4.7442-0.42082 5.8228-0.36158 1.933-1.1381 5.0167-1.4855 5.8994 0 0 0.12565-0.32303-0.22929 0.58254s-1.7498 4.0559-1.8943 4.8532c-0.22348 1.2729-0.40634 2.6852-0.40634 3.1384 0 1.6592 0.67448 3.2065 2.455 5.6321l0.53826 0.73326-0.33846 1.2174c-0.6631 2.385-2.3813 5.0591-3.6998 5.7578-0.51401 0.27242-1.0487 0.31172-3.2519 0.23902-5.9676-0.19693-7.2174-0.01718-8.3923 1.2069-0.97051 1.0112-1.2598 2.0461-1.2766 4.5673-0.0086 1.2901-0.08469 2.4574-0.16907 2.5939-0.09961 0.16117-0.37253 0.20712-0.7782 0.13102-0.46996-0.08816-0.76004-0.01082-1.1706 0.31211-0.40534 0.31884-0.60252 0.37259-0.76624 0.20887-0.39907-0.39907-1.0932-0.24703-1.4459 0.31666-0.18481 0.29541-0.35966 0.57078-0.38857 0.61193-0.0289 0.04115-0.36618-0.20055-0.7495-0.53711-0.92339-0.81075-1.3714-0.77351-2.2881 0.19019-0.72214 0.75912-0.77777 0.78268-1.0378 0.43945-0.1511-0.19947-0.27752-0.42633-0.28094-0.50414-0.0099-0.22631-1.1175-0.73744-1.5979-0.73744-0.27253 0-0.7765 0.35886-1.3281 0.94568l-0.88886 0.94568zm-0.51177-9.6296c0.24973-0.17492 0.57346-0.5924 0.78504-0.71747s0.43076 0.29241 0.69442 0.55608c1.1314 1.1314 3.1079 0.19577 4.0084-1.8973 0.70717-1.6439 0.51682-2.9563-0.95782-6.6038-1.5989-3.955-1.8361-4.3927-2.6969-4.9777-0.97785-0.66447-1.3663-0.6252-2.3543 0.23802-0.75048 0.65568-0.97088 1.0758-2.1164 4.0345-0.7033 1.8164-1.3724 3.75-1.487 4.2969-0.27864 1.3303-0.05929 2.6063 0.63669 3.7037 0.96461 1.521 2.4417 2.1 3.488 1.3671zm-15.986-8.4681c3.1789-0.46003 7.992-2.6825 9.7646-4.5089 2.3719-2.4439 3.2579-5.5176 2.4207-8.3981-0.25264-0.86922-0.5471-1.2925-1.6301-2.3436-1.4231-1.3811-2.4764-1.9734-4.3734-2.4594-1.5922-0.40789-4.6275-0.26671-6.3835 0.29692-2.7211 0.87342-5.2868 2.8819-6.2083 4.86-0.46468 0.99747-0.53186 1.4079-0.59595 3.6405-0.10898 3.7967 0.42617 5.904 1.8823 7.4119 0.82495 0.85432 1.4674 1.2311 2.5231 1.4797 0.99063 0.23327 1.1251 0.23434 2.6006 0.02083zm37.163-0.24901c1.0373-0.29742 2.3654-1.5315 2.948-2.7394 0.62604-1.2979 0.97488-3.9218 0.8543-6.4259-0.07894-1.6393-0.17834-2.0797-0.71574-3.1714-2.1623-4.3922-9.4587-6.6909-14.359-4.5237-1.4584 0.64508-3.2404 2.2122-3.9229 3.4501-0.5251 0.95236-0.58207 1.2254-0.5673 2.7188 0.04577 4.6277 3.254 8.0906 9.4045 10.151 2.8694 0.9612 4.4283 1.0937 6.3577 0.54052z"/></svg>