<svg width="100" height="100" version="1.1" viewBox="0 0 100 100" xmlns="http://www.w3.org/2000/svg">
 <path d="m40.066 99.299c-5.2363-1.1875-7.8923-2.0993-11.768-4.04-8.1846-4.0985-13.048-9.9971-14.106-17.109-0.25517-1.7146-0.25634-4.7496-0.0024-6.4449 0.79898-5.3361 3.1856-10.696 6.8662-15.42 0.63707-0.81767 1.3683-1.8885 1.625-2.3797 0.53313-1.0201 1.1958-2.9205 1.4655-4.2032 0.7285-3.4638 0.68876-8.7193-0.10164-13.443-0.33397-1.9957-0.28187-2.1174 0.68542-1.601 1.6271 0.86873 3.9375 2.8145 5.3536 4.5087 2.4527 2.9344 3.9181 6.3338 4.492 10.421 0.26931 1.9179 0.17536 6.1488-0.182 8.196-0.14052 0.80496-0.33376 1.7724-0.42942 2.1498-0.09566 0.37741-0.15372 0.70641-0.12901 0.73113 0.10235 0.10237 1.6758-2.4556 2.3122-3.759 0.82611-1.6919 1.2727-2.9499 1.7076-4.8097 0.2987-1.2774 0.3267-1.5945 0.33009-3.7375 0.0042-2.6231-0.11775-3.4688-0.82361-5.7141-1.6868-5.3657-2.3968-9.6187-2.3984-14.366-0.0016-5.0622 0.80198-9.114 2.6243-13.231 2.6887-6.0742 7.6152-11.367 13.459-14.461 1.232-0.65217 1.7214-0.75124 1.7214-0.34844 0 0.08899-0.26763 0.72937-0.59474 1.4231-2.5101 5.3231-3.5349 10.258-3.2619 15.708 0.4057 8.1 4.0037 16.444 10.46 24.257 1.1425 1.3826 1.6299 1.9115 3.6144 3.9224l1.7332 1.7563-0.0768-1.5221c-0.17233-3.4146 0.71097-6.885 2.4854-9.7647 2.257-3.6629 6.2279-7.1409 10.545-9.2358 0.89289-0.4333 1.1125-0.49928 1.2584-0.37814 0.24734 0.20531 0.22245 0.36381-0.1299 0.82712-0.79567 1.0463-1.5604 3.1978-1.9328 5.4379-0.20269 1.2193-0.20624 5.6084-6e-3 7.0837 0.76649 5.6394 2.5507 11.526 5.5185 18.207 2.054 4.6239 3.1481 8.5453 3.5116 12.587 0.95566 10.626-4.4473 19.309-15.448 24.827-2.641 1.3247-6.5274 2.8728-6.9904 2.7845-4.2021 2.1433-18.211 1.9699-20.963 1.653-0.11041-4e-3 -1.2016-0.23426-2.425-0.51169z"/>
</svg>
