<svg width="100" height="100" version="1.1" viewBox="0 0 100 100" xmlns="http://www.w3.org/2000/svg">
 <path d="m51.843 4.632-31.718 44.344-5.2969-28.981-7.1136 32.48-7.7142-9.5949v27.929c0 1.0028 0.011352 1.9347 0.031648 2.8253 0.14964 6.008 0.98419 9.7202 4.7376 14.592 0.8662 1.1245 1.8748 2.3052 3.0798 3.5979 0.27314 0.29172 0.5762 0.56313 0.90748 0.81942 1.9216 1.4857 4.8515 2.3296 8.9547 2.6082 1.0141 0.06914 2.0767 0.11593 3.2405 0.11593 1.1768 0 2.3967-0.0375 3.6447-0.10286 1.0757-0.05607 2.1686-0.13485 3.2742-0.23186 12.173-1.0685 25.534-4.3389 26.204-4.5037l12.927-3.1903-25.306-4.4345 36.865-13.109h-36.815l58.253-61.717-62.97 43.312z"/>
</svg>
