<svg width="100" height="100" version="1.1" viewBox="0 0 100 100" xmlns="http://www.w3.org/2000/svg">
 <path d="m8.9922 95.819c0-4.381-0.32008-7.1738-1.0853-9.47-0.35023-1.0509-1.7187-4.0125-3.041-6.5814s-2.6607-5.3862-2.9741-6.2607c-1.3809-3.8524-1.8999-7.5518-1.8916-13.484 0.0089-6.3886 0.45424-8.2635 2.4235-10.203 1.0266-1.0112 1.0854-1.0371 2.5397-1.1192 1.8641-0.10533 2.5017 0.15091 3.7045 1.4887 1.3108 1.4579 1.7273 2.7656 2.5521 8.013 0.90488 5.7568 1.665 9.3572 2.2152 10.492 0.2352 0.48521 1.3382 2.0764 2.4512 3.536 1.113 1.4596 2.9196 3.8299 4.0147 5.2673 1.0951 1.4374 2.313 3.2474 2.7064 4.0222l0.71527 1.4087 0.06037 8.026 0.06038 8.026h-14.451zm67.512-5.8394v-9.0015l0.79613-1.1776c0.43787-0.64765 2.0071-2.5568 3.4872-4.2424 3.392-3.8632 5.2918-6.2138 5.9754-7.3934 0.58124-1.0029 1.3321-4.6925 1.9568-9.6153 0.40131-3.1625 0.93563-5.4209 1.5936-6.7355 0.5337-1.0664 1.7554-2.4144 2.5807-2.8477 0.74533-0.39126 2.9962-0.38728 3.758 7e-3 0.67868 0.35095 1.7788 1.5408 2.2282 2.41 1.2788 2.4729 1.5109 11.86 0.44308 17.918-0.52083 2.9546-1.1868 4.6502-3.8016 9.6781-4.1124 7.9076-4.3368 8.6721-4.5181 15.385l-0.12468 4.6176h-14.375zm-30.359 2.9241c-0.29192-0.0413-1.3428-0.18107-2.3353-0.31069-4.8973-0.63961-9.7826-2.2287-14.776-4.8063l-1.2948-0.66837-0.14651-2.2954c-0.39708-6.2212-0.83058-7.1524-5.8614-12.591-3.6182-3.9117-4.7062-5.4078-5.2719-7.2495-0.23826-0.77567-0.78103-3.6339-1.2062-6.3517-1.1993-7.667-1.9539-10.145-3.6891-12.117-1.3848-1.5732-3.971-2.4925-6.1278-2.178l-0.90229 0.13154v-1.0053c0-2.6432 1.0709-7.9551 2.375-11.781 4.7177-13.84 17.46-25.681 31.544-29.313 4.6196-1.1911 6.0367-1.3499 12.044-1.3499 5.9102 0 7.4888 0.17046 11.88 1.2828 13.961 3.5365 26.708 15.201 31.526 28.849 1.2742 3.6093 2.5487 9.6052 2.5557 12.024l2e-3 0.77144-2.07 0.0867c-3.2053 0.13424-5.0748 1.1749-6.8762 3.8275-2.0807 3.064-3.2671 7.3643-4.1171 14.924-0.23123 2.0562-0.47531 3.2667-0.79198 3.9276-0.2943 0.6142-1.9013 2.4337-4.5003 5.0953-5.5679 5.702-5.8469 6.2996-5.8469 12.524v3.3367l-2.3689 1.1112c-4.3342 2.033-9.509 3.4946-14.297 4.0382-1.7658 0.20048-8.225 0.26035-9.4475 0.0876zm7.274-12.661c4.2512-1.9463 6.1481-7.4161 5.8266-16.802-0.25346-7.4-1.8213-11.933-4.8301-13.966-1.4095-0.95228-2.4457-1.2343-4.5351-1.2343-3.843 0-6.6843 2.2991-8.0505 6.5145-0.75123 2.3178-0.95468 3.4601-1.206 6.7712-0.43192 5.6904 0.47817 11.645 2.3534 15.397 0.77386 1.5484 1.515 2.4106 2.6375 3.0684 1.2325 0.72229 2.3983 0.93589 4.6887 0.85906 1.5253-0.0512 2.1776-0.17843 3.1156-0.60784zm-16.191-39.397c1.475-0.57784 3.0123-1.7415 4.1579-3.1474 2.3523-2.8868 2.6322-7.3787 0.6641-10.656-0.8987-1.4968-3.0112-3.4564-4.4697-4.1464-6.2431-2.9535-13.525 1.8911-13.512 8.9892 0.0076 4.2016 2.6152 7.8762 6.4933 9.1506 1.7127 0.5628 4.9839 0.46981 6.6669-0.18951zm32.038 0.19884c2.5958-0.80792 4.8437-2.7769 6.0307-5.2826 0.63828-1.3474 0.67618-1.5644 0.67618-3.8726 0-2.3512-0.02786-2.5022-0.72428-3.9276-0.93492-1.9135-3.0438-4.0358-4.9249-4.9564-4.3066-2.1074-9.5562-0.58293-12.152 3.5288-1.9533 3.0942-1.9381 7.637 0.035 10.504 1.3133 1.908 3.3519 3.4451 5.4524 4.1112 1.3111 0.41574 4.1022 0.3637 5.6067-0.10454z"/>
</svg>
