<svg width="100" height="100" version="1.1" viewBox="0 0 100 100" xmlns="http://www.w3.org/2000/svg">
 <path d="m65.783 83.578c-0.02008-0.90955-0.84182-4.6711-1.2942-5.9242-1.0375-2.8739-3.2654-4.2176-8.2289-4.9634-2.4047-0.36127-2.4198-0.37778-0.54096-0.59278 4.2954-0.49156 6.6177-1.3823 7.8829-3.0235 0.78528-1.0187 1.7084-4.3158 2.2367-7.9889 0.11643-0.80943 0.29727-0.23421 0.79598 2.5318 0.4977 2.7603 1.0928 4.5908 1.7848 5.49 0.68645 0.89192 2.0204 1.732 3.3944 2.1376 1.4754 0.43561 4.3579 0.93909 5.3944 0.94226 0.42156 0.0013 0.66103 0.0607 0.58229 0.14455-0.07355 0.0783-0.36053 0.14236-0.63772 0.14236-0.69536 0-4.0246 0.64652-5.1983 1.0095-3.3963 1.0503-4.8721 3.2431-5.5485 8.2437-0.25364 1.8754-0.59952 2.9032-0.62275 1.8506zm-34.624-3.286c2.16e-4 -0.39826-1.5435-8.652-2.0729-11.083-1.3007-5.9729-3.001-9.6264-5.7011-12.25-0.98617-0.9583-3.4032-2.5064-5.019-3.2145-3.7681-1.6516-9.5726-3.024-16.269-3.8468-1.1536-0.14173-2.0974-0.30139-2.0974-0.35477 0-0.05344 0.65727-0.14338 1.4606-0.19998 2.503-0.17633 8.2905-1.0128 10.742-1.5525 10.653-2.3451 14.47-6.1789 16.772-16.843 0.61007-2.8268 2.1853-11.604 2.1853-12.177 0-0.08513 0.04417-0.12571 0.09817-0.0902 0.05399 0.03553 0.49212 2.2403 0.97359 4.8995 2.1795 12.036 3.4566 15.665 6.6606 18.924 3.4737 3.5328 10.358 5.7178 21.209 6.7323 1.4578 0.13628 2.6507 0.29581 2.6507 0.35454 6.3e-5 0.05876-0.21898 0.10696-0.48676 0.1072-0.26778 2.83e-4 -1.5022 0.13011-2.7431 0.28861-12.021 1.5355-18.499 4.0434-22.079 8.5487-2.7714 3.4874-4.0185 7.5393-5.5382 17.995-0.30712 2.1128-0.60041 3.8692-0.65174 3.903-0.05134 0.03373-0.0933-0.02938-0.09323-0.14026zm51.933-31.105c0-0.34345-1.1248-5.9837-1.4313-7.1771-1.4191-5.5253-4.1449-7.5475-11.913-8.8379-1.3737-0.22824-2.7307-0.41498-3.0155-0.41498-1.0671 0-0.46689-0.24766 0.8136-0.33571 2.0706-0.14239 5.5416-0.76274 7.2732-1.3 0.9135-0.28339 2.0713-0.79827 2.7635-1.2289 2.7818-1.7309 3.7305-3.7767 4.9738-10.726 0.30774-1.7202 0.58589-3.145 0.61809-3.1662 0.0322-0.02123 0.32807 1.4183 0.65749 3.1989 0.99441 5.375 1.6573 7.3802 2.9859 9.0328 0.89952 1.1188 2.8226 2.2865 4.7649 2.8934 1.6763 0.52371 5.065 1.1363 7.1437 1.2914 1.1986 0.08942 1.7565 0.34056 0.75734 0.34094-0.87224 2.84e-4 -4.932 0.70456-6.61 1.1466-1.8702 0.49267-4.0239 1.4515-5.0176 2.2338-1.0113 0.79614-2.3081 2.6535-2.808 4.0221-0.48334 1.323-1.1507 4.4712-1.539 7.2604-0.13627 0.97868-0.28575 1.8062-0.3322 1.8388-0.04644 0.03262-0.08445 4.21e-4 -0.08445-0.07157z" stroke-width=".99999"/>
</svg>
