<svg width="100" height="100" version="1.1" viewBox="0 0 100 100" xmlns="http://www.w3.org/2000/svg">
 <path d="m4.8999 90.654c-3.1793-3.4245-5.0089-5.6458-4.8949-5.9429 0.10011-0.26088 0.58598-0.66031 1.0797-0.88762 2.0124-0.92646 6.1543-2.3417 6.8534-2.3417 0.41097 0 1.0378-0.2636 1.3929-0.58577 11.617-10.538 14.106-12.853 14.004-13.028-0.06696-0.11529-0.73867-1.2233-1.4927-2.4622-1.2508-2.0551-3.7047-9.1327-3.7047-10.685 0-0.47097 0.41191-0.55291 2.7797-0.55291 3.1579 0 3.1506-5e-3 4.8745 3.0811 0.58848 1.0534 1.2153 2.0051 1.3929 2.1149 1.0795 0.66719 2.8388-0.41797 9.3555-5.7707 11.849-9.7331 13.341-11.028 24.067-20.903 1.832-1.6866 9.3742-8.1934 16.76-14.46l13.429-11.393 4.1814-1.4833c2.2997-0.81582 4.4045-1.4833 4.6772-1.4833 0.70392 0 0.41618 0.90997-1.6975 5.3684-1.7685 3.7303-1.8697 3.8616-6.2504 8.109-2.449 2.3745-8.0502 7.8512-12.447 12.17-4.3969 4.3192-12.041 11.538-16.988 16.043-8.2453 7.5081-23.338 22.61-23.876 23.891-0.59434 1.4136-0.28626 1.931 2.0907 3.5116l2.3639 1.5719-0.11552 2.9464c-0.06354 1.6205-0.20782 3.0385-0.32063 3.1511-0.47114 0.4702-8.3263-2.8347-10.762-4.5276l-2.4898-1.7309-2.9145 2.6379c-10.184 9.2179-11.951 10.955-12.316 12.113-0.63909 2.0284-3.1884 7.0138-3.5823 7.0057-0.20616-4e-3 -2.6594-2.4686-5.4517-5.4763z"/>
</svg>
