<?xml version="1.0" encoding="UTF-8" standalone="no"?>
<svg
   width="100"
   height="100"
   version="1.1"
   viewBox="0 0 100 100"
   id="svg1"
   sodipodi:docname="sourcebook.svg"
   inkscape:version="1.3 (0e150ed6c4, 2023-07-21)"
   xmlns:inkscape="http://www.inkscape.org/namespaces/inkscape"
   xmlns:sodipodi="http://sodipodi.sourceforge.net/DTD/sodipodi-0.dtd"
   xmlns="http://www.w3.org/2000/svg"
   xmlns:svg="http://www.w3.org/2000/svg">
  <defs
     id="defs1" />
  <sodipodi:namedview
     id="namedview1"
     pagecolor="#ffffff"
     bordercolor="#000000"
     borderopacity="0.25"
     inkscape:showpageshadow="2"
     inkscape:pageopacity="0.0"
     inkscape:pagecheckerboard="0"
     inkscape:deskcolor="#d1d1d1"
     inkscape:zoom="2.8496403"
     inkscape:cx="49.129007"
     inkscape:cy="48.953546"
     inkscape:window-width="1920"
     inkscape:window-height="1009"
     inkscape:window-x="-8"
     inkscape:window-y="-8"
     inkscape:window-maximized="1"
     inkscape:current-layer="svg1"
     showguides="true" />
  <path
     id="path1"
     d="M 16.666004,0 C 4.1659665,0 4.166,1.25e-5 4.166,12.5 V 83.333984 C 4.166,95.833972 14.583295,100 24.999991,100 H 95.834 V 16.666016 L 87.500012,8.3339844 V 91.666016 h -66.66799 c -4.16668,0 -8.332035,-2.082038 -8.332035,-8.332032 l 66.666038,-0.002 V 0 Z m 15.941412,12.867188 c 0.890897,0.0093 1.793856,0.117497 2.677736,0.330078 4.564641,1.097886 7.629179,4.964927 7.89258,9.96289 0.124801,2.367911 -0.845697,5.574008 -2.458986,8.13086 -0.404305,0.640743 -0.982542,1.439326 -1.039062,1.435546 -0.01902,-0.0012 -0.363143,-0.308975 -0.765625,-0.683593 -0.402493,-0.374618 -1.168703,-1.08411 -1.703126,-1.576172 -0.913804,-0.841323 -1.796438,-1.768492 -2.312501,-2.433594 l -0.226563,-0.292969 0.341797,-0.65039 c 0.376869,-0.717485 0.650114,-1.471269 0.814454,-2.257813 0.149708,-0.716343 0.149248,-2.096998 0,-2.794922 -0.415246,-1.941189 -1.618399,-3.276992 -3.259766,-3.621093 -0.719464,-0.150841 -1.657481,-0.09279 -2.294923,0.144531 -1.463228,0.544778 -2.492615,1.767811 -2.910157,3.455078 -0.128142,0.51782 -0.145747,1.82861 -0.03125,2.394531 0.07472,0.369261 0.07044,0.450846 -0.07031,1.123047 -0.225583,1.077365 -0.305947,2.039578 -0.259765,3.095703 0.02191,0.501207 0.06334,1.026069 0.0918,1.167969 l 0.05078,0.257813 -0.410157,-0.220704 c -1.479787,-0.799264 -2.798078,-2.09107 -3.607423,-3.535156 -0.310016,-0.55313 -0.882792,-1.894078 -0.888672,-2.080078 -0.0042,-0.131203 -0.24012,0.34474 -0.4375,0.884766 -0.569146,1.557247 -0.712309,3.171093 -0.41211,4.636718 0.05943,0.290162 0.100975,0.536369 0.0918,0.546875 -0.02925,0.03348 -0.73868,-0.815792 -0.988281,-1.183593 -0.621065,-0.915125 -1.122249,-2.235913 -1.35547,-3.574219 -0.189529,-1.087505 -0.190052,-2.767096 -0.002,-3.818359 0.220621,-1.233427 0.784388,-2.662908 1.224609,-3.105469 0.11846,-0.119088 0.11835,-0.116165 0.119142,0.365234 8.8e-4,0.529149 0.166449,1.436551 0.332031,1.820313 l 0.105469,0.242187 0.115234,-0.554687 c 0.392149,-1.897027 1.683943,-4.197615 3.218751,-5.732422 0.425541,-0.425539 1.383915,-1.182554 1.433594,-1.132813 0.0135,0.0135 -0.04952,0.238655 -0.138672,0.501953 -0.110077,0.325082 -0.170622,0.660074 -0.191406,1.041016 l -0.03125,0.560547 0.478516,-0.472656 c 1.574199,-1.550302 4.133953,-2.404969 6.806643,-2.376953 z m -3.623049,10.68164 c 0.03882,-0.0049 0.05293,0.122887 0.08008,0.529297 0.09551,1.429747 0.602307,2.653727 1.707032,4.121094 0.552021,0.733264 1.83593,2.023187 3.466798,3.484375 2.341392,2.097849 3.371177,3.187709 4.005861,4.240234 0.263533,0.437048 0.271227,0.409299 0.03906,-0.134766 -0.643384,-1.507627 -1.656433,-2.73676 -4.044924,-4.90625 -1.836849,-1.668487 -2.258319,-2.114422 -2.38672,-2.527343 -0.159097,-0.511594 -0.138686,-2.291472 0.0332,-2.916016 0.165547,-0.601442 0.35428,-1.091836 0.490235,-1.267578 0.109303,-0.141258 0.111095,-0.138004 0.123047,0.347656 0.01684,0.684304 0.249579,1.538179 0.636719,2.339844 0.715203,1.480806 1.702674,2.639298 4.203126,4.929687 1.91785,1.756689 2.543661,2.438075 3.277345,3.56836 0.423463,0.652322 0.705575,1.25396 0.921876,1.964844 0.145178,0.477121 0.165578,0.644883 0.169922,1.429687 l 0.0039,0.888672 0.189453,0.07031 c 0.536474,0.193998 0.996094,0.789387 0.996094,1.292968 0,0.128821 0.02882,0.230469 0.06641,0.230469 0.03709,0 0.230237,-0.08614 0.427734,-0.191406 0.395053,-0.210565 1.069206,-0.87938 1.259767,-1.25 l 0.117187,-0.228516 0.04492,0.236328 c 0.06271,0.332696 -0.007,1.499107 -0.121093,2.03125 -0.374972,1.750328 -1.421551,3.439695 -2.609376,4.210938 -0.197305,0.128113 -0.380714,0.234375 -0.40625,0.234375 -0.02554,0 -0.01784,-0.103211 0.01758,-0.228516 0.100932,-0.357056 0.08402,-1.039627 -0.03516,-1.412109 -0.141109,-0.441056 -0.463636,-0.875809 -0.816408,-1.09961 -0.598779,-0.379819 -1.654093,-0.607687 -2.88086,-0.623047 -0.393291,-0.0048 -0.714784,-0.01377 -0.714844,-0.01953 -6e-5,-0.006 0.107409,-0.210259 0.238281,-0.455078 0.130874,-0.244813 0.281083,-0.593913 0.333985,-0.775391 0.337195,-1.156803 -0.200718,-1.489795 -2.394532,-1.478515 -1.488367,0.0076 -3.619714,0.314082 -4.541017,0.652344 l -0.228516,0.08398 0.455078,0.0059 c 0.680163,0.0082 1.880021,0.179056 2.351564,0.335938 0.0481,0.01602 0.0045,0.161048 -0.13086,0.4375 -0.444926,0.909124 -0.677338,2.002429 -0.523437,2.46875 0.130477,0.395342 0.528217,0.575966 0.875,0.398437 0.07298,-0.03738 0.238132,-0.167711 0.367187,-0.289062 0.175134,-0.164677 0.224236,-0.188348 0.197266,-0.09766 -0.324351,1.090805 -0.43273,2.167831 -0.253906,2.513671 0.156559,0.302761 0.552527,0.455347 1.0625,0.41211 0.219848,-0.0186 0.46484,-0.0521 0.544923,-0.07617 l 0.144531,-0.04492 -0.175781,0.328125 c -0.251845,0.467349 -0.873216,1.101112 -1.466798,1.496094 -0.904804,0.602043 -2.180939,1.062723 -3.169923,1.146484 l -0.458984,0.03906 0.28125,-0.189453 c 0.565839,-0.382586 1.567733,-1.57162 1.570313,-1.863282 3.65e-4,-0.04182 -0.156708,-0.02443 -0.439454,0.04883 -0.242252,0.06282 -0.754431,0.129232 -1.138672,0.148437 l -0.699219,0.03516 0.257813,-0.207031 c 0.549626,-0.440894 1.040558,-1.276571 1.205078,-2.052734 0.347763,-1.640529 -0.446198,-3.005731 -2.072266,-3.564454 -0.40319,-0.138546 -0.616354,-0.171111 -1.279297,-0.193359 -0.923706,-0.03102 -1.52516,0.08618 -2.226564,0.431641 -0.225542,0.111079 -0.410156,0.176648 -0.410156,0.146484 0,-0.09756 0.392507,-0.855723 0.623047,-1.203125 0.625683,-0.942604 1.63619,-1.878224 2.564454,-2.373047 l 0.484375,-0.257812 -0.210938,-0.08594 c -0.17849,-0.07339 -1.893125,-0.50767 -2.367187,-0.599609 l -0.150391,-0.0293 0.150391,-0.117188 c 0.833164,-0.644283 3.171192,-1.396459 4.642579,-1.49414 0.876184,-0.05814 0.551859,-0.151255 -0.650391,-0.1875 -1.143906,-0.03444 -1.844763,0.04162 -2.929688,0.320312 -1.566788,0.402476 -2.831125,1.069117 -3.673829,1.9375 -0.148962,0.153499 -0.23389,0.279297 -0.189453,0.279297 0.177449,0 1.405975,0.196766 1.949218,0.3125 0.568653,0.121159 0.835342,0.234375 0.552735,0.234375 -0.306998,0 -1.730664,0.537404 -2.679688,1.011719 -1.505229,0.752282 -3.050726,1.770767 -3.917971,2.582031 -0.208452,0.194995 -0.39506,0.355469 -0.414062,0.355469 -0.019,0 0.02063,-0.157483 0.08789,-0.349609 0.322556,-0.921483 0.475054,-2.069612 0.361329,-2.722657 -0.18075,-1.037944 -0.768107,-1.632274 -1.888672,-1.916015 -0.473343,-0.119845 -1.980448,-0.09234 -2.775392,0.05078 -0.610563,0.10995 -0.61991,0.110172 -0.517578,-0.0039 0.191131,-0.21353 1.070674,-0.872853 1.654297,-1.240235 0.317564,-0.199871 1.068599,-0.630688 1.669923,-0.957031 2.364971,-1.283346 2.935049,-1.66298 3.16797,-2.113281 0.280254,-0.541953 -0.279788,-1.517727 -1.507814,-2.626953 -0.24491,-0.221215 -0.606507,-0.504271 -0.804687,-0.626953 l -0.361329,-0.222657 0.695313,-0.01953 c 0.908403,-0.02562 2.17482,0.08195 3.039063,0.257813 0.380776,0.07748 0.700105,0.136123 0.708985,0.128906 0.0088,-0.0072 -0.054,-0.137586 -0.138672,-0.289063 -0.204007,-0.365005 -0.421893,-1.018506 -0.515625,-1.542968 -0.08887,-0.4973 -0.05142,-1.871287 0.06055,-2.236328 l 0.07227,-0.238282 0.222657,0.423828 c 0.315936,0.600424 0.588217,0.94936 1.203126,1.544922 0.876183,0.848644 1.462204,1.253316 3.513673,2.425782 2.340672,1.337705 3.254712,2.060003 3.871094,3.054687 0.09836,0.158719 0.188071,0.287109 0.199219,0.287109 0.05797,0 -0.129386,-0.515065 -0.347656,-0.955078 -0.44027,-0.887523 -1.304002,-1.842411 -2.304689,-2.546875 l -0.466797,-0.328125 -0.140625,-0.560547 c -0.127458,-0.506581 -0.140309,-0.693366 -0.138672,-1.957031 0.0019,-1.496947 0.05979,-1.986829 0.365235,-3.052734 0.149731,-0.522518 0.474155,-1.271065 0.648437,-1.498047 0.0199,-0.02591 0.03393,-0.04134 0.04687,-0.04297 z m 31.255871,9.228516 -0.53125,0.326172 c -0.997565,0.608822 -1.564454,1.171645 -1.564454,1.554687 0,0.203599 0.260126,0.439453 0.482422,0.439453 0.100782,0 0.643268,-0.147308 1.207032,-0.328125 1.274045,-0.408632 1.997623,-0.567886 2.935548,-0.644531 2.544672,-0.207906 5.350593,0.723108 7.845705,2.603516 0.527223,0.397309 1.589542,1.342186 1.550782,1.378906 -0.0097,0.0092 -0.20946,-0.01894 -0.443359,-0.0625 -1.307227,-0.243331 -2.94367,-0.139263 -4.830081,0.30664 -1.337346,0.316118 -2.682982,0.841938 -3.390625,1.324219 l -0.324219,0.220703 -0.402344,-0.242187 c -1.433948,-0.864845 -3.554793,-1.033693 -5.369143,-0.425781 -1.014846,0.33999 -1.952491,0.890634 -2.683594,1.574218 -0.970564,0.907563 -2.851054,3.494234 -4.01758,5.527344 -0.471924,0.822483 -1.467081,2.783626 -1.738282,3.423828 -0.08114,0.191564 -0.161029,0.347467 -0.177734,0.345703 -0.0167,-0.0018 -0.590417,-0.470081 -1.275391,-1.039062 -1.382587,-1.148405 -1.963176,-1.553517 -2.460938,-1.722656 -0.183986,-0.06254 -0.333985,-0.134735 -0.333985,-0.160157 0,-0.06772 1.00043,-1.382374 1.587891,-2.085937 1.099267,-1.316406 3.03365,-3.190392 4.365236,-4.228516 2.768414,-2.15827 5.763555,-3.531117 8.339847,-3.824219 0.871445,-0.09916 0.908411,-0.145882 0.134766,-0.167968 -2.872634,-0.08199 -6.727714,1.414814 -9.703129,3.765625 -0.343634,0.271525 -0.984659,0.859519 -1.425782,1.30664 l -0.802734,0.8125 0.09375,-0.320312 c 0.276943,-0.949084 1.075011,-2.497268 1.871094,-3.626953 1.110666,-1.576028 2.596879,-3.089961 3.953127,-4.027344 0.788824,-0.545192 0.811923,-0.544055 0.435547,-0.0059 -0.645125,0.922443 -0.914596,1.646188 -0.683595,1.83789 0.255831,0.212323 0.782832,-0.01098 1.603517,-0.679687 1.511168,-1.231266 2.025269,-1.633274 2.457032,-1.921875 0.967084,-0.646383 2.135487,-1.125838 2.923829,-1.199219 z m -24.847665,3.363281 c -0.04066,0.04152 0.259189,0.88534 0.455079,1.283203 0.348367,0.707522 0.83216,1.152154 1.476562,1.353516 0.310892,0.09716 0.710938,0.111455 0.710938,0.02539 0,-0.09431 -0.294905,-0.66074 -0.50586,-0.970703 -0.283334,-0.416293 -0.820462,-0.959895 -1.214843,-1.228515 -0.343622,-0.234074 -0.881616,-0.503997 -0.921876,-0.462891 z m -16.86524,3.630859 c 0.02681,0.0023 0.04945,0.01878 0.07617,0.04297 0.302941,0.274165 0.301518,0.885309 -0.0039,2.466797 -0.130806,0.677282 -0.266179,1.476622 -0.300782,1.777344 -0.08541,0.742262 -0.143038,1.550781 -0.111328,1.550781 0.01429,0 0.281921,-0.256215 0.595704,-0.568359 1.281485,-1.274706 3.664947,-2.934784 5.552736,-3.867188 1.330267,-0.657062 1.312198,-0.653771 0.972656,-0.128906 -0.515965,0.797643 -0.863761,1.770365 -1.033203,2.894531 -0.147,0.975304 -0.169495,0.951185 0.427734,0.458985 0.953405,-0.785764 1.863576,-1.21819 2.818361,-1.337891 0.610322,-0.07653 1.535951,0.02954 1.826173,0.208984 0.03807,0.02352 -0.166159,0.28201 -0.492189,0.623047 -2.008089,2.100489 -3.330844,4.495889 -3.867188,7 -0.14829,0.692343 -0.162539,0.88121 -0.164063,2.097656 -0.0018,1.486506 0.05241,1.869783 0.423828,2.986328 0.37787,1.135925 0.853344,1.929361 1.66797,2.777344 0.624421,0.650044 1.067622,0.975015 1.828125,1.341797 2.549952,1.229766 5.265411,0.641923 8.044925,-1.742187 1.354446,-1.161666 2.742475,-2.827596 3.523438,-4.226563 0.133656,-0.239438 0.263223,-0.429393 0.28711,-0.421875 0.104315,0.03282 3.524065,2.878471 4.781252,3.978516 l 0.269531,0.236328 -0.488281,0.943359 c -2.780477,5.361865 -6.534601,8.785757 -11.074223,10.101563 -1.507206,0.436814 -2.561314,0.583689 -4.375001,0.609375 -0.785224,0.0111 -1.523685,0.0082 -1.640626,-0.0059 -2.839874,-0.341197 -5.231811,-1.296313 -7.500002,-2.99414 -0.889805,-0.666125 -1.983392,-1.785758 -2.496095,-2.556641 l -0.423828,-0.636719 -0.01953,0.546875 c -0.01958,0.554416 0.07866,1.57661 0.175781,1.832032 0.02939,0.07729 0.03959,0.140625 0.02148,0.140625 -0.09474,0 -0.516818,-0.389505 -0.890625,-0.820313 -1.645388,-1.896489 -2.872306,-4.884357 -3.367189,-8.201172 -0.138787,-0.930245 -0.157577,-4.004763 -0.0293,-4.861328 0.211363,-1.411205 0.608978,-2.889023 1.07422,-3.992187 0.114823,-0.272251 0.198621,-0.506451 0.185547,-0.519532 -0.07259,-0.07259 -1.395917,0.797508 -2.130861,1.400391 -0.267253,0.219217 -0.494744,0.390028 -0.503906,0.380859 -0.04225,-0.04224 0.397436,-1.17136 0.71875,-1.845703 1.121345,-2.353571 2.99801,-5.012778 5.02344,-7.123047 0.414916,-0.43229 0.536756,-0.553851 0.617187,-0.546875 z m 16.451177,1.796875 0.04297,0.326172 c 0.121867,0.909904 0.860234,1.630835 1.960938,1.916016 0.200036,0.05184 0.68913,0.122362 1.087891,0.15625 0.913866,0.07765 1.244594,0.151594 1.677735,0.378906 0.54286,0.284881 0.749912,0.651841 0.957031,1.691406 0.176594,0.886205 0.288097,1.188481 0.525392,1.425782 0.26888,0.268872 0.48136,0.319924 1.640625,0.392578 1.087805,0.06818 1.576794,0.165773 2.115235,0.423828 0.429531,0.205861 0.744795,0.456281 4.820314,3.830078 3.364098,2.784853 3.68951,3.009641 4.570315,3.158203 1.95391,0.32958 3.642128,-1.56926 3.134766,-3.52539 -0.04738,-0.182658 -0.07896,-0.339011 -0.07031,-0.347657 0.04274,-0.04272 0.833486,0.616998 1.048828,0.875 0.913685,1.094764 1.3285,2.286656 1.31836,3.789063 -0.0092,1.364706 -0.359162,2.340512 -1.117188,3.115234 -0.224882,0.229844 -0.376461,0.429752 -0.341797,0.451172 0.0343,0.02118 0.422072,0.05149 0.861329,0.06641 2.607791,0.08845 4.801789,-1.157179 5.281251,-2.998047 0.211268,-0.811144 0.07267,-1.829369 -0.347656,-2.570312 -0.427329,-0.75331 -1.352666,-1.519543 -2.230469,-1.845703 l -0.458986,-0.169922 1.033205,0.02734 c 1.820168,0.04896 3.11424,0.454431 4.578126,1.433593 1.066627,0.713464 2.09375,1.927159 2.564454,3.033203 1.277886,3.003014 0.204829,6.371724 -2.632814,8.269532 -1.489686,0.996426 -2.993127,1.419831 -4.916016,1.382812 -1.127885,-0.02172 -1.120727,-0.02677 -0.544923,0.355469 1.098727,0.729424 3.103456,1.22444 4.306642,1.0625 0.268405,-0.03612 0.600461,-0.104855 0.738282,-0.152344 0.137843,-0.04746 0.250354,-0.07 0.25,-0.04883 -3.66e-4,0.02112 -0.103577,0.166712 -0.228516,0.324219 -0.865024,1.090445 -2.94642,2.186474 -4.935549,2.597656 -0.47405,0.09798 -2.044748,0.26808 -2.179687,0.236328 -0.02022,-0.0048 -0.311798,-0.02889 -0.646486,-0.05469 -2.722392,-0.210109 -4.956613,-1.711041 -6.255861,-4.201172 -0.477644,-0.915184 -0.880859,-2.229512 -0.88086,-2.871094 0,-0.118357 -0.02627,-0.214844 -0.05859,-0.214844 -0.102768,0 -0.532595,0.621461 -0.757813,1.095703 -0.313879,0.661024 -0.416782,1.219119 -0.376953,2.033204 0.01798,0.367549 0.07625,0.832742 0.130859,1.033203 0.143923,0.52832 0.469524,1.176958 0.753907,1.5 0.297174,0.337608 0.234899,0.336135 -0.523438,-0.01367 -1.543507,-0.711962 -2.720471,-2.021948 -3.195313,-3.552735 -0.263389,-0.849123 -0.311346,-1.465609 -0.22461,-2.978515 0.08638,-1.506608 0.05572,-2.615708 -0.08789,-3.15625 -0.180591,-0.679679 -0.554522,-1.341198 -1.058595,-1.869141 -0.530918,-0.556112 -2.575199,-2.300126 -4.748048,-4.052734 -0.818645,-0.660303 -1.656307,-1.377056 -1.861329,-1.591797 -0.824163,-0.863044 -1.235114,-1.741447 -1.359375,-2.894531 -0.166412,-1.544948 -0.264759,-1.833677 -0.804688,-2.392578 -0.17489,-0.181028 -0.618827,-0.558346 -0.986329,-0.839844 -1.259285,-0.964504 -1.656109,-1.497301 -1.792969,-2.402344 -0.06912,-0.457202 -0.0081,-1.073732 0.144531,-1.445312 z" />
</svg>
