<svg width="100" height="100" version="1.1" viewBox="0 0 100 100" xml:space="preserve" xmlns="http://www.w3.org/2000/svg"><path d="m48.438 99.331c-0.59082-0.34831-3.4912-2.023-6.4453-3.7215-2.9541-1.6985-6.8213-3.9224-8.5938-4.942-1.7725-1.0196-5.2441-3.0159-7.7148-4.4361s-6.2939-3.619-8.4961-4.8862-5.498-3.1592-7.3242-4.2046l-3.3203-1.9008-0.099119-50.376 5.323-3.0319c2.9276-1.6675 11.08-6.3096 18.116-10.316 7.0361-4.0061 14.451-8.234 16.478-9.3953l3.6847-2.1115 16.53 9.4991c9.0916 5.2245 17.848 10.26 19.46 11.189s3.9624 2.2846 5.2246 3.0113l2.2949 1.3212v50.102l-0.53324 0.24296c-0.29328 0.13363-2.7322 1.4992-5.4199 3.0346-2.6877 1.5354-9.3252 5.3177-14.75 8.4051-5.4248 3.0874-12.764 7.2676-16.309 9.2894s-6.5771 3.7174-6.7383 3.768c-0.16113 0.0506-0.77637-0.19298-1.3672-0.54129zm6.6103-5.2215c5.2578-2.9899 24.828-14.135 30.597-17.425l3.125-1.7822-17.773-0.05039c-9.7754-0.02772-17.861-0.01713-17.969 0.02351-0.12952 0.04901-0.13633 1.8352-0.0202 5.3027 0.19968 5.9621 0.34806 5.1063-1.7269 9.9586-1.1295 2.6413-1.2716 2.8816-1.444 2.4414-0.10514-0.26854-0.77143-1.9673-1.4806-3.775l-1.2895-3.2868 0.1023-2.7679c0.05627-1.5224 0.14732-3.9325 0.20234-5.3558l0.10004-2.5879h-18.211c-15.224 0-18.164 0.04288-17.925 0.26146 0.1573 0.1438 3.7137 2.2236 7.9032 4.6218s11.089 6.3584 15.332 8.8005c13.517 7.7797 14.929 8.5819 15.102 8.5819 0.09316 0 2.5121-1.3322 5.3755-2.9605zm-7.5869-21.747c0-0.4834 1.1e-5 -0.92319 2.5e-5 -0.97731 1.3e-5 -0.05412-0.94481-0.13586-2.0996-0.18165-1.1548-0.04579-2.4196-0.17876-2.8106-0.29548-1.1028-0.3292-2.1338-1.3967-4.8203-4.9909l-2.4818-3.3203-3.4616-0.11358 0.08378 3.5494c0.08077 3.4218 0.09996 3.5625 0.53434 3.9142 0.26734 0.21648 0.75946 0.36484 1.2102 0.36484 0.6294 0 0.75961 0.06696 0.75961 0.39062 0 0.21484-0.10986 0.39839-0.24414 0.40789-1.5847 0.11205-6.6701-0.01745-6.8265-0.17383-0.3083-0.3083 0.0021-0.62468 0.61293-0.62468 1.0965 0 1.0818 0.1239 1.1428-9.5788 0.06242-9.9177 0.10776-9.5619-1.2181-9.5619-0.71034 0-1.148-0.36197-0.90772-0.75075 0.12011-0.19435 1.1842-0.23352 4.8228-0.17754 5.5497 0.08539 6.2826 0.26543 7.7572 1.9055 1.9941 2.2179 1.6911 5.3372-0.81025 8.3412l-1.01 1.2129 2.3739 2.9735c1.3056 1.6354 2.7781 3.3667 3.2721 3.8474 1.0644 1.0356 2.5654 1.7839 3.5838 1.7866l0.73242 0.0019v-2.9371l0.53711 0.15021c0.70243 0.19644 2.9106 0.19271 3.6856-0.0062 0.79403-0.20383 0.84934 0.0058 0.85279 3.2326l0.0027 2.4902h18.457c10.151 0 18.457-0.03524 18.457-0.0783 0-0.07283-1.9091-3.4149-7.3188-12.812-1.2058-2.0947-3.568-6.1982-5.2493-9.1188-1.6813-2.9206-3.0569-5.3596-3.0569-5.4199 0-0.06036 0.20215-0.10976 0.44922-0.10976 0.24707 0 0.54495-0.09573 0.66195-0.21273 0.15343-0.15343 0.50989 0.29572 1.2788 1.6113 1.4156 2.4221 3.8426 6.6123 9.4281 16.277 2.5453 4.4043 4.7068 8.0913 4.8033 8.1934 0.10388 0.10982 0.17553-8.9581 0.17552-22.217 0-12.321-0.06988-22.402-0.1553-22.402-0.14744 0-9.0851 3.3346-16.786 6.2627-1.9592 0.74498-3.6319 1.3545-3.7169 1.3545-0.15904 0-0.67331-1.1946-0.56214-1.3058 0.03411-0.03411 1.9003-0.75712 4.147-1.6067 2.2467-0.84958 5.9746-2.2625 8.2842-3.1398 2.3096-0.87729 4.9243-1.8603 5.8105-2.1844 0.88623-0.32414 1.6106-0.64695 1.6097-0.71736-8.86e-4 -0.07041-0.33048-0.30936-0.73242-0.53101-0.40198-0.22167-4.0707-2.3251-8.1527-4.6742s-10.015-5.7607-13.184-7.5812c-3.1689-1.8205-7.5195-4.3239-9.668-5.5631-5.2141-3.0075-6.1783-3.5558-6.253-3.5558-0.05238 0 4.1072 7.2606 6.9374 12.109 0.40756 0.69824 1.5498 2.6758 2.5383 4.3945s2.1304 3.6963 2.5375 4.3945c0.40715 0.69824 1.659 2.8612 2.7818 4.8066l2.0416 3.537-0.89726-0.09403c-0.49349-0.05172-0.95506-0.14924-1.0257-0.21671-0.07065-0.06748-0.98814-1.6168-2.0389-3.443-1.0507-1.8262-2.9265-5.0795-4.1684-7.2295-1.2419-2.1501-4.0158-6.9583-6.1643-10.685-2.9079-5.0439-3.9604-6.7154-4.1182-6.54-0.11657 0.1296-2.7503 4.6302-5.8528 10.001-3.1025 5.3711-6.1009 10.557-6.6631 11.523s-1.6639 2.8781-2.448 4.2473l-1.4257 2.4895-0.83008 7.08e-4c-0.45654 3.89e-4 -0.83008-0.04841-0.83008-0.10844 0-0.06003 1.2587-2.2793 2.7971-4.9316 1.5384-2.6524 4.4978-7.7668 6.5764-11.365 2.0786-3.5986 4.5936-7.9475 5.5888-9.6642 1.7066-2.9436 1.9863-3.5588 1.3998-3.0782-0.13687 0.11215-2.0946 1.2552-4.3504 2.5402-2.2559 1.285-8.4961 4.8399-13.867 7.8999-5.3711 3.06-11.743 6.6859-14.16 8.0575-2.417 1.3716-4.6906 2.6729-5.0525 2.8918l-0.65795 0.39787 3.0791 1.1377c1.6935 0.62573 3.1005 1.1614 3.1266 1.1904 0.02611 0.02902-0.28105 0.28413-0.68256 0.56691l-0.73003 0.51415-5.9187-2.242 0.011486 22.775c0.00779 15.451 0.075141 22.681 0.20942 22.482 0.10886-0.16113 3.0274-5.2144 6.4857-11.23l6.2878-10.937 0.77819 0.06607c0.42801 0.03634 0.80118 0.0882 0.82928 0.11524 0.0281 0.02704-0.98927 1.8426-2.2608 4.0345-1.2715 2.192-3.5296 6.0947-5.0179 8.6729-1.4883 2.5781-3.4372 5.9501-4.331 7.4932-0.89375 1.5431-1.625 2.8395-1.625 2.8809 0 0.04133 8.3496 0.07515 18.555 0.07515h18.555zm0.48828-5.449c-2.7037-0.85507-4.2691-3.0118-4.2672-5.8791 0.0014-2.1293 1.4669-4.3028 3.5109-5.2069 0.46969-0.20777 0.85519-0.39562 0.85666-0.41745 0.04481-0.66378 0.57663-19.614 0.60406-21.524l0.03926-2.7344-3.2039 0.07186c-3.6845 0.08264-4.3068 0.24916-4.8005 1.2845-0.31925 0.66948-0.84827 0.95258-0.84137 0.45025 6e-3 -0.43893 0.72196-3.6713 0.83909-3.7884 0.0628-0.0628 0.39545-0.01612 0.73923 0.10372 0.36616 0.12765 2.0165 0.21789 3.9845 0.21789l3.3594 1e-6 0.13646-3.2312 0.13646-3.2312-0.90698-0.82149c-0.77097-0.6983-0.92224-0.95714-1.0088-1.7261-0.05598-0.49752 0.0022-1.2197 0.12936-1.6049 0.63752-1.9317 3.3313-2.5088 4.8097-1.0304 1.2623 1.2623 1.2223 3.1119-0.09406 4.3507l-0.70199 0.66062 0.05784 3.3295 0.05784 3.3295 4.2928-0.04014c2.361-0.02208 4.3421 0.0091 4.4023 0.06939 0.21424 0.21424-0.16138 4.0658-0.38918 3.9907-0.12014-0.03963-0.26238-0.37269-0.31609-0.74013-0.08213-0.56182-0.23743-0.73493-0.97656-1.0885-0.73364-0.35093-1.3759-0.44066-3.8861-0.54292l-3.0072-0.1225 0.12451 3.6679c0.06848 2.0174 0.21607 6.7001 0.32797 10.406 0.11191 3.7061 0.25178 7.5381 0.31081 8.5156l0.10734 1.7773 1.0579 0.43849c2.0288 0.84087 3.2069 2.7821 3.2069 5.2842 0 2.2922-0.88649 3.9651-2.6484 4.9976-1.696 0.99391-4.3077 1.3327-6.043 0.78386zm4.5658-1.0491c1.8769-0.95034 2.4037-5.2511 0.94031-7.6765-1.072-1.7768-1.112-1.6541-0.97714 3.0026l0.12126 4.1882-0.73697 0.24322c-1.0221 0.33731-2.3077 0.14742-3.2575-0.48117l-0.8019-0.53067 0.14298-4.1061c0.15881-4.5605 0.13954-4.6202-1.0076-3.1205-1.1623 1.5196-1.3206 4.1389-0.375 6.2044 0.49201 1.0747 1.6323 2.1637 2.682 2.5613 0.82864 0.31388 2.3487 0.18148 3.2695-0.28476zm-1.5035-44.972c0.47823-0.47823 0.56554-0.6923 0.45804-1.123-0.19936-0.79887-0.67278-1.2158-1.3805-1.2158-1.4293 0-2.0517 1.5588-0.98769 2.474 0.70809 0.60907 1.2009 0.57421 1.9102-0.13512zm7.3869 45.317c0-0.10742 0.21032-0.19531 0.46738-0.19531 0.25874 0 0.53321-0.15258 0.61485-0.3418 0.2219-0.51433 0.35204-8.8354 0.15022-9.6046-0.13546-0.51631-0.32965-0.72475-0.85048-0.91288-0.59788-0.21596-0.37392-0.24348 1.9618-0.24104 1.9545 2e-3 2.4736 0.04988 2.0065 0.18487-0.34664 0.10016-0.72617 0.36132-0.84339 0.58035-0.14141 0.26423-0.19222 1.8708-0.15099 4.7741 0.05225 3.6794 0.11147 4.4252 0.3721 4.6855 0.46783 0.46726 3.38 0.45744 3.9-0.01315 0.20893-0.18908 0.37988-0.50594 0.37988-0.70414s0.09921-0.36035 0.22048-0.36035c0.21292 0 0.09267 1.7998-0.14606 2.186-0.14592 0.2361-8.0822 0.19917-8.0822-0.03761zm9.9609 0c0-0.10742 0.21032-0.19531 0.46738-0.19531s0.52073-0.13902 0.58594-0.30894c0.0652-0.16992 0.11855-2.5451 0.11855-5.2783v-4.9693l-0.50467-0.19188c-0.27757-0.10553-0.57911-0.14587-0.6701-0.08964-0.09099 0.05623-0.21844 0.01646-0.28323-0.08838-0.0747-0.12087 1.3318-0.21137 3.8439-0.24733 2.179-0.03119 3.9859-0.04716 4.0155-0.03549 0.13858 0.0547-0.22588 2.2249-0.37364 2.2249-0.09263 0-0.16842-0.16502-0.16842-0.36671 0-0.59635-0.40021-0.75887-2.0508-0.83282l-1.5625-0.07-0.11132 4.0039h1.7256c1.0682 0 1.8136-0.08805 1.9567-0.23112 0.12712-0.12712 0.26425-0.19303 0.30474-0.14648 0.14762 0.16971-0.11907 2.526-0.28589 2.526-0.09451 0-0.17184-0.16502-0.17184-0.36671 0-0.59024-0.39748-0.75986-1.9531-0.83349l-1.4648-0.06933-0.05943 1.6602c-0.08467 2.3653 0.03649 2.8494 0.7778 3.1079 0.78341 0.2731 1.8876 0.27094 2.6798-0.0052 0.45548-0.15878 0.65494-0.37017 0.73715-0.78125 0.06199-0.30996 0.20186-0.56357 0.31082-0.56357 0.20271 0 0.07673 1.7828-0.15215 2.1531-0.16122 0.26086-7.712 0.2563-7.712-0.0047zm-47.852-17.499c-4.2063-0.90127-7.5686-4.1305-8.3795-8.048-0.7766-3.7515 0.31997-7.7572 2.814-10.279 2.7571-2.788 6.8547-3.6241 12.926-2.6373 1.3673 0.22224 2.5596 0.44952 2.6495 0.50507 0.22113 0.13667-0.04982 4.9839-0.29595 5.2944-0.30519 0.38502-0.72954-0.08905-0.72954-0.81502 0-1.0101-0.77446-2.3041-1.6731-2.7955-1.4296-0.78177-3.0911-1.0866-5.3557-0.98261-3.5696 0.16391-5.4217 1.2486-6.7618 3.96-0.66245 1.3404-0.72032 1.6012-0.81097 3.6554-0.05707 1.2932-0.0068 2.6354 0.12094 3.2312 0.74435 3.4708 3.7647 6.4898 7.2738 7.2706 0.64579 0.14369 1.846 0.20814 2.9297 0.15733 2.8188-0.13216 3.9475-0.89444 4.5002-3.0392 0.15633-0.6066 0.31284-0.83008 0.58136-0.83008 0.30467 0 0.36744 0.14849 0.36744 0.86929 0 0.47811-0.09349 1.335-0.20776 1.9043-0.42391 2.1118-0.57088 2.2588-2.6827 2.6827-1.4293 0.28691-5.7296 0.22567-7.2658-0.10348zm42.631-4.2743c-3.2643-0.91773-4.9598-3.7633-4.0687-6.8285 0.3872-1.3319 1.5731-2.7298 2.7669-3.2613 1.2669-0.5641 3.2423-0.74884 5.2527-0.49124l1.7578 0.22524 0.05857 1.123c0.07813 1.4979-0.19813 2.0147-0.51378 0.96117-0.27694-0.92435-0.85952-1.3452-2.2193-1.603-3.1801-0.60309-5.0736 0.95499-5.0945 4.1919-0.02172 3.3712 2.2399 5.4161 5.5241 4.9948 1.0315-0.13233 1.3306-0.34342 2.1051-1.4854 0.21351-0.31486 0.23366-0.21003 0.13538 0.70431-0.06351 0.59082-0.23769 1.1983-0.38707 1.35-0.40298 0.4091-3.9993 0.4897-5.3173 0.11916zm-31.977-0.08297c0.10205-0.09699 0.36065-0.20793 0.57467-0.24652 0.56018-0.10102 0.63583-0.70392 0.66199-5.2761 0.02523-4.4094-0.03215-4.6526-1.0976-4.6526-0.27878 0-0.44682-0.06006-0.37342-0.13347 0.07341-0.07341 1.5148-0.10997 3.2031-0.08126 3.4579 0.05881 4.1237 0.23166 4.7314 1.2284 0.70991 1.1644 0.48274 2.1877-0.79285 3.5716l-0.80867 0.8773 1.0343 1.2238c1.9272 2.2803 2.79 3.0829 3.5274 3.2814 0.72932 0.19638 1.3267 0.08861 1.5829-0.28558 0.07892-0.11526 0.14484-2.2354 0.14648-4.7115 0.0031-4.6659-0.04702-4.9707-0.81732-4.9707-0.19336 0-0.35156-0.06592-0.35156-0.14648 0-0.08057 0.9668-0.14648 2.1484-0.14648s2.1484 0.06592 2.1484 0.14648c0 0.08057-0.1582 0.14648-0.35156 0.14648-0.76871 0-0.82031 0.30862-0.82031 4.9059 0 2.4404 0.05335 4.5762 0.11855 4.7461 0.06951 0.18115 0.34751 0.30894 0.67207 0.30894 0.30443 0 0.60783 0.08789 0.67422 0.19531 0.07885 0.12758-1.1602 0.19531-3.5729 0.19531-4.3948 0-4.296 0.0401-6.2597-2.5391-1.0718-1.4077-1.3707-1.6792-1.9657-1.7856-0.38592-0.069-0.76759-0.08578-0.84816-0.0373-0.21406 0.12881-0.17914 2.8835 0.04399 3.4703 0.13338 0.35083 0.33483 0.501 0.67207 0.501 0.26487 0 0.53591 0.08789 0.6023 0.19531 0.07797 0.12615-0.72714 0.19531-2.2736 0.19531-1.4314 0-2.3197-0.07092-2.2088-0.17636zm5.5307-5.3625c0.97181-1.0344 0.93682-2.8887-0.0724-3.8368-0.36998-0.34758-0.7246-0.46649-1.4182-0.47556l-0.92487-0.01209-0.0558 2.1359c-0.03069 1.1747-0.01148 2.2514 0.0427 2.3926 0.06266 0.1633 0.44367 0.25669 1.0471 0.25669 0.74421 0 1.0419-0.09928 1.3814-0.46069zm16.735 5.3625c0.10205-0.09699 0.36133-0.20777 0.57617-0.24618 0.51504-0.09206 0.64615-1.2039 0.64117-5.4368-0.0047-4.0061-0.06885-4.3517-0.83812-4.5163-0.78816-0.16862-0.62164-0.18625 1.7594-0.18625 2.3818 0 2.5478 0.01761 1.7578 0.18654l-0.58594 0.12529v9.7618l0.58594 0.06386c0.32226 0.03512 0.66943 0.14498 0.77148 0.24414 0.11367 0.11044-0.79052 0.18028-2.334 0.18028-1.5059 0-2.4449-0.07095-2.334-0.17636zm15.713-0.01896c0-0.10742 0.2061-0.19531 0.45801-0.19531 0.25191 0 0.59704-0.15381 0.76696-0.3418 0.16992-0.18799 1.2338-2.4862 2.3641-5.1072s2.1475-4.8578 2.2604-4.9707c0.12886-0.12886 0.26692-0.13619 0.37092-0.01971 0.09111 0.10205 1.0621 2.2949 2.1577 4.873s2.145 4.8892 2.332 5.1356c0.39046 0.51472 1.8092 0.68492 2.2271 0.26718 0.27413-0.27403 0.48745-7.7027 0.25653-8.9336-0.10449-0.55696-0.23373-0.70341-0.70378-0.79742-1.1738-0.23476-0.51136-0.3582 1.7191-0.32033 2.6064 0.04426 2.7549 0.06321 1.8089 0.23088-0.65422 0.11596-0.6879 0.16355-0.84569 1.195-0.09038 0.59082-0.12588 2.5618-0.07889 4.38 0.08122 3.1422 0.10722 3.3234 0.52553 3.6621 0.31587 0.25577 0.76837 0.35636 1.6032 0.35636 1.3951 0 1.8624-0.2191 2.2199-1.0408l0.26943-0.61939 0.0076 0.61035c0.0042 0.33569-0.04729 0.88501-0.11443 1.2207l-0.12207 0.61035h-5.6636c-4.6801 0-5.6263-0.04494-5.4488-0.25883 0.1605-0.19339 0.07411-0.62545-0.34172-1.709l-0.55653-1.4502-3.7139-0.11124-0.51177 1.2784c-0.54781 1.3684-0.62795 1.8457-0.31646 1.8846 0.10742 0.01343 0.27588 0.0354 0.37435 0.04883s0.24496 0.09033 0.32552 0.1709c0.08057 0.08057-0.70312 0.14648-1.7415 0.14648-1.1285 0-1.888-0.07857-1.888-0.19531zm6.9472-4.4434c-0.67174-1.8248-1.1805-3.1027-1.2855-3.2288-0.06989-0.08393-0.41438 0.57525-0.76552 1.4648s-0.68299 1.7273-0.73744 1.8616c-0.07411 0.18277 0.27975 0.24414 1.4076 0.24414 1.3526 0 1.4938-0.03494 1.3808-0.3418zm-40.084 21.057c1.2818-0.48736 1.9427-1.8696 1.9668-4.1135 0.03713-3.4627-1.5693-5.2754-4.6697-5.2694-0.53711 1e-3 -1.0881 0.0727-1.2245 0.15924-0.1911 0.12129-0.23585 1.1829-0.19531 4.6339l0.05259 4.4765 0.58594 0.12519c0.9211 0.19679 2.9535 0.18982 3.4842-0.01195z"/></svg>
