<svg id="layer" width="100" height="100" version="1.1" viewBox="0 0 100 100" xmlns="http://www.w3.org/2000/svg">
 <path d="m94.742 55.955c-3.5408-3.4335-8.2618-6.0086-14.378-7.7253 2.4678-0.64378 4.721-1.6094 6.7597-2.897 2.1459-1.2876 3.7554-2.5751 5.1502-4.1846 1.3948-1.6094 2.5751-3.2189 3.2189-5.0429 0.85837-1.6094 1.1803-3.2189 1.1803-4.8283v-3.1116c0-3.7554-0.85837-7.2962-2.5751-10.3-1.824-3.1116-4.1846-5.794-7.4034-7.9399-3.2189-2.2532-7.7253-3.8627-12.232-5.1502-4.5064-1.1803-9.5494-1.824-15.021-1.824h-56.438l8.3691 8.691v29.614h-11.373l11.481 14.7v32.404l-8.3691 8.691h59.335c11.159 0 20.815-1.9313 27.575-6.0086 6.7597-4.0773 9.9785-9.8713 9.9785-17.704v-5.3648c-0.10729-4.5065-1.9313-8.5837-5.2575-12.017zm-56.009-35.408h15.129c4.3991 0 7.9399 0.64378 10.622 1.9313 2.7897 1.2876 4.0773 3.7554 4.0773 7.2962v3.1116c0 2.7897-0.96566 4.8283-3.1116 6.4378-2.1459 1.6094-4.8283 2.4678-8.3691 2.4678h-18.348zm33.047 50.322c0 1.9313-0.32189 3.5408-1.1803 4.721-0.85837 1.1803-1.824 2.1459-3.1116 2.897-1.2876 0.64378-2.7897 1.1803-4.5064 1.5022-1.824 0.21459-3.5408 0.32189-5.3648 0.32189h-18.884v-22.747h19.206c3.5408 0 6.6524 0.85837 9.5494 2.4678 2.7897 1.6094 4.1846 3.7554 4.1846 6.4378v4.5065h0.1073z"/>
</svg>
