<svg width="100" height="100" version="1.1" viewBox="0 0 100 100" xmlns="http://www.w3.org/2000/svg">
 <path d="m77.793 98.04c-4.5373-0.35018-8.2616-2.8505-10.427-7.0007-0.79607-1.5253-1.4682-3.7159-1.4682-4.7852 0-0.19726-0.04409-0.35865-0.09798-0.35865-0.17128 0-0.88754 1.0357-1.2629 1.8261-0.52313 1.1017-0.69588 2.0316-0.6295 3.3884 0.02997 0.61258 0.12897 1.3872 0.21999 1.7213 0.23987 0.88053 0.78373 1.9616 1.2577 2.5 0.49529 0.56268 0.39024 0.55991-0.87365-0.0231-2.5725-1.1866-4.5359-3.3683-5.3273-5.9196-0.43898-1.4152-0.516-2.4452-0.37144-4.9667 0.14396-2.511 0.0923-4.359-0.14705-5.2599-0.30098-1.1328-0.92538-2.2343-1.7655-3.1142-0.88486-0.92685-4.2903-3.8347-7.9117-6.7557-1.3644-1.1005-2.7603-2.2937-3.102-2.6516-1.3736-1.4384-2.0616-2.9011-2.2687-4.8229-0.27735-2.5749-0.43902-3.0564-1.3389-3.9879-0.29148-0.30171-1.0312-0.93244-1.6437-1.4016-2.0988-1.6075-2.7618-2.4953-2.9899-4.0037-0.1152-0.762-0.01194-1.7877 0.24232-2.407l0.1314-0.32008 0.07279 0.54346c0.20311 1.5165 1.4325 2.7183 3.267 3.1936 0.33339 0.0864 1.1499 0.20327 1.8145 0.25975 1.5231 0.12941 2.0748 0.25433 2.7967 0.63318 0.90476 0.4748 1.2511 1.0863 1.5963 2.8189 0.29432 1.477 0.47971 1.9802 0.8752 2.3757 0.44813 0.44812 0.7999 0.53225 2.732 0.65334 1.813 0.11363 2.6296 0.27743 3.527 0.70752 0.71588 0.3431 1.2393 0.75903 8.0318 6.382 5.6068 4.6414 6.1505 5.0172 7.6185 5.2648 3.2565 0.5493 6.0707-2.6152 5.2251-5.8754-0.07897-0.30443-0.13178-0.56531-0.11736-0.57972 0.07124-0.0712 1.3898 1.0286 1.7487 1.4586 1.5228 1.8246 2.2133 3.8092 2.1964 6.3132-0.01531 2.2745-0.59873 3.9014-1.8621 5.1926-0.3748 0.38307-0.62812 0.71767-0.57035 0.75337 0.05716 0.0353 0.70291 0.0845 1.435 0.10937 4.3463 0.14742 8.0032-1.9283 8.8023-4.9964 0.35211-1.3519 0.12344-3.0497-0.57711-4.2846-0.71221-1.2555-2.257-2.5332-3.72-3.0768l-0.76236-0.28325 1.7213 0.0463c3.0336 0.0816 5.1893 0.75657 7.6291 2.3885 1.7777 1.1891 3.4886 3.2142 4.2731 5.0576 2.1298 5.005 0.34318 10.619-4.3862 13.782-2.4828 1.6607-4.9873 2.3649-8.1921 2.3032-1.8798-0.0362-1.8688-0.0433-0.90913 0.59376 1.8312 1.2157 5.1709 2.0391 7.1762 1.7692 0.44734-0.0602 1.0013-0.17421 1.231-0.25336 0.22974-0.0791 0.41722-0.11508 0.41663-0.0798-6.1e-4 0.0352-0.17146 0.27887-0.37969 0.54138-1.4417 1.8174-4.9105 3.6423-8.2257 4.3276-0.79008 0.16331-3.4096 0.44819-3.6345 0.39527-0.03371-8e-3 -0.51759-0.0496-1.0754-0.0926zm-51.283-1.6762c-4.7331-0.56866-8.7207-2.1605-12.501-4.9902-1.483-1.1102-3.3041-2.9761-4.1586-4.2609l-0.70561-1.061-0.0321 0.90907c-0.03263 0.92402 0.13057 2.6286 0.29244 3.0543 0.04898 0.12882 0.06435 0.23421 0.03416 0.23421-0.1579 0-0.86149-0.64699-1.4845-1.365-2.7423-3.1608-4.7876-8.143-5.6124-13.671-0.23131-1.5504-0.26142-6.6727-0.04762-8.1003 0.35227-2.352 1.0152-4.8154 1.7906-6.654 0.19137-0.45375 0.33011-0.84283 0.30832-0.86463-0.12099-0.12099-2.3266 1.3273-3.5515 2.3321-0.44542 0.36536-0.82236 0.6518-0.83763 0.63652-0.070417-0.0704 0.66238-1.9523 1.1979-3.0762 1.8689-3.9226 4.9942-8.3559 8.3699-11.873 0.92203-0.96064 0.97773-1.0011 1.1559-0.83983 0.5049 0.45694 0.50354 1.4754-0.0055 4.1112-0.21801 1.1288-0.44356 2.4625-0.50123 2.9637-0.14235 1.2371-0.23964 2.582-0.18679 2.582 0.02382 0 0.4712-0.42563 0.99417-0.94587 2.1358-2.1245 6.1073-4.8904 9.2536-6.4444 2.2171-1.0951 2.1872-1.0911 1.6213-0.21633-0.85994 1.3294-1.4388 2.9523-1.7212 4.8259-0.245 1.6255-0.28369 1.584 0.71169 0.76367 1.589-1.3096 3.1054-2.0292 4.6967-2.2287 1.0172-0.12754 2.5618 0.0488 3.0455 0.34787 0.06346 0.0392-0.27704 0.47031-0.82042 1.0387-3.3468 3.5008-5.5525 7.4925-6.4464 11.666-0.24715 1.1539-0.2718 1.468-0.27434 3.4954-0.0031 2.4775 0.0878 3.1179 0.70682 4.9788 0.62978 1.8932 1.4237 3.2139 2.7814 4.6272 1.0407 1.0834 1.778 1.6246 3.0455 2.2359 4.2499 2.0496 8.7775 1.069 13.41-2.9045 2.2574-1.9361 4.5711-4.7107 5.8727-7.0423 0.22276-0.39906 0.43759-0.71532 0.4774-0.70279 0.17386 0.0547 5.8744 4.7978 7.9697 6.6312l0.44813 0.39211-0.81535 1.5723c-4.6341 8.9364-10.89 14.643-18.456 16.836-2.512 0.72802-4.2693 0.97279-7.2921 1.0156-1.3087 0.0185-2.5389 0.0145-2.7338-9e-3zm32.401-34.179c-2.3043-1.914-3.2705-2.5911-4.1001-2.873-0.30664-0.10423-0.55754-0.22418-0.55754-0.26655 0-0.11286 1.6682-2.3029 2.6473-3.4755 1.8321-2.194 5.0562-5.317 7.2755-7.0472 4.614-3.5971 9.6072-5.8874 13.901-6.3759 1.4524-0.16527 1.5136-0.24104 0.2242-0.27785-4.7877-0.13665-11.213 2.3564-16.172 6.2744-0.57272 0.45254-1.6429 1.4325-2.3781 2.1777l-1.3368 1.3549 0.15574-0.53373c0.46157-1.5818 1.7935-4.1621 3.1203-6.0449 1.8511-2.6267 4.326-5.1482 6.5864-6.7105 1.3147-0.90865 1.3541-0.90932 0.72681-0.0123-1.0752 1.5374-1.5241 2.745-1.1391 3.0645 0.42638 0.35387 1.3026-0.0175 2.6704-1.132 2.5186-2.0521 3.3781-2.7244 4.0977-3.2054 1.6118-1.0773 3.5592-1.8758 4.8731-1.9981l0.61767-0.0575-0.88734 0.54159c-1.6626 1.0147-2.6059 1.9527-2.6059 2.5911 0 0.33933 0.43197 0.73497 0.80246 0.73497 0.16797 0 1.0741-0.24656 2.0137-0.54792 2.1234-0.68105 3.3286-0.94546 4.8918-1.0732 4.2411-0.34651 8.9175 1.2053 13.076 4.3393 0.8787 0.66218 2.6488 2.2353 2.5842 2.2965-0.0162 0.0154-0.34846-0.0314-0.73829-0.104-2.1787-0.40555-4.9056-0.23259-8.0496 0.51058-2.2289 0.52686-4.4734 1.4032-5.6528 2.207l-0.53956 0.36776-0.66822-0.40303c-2.3899-1.4414-5.9264-1.7212-8.9503-0.70802-1.6914 0.56665-3.2529 1.4822-4.4714 2.6215-1.6176 1.5126-4.7519 5.8253-6.6961 9.2138-0.78654 1.3708-2.4465 4.6383-2.8985 5.7053-0.13523 0.31927-0.26866 0.57807-0.2965 0.57513-0.02784-3e-3 -0.98468-0.7812-2.1263-1.7295zm-27.932 1.242c0.94306-0.63764 2.6138-2.6195 2.6181-3.1056 6.09e-4 -0.0697-0.26189-0.0404-0.73313 0.0817-0.40375 0.10471-1.2581 0.2166-1.8985 0.24861l-1.1644 0.0582 0.43028-0.34516c0.91604-0.73482 1.7328-2.1267 2.007-3.4203 0.5796-2.7342-0.7436-5.0108-3.4537-5.942-0.67198-0.23091-1.0268-0.28442-2.1317-0.3215-1.5395-0.0517-2.5428 0.14244-3.7118 0.7182-0.3759 0.18513-0.68346 0.29547-0.68346 0.2452 0-0.16261 0.65587-1.4282 1.0401-2.0072 1.0428-1.571 2.7257-3.1278 4.2728-3.9525l0.80718-0.43027-0.35154-0.14455c-0.29748-0.12232-3.1534-0.84585-3.9435-0.99908l-0.25065-0.0486 0.25065-0.19383c1.3886-1.0738 5.2838-2.3279 7.7361-2.4907 1.4603-0.0969 0.91984-0.25348-1.0839-0.31389-1.9065-0.0574-3.0746 0.0705-4.8828 0.53498-2.6113 0.67079-4.7171 1.7814-6.1216 3.2287-0.24827 0.25583-0.39081 0.46514-0.31675 0.46514 0.29575 0 2.3435 0.32886 3.2489 0.52175 0.94775 0.20193 1.3906 0.38953 0.91959 0.38953-0.51166 0-2.8817 0.89498-4.4634 1.6855-2.5087 1.2538-5.0871 2.953-6.5325 4.3051-0.34742 0.32499-0.65759 0.5909-0.68926 0.5909-0.03167 0 0.03412-0.262 0.14621-0.58221 0.53759-1.5358 0.79128-3.4485 0.60174-4.5369-0.30125-1.7299-1.2777-2.7217-3.1453-3.1946-0.7889-0.19974-3.3035-0.15354-4.6284 0.085-1.0176 0.18325-1.0312 0.18313-0.86065-7e-3 0.31855-0.35588 1.7829-1.4537 2.7556-2.066 0.52927-0.33312 1.7823-1.0506 2.7845-1.5945 3.9416-2.1389 4.8919-2.7732 5.2801-3.5237 0.46709-0.90325-0.4666-2.5299-2.5133-4.3786-0.40818-0.36869-1.0124-0.83763-1.3427-1.0421l-0.60051-0.37174 1.1574-0.0326c1.514-0.0427 3.6258 0.13623 5.0662 0.42933 0.63462 0.12914 1.1659 0.22494 1.1807 0.21291 0.01473-0.012-0.08866-0.22846-0.22977-0.48092-0.34001-0.60834-0.70386-1.6954-0.86008-2.5695-0.14812-0.82883-0.08671-3.1201 0.09992-3.7285l0.12207-0.39792 0.37232 0.70755c0.52656 1.0007 0.97926 1.5823 2.0041 2.5749 1.4603 1.4144 2.437 2.0886 5.8561 4.0427 3.9011 2.2295 5.4253 3.4317 6.4526 5.0895 0.16393 0.26453 0.31325 0.48095 0.33183 0.48095 0.09662 0-0.21649-0.85945-0.58027-1.5928-0.73378-1.4792-2.1745-3.0711-3.8423-4.2452l-0.77698-0.54698-0.2349-0.93358c-0.21243-0.8443-0.23461-1.1563-0.23188-3.2624 0.0032-2.4949 0.101-3.31 0.61008-5.0865 0.24955-0.87086 0.78883-2.1182 1.0793-2.4965 0.13266-0.17274 0.15369-0.0931 0.21402 0.81003 0.15918 2.3829 1.0038 4.4215 2.845 6.8671 0.92003 1.2221 3.0595 3.3729 5.7776 5.8082 3.9023 3.4964 5.6172 5.3117 6.675 7.0659 0.43922 0.72841 0.45289 0.68173 0.06594-0.22504-1.0723-2.5127-2.7601-4.5598-6.7409-8.1756-3.0614-2.7808-3.7642-3.525-3.9782-4.2132-0.26516-0.85265-0.23178-3.8193 0.05469-4.8602 0.27591-1.0024 0.59219-1.8177 0.81878-2.1106 0.18217-0.23543 0.18384-0.2307 0.20376 0.57873 0.02806 1.1405 0.41507 2.5639 1.0603 3.9 1.192 2.468 2.8371 4.3973 7.0045 8.2146 3.1964 2.9278 4.2401 4.0642 5.4629 5.948 0.70577 1.0872 1.1762 2.0896 1.5367 3.2744 0.24196 0.7952 0.27517 1.0755 0.28241 2.3835l0.0082 1.4823 0.3168 0.11456c0.89412 0.32333 1.6576 1.316 1.6576 2.1553 0 0.2147 0.04974 0.38513 0.11239 0.38513 0.06181 0 0.38171-0.14354 0.71087-0.31898 0.65842-0.35094 1.7826-1.4666 2.1002-2.0843l0.19598-0.38115 0.07458 0.39565c0.10452 0.55449-0.01073 2.498-0.20074 3.3849-0.62495 2.9172-2.3709 5.7343-4.3506 7.0197-0.32884 0.21352-0.63273 0.38821-0.67529 0.38821-0.04257 0-0.02909-0.17086 0.02993-0.3797 0.16822-0.59509 0.13974-1.7333-0.0589-2.3541-0.23518-0.73509-0.77255-1.4584-1.3605-1.8314-0.99796-0.63303-2.7576-1.0139-4.8022-1.0395-0.65548-8e-3 -1.1919-0.0228-1.192-0.0324-1.01e-4 -0.01 0.17827-0.35137 0.39639-0.7594 0.21812-0.40802 0.46872-0.98934 0.55689-1.2918 0.56199-1.928-0.33476-2.4813-3.9911-2.4625-2.4806 0.0127-6.0313 0.52243-7.5668 1.0862l-0.3815 0.14007 0.7594 9e-3c1.1336 0.0136 3.131 0.29985 3.9169 0.56132 0.08016 0.0267 0.0081 0.26835-0.21739 0.7291-0.74154 1.5152-1.1269 3.3365-0.8704 4.1137 0.21746 0.6589 0.87753 0.96016 1.4555 0.66428 0.12164-0.0623 0.39714-0.27871 0.61223-0.48096 0.29189-0.27446 0.3758-0.31637 0.33085-0.16522-0.54058 1.818-0.72248 3.6135-0.42444 4.1899 0.26093 0.5046 0.92015 0.76124 1.7701 0.68918 0.36641-0.031 0.77541-0.0892 0.90888-0.12932l0.24268-0.0728-0.29331 0.54428c-0.41974 0.77891-1.4559 1.8357-2.4452 2.494-1.508 1.0034-3.634 1.7733-5.2823 1.9129l-0.7673 0.065 0.46919-0.31724zm12.137-18.34c0-0.15719-0.49202-1.1001-0.84361-1.6167-0.47222-0.69382-1.3676-1.5988-2.0249-2.0465-0.5727-0.39012-1.4682-0.84024-1.5353-0.77173-0.06776 0.0692 0.42896 1.4752 0.75544 2.1383 0.58061 1.1792 1.3883 1.9188 2.4623 2.2544 0.51815 0.16194 1.1861 0.18574 1.1861 0.0423zm1.4635-11.265c-0.67082-0.62436-1.9484-1.8062-2.8391-2.6263-1.523-1.4022-2.9917-2.9498-3.8518-4.0583l-0.37763-0.48672 0.5687-1.0827c0.62811-1.1958 1.0813-2.455 1.3552-3.7659 0.24951-1.1939 0.25021-3.4929 0.0014-4.6561-0.69201-3.2353-2.6975-5.4638-5.4331-6.0373-1.1991-0.2514-2.7622-0.15177-3.8246 0.24376-2.4387 0.90796-4.1545 2.9441-4.8504 5.7562-0.21357 0.86303-0.24106 3.0475-0.05022 3.9907 0.12453 0.61543 0.11582 0.75287-0.11876 1.8732-0.37597 1.7956-0.51069 3.3977-0.43372 5.1579 0.03652 0.83534 0.10523 1.7124 0.15267 1.9489l0.08626 0.43009-0.6843-0.36961c-2.4663-1.3321-4.6632-3.485-6.0121-5.8918-0.51669-0.92188-1.4725-3.1583-1.4823-3.4683-0.0069-0.21867-0.39903 0.57696-0.728 1.477-0.94857 2.5954-1.1879 5.2855-0.68757 7.7282 0.09906 0.4836 0.16758 0.8936 0.15228 0.91111-0.04877 0.0558-1.2294-1.3595-1.6454-1.9725-1.0351-1.5252-1.8697-3.7266-2.2584-5.9571-0.31588-1.8125-0.31783-4.6114-0.0044-6.3635 0.3677-2.0557 1.3074-4.439 2.0411-5.1766 0.19743-0.19848 0.19864-0.1948 0.19996 0.60753 0.0015 0.88191 0.27737 2.3952 0.55334 3.0348l0.17474 0.40502 0.1916-0.92688c0.65358-3.1617 2.8062-6.9954 5.3642-9.5534 0.70923-0.70923 2.3062-1.9721 2.389-1.8892 0.0225 0.0225-0.08067 0.39996-0.22926 0.83879-0.18346 0.5418-0.28654 1.098-0.32118 1.7329l-0.05101 0.93503 0.79842-0.78632c3.4982-3.4451 9.9145-4.8307 15.807-3.4135 7.6077 1.8298 12.713 8.2761 13.152 16.606 0.208 3.9465-1.4066 9.2886-4.0954 13.55-0.67384 1.0679-1.6378 2.4002-1.732 2.3939-0.0317-2e-3 -0.6065-0.51474-1.2773-1.1391z"/>
</svg>
