<svg width="100" height="100" version="1.1" viewBox="0 0 100 100" xml:space="preserve" xmlns="http://www.w3.org/2000/svg"><path d="m30.248 90.614c-8.8363-5.1485-16.33-9.6141-16.653-9.9235-0.32302-0.30947-0.58731-0.68504-0.58731-0.8346 0-0.6973 1.6017-0.88726 4.2564-0.50483 0.76084 0.1096 7.5126 1.0186 15.004 2.02 7.4913 1.0014 13.89 1.9294 14.219 2.0623 0.32902 0.13289 0.85575 0.57909 1.1705 0.99155l0.5723 0.74994 0.06251 6.6144c0.03438 3.6379 0.01035 6.8232-0.05352 7.0784-0.17216 0.68832-0.71093 1.1338-1.3543 1.1198-0.35054-8e-3 -6.7567-3.6171-16.636-9.3733zm11.763 0.10019c0.1147-1.9226 0.09011-2.0982-0.39655-2.8336-0.51546-0.77892-0.53436-0.78631-2.9109-1.1394l-2.3921-0.35536-1.2769-1.3831c-1.1986-1.2984-1.3483-1.3919-2.4406-1.5266l-1.1636-0.14347 1.0572 1.1133c1.2576 1.3244 1.402 1.6091 0.70996 1.4001-0.41188-0.12438-0.33056 0.02718 0.44477 0.82895 0.56224 0.5814 1.1395 0.98115 1.4169 0.98115 0.32163 0 1.1407 0.72327 2.6172 2.3111 2.1404 2.3017 2.3122 2.4183 4.0839 2.7711 0.07059 0.01407 0.18337-0.89677 0.25063-2.0241zm-3.1123-1.173c-0.56692-0.70279-0.99774-1.3108-0.95738-1.3512 0.04036-0.04036 0.51785 0.02833 1.0611 0.15264 0.91188 0.20867 0.99746 0.28494 1.1147 0.99348 0.17193 1.0394 0.16304 1.5152-0.02798 1.4976-0.08779-0.0081-0.62346-0.58975-1.1904-1.2925zm11.897 9.9856c-0.28316-0.40427-0.3313-1.4665-0.3313-7.3108 0-6.7417 0.0068-6.8478 0.47957-7.5495 0.94126-1.3967 0.48714-1.2957 13.354-2.9699 1.6972-0.22083 6.7506-0.88565 11.23-1.4774 8.6518-1.143 9.9579-1.2411 10.569-0.79422 0.33802 0.24716 0.34951 0.33941 0.09388 0.7534-0.47169 0.76388-1.6614 1.4776-18.113 10.866-10.919 6.2311-15.885 8.9556-16.322 8.9556-0.40783 0-0.74432-0.16589-0.95943-0.47299zm5.4578-6.3255c1.9608-0.74381 4.1211-2.9479 3.354-3.422-0.18314-0.11318-0.04036-0.27917 0.45607-0.53025 1.3448-0.68014 2.8921-1.9807 3.5648-2.9962 1.1246-1.6978 0.84666-2.4274-0.92456-2.4274-1.3596 0-3.2042 0.47378-4.7044 1.2084-1.9123 0.93637-4.194 3.722-3.8286 4.6742 0.06321 0.16472 0.31095 0.37201 0.55053 0.46064 0.38605 0.14281 0.30859 0.24512-0.68093 0.89937-1.1925 0.78846-2.0007 1.9086-1.7842 2.4729 0.18082 0.47119 2.3445 0.28741 3.9972-0.33953zm-1.4277-0.86542c-0.18771-0.30372 1.0036-1.437 1.6923-1.6099 0.9995-0.25086 1.1229 0.22436 0.27771 1.0695-0.74528 0.74528-1.6842 1.0028-1.97 0.54034zm2.2361-3.5373c0-1.0871 1.8104-2.6322 3.0841-2.6322 1.1922 0 0.78963 1.2063-0.78268 2.3452-0.99558 0.72119-2.3014 0.88399-2.3014 0.28692zm7.5551 2.0576c1.1705-0.55612 2.4091-1.3116 2.7524-1.679l0.62415-0.66784-1.6351 0.81664c-1.1038 0.55129-1.6351 0.72386-1.6351 0.53109 0-0.15705 0.07183-0.28594 0.15962-0.28641 0.08779-4.26e-4 1.6183-1.5233 3.4011-3.3841 1.7828-1.8608 3.0757-3.3501 2.8731-3.3096-0.20261 0.04054-0.7176 0.12934-1.1444 0.19735-0.6838 0.10895-1.271 0.66458-4.9403 4.6745-4.6906 5.126-4.6896 5.119-0.45545 3.1074zm-28.518-11.089c-4.0968-0.56426-9.9866-1.3628-13.088-1.7744-13.465-1.787-15.391-2.0633-15.761-2.2615-0.56333-0.30149-1.0517-1.0716-1.0517-1.6585 0-0.27848 1.1408-3.2978 2.5352-6.7097 9.3309-22.832 11.982-29.204 12.291-29.546 0.44368-0.49026 1.1856-0.49702 1.6109-0.01469 0.18061 0.20484 3.8015 6.5017 8.0465 13.993 4.2449 7.4913 9.4751 16.72 11.623 20.507 2.3902 4.2158 3.9045 7.1088 3.9045 7.4594 0 1.3596-0.27255 1.3598-10.109 5e-3zm-8.5469-5.1559 1.03-0.26714-1.7217-1.2396c-0.94694-0.6818-1.7217-1.302-1.7216-1.3781 3e-5 -0.07617 1.9113-0.79561 4.2472-1.5988l4.2471-1.4603-0.576-1.0034c-1.2431-2.1656-0.49513-2.1921-6.535 0.2317-2.9263 1.1743-5.3546 2.1684-5.3962 2.2091-0.04164 0.04067 0.24853 0.55768 0.64481 1.1489 0.72552 1.0825 3.8099 3.5988 4.4322 3.616 0.17558 0.0049 0.78275-0.1114 1.3493-0.25833zm-0.77579-10.871c0.45987-0.23581 0.44436-0.27887-1.0058-2.7933-0.81008-1.4046-1.4752-2.6515-1.478-2.7707-0.0028-0.11929 0.57235-0.53436 1.2781-0.92236l1.2832-0.70546-0.40209-0.67379c-0.22115-0.37059-0.61691-1.067-0.87947-1.5475l-0.47739-0.87368-1.2938 0.86394c-0.81437 0.54382-1.3251 0.77003-1.3782 0.61051-0.04646-0.13939-0.25404-0.46283-0.46128-0.71877l-0.3768-0.46533-0.87879 0.6221c-0.48334 0.34216-0.88084 0.6973-0.88334 0.7892-0.0025 0.09191 0.16017 0.41848 0.36148 0.72572 0.34735 0.53011 0.34668 0.57045-0.01298 0.79059-0.20846 0.12758-1.423 0.90278-2.6989 1.7227l-2.3199 1.4907 0.75726 1.3437c0.41649 0.73906 0.86773 1.3834 1.0028 1.4319 0.75245 0.27034 8.6137 1.5239 8.9712 1.4305 0.2341-0.06114 0.63583-0.21894 0.89272-0.35066zm-6.1068-2.3523-1.809-0.23946 1.5269-0.89886c0.83978-0.49437 1.5738-0.89886 1.6311-0.89886 0.11079 0 1.4177 2.0629 1.4177 2.2378 0 0.13296-0.54537 0.09341-2.7667-0.20063zm32.043 19.047c-0.2554-0.28222-0.32338-0.5647-0.21767-0.90449 0.08454-0.27175 1.9984-3.7024 4.2529-7.6236 15.807-27.493 19.544-33.973 19.714-34.188 0.3754-0.47319 1.0378-0.47548 1.5475-0.0053 0.31372 0.28934 1.7881 3.5539 3.9569 8.7612 3.2622 7.8326 4.6806 11.221 9.3307 22.292 2.1664 5.1575 2.2926 5.7886 1.3208 6.6063-0.70243 0.59106-0.13173 0.49283-11.401 1.9622-10.377 1.353-16.465 2.1539-21.921 2.8837-5.5737 0.74561-6.0892 0.76254-6.5836 0.21624zm26.641-8.4298c1.0526-0.4398 1.4615-0.82967 2.4309-2.3176 0.96445-1.4804 1.6688-3.5931 1.6622-4.9858-0.0058-1.2222-0.59608-2.5695-1.4044-3.2053l-0.61124-0.4808-1.5037 3.2909 0.61771 0.61771c0.52876 0.52876 0.59967 0.73121 0.49244 1.4059-0.17041 1.0723-1.2375 2.0492-2.025 1.8539-1.4456-0.35862-1.9237-1.3831-2.9802-6.3862-0.76357-3.6158-0.84174-3.8468-1.3932-4.1161-0.32131-0.15695-0.61246-0.25272-0.64699-0.21282-0.15339 0.17726-6.2896 10.805-6.2896 10.894 0 0.05441 0.40702 0.24146 0.90449 0.41565 0.49747 0.1742 1.0602 0.38042 1.2505 0.45826 0.27277 0.11159 0.6443-0.40402 1.7558-2.4367 0.77539-1.418 1.4098-2.6687 1.4098-2.7793 0-0.11058 0.09577-0.20106 0.21282-0.20106 0.11705 0 0.21396 0.07183 0.21534 0.15962 0.01046 0.65953 1.3322 5.7167 1.6641 6.3671 0.91652 1.7958 2.4623 2.4008 4.2382 1.6588zm-30.957 6.4459c-0.24156-0.26336-1.0867-1.6281-1.8782-3.0327-1.5459-2.7436-12.557-22.161-18.416-32.474-1.9675-3.4635-3.6367-6.5341-3.7094-6.8237-0.08991-0.3582 0.0022-0.69225 0.28777-1.0451l0.41991-0.51859 48.497-0.11174 0.56413 0.44375c0.33012 0.25967 0.56414 0.65546 0.56414 0.95414 0 0.2813-3.0903 5.8864-6.885 12.488-3.7868 6.5876-9.1649 15.952-11.952 20.809-2.7866 4.8576-5.2597 9.0475-5.4957 9.3109-0.24044 0.26826-0.67732 0.47885-0.99344 0.47885-0.31315 0-0.75973-0.2131-1.0035-0.47885zm-0.93704-18.727c0.6303-0.39096 1.0789-0.4776 2.4726-0.4776s1.8423 0.08665 2.4726 0.4776c0.68739 0.42637 1.047 0.4776 3.3519 0.4776h2.5819l-0.0056-2.6603-1.2856-0.61736c-1.7535-0.84206-3.0473-1.8696-3.4665-2.753-0.46833-0.98693-0.4448-2.4306 0.05292-3.2468 0.37217-0.61035 2.1344-2.2149 2.4325-2.2149 0.07226 0 0.63702-0.23086 1.255-0.51302 1.084-0.49493 3.5182-1.1314 5.0608-1.3232 0.40968-0.05095 1.1519-0.14335 1.6494-0.20533l0.90449-0.1127v-2.7406h-22.772v1.0641h-4.6821c-2.5751 0-4.6821 0.05418-4.6821 0.1204 0 0.72129 1.9732 2.9438 3.2567 3.6681 1.2153 0.68588 2.3611 0.96141 5.469 1.3152 3.569 0.40624 4.2713 0.7324 4.8747 2.2638 0.22737 0.57709 0.20054 0.79338-0.2056 1.6574-0.54849 1.1669-1.7051 2.1494-3.549 3.0148l-1.3273 0.62301-0.0056 2.6603h2.6883c2.4152 0 2.7666-0.04852 3.4583-0.4776zm-10.403-13.293c-1.169-0.07097-2.1282-0.40333-2.1282-0.73745 0-0.09727 1.6281-0.17686 3.618-0.17686h3.618v0.53205c0 0.53201-1.42e-4 0.53205-1.9686 0.49268-1.0827-0.02165-2.4953-0.07134-3.1391-0.11043zm6.1029-1.0542c-0.07914-0.07914-0.14388-0.32036-0.14388-0.53606 0-0.37646 0.42004-0.38996 10.481-0.33696 10.321 0.05436 10.481 0.06172 10.481 0.48085 0 0.41904-0.16028 0.4265-10.338 0.48085-5.6856 0.03037-10.402-0.0095-10.481-0.08868zm-37.415 21.283c-0.24195-0.29148-0.30179-3.6945-0.3486-19.825-0.050005-17.231-0.018813-19.53 0.27093-19.972 0.62193-0.94919 1.3074-0.69759 7.5535 2.7724 6.364 3.5354 6.8103 3.8966 6.8103 5.5107 0 0.62493-1.4771 4.3784-5.6616 14.387-3.1139 7.4479-5.9897 14.255-6.3907 15.128-1.056 2.2972-1.5898 2.775-2.2338 1.9991zm5.6046-15.563c0.57348-0.97368 0.87816-3.1052 0.74635-5.2214-0.18833-3.0238-1.3258-6.1046-2.2539-6.1046-0.60058 0-1.129 1.4938-1.0668 3.016 0.05131 1.2573-0.10381 1.8022-0.31226 1.0968-0.32851-1.1116-0.57887-3.2141-0.45889-3.8537 0.10839-0.57774 0.21868-0.70581 0.53632-0.62274 0.31812 0.08319 0.46623-0.09018 0.72442-0.84792 0.294-0.86283 0.29235-1.0016-0.01749-1.4745-1.0601-1.6179-2.0879 1.7796-1.7397 5.7509 0.27053 3.0855 1.6688 7.7577 2.6005 8.6894 0.44407 0.44407 0.80002 0.32129 1.2415-0.42822zm-1.6953-3.8241c-0.2217-0.5018-0.35593-1.3889-0.36158-2.3897-0.0075-1.3296 0.05029-1.6033 0.35115-1.6626 0.51032-0.10062 1.0467 1.0463 1.1808 2.5248 0.20442 2.2544-0.46385 3.1265-1.1703 1.5274zm4.4147-3.0965c4e-3 -0.73087-0.57798-1.9121-0.85709-1.7396-0.33139 0.20481-0.2324 1.8806 0.14272 2.4162 0.40802 0.58252 0.70904 0.29743 0.71437-0.67656zm78.647 22.032c-0.29263-0.44219-3.3187-7.4573-6.7246-15.589-5.5016-13.135-6.1818-14.885-6.0961-15.676 0.05306-0.48997 0.28067-1.1437 0.50581-1.4528 0.55441-0.76108 11.996-7.1269 12.809-7.1269 0.34394 0 0.77873 0.19297 1.0095 0.44806 0.39237 0.43363 0.40542 1.0657 0.40542 19.633 0 20.394-0.0083 20.568-0.98049 20.568-0.22327 0-0.62948-0.3516-0.92885-0.80398zm-2.0363-13.516c0.23988-1.2713 0.22259-1.4208-0.32166-2.7803l-0.57516-1.4367 1.1721-1.1063c1.4999-1.4158 1.7544-2.1626 1.7548-5.1499 2.12e-4 -1.7608-0.09637-2.5916-0.38973-3.3519-0.45372-1.1759-0.84046-1.2725-1.4015-0.34996-0.37558 0.61758-0.38042 0.72408-0.07391 1.6236 0.28513 0.8368 0.35612 0.9104 0.54286 0.56278 0.32406-0.60322 0.37153-0.6265 0.58602-0.28734 0.29793 0.47109 0.24394 2.0413-0.09835 2.8606-0.3263 0.78094-1.4449 1.696-2.8452 2.3274-0.712 0.32107-0.93301 0.56664-1.1908 1.3231l-0.31651 0.9289 1.3011 3.1829c0.71562 1.7506 1.3689 3.141 1.4518 3.0898 0.08287-0.05121 0.26474-0.69771 0.40417-1.4367zm-2.2224-14.056c2.007-4.9068 2.0666-5.0996 1.8249-5.9062-0.14264-0.47611-0.62794-1.1971-1.1312-1.6808l-0.88142-0.84694-0.5199 0.87183-0.5199 0.87182 1.7884 1.5472-1.6764 3.5115c-2.4596 5.1522-2.3233 4.6689-1.7499 6.2023 0.38007 1.0163 0.52239 1.2175 0.63975 0.90432 0.08301-0.22152 1.0846-2.6853 2.2257-5.4752zm-63.204-6.7306c-0.2405-0.26575-0.33227-0.5939-0.25294-0.90449 0.14356-0.56204 22.552-29.294 23.659-30.335 0.82673-0.77779 1.4287-0.86169 2.2821-0.31811 0.65518 0.41731 22.88 29.632 23.224 30.528 0.1794 0.46715 0.14682 0.65618-0.1742 1.0109-0.39362 0.43494-0.46977 0.4363-24.378 0.4363-23.548 0-23.99-0.0075-24.36-0.41706zm27.059-4.5838c0.5904-0.17533 1.3381-0.52694 1.6615-0.78135 1.3197-1.0381 1.7972-3.6439 0.96616-5.2728-0.44202-0.86642-1.3538-1.7142-1.8436-1.7142-0.50247 0-0.31651-0.40127 0.34433-0.74301 1.6911-0.87448 1.7053-3.645 0.02593-5.0581-0.37071-0.31193-1.0302-0.66606-1.4655-0.78695-1.0662-0.29612-3.1039-0.27973-4.1488 0.03335-2.5564 0.76592-3.5059 3.9397-1.6934 5.6601 0.40652 0.38584 0.70365 0.72558 0.6603 0.75498-0.04335 0.0294-0.33231 0.16207-0.64214 0.29481-0.95922 0.41098-1.7332 1.6459-1.8402 2.9362-0.05224 0.62992-0.03018 1.4906 0.04899 1.9127 0.20547 1.0952 1.4406 2.3788 2.6463 2.7501 1.3086 0.40294 3.9472 0.41005 5.2801 0.01422zm-3.2308-2.6491c-1.9868-0.81319-1.4712-4.0552 0.64497-4.0552 1.254 0 1.9988 0.77466 2.0085 2.089 0.0087 1.1814-0.24932 1.641-1.0846 1.9322-0.7751 0.2702-0.98093 0.27466-1.5689 0.03401zm-0.17984-6.9983c-0.476-0.52597-0.45506-1.7928 0.03697-2.2381 0.53548-0.4846 1.6442-0.44699 2.1647 0.07343 0.54708 0.54708 0.54136 1.2852-0.01545 1.9931-0.5347 0.67976-1.6473 0.76707-2.1862 0.17156zm-34.723 10.257c-2.9263-1.709-5.536-3.3045-5.7994-3.5454-0.53226-0.48694-0.61701-1.1636-0.21282-1.6991 0.14631-0.19387 4.3362-2.7124 9.3109-5.5968s10.577-6.1328 12.45-7.2187c1.8728-1.0859 5.0742-2.942 7.1142-4.1247 4.7372-2.7464 5.9368-3.0185 5.3405-1.2116-0.36407 1.1031-19.616 25.661-20.491 26.138-1.462 0.79734-1.9515 0.62335-7.7126-2.7413zm2.3511-2.9475c0.26808-1.2693 0.02545-1.201 5.6959-1.6035l3.7906-0.26906 0.82553-1.0826c0.45404-0.59542 0.80733-1.0973 0.78508-1.1153-0.02224-0.01798-2.291 0.28748-5.0417 0.67878-2.7507 0.39131-5.2613 0.71502-5.5791 0.71938-0.8491 0.01162-2.0299 1.1431-2.3049 2.2088-0.12565 0.48678-0.27887 1.0582-0.34048 1.2699-0.09881 0.33944 0.0094 0.3771 0.91666 0.31923l1.0287-0.06561zm8.822-6.1874c3.6475-1.0124 6.7579-2.8097 7.5656-4.3715 0.51284-0.99172 0.29343-1.2567-1.0407-1.2567-2.2674 0-5.9989 1.5694-7.7486 3.2588-0.98284 0.94902-1.1 1.2104-0.54269 1.2104 0.67912 0-0.02828 0.37008-0.91994 0.48128-1.6785 0.20931-1.7281-0.48809-0.09456-1.3286 0.41751-0.21483 1.0464-0.69522 1.3976-1.0675l0.63846-0.67694-0.85128 0.38564c-1.4592 0.66102-2.9509 1.6755-3.6712 2.4966-0.69037 0.78702-0.83367 1.1931-0.53205 1.5077 0.29571 0.30844 3.7615-0.07353 5.7994-0.63916zm-0.21282-1.7305c0-0.57431 1.6664-1.5934 3.2626-1.9954 1.9786-0.49821 2.0705 0.32656 0.15271 1.3703-1.0989 0.5981-3.4154 1.022-3.4154 0.62503zm52.742 13.665c-0.4949-0.27936-18.506-23.045-20.037-25.327-0.6275-0.93496-0.73726-1.7615-0.25833-1.9453 0.58495-0.22447 1.9296 0.41099 6.6062 3.1219 24.005 13.915 27.043 15.714 27.437 16.241 0.76298 1.0219 0.34128 1.3884-5.6229 4.8864-4.6891 2.7502-5.5714 3.1938-6.4909 3.2635-0.68948 0.05226-1.2646-0.03253-1.6336-0.24083zm6.9484-4.5742c1.639-0.38 1.6535-1.2936 0.04654-2.9455-1.904-1.9572-5.2162-3.1861-9.1309-3.3878-1.9307-0.09948-2.3653-0.0614-2.8386 0.24872-0.45506 0.29816-0.53254 0.4717-0.41713 0.93424 0.3272 1.3114 1.9427 2.9344 3.9394 3.9576 1.2007 0.61529 1.8452 0.81185 4.15 1.2657 0.83394 0.16422 3.419 0.11982 4.2507-0.07301zm-5.6341-2.0655c-1.2209-0.21253-2.524-0.755-2.9802-1.2406-0.42315-0.45042-0.44866-0.5656-0.19342-0.87315 0.24998-0.30121 0.58145-0.3354 2.2127-0.22824 3.4524 0.22681 5.5366 0.96532 5.5366 1.9619 0 0.38311-0.16503 0.41943-2.0218 0.44495-1.112 0.01528-2.2612-0.01389-2.5538-0.06485zm1.153-5.8348c-0.74522-0.82346-4.2299-3.0983-5.2498-3.4272-0.556-0.17927-1.0109-0.30393-1.0109-0.27702 0 0.0269 0.6763 0.50267 1.5029 1.0572 0.82659 0.55458 1.4632 1.0481 1.4146 1.0967-0.07499 0.07499-8.6827-2.0744-9.4641-2.3633-0.14764-0.05457 0.0439 0.32398 0.42564 0.84122 0.60171 0.81529 0.84984 0.97344 1.8646 1.1884 0.64378 0.13637 3.2296 0.70821 5.7462 1.2708 5.4253 1.2127 5.2989 1.1965 4.771 0.61319z"/></svg>
