<svg width="100" height="100" version="1.1" viewBox="0 0 100 100" xmlns="http://www.w3.org/2000/svg">
 <path d="m49.184 0.080201a5.1679 5.1679 0 0 0-1.7207 0.63791l-38.23 22.574a5.1679 5.1679 0 0 0-2.5403 4.4496v44.149a5.1679 5.1679 0 0 0 2.5089 4.4319l38.236 22.941a5.1679 5.1679 0 0 0 5.327-6e-3l38.042-22.934a5.1679 5.1679 0 0 0 2.4996-4.4258v-44.042a5.1679 5.1679 0 0 0-2.521-4.4391l-38.049-22.688a5.1679 5.1679 0 0 0-3.5533-0.64881zm1.1264 16.362c14.073 0 22.338 8.7353 26.237 21.08-14.683 1.933-23.261 2.8993-25.735 2.8993-2.4696 0-11.381-0.96319-26.733-2.89 3.9086-12.35 12.154-21.089 26.231-21.089zm-38.284 23.71c0.17323 0 0.34642 0.0112 0.5184 0.03311 22.81 2.9132 35.566 4.3701 38.267 4.3701 2.6923 0 14.839-1.4472 36.441-4.3414 2.2263-0.29829 4.2727 1.2648 4.5712 3.4911 0.024 0.17902 0.0359 0.35974 0.0359 0.5402 0 2.6544-1.9824 4.8909-4.6176 5.2099l-3.6551 0.4425c-0.0413 18.299-6.5319 33.107-33.277 33.107-26.721 0-33.223-14.781-33.276-33.057l-4.4803-0.5176c-2.6333-0.30449-4.6204-2.5341-4.6204-5.1848 0-2.2604 1.8327-4.0931 4.0931-4.0931zm22.956 13.79c-4.224 0-7.6485 3.4242-7.6485 7.6485 0 4.224 3.4245 7.6485 7.6485 7.6485 3.0899 0 5.7452-1.8359 6.952-4.473l-6.1005-4.8304 6.6892 0.42675c-0.58881-3.6388-3.7356-6.4203-7.5407-6.4203zm30.913 0c-4.224 0-7.6485 3.4242-7.6485 7.6485 0 4.224 3.4245 7.6485 7.6485 7.6485 3.0598 0 5.6923-1.8009 6.9153-4.3967l-6.197-4.9067 6.824 0.43523c-0.58525-3.643-3.7342-6.4288-7.5423-6.4288zm-22.551 15.647 6.7078 9.8036 6.7078-9.8036z"/>
</svg>
