<svg width="100" height="100" version="1.1" viewBox="0 0 100 100" xml:space="preserve" xmlns="http://www.w3.org/2000/svg"><path d="m32.761 91.389 0.5723 0.16884c0.71915-0.32176 2.1647 0.17553 2.9316 0.41866-1.412-1.5654-3.5394-3.8641-5.072-5.3132-0.50307-1.7544-0.28842-3.5198-0.18018-5.3109l0.02171-0.14817c-0.60414 1.4338-1.3708 2.8275-1.7829 4.3366-0.48221 2.036 2.1432 4.2328 3.1612 5.4918zm43.762 8.6109c-3.9404-0.11139-5.6736-0.10181-7.6803-3.4018l-1.564 0.04483c-1.8205-0.08084-1.0618-0.04422-2.2764-0.10467-2.0307-0.07902-1.7054-2.0085-2.0626-3.0279-0.57147-3.4604 0.75623-6.9388 0.71434-10.4-0.01483-1.2286-1.7534-5.5775-2.3745-7.1323-1.9471 0.3666-3.9048 0.43649-5.8801 0.53492-4.5532-0.01116-9.0755-0.56872-13.565-1.2768-0.87491 3.6142-3.4755 8.6728-1.3259 12.346 2.6092 3.7994 4.4402 4.852 7.2783 5.0811 2.8381 0.2289 3.4789 3.4331 2.7923 4.5776-0.60775 0.79094-1.6759 0.93451-2.5834 1.1261l-1.8153 0.08532c-1.4285-0.04803-2.7053-0.43374-3.9782-1.0286-2.1257-1.1866-4.3211-3.6535-5.9523-5.4245 0.37975 0.70723 0.60626 2.0879 0.26182 2.7304-0.96441 1.3662-5.1355 1.3579-7.0457 0.50888-2.17-0.96423-7.4134-7.7346-8.2241-12.805 2.1567-4.0786 5.2987-7.6313 6.8883-12.072-3.4649-2.2109-5.3207-5.81-5.0798-9.887l0.08695-0.47193c-3.4093 0.63824-1.6413 0.40078-5.3088 0.67822-11.68-0.03576-21.951-7.9551-16.168-20.263 0.37612-0.72883 0.73391-1.3915 1.3715-1.075 0.51174 0.25393 0.43823 1.2725 0.18083 2.4021-3.3061 14.707 12.852 14.819 22.785 12.098 0.98581-0.27015 2.9464-2.0896 4.3046-2.6927 2.22-0.98584 4.6297-1.3858 7.021-1.674 5.9478-0.67774 13.096 2.4555 16.728 2.5579 3.6322 0.10231 8.7991-0.8697 11.971-0.66505 2.3014 0.1053 4.5612 0.5207 6.7817 1.1124 1.4373-7.0033 1.5389-12.165 4.9462-13.36 1.9997 0.31584 3.5407 3.0409 4.6812 4.4969l0.0046-8.38e-4c2.3229-0.09164 4.5334 0.4977 6.7313 1.1518 3.9791-0.56468 7.3182-2.7992 10.832-4.5375-0.01096 0.05478-0.06843 0.07331-0.10263 0.11016-3.4582 2.7968-3.9412 7.5261-3.5344 11.899 0.15131 2.2694-0.48996 4.7333-1.2827 7.0568-1.4835 3.7856-4.3485 7.7759-7.6737 7.5713-1.2571-0.03976-1.9873-0.75155-2.9216-1.5115-0.18125 1.5392-0.89356 2.9127-1.5802 4.274-1.5857 3.0183-5.7296 4.3484-9.5665 7.5713-3.8367 3.223 1.2277 14.734 2.4557 16.831 1.2277 2.0975 4.6552 2.8648 3.3252 4.7578-0.40687 0.62517-1.029 0.84877-1.6939 1.0913z"/></svg>
