<svg height='300px' width='300px'  fill="#000000" xmlns="http://www.w3.org/2000/svg" xmlns:xlink="http://www.w3.org/1999/xlink" version="1.1" x="0px" y="0px" viewBox="0 0 100 100" enable-background="new 0 0 100 100" xml:space="preserve"><g><g><path d="M93.557,74.68C97.657,67.426,100,59.1,100,50.171C100,42.581,98.306,35,95.28,29H67.138L93.557,74.68z"></path></g><g><path d="M6.431,25.554C2.338,32.804,0,41.222,0,50.142C0,57.962,1.797,65,4.998,72h28.179L6.431,25.554z"></path></g><g><path d="M40.106,25h53.14c-7.97-14-22.26-23.262-38.877-24.701L40.106,25z"></path></g><g><path d="M23.125,46.318L49.863,0.006C32.858,0.052,17.851,8.588,8.853,21.598L23.125,46.318z"></path></g><g><path d="M77.189,54.316L50.816,99.994c16.709-0.268,31.424-8.729,40.306-21.544L77.189,54.316z"></path></g><g><path d="M60.209,76H7.101c8.136,13,22.514,22.937,39.16,24.168L60.209,76z"></path></g></g></svg>