<?xml version="1.0" encoding="UTF-8" standalone="no"?>
<svg
   xmlns:dc="http://purl.org/dc/elements/1.1/"
   xmlns:cc="http://creativecommons.org/ns#"
   xmlns:rdf="http://www.w3.org/1999/02/22-rdf-syntax-ns#"
   xmlns:svg="http://www.w3.org/2000/svg"
   xmlns="http://www.w3.org/2000/svg"
   xmlns:sodipodi="http://sodipodi.sourceforge.net/DTD/sodipodi-0.dtd"
   xmlns:inkscape="http://www.inkscape.org/namespaces/inkscape"
   height="100mm"
   width="100mm"
   version="1.1"
   x="0px"
   y="0px"
   viewBox="0 0 30.23622 30.23622"
   enable-background="new 0 0 24 24"
   xml:space="preserve"
   id="svg4"
   sodipodi:docname="concentration.svg"
   style="fill:#000000"
   inkscape:version="0.92.4 (5da689c313, 2019-01-14)"><metadata
     id="metadata10"><rdf:RDF><cc:Work
         rdf:about=""><dc:format>image/svg+xml</dc:format><dc:type
           rdf:resource="http://purl.org/dc/dcmitype/StillImage" /><dc:title></dc:title></cc:Work></rdf:RDF></metadata><defs
     id="defs8" /><sodipodi:namedview
     pagecolor="#ffffff"
     bordercolor="#666666"
     borderopacity="1"
     objecttolerance="10"
     gridtolerance="10"
     guidetolerance="10"
     inkscape:pageopacity="0"
     inkscape:pageshadow="2"
     inkscape:window-width="1366"
     inkscape:window-height="715"
     id="namedview6"
     showgrid="false"
     inkscape:document-units="mm"
     units="mm"
     inkscape:zoom="0.78666667"
     inkscape:cx="150"
     inkscape:cy="221.90916"
     inkscape:window-x="-8"
     inkscape:window-y="-8"
     inkscape:window-maximized="1"
     inkscape:current-layer="svg4" /><path
     style="stroke-width:16.45311546"
     d="M 115.125 0 C 112.295 8.8817842e-16 109.57959 1.1197165 107.57227 3.1269531 L 3.1269531 107.56836 C 1.1196293 109.55914 0 112.28927 0 115.11914 L 0 262.83203 C -2.9605947e-16 265.66191 1.1196293 268.37753 3.1269531 270.38477 L 107.57227 374.82617 C 109.56314 376.83332 112.295 377.95312 115.125 377.95312 L 262.81055 377.95312 C 265.657 377.95312 268.37353 376.83423 270.38086 374.81055 L 374.82617 270.36914 C 376.83346 268.37835 377.95312 265.64628 377.95312 262.81641 L 377.95312 115.11914 C 377.95312 112.28927 376.8335 109.5756 374.82617 107.56836 L 270.38086 3.1269531 C 268.38998 1.1197165 265.65813 0 262.82812 0 L 115.125 0 z M 119.55078 21.388672 L 258.38477 21.388672 L 356.5625 119.5625 L 356.5625 258.39062 L 258.38477 356.56445 L 119.55078 356.56445 L 21.373047 258.40625 L 21.373047 119.5625 L 119.55078 21.388672 z M 188.61328 56.693359 C 143.62367 56.814863 103.92097 79.36208 80.115234 113.72656 L 117.87305 179.02148 L 188.61328 56.693359 z M 200.53516 57.466797 L 162.80078 122.71094 L 303.39062 122.71094 C 282.30464 85.731472 244.49824 61.267757 200.53516 57.466797 z M 73.707031 124.17578 C 62.878307 143.32586 56.693359 165.55989 56.693359 189.12109 C 56.693359 209.77677 61.447228 228.36769 69.916016 246.85742 L 144.46875 246.85742 L 73.707031 124.17578 z M 234.31836 133.27734 L 304.21289 253.93555 C 315.06013 234.7749 321.25977 212.78419 321.25977 189.19922 C 321.25977 169.15107 316.77728 149.12568 308.77148 133.27734 L 234.31836 133.27734 z M 260.91016 200.14648 L 191.13477 320.80078 C 235.34125 320.09289 274.27265 297.74395 297.77148 263.89453 L 260.91016 200.14648 z M 75.480469 257.42188 C 97.005634 291.75995 135.04417 318.00821 179.08398 321.25977 L 215.98633 257.42188 L 75.480469 257.42188 z "
     transform="scale(0.08)"
     id="path2" /><g
     id="g4"
     transform="matrix(0.21165354,0,0,0.21131121,4.535433,4.5341651)" /><g
     id="g8"
     transform="matrix(0.21165354,0,0,0.21131121,4.535433,4.5341651)" /><g
     id="g12"
     transform="matrix(0.21165354,0,0,0.21131121,4.535433,4.5341651)" /><g
     id="g16"
     transform="matrix(0.21165354,0,0,0.21131121,4.535433,4.5341651)" /><g
     id="g20"
     transform="matrix(0.21165354,0,0,0.21131121,4.535433,4.5341651)" /><g
     id="g24"
     transform="matrix(0.21165354,0,0,0.21131121,4.535433,4.5341651)" /></svg>