<svg height='300px' width='300px'  fill="#000000" xmlns="http://www.w3.org/2000/svg" xmlns:xlink="http://www.w3.org/1999/xlink" version="1.1" x="0px" y="0px" viewBox="0 0 100 100" enable-background="new 0 0 100 100" xml:space="preserve"><g><path fill="#000000" d="M65.954,52.184l16.606-13.079c0.996-0.786,1.392-2.114,0.985-3.316c-0.405-1.203-1.524-2.02-2.795-2.04   l-20.89-0.334l-7.033-19.97c-0.424-1.2-1.559-2.003-2.83-2.003c-1.272,0-2.407,0.803-2.83,2.003l-7.037,19.97l-20.886,0.334   c-1.269,0.02-2.388,0.837-2.794,2.04c-0.406,1.203-0.012,2.531,0.985,3.316l16.596,13.079L28.143,71.99   c-0.36,1.211,0.078,2.52,1.095,3.27c1.019,0.75,2.397,0.781,3.447,0.08l17.312-11.562L67.309,75.34   c0.506,0.338,1.086,0.506,1.666,0.506c0.627,0,1.254-0.197,1.781-0.586c1.018-0.752,1.455-2.06,1.094-3.271L65.954,52.184z"></path><path fill="#000000" d="M49.999,70.467c-1.657,0-3,1.344-3,3v9.967c0,1.657,1.343,3,3,3s3-1.343,3-3v-9.967   C52.999,71.811,51.656,70.467,49.999,70.467z"></path><path fill="#000000" d="M39.368,76.844c-1.657,0-3,1.344-3,3v5.715c0,1.657,1.343,3,3,3c1.657,0,3-1.343,3-3v-5.715   C42.368,78.188,41.025,76.844,39.368,76.844z"></path><path fill="#000000" d="M60.632,76.844c-1.657,0-3,1.344-3,3v5.715c0,1.657,1.343,3,3,3s3-1.343,3-3v-5.715   C63.632,78.188,62.289,76.844,60.632,76.844z"></path><path fill="#000000" d="M81.648,54.027l-5.399-1.791c-1.58-0.521-3.271,0.33-3.793,1.902c-0.521,1.572,0.33,3.271,1.901,3.793   l5.4,1.791c0.314,0.104,0.633,0.153,0.945,0.153c1.258,0,2.43-0.797,2.848-2.058C84.072,56.248,83.223,54.551,81.648,54.027z"></path><path fill="#000000" d="M63.867,27.756c0.533,0.392,1.154,0.58,1.771,0.58c0.922,0,1.834-0.425,2.422-1.227l3.338-4.557   c0.979-1.337,0.688-3.214-0.647-4.193c-1.333-0.978-3.211-0.691-4.192,0.647l-3.338,4.557C62.24,24.9,62.529,26.777,63.867,27.756z   "></path><path fill="#000000" d="M31.94,27.109c0.587,0.802,1.499,1.227,2.422,1.227c0.615,0,1.236-0.188,1.771-0.58   c1.336-0.979,1.626-2.856,0.647-4.193l-3.338-4.557c-0.979-1.337-2.856-1.626-4.193-0.647c-1.336,0.979-1.626,2.856-0.647,4.193   L31.94,27.109z"></path><path fill="#000000" d="M23.751,52.236l-5.401,1.791c-1.572,0.522-2.424,2.221-1.902,3.793c0.417,1.26,1.589,2.057,2.847,2.057   c0.313,0,0.632-0.05,0.945-0.152l5.401-1.793c1.572-0.521,2.424-2.22,1.902-3.791C27.022,52.566,25.326,51.719,23.751,52.236z"></path></g></svg>