<?xml version="1.0" encoding="UTF-8" standalone="no"?>
<svg
   xmlns:dc="http://purl.org/dc/elements/1.1/"
   xmlns:cc="http://creativecommons.org/ns#"
   xmlns:rdf="http://www.w3.org/1999/02/22-rdf-syntax-ns#"
   xmlns:svg="http://www.w3.org/2000/svg"
   xmlns="http://www.w3.org/2000/svg"
   xmlns:sodipodi="http://sodipodi.sourceforge.net/DTD/sodipodi-0.dtd"
   xmlns:inkscape="http://www.inkscape.org/namespaces/inkscape"
   height="300px"
   width="300px"
   fill="#000000"
   version="1.1"
   x="0px"
   y="0px"
   viewBox="0 22.45 100 55.02"
   enable-background="new 0 22.45 100 55.02"
   xml:space="preserve"
   id="svg8"
   sodipodi:docname="eye.svg"
   inkscape:version="0.92.4 (5da689c313, 2019-01-14)"><metadata
     id="metadata14"><rdf:RDF><cc:Work
         rdf:about=""><dc:format>image/svg+xml</dc:format><dc:type
           rdf:resource="http://purl.org/dc/dcmitype/StillImage" /><dc:title></dc:title></cc:Work></rdf:RDF></metadata><defs
     id="defs12" /><sodipodi:namedview
     pagecolor="#ffffff"
     bordercolor="#666666"
     borderopacity="1"
     objecttolerance="10"
     gridtolerance="10"
     guidetolerance="10"
     inkscape:pageopacity="0"
     inkscape:pageshadow="2"
     inkscape:window-width="732"
     inkscape:window-height="480"
     id="namedview10"
     showgrid="false"
     inkscape:zoom="0.78666667"
     inkscape:cx="150"
     inkscape:cy="150"
     inkscape:window-x="0"
     inkscape:window-y="0"
     inkscape:window-maximized="0"
     inkscape:current-layer="svg8" /><g
     id="g6"><path
       d="M50.005,22.45C30.073,22.45,10.204,35.715,0,49.959C10.204,64.286,30.065,77.47,50.005,77.47   c19.937,0,41.832-13.184,49.995-27.469C91.837,35.715,69.941,22.45,50.005,22.45z M50,70.584c-11.391,0-20.625-9.233-20.625-20.624   c0-11.391,9.234-20.625,20.625-20.625c11.392,0,20.625,9.234,20.625,20.625C70.625,61.351,61.391,70.584,50,70.584z"
       id="path2" /><path
       d="M62.676,42.544c0,2.71-2.196,4.903-4.904,4.903c-2.709,0-4.901-2.193-4.903-4.903c0-2.71,2.193-4.906,4.903-4.906   c0.223,0,0.436,0.037,0.65,0.066c-2.397-1.649-5.295-2.62-8.422-2.62c-8.215,0-14.875,6.661-14.875,14.875   c0,8.214,6.661,14.876,14.875,14.876s14.876-6.661,14.876-14.876c0-2.874-0.829-5.548-2.24-7.822   C62.647,42.274,62.676,42.405,62.676,42.544z"
       id="path4" /></g></svg>