<svg height='300px' width='300px'  fill="#000000" xmlns="http://www.w3.org/2000/svg" xmlns:xlink="http://www.w3.org/1999/xlink" xml:space="preserve" version="1.1" style="shape-rendering:geometricPrecision;text-rendering:geometricPrecision;image-rendering:optimizeQuality;" viewBox="0 0 10000 10000" x="0px" y="0px" fill-rule="evenodd" clip-rule="evenodd"><defs><style type="text/css">
   
    .fil0 {fill:none}
    .fil1 {fill:#000000}
   
  </style></defs><g><rect class="fil0" width="10000" height="10000"></rect><path class="fil1" d="M6553 2991c451,938 560,1658 327,2160 -339,1057 -1509,-75 -754,-1094 452,-660 19,-2075 -1090,-3488 459,2188 -2868,2576 -2249,5073 452,1037 -925,736 -399,-480 -465,836 -573,1582 -322,2239 188,493 753,1104 1181,1427 489,370 1097,624 1755,601 -16,0 -32,0 -48,-1 -1586,-193 -1404,-2688 -95,-3860 -305,883 -202,1650 213,2115 0,-487 283,-691 334,-1202 1246,1402 845,2790 -207,2936 3247,-285 3788,-4247 1354,-6426z"></path></g></svg>