<svg height='300px' width='300px'  fill="#000000" xmlns="http://www.w3.org/2000/svg" xmlns:xlink="http://www.w3.org/1999/xlink" version="1.1" x="0px" y="0px" viewBox="0 0 100 100" style="enable-background:new 0 0 100 100;" xml:space="preserve"><g><path d="M56,52.2h13.5V38.7h15.8v13.5h3.6c0.2-0.3,0.3-0.5,0.5-0.8c6-11.1,4.3-23-1-30.4l0,0c0,0,0,0,0-0.1c0,0,0,0,0,0l0,0   c-1.6-2.2-3.5-4-5.5-5.3C61.4,2.6,49,26.9,49,26.9S36.7,2.6,15.4,15.6c-9,5.6-14.5,21.3-6.6,35.8c2.4,4.4,5.7,8.7,9.3,12.6l0,0   c13,14,30.9,24.2,30.9,24.2s10-5.7,20.4-14.4V68H56V52.2z"></path><polygon points="81.5,56 81.5,42.5 73.2,42.5 73.2,56 59.7,56 59.7,64.2 73.2,64.2 73.2,77.8 81.5,77.8 81.5,64.2 95,64.2 95,56     "></polygon></g></svg>