<?xml version="1.0" encoding="UTF-8" standalone="no"?>
<!-- Created with Inkscape (http://www.inkscape.org/) -->

<svg
   xmlns:dc="http://purl.org/dc/elements/1.1/"
   xmlns:cc="http://creativecommons.org/ns#"
   xmlns:rdf="http://www.w3.org/1999/02/22-rdf-syntax-ns#"
   xmlns:svg="http://www.w3.org/2000/svg"
   xmlns="http://www.w3.org/2000/svg"
   xmlns:sodipodi="http://sodipodi.sourceforge.net/DTD/sodipodi-0.dtd"
   xmlns:inkscape="http://www.inkscape.org/namespaces/inkscape"
   version="1.1"
   id="svg940"
   width="100mm"
   height="100mm"
   viewBox="0 0 377.95276 377.95276"
   sodipodi:docname="pentagram.svg"
   inkscape:version="0.92.4 (5da689c313, 2019-01-14)">
  <metadata
     id="metadata946">
    <rdf:RDF>
      <cc:Work
         rdf:about="">
        <dc:format>image/svg+xml</dc:format>
        <dc:type
           rdf:resource="http://purl.org/dc/dcmitype/StillImage" />
        <dc:title></dc:title>
      </cc:Work>
    </rdf:RDF>
  </metadata>
  <defs
     id="defs944" />
  <sodipodi:namedview
     pagecolor="#ffffff"
     bordercolor="#666666"
     borderopacity="1"
     objecttolerance="10"
     gridtolerance="10"
     guidetolerance="10"
     inkscape:pageopacity="0"
     inkscape:pageshadow="2"
     inkscape:window-width="1366"
     inkscape:window-height="715"
     id="namedview942"
     showgrid="false"
     inkscape:document-units="mm"
     units="mm"
     inkscape:zoom="0.69532167"
     inkscape:cx="502"
     inkscape:cy="307.41801"
     inkscape:window-x="-8"
     inkscape:window-y="-8"
     inkscape:window-maximized="1"
     inkscape:current-layer="svg940" />
  <path
     style="fill:#000000;stroke-width:0.50419718"
     d="m 186.70541,369.82855 c -0.0219,-0.16832 -6.15617,-20.12529 -13.63173,-44.3488 -7.47554,-24.22352 -13.54482,-44.08485 -13.48727,-44.13627 0.0575,-0.0514 2.39515,0.42398 5.19465,1.05646 2.79951,0.63248 7.56417,1.42785 10.58814,1.7675 3.02398,0.33963 5.73383,0.68028 6.0219,0.75698 0.28807,0.0767 1.72882,4.0788 3.20166,8.89355 1.47285,4.81475 2.8474,9.06094 3.05455,9.43597 0.22785,0.41249 2.37466,-5.16463 5.43428,-14.11755 2.78171,-8.13967 7.97813,-23.3639 11.54761,-33.83161 l 6.48997,-19.03221 5.04197,0.0651 c 2.77308,0.0358 7.54796,0.20538 10.61083,0.37687 l 5.56886,0.31182 -22.55493,66.04994 c -22.38712,65.55854 -23.00379,67.34203 -23.08049,66.75228 z m -4.32548,-88.5002 c -32.46293,-2.71939 -60.74619,-17.82154 -80.0354,-42.73576 l -3.081361,-3.97992 13.355521,0.24874 13.35553,0.24875 4.95143,4.16307 c 12.29546,10.33777 25.11934,16.67156 40.53889,20.02241 4.87998,1.06048 7.68564,1.32096 16.58761,1.54004 5.8928,0.14502 10.70975,0.29258 10.70433,0.32791 -0.005,0.0354 -1.56663,4.60203 -3.46935,10.14821 l -3.4595,10.08396 -3.71545,0.0508 c -2.0435,0.0279 -4.62302,-0.0253 -5.73225,-0.11818 z m 40.58787,-5.17136 c 0,-0.21703 1.90003,-5.93376 4.22229,-12.70385 l 4.22229,-12.30926 2.73854,-1.55336 c 14.24114,-8.07784 27.1823,-21.26139 35.34736,-36.0094 2.3946,-4.32519 5.95691,-13.28382 7.46724,-18.77884 0.66653,-2.42505 1.3891,-4.41033 1.60572,-4.41172 0.28773,-0.002 15.12932,10.88166 16.98736,12.45703 0.54343,0.46076 -3.47078,10.94057 -6.53337,17.05656 -13.1011,26.16281 -35.96343,46.25727 -63.41039,55.73351 -1.45587,0.50265 -2.64704,0.73634 -2.64704,0.51933 z m -54.95749,-21.50923 c -5.42916,-1.45406 -11.39236,-3.64122 -15.75864,-5.77992 -2.95355,-1.44669 -3.47243,-1.90849 -3.90745,-3.47758 -0.27589,-0.99514 -5.58382,-18.25881 -11.79539,-38.36371 -6.21156,-20.1049 -11.19896,-36.70965 -11.08309,-36.89945 0.40956,-0.67091 16.89482,-12.11152 17.12308,-11.88325 0.41662,0.41661 30.02579,96.73591 29.86433,97.14931 -0.0864,0.22132 -2.08572,-0.11411 -4.44284,-0.7454 z m 160.4644,-20.18225 c -22.25197,-0.35682 -41.02299,-0.72073 -41.71336,-0.80867 -1.25218,-0.1595 -1.24894,-0.17025 1.34271,-4.44558 1.42887,-2.35712 3.82346,-6.85532 5.32133,-9.99601 l 2.72339,-5.71032 9.79616,0.16414 c 5.38791,0.0903 9.7905,0.0507 9.78354,-0.0879 -0.007,-0.13865 -12.82356,-9.83206 -28.48139,-21.54091 l -28.46877,-21.28883 3.27474,-9.46725 c 1.80111,-5.20699 3.38122,-9.75565 3.51136,-10.10812 0.14615,-0.3958 21.49727,15.29289 55.83613,41.02807 30.57972,22.91791 55.9317,41.98137 56.33776,42.36324 0.62996,0.59244 0.0381,0.68351 -4.03355,0.62064 -2.62454,-0.0405 -22.97805,-0.36562 -45.23005,-0.72245 z m -119.62443,-1.78988 c -13.17215,-0.22361 -27.45559,-0.47062 -31.74097,-0.54893 l -7.79161,-0.14235 -3.10591,-10.08396 c -1.70825,-5.54617 -3.06193,-10.13998 -3.00817,-10.20846 0.15277,-0.19459 101.83398,1.43836 102.03424,1.63862 0.59137,0.59139 -7.55884,11.78965 -12.16212,16.71059 l -2.99691,3.20371 -8.63959,-0.0813 c -4.75178,-0.0447 -19.41681,-0.26428 -32.58896,-0.48789 z M 75.238027,230.69467 C 45.42737,230.2051 16.166829,229.7845 10.214603,229.76 0.91292534,229.72172 -0.50390024,229.61609 0.13065838,229.00823 1.4752237,227.72023 74.771117,176.27047 75.261453,176.27047 c 0.264428,0 0.480774,0.97024 0.480774,2.15607 0,3.8213 1.681869,15.21381 2.820215,19.10338 0.182616,0.62396 -1.838596,2.30636 -7.874525,6.55457 l -8.120196,5.71515 10.746876,0.37692 c 5.910784,0.2073 21.973024,0.54763 35.693863,0.75629 l 24.94699,0.37938 3.15208,10.08397 c 1.73364,5.54618 3.15655,10.14067 3.16201,10.21 0.0124,0.15757 0.39013,0.16286 -65.031513,-0.91153 z M 220.81308,208.6652 c -0.2886,-0.55273 32.52115,-96.42787 32.99889,-96.42787 1.10013,0 9.08301,11.10812 12.50083,17.39483 l 1.64467,3.02518 -13.02844,38.193 -13.02844,38.193 h -10.44503 c -5.74477,0 -10.53389,-0.17016 -10.64248,-0.37814 z M 84.858711,205.87373 c -4.887172,-12.85426 -6.87848,-33.59484 -4.786203,-49.85097 1.56948,-12.19421 5.794016,-25.59488 11.538653,-36.60181 2.656353,-5.08966 8.763909,-14.75535 9.312259,-14.73739 0.15442,0.005 2.01676,5.68978 4.13854,12.63271 l 3.85777,12.62351 -1.9867,4.58059 c -5.1995,11.98807 -7.182735,21.87325 -7.212892,35.95182 -0.02738,12.7746 1.431312,21.35065 5.452242,32.05559 l 1.68981,4.49877 H 96.079599 c -10.76893,0 -10.783141,-0.002 -11.220888,-1.15282 z m 18.437359,-28.48377 c -0.59107,-6.25812 0.0516,-18.53067 1.11839,-21.35538 0.2409,-0.6379 59.78373,-43.10991 65.03271,-46.38797 0.87491,-0.54639 1.92376,0.086 9.35402,5.63977 4.60274,3.44035 8.36255,6.37388 8.35513,6.51898 -0.0112,0.21984 -81.0574,57.49943 -82.92828,58.60978 -0.44421,0.26363 -0.69967,-0.5656 -0.93197,-3.02518 z m 186.22576,-13.5337 -10.33604,-7.80745 -0.86714,-4.13277 c -4.71786,-22.48529 -18.58467,-43.08648 -37.80395,-56.163298 -4.84989,-3.299876 -4.88082,-3.334016 -3.78148,-4.174289 0.60962,-0.465962 4.57846,-3.292713 8.81963,-6.28167 l 7.71124,-5.434463 2.01279,1.394868 c 3.452,2.392243 9.62357,7.785473 13.73813,12.00551 18.97734,19.463852 30.03963,44.822552 31.42684,72.041472 0.19076,3.74296 0.13722,6.41412 -0.12818,6.39404 -0.25069,-0.019 -5.10702,-3.54785 -10.79184,-7.84195 z m -94.95752,-41.28404 c -22.36934,-16.77826 -40.67152,-30.608044 -40.67152,-30.732875 0,-0.895569 11.90605,-4.843632 18.94042,-6.280661 l 4.96811,-1.01492 32.33067,24.242546 32.33067,24.24255 -3.33426,9.74548 c -1.83383,5.36001 -3.45987,9.87108 -3.61341,10.02463 -0.15353,0.15354 -18.58134,-13.44851 -40.95068,-30.22675 z m -78.2505,18.78254 C 115.27899,138.59982 75.24126,8.2012386 75.385819,8.0566804 75.599068,7.8434341 149.30438,62.942443 149.32446,63.330121 c 0.007,0.138655 -1.94324,1.046212 -4.33428,2.01679 -2.39104,0.970583 -6.94255,3.197382 -10.11447,4.948448 l -5.76712,3.183757 -7.82046,-5.870154 c -4.30126,-3.228582 -7.90281,-5.787809 -8.00344,-5.687175 -0.10064,0.100636 4.45723,15.224579 10.12862,33.608765 5.67137,18.384178 10.31159,33.723538 10.31159,34.087468 0,0.56331 -16.13413,12.36699 -16.90411,12.36699 -0.14863,0 -0.37677,-0.28361 -0.50698,-0.63025 z m 86.11265,-42.857914 c -6.38221,-4.792397 -8.05051,-6.2789 -7.56295,-6.738867 1.29589,-1.222539 113.95644,-80.38969 114.13961,-80.206504 0.18322,0.183183 -29.32109,86.996421 -29.69288,87.368212 -0.0987,0.0987 -1.61625,-1.528832 -3.37227,-3.616806 -1.75603,-2.087963 -5.29721,-5.750215 -7.86929,-8.138328 l -4.67651,-4.342026 3.23893,-9.320095 c 1.78141,-5.126052 3.17528,-9.383739 3.09749,-9.461532 -0.0778,-0.07779 -13.16064,9.032913 -29.07299,20.24601 -15.91235,11.213091 -29.18109,20.38097 -29.48608,20.37306 -0.305,-0.008 -4.23937,-2.78133 -8.74306,-6.163124 z m -75.96159,-5.545099 c -1.6359,-5.338196 -3.06702,-9.960184 -3.18025,-10.271091 -0.49364,-1.355326 13.4559,-9.829206 22.7004,-13.789737 23.65735,-10.135295 49.99541,-11.828129 74.41152,-4.782675 4.0825,1.178035 4.9952,1.560181 4.54604,1.903392 -0.77295,0.590619 -20.49907,14.349753 -20.98452,14.636884 -0.3336,0.197307 -3.69868,0.101223 -7.47796,-0.213521 -22.02026,-1.833922 -45.7208,5.520756 -63.21598,19.616981 -1.77862,1.43307 -3.36684,2.60558 -3.52938,2.60557 -0.16253,-1e-5 -1.63398,-4.367624 -3.26987,-9.705803 z"
     id="path1493"
     inkscape:connector-curvature="0" />
</svg>
