<?xml version="1.0" encoding="UTF-8" standalone="no"?>
<svg
   xmlns:dc="http://purl.org/dc/elements/1.1/"
   xmlns:cc="http://creativecommons.org/ns#"
   xmlns:rdf="http://www.w3.org/1999/02/22-rdf-syntax-ns#"
   xmlns:svg="http://www.w3.org/2000/svg"
   xmlns="http://www.w3.org/2000/svg"
   xmlns:sodipodi="http://sodipodi.sourceforge.net/DTD/sodipodi-0.dtd"
   xmlns:inkscape="http://www.inkscape.org/namespaces/inkscape"
   height="100mm"
   width="100mm"
   version="1.1"
   x="0px"
   y="0px"
   viewBox="0 0 30.23622 30.23622"
   enable-background="new 0 0 24 24"
   xml:space="preserve"
   id="svg4"
   sodipodi:docname="ritual.svg"
   style="fill:#000000"
   inkscape:version="0.92.4 (5da689c313, 2019-01-14)"><metadata
     id="metadata10"><rdf:RDF><cc:Work
         rdf:about=""><dc:format>image/svg+xml</dc:format><dc:type
           rdf:resource="http://purl.org/dc/dcmitype/StillImage" /><dc:title></dc:title></cc:Work></rdf:RDF></metadata><defs
     id="defs8" /><sodipodi:namedview
     pagecolor="#ffffff"
     bordercolor="#666666"
     borderopacity="1"
     objecttolerance="10"
     gridtolerance="10"
     guidetolerance="10"
     inkscape:pageopacity="0"
     inkscape:pageshadow="2"
     inkscape:window-width="1366"
     inkscape:window-height="715"
     id="namedview6"
     showgrid="false"
     inkscape:document-units="mm"
     units="mm"
     inkscape:zoom="1.1125147"
     inkscape:cx="150"
     inkscape:cy="221.90916"
     inkscape:window-x="-8"
     inkscape:window-y="-8"
     inkscape:window-maximized="1"
     inkscape:current-layer="svg4" /><path
     d="M 21.024907,30.23622 H 9.2099965 c -0.2263998,0 -0.4449019,-0.08951 -0.6041716,-0.250082 L 0.2500928,21.63077 C 0.0895069,21.470191 0,21.253014 0,21.026624 V 9.2095956 C 0,8.9832057 0.0895069,8.7647131 0.2500928,8.6054503 L 8.6058249,0.25008216 C 8.7664109,0.08950323 8.9835967,2.3069408e-7 9.2099965,2.3069408e-7 H 21.026223 c 0.2264,0 0.444902,0.0895029993059 0.604172,0.25008192930592 l 8.355732,8.35536814 c 0.160586,0.1605789 0.250093,0.3777554 0.250093,0.6041453 V 21.025308 c 0,0.22639 -0.08951,0.444883 -0.250093,0.604146 l -8.355732,8.355368 c -0.160586,0.161895 -0.377772,0.251398 -0.605488,0.251398 z M 9.5640753,28.525133 H 20.670828 l 7.85423,-7.853889 V 9.5649752 L 20.670828,1.711087 H 9.5640753 L 1.709845,9.5649752 V 20.672561 Z"
     id="path2"
     inkscape:connector-curvature="0"
     style="stroke-width:1.31624925" /><path
     style="fill:#000000;stroke-width:0.03370567"
     d="m 14.966295,28.266361 c -0.0014,-0.0112 -0.41154,-1.345373 -0.911284,-2.964715 -0.499745,-1.619337 -0.905478,-2.947066 -0.901632,-2.950505 0.0038,-0.0035 0.16012,0.02835 0.347264,0.07062 0.18715,0.04229 0.50567,0.09546 0.707825,0.118166 0.202152,0.02271 0.383308,0.04548 0.402565,0.05061 0.01927,0.0052 0.11557,0.272667 0.214032,0.594533 0.09846,0.321866 0.19035,0.605723 0.204198,0.630793 0.01524,0.02757 0.158747,-0.345253 0.363285,-0.943756 0.185956,-0.544137 0.53334,-1.561875 0.77196,-2.261641 l 0.433856,-1.272302 0.337059,0.0043 c 0.185384,0.0025 0.504583,0.01373 0.709338,0.02518 l 0.372283,0.02085 -1.507808,4.415434 c -1.496588,4.382583 -1.537813,4.501809 -1.542941,4.462384 z M 14.677136,22.35013 C 12.506977,22.16834 10.61623,21.158763 9.3267382,19.493249 l -0.2059903,-0.266058 0.8928221,0.01663 0.892823,0.01663 0.331006,0.278301 c 0.821957,0.69108 1.679236,1.114492 2.710039,1.338499 0.326229,0.07089 0.513788,0.08829 1.108889,0.102941 0.393936,0.0097 0.715952,0.01956 0.715589,0.02192 -3.81e-4,0.0024 -0.104714,0.307644 -0.231927,0.678407 l -0.231269,0.674111 -0.248381,0.0033 c -0.136608,0.0019 -0.309051,-0.0017 -0.383203,-0.0079 z m 2.713317,-0.345707 c 0,-0.01449 0.127012,-0.396669 0.28226,-0.849249 l 0.282264,-0.822873 0.183072,-0.103839 c 0.952026,-0.540003 1.817146,-1.421323 2.362985,-2.407226 0.16008,-0.289138 0.39822,-0.888022 0.499187,-1.255365 0.04457,-0.162113 0.09287,-0.29483 0.107348,-0.294921 0.01924,-1.27e-4 1.011401,0.727437 1.135611,0.832751 0.03632,0.03078 -0.232021,0.731375 -0.436759,1.140229 -0.875812,1.748982 -2.404166,3.092295 -4.239008,3.72578 -0.09733,0.0336 -0.176956,0.04923 -0.176956,0.03471 z m -3.67393,-1.437888 c -0.362943,-0.09722 -0.761585,-0.243414 -1.053473,-0.386387 -0.197446,-0.09671 -0.232133,-0.127588 -0.261212,-0.232477 -0.01845,-0.06652 -0.373281,-1.2206 -0.788528,-2.564609 -0.415244,-1.34401 -0.748654,-2.454038 -0.74091,-2.466726 0.02737,-0.04485 1.129426,-0.809652 1.144686,-0.794395 0.02786,0.02786 2.007234,6.466788 1.996442,6.494427 -0.0058,0.01478 -0.139432,-0.0076 -0.297005,-0.04984 z m 10.727109,-1.34918 c -1.487554,-0.02385 -2.742404,-0.04819 -2.788557,-0.05406 -0.0837,-0.01059 -0.08349,-0.01132 0.08976,-0.297185 0.09552,-0.157574 0.255603,-0.458279 0.355735,-0.668233 l 0.18206,-0.381737 0.654877,0.01095 c 0.360183,0.006 0.654499,0.0033 0.654035,-0.0059 -4.44e-4,-0.0094 -0.85726,-0.657272 -1.903993,-1.440008 L 19.7844,14.958004 20.003318,14.32512 c 0.120405,-0.348088 0.226036,-0.652167 0.234736,-0.675727 0.0098,-0.02646 1.437099,1.022328 3.732667,2.742723 2.044267,1.53206 3.739059,2.806451 3.766202,2.831979 0.04212,0.03959 0.0025,0.0457 -0.269642,0.04149 -0.175453,-0.0027 -1.536094,-0.02444 -3.023649,-0.0483 z M 16.446691,19.0977 c -0.880563,-0.01494 -1.835417,-0.03146 -2.121898,-0.03669 l -0.520874,-0.0096 -0.207628,-0.674113 c -0.11419,-0.37076 -0.204693,-0.677854 -0.201099,-0.682432 0.01022,-0.01307 6.807643,0.09616 6.821031,0.109538 0.03954,0.03954 -0.505312,0.788137 -0.813042,1.1171 l -0.200348,0.214169 -0.577557,-0.0057 c -0.317659,-0.003 -1.298023,-0.01766 -2.178585,-0.03262 z M 7.514656,18.965274 c -1.9928537,-0.03274 -3.9489337,-0.06085 -4.3468418,-0.06249 -0.6218209,-0.0025 -0.7165361,-0.0097 -0.674116,-0.05025 0.089889,-0.0861 4.9897448,-3.525515 5.022524,-3.525515 0.017683,0 0.032136,0.06486 0.032136,0.144133 0,0.255453 0.1124274,1.017041 0.1885313,1.277058 0.012212,0.04171 -0.1229095,0.154182 -0.5264147,0.438173 l -0.5428383,0.382057 0.7184333,0.02522 c 0.3951382,0.01386 1.4689049,0.03662 2.38615,0.05056 l 1.6677172,0.02535 0.210716,0.674111 c 0.115889,0.370762 0.211017,0.677905 0.211383,0.68254 8.21e-4,0.01033 0.02608,0.01083 -4.3473847,-0.06094 z m 9.731752,-1.472669 c -0.01927,-0.03695 2.174052,-6.446195 2.205991,-6.446195 0.07355,0 0.6072,0.742576 0.835684,1.162843 l 0.109944,0.202234 -0.870956,2.553197 -0.870957,2.5532 h -0.698255 c -0.38404,0 -0.704193,-0.01132 -0.711454,-0.02528 z M 8.1578035,17.305995 C 7.8310939,16.446689 7.6979737,15.060184 7.8378433,13.973461 7.9427619,13.158281 8.2251758,12.262446 8.6092069,11.526634 8.786785,11.186391 9.1950768,10.54024 9.2317334,10.541441 c 0.010216,3.46e-4 0.1348254,0.380362 0.2766654,0.844496 l 0.257894,0.843879 -0.132814,0.306213 c -0.3475884,0.801402 -0.4801682,1.462226 -0.4821843,2.403376 -0.00169,0.853981 0.09568,1.427289 0.3644843,2.142914 l 0.11296,0.300743 H 8.9079237 c -0.7199068,0 -0.7208574,-1.02e-4 -0.7501202,-0.07707 z m 1.2325443,-1.904137 c -0.03951,-0.418357 0.0035,-1.238774 0.07477,-1.427606 0.0161,-0.04266 3.9965672,-2.881893 4.3474642,-3.10103 0.05849,-0.03652 0.128601,0.0058 0.62532,0.377016 0.307694,0.229988 0.55904,0.426095 0.558545,0.435796 -7.59e-4,0.0147 -5.4187212,3.843829 -5.5437912,3.918057 -0.02968,0.01762 -0.04677,-0.03781 -0.0623,-0.202233 z M 21.839616,14.497132 21.148646,13.975203 21.090676,13.69893 C 20.775281,12.19579 19.84828,10.818602 18.563464,9.944416 18.239246,9.7238192 18.237179,9.7215372 18.31067,9.665364 c 0.04075,-0.03113 0.30607,-0.220115 0.589596,-0.41993 l 0.515498,-0.363291 0.134556,0.09324 c 0.230768,0.159922 0.64334,0.520458 0.918399,0.8025682 1.268644,1.3011558 2.008162,2.9963838 2.100898,4.8159678 0.0128,0.250214 0.0092,0.42878 -0.0086,0.427438 -0.01676,-0.0014 -0.341407,-0.237172 -0.72144,-0.524233 z m -6.347948,-2.759836 c -1.4954,-1.121624 -2.718907,-2.046145 -2.718907,-2.054491 0,-0.05987 0.795922,-0.323797 1.266173,-0.419861 l 0.332121,-0.06784 2.161317,1.620613 2.16132,1.62061 -0.222896,0.651486 c -0.122596,0.358316 -0.231294,0.659881 -0.24156,0.670144 -0.01022,0.01022 -1.242169,-0.89903 -2.737568,-2.020656 z m -5.231077,1.255611 C 10.191407,12.80874 7.5148725,4.0916043 7.5245368,4.0819409 7.5387948,4.0676869 12.466024,7.75105 12.467365,7.7769672 c 4.74e-4,0.00933 -0.129907,0.069948 -0.289748,0.1348208 -0.159841,0.06488 -0.464113,0.213745 -0.676155,0.330803 L 11.115927,8.455425 10.593126,8.063006 c -0.287542,-0.21583 -0.528307,-0.3869147 -0.535034,-0.3801867 -0.0067,0.00667 0.297968,1.0177617 0.677103,2.2467457 0.379134,1.228978 0.689333,2.254415 0.689333,2.278741 0,0.03766 -1.078572,0.826734 -1.130046,0.826734 -0.01,0 -0.02518,-0.01895 -0.03389,-0.04213 z m 5.756665,-2.865046 C 15.590601,9.8074872 15.479075,9.7081152 15.51167,9.677367 c 0.08662,-0.08172 7.618034,-5.3740451 7.630278,-5.3617983 0.0123,0.012246 -1.960125,5.8157053 -1.984981,5.8405573 -0.0065,0.0065 -0.108049,-0.102203 -0.225437,-0.241781 C 20.814139,9.7747632 20.577407,9.52994 20.405465,9.370296 L 20.092838,9.080032 20.30936,8.456985 c 0.11909,-0.342676 0.212269,-0.627302 0.207069,-0.6325031 -0.0053,-0.00519 -0.879794,0.6038491 -1.94354,1.3534431 -1.063748,0.749596 -1.950768,1.362468 -1.971157,1.36194 -0.0204,-5.36e-4 -0.283405,-0.185932 -0.584476,-0.412004 z M 10.939192,9.7571702 C 10.829826,9.400311 10.73416,9.09133 10.72659,9.070548 c -0.033,-0.090613 0.899534,-0.657083 1.517531,-0.921842 1.581506,-0.6775453 3.342215,-0.7907106 4.974443,-0.319721 0.272914,0.07875 0.333928,0.104292 0.303903,0.12724 -0.05168,0.03949 -1.370371,0.95928 -1.402823,0.978475 -0.0223,0.0132 -0.24726,0.0068 -0.499905,-0.01428 -1.472063,-0.122601 -3.056455,0.369061 -4.226015,1.311394 -0.118891,0.0958 -0.225073,0.174184 -0.235938,0.174184 -0.01083,-2e-6 -0.109231,-0.291977 -0.218594,-0.6488348 z"
     id="path1493"
     inkscape:connector-curvature="0" /></svg>