<svg height='300px' width='300px'  fill="#000000" xmlns="http://www.w3.org/2000/svg" xmlns:xlink="http://www.w3.org/1999/xlink" version="1.1" x="0px" y="0px" viewBox="0 0 100 100" style="enable-background:new 0 0 100 100;" xml:space="preserve"><g><path d="M88.2,15.1c-13.1-0.5-25.8-2.8-37.7-6.7c-0.3-0.1-0.6-0.1-0.9,0c-12,3.9-24.7,6.2-37.7,6.7c-0.8,0-1.5,0.7-1.4,1.5   c0.8,41.5,15.2,68.8,39.3,74.9c0.1,0,0.2,0,0.4,0s0.2,0,0.4,0c24.1-6.2,38.4-33.5,39.3-74.9C89.7,15.8,89,15.2,88.2,15.1z M50,88.6   C27.8,82.7,14.5,57,13.4,18.1c12.6-0.6,25-2.8,36.6-6.6c11.7,3.8,24,6,36.6,6.6C85.5,57,72.2,82.7,50,88.6z"></path><path d="M50,83.9c32.7-13.3,31.9-61.6,31.9-61.6C68.2,22.7,50,16.2,50,16.2V83.9z"></path></g></svg>