<?xml version="1.0" encoding="UTF-8" standalone="no"?>
<svg
   xmlns:dc="http://purl.org/dc/elements/1.1/"
   xmlns:cc="http://creativecommons.org/ns#"
   xmlns:rdf="http://www.w3.org/1999/02/22-rdf-syntax-ns#"
   xmlns:svg="http://www.w3.org/2000/svg"
   xmlns="http://www.w3.org/2000/svg"
   xmlns:sodipodi="http://sodipodi.sourceforge.net/DTD/sodipodi-0.dtd"
   xmlns:inkscape="http://www.inkscape.org/namespaces/inkscape"
   height="300px"
   width="300px"
   fill="#000000"
   viewBox="0 0 70 84"
   version="1.1"
   x="0px"
   y="0px"
   id="svg10"
   sodipodi:docname="skull.svg"
   inkscape:version="0.92.4 (5da689c313, 2019-01-14)">
  <metadata
     id="metadata16">
    <rdf:RDF>
      <cc:Work
         rdf:about="">
        <dc:format>image/svg+xml</dc:format>
        <dc:type
           rdf:resource="http://purl.org/dc/dcmitype/StillImage" />
        <dc:title>Skull</dc:title>
      </cc:Work>
    </rdf:RDF>
  </metadata>
  <defs
     id="defs14" />
  <sodipodi:namedview
     pagecolor="#ffffff"
     bordercolor="#666666"
     borderopacity="1"
     objecttolerance="10"
     gridtolerance="10"
     guidetolerance="10"
     inkscape:pageopacity="0"
     inkscape:pageshadow="2"
     inkscape:window-width="1366"
     inkscape:window-height="715"
     id="namedview12"
     showgrid="false"
     inkscape:zoom="0.78666667"
     inkscape:cx="150"
     inkscape:cy="150"
     inkscape:window-x="-8"
     inkscape:window-y="-8"
     inkscape:window-maximized="1"
     inkscape:current-layer="svg10" />
  <title
     id="title2">Skull</title>
  <desc
     id="desc4">Created with Sketch.</desc>
  <g
     stroke="none"
     stroke-width="1"
     fill="none"
     fill-rule="evenodd"
     id="g8">
    <path
       d="M35,65.6786407 C34.7224691,65.6805231 34.3542653,65.8066113 34.125,66.375 C33.6435583,67.1934822 32.875,67 32.875,67 C32.875,67 31.6127028,66.805771 31,65.125 C30.5878379,63.7059002 32.0957324,61.6727657 34.125,58.25 C34.7719215,57.2365943 35.2082447,56.9725052 35.5,57.133659 C35.7917553,56.9725052 36.2280785,57.2365943 36.875,58.25 C38.9042676,61.6727657 40.4121621,63.7059002 40,65.125 C39.3872972,66.805771 38.125,67 38.125,67 C38.125,67 37.3564417,67.1934822 36.875,66.375 C36.6457347,65.8066113 36.2775309,65.6805231 36,65.6786407 L36,65.75 L35.5,65.75 L35,65.75 L35,65.6786407 L35,65.6786407 Z M35,83.9486831 C35.121405,83.9809031 35.1863472,84 35.1863472,84 C35.1863472,84 35.1992593,83.9631633 35.2242941,83.8910329 C35.9192111,83.717687 37.4287345,83.3863428 39.2302545,83.2651708 C40.7155677,83.1652671 42.462019,83.4645054 44.0026775,82.8122029 C44.9668265,82.40399 46.3361321,80.5761839 47.1763723,80.2502487 C49.0225257,79.5341125 49.9174011,80.1545752 49.9174011,78.2052614 C49.9174011,76.6900041 49.3641233,75.210567 49.3641233,75.210567 L47.1763723,72.1807229 C47.1763723,72.1807229 49.143974,67.86957 52.1496634,67.86957 C55.1553528,67.86957 55.3032779,69.1561844 55.3032779,69.1561844 C55.3032779,69.1561844 61.9642551,68.5798607 63.9880168,64.6759147 C66.0117785,60.7719686 67.1687396,60.4509782 67.1687396,60.4509782 C67.1687396,60.4509782 68.4712831,59.2907041 66.6891546,57.4838068 C64.9070261,55.6769095 65.2276419,50.6372278 66.6369458,47.5742235 C68.0462497,44.5112192 68.7674679,45.0679783 69.2329967,40.9435172 C69.6985254,36.819056 70.8159953,27.3468553 68.9923675,23.7048745 C67.4012164,20.5271748 61.3934082,4.84838947 41.8952073,0.902556763 C40.6426093,0.313627964 39.1985599,0 37.5434422,0 C36.6758098,0 35.8281454,0.0205846161 35,0.0605548352 C34.1718546,0.0205846161 33.3241902,0 32.4565578,0 C30.80144,0 29.3573906,0.313627984 28.1047951,0.90255627 C8.60659227,4.84838816 2.59878369,20.5271746 1.00763252,23.7048745 C-0.815995316,27.3468553 0.301474556,36.819056 0.767003335,40.9435172 C1.23253211,45.0679783 1.95375032,44.5112192 3.36305419,47.5742235 C4.77235806,50.6372278 5.09297386,55.6769095 3.31084535,57.4838068 C1.52871685,59.2907041 2.83126035,60.4509782 2.83126035,60.4509782 C2.83126035,60.4509782 3.98822152,60.7719686 6.01198322,64.6759147 C8.03574492,68.5798607 14.6967221,69.1561844 14.6967221,69.1561844 C14.6967221,69.1561844 14.8446472,67.86957 17.8503366,67.86957 C20.856026,67.86957 22.8236277,72.1807229 22.8236277,72.1807229 L20.6358767,75.210567 C20.6358767,75.210567 20.0825989,76.6900041 20.0825989,78.2052614 C20.0825989,80.1545752 20.9774743,79.5341125 22.8236277,80.2502487 C23.6638679,80.5761839 25.0331735,82.40399 25.9973225,82.8122029 C27.537981,83.4645054 29.2844323,83.1652671 30.7697455,83.2651708 C32.5712655,83.3863428 34.0807889,83.717687 34.7757059,83.8910329 C34.8007407,83.9631633 34.8136528,84 34.8136528,84 C34.8136528,84 34.878595,83.9809031 35,83.9486831 L35,83.9486831 Z M30.9794447,47.9451433 C30.9794447,47.9451433 31.2649385,45.5162933 29.7079657,43.896244 C28.1509929,42.2761948 26.6583659,41 24.8955191,41 C23.1326723,41 13,41.4935055 13,48.513719 C13,55.5339326 13.5836617,56.1145849 17.9039281,56.7947869 C22.2241945,57.4749889 25.2944304,56.4594186 28.5130192,53.8198823 C31.7316079,51.1803459 30.891863,48.4626386 30.891863,48.4626386 L30.9794447,47.9451433 L30.9794447,47.9451433 Z M39.0205553,47.9451433 C39.0205553,47.9451433 38.7350615,45.5162933 40.2920343,43.896244 C41.8490071,42.2761948 43.3416341,41 45.1044809,41 C46.8673277,41 57,41.4935055 57,48.513719 C57,55.5339326 56.4163383,56.1145849 52.0960719,56.7947869 C47.7758055,57.4749889 44.7055696,56.4594186 41.4869808,53.8198823 C38.2683921,51.1803459 39.108137,48.4626386 39.108137,48.4626386 L39.0205553,47.9451433 L39.0205553,47.9451433 Z"
       fill="#000000"
       id="path6" />
  </g>
</svg>
