<svg height='300px' width='300px'  fill="#000000" xmlns="http://www.w3.org/2000/svg" xmlns:xlink="http://www.w3.org/1999/xlink" viewBox="0 0 24 24" version="1.1" x="0px" y="0px"><title>icon/stars-solid</title><desc>Created with Sketch.</desc><g stroke="none" stroke-width="1" fill="none" fill-rule="evenodd"><path d="M12.0254,20.9229 C12.3244,20.0269 13.0274,19.3239 13.9224,19.0259 L15.5004,18.4999 L13.9224,17.9749 C13.0274,17.6759 12.3244,16.9729 12.0254,16.0769 L11.5004,14.4999 L10.9744,16.0769 C10.6754,16.9729 9.9724,17.6759 9.0774,17.9749 L7.5004,18.4999 L9.0774,19.0259 C9.9724,19.3239 10.6754,20.0269 10.9744,20.9229 L11.5004,22.4999 L12.0254,20.9229 Z M6.0254,14.9229 C6.3244,14.0269 7.0274,13.3239 7.9224,13.0259 L9.5004,12.4999 L7.9224,11.9749 C7.0274,11.6759 6.3244,10.9729 6.0254,10.0769 L5.5004,8.4999 L4.9744,10.0769 C4.6754,10.9729 3.9724,11.6759 3.0774,11.9749 L1.5004,12.4999 L3.0774,13.0259 C3.9724,13.3239 4.6754,14.0269 4.9744,14.9229 L5.5004,16.4999 L6.0254,14.9229 Z M15.5004,15.4999 L14.4884,12.4639 C14.0234,11.0699 12.9294,9.9769 11.5364,9.5119 L8.5004,8.4999 L11.5364,7.4879 C12.9294,7.0239 14.0234,5.9299 14.4884,4.5359 L15.5004,1.4999 L16.5114,4.5359 C16.9764,5.9299 18.0704,7.0239 19.4634,7.4879 L22.5004,8.4999 L19.4634,9.5119 C18.0704,9.9769 16.9764,11.0699 16.5114,12.4639 L15.5004,15.4999 Z" fill="#000000"></path></g></svg>