<svg width="100" height="100" viewBox="0 0 100 100" xmlns="http://www.w3.org/2000/svg">
 <path d="m50 0c-19.873-0.27243-38.986 12.675-46.298 31.12-7.4903 17.746-3.3528 39.59 10.122 53.359 13.103 14.105 34.691 19.296 52.773 12.689 18.949-6.4524 32.867-25.198 33.366-45.238 1.0102-19.47-10.687-38.724-28.307-46.991-6.7239-3.2548-14.187-4.9485-21.656-4.9386zm0 8c18.658-0.35086 36.334 13.348 40.681 31.488 4.764 17.434-3.2674 37.308-18.881 46.443-15.944 10.012-38.424 7.3399-51.516-6.2143-13.554-13.092-16.226-35.572-6.2143-51.516 7.4013-12.408 21.474-20.342 35.931-20.2z" />
</svg>
