<svg width="100" height="100" viewBox="0 0 100 100" xmlns="http://www.w3.org/2000/svg">
 <path d="m81.483 11.615-79.093 34.723c-3.1872 1.4012-3.1872 5.923 0 7.3242l79.093 34.723s3.5811 1.6212 5.5137 1.6152c2.2268 0 4.0599-1.2077 5.2833-2.5312 1.2234-1.3235 2.097-2.8828 2.8848-4.7031 1.5757-3.6406 2.7435-8.3963 3.5801-14.195 1.6732-11.598 1.6732-25.543 0-37.141-0.83662-5.799-2.0044-10.555-3.5801-14.195-0.78784-1.8203-1.6614-3.3796-2.8848-4.7031-1.2234-1.3235-3.0564-2.5312-5.2833-2.5312-2.155 0.0946-5.5137 1.6152-5.5137 1.6152zm5.4044 6.3633c0.03636 8e-3 0.07282 0.0148 0.10938 0.0215-0.04835 0-0.07919-0.0118-0.12305-0.0156zm-0.34571 0.15234c0.30978 0.39036 0.79507 1.1579 1.2813 2.2812 1.1144 2.5748 2.2336 6.8188 3.0039 12.158 1.5406 10.679 1.5406 24.181 0 34.859-0.77031 5.3394-1.8896 9.5834-3.0039 12.158-0.4862 1.1234-0.97149 1.8909-1.2813 2.2812l-0.62891-0.27539-0.04102-0.0488-0.0098-0.0117c-0.08823-0.10911-0.17723-0.22961-0.26953-0.36132-0.38657-0.55408-0.75027-1.2192-1.1016-1.9746l-2e-3 -2e-3c-0.62102-1.3462-1.132-2.8199-1.584-4.3809l-2e-3 -4e-3c-0.26293-0.91281-0.49846-1.8428-0.71485-2.7871-0.49327-2.1538-2.6394-3.4996-4.793-3.0059-2.1538 0.49326-3.4997 2.6393-3.0059 4.793 0.23409 1.0216 0.49508 2.0458 0.78712 3.0703l-61.227-26.881 61.229-26.881c-0.10956 0.38507-0.21782 0.77029-0.31836 1.1523-0.56255 2.1363 0.71328 4.3242 2.8496 4.8867 2.1369 0.56242 4.3251-0.71444 4.8868-2.8516 0.46472-1.7658 1.0003-3.4444 1.666-4.9941 0.38313-0.88399 0.78543-1.6712 1.2246-2.332l0.0039-4e-3v-2e-3c0.09805-0.14654 0.19576-0.28282 0.29102-0.40625l0.08984-0.11328 0.04102-0.0488zm-9.9435 18.963c-2.2038-0.15772-4.1182 1.5012-4.2754 3.7051-0.1334 1.8684-0.22273 3.7351-0.27344 5.5996v2e-3c-0.09733 3.6285-0.04943 7.2644 0.15234 10.895 0.12278 2.206 2.0108 3.8946 4.2168 3.7715 2.2052-0.1228 3.8936-2.0096 3.7715-4.2148-0.18926-3.4049-0.23417-6.8216-0.14258-10.236 0.04774-1.7543 0.13145-3.5036 0.25586-5.2461 0.15772-2.2038-1.5012-4.1181-3.7051-4.2754zm10.399 44.906c-0.03656 7e-3 -0.07302 0.0138-0.10938 0.0215l-0.01367-6e-3c0.04383-4e-3 0.07473-0.0156 0.12305-0.0156z" />
</svg>
