<svg width="100" height="100" viewBox="0 0 100 100" xmlns="http://www.w3.org/2000/svg">
 <path d="m25.994 7.8623e-6a4 4.1666 0 0 0-0.1173 0.0021525 4 4.1666 0 0 0-0.13591 0.0064596 4 4.1666 0 0 0-0.0062 5.3743e-4 4 4.1666 0 0 0-0.0801 0.0064594 4 4.1666 0 0 0-0.01963 0.0021525 4 4.1666 0 0 0-0.1881 0.022608 4 4.1666 0 0 0-0.0036 5.3743e-4 4 4.1666 0 0 0-0.06563 0.010227 4 4.1666 0 0 0-0.05633 0.0096892 4 4.1666 0 0 0-0.0098 0.001615 4 4.1666 0 0 0-0.07545 0.014534 4 4.1666 0 0 0-0.06201 0.012919 4 4.1666 0 0 0-0.02273 0.0048446 4 4.1666 0 0 0-0.0093 0.0021525 4 4.1666 0 0 0-0.0062 0.001615 4 4.1666 0 0 0-0.08423 0.020455 4 4.1666 0 0 0-0.0031 0.001078 4 4.1666 0 0 0-0.40462 0.12704 4 4.1666 0 0 0-0.03152 0.012381 4 4.1666 0 0 0-0.07545 0.029606 4 4.1666 0 0 0-0.0057 0.002152 4 4.1666 0 0 0-0.04909 0.020455 4 4.1666 0 0 0-0.0057 0.002693 4 4.1666 0 0 0-0.0739 0.032836 4 4.1666 0 0 0-0.0057 0.002693 4 4.1666 0 0 0-0.07338 0.033912 4 4.1666 0 0 0-0.0052 0.002693 4 4.1666 0 0 0-0.07286 0.036066 4 4.1666 0 0 0-0.04703 0.024762 4 4.1666 0 0 0-0.02997 0.015611 4 4.1666 0 0 0-0.0057 0.00323 4 4.1666 0 0 0-0.0708 0.038757 4 4.1666 0 0 0-0.0036 0.002152 4 4.1666 0 0 0-0.0062 0.003768 4 4.1666 0 0 0-0.01447 0.008074 4 4.1666 0 0 0-0.05167 0.030144 4 4.1666 0 0 0-0.0052 0.00323 4 4.1666 0 0 0-0.21549 0.13834 4 4.1666 0 0 0-0.0052 0.003768 4 4.1666 0 0 0-0.27492 0.20778 4 4.1666 0 0 0-0.04754 0.039834l-0.01498 0.01292a4 4.1666 0 0 0-0.0047 0.003768 4 4.1666 0 0 0-0.0021 0.001626l-21.978 18.731a4 4.1666 0 0 0-0.00568 0.0048 4.0004 4.167 0 0 0-0.041341 0.03607 4 4.1666 0 0 0-0.028422 0.02476 4.0004 4.167 0 0 0-0.00982 0.0092 4 4.1666 0 0 0-0.045992 0.04252 4.0004 4.167 0 0 0-0.050126 0.04737 4 4.1666 0 0 0-0.024289 0.02314 4.0004 4.167 0 0 0-0.041341 0.04145 4 4.1666 0 0 0-0.01447 0.01453 4.0004 4.167 0 0 0-0.036173 0.03714 4 4.1666 0 0 0-0.032556 0.03391 4.0004 4.167 0 0 0-0.033073 0.0366 4 4.1666 0 0 0-0.020153 0.02153 4.0004 4.167 0 0 0-0.012919 0.01453 4 4.1666 0 0 0-0.041341 0.04737 4.0004 4.167 0 0 0-0.048059 0.05652 4 4.1666 0 0 0-0.013951 0.01615 4.0004 4.167 0 0 0-0.03514 0.04414 4 4.1666 0 0 0-0.025839 0.0323 4.0004 4.167 0 0 0-0.015502 0.01938 4 4.1666 0 0 0-0.044441 0.05867 4 4.1666 0 0 0-0.048059 0.06513 4.0004 4.167 0 0 0-0.004651 0.0065 4 4.1666 0 0 0-0.036173 0.05168 4.0004 4.167 0 0 0-0.032039 0.04683 4 4.1666 0 0 0-0.032039 0.04845 4 4.1666 0 0 0-0.040308 0.06244 4.0004 4.167 0 0 0-0.033073 0.05329 4 4.1666 0 0 0-0.009303 0.01615 4.0004 4.167 0 0 0-0.040824 0.06998 4 4.1666 0 0 0-0.006202 0.01023 4.0004 4.167 0 0 0-0.014986 0.02637 4 4.1666 0 0 0-0.034623 0.0619 4.0004 4.167 0 0 0-0.015502 0.03014 4 4.1666 0 0 0-0.023254 0.04414 4.0004 4.167 0 0 0-0.019121 0.03768 4 4.1666 0 0 0-0.020672 0.04145 4.0004 4.167 0 0 0-0.014986 0.03014 4 4.1666 0 0 0-0.024805 0.05275 4.0004 4.167 0 0 0-0.004135 0.0091 4 4.1666 0 0 0-0.025839 0.05814 4.0004 4.167 0 0 0-0.068729 0.16526 4.0004 4.167 0 0 0-0.032039 0.08397 4.0004 4.167 0 0 0-0.029972 0.08451 4.0004 4.167 0 0 0-0.028422 0.08505 4.0004 4.167 0 0 0-0.026355 0.08559 4.0004 4.167 0 0 0-0.024805 0.08613 4.0004 4.167 0 0 0-0.017571 0.06621 4 4.1666 0 0 0-0.010853 0.04199 4.0004 4.167 0 0 0-0.002593 0.01184 4 4.1666 0 0 0-0.018603 0.07698 4.0004 4.167 0 0 0-5.2916e-4 0.0032 4 4.1666 0 0 0-0.013435 0.0619 4.0004 4.167 0 0 0-0.01447 0.07213 4 4.1666 0 0 0-0.0056832 0.03122 4.0004 4.167 0 0 0-0.0020637 0.01077 4 4.1666 0 0 0-0.010853 0.06298 4.0004 4.167 0 0 0-0.011885 0.07698 4 4.1666 0 0 0-0.0036168 0.02315 4.0004 4.167 0 0 0-0.0020637 0.01453 4 4.1666 0 0 0-0.0082682 0.06352 4.0004 4.167 0 0 0-0.0087841 0.07751 4 4.1666 0 0 0-0.0025929 0.02476 4.0004 4.167 0 0 0-0.0041354 0.04091 4 4.1666 0 0 0-0.0041354 0.04791 4.0004 4.167 0 0 0-0.0036168 0.0576 4 4.1666 0 0 0-0.0020637 0.03068 4.0004 4.167 0 0 0-0.0025929 0.04845 4 4.1666 0 0 0-0.0020637 0.04145 4.0004 4.167 0 0 0-0.001561 0.06406 4 4.1666 0 0 0-5.2916e-4 0.02315 4.0004 4.167 0 0 0-0.0010319 0.0759 4 4.1666 0 0 0 0 7e-3v72.909a4.0004 4.167 0 0 0 0 0.0022 4 4.1666 0 0 0 0 0.0043 4.0004 4.167 0 0 0 0.0010319 0.08343 4 4.1666 0 0 0 0.0010319 0.04091 4.0004 4.167 0 0 0 0.0020637 0.05598 4.0004 4.167 0 0 0 0.0041354 0.08344 4 4.1666 0 0 0 5.2917e-4 0.0064 4.0004 4.167 0 0 0 0.0062018 0.08559 4 4.1666 0 0 0 5.2916e-4 0.0043 4.0004 4.167 0 0 0 0.0077523 0.0829 4 4.1666 0 0 0 0.0056832 0.05168 4.0004 4.167 0 0 0 0.0046514 0.03822 4 4.1666 0 0 0 0.0010319 0.0064 4.0004 4.167 0 0 0 0.0025929 0.01993 4 4.1666 0 0 0 0.022738 0.1518 4 4.1666 0 0 0 0.0010319 0.0064 4.0004 4.167 0 0 0 0.01447 0.08182 4 4.1666 0 0 0 0.0098186 0.04952 4.0004 4.167 0 0 0 0.0077523 0.03875 4 4.1666 0 0 0 0.001561 0.0064 4.0004 4.167 0 0 0 0.019637 0.08666 4 4.1666 0 0 0 0 0.0011 4.0004 4.167 0 0 0 0.019637 0.08074 4 4.1666 0 0 0 0.001561 0.0064 4.0004 4.167 0 0 0 0.021704 0.08074 4 4.1666 0 0 0 0.016536 0.05814 4.0004 4.167 0 0 0 0.008268 0.02799 4 4.1666 0 0 0 0.002064 0.0064 4.0004 4.167 0 0 0 0.02532 0.08128 4 4.1666 0 0 0 0.001561 0.0043 4.0004 4.167 0 0 0 0.026355 0.07859 4 4.1666 0 0 0 0.015502 0.04306 4.0004 4.167 0 0 0 0.01447 0.04145 4 4.1666 0 0 0 0.002593 0.0064 4.0004 4.167 0 0 0 0.029455 0.07751 4 4.1666 0 0 0 0.002593 0.0059 4.0004 4.167 0 0 0 0.031006 0.07697 4 4.1666 0 0 0 0.002593 0.0059 4.0004 4.167 0 0 0 0.03359 0.07751 4 4.1666 0 0 0 0.002064 0.0049 4.0004 4.167 0 0 0 0.034623 0.07536 4 4.1666 0 0 0 0.002593 0.0059 4.0004 4.167 0 0 0 0.036173 0.07482 4 4.1666 0 0 0 0.013436 0.02693 4.0004 4.167 0 0 0 0.026872 0.05275 4 4.1666 0 0 0 0.003101 0.0054 4.0004 4.167 0 0 0 0.039274 0.07321 4 4.1666 0 0 0 0.003101 0.0054 4.0004 4.167 0 0 0 0.040308 0.07213 4 4.1666 0 0 0 0.003101 0.0059 4.0004 4.167 0 0 0 0.042374 0.07106 4 4.1666 0 0 0 0.003101 0.0054 4.0004 4.167 0 0 0 0.043925 0.07052 4 4.1666 0 0 0 0.038757 0.06029 4.0004 4.167 0 0 0 0.011885 0.01775 4 4.1666 0 0 0 0.001032 0.0017 4.0004 4.167 0 0 0 0.046508 0.06836 4 4.1666 0 0 0 0.003617 0.0054 4.0004 4.167 0 0 0 0.048059 0.06675 4 4.1666 0 0 0 0.003617 0.0054 4.0004 4.167 0 0 0 0.049609 0.06621 4 4.1666 0 0 0 0.038241 0.04952 4 4.1666 0 0 0 0.004651 0.0059 4.0004 4.167 0 0 0 0.034623 0.04306 4 4.1666 0 0 0 0.02377 0.02961 4.0004 4.167 0 0 0 0.008784 0.01023 4 4.1666 0 0 0 0.040824 0.04791 4.0004 4.167 0 0 0 0.045475 0.05222 4 4.1666 0 0 0 0.02222 0.0253 4.0004 4.167 0 0 0 0.039791 0.04306 4 4.1666 0 0 0 0.013951 0.01507 4.0004 4.167 0 0 0 0.035657 0.03768 4 4.1666 0 0 0 0.032556 0.03391 4.0004 4.167 0 0 0 0.03514 0.03445 4 4.1666 0 0 0 0.020672 0.021 4.0004 4.167 0 0 0 0.013952 0.01345 4 4.1666 0 0 0 0.045475 0.04306 4.0004 4.167 0 0 0 0.05426 0.05006 4 4.1666 0 0 0 0.015502 0.01452 4.0004 4.167 0 0 0 0.042374 0.0366 4 4.1666 0 0 0 0.031006 0.02693 4.0004 4.167 0 0 0 0.018603 0.01615 4 4.1666 0 0 0 0.056327 0.04629 4 4.1666 0 0 0 0.062528 0.05006 4.0004 4.167 0 0 0 0.0062 0.0049 4 4.1666 0 0 0 0.049609 0.03768 4.0004 4.167 0 0 0 0.044958 0.03337 4 4.1666 0 0 0 0.046508 0.03338 4 4.1666 0 0 0 0.059945 0.04199 4.0004 4.167 0 0 0 0.051159 0.03445 4 4.1666 0 0 0 0.015502 0.0097 4.0004 4.167 0 0 0 0.067179 0.04252 4 4.1666 0 0 0 0.00982 0.0064 4.0004 4.167 0 0 0 0.025321 0.0156 4 4.1666 0 0 0 0.059427 0.03607 4.0004 4.167 0 0 0 0.028939 0.01615 4 4.1666 0 0 0 0.042374 0.02423 4.0004 4.167 0 0 0 0.036173 0.01993 4 4.1666 0 0 0 0.039791 0.02152 4.0004 4.167 0 0 0 0.028938 0.0156 4 4.1666 0 0 0 0.050643 0.02582 4.0004 4.167 0 0 0 0.00878 0.0043 4 4.1666 0 0 0 0.05581 0.02693 4.0004 4.167 0 0 0 0.15865 0.07159 4.0004 4.167 0 0 0 0.080615 0.03338 4.0004 4.167 0 0 0 0.081132 0.03122 4.0004 4.167 0 0 0 0.081648 0.02961 4.0004 4.167 0 0 0 0.082165 0.02745 4.0004 4.167 0 0 0 0.082682 0.02582 4.0004 4.167 0 0 0 0.064078 0.0183 4 4.1666 0 0 0 0.039274 0.0113 4.0004 4.167 0 0 0 0.011885 0.0028 4 4.1666 0 0 0 0.073897 0.01937 4.0004 4.167 0 0 0 0.0031 5.51e-4 4 4.1666 0 0 0 0.059427 0.014 4.0004 4.167 0 0 0 0.069246 0.01508 4 4.1666 0 0 0 0.029455 0.0059 4.0004 4.167 0 0 0 0.010853 0.0022 4 4.1666 0 0 0 0.060461 0.0113 4.0004 4.167 0 0 0 0.07338 0.01237 4 4.1666 0 0 0 0.022738 0.0038 4.0004 4.167 0 0 0 0.013951 0.0022 4 4.1666 0 0 0 0.060978 0.0086 4.0004 4.167 0 0 0 0.074414 0.0091 4 4.1666 0 0 0 0.023254 0.0028 4.0004 4.167 0 0 0 0.039791 0.0043 4 4.1666 0 0 0 0.045992 0.0043 4.0004 4.167 0 0 0 0.055294 0.0038 4 4.1666 0 0 0 0.029455 0.0022 4.0004 4.167 0 0 0 0.046509 0.0028 4 4.1666 0 0 0 0.039791 0.0022 4.0004 4.167 0 0 0 0.061495 0.0017 4 4.1666 0 0 0 0.014986 5.51e-4 4.0004 4.167 0 0 0 0.080098 0.0011 4 4.1666 0 0 0 0.00672 0h69.993a4.0004 4.167 0 0 0 0.0067 0 4 4.1666 0 0 0 0.01344 0 4.0004 4.167 0 0 0 0.15916-0.0043 4.0004 4.167 0 0 0 0.1664-0.0113 4.0004 4.167 0 0 0 0.0062-5.51e-4 4 4.1666 0 0 0 0.01498-0.0017 4.0004 4.167 0 0 0 0.07131-0.0076 4 4.1666 0 0 0 0.07958-0.0097 4.0004 4.167 0 0 0 0.0062-0.0011 4 4.1666 0 0 0 0.07906-0.01185 4.0004 4.167 0 0 0 0.0067-0.0011 4 4.1666 0 0 0 0.07906-0.01345 4.0004 4.167 0 0 0 0.0062-0.0011 4 4.1666 0 0 0 0.01654-0.0032 4.0004 4.167 0 0 0 0.06821-0.01345 4 4.1666 0 0 0 0.07855-0.01723 4.0004 4.167 0 0 0 0.0062-0.0017 4.0004 4.167 0 0 0 0.14366-0.03606 4.0004 4.167 0 0 0 0.02479-0.0065 4 4.1666 0 0 0 0.03462-0.01023 4.0004 4.167 0 0 0 0.04858-0.014 4 4.1666 0 0 0 0.07648-0.02367 4.0004 4.167 0 0 0 0.0062-0.0022 4 4.1666 0 0 0 0.07597-0.02582 4.0004 4.167 0 0 0 0.0062-0.0022 4 4.1666 0 0 0 0.01447-0.0054 4.0004 4.167 0 0 0 0.06718-0.02475 4 4.1666 0 0 0 0.03979-0.01508 4.0004 4.167 0 0 0 0.03514-0.014 4 4.1666 0 0 0 0.05013-0.021 4 4.1666 0 0 0 0.03049-0.01238 4.0004 4.167 0 0 0 0.0057-0.0028 4 4.1666 0 0 0 0.0739-0.03229 4.0004 4.167 0 0 0 0.0057-0.0028 4.0004 4.167 0 0 0 0.1571-0.0759 4 4.1666 0 0 0 0.07183-0.03714 4.0004 4.167 0 0 0 0.0057-0.0032 4 4.1666 0 0 0 0.07028-0.03929 4.0004 4.167 0 0 0 0.0057-0.0032 4 4.1666 0 0 0 0.07028-0.04037 4.0004 4.167 0 0 0 0.0057-0.0032 4 4.1666 0 0 0 0.06873-0.04252 4.0004 4.167 0 0 0 0.0057-0.0032 4 4.1666 0 0 0 0.06822-0.0436 4.0004 4.167 0 0 0 0.0052-0.0038 4 4.1666 0 0 0 0.05581-0.03768 4.0004 4.167 0 0 0 0.01707-0.0113 4 4.1666 0 0 0 0.06615-0.04683 4.0004 4.167 0 0 0 0.0052-0.0038 4 4.1666 0 0 0 0.06563-0.04845 4.0004 4.167 0 0 0 0.0052-0.0038 4 4.1666 0 0 0 0.06408-0.05006 4.0004 4.167 0 0 0 0.0052-0.0038 4 4.1666 0 0 0 0.06305-0.05114 4.0004 4.167 0 0 0 0.0052-0.0043 4 4.1666 0 0 0 0.04237-0.03553l0.01963-0.01722 21.98-18.733a4 4.1666 0 0 0 0.01963-0.01667 4 4.1666 0 0 0 0.01757-0.0156 4 4.1666 0 0 0 0.04806-0.04306 4 4.1666 0 0 0 0.04599-0.04199 4 4.1666 0 0 0 0.01913-0.01775 4 4.1666 0 0 0 0.04496-0.04253 4 4.1666 0 0 0 0.0186-0.0183 4 4.1666 0 0 0 0.04392-0.04414 4 4.1666 0 0 0 0.0181-0.01885 4 4.1666 0 0 0 0.04341-0.04468 4 4.1666 0 0 0 0.01757-0.01885 4 4.1666 0 0 0 0.04238-0.04629 4 4.1666 0 0 0 0.01704-0.01937 4 4.1666 0 0 0 0.04134-0.04683 4 4.1666 0 0 0 0.01707-0.01993 4 4.1666 0 0 0 0.0041-0.0054 4 4.1666 0 0 0 0.05271-0.06244 4 4.1666 0 0 0 0.03927-0.04845 4 4.1666 0 0 0 0.01601-0.02045 4 4.1666 0 0 0 0.0093-0.01185 4 4.1666 0 0 0 0.09715-0.13027 4 4.1666 0 0 0 0.03617-0.05114 4 4.1666 0 0 0 0.01498-0.02208 4 4.1666 0 0 0 0.03462-0.05168 4 4.1666 0 0 0 0.01447-0.02208 4 4.1666 0 0 0 0.03411-0.05275 4 4.1666 0 0 0 0.01394-0.02208 4 4.1666 0 0 0 0.03307-0.05383 4 4.1666 0 0 0 0.01344-0.0226 4 4.1666 0 0 0 0.0072-0.01293 4 4.1666 0 0 0 0.03721-0.06406 4 4.1666 0 0 0 0.0072-0.01293 4 4.1666 0 0 0 0.03617-0.06513 4 4.1666 0 0 0 0.0036-0.0075 4 4.1666 0 0 0 0.03772-0.07159 4 4.1666 0 0 0 0.02842-0.05652 4 4.1666 0 0 0 0.01138-0.02315 4 4.1666 0 0 0 0.0067-0.01452 4 4.1666 0 0 0 0.03152-0.06675 4 4.1666 0 0 0 0.0016-0.0032 4 4.1666 0 0 0 0.02429-0.05437 4 4.1666 0 0 0 0.02326-0.05275 4 4.1666 0 0 0 0.02223-0.05383 4 4.1666 0 0 0 0.02376-0.05868 4 4.1666 0 0 0 0.0093-0.02423 4 4.1666 0 0 0 0.02222-0.05921 4 4.1666 0 0 0 0.0088-0.02475 4 4.1666 0 0 0 0.02119-0.05975 4 4.1666 0 0 0 0.0021-0.0064 4 4.1666 0 0 0 0.02842-0.08505 4 4.1666 0 0 0 0.0062-0.01885 4 4.1666 0 0 0 0.01085-0.03553 4 4.1666 0 0 0 0.01497-0.0506 4 4.1666 0 0 0 0.0021-0.0081 4 4.1666 0 0 0 0.02222-0.07859 4 4.1666 0 0 0 0.01601-0.06137 4 4.1666 0 0 0 0.0062-0.0253 4 4.1666 0 0 0 0.0016-0.0075 4 4.1666 0 0 0 0.01913-0.08021 4 4.1666 0 0 0 0.03101-0.15018 4 4.1666 0 0 0 0.02016-0.11465 4 4.1666 0 0 0 0.0093-0.06298 4 4.1666 0 0 0 0.0155-0.11573 4 4.1666 0 0 0 0.0067-0.06298 4 4.1666 0 0 0 0.0026-0.02638 4 4.1666 0 0 0 0.0057-0.06352 4 4.1666 0 0 0 0.0021-0.02638 4 4.1666 0 0 0 5.3e-4 -7e-3 4 4.1666 0 0 0 0.0052-0.0829 4 4.1666 0 0 0 0.0031-0.06352 4 4.1666 0 0 0 0.0011-0.02638 4 4.1666 0 0 0 0-0.01078 4 4.1666 0 0 0 0.0021-0.07913 4 4.1666 0 0 0 5.34e-4 -0.04575 4 4.1666 0 0 0 0-0.0113 4 4.1666 0 0 0 0-0.0064v-72.909a4.0004 4.167 0 0 0 0-0.00753 4 4.1666 0 0 0-5.34e-4 -0.015073 4.0004 4.167 0 0 0-0.01498-0.34451 4 4.1666 0 0 0-0.0026-0.025301 4.0004 4.167 0 0 0-0.0062-0.064595 4 4.1666 0 0 0-0.0093-0.082359 4.0004 4.167 0 0 0-0.0011-7e-3 4 4.1666 0 0 0-0.0093-0.066748 4.0004 4.167 0 0 0-0.0031-0.022608 4 4.1666 0 0 0-0.01291-0.08182 4.0004 4.167 0 0 0-0.0011-7e-3 4 4.1666 0 0 0-0.01447-0.081282 4.0004 4.167 0 0 0-0.03876-0.18302 4 4.1666 0 0 0-0.01963-0.080206 4.0004 4.167 0 0 0-0.0021-0.00754 4 4.1666 0 0 0-0.02119-0.079667 4.0004 4.167 0 0 0-0.0021-7e-3 4 4.1666 0 0 0-0.02273-0.079129 4.0004 4.167 0 0 0-0.0021-7e-3 4 4.1666 0 0 0-0.02479-0.07859 4.0004 4.167 0 0 0-0.0021-7e-3 4 4.1666 0 0 0-0.02635-0.078052 4.0004 4.167 0 0 0-0.0026-7e-3 4 4.1666 0 0 0-0.02739-0.077514 4.0004 4.167 0 0 0-0.0026-7e-3 4 4.1666 0 0 0-0.0041-0.00969 4.0004 4.167 0 0 0-0.06201-0.15664 4 4.1666 0 0 0-0.03256-0.075899 4.0004 4.167 0 0 0-0.0031-0.00646 4 4.1666 0 0 0-0.03411-0.074822 4.0004 4.167 0 0 0-0.0031-0.00646 4 4.1666 0 0 0-0.03566-0.074284 4.0004 4.167 0 0 0-0.0031-0.00646 4 4.1666 0 0 0-0.0088-0.016688 4.0004 4.167 0 0 0-0.0708-0.13511 4 4.1666 0 0 0-0.04341-0.077514 4.0004 4.167 0 0 0-0.0036-0.00646 4 4.1666 0 0 0-0.04186-0.070516 4.0004 4.167 0 0 0-0.0036-0.00592 4 4.1666 0 0 0-0.04341-0.069978 4.0004 4.167 0 0 0-0.0036-0.00592 4 4.1666 0 0 0-0.04444-0.068363 4.0004 4.167 0 0 0-0.0041-0.00592 4 4.1666 0 0 0-0.04599-0.067825 4.0004 4.167 0 0 0-0.0041-0.00592 4 4.1666 0 0 0-0.04754-0.06621 4.0004 4.167 0 0 0-0.0041-0.00592 4 4.1666 0 0 0-0.04909-0.065671 4.0004 4.167 0 0 0-0.0041-0.00538 4 4.1666 0 0 0-0.0341-0.04414 4 4.1666 0 0 0-0.01603-0.020455 4.0004 4.167 0 0 0-0.03927-0.048446 4 4.1666 0 0 0-0.01654-0.019918 4.0004 4.167 0 0 0-0.0987-0.11466 4 4.1666 0 0 0-0.01757-0.019378 4.0004 4.167 0 0 0-0.04238-0.045755 4 4.1666 0 0 0-0.01757-0.01884 4.0004 4.167 0 0 0-0.04341-0.045217 4 4.1666 0 0 0-0.0181-0.018303 4.0004 4.167 0 0 0-0.04444-0.04414 4 4.1666 0 0 0-0.0181-0.017763 4.0004 4.167 0 0 0-0.11007-0.10281 4 4.1666 0 0 0-0.01913-0.017225 4.0004 4.167 0 0 0-0.04703-0.04091 4 4.1666 0 0 0-0.01963-0.016688 4.0004 4.167 0 0 0-0.01138-0.00969 4 4.1666 0 0 0-0.12506-0.1012 4.0004 4.167 0 0 0-0.04909-0.03768 4 4.1666 0 0 0-0.02066-0.01561 4.0004 4.167 0 0 0-0.0181-0.012918 4 4.1666 0 0 0-0.05323-0.038218 4.0004 4.167 0 0 0-0.05064-0.035528 4 4.1666 0 0 0-0.02119-0.014534 4.0004 4.167 0 0 0-0.05168-0.034451 4 4.1666 0 0 0-0.0031-0.001615 4.0004 4.167 0 0 0-0.0708-0.045216 4 4.1666 0 0 0-0.0217-0.013457 4.0004 4.167 0 0 0-0.0098-0.005921 4 4.1666 0 0 0-0.06511-0.039295 4.0004 4.167 0 0 0-0.0072-0.003768 4 4.1666 0 0 0-0.06873-0.039295 4.0004 4.167 0 0 0-0.05426-0.029606 4 4.1666 0 0 0-0.02222-0.011842 4.0004 4.167 0 0 0-0.05478-0.02853 4 4.1666 0 0 0-0.02273-0.011304 4.0004 4.167 0 0 0-0.13436-0.064057 4 4.1666 0 0 0-0.02326-0.010227 4.0004 4.167 0 0 0-0.05684-0.024762 4 4.1666 0 0 0-0.02326-0.009689 4.0004 4.167 0 0 0-0.27802-0.10389 4 4.1666 0 0 0-0.13126-0.04091 4.0004 4.167 0 0 0-0.05942-0.016687 4 4.1666 0 0 0-0.02429-0.00646 4.0004 4.167 0 0 0-0.0072-0.001615 4 4.1666 0 0 0-0.077-0.019917 4.0004 4.167 0 0 0-0.14418-0.032297 4 4.1666 0 0 0-0.11007-0.020993 4.0004 4.167 0 0 0-0.06046-0.0096892 4 4.1666 0 0 0-0.02479-0.0037681 4.0004 4.167 0 0 0-0.0052-5.3743e-4 4 4.1666 0 0 0-0.08061-0.011842 4.0004 4.167 0 0 0-0.06098-0.0069979 4 4.1666 0 0 0-0.02532-0.0026927 4.0004 4.167 0 0 0-0.06098-0.0059211 4 4.1666 0 0 0-0.02532-0.0021525 4.0004 4.167 0 0 0-0.0078-5.3743e-4 4 4.1666 0 0 0-0.07855-0.0053828 4.0004 4.167 0 0 0-0.06098-0.0032298 4 4.1666 0 0 0-0.0098-5.3743e-4 4.0004 4.167 0 0 0-0.07648-0.0021531 4 4.1666 0 0 0-0.02532-5.3743e-4 4.0004 4.167 0 0 0-0.05526-5.3743e-4h-69.999a4 4.1666 0 0 0-0.0062 0zm4.0065 8.3333h54.794l-12.222 10.416h-42.592a4 4.1666 0 0 0 0.02016-0.41664zm-8 4.6255v5.3743a4 4.1666 0 0 0 0.02016 0.41664h-6.8145zm70 5.51e-4v59.957h-10.4a4 4.1666 0 0 0-3.6003 2.3507v-50.376zm-84 14.124h62v64.583h-56.185a4 4.1666 0 0 0-0.817-3.5016 4 4.1666 0 0 0-3.1026-1.5282 4 4.1666 0 0 0-1.895 0.50115zm18 3.7503a4 4.1666 0 0 0-3.9997 4.1664v16.667a4 4.1666 0 0 0 3.9997 4.1664 4 4.1666 0 0 0 4.0003-4.1664v-16.667a4 4.1666 0 0 0-4.0003-4.1664zm0 33.333a4 4.1666 0 0 0-3.9997 4.1669v6.7755l-2.2479 1.9158a4 4.1666 0 0 0-0.56275 5.8631 4 4.1666 0 0 0 5.6286 0.58674l2.6102-2.2248h6.1717a4 4.1666 0 0 0 4.0003-4.1664 4 4.1666 0 0 0-4.0003-4.1664h-3.5998v-4.5836a4 4.1666 0 0 0-4.0003-4.1669zm23.6 8.7505a4 4.1666 0 0 0-4.0003 4.1664 4 4.1666 0 0 0 4.0003 4.1664h16a4 4.1666 0 0 0 3.9997-4.1664 4 4.1666 0 0 0-3.9997-4.1664zm28.4 5.982a4 4.1666 0 0 0 3.6003 2.3507h3.1946l-6.7949 5.7909z" />
</svg>
