<svg width="100" height="100" version="1.1" viewBox="0 0 100 100" xmlns="http://www.w3.org/2000/svg">
 <path d="m50 0a24.526 24.526 0 0 0-24.526 24.526 24.526 24.526 0 0 0 24.526 24.526 24.526 24.526 0 0 0 24.526-24.526 24.526 24.526 0 0 0-24.526-24.526zm-21.369 47.579c-10.316 8.3158-17.052 21.263-17.052 31.263 0 15.895 5.7895 21.158 38.421 21.158 32.632 0 38.421-5.2634 38.421-21.158 0-10-6.7367-22.947-17.052-31.263-5.5789 5.2632-13.158 8.4211-21.369 8.4211-8.2105 0-15.79-3.1579-21.369-8.4211z"/>
</svg>
