<svg width="100" height="100" version="1.1" viewBox="0 0 100 100" xmlns="http://www.w3.org/2000/svg"><path d="m33.703 10.658-23.047 23.047v13.795h29.844c3.8261 0 7-3.1739 7-7v-29.842zm18.797 0v29.842c0 3.8261 3.1739 7 7 7h29.842v-13.795l-23.047-23.047zm-41.844 41.842v13.799l23.049 23.043h13.795v-29.842c0-3.8261-3.1739-7-7-7zm48.844 0c-3.8261 0-7 3.1739-7 7v29.842h13.795l23.047-23.047v-13.795zm-43.844 5h24.844c1.061 0 2 0.93904 2 2v24.842h-6.7246l-20.119-20.115zm43.844 0h24.842v6.7246l-20.117 20.117h-6.7246v-24.842c0-1.061 0.93904-2 2-2z"/><path d="m69.536 100h-39.075c-0.74877 0-1.4714-0.29603-1.9982-0.82709l-27.635-27.634c-0.5311-0.53108-0.82713-1.2493-0.82713-1.9981v-39.082c0-0.74874 0.29603-1.4714 0.82713-1.9981l27.635-27.634c0.5311-0.53108 1.2494-0.82709 1.9982-0.82709h39.08c0.74877 0 1.4714 0.29601 1.9982 0.82709l27.635 27.634c0.53111 0.53108 0.82713 1.2493 0.82713 1.9981v39.078c0 0.74874-0.29603 1.4714-0.82713 1.9981l-27.635 27.634c-0.5311 0.53543-1.2494 0.83144-2.0025 0.83144zm-37.904-5.6591h36.733l25.976-25.975v-36.732l-25.976-25.975h-36.733l-25.976 25.975v36.736z"/></svg>