<svg width="100" height="100" version="1.1" viewBox="0 0 100 100" xmlns="http://www.w3.org/2000/svg"><path d="m11.35 4c-4.0714 0-7.3496 3.2782-7.3496 7.3496v44.711c0.32883-0.037483 0.66224-0.060547 1-0.060547h11v-11c0-4.9168 4.0832-9 9-9h19v-24.65c0-4.0714-3.2782-7.3496-7.3496-7.3496h-25.301zm0.31641 12h4.668c0.92333 0 1.666 0.74269 1.666 1.666v6.668c0 0.92333-0.74269 1.666-1.666 1.666h-4.668c-0.92333 0-1.666-0.74269-1.666-1.666v-6.668c0-0.92333 0.74269-1.666 1.666-1.666zm10 0h4.668c0.92333 0 1.666 0.74269 1.666 1.666v6.668c0 0.92333-0.74269 1.666-1.666 1.666h-4.668c-0.92333 0-1.666-0.74269-1.666-1.666v-6.668c0-0.92333 0.74269-1.666 1.666-1.666zm10 0h4.668c0.92333 0 1.666 0.74269 1.666 1.666v6.668c0 0.92333-0.74269 1.666-1.666 1.666h-4.668c-0.92333 0-1.666-0.74269-1.666-1.666v-6.668c0-0.92333 0.74269-1.666 1.666-1.666zm28.459 4c-3.3928 0-6.125 2.7322-6.125 6.125v9.875h21c4.9168 0 9 4.0832 9 9v11h11c0.16845 0 0.33364 0.015941 0.5 0.025391v-29.9c0-3.3928-2.7322-6.125-6.125-6.125h-29.25zm-35.125 20c-2.77 0-5 2.23-5 5v50c0 2.77 2.23 5 5 5h19v-8.8965c0-2.8276 2.2759-5.1035 5.1035-5.1035h1.793c2.8276 0 5.1035 2.2759 5.1035 5.1035v8.8965h19c2.77 0 5-2.23 5-5v-50c0-2.77-2.23-5-5-5h-50zm13 15h8c1.108 0 2 0.892 2 2v8c0 1.108-0.892 2-2 2h-8c-1.108 0-2-0.892-2-2v-8c0-1.108 0.892-2 2-2zm17 0h8c1.108 0 2 0.892 2 2v8c0 1.108-0.892 2-2 2h-8c-1.108 0-2-0.892-2-2v-8c0-1.108 0.892-2 2-2zm-50 5c-2.77 0-5 2.23-5 5v30c0 2.77 2.23 5 5 5h12.547c-0.97406-1.4365-1.5469-3.1593-1.5469-5v-35h-11zm79 0v35c0 1.8407-0.57282 3.5635-1.5469 5h12.547c2.77 0 5-2.23 5-5v-30c0-2.77-2.23-5-5-5h-11z"/></svg>
