<svg width="100" height="100" version="1.1" viewBox="0 0 100 100" xmlns="http://www.w3.org/2000/svg"><path d="m50.324 0c4.1175 18.518-25.729 21.803-20.176 42.936 4.0547 8.7767-8.2967 6.2292-3.5781-4.0625-4.1713 7.0755-5.1403 13.389-2.8887 18.949 1.6865 4.1725 6.7544 9.3441 10.594 12.078 4.279 3.0547 9.5767 5.1586 15.312 5.0801-14.228-1.6335-12.594-22.751-0.85156-32.67-2.736 7.4733-1.8127 13.965 1.9102 17.9 0-4.1217 2.5386-5.8489 2.9961-10.174 11.177 11.866 7.5796 23.612-1.8574 24.848 29.127-2.412 33.981-35.944 12.146-54.387 4.0457 7.9389 5.0238 14.033 2.9336 18.281-3.041 8.946-13.536-0.63347-6.7637-9.2578 4.0547-5.5859 0.17103-17.562-9.7773-29.521zm-26.424 70.514c-0.67846 0.029587-1.6292 1.4022-2.0664 2.2852-0.43722 0.883-0.88306 2.2612-0.51562 2.8359 0.11074 0.17322 5.7118 2.4547 13.512 5.5586 2.8889-0.92175 5.8843-1.8714 8.8809-2.8164 0.98264-0.30989 1.9644-0.61999 2.9434-0.92773-12.205-3.8124-22.48-6.9475-22.754-6.9355zm52.199 0c-0.67846-0.02959-62.937 19.324-63.451 20.289-0.51432 0.96471 0.41431 3.1216 1.1211 4.8809 0.70678 1.7592 1.6815 4.3164 2.707 4.3164 1.0256 0 61.838-23.79 62.205-24.365s-0.078403-1.9529-0.51562-2.8359c-0.43722-0.883-1.3879-2.2556-2.0664-2.2852zm-10.855 12.803c-3.8055 1.5127-8.0934 3.2057-12.504 4.9375 15.189 5.9432 30.277 11.746 30.783 11.746 1.0256 0 2.0003-2.5572 2.707-4.3164 0.70678-1.7592 1.6354-3.9161 1.1211-4.8809-0.20428-0.38317-10.15-3.6678-22.107-7.4863z"/></svg>
