<svg width="100" height="100" version="1.1" viewBox="0 0 100 100" xmlns="http://www.w3.org/2000/svg"><path d="m25 14v4.5 10h5v26.5h-10v-13.947-5h-4.5v5h-3.25v-5h-4.5v5h-3.25v-5h-4.5v5 30 20.947c0 4.432 3.568 8 8 8h30.75v-22.5a11.25 11.25 0 0 1 11.25-11.25 11.25 11.25 0 0 1 11.25 11.25v22.5h30.75c4.432 0 8-3.568 8-8v-20.947-8.0527-21.947-5h-4.5v5h-3.25v-5h-4.5v5h-3.25v-5h-4.5v5 13.947h-10v-26.5h5v-10-4.5h-4.5v4.5h-3.084v-4.5h-4.5v4.5h-3.082v-4.5h-4.5v4.5h-3.084v-4.5h-4.5v4.5h-3.084v-4.5h-4.5v4.5h-3.082v-4.5h-4.5v4.5h-3.084v-4.5h-4.5z"/></svg>
