<svg width="100" height="100" version="1.1" viewBox="0 0 100 100" xmlns="http://www.w3.org/2000/svg"><path d="m50 0c-4.2519 0-8.3711 0.55078-12.311 1.5625-1.791 0.45898-2.7168 2.4609-2.0293 4.1777l7.3184 20.318a3.1256 3.1256 0 0 0 2.9395 2.0664h8.1641c1.3184 0 2.4941-0.82617 2.9395-2.0664l7.3184-20.318c0.6875-1.7168-0.23828-3.7168-2.0293-4.1777-3.9394-1.0117-8.0586-1.5625-12.311-1.5625zm-23.229 6.1133c-0.43256 0.025421-0.86475 0.14648-1.2695 0.375a50.255 50.255 0 0 0-13.986 11.697c-1.1836 1.4297-0.75195 3.6094 0.82422 4.5938l16.197 10.123c1.2715 0.79492 2.8633 0.51172 3.9277-0.54492 1.0117-1.0059 2.1074-1.9238 3.2793-2.7441 1.2266-0.86133 1.7871-2.377 1.2305-3.7676l-7.0938-17.734c-0.51709-1.2935-1.8117-2.0743-3.1094-1.998zm46.455 0c-1.2969-0.076263-2.5908 0.70459-3.1094 1.998l-7.0938 17.734c-0.55664 1.3906 0.0039 2.9063 1.2305 3.7656 1.1719 0.82031 2.2676 1.7383 3.2793 2.7441 1.0625 1.0566 2.6563 1.3398 3.9277 0.54492l16.197-10.123c1.5762-0.98242 2.0098-3.1621 0.82422-4.5918a50.255 50.255 0 0 0-13.986-11.697c-0.4043-0.22852-0.83722-0.34958-1.2695-0.375zm-66.162 21.449c-1.0776 0.071678-2.0933 0.68408-2.5742 1.7363a49.646 49.646 0 0 0-4.3848 17.436c-0.11523 1.7754 1.377 3.2656 3.1543 3.2656h18.971c1.5547 0 2.75-1.2207 2.9316-2.7656 0.21289-1.8223 0.63281-3.5801 1.2188-5.2617 0.5-1.4336 0.048829-3.0195-1.2383-3.8242l-16.174-10.109c-0.58887-0.36768-1.2578-0.51957-1.9043-0.47656zm85.871 0c-0.64654-0.043007-1.3154 0.10889-1.9043 0.47656l-16.174 10.109c-1.2871 0.80469-1.7383 2.3906-1.2383 3.8242 0.58789 1.6816 1.0059 3.4414 1.2188 5.2617 0.18164 1.5449 1.377 2.7656 2.9316 2.7656h18.971c1.7773 0 3.2695-1.4902 3.1543-3.2656a49.636 49.636 0 0 0-4.3848-17.436c-0.48096-1.0522-1.4966-1.6646-2.5742-1.7363zm-42.936 6.8125a20 14.884 0 0 0-19.967 14.508h-0.033203v0.37695 3.623 18.5 18.5c0 2.216 1.784 4 4 4h32c2.216 0 4-1.784 4-4v-18.5-18.5-3.623-0.37695h-0.011719a20 14.884 0 0 0-19.988-14.508zm-46.875 21.875c-1.7266 0-3.125 1.3984-3.125 3.125v12.5c0 1.7266 1.3984 3.125 3.125 3.125h18.75c1.7266 0 3.125-1.3984 3.125-3.125v-12.5c0-1.7266-1.3984-3.125-3.125-3.125h-18.75zm75 0c-1.7266 0-3.125 1.3984-3.125 3.125v12.5c0 1.7266 1.3984 3.125 3.125 3.125h18.75c1.7266 0 3.125-1.3984 3.125-3.125v-12.5c0-1.7266-1.3984-3.125-3.125-3.125h-18.75zm-75 25c-1.7266 0-3.125 1.3984-3.125 3.125v12.5c0 1.7266 1.3984 3.125 3.125 3.125h18.75c1.7266 0 3.125-1.3984 3.125-3.125v-12.5c0-1.7266-1.3984-3.125-3.125-3.125h-18.75zm75 0c-1.7266 0-3.125 1.3984-3.125 3.125v12.5c0 1.7266 1.3984 3.125 3.125 3.125h18.75c1.7266 0 3.125-1.3984 3.125-3.125v-12.5c0-1.7266-1.3984-3.125-3.125-3.125h-18.75z"/></svg>
