<svg width="100" height="100" version="1.1" viewBox="0 0 100 100" xmlns="http://www.w3.org/2000/svg"><path d="m50 0c-0.71603 8.09e-5 -1.4459 0.34863-1.9629 1.0449l-15.113 20.51c-1.426 1.9298-0.2149 4.9238 1.9961 4.9238h4.3164l-14.65 19.896c-1.4261 1.9726-0.25202 4.9219 1.959 4.9219h7.8359l-13.758 18.709c-1.4261 1.9726-0.25006 4.9238 1.9609 4.9238h21.426v23.141c0 1.0692 0.74876 1.9297 1.6777 1.9297h4.3125 4.3125c0.92898 0 1.6777-0.86054 1.6777-1.9297v-23.141h21.426c2.211 0 3.387-2.9512 1.9609-4.9238l-13.758-18.709h7.8359c2.211 0 3.3851-2.9493 1.959-4.9219l-14.65-19.896h4.3164c2.211 0 3.4221-2.9941 1.9961-4.9238l-15.113-20.51c-0.51708-0.69645-1.2469-1.045-1.9629-1.0449zm-23 12.5c-0.64443 7.7e-5 -1.3004 0.3279-1.7656 0.98242l-13.604 19.279c-1.2834 1.814-0.19302 4.6289 1.7969 4.6289h3.8848l-13.186 18.701c-1.2835 1.8542-0.22623 4.6289 1.7637 4.6289h7.0527l-12.383 17.586c-1.2835 1.8542-0.22623 4.627 1.7637 4.627h19.285v17.066h10.781v-17.066h7.6191v-4.0039h-17.426c-2.8848 0-5.1903-2.0569-6.0605-4.2422s-0.71604-4.847 0.85742-7.0234l0.009766-0.013671 9.0918-12.365c-2.8538-0.031206-5.1326-2.0619-5.9961-4.2305-0.87021-2.1853-0.71604-4.847 0.85742-7.0234l0.009766-0.013672 10.598-14.393c-1.4329-0.79718-2.5543-2.0359-3.0996-3.3809-0.88106-2.1732-0.76827-4.8675 0.85156-7.0625l1.5762-2.1387-2.5137-3.5605c-0.46538-0.65467-1.1212-0.9825-1.7656-0.98242zm46 0c-0.64443 7.7e-5 -1.3004 0.3279-1.7656 0.98242l-2.5117 3.5605 1.5723 2.1348 0.001953 0.003907c1.6198 2.195 1.7326 4.8893 0.85156 7.0625-0.54529 1.345-1.6667 2.5837-3.0996 3.3809l10.598 14.393 0.009766 0.013672c1.5735 2.1765 1.7276 4.8381 0.85742 7.0234-0.86353 2.1686-3.1423 4.1993-5.9961 4.2305l9.0918 12.365 0.009766 0.013671c1.5735 2.1765 1.7276 4.8381 0.85742 7.0234-0.87021 2.1853-3.1757 4.2422-6.0605 4.2422h-17.426v4.0039h7.6191v17.066h10.781v-17.066h19.285c1.9899 0 3.0471-2.7727 1.7637-4.627l-12.383-17.586h7.0527c1.9899 0 3.0471-2.7747 1.7637-4.6289l-13.186-18.701h3.8848c1.9899 0 3.0802-2.8149 1.7969-4.6289l-13.604-19.279c-0.46537-0.65467-1.1212-0.9825-1.7656-0.98242z" stroke-width=".99999"/></svg>