<svg width="100" height="100" version="1.1" viewBox="0 0 100 100" xmlns="http://www.w3.org/2000/svg"><path d="m49.379 11c-1.3692 0.0069-2.6794 0.55993-3.6426 1.5371l-30.266 30.691c-2.0051 2.0342-1.9884 5.3164 0.037109 7.3301 0.52891 0.49803 1.1566 0.8789 1.8418 1.1172 5.5918 3.828 18.534 6.317 32.879 6.3242 19.756 8e-6 35.771-4.6404 35.771-10.365-0.0025-0.65915-0.22284-1.3178-0.65625-1.9648-0.22781-0.88113-0.6821-1.6855-1.3184-2.334l-30.264-30.693c-0.80702-0.79553-1.8525-1.3021-2.9746-1.4434-0.45796-0.13127-0.93195-0.1984-1.4082-0.19922zm-24.379 48.178v32.822c0 4.432 3.568 8 8 8h10v-15.328c0-2.5885 1.0941-4.6719 2.4531-4.6719h9.0938c1.359 0 2.4531 2.0833 2.4531 4.6719v15.328h10c4.432 0 8-3.568 8-8v-32.762c-6.773 1.7538-15.346 2.7617-24.771 2.7617a4.0004 4.0004 0 0 0-0.001954 0c-9.5273-0.004787-18.258-0.87596-25.227-2.8223z"/></svg>
