<svg width="100" height="100" version="1.1" viewBox="0 0 100 100" xmlns="http://www.w3.org/2000/svg"><path d="m99.533 87.242-37.461-65.023c-0.62228-0.99652-1.6179-1.6193-2.8625-1.6193-1.1201 0-2.2402 0.62282-2.8625 1.6193l-17.492 30.391 11.619 20.297s0.72638 1.7085-0.8006 2.6015c-1.527 0.89303-2.6343-0.60156-2.6343-0.60156l-10.481-18.308-6.3472-11.086c-0.62228-0.99652-1.6179-1.6193-2.8625-1.6193-1.1201 0-2.2402 0.62282-2.8625 1.6193l-24.02 41.729c-0.62228 0.99652-0.62228 2.2422 0 3.2387 0.62228 0.99652 1.6179 1.6193 2.8625 1.6193h93.342c1.1201 0 2.2402-0.62282 2.8625-1.6193 0.62228-0.99652 0.62228-2.2422 0-3.2387z"/></svg>