<svg width="100" height="100" version="1.1" viewBox="0 0 100 100" xmlns="http://www.w3.org/2000/svg"><path d="m50 0c-4.2518 3.0155e-5 -8.3708 0.55081-12.311 1.5625-1.791 0.45898-2.7168 2.4609-2.0293 4.1777l3.0605 8.4961c3.6492-1.1508 7.453-1.7364 11.279-1.7363 3.8263-5.8e-5 7.6301 0.5855 11.279 1.7363l3.0605-8.4961c0.6875-1.7168-0.23828-3.7168-2.0293-4.1777-3.9393-1.0117-8.0583-1.5625-12.311-1.5625zm-22.986 6.1094c-0.08089-0.00184-0.16108-8.663e-4 -0.24219 0.0039062-0.43256 0.025421-0.86478 0.14648-1.2695 0.375-5.3363 3.0137-10.076 6.978-13.986 11.697-1.1836 1.4297-0.75195 3.6094 0.82422 4.5938l7.627 4.7656c3.4952-4.6752 8.0336-8.4699 13.254-11.082l-3.3398-8.3516c-0.48477-1.2127-1.6538-1.9743-2.8672-2.002zm45.969 0c-1.2127 0.027685-2.379 0.78938-2.8652 2.002l-3.3398 8.3496c5.2203 2.6121 9.7587 6.4068 13.254 11.082l7.627-4.7656c1.5762-0.98242 2.0098-3.1621 0.82422-4.5918-3.9099-4.7193-8.65-8.6836-13.986-11.697-0.4043-0.22852-0.83725-0.34958-1.2695-0.375-0.081059-0.0047699-0.1633-0.0057462-0.24414-0.0039062zm-13.604 18.4c-5.9782-0.20724-12.27 2.7763-17.492 8.3887-3.1609 3.3974-4.8722 6.4887-5.4336 9.8184-0.88813 5.2678 1.2391 11.317 5.3652 15.264 1.7181 1.6436 3.4093 2.5852 5.6992 3.168 0.31802 0.08093 0.50378 0.13715 0.53711 0.18164l0.001953 0.001953c4.24e-4 8.72e-4 0.00165 0.004997 0.001953 0.00586v0.001953 0.001953c-6.4e-5 8.37e-4 1.86e-4 0.00503 0 0.005859v0.001953c-4.33e-4 8.14e-4 -0.00335 0.005053-0.003906 0.00586-0.045586 0.053562-0.37101 0.093378-1.0156 0.14648-1.5203 0.12525-3.51 8.12e-4 -4.7773-0.29883-3.5215-0.83261-7.8788-3.923-10.811-7.666-1.2344-1.5759-2.8204-4.433-3.3379-6.0117-1.4906-4.5471-0.75203-8.5031 2.2598-12.105 0.38438-0.45975 0.62715-0.83834 0.5918-0.91211h-0.001953v-0.001953l-0.001953-0.001953-0.001954-0.001953v-0.001953h-0.001953l-0.001953-0.001953h-0.001953c-0.00427-0.001268-0.011662-0.002534-0.017578-0.001953-0.78283 0.076874-1.9746 0.37572-2.8262 0.70898-1.9941 0.78036-3.2703 1.9595-4.4141 4.0801-0.61266 1.1358-0.78256 1.6856-1.0156 3.2734-0.31475 2.1443-0.22304 3.7515 0.33203 5.8125 0.34907 1.2961 0.48976 1.5959 1.8281 3.9121 1.2012 2.0787 1.6539 2.7513 2.6387 3.916 6.304 7.4563 13.881 10.8 20.471 9.0371 1.6696-0.44686 4.9676-2.3467 6.1758-3.5586 1.0238-1.027 1.8213-2.0683 2.3457-3.0625 0.49324-0.93511 0.79425-2.9856 0.61914-4.2148-0.096456-0.67709-0.21804-1.1389-0.28516-1.1992l-0.001954-0.001953c-8.24e-4 -5.07e-4 -0.005054-0.003534-0.005859-0.003907h-0.001953-0.001953-0.001953-0.001954-0.001953-0.001953l-0.001953 0.001954-0.003906 0.003906c-0.023654 0.033033-0.032654 0.1706-0.015625 0.42969 0.18063 2.7484-2.333 4.5985-4.6641 3.4336-2.5959-1.2973-4.0836-5.366-3.3359-9.127 0.61654-3.1015 3.4345-6.4361 6.7539-7.9961 4.5152-2.1219 9.7206-2.2966 14.365-0.48242 3.0299 1.1834 4.8932 2.6824 6.6094 5.3184l1.0078 1.5488-0.32422-0.90625c-1.3888-3.8766-3.805-7.4201-6.5098-9.5469-3.9693-3.121-8.793-4.1224-13.607-2.8223-1.874 0.50605-5.0024 2.2682-6.2461 3.5176-2.5188 2.5304-4.0941 5.7534-4.623 9.459-0.44962 3.1498 0.028945 5.9031 1.4473 8.3496 0.44446 0.76666 0.6103 1.0571 0.57422 1.1328l-0.001954 0.001953c-5.77e-4 8.15e-4 -0.001313 0.005108-0.001953 0.005859l-0.001953 0.001953c-7.65e-4 6.27e-4 -0.005033 0.003341-0.005859 0.003907h-0.001953c-0.037988 0.017854-0.12729-0.008185-0.25391-0.050782-0.22368-0.075256-0.81449-0.46125-1.3125-0.85742-2.1986-1.749-3.5876-5.2087-3.5352-8.8008 0.033928-2.3228 0.65121-4.4638 1.9746-6.8418 2.3221-4.1725 5.818-6.6988 11.014-7.957 7.1703-1.7365 14.466 0.34452 18.215 5.1934 0.91021 1.1773 1.337 1.7387 1.4219 1.7559l0.001953 0.001953h0.001953l0.001953-0.001953h0.001954 0.001953v-0.001953h0.001953v-0.001953h0.001953v-0.001954c0.020373-0.069159-0.19417-0.52942-0.55859-1.334-0.96912-2.1396-2.6879-4.8751-4.0156-6.3906-2.5553-2.9167-5.6721-4.7509-9.2422-5.4395-0.83714-0.16145-1.685-0.25555-2.5391-0.28516zm33.557 3.0508v0.001953c-0.64654-0.04301-1.3154 0.10889-1.9043 0.47656l-7.6855 4.8027c2.7305 5.3073 4.1547 11.19 4.1543 17.158h9.2402c1.7773 0 3.2695-1.4902 3.1543-3.2656-0.38785-6.031-1.8738-11.94-4.3848-17.438-0.48096-1.0522-1.4966-1.6646-2.5742-1.7363zm-85.871 0.001953c-1.0776 0.07168-2.0933 0.68411-2.5742 1.7363-2.5105 5.4965-3.9965 11.405-4.3848 17.436-0.11523 1.7754 1.377 3.2656 3.1543 3.2656h9.2402c-1.06e-4 -5.9678 1.4241-11.85 4.1543-17.156l-7.6855-4.8047c-0.58887-0.36768-1.2578-0.51957-1.9043-0.47656zm53.141 18.297c-1.4122-0.018574-2.7585 0.13295-3.9688 0.46094-1.5658 0.42434-4.1374 1.8656-4.957 2.7793-0.41854 0.46651-0.60872 0.73081-0.57031 0.79492l0.001954 0.001953c8.07e-4 7.98e-4 0.004943 0.003203 0.005859 0.003907 0.001025 6.08e-4 0.004726 0.003391 0.005859 0.003906 0.070797 0.023949 0.32153-0.10268 0.74609-0.38281 0.69632-0.45946 0.95372-0.53945 1.6953-0.51953 1.5756 0.042303 3.3814 1.0879 4.875 2.8223 1.4453 1.6783 2.2732 3.6247 2.6484 6.2324 0.72529 5.0405-0.99128 10.004-4.8105 13.904-4.7707 4.8721-10.4 6.3858-16.312 4.3867-3.7122-1.2552-7.4272-4.0965-10.211-7.8086l-0.58398-0.7793 0.5918 1.2441c1.1377 2.389 3.9633 6.1776 6.3027 8.4531 4.533 4.4091 9.6941 6.8635 14.797 7.0352 6.3289 0.21294 13.08-3.7967 16.621-9.8691 1.8567-3.1838 2.7609-8.3115 2.1426-12.16-0.37899-2.3591-1.1289-4.4002-2.4609-6.6953-0.99584-1.7159-1.2806-2.1104-2.168-3.0078-1.1263-1.1391-2.5927-2.2056-3.6133-2.627-0.36445-0.15046-0.65353-0.33275-0.64258-0.40625 0.041263-0.27685 1.6853-0.58585 2.8086-0.52734 1.549 0.080674 3.9409 1.0202 5.3809 2.1133 1.6953 1.2869 3.0737 2.8482 4.1289 4.6738 0.49003 0.84793 1.0746 2.0317 1.2988 2.6309 1.2157 3.249 1.8444 7.2802 1.5762 10.104-0.036942 0.38884-0.031616 0.60295 0.015625 0.64062 9.8e-4 6.12e-4 0.004845 0.003436 0.00586 0.003906 0.002099 6.58e-4 0.007526 0.001862 0.009765 0.001954 0.08314-0.006911 0.25927-0.37993 0.5332-1.1289 0.65558-1.7924 1.0492-4.2486 1.002-6.248-0.033391-1.4123-0.53082-4.1718-1.0156-5.6309-1.544-4.6468-3.9658-7.1874-8.5977-9.0195-2.3923-0.9463-4.9276-1.4495-7.2812-1.4805zm-57.082 10.391c-1.7266 0-3.125 1.3984-3.125 3.125v12.5c0 1.7266 1.3984 3.125 3.125 3.125h18.75c0.05733 0 0.11531-8.68e-4 0.17188-0.003906-4.7143-5.273-7.8411-11.772-9.0195-18.746h-9.9023zm83.852 0c-1.1784 6.9743-4.3053 13.473-9.0195 18.746 0.055942 0.002977 0.11128 0.003906 0.16797 0.003906h18.75c1.7266 0 3.125-1.3984 3.125-3.125v-12.5c0-1.7266-1.3984-3.125-3.125-3.125h-9.8984zm-83.852 25c-1.7266 0-3.125 1.3984-3.125 3.125v12.5c0 1.7266 1.3984 3.125 3.125 3.125h18.75c1.7266 0 3.125-1.3984 3.125-3.125v-12.5c0-1.7266-1.3984-3.125-3.125-3.125h-18.75zm75 0c-1.7266 0-3.125 1.3984-3.125 3.125v12.5c0 1.7266 1.3984 3.125 3.125 3.125h18.75c1.7266 0 3.125-1.3984 3.125-3.125v-12.5c0-1.7266-1.3984-3.125-3.125-3.125h-18.75z"/></svg>
