<svg width="100" height="100" version="1.1" viewBox="0 0 100 100" xmlns="http://www.w3.org/2000/svg"><path d="m20.5 9c-2.2091 0-4 1.7909-4 4h-16.5v8h16.5v6h-1c-4.432 0-8 3.568-8 8v48c0 4.432 3.568 8 8 8h69c4.432 0 8-3.568 8-8v-48c0-4.432-3.568-8-8-8h-1v-6h9c2.2091 0 4-1.7909 4-4s-1.7909-4-4-4h-9c0-2.2091-1.7909-4-4-4s-4 1.7909-4 4h-51c0-2.2091-1.7909-4-4-4zm4 12h51v6h-51v-6zm22.943 12h0.003907c4.0426 0.0045 7.7806 1.8468 9.834 4.9746 0.25776-0.01803 0.50454-0.11003 0.76367-0.11133 0.0052-1.4e-5 0.010415-1.4e-5 0.015625 0 5.3052 2.71e-4 10.241 3.6016 10.24 8.8359-2.78e-4 2.7969-1.4601 5.0669-3.582 6.6309 3.4787 0.17677 6.2812 3.0225 6.2812 6.541v7.2148c0 3.5254-2.8125 6.3785-6.3008 6.5449v3.0059c0 3.6052-2.9921 6.6074-6.5996 6.6074h-19.799c-3.6075 0-6.6016-3.0022-6.6016-6.6074v-4.1191-6.7012-12.955c0.06494-0.14992 0.14202-0.29428 0.23047-0.43164-1.7566-1.5381-2.9293-3.7252-2.9297-6.2168-7.71e-4 -4.5638 3.7425-8.3495 8.3086-8.3496 0.10628 0 0.20451 0.054494 0.31055 0.058594 2.0631-3.1014 5.7964-4.9219 9.8242-4.9219zm0 3a8.4457 6.8082 0 0 0-8.2129 5.2246 5.3087 5.3493 0 0 0-1.9219-0.36133 5.3087 5.3493 0 0 0-5.3086 5.3496 5.3087 5.3493 0 0 0 5.3086 5.3477 5.3087 5.3493 0 0 0 2.1719-0.4668v4.3574a2.1717 2.1883 0 0 0 2.1719 2.1895 2.1717 2.1883 0 0 0 2.1699-2.1895v-6.4922a8.4457 6.8082 0 0 0 3.6211 0.6582 8.4457 6.8082 0 0 0 3.8887-0.7793 7.2391 5.8356 0 0 0 6.7285 3.6973 7.2391 5.8356 0 0 0 7.2402-5.8359 7.2391 5.8356 0 0 0-7.2402-5.8359 7.2391 5.8356 0 0 0-2.418 0.34766 8.4457 6.8082 0 0 0-8.1992-5.2109zm3.1934 14.928c-1.0337 0.28864-2.0963 0.48867-3.1875 0.49219-0.0018 3e-6 -0.00406 3e-6 -0.00586 0-0.62656-5e-5 -1.2069-0.23536-1.8203-0.33008v4.3613c-2e-6 2.1776-1.7929 3.9922-3.9707 3.9922-2.1778-1e-6 -3.9707-1.8146-3.9707-3.9922v-2.166c-0.12794 0.0069-0.2446 0.080128-0.37305 0.080078-0.91963 1e-6 -1.8008-0.17968-2.6094-0.50391v12.955 6.7012 4.1191c0 1.9981 1.6072 3.6074 3.6016 3.6074h19.799c1.9944 0 3.5996-1.6093 3.5996-3.6074v-4.1191-1.8262h2.7012c1.9633 0 3.5996-1.6385 3.5996-3.6055v-7.2148c0-1.9669-1.6363-3.6055-3.5996-3.6055h-2.7012v-2.5723c-1.1287 0.41754-2.3652 0.64453-3.6387 0.64453h-0.001953c-2.9836-0.0024-5.7274-1.2606-7.4219-3.4102zm-2.1367 8.3223a1.75 1.75 0 0 1 1.75 1.75v13a1.75 1.75 0 0 1-1.75 1.75 1.75 1.75 0 0 1-1.75-1.75v-13a1.75 1.75 0 0 1 1.75-1.75zm13.199 0.62109h2.7012v7.2148h-2.7012v-1.2695-5.9453zm-19.699 2.6289a1.5 1.5 0 0 1 1.5 1.5v7.5a1.5 1.5 0 0 1-1.5 1.5 1.5 1.5 0 0 1-1.5-1.5v-7.5a1.5 1.5 0 0 1 1.5-1.5zm13 0a1.5 1.5 0 0 1 1.5 1.5v7.5a1.5 1.5 0 0 1-1.5 1.5 1.5 1.5 0 0 1-1.5-1.5v-7.5a1.5 1.5 0 0 1 1.5-1.5z"/></svg>
