<svg width="100" height="100" version="1.1" viewBox="0 0 100 100" xmlns="http://www.w3.org/2000/svg"><path d="m49.543 0c-1.0266 0.005175-2.0083 0.41946-2.7305 1.1523l-22.693 23.02c-1.5034 1.5257-1.4913 3.9858 0.02734 5.4961 0.39656 0.37352 0.86712 0.65916 1.3809 0.83789 4.1926 2.871 13.897 4.7387 24.652 4.7441 14.812 6e-6 26.82-3.48 26.82-7.7734-0.0019-0.49437-0.16723-0.98936-0.49219-1.4746-0.1708-0.66085-0.5112-1.2636-0.98828-1.75l-22.691-23.02c-0.60508-0.59665-1.3892-0.97606-2.2305-1.082-0.34336-0.098453-0.69761-0.14978-1.0547-0.15039zm-17.543 37.385v54.615c0 4.432 3.568 8 8 8h2v-12.002c0-3.2888 2.7112-5.998 6-5.998h4c3.2888 0 6 2.7093 6 5.998v12.002h2c4.432 0 8-3.568 8-8v-54.596c-5.0136 1.1872-11.138 1.8457-17.82 1.8457h-2e-3c-6.7867-0.0034-13.009-0.54584-18.178-1.8652z"/></svg>
