<svg width="100" height="100" version="1.1" viewBox="0 0 100 100" xmlns="http://www.w3.org/2000/svg"><path d="m67.092 0c-1.2304 0.0062-2.4079 0.5025-3.2734 1.3809l-21.834 22.148 18.156 18.418c2.4958 0.18079 5.0662 0.29945 7.7148 0.30078 17.752 7e-6 32.145-4.1725 32.145-9.3184-0.0022-0.5925-0.20038-1.184-0.58984-1.7656-0.20471-0.79202-0.61185-1.5147-1.1836-2.0977l-27.195-27.59c-0.72518-0.71508-1.6655-1.1699-2.6738-1.2969-0.41152-0.11799-0.83767-0.17895-1.2656-0.17969zm-35.281 20c-1.2304 0.0062-2.406 0.5025-3.2715 1.3809l-27.197 27.588c-1.8018 1.8285-1.7869 4.7798 0.033203 6.5898 0.47528 0.44767 1.0386 0.78972 1.6543 1.0039 5.0247 3.4409 16.655 5.6791 29.545 5.6855 17.752 7e-6 32.145-4.1725 32.145-9.3184-0.0022-0.5925-0.20038-1.184-0.58984-1.7656-0.20471-0.79203-0.61185-1.5147-1.1836-2.0977l-27.195-27.59c-0.72518-0.71508-1.6655-1.1699-2.6738-1.2969-0.41152-0.11799-0.83767-0.17895-1.2656-0.17969zm58.305 23.359c-6.0862 1.5764-13.79 2.4824-22.26 2.4824a3.5948 3.5959 0 0 0-0.001953 0c-1.3345-6.7e-4 -2.6431-0.025228-3.9395-0.064453l1.168 1.1836a3.0003 3.0003 0 0 1 0.003907 0.003906c0.81927 0.83529 1.389 1.8668 1.7559 2.9727 0.50776 0.88937 0.87295 1.9018 0.87695 2.9824a3.0003 3.0003 0 0 0 0 0.001953 3.0003 3.0003 0 0 0 0 0.001953 3.0003 3.0003 0 0 0 0 0.001953 3.0003 3.0003 0 0 0 0 0.001953 3.0003 3.0003 0 0 0 0 0.001954c0 2.6848-1.7831 4.6988-3.8301 6.1016-1.7967 1.2312-4.0896 2.1763-6.7051 3.0039a3.0003 3.0003 0 0 1 0.65039 1.3242v16.641h3.5254v-13.777c0-2.3268 0.9839-4.1992 2.2051-4.1992h8.1719c1.2212 0 2.2051 1.8724 2.2051 4.1992v13.777h8.9844c3.9826 0 7.1895-3.2076 7.1895-7.1914v-29.449zm-80.211 19.947v29.502c0 3.9838 3.2069 7.1914 7.1895 7.1914h8.9863v-13.777c0-2.3268 0.98194-4.1992 2.2031-4.1992h8.1719c1.2212 0 2.2051 1.8724 2.2051 4.1992v13.777h8.9863c3.9826 0 7.1875-3.2076 7.1875-7.1914v-29.449c-6.0862 1.5764-13.79 2.4824-22.26 2.4824a3.5948 3.5959 0 0 0-0.001953 0c-8.5612-0.004324-16.406-0.78567-22.668-2.5352z"/></svg>
