<svg width="100" height="100" version="1.1" viewBox="0 0 100 100" xmlns="http://www.w3.org/2000/svg">
 <path d="m48.876 99.925c-0.45927-0.0786-6.554-2.0705-13.544-4.4265-6.9898-2.356-12.721-4.2837-12.735-4.2837-0.01444 0-0.12689-0.24294-0.24988-0.53985-0.28745-0.69397-0.30866-0.65609 2.5527-4.5588 1.2738-1.7374 2.8265-3.867 3.4503-4.7324 0.62383-0.86538 1.3574-1.8048 1.6303-2.0876l0.49602-0.51417h19.304c13.342 0 19.436 0.0614 19.73 0.19888 0.5578 0.26025 8.185 10.515 8.2705 11.12 0.03617 0.25562-0.04469 0.6134-0.17959 0.79508-0.28626 0.38548-25.735 8.9209-27.058 9.0751-0.45813 0.0534-1.2087 0.0329-1.668-0.0457zm6.2955-5.393c1.8169-0.56083 2.7971-1.4387 2.7971-2.505 0-0.90488-0.34901-1.4197-1.3539-1.9972-1.5298-0.87912-5.5089-1.2948-7.7851-0.81331-1.3971 0.29555-1.6485 0.10986-0.77815-0.57475 0.99949-0.78619 2.1874-1.0121 4.7065-0.8949 1.2839 0.0597 2.51 0.16119 2.7247 0.22547 0.5572 0.16688 1.4633-0.63288 1.3-1.1474-0.1637-0.51577-0.73041-0.74023-2.5352-1.0041-1.8834-0.27538-5.5235-0.13695-7.3199 0.27836-3.4869 0.80615-5.469 3.0996-4.7508 5.4968 0.4621 1.5423 2.2335 2.8145 4.5289 3.2525 2.0953 0.39981 6.7034 0.22753 8.4658-0.31649zm-6.4075-1.6204c-0.6989-0.32618-0.99057-0.74835-0.99888-1.4458-0.0035-0.29342 2.31-0.6716 3.1945-0.52218 0.96218 0.16256 1.7168 0.81134 1.5511 1.3335-0.25311 0.79747-2.5603 1.1882-3.7467 0.63446zm9.2364-9.0553c0.38522-0.34861 0.45468-1.359 0.11667-1.697-0.16625-0.16625-2.2336-0.22267-8.1583-0.22267-7.6558 0-7.9424 0.0126-8.1277 0.35893-0.2916 0.54486-0.23197 1.0128 0.18627 1.4617 0.37738 0.40505 0.39811 0.40611 8.011 0.40611 6.8419 0 7.6678-0.0318 7.972-0.30711zm-39.146 4.4359c-0.20502-0.1786-2.5663-3.3726-5.2473-7.0978s-6.2367-8.6519-7.9016-10.948c-1.6649-2.2964-3.1742-4.551-3.354-5.0102-0.29962-0.76526-0.33169-1.967-0.38375-14.381-0.03124-7.4504-0.0072-13.818 0.05349-14.151 0.06336-0.3472 0.29927-0.7283 0.55431-0.89541 0.42229-0.27669 0.75543-0.18617 6.8108 1.8507 5.4038 1.8177 6.4418 2.2248 6.8627 2.6915 0.35661 0.39542 0.84275 1.6354 1.7303 4.4135 0.67892 2.125 1.8887 5.9094 2.6884 8.4099 0.79968 2.5005 2.0943 6.5504 2.877 8.9998 0.78267 2.4494 1.9506 6.0818 2.5954 8.072 0.64482 1.9902 1.4016 4.3874 1.6818 5.3272 0.49778 1.6698 0.50179 1.7206 0.17552 2.2268-1.1347 1.7604-7.6029 10.481-7.8865 10.633-0.49654 0.26574-0.83351 0.22802-1.2567-0.14066zm-3.9045-14.271c0.53266-0.48205 0.41934-1.4275-0.34284-2.8604-0.3752-0.70536-0.64659-1.3115-0.60308-1.3469 0.04351-0.0355 1.2482-0.46438 2.677-0.95316 3.5109-1.201 3.5056-1.1972 3.3801-2.4135-0.09053-0.87718-0.91006-3.313-1.2362-3.6743-0.20076-0.2224-7.8457 2.455-8.2211 2.8792-0.72987 0.82475-0.27454 2.7225 1.3548 5.6466 1.5957 2.8638 2.2137 3.4262 2.9914 2.7225zm-3.6613-11.997c0.15556-0.62982 0.09886-0.85957-0.52157-2.1134-0.38286-0.77373-0.6284-1.4682-0.54566-1.5434 0.08274-0.0752 1.3308-0.52649 2.7735-1.0031 2.7091-0.89492 3.223-1.2104 3.2212-1.9779-0.0024-1.0637-1.1654-4.0678-1.5748-4.0678-0.54927 0-7.8187 2.6434-8.0271 2.9189-0.32401 0.42833-0.28911 1.8575 0.07118 2.9149 0.36759 1.0788 2.3499 4.6705 2.9044 5.2624 0.28089 0.29984 0.56613 0.40989 0.96184 0.37112 0.48114-0.0472 0.58778-0.15737 0.73706-0.76176zm68.43 26.268c-0.32931-0.28649-1.9739-2.4529-6.6838-8.8045-0.73392-0.98974-1.3344-1.9752-1.3344-2.1898 0-0.21467 0.53732-2.0352 1.194-4.0457 0.65673-2.0105 3.3353-10.252 5.9524-18.315 2.6171-8.0627 4.8563-14.754 4.9759-14.869 0.28774-0.2765 12.736-4.4152 13.181-4.3825 0.19002 0.0139 0.50316 0.16806 0.69586 0.34245 0.33767 0.30558 0.35021 0.82889 0.34628 14.438-4e-3 13.287-0.0242 14.164-0.34384 14.863-0.29545 0.64544-2.899 4.3941-5.0262 7.237-0.38185 0.5103-2.7648 3.8087-5.2954 7.3298-5.7041 7.9366-6.0523 8.4109-6.2971 8.5795-0.34552 0.23794-0.97912 0.15314-1.3652-0.18272zm9.7802-18.742c0.47485-0.44313 0.76847-1.2552 2.231-6.17 0.92632-3.1128 1.6836-5.8893 1.6829-6.17-2e-3 -0.73218-0.6169-1.2894-1.2567-1.1386-0.27911 0.0657-0.55984 0.17141-0.62383 0.23478-0.064 0.0633-0.59713 1.7435-1.1848 3.7337-0.58764 1.9902-1.0878 3.6421-1.1114 3.671-0.0508 0.0621-1.0252-1.5936-2.798-4.7545-0.70628-1.2593-1.4381-2.3728-1.6262-2.4745-0.68238-0.36877-1.1892-0.0255-1.7617 1.1934-0.29926 0.63715-0.64801 1.5772-0.77499 2.089l-0.23087 0.93051 0.86854 1.389c4.7971 7.6718 5.002 7.9575 5.7174 7.9706 0.177 3e-3 0.56787-0.22374 0.86861-0.5044zm-58.015 6.7589c-0.32908-0.11981-0.75846-0.38484-0.95417-0.58896-0.21698-0.22631-1.6368-4.3899-3.6386-10.67-1.8055-5.6643-3.9793-12.47-4.8306-15.123-2.6919-8.3902-3.0606-9.5811-3.0606-9.8857 0-0.61049 0.88608-1.5717 2.5656-2.7832 0.95182-0.68658 2.1364-1.5406 2.6323-1.8978 1.3041-0.9393 5.5779-4.0426 15.637-11.355 4.9426-3.5927 9.1514-6.5237 9.5101-6.6228 0.42184-0.11648 0.88268-0.11168 1.3376 0.0139 0.41704 0.11514 3.2868 2.0854 7.1906 4.9368 3.5731 2.6098 7.9996 5.8437 9.8367 7.1864 6.5371 4.7779 9.2998 6.7868 10.905 7.9296 1.6486 1.1737 2.3628 2.1036 2.3628 3.0764 0 0.22513-0.63242 2.349-1.4054 4.7197-1.8539 5.6859-3.2517 9.9841-6.1991 19.063-1.342 4.1334-2.6875 8.2745-2.9901 9.2023-0.57493 1.7629-1.0954 2.4747-2.0822 2.8475-0.77499 0.29282-36.008 0.24621-36.818-0.0487zm13.033-14.347c0.25269-0.097 0.27946-1.2588 0.23429-10.168l-0.05099-10.059-0.45543-0.6645c-0.5859-0.85485-1.2636-1.2467-2.3861-1.3797-0.80194-0.095-1.1425-1.9e-4 -3.1119 0.86558-1.2163 0.53473-2.4711 1.1663-2.7884 1.4034-1.4009 1.0469-1.5616 3.1149-0.35907 4.6186 0.28611 0.35777 0.30969 0.35599 1.8302-0.13917 0.84717-0.27589 1.6397-0.50162 1.7612-0.50162 0.16706 0 0.2209 1.7662 0.2209 7.2462 0 5.93 0.04834 7.3396 0.26611 7.7608 0.36375 0.70341 0.74519 0.98758 1.5529 1.1569 0.6995 0.14664 2.77 0.0589 3.2863-0.13919zm18.259-0.33582c0.28674-0.14828 0.62666-0.52385 0.75537-0.83461 0.26227-0.63317 0.17838-2.3992-0.15271-3.2149l-0.20908-0.51509-3.918 0.0173c-2.1549 0.01-3.9444-9e-3 -3.9767-0.0416-0.03228-0.0324 1.0708-1.0192 2.4513-2.1929 3.022-2.5693 4.0532-3.665 4.8158-5.1174 1.1969-2.2793 1.2821-4.414 0.259-6.4921-1.2365-2.5117-3.8027-3.7922-7.5999-3.7922-3.8533 0-6.0514 1.0612-6.4383 3.1082-0.1746 0.92389 0.07402 1.8448 0.6863 2.5422l0.5551 0.63222 1.1591-0.5424c0.63749-0.29832 1.657-0.6347 2.2656-0.74752 2.1922-0.40641 4.1683 0.51118 4.1683 1.9356 0 1.4824-0.64266 2.3039-4.6087 5.8915-3.3598 3.0393-3.8488 3.5516-4.2353 4.4376-0.61336 1.406-0.26294 3.729 0.72041 4.7757l0.39462 0.42005h6.1933c5.0528 0 6.2893-0.0496 6.7146-0.26959zm-52.758-26.155c-6.0718-2.0853-6.6054-2.3378-6.6054-3.1252 0-0.18969 1.0229-1.7743 2.2732-3.5213 1.2502-1.747 2.6072-3.6531 3.0154-4.2357 3.5772-5.1053 10.513-14.658 11-15.149 0.78405-0.79144 1.7133-1.2573 3.8152-1.9126 2.0542-0.64041 6.2535-1.9676 16.414-5.1875 6.5366-2.0715 7.7223-2.3965 8.072-2.2124 0.2255 0.11872 0.47134 0.30773 0.54632 0.42002 0.07498 0.11229 0.13761 3.3406 0.13917 7.1741l0.0028 6.9699-15.68 11.401c-12.357 8.9848-15.808 11.409-16.283 11.438-0.36538 0.0226-3.0082-0.78887-6.7086-2.0598zm16.126-10.677c2.9747-1.4109 6.8436-4.67 7.7839-6.5568 0.66686-1.3382 0.64331-2.4067-0.06873-3.1187-0.4683-0.46831-0.68217-0.54242-1.5652-0.54242-0.56254 0-1.2486 0.0859-1.5245 0.19076-0.27595 0.10492-0.53385 0.15863-0.57311 0.11937-0.03926-0.0393 0.13832-0.43825 0.39463-0.88662 1.2392-2.1679-0.16732-3.735-2.8196-3.1414-1.9317 0.4323-5.1019 2.3687-7.4161 4.5299-1.9286 1.8011-2.3633 2.7807-1.4885 3.3539 0.68244 0.44715 1.3168 0.18272 2.5751-1.0735 1.5975-1.5948 3.0848-2.5559 4.139-2.6747 0.85828-0.0967 0.94508-0.0255 0.84776 0.69569-0.0593 0.43946-0.90803 1.2482-2.4651 2.349-1.2001 0.84846-1.4381 1.1013-1.4381 1.5282 0 0.46844 0.43608 1.037 1.0723 1.3979 0.14461 0.0821 0.85003-0.30368 1.8064-0.98777 2.0322-1.4536 2.9827-1.9345 3.5447-1.7935 0.52825 0.13258 0.6068 0.90011 0.15774 1.5412-0.68527 0.97837-3.3985 2.7306-5.1067 3.298-0.78426 0.26049-1.002 0.4313-1.2225 0.95906-0.31819 0.76153-0.18556 1.3192 0.36747 1.545 0.5874 0.23991 1.3325 0.0579 2.9991-0.73257zm50.915 8.6737c-3.1006-2.265-6.7358-4.9162-8.078-5.8916-1.3423-0.97539-5.9141-4.306-10.16-7.4013l-7.7191-5.6278v-13.861l0.49307-0.38784c0.31429-0.24723 0.63388-0.34731 0.88143-0.27604 0.2136 0.0615 3.812 1.1966 7.9965 2.5225s9.8627 3.1208 12.618 3.9888c2.7556 0.86797 5.3442 1.7733 5.7525 2.0118 1.1143 0.65106 1.8067 1.4681 5.1114 6.0311 1.6631 2.2964 3.7037 5.0937 4.5348 6.2164 0.83102 1.1227 2.1112 2.8762 2.8449 3.8968 0.73366 1.0206 2.2106 3.0573 3.2821 4.526 2.0244 2.7748 2.2761 3.3883 1.6235 3.957-0.39427 0.34358-12.475 4.4136-13.101 4.4136-0.28492 0-2.4591-1.4724-6.081-4.1182zm0.91908-8.254c0.58677-0.37257 1.0168-1.4556 0.87598-2.2062-0.06203-0.33066-0.31223-0.97629-0.55598-1.4347l-0.4432-0.83354 0.70489 0.0946c0.91949 0.12332 1.9467-0.22628 2.4153-0.82202 0.9199-1.1694 0.13942-3.0727-2.1406-5.2201-4.0619-3.8256-9.1872-5.3096-10.379-3.0051-0.37728 0.72958-0.3546 1.4543 0.07168 2.2904l0.35317 0.69272-0.88929-0.11797c-1.0771-0.14289-2.0151 0.13632-2.6196 0.77976-1.3867 1.476 0.51403 4.7151 4.2806 7.2949 3.7913 2.5967 6.7579 3.483 8.3259 2.4874zm-5.8835-3.786c-1.3845-0.55421-2.4754-2.0021-2.0738-2.7524 0.28792-0.53799 1.0433-0.57151 2.3331-0.10353 1.201 0.43578 2.1613 2.2074 1.5357 2.833-0.26161 0.26161-1.1696 0.27321-1.7949 0.023zm2.2959-4.4181c-1.4563-0.67046-1.9064-2.6191-0.60497-2.6191 0.87543 0 2.739 1.4526 2.739 2.135 0 0.38404-0.53597 0.83453-0.98746 0.82998-0.22234-2e-3 -0.73828-0.15785-1.1465-0.3458z"/>
</svg>
