<svg width="100" height="100" version="1.1" viewBox="0 0 100 100" xmlns="http://www.w3.org/2000/svg">
 <path d="m1.948 93.468c-0.52646-0.2304-1.1845-0.76587-1.4624-1.1899-1.06-1.6177-0.80833-2.2315 5.145-12.55 3.1076-5.3864 9.1729-15.899 13.478-23.362s8.3435-14.451 8.9733-15.529c0.62982-1.078 3.4124-5.8948 6.1835-10.704 11.355-19.706 13.185-22.777 13.927-23.361 0.44032-0.34635 1.2284-0.61039 1.8218-0.61039 1.5999 0 2.717 1.4231 7.1006 9.0458 2.1458 3.7314 4.7217 8.209 5.7243 9.9504 1.0026 1.7413 2.2312 3.9123 2.7303 4.8244 0.49914 0.91211 1.2488 2.2011 1.6659 2.8645 0.81448 1.2953 2.435 4.0749 3.5158 6.0305 0.36662 0.66336 2.9434 5.141 5.7262 9.9504 2.7828 4.8093 6.3073 10.915 7.8323 13.569 1.525 2.6534 3.5214 6.1134 4.4365 7.6889 5.313 9.1468 10.112 17.513 10.72 18.688 0.85272 1.6486 0.69616 2.7888-0.55987 4.0773l-0.88175 0.90458-47.56 0.0662c-40.037 0.0556-47.711-1.5e-4 -48.517-0.35278zm17.029-3.3008c1.079-0.55796 1.778-1.3626 2.0174-2.3223 0.16608-0.6657 0.06286-0.83875-0.68503-1.1485-0.48432-0.20061-1.4627-0.9579-2.1742-1.6829-1.0802-1.1007-1.3167-1.5579-1.4333-2.7717-0.29445-3.0644 1.5529-3.3223 9.4523-1.3198 5.5114 1.3972 6.3686 1.4308 8.1877 0.32124 1.1094-0.67668 2.1913-2.2632 2.1605-3.1679-0.01131-0.33169-1.7408-3.1811-3.8433-6.332-3.664-5.491-3.8666-5.7324-4.8781-5.8112-1.2483-0.0972-2.875 0.80133-3.354 1.8526-0.28981 0.63608-0.06601 1.1126 1.9935 4.2448 1.276 1.9406 2.2704 3.5779 2.2098 3.6385-0.06061 0.0606-1.7351-0.37178-3.7212-0.96083-4.6961-1.3929-8.2838-1.5476-10.395-0.44848-2.9314 1.526-4.0599 3.3462-4.0485 6.5303 0.0058 1.6164 0.18755 2.499 0.77627 3.7691 1.0965 2.3655 2.9959 4.6246 4.5243 5.3812 1.5353 0.75996 2.1042 0.80034 3.2111 0.22792zm63.833-0.89001c2.6446-1.2315 5.5779-4.9804 6.46-8.256 0.64305-2.3881-0.78585-4.3027-3.2112-4.3027-1.2257 0-1.2898 0.044-1.2898 0.88494 0 2.474-2.4898 5.7486-4.3708 5.7486-0.66075 0-1.9612-1.3551-1.9612-2.0436 0-0.30987 0.61885-1.5307 1.3752-2.7129 1.1779-1.841 1.3263-2.241 1.0339-2.7873-0.39476-0.73763-2.9073-2.411-3.5989-2.3969-0.25776 5e-3 -1.0697 0.90103-1.8043 1.9906-0.82577 1.2248-1.7188 2.1638-2.3393 2.4597-0.94385 0.45011-1.0515 0.44288-1.807-0.12122-1.1764-0.87827-1.4118-1.3992-1.1831-2.6182 0.30596-1.6309 2.2136-3.8525 4.0435-4.7089 1.4052-0.65759 1.5356-0.80144 1.3673-1.5076-0.28597-1.2-0.65946-1.7918-1.4632-2.3184-2.5274-1.656-6.5998 1.0597-9.0631 6.0438-1.7688 3.579-1.4762 7.0169 0.78098 9.174 2.076 1.9839 4.6233 2.6177 6.8247 1.6979 0.59536-0.24876 1.0998-0.45158 1.121-0.45073 0.0212 9.2e-4 0.06997 0.55175 0.10838 1.2242 0.14 2.4517 1.6746 4.3685 4.2263 5.2792 1.663 0.59346 3.0536 0.51203 4.7505-0.27818zm-28.151-44.822c0.50019 0 0.56096-0.26135 0.56096-2.4122v-2.4122h1.0357c1.804 0 2.5185-0.45152 2.8884-1.8251 0.25929-0.96293 0.24552-1.535-0.06019-2.5008l-0.39638-1.2523-3.4675-0.181v-5.8797c0-6.571-0.16506-7.2762-1.8703-7.9902-1.0665-0.44657-4.1892-0.49-5.2727-0.0733-0.75972 0.29215-9.2305 11.409-10.073 13.22-0.66724 1.4343-0.72917 3.1211-0.16367 4.4572 0.80785 1.9087 1.0903 2.0012 6.3886 2.093l4.8094 0.0833 0.10134 1.8092c0.14793 2.6409 0.88597 3.2479 3.6344 2.9891 0.72796-0.0686 1.576-0.12462 1.8845-0.12462zm-9.4607-11.835c0.45885-0.70481 1.5107-2.3301 2.3374-3.6117 0.8267-1.2816 1.6049-2.3332 1.7292-2.3368 0.12438-4e-3 0.22614 1.6216 0.22614 3.6116v3.6183h-5.127z"/>
</svg>
