<svg width="100" height="100" version="1.1" viewBox="0 0 100 100" xmlns="http://www.w3.org/2000/svg">
 <path d="m49.085 99.9c-0.4326-0.10463-1.4548-0.59407-2.2716-1.0876-0.81679-0.49357-3.3592-1.9723-5.6497-3.286-2.2906-1.3138-4.5622-2.6196-5.0481-2.902-0.48588-0.28233-4.9724-2.8683-9.97-5.7467-13.049-7.5154-15.619-9.0113-15.889-9.2473-0.13188-0.11538 17.752-0.20979 39.741-0.20979 24.319 0 39.887 0.0909 39.741 0.23203-0.13188 0.12762-3.1361 1.8991-6.6761 3.9366-3.54 2.0376-7.4585 4.2995-8.7079 5.0265s-4.3161 2.4944-6.8149 3.9274c-2.4988 1.4331-5.7359 3.3086-7.1935 4.168-5.4899 3.2364-8.985 5.1246-9.7176 5.2497-0.41647 0.0711-1.1112 0.0438-1.5438-0.0609zm9.4383-6.466c0.61184-0.42854 0.75239-1.5542 0.29969-2.4001-0.24422-0.45633-0.57384-0.48821-5.0481-0.48821-2.6327 0-4.7868-0.0511-4.7868-0.11349 0-0.0624 1.5901-2.1734 3.5337-4.6911 4.0957-5.3056 4.263-5.8113 2.2078-6.67-0.55545-0.23208-1.6891-0.3884-2.8168-0.3884h-1.8872l-0.9604 1.3704c-0.52822 0.75374-1.5283 2.1885-2.2224 3.1884-0.69411 0.9999-2.1991 3.1281-3.3444 4.7294-1.7229 2.4088-2.0823 3.0752-2.0823 3.8606 0 0.7248 0.15722 1.0729 0.66505 1.4723 0.6394 0.50295 0.95843 0.52312 8.2732 0.52312 6.4774 0 7.6915-0.0584 8.1691-0.39292zm-51.313-19.302c-0.16077-0.26014 0.05215-0.67208 2.54-4.9143 1.69-2.8817 9.2994-16.064 11.292-19.561 0.83037-1.4576 2.3053-4.0132 3.2775-5.6791 3.0162-5.1678 4.2906-7.3702 7.8875-13.63 3.341-5.8143 8.5876-14.905 11.363-19.688 0.72494-1.2494 2.4241-4.1792 3.7758-6.5107 1.3518-2.3315 2.5866-4.1979 2.744-4.1475 0.15747 0.0504 1.2958 1.8444 2.5296 3.9867 1.2338 2.1423 3.6909 6.3939 5.4603 9.448 1.7694 3.0541 5.799 10.039 8.9547 15.523 3.1557 5.4835 5.9547 10.311 6.2201 10.727 0.26535 0.41647 1.8793 3.1992 3.5866 6.1839 1.7073 2.9847 4.2228 7.3576 5.59 9.7176 8.9107 15.381 10.524 18.268 10.357 18.538-0.22781 0.36862-85.35 0.3745-85.578 6e-3zm46.761-11.709c2.9657-0.78952 5.2227-2.4927 6.194-4.6743 0.63914-1.4355 0.82693-3.7973 0.44732-5.6259-0.33969-1.6363-1.561-3.4655-3.0734-4.6031l-0.97331-0.73213 1.087-1.0415c1.6808-1.6104 2.307-3.1242 2.2981-5.5549-0.0061-1.6776-0.11951-2.2354-0.67001-3.2973-0.68892-1.3288-2.1702-2.8412-3.4113-3.483-2.1549-1.1143-6.7051-1.514-9.3175-0.81837-2.7706 0.7377-4.7318 2.2242-5.9552 4.5137-0.482 0.90204-0.56946 1.4534-0.56946 3.5898 0 2.8857 0.36568 3.8571 2.0955 5.5662l0.99186 0.98003-1.2155 1.0928c-0.68964 0.62004-1.5207 1.7155-1.9211 2.5322-0.59793 1.2196-0.70421 1.7476-0.69618 3.4586 0.01923 4.0933 2.3521 6.8837 6.7437 8.0664 1.7268 0.46505 6.2485 0.48255 7.9456 0.0308zm-6.1701-5.4367c-1.0505-0.64054-1.5898-1.7184-1.5898-3.1777 0-1.5533 0.6221-2.7936 1.7882-3.5654 1.9569-1.295 3.6443-0.94652 5.1825 1.0702 0.59514 0.78028 0.71914 1.1896 0.71914 2.3738 0 1.6394-0.46813 2.5434-1.709 3.3-1.094 0.66706-3.2964 0.66661-4.3911-1e-3zm0.22824-13.276c-1.2672-1.0847-1.718-2.3942-1.3258-3.8509 0.60188-2.2352 3.2591-3.1796 5.2591-1.8691 1.9924 1.3054 1.6601 4.7846-0.57711 6.0423-1.4161 0.79604-2.1298 0.72751-3.3563-0.32229zm-42.455 3.9674c0-21.357 0.01964-22.311 0.47795-23.209 0.63259-1.2395 0.98936-1.5339 3.8129-3.1472 3.8834-2.2189 8.7271-5.0088 12.242-7.0512 1.8047-1.0487 5.1554-2.9853 7.4459-4.3034 2.2906-1.3182 6.3795-3.6774 9.0865-5.2429s5.408-3.1263 6.0021-3.4686l1.0802-0.62241-2.2394 3.8775c-1.2317 2.1326-3.5791 6.206-5.2165 9.0518-1.6374 2.8459-3.742 6.4805-4.6768 8.0769-1.5244 2.6033-4.6978 8.1019-11.726 20.319-1.2779 2.2212-3.8367 6.6509-5.6864 9.8438-3.2764 5.656-5.3293 9.2177-8.5832 14.892-0.87569 1.527-1.6881 2.8843-1.8054 3.0162-0.11726 0.13188-0.21321-9.7827-0.21321-22.032zm13.756-14.17c5.4097-4.6229 5.7763-4.9941 6.4638-6.5443 0.83392-1.8804 0.87397-3.6254 0.14099-6.1436-0.35345-1.2143-0.71304-2.3217-0.79908-2.4609-0.56873-0.92022-2.5262 0.53112-3.2784 2.4307-0.37585 0.94918-0.37832 1.1762-0.02743 2.52 0.2121 0.81224 0.3043 1.5494 0.20489 1.6381-0.87046 0.77678-7.3601 6.4211-8.4783 7.3739-2.2251 1.8961-2.8868 3.6043-2.5639 6.6195l0.17602 1.6436 1.6828-1.4894c0.92556-0.81917 3.8409-3.3336 6.4785-5.5876zm68.664 25.412c-3.4647-5.9973-7.6818-13.289-9.3713-16.205-3.0761-5.3079-14.865-25.724-15.814-27.386-0.27733-0.48588-2.2513-3.9085-4.3866-7.6058-2.1353-3.6973-3.8823-6.7811-3.8823-6.8529 0-0.12093 8.5229 4.7667 25.871 14.836 3.887 2.2562 8.3735 4.8355 9.97 5.7319 2.5703 1.4431 2.9678 1.7586 3.4719 2.7555l0.56929 1.1258-0.0645 22.252-0.0644 22.252zm1.9933-17.185c0.44706-0.5986 0.53304-1.1462 0.61168-3.8964 0.10871-3.8012-0.21695-5.9272-1.3685-8.934-1.3829-3.611-3.8552-6.8498-6.001-7.8618-2.2367-1.0548-3.0728 0.14056-3.0658 4.3832l0.0048 2.9026-1.0775-1.162-1.0775-1.162v-3.7112c0-4.7389-0.24134-5.7146-1.7989-7.2721-2.07-2.07-2.0451-2.1348-1.9467 5.0472l0.0857 6.2531 0.80788 1.6345c1.0122 2.048 6.9244 8.3386 7.8281 8.3291 0.81066-8e-3 1.1655-0.86532 0.98462-2.3774-0.41454-3.465-0.46164-4.1946-0.30984-4.7995 0.2154-0.85824 0.89302-0.84223 1.719 0.0406 1.1321 1.21 1.5461 2.3335 1.6652 4.5194 0.11185 2.0518-0.0013 2.5289-0.9579 4.039-0.69358 1.0949 1.9796 5.1838 3.1394 4.8021 0.13038-0.0429 0.47113-0.39144 0.75722-0.77452z"/>
</svg>
