<svg width="100" height="100" version="1.1" viewBox="0 0 100 100" xmlns="http://www.w3.org/2000/svg"><path d="m16.666 0c-12.5 0-12.5 2.5e-5 -12.5 12.5v70.834c0 12.5 10.417 16.666 20.834 16.666h70.834v-83.334l-8.334-8.332v83.332h-66.668c-4.1667 0-8.332-2.082-8.332-8.332l66.666-0.001953v-83.332h-62.5zm-3.3984 12c1.252 0 2.2656 1.0272 2.2656 2.293-0.0019 0.066629-0.005672 0.13301-0.013672 0.19922 0.12013 0.067679 0.23042 0.15017 0.32812 0.24805l6.0938 6.168 1.3496-1.3652 1.3359-1.457c0.1632-0.67958 0.76145-1.159 1.4531-1.166 0.83472 0 1.5117 0.68349 1.5117 1.5273-0.00625 0.7087-0.4941 1.3199-1.1777 1.4766l-0.97656 0.9043-1.3184 1.334 2.4277 2.4648-4.7305 1.5352-0.82812-0.83008-1.4473 1.4648-0.69922 0.77344c-0.1428 0.70741-0.75658 1.2175-1.4707 1.2227-0.83473 0-1.5117-0.68544-1.5117-1.5293 5.4e-4 -0.71883 0.4966-1.34 1.1914-1.4922l1.3945-1.3262 1.3594-1.375-6.0957-6.1719c-0.09663-0.098022-0.18095-0.20751-0.24805-0.32813-0.06471 0.00753-0.12826 0.011772-0.19336 0.013672-1.252 0-2.2676-1.0252-2.2676-2.291s1.0156-2.293 2.2676-2.293zm55.465 0c1.252 0 2.2676 1.0252 2.2676 2.291 0 1.2658-1.0156 2.293-2.2676 2.293-0.06511-0.00194-0.12866-0.006072-0.19336-0.013672-0.067129 0.12062-0.15145 0.23011-0.24805 0.32813l-6.0957 6.1719 1.3594 1.375 1.3945 1.3262c0.69483 0.1522 1.1909 0.77342 1.1914 1.4922 0 0.84385-0.67706 1.5293-1.5117 1.5293-0.71412-0.005155-1.3279-0.51523-1.4707-1.2227l-0.69922-0.77344-1.4473-1.4648-0.83594 0.83789-4.7305-1.5371 2.4355-2.4707-1.3184-1.334-0.97656-0.9043c-0.68363-0.15669-1.1717-0.76792-1.1777-1.4766 0-0.84385 0.67705-1.5273 1.5117-1.5273 0.69168 0.007036 1.29 0.48643 1.4531 1.166l1.3359 1.457 1.3496 1.3652 6.0938-6.168c0.09768-0.097877 0.20798-0.18037 0.32812-0.24805-0.0072-0.066211-0.011672-0.13258-0.013672-0.19922 0-1.2658 1.0136-2.293 2.2656-2.293zm-27.74 9.8672 18.043 5.8574 0.058594 7.4824c0.09642 12.374 0.059456 13.796-0.4082 16.115-1.1508 5.7051-4.1986 10.567-9.0977 14.514-1.4813 1.1934-3.0432 2.1516-5.8066 3.5566-1.4878 0.7565-2.7478 1.3729-2.8008 1.3711-0.05304-0.001941-1.3183-0.62942-2.8105-1.3945v-0.001953c-3.2455-1.664-4.1934-2.2599-6.1777-3.8848-4.4028-3.6057-7.3654-8.2911-8.5547-13.533-0.48185-2.1241-0.53421-2.7394-0.56641-6.5879-0.0162-1.9327-0.002703-6.6944 0.029297-10.58l0.058593-7.0645 18.033-5.8496zm-0.011719 2.6797-15.475 5.0586-0.050781 5.2031c-0.0707 7.3836-0.059556 13.029 0.027344 13.875 0.70141 6.8255 4.4252 12.652 10.641 16.648 0.72043 0.46315 4.6678 2.5163 4.8555 2.5254 0.05208 0.002425 0.97823-0.44392 2.0586-0.99219 2.5793-1.309 3.5537-1.9217 5.3672-3.3789 0.8445-0.67861 2.5151-2.3423 3.3418-3.3262 2.4202-2.8802 4.0345-6.5394 4.6562-10.559 0.18137-1.1726 0.21254-3.7356 0.14844-12.4l-0.05664-7.5957-15.514-5.0586zm0.007812 2.209 13.602 4.4004 0.046875 4.1992c0.09111 8.3437 0.076765 12.443-0.046875 13.516-0.6942 6.0194-3.8131 10.975-9.2168 14.643-0.93109 0.63196-4.1575 2.3661-4.3906 2.3594-0.0537-0.001456-0.8475-0.38819-1.7617-0.85938-4.3517-2.2426-7.4463-5.1378-9.5762-8.9551-1.2188-2.1848-2.0223-4.7972-2.2754-7.4062-0.0868-0.89414-0.092872-7.3282-0.013672-13.756l0.046875-3.7383 13.586-4.4023zm17.688 30.469 6.4707 6.5664 5.1836 8.209-7.9004-5.1309-5.8691-5.8828c0.81301-1.2007 1.5212-2.4556 2.1152-3.7617zm-35.357 0.00586c0.5952 1.3063 1.3022 2.5643 2.1133 3.7637l-5.8613 5.875-7.9004 5.1309 5.1836-8.209 6.4648-6.5605z"/></svg>
