<svg width="100" height="100" version="1.1" viewBox="0 0 100 100" xmlns="http://www.w3.org/2000/svg"><path d="m3.7783 0.545c-2.0867 0-3.7783 1.6916-3.7783 3.7783 0 2.0867 1.6916 3.7783 3.7783 3.7783 0.10852-0.0032 0.21686-0.011082 0.3247-0.023615 0.11187 0.19884 0.25023 0.38155 0.41129 0.54314l10.16 10.174-2.265 2.267-2.3241 2.1863c-1.158 0.25087-1.9847 1.2749-1.9856 2.4599 0 1.3911 1.1277 2.5189 2.5189 2.5189 1.1902-0.0085 2.212-0.84893 2.45-2.0151l1.167-1.2732 2.4126-2.4166 1.3795 1.3677 7.8853-2.5307-4.0479-4.0617 2.1981-2.2001 1.6274-1.4897c1.1394-0.25825 1.9516-1.266 1.962-2.4343 1e-6 -1.3911-1.1277-2.5189-2.5189-2.5189-1.1528 0.0116-2.1505 0.80431-2.4225 1.9246l-2.2257 2.3989-2.2513 2.2532-10.154-10.168c-0.1628-0.16135-0.34685-0.29972-0.54707-0.41129 0.012647-0.10915 0.020521-0.2188 0.023615-0.32864 0-2.0867-1.6916-3.7783-3.7783-3.7783zm92.443 0c-2.0867 0-3.7783 1.6916-3.7783 3.7783 0.0032 0.10984 0.01097 0.21949 0.02362 0.32864-0.20022 0.11157-0.38428 0.24994-0.54707 0.41129l-10.154 10.168-2.2513-2.2532-2.2257-2.3989c-0.27193-1.1203-1.2697-1.913-2.4225-1.9246-1.3911 0-2.5189 1.1278-2.5189 2.5189 0.01035 1.1682 0.82261 2.176 1.962 2.4343l1.6274 1.4897 2.1981 2.2001-4.0597 4.0735 7.8833 2.5327 1.3933-1.3815 2.4126 2.4166 1.167 1.2732c0.23802 1.1662 1.2598 2.0066 2.45 2.0151 1.3911 0 2.5189-1.1278 2.5189-2.5189-9.11e-4 -1.1849-0.82755-2.209-1.9856-2.4599l-2.3241-2.1863-2.265-2.267 10.16-10.174c0.16106-0.16158 0.29942-0.3443 0.41129-0.54314 0.10784 0.012533 0.21618 0.020412 0.3247 0.023615 2.0867-3e-7 3.7783-1.6916 3.7783-3.7783 0-2.0867-1.6916-3.7783-3.7783-3.7783zm-46.233 16.267-30.057 9.6407-0.09839 11.648c-0.05341 6.4056-0.07414 14.255-0.04722 17.441 0.0536 6.3443 0.14148 7.3594 0.94458 10.861 1.9821 8.6416 6.9171 16.364 14.255 22.308 3.3072 2.6786 4.8889 3.6624 10.298 6.4055v2e-3c2.4871 1.2613 4.5952 2.2953 4.6836 2.2985 0.08835 0.0031 2.1882-1.014 4.6678-2.2611 4.6058-2.3163 7.2092-3.893 9.6781-5.8604 8.1651-6.5064 13.245-14.523 15.163-23.928 0.77944-3.823 0.83962-6.168 0.67892-26.566l-0.09643-12.333zm-0.02164 4.4159 25.856 8.3399 0.09446 12.522c0.10677 14.284 0.05439 18.509-0.24795 20.442-1.0363 6.6257-3.7257 12.658-7.7594 17.406-1.3779 1.6219-4.1636 4.3638-5.5711 5.4825-3.0225 2.4022-4.6452 3.4132-8.944 5.5711v-2e-3c-1.8006 0.90382-3.3432 1.6413-3.43 1.6373-0.31283-0.01492-6.8932-3.4005-8.0939-4.164-10.359-6.5877-16.564-16.192-17.733-27.444-0.14478-1.3945-0.16319-10.701-0.045261-22.873l0.08462-8.578zm0.01378 3.6426-22.644 7.2556-0.07674 6.1654c-0.13205 10.596-0.12093 21.202 0.02362 22.676 0.42189 4.301 1.7587 8.6053 3.7901 12.207 3.5498 6.2928 8.7092 11.066 15.962 14.763 1.5237 0.77676 2.8446 1.4145 2.9341 1.4169 0.38851 0.01104 5.7668-2.8467 7.3186-3.8885 9.0062-6.0461 14.206-14.215 15.363-24.138 0.20606-1.7676 0.22851-8.5273 0.07674-22.282l-0.07674-6.923zm29.479 50.228c-0.99013 2.1532-2.1695 4.2215-3.5245 6.2008l9.7824 9.6978 13.167 8.458-8.641-13.533zm-58.928 0.009891-10.774 10.814-8.641 13.533 13.167-8.458 9.7705-9.6859c-1.3518-1.9772-2.5305-4.0493-3.5225-6.2028z"/></svg>
