<svg width="100" height="100" version="1.1" viewBox="0 0 100 100" xmlns="http://www.w3.org/2000/svg"><path d="m50 0c-27.567 0-50 22.433-50 50s22.433 50 50 50 50-22.433 50-50-22.433-50-50-50zm0 8c23.243 0 42 18.757 42 42s-18.757 42-42 42-42-18.757-42-42 18.757-42 42-42zm0 2c-22.079 0-40 17.921-40 40s17.921 40 40 40 40-17.921 40-40-17.921-40-40-40zm0 2c20.999 0 38 17.001 38 38 0 9.0734-3.1791 17.396-8.4785 23.928-2.0312-6.3677-6.4745-13.076-12.418-17.865-4.465 4.2105-10.532 6.7383-17.104 6.7383-6.5712 0-12.638-2.5277-17.104-6.7383-5.9439 4.7893-10.387 11.498-12.418 17.865-5.2995-6.5317-8.4785-14.854-8.4785-23.928 0-20.999 17.001-38 38-38zm0 6a19.629 19.621 0 0 0-19.629 19.621 19.629 19.621 0 0 0 19.629 19.621 19.629 19.621 0 0 0 19.629-19.621 19.629 19.621 0 0 0-19.629-19.621z"/></svg>
