<svg width="100" height="100" viewBox="0 0 100 100" xmlns="http://www.w3.org/2000/svg"><path d="m0.060546 0c-0.19525 0.0092697-0.047884 0.43476 2.5703 8.4687l2.3887 7.33 30.222 30.279 30.22 30.279-0.75781 0.61523c-0.41659 0.33889-1.9953 1.3272-3.5078 2.1972-1.5125 0.87006-3.0155 1.8519-3.3398 2.1816-1.3523 1.3747-0.88582 3.7444 0.91405 4.6445 0.48602 0.24304 1.0573 0.44314 1.2695 0.44336 1.2241 0.0012 6.9818-3.4918 10.85-6.582 2.48-1.9815 7.1047-6.6463 9.1366-9.2148 3.0229-3.8211 6.2656-9.2367 6.2656-10.467 0-1.6271-1.4174-3.0547-3.0312-3.0547-1.3583 0-2.0853 0.59929-3.2636 2.6914-0.61461 1.0912-1.6774 2.8244-2.3633 3.8496l-1.248 1.8633-30.205-30.215-30.205-30.213-7.8144-2.5469c-4.298-1.401-7.9129-2.5488-8.0331-2.5488-0.025209 0-0.04816-0.002912-0.068359-0.0019531zm99.859 0c-0.01493 7.5321e-4 -0.03202 0.0019531-0.04883 0.0019531-0.12019 0-3.7351 1.1478-8.0331 2.5488l-7.8144 2.5469-30.205 30.213-1.6973 1.6973 10.853 10.855 1.7832-1.7851 30.222-30.279 2.3887-7.33c2.7085-8.3109 2.7747-8.48 2.5508-8.4687zm-62.896 52.111-13.41 13.414-1.248-1.8633c-0.68583-1.0252-1.7486-2.7583-2.3633-3.8496-1.1783-2.0921-1.9053-2.6914-3.2636-2.6914-1.6138 0-3.0312 1.4276-3.0312 3.0547 0 1.23 3.2426 6.6456 6.2656 10.467 2.032 2.5685 6.6566 7.2333 9.1366 9.2148 3.8677 3.0902 9.6254 6.5832 10.85 6.582 0.21221-2.15e-4 0.7835-0.20031 1.2695-0.44336 1.7999-0.90006 2.2663-3.2698 0.91405-4.6445-0.32431-0.32969-1.8273-1.3116-3.3398-2.1816-1.5125-0.87006-3.0912-1.8584-3.5078-2.1972l-0.75781-0.61523 13.344-13.369zm-18.34 20.631-7.5038 7.5078c-7.3289 7.3334-7.529 7.5112-8.6581 7.6386-1.7222 0.19432-2.1958 0.83327-2.375 3.2051l-0.14648 1.9316 3.416 3.4453 3.414 3.4433 1.3555 0.07422c0.74574 0.04056 1.7517-0.02563 2.2344-0.14648 1.1315-0.28337 1.7734-1.0922 1.7734-2.2363 0-0.85557 0.4478-1.3598 7.4785-8.412 4.113-4.1257 7.436-7.6117 7.3847-7.748-0.05131-0.13624-1.0077-1.0876-2.125-2.1133-2.0629-1.8936-4.7048-4.6227-5.7011-5.8906zm62.632 0-0.54687 0.69921c-0.99631 1.2679-3.6383 3.997-5.7011 5.8906-1.1173 1.0256-2.0737 1.977-2.125 2.1133-0.05131 0.13625 3.2717 3.6223 7.3847 7.748 7.0307 7.0523 7.4785 7.5565 7.4785 8.412 0 1.1441 0.64191 1.9529 1.7734 2.2363 0.48267 0.12086 1.4886 0.18704 2.2344 0.14648l1.3555-0.07422 3.414-3.4433 3.416-3.4453-0.14648-1.9316c-0.17919-2.3718-0.65273-3.0107-2.375-3.2051-1.1291-0.1274-1.3293-0.30525-8.6581-7.6386z"/></svg>
