<svg width="100" height="100" version="1.1" viewBox="0 0 100 100" xmlns="http://www.w3.org/2000/svg"><path d="m25.252 67.25h50.505v33.76h-50.505zm-25.252 22.921v-33.625l23.291 10.254v33.782zm78.007-23.415 23.003-10.532v33.939l-23.003 10.298zm-60.928-4.7478c-0.27568-0.82252 4.3316-7.012 8.0242-10.78l3.7992-3.8766 2.0044 1.7555c2.4964 2.1863 8.5221 5.1314 12.354 6.0378 3.804 0.89991 10.685 0.89991 14.489 0 3.8317-0.90646 9.8574-3.8515 12.354-6.0378l2.0044-1.7555 3.7992 3.8766c3.6085 3.682 8.3016 9.9521 8.038 10.739l-7.1525 3.6276-52.575-0.01015zm29.867-13.262c-9.6119-1.4988-17.483-8.4597-20.278-17.932-0.97534-3.3061-0.97534-9.4569 0-12.763 1.9039-6.4536 6.5107-12.231 12.039-15.098 4.2666-2.2126 7.2227-2.9523 11.798-2.9523 6.7621 0 12.642 2.4126 17.391 7.1354 4.7488 4.7228 7.1747 10.571 7.1747 17.296 0 4.5506-0.74379 7.4905-2.9686 11.734-4.541 8.6609-15.415 14.099-25.157 12.58z"/></svg>
