<svg width="100" height="100" viewBox="0 0 100 100" xmlns="http://www.w3.org/2000/svg"><path d="m9.1543 2c-3.9473 0-7.1543 3.2107-7.1543 7.1543v58.135c1.555-2.2541 4.1463-3.7413 7.1367-3.8086h0.00196c0.64297 0 1.2744 0.07347 1.9473 0.23046v-61.428c-0.6915-0.19064-1.3037-0.27734-1.9316-0.27734zm69.687 0.00587c-0.62794 0-1.2401 0.084922-1.9316 0.2793l0.0018 54.922c1.0101-0.13655 2.0414-0.20703 3.0879-0.20703 2.073 0 4.0831 0.27647 5.9961 0.79492v-48.635c0-3.9474-3.2107-7.1543-7.1543-7.1543zm-66.211 10.148 0.0039 50.459v2.125c0 0.2467-0.12041 0.48313-0.32227 0.6289-0.19811 0.14205-0.45982 0.18397-0.69531 0.10547-0.92324-0.30652-1.6816-0.44726-2.4629-0.44726-3.6483 0.078557-6.5769 2.7346-7.0703 6.2109l-0.078122 1.1563 60.117-34.002c0.1383-0.0785 0.22527-0.21588 0.24024-0.36914 0.01492-0.15699-0.04252-0.31135-0.16211-0.41602l-27.07-25.451h-17.275zm29.232 0 24.471 23.16s0.21827 0.13867 0.33789 0.13867c0.0822 0 0.16742-0.02157 0.24219-0.0664l8.4512-4.916v-18.316h-15.9zm33.502 24.293-18.402 10.881c-0.16448 0.09719-0.25306 0.28006-0.23438 0.4707 0.02239 0.19064 0.15261 0.3484 0.33203 0.4082 0.16446 0.05233 14.953 4.7831 18.305 5.8828v-16.518zm-23.572 14.785c-0.07102 0.0039-0.14154 0.02513-0.20508 0.06249l-47.395 26.129 0.80078 0.66211c1.1738 0.84101 2.6089 1.3438 4.1602 1.3438h0.00586l42.553-0.05859h0.0018l5.293-0.0078c0.18305-6.6725 3.2332-12.651 7.957-16.744l1.2129-5.1289c0.05607-0.23178-0.06655-0.46872-0.28711-0.55469l-13.887-5.668c-0.06728-0.02618-0.13991-0.03887-0.21094-0.03517zm28.207 8.7676a20 20 0 0 0-20 20 20 20 0 0 0 20 20 20 20 0 0 0 20-20 20 20 0 0 0-20-20zm7.3809 8.1016c0.04948 8.69e-4 0.09841 0.0039 0.14649 0.0098 0.84613 0.10396 1.4568 0.93956 1.1543 2.0313l-3.4785 12.564c-0.14394 0.52003-0.44167 0.94484-0.88086 1.2578l-10.613 7.5684c-1.3402 0.95732-2.8307-0.08786-2.3906-1.6758l3.4785-12.564c0.14393-0.52003 0.44166-0.94485 0.88086-1.2578l10.613-7.5684c0.36645-0.26177 0.74349-0.37296 1.0898-0.36523zm-7.3242 9.8516c-0.65491-0.01791-1.3157 0.27343-1.7344 0.87109-0.64843 0.92693-0.42442 2.2057 0.50195 2.8555 0.92705 0.64869 2.2039 0.4235 2.8535-0.5039 0.64843-0.92693 0.425-2.2056-0.50195-2.8555-0.33543-0.23484-0.7262-0.35644-1.1191-0.36719z"/></svg>
