<svg width="100" height="100" version="1.1" viewBox="0 0 100 100" xmlns="http://www.w3.org/2000/svg"><path d="m50 0a16 16 0 0 0-16 16 16 16 0 0 0 16 16 16 16 0 0 0 16-16 16 16 0 0 0-16-16zm0 38a25 12 0 0 0-21.67 6.0195l-0.001953-0.001953-26.531 22.145 0.0019531 0.003907a5 5 0 0 0-1.7988 3.834 5 5 0 0 0 1.3789 3.4316l-0.0078124 0.007812 18 19 0.007812-0.007812a5 5 0 0 0 3.6211 1.5684 5 5 0 0 0 5-5 5 5 0 0 0-1.373-3.4375l0.001953-0.001953-14.178-14.967 13.57-10.385 3.9785 39.791h40l3.9395-39.4 13.553 10.055-14.121 14.906 0.007812 0.007812a5 5 0 0 0-1.3789 3.4316 5 5 0 0 0 5 5 5 5 0 0 0 3.6152-1.5625l0.007813 0.007812 18.006-19.006-0.007812-0.007812a5 5 0 0 0 1.3789-3.4316 5 5 0 0 0-1.8105-3.8516l-0.017578-0.013672-26.5-22.117h-0.001953a25 12 0 0 0-21.67-6.0176zm0 6 15 25.385h-10v19.615h-10v-19.615h-10l15-25.385z"/></svg>