<svg width="100" height="100" version="1.1" viewBox="0 0 100 100" xmlns="http://www.w3.org/2000/svg"><path d="m50.463 5.4196e-5c-3.4174-0.0022915-4.096 0.065793-6.373 0.64395-4.6936 1.1917-9.163 3.74-12.473 7.1071-2.3142 2.3544-3.585 4.0895-4.9941 6.8196-2.4878 4.82-3.0442 7.9475-3.0469 17.16l-2e-3 6.2584c-4.9672 1.4804-8.5742 6.0962-8.5742 11.597v38.314c0 6.703 5.352 12.099 12 12.099h46c6.648 0 12-5.3963 12-12.099v-38.314c0-5.0799-3.0766-9.4044-7.459-11.203h0.05273c-0.16342 0-0.2437-2.0824-0.24414-6.3608-7.15e-4 -6.965-0.22002-9.5374-1.0742-12.544-0.72235-2.5428-2.749-6.6887-4.2246-8.6432-1.4793-1.9594-4.6226-4.9963-6.5-6.28-2.2673-1.5504-5.9036-3.1763-8.7129-3.8972-2.2826-0.58575-2.9511-0.65544-6.375-0.65774zm-0.083985 11.57c0.8759-9.46e-4 1.7687 0.10392 2.9453 0.31508 4.4981 0.80729 8.6351 3.9646 10.715 8.1764 1.4382 2.9127 1.5551 3.5487 1.6602 10.679l0.09961 6.7467h-30.672l0.0918-6.7467c0.09695-6.2319 0.12404-6.5484 0.71289-8.3497 1.7815-5.4498 6.2141-9.4599 11.604-10.498 1.1088-0.21363 1.9679-0.32202 2.8438-0.32296zm-0.62695 42.554c0.19993-0.0022 0.40253 0.0033 0.60742 0.01576 6.3253 0.38486 9.7509 7.1161 6.2246 12.229-0.50251 0.72863-1.2846 1.5864-1.7383 1.9063l-0.82617 0.58093 1.9805 17.532h-12l1.9648-17.532-0.91602-0.63804c-0.50423-0.35115-1.2506-1.1349-1.6582-1.7408-3.5713-5.3094 0.16357-12.285 6.3613-12.353z"/></svg>
