<svg width="100" height="100" version="1.1" viewBox="0 0 100 100" xmlns="http://www.w3.org/2000/svg"><path d="m22.954 99.882c0-0.32503 4.2381-5.0823 6.5872-7.3941 3.3698-3.3164 6.4317-5.9414 12.567-10.775 11.484-9.046 15.853-13.016 18.992-17.256 2.7035-3.6521 3.4406-5.5612 3.0386-7.8698-0.33029-1.8967-0.60867-2.4724-1.8546-3.8355l-1.0808-1.1825-0.81244-0.56501c-0.81448-0.01437-1.3445 0.42682-2.0612 0.59824-2.2198 1.1068-3.1684 1.1212-6.2598 0.0952-2.7943-0.92741-4.0708-1.1949-5.7028-1.1949-4.0381 0-9.9441 2.8378-16.074 7.7235-4.5434 3.6212-4.6895 3.6725-12.984 4.5586-3.0342 0.32412-4.3552 0.054-6.331-1.2945-1.8084-1.2343-1.8354-1.4208-0.20609-1.4208 4.809 0 10.136-2.6107 15.521-7.6069 5.5821-5.1788 9.4608-7.8166 15.119-10.282 1.63-0.71024 2.9636-1.4115 2.9636-1.5583 0-0.30106-1.5854-1.3728-2.7515-1.86-2.1976-0.91823-7.3807 0.15366-12.015 2.4847-2.4142 1.2144-3.4752 1.9601-6.0442 4.2479-1.9956 1.7772-2.7303 2.2849-4.5623 3.1532-3.409 1.6156-3.5791 1.7142-4.0386 2.3406-0.36903 0.50304-0.42568 0.84778-0.38448 2.3397 0.02658 0.96234-0.02957 1.7497-0.12478 1.7497-0.29671 0-1.8121-1.1753-2.2764-1.7656-0.24338-0.30939-0.55946-0.88597-0.7024-1.2813-0.20474-0.56622-0.34948-0.69702-0.68205-0.61642-0.23219 0.0563-1.0305 0.16088-1.774 0.23247-1.7758 0.17099-3.064 0.64053-3.235 1.1791-0.07419 0.23373-0.07295 0.92057 0.0028 1.5263 0.17336 1.3875-0.10299 1.5943-0.92622 0.69294-0.58661-0.64226-0.84136-1.2069-1.1243-2.4922-0.08307-0.37731-0.30023-0.59369-0.69459-0.69211-1.6345-0.40789-2.7309-1.9613-2.9856-4.2301-0.31207-2.7794 0.71083-6.8896 2.0605-8.2792 1.3754-1.4162 2.6574-1.6518 4.2821-0.78689 1.7201 0.91567 2.9275 0.65817 4.9081-1.0467 0.62912-0.54153 1.508-1.1726 1.9531-1.4024 0.77895-0.40212 0.85487-0.40494 2.0304-0.0751l1.2212 0.34266 1.0285-0.55977c1.5049-0.81906 4.0852-2.9592 5.5346-4.5904 0.69584-0.78315 2.5953-3.289 4.221-5.5686l2.9558-4.1447 0.0752-1.3396c0.15344-2.7334 2.2711-5.7082 4.9735-6.9867 3.1097-1.4711 7.5997-1.4825 12.044-0.0307 0.89002 0.29072 2.0193 0.52859 2.5094 0.52859 0.80099 0 1.0379-0.13209 2.3399-1.3047 3.1588-2.845 5.9486-4.6955 9.9911-6.6274 3.1674-1.5137 4.1758-1.9107 6.5442-2.5766 2.0872-0.58685 2.7501-0.57491 1.6698 0.03-2.1459 1.2017-4.5177 2.795-6.2277 4.1837-1.8552 1.5066-4.4856 4.416-5.1447 5.6905l-0.31259 0.60446h0.66422c0.36532 0 1.2663 0.10489 2.0022 0.23299l1.338 0.23301 1.7061-1.7066c0.93834-0.93862 2.4496-2.2195 3.3584-2.8464 2.002-1.381 7.6175-4.1767 10.154-5.0553 2.1326-0.7387 4.6774-1.3528 4.8579-1.1723 0.16136 0.16137 0.25755 0.0975-2.0386 1.3538-1.0941 0.59866-2.6383 1.5632-3.4315 2.1434-1.6102 1.1778-7.2686 6.8179-7.8434 7.8181l-0.37001 0.64383 0.88994 0.22673c5.6012 1.427 12.957 4.6546 17.088 7.4985 1.7498 1.2044 5.1187 4.5626 5.1187 5.1026 0 0.24147-0.0778 0.28604-0.25996 0.14888-0.86605-0.65215-2.6759-1.708-3.4358-2.0044-0.93594-0.36509-2.5434-0.4711-2.5434-0.16773 0 0.0983 0.3544 0.5896 0.78756 1.0918 1.9202 2.2264 3.4418 4.3625 5.0941 7.1511 0.20372 0.34383 1.0231 1.9464 1.8209 3.5612 4.3568 8.8192 6.4968 18.568 6.3179 28.78-0.11177 6.3792-1.114 11.772-3.0531 16.43-1.0745 2.5807-1.2537 2.7981-1.4404 1.7474-0.0793-0.44637-0.14962-1.5539-0.15621-2.4612-0.0205-2.8124-1.1563-6.1613-2.2966-6.7716-0.39435-0.21105-0.41898-0.16233-0.41898 0.82889 0 2.5085-1.739 9.0177-3.447 12.902-0.85319 1.9405-3.2595 6.4892-4.6998 8.8841l-1.0319 1.7158h-30.246c-16.635 0-30.246-0.0533-30.246-0.11849zm-8.1764-59.452c1.2405 0.13087 1.2822 0.11988 1.1701-0.30854-0.0639-0.24432-0.37612-0.72251-0.69384-1.0626-0.87858-0.94052-1.7569-0.85838-2.8389 0.26548-0.468 0.48614-0.95615 1.0897-1.0848 1.3412l-0.23388 0.4573 1.1975-0.41425c0.93708-0.32417 1.4772-0.38474 2.4838-0.27853zm21.487-10.27c2.3731-0.76085 7.306-3.0683 7.4265-3.4738 0.08488-0.28574-2.0707-1.4412-3.4351-1.8414-2.4572-0.72058-4.3232 0.51033-5.552 3.6622-0.35019 0.89827-0.84844 1.7468-1.2298 2.0944-0.62292 0.56777-0.62636 0.58068-0.12119 0.45484 0.28596-0.0712 1.5962-0.47457 2.9116-0.89631z"/></svg>
