<svg width="100" height="100" version="1.1" viewBox="0 0 100 100" xml:space="preserve" xmlns="http://www.w3.org/2000/svg"><path d="m34.562 0-0.01172 1.5684c-0.0256 3.3872 1.4912 9.6043 3.1328 12.836 1.3303 2.6187 3.6085 5.6092 6.8164 8.9473 2.6046 2.7103 6.2764 6.9111 7.7441 8.8613 0.15911 0.21142 0.23959 0.34343 0.2168 0.38086l-2e-3 2e-3v2e-3h-2e-3l-2e-3 2e-3c-0.08589 0.0505-0.68765-0.36088-2.084-1.3828-2.1681-1.587-3.6363-2.2466-7.6991-3.463-7.7992-2.3351-12.525-5.4156-17.197-11.211l-0.91992-1.1406 0.32031 0.99805c0.75159 2.3446 3.419 7.444 4.998 9.5547 2.114 2.8256 5.4466 5.954 7.748 7.2734 5.7445 3.2933 6.6112 3.8108 6.5215 3.9004l-2e-3 2e-3h-2e-3l-2e-3 2e-3h-2e-3c-0.093528 0.033883-0.81279-0.22028-1.6346-0.58017-0.8483-0.3715-2.3928-0.95588-3.4336-1.2988-1.1785-0.38832-2.6777-1.2101-3.9746-2.1797-2.3924-1.7886-2.4266-1.7954-7.5-1.1309-7.3553 0.96349-14.804 4.0973-18.953 7.9727l-1.6465 1.5352 2.2832-1.1094c2.8494-1.3857 6.0189-2.0306 9.4238-1.9199l2.5645 0.08203-1.0156 0.63281c-0.55935 0.34763-1.9075 1.5355-2.9941 2.6406-1.5913 1.6184-2.6145 2.3412-5.2617 3.7148-5.026 2.608-7.2154 4.5339-9.5371 8.3867-0.8643 1.4343-2.4551 5.4998-2.4551 6.2754 0 0.0033 0.0014167 0.0093 0.0019531 0.01172v2e-3l0.0019531 2e-3v2e-3h0.0019531l0.0019531 2e-3h0.0039062c6.9554e-4 -9e-6 0.0051083 9.8e-5 0.0058594 0 0.091923-0.02138 0.5417-0.62031 1.0781-1.4453 1.9091-2.9361 4.1462-4.4215 5.9316-5.125 1.7854-0.7035 3.2695-0.86328 3.2695-0.86328s-0.22354 0.81254-0.49414 1.4434c-0.30154 0.70295-0.50578 1.5419-0.68555 2.209-0.73288 2.7197-1.5418 4.324-3.5938 7.123-2.5852 3.5263-5.5234 7.4097-5.5234 10.75 0 0.55982 4.4292e-4 6.5223 1.877 9.3809-0.12231-3.7317 0.79151-6.4703 1.7598-8.1152 0.96825-1.6449 2.8359-3.1504 2.8359-3.1504s0.41109 0.97229 0.61523 1.6523c0.20415 0.68005 0.42692 1.5547 0.81055 2.666 0.67218 1.9473 0.69102 2.2016 0.50586 7.0117-0.16254 4.2225-0.11652 5.2993 0.30078 6.9883 1.341 5.4276 5.3652 9.3008 5.3652 9.3008s-0.59225-0.85343-0.3125-6.1797c0.06992-1.331 0.24837-2.5434 0.39844-2.6934 0.17351-0.17339 0.76668 0.3743 1.627 1.5039 0.74402 0.97695 1.2121 1.9498 2.9043 3.7559 0.94339 1.0069 2.2023 2.2946 3.6816 3.6133h46.467c-0.90053-2.2074-2.1203-4.368-3.6855-6.5605-3.1146-4.3629-6.6696-7.4735-14.773-12.93-5.4984-3.702-9.259-7.0619-10.385-9.2773-1.6372-3.2219-1.7981-6.6038-0.44727-9.3828 1.3378-2.7524 4.0128-4.1047 8.0527-4.0723 1.9629 0.01577 4.0664 0.56836 4.0664 0.56836s-2.097 0.86676-4.252 2.2637c-2.0416 1.3234-3.6825 2.4367-3.6465 2.4727 0.036 0.03597 0.89687-0.17533 1.9121-0.46875 3.8386-1.1094 6.0914-1.4236 7.3867-1.7031s3.5176-0.1582 3.5176-0.1582l-2.3945 1.6211c-1.317 0.89218-3.7402 2.1699-3.7402 2.1699s1.7426-0.50822 4.686-0.91493c1.6292-0.22513 3.7711-0.56836 4.793-0.56836h1.8594s-1.243 1.3139-1.8429 1.7648c-0.59991 0.45084-2.6107 1.9978-2.6107 1.9978s1.6477-0.29939 3.3555-0.76758c6.3063-1.7288 7.0614-1.9931 11.204-0.5923 0 0 2.1841 1.0708 2.9709 1.4985 0.78679 0.4277 1.9326 1.1719 2.6177 1.7606 0.68516 0.58872 1.42 1.005 1.8736 1.4894s0.77402 0.86474 1.1426 1.3086 0.68388 0.90031 1.0684 1.3535 0.832 0.85304 1.2402 1.3613 0.62796 1.2362 1.1934 1.6914 1.3201 0.7491 2.1055 0.88867 1.7702 0.1387 2.498-0.11914 1.2161-0.6071 1.7188-1.2617 0.78194-1.495 1.0254-2.2257c0.24345-0.7307 0.35374-1.5858 0.45565-2.1222 0.10191-0.53643-0.09977-1.4076-0.09977-1.4076s-0.78333 1.0569-1.3444 1.3556c-0.56102 0.29869-1.6716 0.50353-1.6716 0.50353s-0.12403-0.86148-0.18427-1.2925c-0.06023-0.43101-0.17713-1.2936-0.17713-1.2936s-0.43311 0.09574-1.1884 0.48054c-0.57651 0.29371-0.92544 0.42841-0.92544 0.42841s-0.02705-0.3613-0.11268-1.2117l-0.18555-1.8301-0.73828 0.48242c-0.55477 0.36324-1.0048 0.66325-1.0253 0.64931l-0.04304-1.7138-0.25781-1.291-1 0.53125-0.95117 0.44141-0.2832-1.0508-0.33398-1.1309-0.67383 0.46094-0.66016 0.37109-0.26562-0.67383-0.2793-0.74414-0.79492 0.42383s-0.59499-0.26731-0.94727-0.63477c-0.36835-0.38423-1.7894-1.7168-2.0078-1.8613-0.19168-0.12679-1.1043-0.7398-2.0898-1.4355-0.80364-0.56733-1.655-1.1899-2.2051-1.6465-1.3345-1.1077-1.3289-1.666 0.01758-1.666 0.83302 0 1.2519 0.53861 1.7734 0.77148 0.5215 0.23288 0.98948 0.30434 1.4062 0.45898 0.41677 0.15464 0.69165 0.30937 1.0801 0.48828 0.38843 0.17891 0.8487 0.33431 1.1855 0.45508 0.33685 0.12077 0.83594 0.26367 0.83594 0.26367s0.28282 0.54206 0.35021 0.85021c0.06739 0.30815 0.03651 1.0014 0.03651 1.0014s0.71821-0.31661 1.0789-0.51044c0.36072-0.19383 1.0851-0.65167 1.0851-0.65167s0.15604 0.69504 0.15604 1.1322c0 0.43717-0.04458 1.2233-0.04458 1.2233s0.9079-0.42876 1.236-0.70939c0.32809-0.28064 1.2748-1.0417 1.2748-1.0417s0.23461 0.95284 0.2536 1.3649c0.019 0.4121-0.04458 1.6305-0.04458 1.6305s1.1011-0.53522 1.4428-0.815 1.2733-0.93781 1.2733-0.93781 0.31658 1.0583 0.31169 1.6442c-0.0049 0.58595-0.10665 1.6024-0.10665 1.6024s1.0862-0.33579 1.7794-0.58979 1.8486-0.96796 1.8486-0.96796 0.09613 1.1062 0.0095 1.77c-0.08661 0.66384-0.29176 1.8387-0.29176 1.8387s1.2129-0.09233 1.8435-0.43441c0.63061-0.34208 1.9617-1.0065 1.9617-1.0065s0.18336 1.3123 0.14869 1.7935c-0.03467 0.48117-0.40357 1.9034-0.40357 1.9034s2.2278-0.65784 3.06-1.1488c0.83217-0.491 2.8135-2.3562 3.4196-3.9758 1.0952-2.9264 0.78084-8.8307-0.49609-9.3203-0.25355-0.09723-1.1764-0.02562-2.0527 0.1582-1.5533 0.32581-1.6441 0.30826-3.5918-0.66406-1.0989-0.54857-3.1535-1.4827-4.5664-2.0762-3.164-1.3291-5.7335-2.9997-6.3027-4.0996-0.38652-0.74692-0.38045-0.98445 0.0625-2.3887 0.66332-2.1027 0.33461-2.7254-2.7461-5.1875-1.894-1.5133-2.8637-1.62-4.1105-2.5084-1.2468-0.88836-2.5096-2.1968-3.6758-3.6387-1.1661-1.4419-1.9468-2.5972-3.2109-5.0137-0.96517-1.8449-1.6738-2.6271-5.9688-6.5879-2.6809-2.4724-5.7933-5.4645-6.916-6.6484-3.6457-3.8445-6.4208-8.5789-7.4883-12.779-0.27565-1.0847-0.60572-2.0696-0.73438-2.1895-0.4114-0.38326 0.10561 5.441 0.68359 7.6992 0.77488 3.0275 2.247 6.0751 4.7148 9.7598 2.534 3.7835 4.5668 6.1716 6.8633 8.0664 1.5577 1.2852 2.3458 2.0391 2.3203 2.1797v2e-3c-3.28e-4 8.48e-4 -0.0035 0.0051-0.0039 0.0059v2e-3l-6e-3 6e-3c-7.87e-4 5.02e-4 -5e-3 0.0015-0.0059 2e-3 -0.09408 0.03872-0.5726-0.21102-1.4492-0.77539-1.0989-0.70746-3.2176-1.8701-4.709-2.582-1.8639-0.8898-3.3376-1.8588-4.7148-3.0996-1.102-0.9928-3.0995-2.6572-4.4375-3.6992-5.3724-4.1843-9.4543-9.9558-11.57-16.36zm30.883 40.75c0.05269-0.05264 1.5438 0.62709 3.3125 1.5098 2.585 1.29 3.6446 2.0197 5.4043 3.7168 1.5659 1.5102 1.9912 2.0564 1.4922 1.918-0.3837-0.10642-2.1618-0.3387-3.9512-0.51562-2.9716-0.29383-3.3097-0.387-3.9062-1.0801-0.6002-0.69726-2.5341-5.2631-2.3535-5.5449 7.77e-4 -9.76e-4 0.0011-0.0031 2e-3 -0.0039zm24.475 15.521c0.28049-0.0099 0.51136 0.26133 1.1172 0.98242l0.97852 1.1641-1.2324-0.19727c-0.67729-0.10822-1.4713-0.32503-1.7656-0.48242-0.72673-0.38865-0.67499-0.63137 0.25391-1.1797 0.29383-0.17344 0.48014-0.28115 0.64844-0.28711z"/></svg>