<svg width="100" height="100" viewBox="0 0 100 100" xmlns="http://www.w3.org/2000/svg"><path d="m31.211 9a12.263 12.263 0 0 0-12.264 12.264 12.263 12.263 0 0 0 12.264 12.262 12.263 12.263 0 0 0 12.262-12.262 12.263 12.263 0 0 0-12.262-12.264zm36 0a12.263 12.263 0 0 0-12.264 12.264 12.263 12.263 0 0 0 12.264 12.262 12.263 12.263 0 0 0 12.262-12.262 12.263 12.263 0 0 0-12.262-12.264zm-46.686 23.789c-2.0055 1.6166-3.7339 3.5856-5.1055 5.6797 1.2197-0.29544 2.4848-0.46875 3.791-0.46875 7.2562 0 13.452 4.8351 15.523 11.438 1.7455-5.5636 6.4221-9.8696 12.191-11.088-1.3593-2.05-3.0637-3.9744-5.0312-5.5605-2.7894 2.6316-6.5781 4.2109-10.684 4.2109-4.1052 0-7.896-1.5793-10.686-4.2109zm36 0c-1.8785 1.5143-3.5164 3.3374-4.8438 5.2832 6.3741 0.56188 11.718 4.8524 13.844 10.658 2.282-6.2337 8.2719-10.73 15.264-10.73 0.67634 0 1.3387 0.0552 1.9941 0.13672-1.3351-1.9699-2.9894-3.8165-4.8887-5.3477-2.7894 2.6316-6.5781 4.2109-10.684 4.2109-4.1052 0-7.896-1.5793-10.686-4.2109zm-37.314 9.2109c-6.7727 0-12.264 5.491-12.264 12.264s5.491 12.262 12.264 12.262c6.7727 0 12.262-5.4891 12.262-12.262s-5.4891-12.264-12.262-12.264zm31.049 0c-6.7727 0-12.262 5.491-12.262 12.264s5.4891 12.262 12.262 12.262 12.264-5.4891 12.264-12.262c0-6.7727-5.491-12.264-12.264-12.264zm30.529 0c-6.7727-1e-6 -12.262 5.491-12.262 12.264s5.4891 12.262 12.262 12.262c6.7727 0 12.264-5.4891 12.264-12.262s-5.491-12.264-12.264-12.264zm-72.264 23.789c-5.158 4.1579-8.5254 10.633-8.5254 15.633 0 7.9475 2.8952 10.578 19.211 10.578 4.7028 0 8.2615-0.22892 10.986-0.73047-0.94907-1.0086-1.6992-2.177-2.1719-3.4023-0.8064-2.0904-0.97461-4.2156-0.97461-6.4453 0-4.681 1.8964-9.4635 5.0566-13.59-0.69437-0.72388-1.4307-1.4124-2.2129-2.043-2.7894 2.6316-6.5781 4.2109-10.684 4.2109-4.1052 0-7.896-1.5793-10.686-4.2109zm31.051 0c-5.158 4.1579-8.5254 10.633-8.5254 15.633 0 7.9475 2.8932 10.578 19.209 10.578 16.316 0 19.211-2.6308 19.211-10.578 0-5-3.3677-11.475-8.5254-15.633-2.7894 2.6316-6.58 4.2109-10.686 4.2109-4.1052 0-7.8941-1.5793-10.684-4.2109zm30.529 0c-0.67419 0.54347-1.3163 1.1281-1.9258 1.7422 3.3007 4.1937 5.291 9.0951 5.291 13.891 0 2.2296-0.16824 4.355-0.97461 6.4453-0.48496 1.2571-1.2596 2.4564-2.2441 3.4824 2.6664 0.44562 6.0888 0.65039 10.537 0.65039 16.316 0 19.211-2.6308 19.211-10.578 0-5-3.3677-11.475-8.5254-15.633-2.7894 2.6316-6.58 4.2109-10.686 4.2109-4.1052 0-7.8941-1.5793-10.684-4.2109z"/></svg>
