<svg width="100" height="100" version="1.1" viewBox="0 0 100 100" xmlns="http://www.w3.org/2000/svg"><path d="m9.9993e-5 5.3084e-5v9.998l0.0019531-9.998zm10.002 0 9.9999 0.0019532a20 20 0 0 0-20.002 19.959v28.19h13.744c2.6525 0 3.5384 0.09011 4.2422 0.67578 1.3687 1.1439-0.84569 2.8221-0.84569 6.3086 0 3.8592 3.1366 6.9883 7.0076 6.9883s7.0096-3.1284 7.0096-6.9863c0-3.4891-2.2151-5.1646-0.84764-6.3086 0.70374-0.58567 1.5897-0.67774 4.2422-0.67774h13.742l2e-3 -11.66c0-1.7097-0.16485-1.9504-0.49609-2.0937-0.67999-0.29284-1.7887 0.30664-4.3437 0.30664-5.3824 0-9.6776-5.6627-9.6776-10.631 0-4.9633 4.0777-10.621 9.6776-10.621 2.5537 0 3.6624 0.59948 4.3437 0.30664 0.32875-0.1433 0.49609-0.38604 0.49609-2.0957v-11.662h-38.294zm65.849 37.877c-3.8712 0-7.0096 3.1284-7.0096 6.9863 0 3.4891 2.2151 5.1646 0.84764 6.3086-0.70374 0.58692-1.5897 0.67774-4.2422 0.67774h-13.744l-2e-3 11.662c0 1.7084 0.1668 1.9492 0.49804 2.0937 0.67999 0.29159 1.7887-0.30664 4.3437-0.30664 5.3824 0 9.6776 5.6615 9.6776 10.631 0 4.9633-4.0777 10.621-9.6776 10.621-2.5537 0-3.6624-0.60142-4.3437-0.3086-0.32875 0.1433-0.49609 0.388-0.49609 2.0977v11.66h28.413a20 20 0 0 0 19.877-20.003l0.0059 20v-48.148h-13.744c-2.6525 0-3.5384-0.09082-4.2422-0.67774-1.3687-1.1427 0.84569-2.8201 0.84569-6.3067 0-3.8592-3.1366-6.9883-7.0076-6.9883zm24.148 62.121-9.9999 2e-3h9.9999zm-63.398-48.147c-1.715 0-1.9558 0.16588-2.0996 0.4961-0.29375 0.67913 0.3086 1.7843 0.3086 4.3301 0 5.367-5.6803 9.6485-10.664 9.6485-4.9787 0-10.654-4.0659-10.654-9.6485 0-2.5458 0.60234-3.651 0.3086-4.3301-0.14375-0.32648-0.38852-0.49414-2.1035-0.49414h-11.697v28.147a20 20 0 0 0 20 20h28.301v-13.703c0-2.643 0.09024-3.525 0.67773-4.2266 1.1475-1.3632 2.8293 0.84375 6.328 0.84375 3.8699 0 7.0096-3.1271 7.0096-6.9863s-3.1371-6.9863-7.0058-6.9863c-3.5012 0-5.1844 2.2062-6.3319 0.8418-0.58749-0.70156-0.67773-1.5831-0.67773-4.2286v-13.701l-11.699-2e-3z"/></svg>
