<svg width="100" height="100" viewBox="0 0 100 100" xmlns="http://www.w3.org/2000/svg"><path d="m90.123 28c-13.16 0.41602-13.176 19.369 0 19.774 13.181-0.40549 13.16-19.358 0-19.774zm-44.401 17.202c-2.2753 0.10336-3.8862 2.9801-2.3303 4.8843 0.44762 0.67406 1.1428 1.1006 1.9748 1.2586l30.212 5.3188c0.57928-2.2223 1.8063-4.2392 3.4809-5.7243l-32.613-5.6769c-0.24685-0.05282-0.48872-0.07125-0.7241-0.06056zm41.839 5.9507c-3.7511-0.13775-7.578 2.2421-8.6128 6.0218-1.0585 3.2493-2.0328 6.6038-3.4125 9.8108-2.8858 6.2351-9.7683 10.222-16.699 10.143h-54.067c-6.286 0.12109-6.4297 9.395-0.0053 9.5633h60.445c-1.3849-4.1234 2.1432-8.4468 6.4668-8.0572 8.1256 0 14.793-6.5305 14.882-14.587l0.06846-5.7032c0.02107-2.8753 1.9327-5.3188 4.5552-6.1719-1.127-0.64642-2.3701-0.97308-3.6205-1.019zm-46.029 1.9195c-0.80572 0.37916-1.5271 0.94267-2.1538 1.6167l-18.068 19.079h14.835l7.0724-7.2251-0.0053-0.0053c0.70039-0.75832 2.0485-0.6214 2.6015 0.24751l4.6711 6.9829c3.8917-0.15794 10.875 0.61091 14.435-1.2112l-12.681-16.588-7.4516-1.3007c-1.2323-0.20012-2.3592-0.76359-3.2545-1.5956zm51.861 2.1328c-1.7136-0.05306-3.4427 1.31-3.4072 3.186l-0.0685 5.7032c-0.11058 9.8739-8.305 17.91-18.247 17.91-1.7379-0.21065-3.4072 1.0059-3.3914 2.8068 0 1.5641 1.2691 2.8174 2.8279 2.8069h4.8238c11.333 0 20.538-9.137 20.538-20.38v-8.7997c0.0105-1.0848-0.54769-2.0959-1.4376-2.6699l5e-3 -0.0053c-0.5016-0.36599-1.0718-0.54053-1.643-0.55822z"/></svg>
