<svg width="100" height="100" viewBox="0 0 100 100" xmlns="http://www.w3.org/2000/svg"><path d="m42.891-0.17383a21 13 0 0 0-21 13 21 13 0 0 0 12.842 11.979c-0.13137 0.42571-0.53006 1.65-1.0391 2.5742-0.62628 1.1372-2.8516 3.9277-2.8516 3.9277s4.3162-1.2874 5.8281-2.4766c0.95609-0.75195 1.9462-2.2245 2.5449-3.2051a21 13 0 0 0 3.6758 0.20117 21 13 0 0 0 21-13 21 13 0 0 0-21-13zm23.715 10.488c0.18678 0.8111 0.28516 1.6495 0.28516 2.5117 0 4.8994-3.1913 9.0321-7.5723 11.744-4.3809 2.712-10.127 4.2559-16.428 4.2559-0.36566 0-0.73003-0.005295-1.0918-0.015625 3.6126 2.2364 8.4987 3.5058 13.607 3.5352 0.68556 0.99303 1.5812 2.1654 2.3594 2.7773 1.5119 1.1891 4.2246 1.5391 4.2246 1.5391s-1.3796-1.5855-2.0059-2.7227c-0.27593-0.50102-0.44215-1.2041-0.54102-1.832 9.0994-1.1362 15.644-6.0856 15.645-11.832 5.04e-4 -3.9833-3.1733-7.7104-8.4824-9.9609zm10.342 19.686a14.716 14.716 0 0 0-14.49 12.146c3.2426 3.2145 5.2578 7.6661 5.2578 12.568 0 0.47591-0.020012 0.94653-0.058594 1.4121a14.716 14.716 0 0 0 9.291 3.3047 14.716 14.716 0 0 0 14.715-14.717 14.716 14.716 0 0 0-14.715-14.715zm-53.789 0.22656a14.716 14.716 0 0 0-14.715 14.717 14.716 14.716 0 0 0 14.715 14.715 14.716 14.716 0 0 0 9.2109-3.2402c-0.056089-0.55994-0.083985-1.1279-0.083985-1.7031 0-4.9289 2.0369-9.4027 5.3105-12.621a14.716 14.716 0 0 0-14.438-11.867zm26.842 9.7734a14.716 14.716 0 0 0-14.715 14.715 14.716 14.716 0 0 0 14.715 14.717 14.716 14.716 0 0 0 14.715-14.717 14.716 14.716 0 0 0-14.715-14.715zm39.77 18.547c-3.3473 3.1579-7.8957 5.0527-12.822 5.0527-3.7651 0-7.3097-1.1055-10.266-3.0371-0.66028 1.8162-1.6124 3.4961-2.7871 4.9961l0.81055 0.65234c6.8768 5.5439 11.348 13.746 11.348 21.094 0 0.9259-0.027227 1.8232-0.10156 2.6934 0.32735 0.001885 0.65927 0.001953 0.99609 0.001953 19.579 0 23.053-3.1586 23.053-12.695 0-6-4.0413-13.768-10.23-18.758zm-79.434 0.22656c-6.1896 4.9895-10.23 12.758-10.23 18.758 0 9.537 3.4738 12.695 23.053 12.695 0.30776 0 0.61226-3.8e-4 0.91211-0.001953-0.089938-0.94121-0.12305-1.9131-0.12305-2.9199 0-7.3472 4.4703-15.55 11.348-21.094l0.81055-0.65234c-1.1233-1.4342-2.0435-3.0346-2.6992-4.7598-2.9525 1.9248-6.4899 3.0273-10.248 3.0273-4.9263 0-9.4749-1.8948-12.822-5.0527zm26.842 9.7734c-6.1896 4.9895-10.23 12.758-10.23 18.758 0 9.537 3.4738 12.695 23.053 12.695 19.579 0 23.053-3.1586 23.053-12.695 0-6-4.0413-13.768-10.23-18.758-3.3473 3.1579-7.8957 5.0527-12.822 5.0527-4.9263 0-9.4749-1.8948-12.822-5.0527z"/></svg>
