<svg width="100" height="100" version="1.1" viewBox="0 0 100 100" xmlns="http://www.w3.org/2000/svg"><path d="m16.666 0c-12.5 0-12.5 1.25e-5 -12.5 12.5v70.834c0 12.5 10.417 16.666 20.834 16.666h70.834v-83.334l-8.334-8.332v83.332h-66.668c-4.1667 0-8.332-2.082-8.332-8.332l66.666-2e-3v-83.332zm15.941 12.867c0.8909 0.0093 1.7939 0.1175 2.6777 0.33008 4.5646 1.0979 7.6292 4.9649 7.8926 9.9629 0.1248 2.3679-0.8457 5.574-2.459 8.1309-0.4043 0.64074-0.98254 1.4393-1.0391 1.4355-0.01902-0.0012-0.36314-0.30898-0.76562-0.68359-0.40249-0.37462-1.1687-1.0841-1.7031-1.5762-0.9138-0.84132-1.7964-1.7685-2.3125-2.4336l-0.22656-0.29297 0.3418-0.65039c0.37687-0.71748 0.65011-1.4713 0.81445-2.2578 0.14971-0.71634 0.14925-2.097 0-2.7949-0.41525-1.9412-1.6184-3.277-3.2598-3.6211-0.71946-0.15084-1.6575-0.09279-2.2949 0.14453-1.4632 0.54478-2.4926 1.7678-2.9102 3.4551-0.12814 0.51782-0.14575 1.8286-0.03125 2.3945 0.07472 0.36926 0.07044 0.45085-0.07031 1.123-0.22558 1.0774-0.30595 2.0396-0.25976 3.0957 0.02191 0.50121 0.06334 1.0261 0.0918 1.168l0.05078 0.25781-0.41016-0.2207c-1.4798-0.79926-2.7981-2.0911-3.6074-3.5352-0.31002-0.55313-0.88279-1.8941-0.88867-2.0801-0.0042-0.1312-0.24012 0.34474-0.4375 0.88477-0.56915 1.5572-0.71231 3.1711-0.41211 4.6367 0.05943 0.29016 0.10098 0.53637 0.0918 0.54688-0.02925 0.03348-0.73868-0.81579-0.98828-1.1836-0.62106-0.91512-1.1222-2.2359-1.3555-3.5742-0.18953-1.0875-0.19005-2.7671-2e-3 -3.8184 0.22062-1.2334 0.78439-2.6629 1.2246-3.1055 0.11846-0.11909 0.11835-0.11616 0.11914 0.36523 8.8e-4 0.52915 0.16645 1.4366 0.33203 1.8203l0.10547 0.24219 0.11523-0.55469c0.39215-1.897 1.6839-4.1976 3.2188-5.7324 0.42554-0.42554 1.3839-1.1826 1.4336-1.1328 0.0135 0.0135-0.04952 0.23866-0.13867 0.50195-0.11008 0.32508-0.17062 0.66007-0.19141 1.041l-0.03125 0.56055 0.47852-0.47266c1.5742-1.5503 4.134-2.405 6.8066-2.377zm-3.623 10.682c0.03882-0.0049 0.05293 0.12289 0.08008 0.5293 0.09551 1.4297 0.60231 2.6537 1.707 4.1211 0.55202 0.73326 1.8359 2.0232 3.4668 3.4844 2.3414 2.0978 3.3712 3.1877 4.0059 4.2402 0.26353 0.43705 0.27123 0.4093 0.03906-0.13477-0.64338-1.5076-1.6564-2.7368-4.0449-4.9062-1.8368-1.6685-2.2583-2.1144-2.3867-2.5273-0.1591-0.51159-0.13869-2.2915 0.0332-2.916 0.16555-0.60144 0.35428-1.0918 0.49024-1.2676 0.1093-0.14126 0.1111-0.138 0.12305 0.34766 0.01684 0.6843 0.24958 1.5382 0.63672 2.3398 0.7152 1.4808 1.7027 2.6393 4.2031 4.9297 1.9178 1.7567 2.5437 2.4381 3.2773 3.5684 0.42346 0.65232 0.70558 1.254 0.92188 1.9648 0.14518 0.47712 0.16558 0.64488 0.16992 1.4297l0.0039 0.88867 0.18945 0.07031c0.53647 0.194 0.99609 0.78939 0.99609 1.293 0 0.12882 0.02882 0.23047 0.06641 0.23047 0.03709 0 0.23024-0.08614 0.42773-0.19141 0.39505-0.21056 1.0692-0.87938 1.2598-1.25l0.11719-0.22852 0.04492 0.23633c0.06271 0.3327-7e-3 1.4991-0.12109 2.0312-0.37497 1.7503-1.4216 3.4397-2.6094 4.2109-0.1973 0.12811-0.38071 0.23438-0.40625 0.23438-0.02554 0-0.01784-0.10321 0.01758-0.22852 0.10093-0.35706 0.08402-1.0396-0.03516-1.4121-0.14111-0.44106-0.46364-0.87581-0.81641-1.0996-0.59878-0.37982-1.6541-0.60769-2.8809-0.62305-0.39329-0.0048-0.71478-0.01377-0.71484-0.01953-6e-5 -6e-3 0.10741-0.21026 0.23828-0.45508 0.13087-0.24481 0.28108-0.59391 0.33398-0.77539 0.3372-1.1568-0.20072-1.4898-2.3945-1.4785-1.4884 0.0076-3.6197 0.31408-4.541 0.65234l-0.22852 0.08398 0.45508 0.0059c0.68016 0.0082 1.88 0.17906 2.3516 0.33594 0.0481 0.01602 0.0045 0.16105-0.13086 0.4375-0.44493 0.90912-0.67734 2.0024-0.52344 2.4688 0.13048 0.39534 0.52822 0.57597 0.875 0.39844 0.07298-0.03738 0.23813-0.16771 0.36719-0.28906 0.17513-0.16468 0.22424-0.18835 0.19727-0.09766-0.32435 1.0908-0.43273 2.1678-0.25391 2.5137 0.15656 0.30276 0.55253 0.45535 1.0625 0.41211 0.21985-0.0186 0.46484-0.0521 0.54492-0.07617l0.14453-0.04492-0.17578 0.32812c-0.25184 0.46735-0.87322 1.1011-1.4668 1.4961-0.9048 0.60204-2.1809 1.0627-3.1699 1.1465l-0.45898 0.03906 0.28125-0.18945c0.56584-0.38259 1.5677-1.5716 1.5703-1.8633 3.65e-4 -0.04182-0.15671-0.02443-0.43945 0.04883-0.24225 0.06282-0.75443 0.12923-1.1387 0.14844l-0.69922 0.03516 0.25781-0.20703c0.54963-0.44089 1.0406-1.2766 1.2051-2.0527 0.34776-1.6405-0.4462-3.0057-2.0723-3.5645-0.40319-0.13855-0.61635-0.17111-1.2793-0.19336-0.92371-0.03102-1.5252 0.08618-2.2266 0.43164-0.22554 0.11108-0.41016 0.17665-0.41016 0.14648 0-0.09756 0.39251-0.85572 0.62305-1.2031 0.62568-0.9426 1.6362-1.8782 2.5645-2.373l0.48438-0.25781-0.21094-0.08594c-0.17849-0.07339-1.8931-0.50767-2.3672-0.59961l-0.15039-0.0293 0.15039-0.11719c0.83316-0.64428 3.1712-1.3965 4.6426-1.4941 0.87618-0.05814 0.55186-0.15126-0.65039-0.1875-1.1439-0.03444-1.8448 0.04162-2.9297 0.32031-1.5668 0.40248-2.8311 1.0691-3.6738 1.9375-0.14896 0.1535-0.23389 0.2793-0.18945 0.2793 0.17745 0 1.406 0.19677 1.9492 0.3125 0.56865 0.12116 0.83534 0.23438 0.55274 0.23438-0.307 0-1.7307 0.5374-2.6797 1.0117-1.5052 0.75228-3.0507 1.7708-3.918 2.582-0.20845 0.195-0.39506 0.35547-0.41406 0.35547-0.019 0 0.02063-0.15748 0.08789-0.34961 0.32256-0.92148 0.47505-2.0696 0.36133-2.7227-0.18075-1.0379-0.76811-1.6323-1.8887-1.916-0.47334-0.11984-1.9804-0.09234-2.7754 0.05078-0.61056 0.10995-0.61991 0.11017-0.51758-0.0039 0.19113-0.21353 1.0707-0.87285 1.6543-1.2402 0.31756-0.19987 1.0686-0.63069 1.6699-0.95703 2.365-1.2833 2.935-1.663 3.168-2.1133 0.28025-0.54195-0.27979-1.5177-1.5078-2.627-0.24491-0.22122-0.60651-0.50427-0.80469-0.62695l-0.36133-0.22266 0.69531-0.01953c0.9084-0.02562 2.1748 0.08195 3.0391 0.25781 0.38078 0.07748 0.7001 0.13612 0.70898 0.12891 0.0088-0.0072-0.054-0.13759-0.13867-0.28906-0.20401-0.365-0.42189-1.0185-0.51562-1.543-0.08887-0.4973-0.05142-1.8713 0.06055-2.2363l0.07227-0.23828 0.22266 0.42383c0.31594 0.60042 0.58822 0.94936 1.2031 1.5449 0.87618 0.84864 1.4622 1.2533 3.5137 2.4258 2.3407 1.3377 3.2547 2.06 3.8711 3.0547 0.09836 0.15872 0.18807 0.28711 0.19922 0.28711 0.05797 0-0.12939-0.51506-0.34766-0.95508-0.44027-0.88752-1.304-1.8424-2.3047-2.5469l-0.4668-0.32812-0.14062-0.56055c-0.12746-0.50658-0.14031-0.69337-0.13867-1.957 0.0019-1.4969 0.05979-1.9868 0.36524-3.0527 0.14973-0.52252 0.47416-1.2711 0.64844-1.498 0.0199-0.02591 0.03393-0.04134 0.04687-0.04297zm31.256 9.2285-0.53125 0.32617c-0.99756 0.60882-1.5645 1.1716-1.5645 1.5547 0 0.2036 0.26013 0.43945 0.48242 0.43945 0.10078 0 0.64327-0.14731 1.207-0.32812 1.274-0.40863 1.9976-0.56789 2.9355-0.64453 2.5447-0.20791 5.3506 0.72311 7.8457 2.6035 0.52722 0.39731 1.5895 1.3422 1.5508 1.3789-0.0097 0.0092-0.20946-0.01894-0.44336-0.0625-1.3072-0.24333-2.9437-0.13926-4.8301 0.30664-1.3373 0.31612-2.683 0.84194-3.3906 1.3242l-0.32422 0.2207-0.40234-0.24219c-1.4339-0.86484-3.5548-1.0337-5.3691-0.42578-1.0148 0.33999-1.9525 0.89063-2.6836 1.5742-0.97056 0.90756-2.8511 3.4942-4.0176 5.5273-0.47192 0.82248-1.4671 2.7836-1.7383 3.4238-0.08114 0.19156-0.16103 0.34747-0.17773 0.3457-0.0167-0.0018-0.59042-0.47008-1.2754-1.0391-1.3826-1.1484-1.9632-1.5535-2.4609-1.7227-0.18399-0.06254-0.33398-0.13474-0.33398-0.16016 0-0.06772 1.0004-1.3824 1.5879-2.0859 1.0993-1.3164 3.0336-3.1904 4.3652-4.2285 2.7684-2.1583 5.7636-3.5311 8.3398-3.8242 0.87144-0.09916 0.90841-0.14588 0.13477-0.16797-2.8726-0.08199-6.7277 1.4148-9.7031 3.7656-0.34363 0.27152-0.98466 0.85952-1.4258 1.3066l-0.80273 0.8125 0.09375-0.32031c0.27694-0.94908 1.075-2.4973 1.8711-3.627 1.1107-1.576 2.5969-3.09 3.9531-4.0273 0.78882-0.54519 0.81192-0.54406 0.43555-0.0059-0.64512 0.92244-0.9146 1.6462-0.6836 1.8379 0.25583 0.21232 0.78283-0.01098 1.6035-0.67969 1.5112-1.2313 2.0253-1.6333 2.457-1.9219 0.96708-0.64638 2.1355-1.1258 2.9238-1.1992zm-24.848 3.3633c-0.04066 0.04152 0.25919 0.88534 0.45508 1.2832 0.34837 0.70752 0.83216 1.1522 1.4766 1.3535 0.31089 0.09716 0.71094 0.11146 0.71094 0.02539 0-0.09431-0.2949-0.66074-0.50586-0.9707-0.28333-0.41629-0.82046-0.9599-1.2148-1.2285-0.34362-0.23407-0.88162-0.504-0.92188-0.46289zm-16.865 3.6309c0.02681 0.0023 0.04945 0.01878 0.07617 0.04297 0.30294 0.27416 0.30152 0.88531-0.0039 2.4668-0.13081 0.67728-0.26618 1.4766-0.30078 1.7773-0.08541 0.74226-0.14304 1.5508-0.11133 1.5508 0.01429 0 0.28192-0.25622 0.5957-0.56836 1.2815-1.2747 3.6649-2.9348 5.5527-3.8672 1.3303-0.65706 1.3122-0.65377 0.97266-0.12891-0.51596 0.79764-0.86376 1.7704-1.0332 2.8945-0.147 0.9753-0.1695 0.95118 0.42773 0.45898 0.9534-0.78576 1.8636-1.2182 2.8184-1.3379 0.61032-0.07653 1.536 0.02954 1.8262 0.20898 0.03807 0.02352-0.16616 0.28201-0.49219 0.62305-2.0081 2.1005-3.3308 4.4959-3.8672 7-0.14829 0.69234-0.16254 0.88121-0.16406 2.0977-0.0018 1.4865 0.05241 1.8698 0.42383 2.9863 0.37787 1.1359 0.85334 1.9294 1.668 2.7773 0.62442 0.65004 1.0676 0.97502 1.8281 1.3418 2.55 1.2298 5.2654 0.64192 8.0449-1.7422 1.3544-1.1617 2.7425-2.8276 3.5234-4.2266 0.13366-0.23944 0.26322-0.42939 0.28711-0.42188 0.10432 0.03282 3.5241 2.8785 4.7813 3.9785l0.26953 0.23633-0.48828 0.94336c-2.7805 5.3619-6.5346 8.7858-11.074 10.102-1.5072 0.43681-2.5613 0.58369-4.375 0.60938-0.78522 0.0111-1.5237 0.0082-1.6406-0.0059-2.8399-0.3412-5.2318-1.2963-7.5-2.9941-0.8898-0.66612-1.9834-1.7858-2.4961-2.5566l-0.42383-0.63672-0.01953 0.54688c-0.01958 0.55442 0.07866 1.5766 0.17578 1.832 0.02939 0.07729 0.03959 0.14062 0.02148 0.14062-0.09474 0-0.51682-0.3895-0.89062-0.82031-1.6454-1.8965-2.8723-4.8844-3.3672-8.2012-0.13879-0.93024-0.15758-4.0048-0.0293-4.8613 0.21136-1.4112 0.60898-2.889 1.0742-3.9922 0.11482-0.27225 0.19862-0.50645 0.18555-0.51953-0.07259-0.07259-1.3959 0.79751-2.1309 1.4004-0.26725 0.21922-0.49474 0.39003-0.50391 0.38086-0.04225-0.04224 0.39744-1.1714 0.71875-1.8457 1.1213-2.3536 2.998-5.0128 5.0234-7.123 0.41492-0.43229 0.53676-0.55385 0.61719-0.54688zm16.451 1.7969 0.04297 0.32617c0.12187 0.9099 0.86023 1.6308 1.9609 1.916 0.20004 0.05184 0.68913 0.12236 1.0879 0.15625 0.91387 0.07765 1.2446 0.15159 1.6777 0.37891 0.54286 0.28488 0.74991 0.65184 0.95703 1.6914 0.17659 0.8862 0.2881 1.1885 0.52539 1.4258 0.26888 0.26887 0.48136 0.31992 1.6406 0.39258 1.0878 0.06818 1.5768 0.16577 2.1152 0.42383 0.42953 0.20586 0.7448 0.45628 4.8203 3.8301 3.3641 2.7849 3.6895 3.0096 4.5703 3.1582 1.9539 0.32958 3.6421-1.5693 3.1348-3.5254-0.04738-0.18266-0.07896-0.33901-0.07031-0.34766 0.04274-0.04272 0.83349 0.617 1.0488 0.875 0.91368 1.0948 1.3285 2.2867 1.3184 3.7891-0.0092 1.3647-0.35916 2.3405-1.1172 3.1152-0.22488 0.22984-0.37646 0.42975-0.3418 0.45117 0.0343 0.02118 0.42207 0.05149 0.86133 0.06641 2.6078 0.08845 4.8018-1.1572 5.2813-2.998 0.21127-0.81114 0.07267-1.8294-0.34766-2.5703-0.42733-0.75331-1.3527-1.5195-2.2305-1.8457l-0.45899-0.16992 1.0332 0.02734c1.8202 0.04896 3.1142 0.45443 4.5781 1.4336 1.0666 0.71346 2.0938 1.9272 2.5645 3.0332 1.2779 3.003 0.20483 6.3717-2.6328 8.2695-1.4897 0.99643-2.9931 1.4198-4.916 1.3828-1.1279-0.02172-1.1207-0.02677-0.54492 0.35547 1.0987 0.72942 3.1035 1.2244 4.3066 1.0625 0.2684-0.03612 0.60046-0.10486 0.73828-0.15234 0.13784-0.04746 0.25035-0.07 0.25-0.04883-3.66e-4 0.02112-0.10358 0.16671-0.22852 0.32422-0.86502 1.0904-2.9464 2.1865-4.9355 2.5977-0.47405 0.09798-2.0447 0.26808-2.1797 0.23633-0.02022-0.0048-0.3118-0.02889-0.64649-0.05469-2.7224-0.21011-4.9566-1.711-6.2559-4.2012-0.47764-0.91518-0.88086-2.2295-0.88086-2.8711 0-0.11836-0.02627-0.21484-0.05859-0.21484-0.10277 0-0.5326 0.62146-0.75781 1.0957-0.31388 0.66102-0.41678 1.2191-0.37695 2.0332 0.01798 0.36755 0.07625 0.83274 0.13086 1.0332 0.14392 0.52832 0.46952 1.177 0.75391 1.5 0.29717 0.33761 0.2349 0.33614-0.52344-0.01367-1.5435-0.71196-2.7205-2.0219-3.1953-3.5527-0.26339-0.84912-0.31135-1.4656-0.22461-2.9785 0.08638-1.5066 0.05572-2.6157-0.08789-3.1562-0.18059-0.67968-0.55452-1.3412-1.0586-1.8691-0.53092-0.55611-2.5752-2.3001-4.748-4.0527-0.81864-0.6603-1.6563-1.3771-1.8613-1.5918-0.82416-0.86304-1.2351-1.7414-1.3594-2.8945-0.16641-1.5449-0.26476-1.8337-0.80469-2.3926-0.17489-0.18103-0.61883-0.55835-0.98633-0.83984-1.2593-0.9645-1.6561-1.4973-1.793-2.4023-0.06912-0.4572-0.0081-1.0737 0.14453-1.4453z"/></svg>
