<svg width="100" height="100" version="1.1" viewBox="0 0 100 100" xmlns="http://www.w3.org/2000/svg"><path d="m61.185 0c-0.02192 1.49e-4 -0.04016 0.03243-0.05448 0.09686-0.06118 0.2753-0.29878 1.417-0.52817 2.5379-0.70496 3.4443-1.662 5.9093-2.6378 6.7981-1.147 1.0446-4.199 2.1202-7.977 2.8088l-1.9023 0.34656 1.9023 0.35262c3.7743 0.70039 6.4876 1.6164 7.6698 2.5909 1.2875 1.0611 2.3823 3.8181 3.1342 7.8878 0.12206 0.66064 0.27224 1.4258 0.33446 1.701h0.0015c0.07654 0.33869 0.29228-0.37317 0.66736-2.202 0.64933-3.1658 1.3888-5.3875 2.1657-6.506 0.98158-1.4131 3.5667-2.4969 8.0754-3.3839l2.2746-0.44796-1.3-0.23912c-2.8033-0.5159-5.7617-1.3635-7.1023-2.034-1.2044-0.60237-1.4996-0.8586-2.0643-1.8024-0.79407-1.3273-1.5074-3.5412-2.1354-6.6211-0.26024-1.2764-0.42866-1.8848-0.52363-1.8842zm-35.677 14.539c-0.0189 1.28e-4 -0.03456 0.0292-0.04692 0.08475-0.05276 0.2374-0.25772 1.2218-0.45553 2.1884-0.6079 2.9701-1.4316 5.0964-2.2731 5.8629-0.9891 0.90077-3.622 1.8276-6.8798 2.4214l-1.6405 0.29814 1.6405 0.30419c3.2547 0.60396 5.594 1.3949 6.6135 2.2353 1.1102 0.915 2.0545 3.2918 2.7029 6.8012 0.10526 0.56969 0.2354 1.2291 0.28906 1.4665 0.06603 0.29206 0.25315-0.32076 0.5766-1.8978 0.55993-2.73 1.1976-4.6471 1.8675-5.6116 0.84644-1.2186 3.0766-2.1529 6.9646-2.9178l1.9613-0.3844-1.1229-0.20733c-2.4173-0.44487-4.9687-1.1759-6.1247-1.754-1.0385-0.51944-1.2913-0.74034-1.7782-1.5542-0.68475-1.1446-1.3003-3.0541-1.8418-5.71-0.22441-1.1006-0.37061-1.6259-0.4525-1.6254zm21.535 11.773c-3.2544 0-5.8886 2.6339-5.8886 5.9658v38.82c0 0.30994-0.15588 0.61988-0.5433 0.77485-0.30994 0.15497-0.61928 0.07809-0.92922-0.15436l-6.0445-5.9658c-2.0146-2.0146-5.1906-2.3249-7.5926-0.69767-1.3947 0.92982-2.3252 2.4786-2.5576 4.1058-0.23245 1.7047 0.23186 3.4106 1.3166 4.7278l14.955 18.053c1.703 2.0436 2.3723 5.1185 2.9859 8.0588h39.48c2.1881-6.1665 3.4823-15.671 3.4823-19.526l0.0787-18.675c0-3.2544-2.6357-5.8886-5.8901-5.8886-2.0921 0-3.9518 1.0845-5.0365 2.7892v-0.15437c0-3.2544-2.6339-5.9658-5.9658-5.9658-2.0921 0-3.9518 1.0845-5.0365 2.7892v-0.15588c0-3.2544-2.6339-5.9658-5.9658-5.9658-2.0921 0-3.9518 1.0845-5.0365 2.7892v-19.836c0-1.5497-0.6208-3.0997-1.7056-4.1845-1.0073-1.1623-2.4786-1.7041-4.1058-1.7041zm20.752 3.5943c-0.01473 9.9e-5 -0.02669 0.02177-0.03632 0.06508-0.04113 0.18506-0.20144 0.95363-0.35564 1.7071-0.47388 2.3153-1.1162 3.9714-1.7722 4.5689-0.77102 0.70217-2.8223 1.4243-5.3619 1.8872l-1.2788 0.23306 1.2788 0.2376c2.5371 0.4708 4.3599 1.0868 5.1546 1.7419 0.86546 0.71326 1.6027 2.5657 2.1081 5.3014 0.08205 0.44408 0.18215 0.95908 0.22398 1.1441h0.0015c0.05147 0.22767 0.19582-0.25076 0.44796-1.4801 0.43648-2.1281 0.93366-3.6218 1.4559-4.3737 0.65982-0.94989 2.3977-1.6783 5.4285-2.2746l1.5301-0.29965-0.87474-0.16193c-1.8844-0.34679-3.8736-0.9159-4.7748-1.3666-0.80957-0.40492-1.0082-0.57776-1.3878-1.2122-0.53377-0.89223-1.0126-2.3806-1.4347-4.4509-0.17493-0.85798-0.28878-1.2671-0.35262-1.2667z"/></svg>
