<svg width="100" height="100" version="1.1" viewBox="0 0 100 100" xmlns="http://www.w3.org/2000/svg"><path d="m20.182 37.188-11.533 1.2363-8.6484 6.3125 27.91 38.244c1.8496-3.1579 4.8991-5.5418 8.5059-6.5078l-0.41797-0.57226 4.6953-10.605-11.533 1.2363 4.6953-10.605-11.531 1.2363 4.6934-10.605-11.531 1.2363zm39.223 38.061-5.7988 10.045h-0.43164c0.53246 1.4737 0.82617 3.0585 0.82617 4.707 0 2.1425-0.4926 4.1776-1.3672 6h47.367v-10.707l-5.7988-10.045-5.8008 10.045-5.7988-10.045-5.7988 10.045-5.8008-10.045-5.7988 10.045zm-19.404 4.752a10 10 0 0 0-10 10 10 10 0 0 0 10 10 10 10 0 0 0 10-10 10 10 0 0 0-10-10z"/></svg>
