<svg width="100" height="100" version="1.1" viewBox="0 0 100 100" xmlns="http://www.w3.org/2000/svg">
 <path d="m52.045 0.58704c-2.0164-0.00461-4.231 0.37025-5.9906 1.0288-0.9847 0.36857-1.7383 0.75135-1.8307 0.93002-0.0518 0.10016-0.0575 0.6479-0.0473 4.409l0.0114 4.2946 0.0912 0.43259c0.36515 1.7317 1.3936 3.5496 2.8541 5.0465 1.16 1.1887 2.4314 1.983 3.6796 2.3113v16.045c0.37848-0.08051 0.77038-0.1236 1.1719-0.1236h1.1719v-15.924c1.1795-0.29969 2.3634-1.0112 3.487-2.105 1.6238-1.5808 2.7318-3.5131 3.0781-5.3688 0.0688-0.36854 0.0733-0.66272 0.0733-4.7035 0-4.9807 0.0644-4.3737-0.49401-4.6543-1.8031-0.90635-3.9916-1.4507-6.4056-1.5934-0.27805-0.01643-0.56225-0.0249-0.8503-0.025558zm-0.1461 0.83313h3.9e-4c0.71933-0.00404 1.4399 0.012684 1.8021 0.05188 1.1793 0.12762 2.339 0.36642 3.3218 0.68398 0.57803 0.18678 1.3696 0.49432 1.73 0.67215l0.25559 0.12588 0.0114 3.8136c7e-3 2.457-3e-3 3.9698-0.0298 4.2526-0.11949 1.2672-0.74546 2.6959-1.7864 4.0791-0.38014 0.50506-1.1904 1.3647-1.6357 1.7357-0.95516 0.79562-2.0048 1.3359-2.8995 1.4919-1.5891 0.27711-3.3286-0.48667-4.9843-2.1881-0.80377-0.82607-1.375-1.6101-1.865-2.5597-0.30799-0.5969-0.5082-1.1127-0.68359-1.7597l-0.12284-0.45204-0.0114-4.2103-0.0114-4.2099 0.35591-0.16556c1.3937-0.64756 2.9618-1.0727 4.7577-1.2897 0.35773-0.043236 1.0759-0.067681 1.7952-0.071716zm-3.2471 3.598c-0.39263 0.01173-0.75966 0.23227-0.95634 0.60387-0.13059 0.24674-0.12198 0.68377 0.0191 0.95367 0.14723 0.28172 0.41645 0.49443 0.71869 0.56801 0.19369 0.04715 0.34705 0.04017 0.56839-0.02556 0.28488-0.0846 0.59078-0.38735 0.68856-0.68169 0.18273-0.55018-0.11464-1.1785-0.64278-1.3584-0.1312-0.04471-0.26471-0.0638-0.39559-0.05989zm6.6463 7.62e-4c-0.8835 0.0034-1.3863 1.0618-0.82703 1.7403 0.13378 0.1623 0.40833 0.33789 0.59929 0.38338 0.37519 0.08937 0.7076-0.0091 0.99296-0.29449 0.16211-0.16212 0.22211-0.25795 0.27389-0.43602 0.21033-0.7235-0.29129-1.3961-1.0391-1.3931zm-3.31 7.1152c-2.9646 0-3.3744 7e-3 -3.418 0.05951-0.0656 0.07906-0.0315 0.40161 0.0744 0.70267 0.32748 0.93141 1.4727 1.8035 2.7176 2.0699 0.43359 0.09273 0.79997 0.0936 1.2382 0.0027 1.1386-0.23625 2.224-0.99036 2.6356-1.8314 0.18902-0.38635 0.27062-0.85318 0.16746-0.95634-0.036-0.03596-0.84794-0.04692-3.4153-0.04692zm-9.3792 8.3733 3.8e-4 7.63e-4a4.4922 4.4922 0 0 0-2.9095 1.0727l-2e-3 -2e-3 -13.086 11.133 2e-3 2e-3a4.4922 4.4922 0 0 0-1.5827 3.4195 4.4922 4.4922 0 0 0 0.53177 2.0969l-0.01 5e-3 7.0308 13.28 0.01-5e-3a4.4922 4.4922 0 0 0 3.9608 2.396 4.4922 4.4922 0 0 0 4.4922-4.4922 4.4922 4.4922 0 0 0-0.52223-2.1019l-8e-3 -0.01564a4.4922 4.4922 0 0 0-4e-3 -0.0072l-5.3318-10.072 4.0825-3.4729 2.7149 20.002-2.4532 20 7e-3 7.81e-4a5.4687 5.4688 0 0 0-9e-3 0.12207l-0.0118-0.0012-1.9531 19.531 0.0118 0.0012a5.4687 5.4688 0 0 0-0.0389 0.54283 5.4687 5.4688 0 0 0 5.4687 5.4688 5.4687 5.4688 0 0 0 5.4302-4.9259l0.0118 0.0012 1.9482-19.48 1.5945-13.003 1.5949 13.004 1.9478 19.479 0.0118-0.0012a5.4687 5.4688 0 0 0 5.4298 4.9259 5.4687 5.4688 0 0 0 5.4687-5.4688 5.4687 5.4688 0 0 0-0.0275-0.54398h3.9e-4l-1.9524-19.523a5.4687 5.4688 0 0 0 0-3.91e-4 5.4687 5.4688 0 0 0 0-3.89e-4 5.4687 5.4688 0 0 0-0.016-0.12894h2e-3l-2.4532-20 1.0124-7.4585h-11.019c-3.1142 0-5.664-2.5498-5.664-5.6641 0-2.2787 1.3679-4.2501 3.3203-5.1468v-14.97zm11.719 7.63e-4v14.453h7.6427l0.68398 1.1719h-10.67a4.4922 4.4922 0 0 0-4.4922 4.4922 4.4922 4.4922 0 0 0 4.4922 4.4922h18.493a4.4922 4.4922 0 0 0 4.4922-4.4922 4.4922 4.4922 0 0 0-0.61302-2.2636l7.8e-4 -3.91e-4 -0.0267-0.04539-9.0809-15.562-0.0103-0.01793-1e-3 7.82e-4a4.4922 4.4922 0 0 0-3.8788-2.2289z"/>
</svg>
