<svg width="100" height="100" version="1.1" viewBox="0 0 100 100" xmlns="http://www.w3.org/2000/svg">
 <path d="m49.991 20.002c-11.795-0.15931-23.158 7.4343-27.634 18.33-4.6747 10.706-2.244 24.005 5.9302 32.353 7.8613 8.4629 20.814 11.572 31.662 7.6109 11.369-3.8687 19.715-15.117 20.013-27.14 0.60667-11.68-6.4062-23.235-16.978-28.193-4.0345-1.9525-8.5125-2.9678-12.994-2.9618zm0 3.7495c6.8844-0.03971 13.722 2.7873 18.567 7.6785l-37.133 37.136c-8.3046-8.0319-10.1-21.718-4.2056-31.643 4.5469-8.0568 13.516-13.264 22.772-13.172z"/>
</svg>
