<svg width="100" height="100" version="1.1" viewBox="0 0 100 100" xmlns="http://www.w3.org/2000/svg">
 <path d="m55.665 4.23a9.375 9.375 0 0 0-9.375 9.375 9.375 9.375 0 0 0 9.375 9.375 9.375 9.375 0 0 0 9.375-9.375 9.375 9.375 0 0 0-9.375-9.375zm20.441 15.662c-4.1992 0-8.398 2.1973-8.398 5.4932 0 2.1973 1.5747 3.2959 1.5747 5.4932 0 1.648-0.52491 1.6479-0.52491 2.7466 0 0.54926 1.68 1.172 3.1494 1.648v2.1973h8.398v-2.1973s3.1693-1.0238 3.1494-1.648c-0.0327-1.0235-0.5249-1.0988-0.5249-2.7466 0-1.0987 1.5972-3.3479 1.5747-5.4932 0-3.2959-4.199-5.4932-8.398-5.4932zm-34.051 1.9821a6.8359 6.836 0 0 0-6.2618 4.1134l-0.0072-3e-3s-4.7291 6.1867-7.3555 12.822c-2.6264 6.6356-4.3632 14.131-4.3632 14.131l0.0072 3e-3a6.8359 6.836 0 0 0-0.47073 1.7464l-0.03243-0.0053-2.6657 18.377-7.2235 19.58 0.01335 5e-3a5.4687 5.4688 0 0 0-0.35133 1.8878 5.4687 5.4688 0 0 0 5.4687 5.4688 5.4687 5.4688 0 0 0 5.1174-3.5809l0.01336 5e-3 7.4219-20.117-0.01336-5e-3a5.4687 5.4688 0 0 0 0.29488-1.1055h3.91e-4l1.0826-7.4856 4.9106 7.7877-3.4931 17.99 0.01221 2e-3a5.4687 5.4688 0 0 0-0.11254 1.0403 5.4687 5.4688 0 0 0 5.4687 5.4688 5.4687 5.4688 0 0 0 5.3562-4.4285l0.01221 2e-3 3.9062-20.117-0.01221-0.0023a5.4687 5.4688 0 0 0 0.11253-1.0403 5.4687 5.4688 0 0 0-0.81367-2.8675l0.0012-7.81e-4 -10.527-17.09c0.73974-2.8369 1.8816-6.7019 3.4168-10.104 0.72289-1.6022 1.5722-3.2172 2.4273-4.7711l2.6409 7.8614 0.0084-0.0027a4.4922 4.4922 0 0 0 4.2507 3.0659 4.4922 4.4922 0 0 0 4.1698-2.8496l0.01 0.0038 6.8764-17.455-0.01-0.0038a4.4922 4.4922 0 0 0 0.32235-1.6426 4.4922 4.4922 0 0 0-4.4922-4.4922 4.4922 4.4922 0 0 0-4.1695 2.8492l-0.01-0.0038-2.346 5.954-2.1065-6.3179-0.0027 7.81e-4a6.8359 6.836 0 0 0-6.4819-4.6742zm30.901 4.6097h3.9e-4c1.1594 1.95e-4 2.0992 0.98395 2.0992 2.1973 0 1.2135-0.94004 2.1973-2.0996 2.1973-1.1595-3.7e-5 -2.0992-0.98383-2.0992-2.1973 0-1.2134 0.9398-2.1971 2.0992-2.1973zm6.2988 0a2.0996 2.1973 0 0 1 2.0996 2.1973 2.0996 2.1973 0 0 1-2.0996 2.1973 2.0996 2.1973 0 0 1-2.0996-2.1973 2.0996 2.1973 0 0 1 2.0996-2.1973zm-3.1494 3.8452c0.5249 0 1.5747 2.1972 1.5747 2.7466 0 1.0986 0 1.0986-0.5249 1.0986h-2.0996c-0.5249 0-0.5249 1.9e-5 -0.5249-1.0986 0-0.54932 1.0498-2.7466 1.5747-2.7466zm-8.4022 2.3712-7.6015 3.87-4.2541 10.798c0.42715 0.14136 0.87311 0.21773 1.3229 0.2266 0.70771-0.0033 1.4047-0.17371 2.034-0.49744l4e-3 0.0084 14.545-7.4047-5e-3 -0.0084c0.50311-0.26373 0.95162-0.62047 1.3218-1.0513h-4.3384v-2.5593c-0.49676-0.17402-1.006-0.3361-1.4523-0.54588-0.34763-0.16345-0.6651-0.3315-0.96779-0.57144-0.30269-0.23994-0.72937-0.60576-0.72937-1.3405 0-0.35317 0.0529-0.66321 0.11978-0.9243zm1.4828 26.673-3.9e-4 7.81e-4c-0.0779-0.05269-9.0668 2.7681-9.1118 2.8595-0.019 0.03855 0.0999 0.66153 0.26435 1.3844l0.29908 1.3142 1.7189-0.53826 1.7185-0.53826 2.3392 10.227 2.3396 10.228-1.8303 0.58136c-1.0066 0.3198-1.8949 0.6306-1.9737 0.69084-0.20148 0.15406-0.49883 0.78726-0.50926 1.0841-5e-3 0.13707 0.30389 1.5909 0.68626 3.2307 0.5377 2.3059 0.75093 3.0809 1.0349 3.7693 0.16217-0.0171 0.32629-0.0279 0.49324-0.0286a1.172 1.172 0 0 1 0.0141 0c0.24965 2e-3 0.4966 0.0391 0.74234 0.0801 1.5573-3.0826 4.2415-5.1228 7.2876-5.1293a1.172 1.172 0 0 1 3e-3 0c0.86527 2e-4 1.6986 0.16614 2.4853 0.46997-0.11779-0.6972-0.29999-1.5629-0.5703-2.7687-0.36854-1.6439-0.72125-3.0838-0.78392-3.1998-0.13574-0.25097-0.66345-0.6247-0.9037-0.64011-0.0939-6e-3 -0.99593 0.24503-2.0042 0.55771l-1.833 0.56839-4.6791-20.455 3.4363-1.0811-0.30174-1.3134c-0.16608-0.72233-0.32862-1.3314-0.36125-1.3535zm5.5153 30.388a7.5736 10.192 0 0 0-6.6486 5.3402 4.3947 5.4233 0 0 0-1.3927-0.29106 4.3947 5.4233 0 0 0-4.3758 5.1884h24.371a5.4232 8.1348 0 0 0-4.7539-4.253 5.4232 8.1348 0 0 0-0.29335 0.0286 7.5736 10.192 0 0 0-6.9065-6.0131z"/>
</svg>
