<svg width="100" height="100" version="1.1" viewBox="0 0 100 100" xmlns="http://www.w3.org/2000/svg">
 <path d="m71.973 0a9.375 9.375 0 0 0-9.375 9.375 9.375 9.375 0 0 0 9.375 9.375 9.375 9.375 0 0 0 9.375-9.375 9.375 9.375 0 0 0-9.375-9.375zm-15.039 15.429v7.63e-4a6.8359 6.8359 0 0 0-4.3034 1.5327l-4e-3 -0.0046s-7.5672 6.0101-10.548 11.247c-2.9808 5.2367-5.122 15.733-5.122 15.733l4e-3 7.81e-4a6.8359 6.8359 0 0 0-0.14342 1.3744 6.8359 6.8359 0 0 0 0.14649 1.3012 6.8359 6.8359 0 0 0 0.11787 0.48599 6.8359 6.8359 0 0 0 0.0732 0.30174l-0.01 0.0027 5.1922 16.155-9.8068 3.7964c-0.15573-0.40236-0.60813-0.60234-1.0105-0.4467l-8.8726 3.4347c-0.01057 0.0096-0.02087 0.01956-0.0309 0.02976-2.3807 0.93678-3.9562 3.236-3.9631 5.7972-1e-6 5.86e-4 -1e-6 0.0014 0 2e-3 0 3.4426 2.8074 6.25 6.25 6.25 0.0016 4e-6 3e-3 4e-6 0.0046 0 0.78404-0.0046 1.5586-0.16173 2.2861-0.45318 0.0145 5.86e-4 0.029 9.76e-4 0.0435 7.81e-4l8.794-3.4038c0.40236-0.15573 0.60234-0.60813 0.4467-1.0105v-3.9e-4l14.618-5.6583-5e-3 -0.0126a5.4687 5.4687 0 0 0 0.12131-0.06142 5.4687 5.4687 0 0 0 0.64087-0.32425 5.4687 5.4687 0 0 0 0.37345-0.2346 5.4687 5.4687 0 0 0 0.53787-0.42457 5.4687 5.4687 0 0 0 0.34065-0.34065 5.4687 5.4687 0 0 0 0.42115-0.49743 5.4687 5.4687 0 0 0 0.28343-0.45051 5.4687 5.4687 0 0 0 0.29182-0.531 5.4687 5.4687 0 0 0 0.20752-0.5928 5.4687 5.4687 0 0 0 0.15335-0.49171 5.4687 5.4687 0 0 0 0.12818-1.1383 5.4687 5.4687 0 0 0-0.0992-1.0311 5.4687 5.4687 0 0 0-3.9e-4 -0.0057h3.9e-4l-6e-3 -0.03014-3.8109-20.08c0.48342-1.5517 1.3697-4.0875 2.6142-6.4365l-0.90675-3.6579-3.1284 0.61683c-1.0492 0.20678-2.0869-0.48923-2.2938-1.5385-0.20679-1.049 0.48874-2.0867 1.5377-2.2938a0.78133 0.78133 0 0 0 3.9e-4 0l3.7098-0.73166 4.887 19.707 0.0118-0.0023a5.4687 5.4687 0 0 0 5.2959 4.155 5.4687 5.4687 0 0 0 5.4687-5.4687 5.4687 5.4687 0 0 0-0.0584-0.79727l-7.8e-4 -0.0054a5.4687 5.4687 0 0 0 0-3.91e-4 5.4687 5.4687 0 0 0 0-3.91e-4l-4.1149-27.928h-3.9e-4a6.8359 6.8359 0 0 0-0.0191-0.07591 6.8359 6.8359 0 0 0-0.30174-1.1909 6.8359 6.8359 0 0 0-0.0519-0.1442 6.8359 6.8359 0 0 0-0.53673-1.1078 6.8359 6.8359 0 0 0-0.0774-0.12894 6.8359 6.8359 0 0 0-0.75607-0.98419 6.8359 6.8359 0 0 0-0.0912-0.10033 6.8359 6.8359 0 0 0-0.95253-0.82283 6.8359 6.8359 0 0 0-0.095-0.07057 6.8359 6.8359 0 0 0-1.1223-0.62599 6.8359 6.8359 0 0 0-0.0809-0.03815 6.8359 6.8359 0 0 0-1.263-0.39787 6.8359 6.8359 0 0 0-0.0477-0.01221 6.8359 6.8359 0 0 0-1.3672-0.13962zm12.334 13.636c-0.0779-5.86e-4 -0.15676 0.0065-0.23613 0.02212l-3.2982 0.6504 0.34218 2.3212 3.4092-0.67215c0.63498-0.12515 1.0483-0.74134 0.92316-1.3763-0.10951-0.5556-0.59516-0.94133-1.1402-0.94528zm-17.639 3.455-2.9796 0.58746c-0.63482 0.12533-1.0479 0.74148-0.92277 1.3763 0.12514 0.63498 0.74133 1.0483 1.3763 0.92315l3.0907-0.60959zm13.264 23.209c-0.70512 0.30818-1.4776 0.48544-2.2881 0.51155l7.9155 40.142a1.1719 1.1719 0 0 0 1.3763 0.92315 1.1719 1.1719 0 0 0 0.92315-1.3763zm-33.539 12.92 3.3844 8.7425-7.354 2.8465-0.73166 0.27046s-1.1514 0.34788-1.7529 0.35171c-2.5963-0.0014-4.6838-2.0889-4.6848-4.6852v-0.001981c6e-3 -1.9346 1.1942-3.6618 2.9991-4.3583 2.7011-1.077 5.4258-2.1151 8.1398-3.1658zm22.662 2.0077c-0.52144 0.65591-1.1755 1.2099-1.9321 1.6182l0.0267 0.06752-10.136 3.923-2.9331 17.355 8e-3 0.0016a5.4687 5.4687 0 0 0-0.0843 0.9098 5.4687 5.4687 0 0 0 5.4687 5.4687 5.4687 5.4687 0 0 0 5.3844-4.5589l8e-3 0.0016z"/>
</svg>
