<svg width="100" height="100" version="1.1" viewBox="0 0 100 100" xmlns="http://www.w3.org/2000/svg">
 <path d="m32.711 0a9.375 9.375 0 0 0-9.375 9.375 9.375 9.375 0 0 0 9.375 9.375 9.375 9.375 0 0 0 9.375-9.375 9.375 9.375 0 0 0-9.375-9.375zm12.621 20.643c-0.33867 0-0.66713 0.04029-0.98438 0.11133v-2e-3l-15.939 3.582 2e-3 2e-3a4.4922 4.4922 0 0 0-3.0254 2.373l-0.0078-2e-3 -8.9668 17.912 0.0059 0.0039a4.4922 4.4922 0 0 0-0.48242 2.0059 4.4922 4.4922 0 0 0 1.0234 2.8438l-0.0059 0.0039 8.5312 10.406 0.0039-0.0039a4.4922 4.4922 0 0 0 3.4688 1.6484 4.4922 4.4922 0 0 0 4.4922-4.4922 4.4922 4.4922 0 0 0-1.0176-2.8477l-2e-3 -2e-3 -6.6797-8.1504 5.5352-11.059 2.1758 8.0469c1.3925-0.44541 2.4385-1.2463 3.7129-2.6758 1.0355-1.1615 1.6547-1.661 3.0781-2.4707 1.381-0.78555 2.1361-1.0726 3.1562-1.1973 2.7271-0.33356 5.7394 1.0086 7.4902 3.2148l-3.166-9.2578 9.8613 3.2051 2e-3 -0.0059c0.11453 0.03604 0.2306 0.067 0.34765 0.09375l-2e-3 0.0098 3.3965 0.82031c2.3219-1.1762 4.6576-2.3615 6.4004-3.25 0.977-0.49799 1.7903-0.91324 2.3555-1.2051 0.28004-0.14462 0.49836-0.2576 0.64258-0.33398 0.0418-0.0415 0.0921-0.10561 0.13086-0.13867 0.16626-0.1419 0.33081-0.2514 0.52344-0.35937 0.0562-0.03151 0.0246 0.02091 0.043-0.06836 0.0391-0.19032 0.092-0.34771 0.15429-0.48438 0.02-0.04388 0.0447-0.07391 0.0664-0.11328 0.0459-0.08329 0.0915-0.16801 0.14258-0.23438 0.0321-0.04173 0.0646-0.07283 0.0977-0.10938 0.0471-0.05208 0.0934-0.1061 0.14063-0.15039 0.0659-0.06199 0.12896-0.11758 0.18945-0.17188l-12.02-2.8965-13.482-4.3809c-0.44813-0.1461-0.91537-0.22021-1.3867-0.2207zm36.225 3.4551-8.0879 4.5332s-0.79375 0.54556-0.88868 1.0078c-0.078 0.37967-0.28781 0.67086-0.61718 0.85547-0.27457 0.1539-0.47571 0.32467-0.44532 0.3789 0.0304 0.05424-20.877 10.607-20.877 10.607l-0.5293-0.71094c-1.4209-1.9066-4.3226-3.2018-6.5625-2.9277-0.92279 0.11281-1.3685 0.28468-2.7188 1.0527-1.3902 0.79073-1.776 1.1007-2.7832 2.2305-2.2217 2.4922-4.1955 3.3957-7.7695 3.5527-0.99049 0.04353-1.8362 0.09825-2.6211 0.16406l-0.51953 1.0371 6.1621 7.5195-0.0391-0.04102a1.172 1.172 0 0 1 0.0762 0.08594c0.11653 0.14211 0.22467 0.28976 0.32618 0.44141l-2e-3 2e-3c0.62139 0.92856 0.95889 2.0232 0.95899 3.1484 0 3.1143-2.5498 5.6641-5.6641 5.6641a1.172 1.172 0 0 1-2e-3 0c-1.6865-0.0034-3.2828-0.76215-4.3555-2.0625a1.172 1.172 0 0 1-0.023351-0.011763l-0.92383-1.127-6.5938-8.0449c-0.27514 0.78487-0.45613 1.6072-0.50391 2.4609-0.10627 1.8991 0.32008 4.1707 1.3418 6.5801 0.57309 1.3514 0.8125 1.7734 0.8125 1.7734s0.23615 0.42498 1.0898 1.6191c1.5222 2.1291 3.2367 3.6777 4.9121 4.5781 2.5789 1.386 5.6389 1.4254 8.2793 0.10742 2.4211-1.2085 3.8787-2.7158 6.7617-6.9941 1.9992-2.9668 3.7986-4.1791 7.084-4.7734 1.4894-0.26953 1.9555-0.43777 3.3555-1.2109 1.3598-0.75098 1.7386-1.0393 2.3164-1.7676 1.4026-1.7677 1.8125-4.9199 0.92773-7.127l-0.33008-0.82226s19.914-12.328 19.943-12.273c0.0304 0.05424 0.28012-0.02774 0.55469-0.18164 0.32938-0.18462 0.68818-0.21171 1.0527-0.08008 0.44385 0.16027 1.3223-0.23242 1.3223-0.23242l8.0898-4.5332-1.2539-2.2402zm-4.0039 9.4707-1.0488 0.58789-0.0488 0.02344s-0.28654 0.1285-0.65234 0.23242c-0.36578 0.10392-0.80447 0.29932-1.5469 0.03125-0.0857-0.03093-0.0258-0.02956-0.082 2e-3 -0.19221 0.10774-0.36865 0.1919-0.57617 0.25976-0.0484 0.01582-0.1303 0.02498-0.1875 0.03906-0.14041 0.08313-0.35115 0.20937-0.62109 0.37305-0.54387 0.32973-1.323 0.80543-2.2578 1.3789-0.15168 0.09306-0.39711 0.24578-0.55664 0.34375l2.1113 0.50781 2e-3 -0.0098c0.34351 0.08626 0.6966 0.13131 1.0508 0.13476 2.2391-0.01938 4.1213-1.6844 4.4141-3.9043zm-35.67 11.752a4.8828 4.8828 0 0 1 2.9355 2.3125 4.8828 4.8828 0 0 1-1.873 6.6465 4.8828 4.8828 0 0 1-6.6465-1.8711l2e-3 -2e-3a4.8828 4.8828 0 0 1 1.8711-6.6465 4.8828 4.8828 0 0 1 3.7109-0.43945zm12.977 6.1562c-0.26428 1.132-0.73709 2.2004-1.4336 3.0781-0.63893 0.80531-1.2773 1.2965-2.668 2.0645-1.4333 0.79153-2.1834 1.0608-3.7148 1.3379-3.0844 0.55815-4.4207 1.4561-6.3203 4.2754-0.53994 0.80127-1.0283 1.4901-1.498 2.1289l0.49804 1.8457-2.4355 9.3926-11.957 14.721c-0.5501 0.45684-1.0054 1.0164-1.3398 1.6484l-0.04297 0.05469 0.0098 0.0059c-0.40299 0.7726-0.61477 1.6305-0.61914 2.502 0 3.0203 2.4484 5.4687 5.4688 5.4687 1.6348-0.0032 3.1824-0.73763 4.2188-2.002l6e-3 0.0059 13.477-16.408-6e-3 -0.0039c0.50276-0.61313 0.86557-1.3282 1.0644-2.0957l0.01 2e-3 2.7695-10.678 7.8242 9.541-1.0312 15.814h0.0137c-0.0124 0.11808-0.0207 0.23684-0.0254 0.35547 0 3.0203 2.4484 5.4688 5.4688 5.4688 2.877-0.0074 5.2566-2.2422 5.4434-5.1133h0.0137l1.1719-17.969h-0.0137c0.0124-0.11807 0.0207-0.23684 0.0254-0.35547 2e-5 -1.2646-0.43831-2.4889-1.2402-3.4668l-4e-3 -4e-3 -9.8438-12.004z"/>
</svg>
