<svg width="100" height="100" version="1.1" viewBox="0 0 100 100" xmlns="http://www.w3.org/2000/svg">
 <path d="m67.887 22.596a9.375 9.375 0 0 0-9.375 9.375 9.375 9.375 0 0 0 9.375 9.375 9.375 9.375 0 0 0 9.375-9.375 9.375 9.375 0 0 0-9.375-9.375zm-14.371 17.443a6.8359 6.8359 0 0 0-4.9778 2.1709l-0.0103-9e-3c-7.3445 7.838-14.032 19.214-18.385 30.543l0.016 6e-3a6.8359 6.8359 0 0 0-0.47111 2.446 6.8359 6.8359 0 0 0 2.515 5.2856l-6e-3 6e-3 10.488 8.575h-19.442a5.4687 5.4687 0 0 0-5.4687 5.4687 5.4687 5.4687 0 0 0 5.4687 5.4687h34.766a5.4687 5.4687 0 0 0 5.4687-5.4687 5.4687 5.4687 0 0 0-1.8162-4.0695l3.9e-4 -3.9e-4 -17.072-16.901c2.6017-5.9918 5.4355-10.99 9.1492-16.034l8.0993 9.2804a4.4922 4.4922 0 0 0 5e-3 6e-3l8e-3 9e-3 7.8e-4 -3.9e-4a4.4922 4.4922 0 0 0 3.3836 1.5388 4.4922 4.4922 0 0 0 2.9575-1.1127l7.8e-4 1e-3 12.493-10.932-3.9e-4 -7.8e-4a4.4922 4.4922 0 0 0 1.5408-3.3855 4.4922 4.4922 0 0 0-4.4922-4.4922 4.4922 4.4922 0 0 0-2.9571 1.1127l-1e-3 -1e-3 -8.2405 7.2117-6.9881-13.103-3e-3 2e-3a6.8359 6.8359 0 0 0-6.0284-3.6212z"/>
</svg>
