<svg width="100" height="100" version="1.1" viewBox="0 0 100 100" xmlns="http://www.w3.org/2000/svg">
 <path d="m48.095 0.195a9.375 9.375 0 0 0-9.375 9.375 9.375 9.375 0 0 0 9.375 9.375 9.375 9.375 0 0 0 9.375-9.375 9.375 9.375 0 0 0-9.375-9.375zm-15.785 15.941a4.7852 4.7852 0 0 0-4.5727 3.3875l-3e-3 -7.62e-4 -8.2966 26.051 0.01 0.0023a7.3242 7.3242 0 0 0-0.35515 2.2198 7.3242 7.3242 0 0 0 7.3242 7.3242 7.3242 7.3242 0 0 0 7.2601-6.424l8e-3 2e-3 3.3737-27.187-6e-3 -0.0012a4.7852 4.7852 0 0 0 0.0423-0.58823 4.7852 4.7852 0 0 0-4.7852-4.7852zm12.465 6.1295v3.8e-4a6.836 6.836 0 0 0-6.7833 6.1005l-0.013-0.0016-3.2475 28.082a6.836 6.836 0 0 0-0.11254 1.1708 6.836 6.836 0 0 0 0.79041 3.1464l-1.9245 11.961-11.197 19.034 0.01 0.0057a5.4688 5.4688 0 0 0-0.76485 2.7672 5.4688 5.4688 0 0 0 5.4688 5.4688 5.4688 5.4688 0 0 0 4.7039-2.7016l0.01 0.0057 11.719-19.922-0.01-0.0057a5.4688 5.4688 0 0 0 0.6897-1.899l6e-3 7.81e-4 1.1654-7.243 8.2302 7.2014 2.8381 19.867h3.9e-4a5.4688 5.4688 0 0 0 5.4134 4.6955 5.4688 5.4688 0 0 0 5.4688-5.4688 5.4688 5.4688 0 0 0-0.0557-0.77362h1e-3l-3.125-21.875-1e-3 -0.0012a5.4688 5.4688 0 0 0-1.8131-3.3402l2e-3 -0.0012-13.756-12.037 1.8047-15.606 5.151 5.2246 8e-3 -8e-3a4.4922 4.4922 0 0 0 1.7456 1.0971l-3e-3 0.0092 17.773 6.0547 3e-3 -0.0092a4.4922 4.4922 0 0 0 1.0551 0.21444v44.176a1.1719 1.1719 0 0 0 1.1719 1.1719 1.1719 1.1719 0 0 0 1.1719-1.1719v-44.621a4.4922 4.4922 0 0 0 2.5391-4.0115 4.4922 4.4922 0 0 0-2.5391-4.0054v-11.815a1.1719 1.1719 0 0 0-1.1719-1.1719 1.1719 1.1719 0 0 0-1.1719 1.1719v10.942l-14.928-5.085-9.5085-9.644a6.836 6.836 0 0 0 0.0225-0.31433 6.836 6.836 0 0 0-6.836-6.836z"/>
</svg>
