<svg width="100" height="100" version="1.1" viewBox="0 0 100 100" xml:space="preserve" xmlns="http://www.w3.org/2000/svg"><path d="m80.83 4.3574-61.805 0.076172-3.4883 10.779 7.1055 4.0273 2.2051-6.8145 50.18-0.06055 2.0879 6.3984 6.6328-3.7246 0.47852-0.26953zm9.5938 11.895a3.4333 3.4333 0.078694 0 0-1.4355 0.43164l-3.2812 1.8418-12.477 7.0059-3.4258 1.9609c0 0.03061-1.4004 0.75-1.4004 0.75-3.1048 1.0523-5.5699 0.70924-8.9922 0.22656-1.4958-0.20873-3.1867-0.44395-5.2305-0.5918-5.7623-0.41312-8.9076 4.5091-11.986 9.3359-1.2262 2.0307-2.5991 3.9651-4.1211 5.7871 0.10436 0.23047 0.24705 0.43588 0.42969 0.60547 2.4831 2.4786 4.5056 1.3523 6.3711-0.51758 0.61751-0.6175 1.2789-1.3786 1.9355-2.1309 2.1178-2.4352 4.1691-4.7926 6.8652-4.6621 0.73929 0.09567 1.445 0.36619 2.0625 0.7793 0.75655 0.46967 1.4649 1.003 2.1172 1.6074 1.0306 0.93054 2.2133 1.683 3.4961 2.2266l-1e-6 -0.0078c0.06088 0.01739 0.11728 0.04378 0.17383 0.07422 0.84806 0.36093 1.7218 0.6558 2.6133 0.89062 2.1047 0.66097 4.3527 0.7213 6.4922 0.17774 0.67399-0.25656 1.4309 0.08335 1.6875 0.76172 0.26091 0.67399-0.08183 1.4348-0.75586 1.6914-1.3306 0.43919-2.7369 0.61261-4.1328 0.50389l9.0234 6.1621c0.82624-0.56095 1.6138-1.1784 2.3574-1.8438 0.69577-0.62618 0.0012 4.2e-5 2.1973-1.748l10.688-5.5273 4.7656-2.9473a5.2701 5.2701 0.015948 0 0 2.2285-6.1406l-4.7617-14.359a3.4333 3.4333 0.078694 0 0-3.5039-2.3438zm-81.064 0.43359a3.3933 3.3933 0.017099 0 0-3.4746 2.3398l-4.6035 14.227a5.0588 5.0588 0.01703 0 0 2.3574 5.9805l15.24 8.4609-0.06055 0.08594c0.91318 0.60005 1.6515 1.1 2.3125 1.5566 0.53484 0.37398 1.0132 0.71005 1.4785 1.0449l1.4668-2.2832c1.5089-2.3525 4.6309-3.0409 6.9922-1.5449 0.85236 0.54347 1.5222 1.3311 1.918 2.2617 0.60003-0.46094 1.2959-0.78202 2.0352-0.94727 1.3133-0.29135 2.6869-0.05299 3.8262 0.66016 0.01739 0.01305 0.03924 0.02602 0.05664 0.03906 0.96969 0.62618 1.6868 1.5702 2.0391 2.666 0.29571-0.1261 0.60487-0.22731 0.91797-0.29688 1.3089-0.29135 2.6819-0.05193 3.8125 0.66992 2.096 1.3437 2.9094 4.01 1.918 6.293 0.83492 0.03478 1.6497 0.28239 2.3672 0.71289 0.08262 0.03913 0.16045 0.09191 0.23437 0.14844 2.2656 1.5394 2.8995 4.6046 1.4297 6.918l-2.8008 4.3926 5.6797 3.627c0.71747 0.46964 1.5793 0.67272 2.4316 0.56836 0.63488-0.06522 1.2165-0.39117 1.6035-0.9043 0.03039-0.05653 0.06683-0.10841 0.10156-0.15625 0.3044-0.56963 0.35566-1.235 0.14258-1.8438-0.26528-0.81321-0.80896-1.5091-1.5352-1.957h-0.0039l-2.6699-1.7051c-0.30005-0.18265-0.517-0.47722-0.59961-0.81641-0.08262-0.34353-0.02337-0.70386 0.16797-1.0039 0.18699-0.29569 0.49241-0.50464 0.83594-0.57422 0.34788-0.07393 0.70474-3.71e-4 0.99609 0.19531l0.0039 0.0039 2.6699 1.7012 2 1.2773c0.71747 0.46964 1.5793 0.67423 2.4316 0.57422 0.66969-0.06958 1.2779-0.42581 1.6562-0.98242 0.34788-0.58277 0.41709-1.2865 0.19531-1.9258-0.2566-0.77836-0.76996-1.4481-1.457-1.9004-0.03919-0.02174-0.07269-0.04468-0.10742-0.06641l-0.0039-0.0039c-0.02604-0.01739-0.04817-0.03338-0.07422-0.05078l-5.0527-3.2266c-0.6088-0.38707-0.78742-1.1959-0.40039-1.8047 0.38707-0.60879 1.1959-0.79132 1.8047-0.4043l0.0039 0.0039 5.0527 3.2266c0.03915 0.02174 0.08191 0.04813 0.12109 0.07422 0.02604 0.01739 0.0525 0.03338 0.07422 0.05078l1.7188 1.0957c0.71747 0.47399 1.5774 0.67423 2.4297 0.57422 0.67404-0.06522 1.2794-0.42581 1.6621-0.98242 0.36967-0.5654 0.486-1.2618 0.31641-1.9141-0.19564-0.67408-0.62584-1.2521-1.2129-1.6348l-8.0957-5.209c-0.3044-0.18263-0.51895-0.47874-0.60156-0.82226-0.07827-0.34353-0.01751-0.70386 0.17383-1.0039 0.19134-0.29569 0.49196-0.50464 0.83984-0.57422 0.34788-0.06958 0.70474 5e-3 0.99609 0.20508l10.314 6.6348 0.01758 0.0098c0.7089 0.46529 1.5607 0.66491 2.4043 0.56055 0.66969-0.06524 1.2755-0.42626 1.6582-0.97852v-0.0098l0.01172-0.02148c0.33484-0.57832 0.40058-1.2733 0.1875-1.9082-0.24791-0.76969-0.75283-1.4354-1.4355-1.8789h0.0039l-0.06445-0.03906-0.03906-0.02148-0.04883-0.03125-15.863-10.818c-1.5394-0.66103-2.9614-1.5691-4.2051-2.6953-0.51743-0.47829-1.0815-0.90967-1.6816-1.2793-0.25222-0.17829-0.53048-0.31298-0.82617-0.4043-1.4307-0.06958-3.0756 1.8214-4.7715 3.7695-0.65669 0.7522-1.3174 1.5084-2.0566 2.252-2.8658 2.8744-6.014 4.5671-10.062 0.52734-0.53048-0.51754-0.92168-1.1603-1.1348-1.8691-0.23917-0.76968-0.05138-1.6093 0.49219-2.2051 1.4698-1.7481 2.8005-3.6096 3.9746-5.5664v-0.0039c0.53483-0.83926 1.0684-1.6801 1.625-2.502-1.622-0.82623-3.2426-1.5035-4.8125-2.1602-1.8641-0.73864-3.6865-1.5856-5.4551-2.5371l-0.01563 0.01953-0.01367 0.01758-10.189-5.6602-10.344-5.8652a3.3933 3.3933 0.017099 0 0-1.4277-0.43164zm21.99 11.92 2e-3 -2e-3h-0.0059c0.0013 6.9e-4 0.0026 0.0013 0.0039 2e-3zm-25.467 16.447-5.8828 18.182 50.045 36.266 49.955-36.387-5.8379-17.893-0.36133 0.22461c-0.08721 0.0542-0.17646 0.10502-0.26758 0.15234l-6.5566 3.3906 3.6152 11.082-40.559 29.543-40.633-29.445 3.6113-11.158zm22.367 3.3184c-0.74808 0.02883-1.4703 0.39774-1.9297 1.0527-0.03479 0.06522-0.07565 0.12511-0.11914 0.18164l-2.0957 3.2891v-0.0059c-0.02609 0.04783-0.0555 0.09128-0.08594 0.13476l-1.5352 2.4063c-0.70446 1.1132-0.40852 2.5812 0.66992 3.3379 0.05654 0.03045 0.10798 0.06634 0.16016 0.10547 1.1393 0.65662 2.5914 0.30419 3.3047-0.80469l3.7832-5.9277c0.70881-1.1132 0.41438-2.5832-0.66406-3.3398-0.05652-0.03044-0.11383-0.06437-0.16602-0.10352-0.41583-0.23804-0.87341-0.34343-1.3223-0.32613zm7.7871 1.9922c-0.15546 0.0056-0.31156 0.02576-0.46484 0.06055-0.63919 0.13915-1.2001 0.5263-1.5566 1.0742v0.0039l-6.248 9.6406-0.01758 0.02539c-0.69145 1.0959-0.38615 2.5414 0.68359 3.2676 0.04784 0.02609 0.09518 0.05115 0.13867 0.08594 0.54359 0.3131 1.1876 0.41259 1.8008 0.27344 0.64353-0.13915 1.2079-0.52587 1.5645-1.0781l0.0918-0.13867 6.4316-10.088c0.31742-1.0089-0.06496-2.1093-0.94336-2.7051-0.04783-0.02609-0.09714-0.05745-0.14062-0.08789-0.40769-0.23808-0.87347-0.3509-1.3398-0.33398zm6.791 3.0605c-0.76762 0.0389-1.5034 0.43663-1.9492 1.127l-0.05664 0.08594v0.0039c-0.11306 0.27831-0.24926 0.54467-0.41016 0.79688l-0.03906 0.05664-6.248 9.6406-0.04297 0.06445-1.0625 1.6621v0.0039c-0.70446 1.1132-0.40852 2.5832 0.66992 3.3398 0.05653 0.03045 0.10993 0.06437 0.16211 0.10351 1.1393 0.65662 2.5954 0.3057 3.3086-0.79883h0.0098l3.252-5.1152 2.6562-4.1641 1.9355-3.0371h0.0039c0.70446-1.1132 0.40852-2.5812-0.66992-3.3379-0.05653-0.03043-0.10798-0.06243-0.16016-0.10156-0.42723-0.24786-0.8988-0.35342-1.3594-0.33008zm4.4707 7.082c-0.78716 0.02162-1.5504 0.41958-2.0098 1.1289l-2.6582 4.166-1.125 1.7598c-0.70015 1.1132-0.41047 2.5832 0.66797 3.3398 0.05653 0.03044 0.11428 0.06633 0.16211 0.10547 1.1394 0.66097 2.595 0.30808 3.3125-0.80078l0.2793-0.43555-0.0039-0.0039 3.5039-5.4883c0.72183-1.1437 0.38688-2.6557-0.74805-3.3906-0.4289-0.27069-0.90856-0.39383-1.3809-0.38086z"/></svg>