<svg width="100" height="100" version="1.1" viewBox="0 0 100 100" xml:space="preserve" xmlns="http://www.w3.org/2000/svg"><path d="m50 0c-17.388 0-32.728 8.9299-41.689 22.439 2.0083-2.2888 4.3107-4.2152 6.7969-5.7305l0.009766-0.005859c3.7226-2.2563 7.66-3.507 11.393-4.0039l0.005859-0.001953c1.6063-0.21145 3.1564-0.27842 4.6484-0.25391 5.6626-2.8381 12.055-4.4434 18.836-4.4434 6.7815 0 13.175 1.6064 18.838 4.4453 1.4921-0.024759 3.0422 0.04052 4.6484 0.25195l0.00586 0.001953c3.7325 0.49693 7.6699 1.7477 11.393 4.0039l0.007812 0.005859c2.4864 1.5154 4.7886 3.4414 6.7969 5.7305-8.9617-13.51-24.301-22.439-41.689-22.439zm-19.828 16.434c-1.0189 0.016575-2.0651 0.089664-3.1348 0.23047-3.2252 0.42939-6.6352 1.5119-9.8477 3.459-2.8806 1.7556-5.5002 4.1679-7.5937 7.1367-2.2671 3.2096-3.9343 6.9479-4.8184 10.984-0.93561 4.2476-1.0434 8.7293-0.23242 13.137 0.29411 1.5735 0.74575 3.0829 1.3223 4.5098 1.0754 2.6363 2.4831 4.9697 3.9766 7.0586 2.6199 3.4424 5.9133 5.2469 8.707 6.3867 3.2055 1.4605 6.2522 2.8798 9.6035 4.0352 2.4926 0.74304 5.0594 2.5464 7.4043 4.1465 2.2075 1.5225 4.0651 3.0918 5.6328 4.7305 1.7955 1.9177 3.4641 3.2168 4.6504 4.5254 0.9804 1.0779 2.0427 2.4842 2.5996 3.207 0.44648 0.57943 0.84266 1.1022 1.084 1.4199 0.04931 0.06493 0.397 0.51021 0.47461 0.59961 0.077604-0.089403 0.4253-0.53468 0.47461-0.59961 0.24133-0.31774 0.63751-0.84049 1.084-1.4199 0.55689-0.72282 1.6192-2.1292 2.5996-3.207 1.1863-1.3085 2.8549-2.6077 4.6504-4.5254 1.5677-1.6387 3.4253-3.2079 5.6328-4.7305 2.3449-1.6001 4.9117-3.4034 7.4043-4.1465 3.3513-1.1554 6.398-2.5747 9.6035-4.0352 2.7937-1.1398 6.0871-2.9443 8.707-6.3867 1.4934-2.0889 2.9012-4.4223 3.9766-7.0586 0.57652-1.4269 1.0282-2.9362 1.3223-4.5098 0.81103-4.4074 0.70319-8.8892-0.23242-13.137-0.88402-4.0365-2.5512-7.7748-4.8184-10.984-2.0935-2.9688-4.7131-5.3811-7.5938-7.1367-3.2124-1.9471-6.6224-3.0296-9.8477-3.459-4.2787-0.56322-8.2013-0.036623-11.363 0.80859-2.778 0.73981-5.0676 2.0761-6.6797 3.1582-1.3107 0.87456-2.5071 2.0479-3.1543 2.6699-0.52672 0.50488-0.95722 0.93632-1.2383 1.2227-0.16157 0.1646-0.28396 0.29209-0.36914 0.38086-0.044759 0.046649-0.076912 0.081699-0.10156 0.10547l-0.056641 0.054687-0.056641-0.054687c-0.02465-0.02377-0.056803-0.05882-0.10156-0.10547-0.08518-0.08877-0.20758-0.21626-0.36914-0.38086-0.28106-0.28634-0.70961-0.71778-1.2363-1.2227-0.64721-0.622-1.8456-1.7954-3.1562-2.6699-1.6121-1.0821-3.9017-2.4184-6.6797-3.1582-2.3715-0.63391-5.1719-1.0888-8.2285-1.0391zm-30.105 30.973c-0.044153 0.85932-0.066406 1.7237-0.066406 2.5938 0 27.567 22.433 50 50 50s50-22.433 50-50c0-0.87009-0.022246-1.7344-0.066406-2.5938-0.08489 1.5668-0.25735 3.1364-0.54492 4.6992l-0.001953 0.009765c-0.34522 1.847-0.87347 3.6116-1.5449 5.2734l-0.005859 0.011719c-1.2244 3.0017-2.8039 5.6065-4.4258 7.875l-0.070312 0.095703c-2.2076 2.9006-4.8211 4.8288-7.2656 6.1758-6.8708 11.502-19.085 19.412-33.25 20.348-1.3526 0.76597-2.8242 1.5996-2.8242 1.5996l-2.8242-1.5996c-14.165-0.93572-26.379-8.8455-33.25-20.348-2.4447-1.3467-5.0576-3.2746-7.2656-6.1758l-0.070312-0.095703c-1.6219-2.2685-3.2014-4.8733-4.4258-7.875l-0.0039063-0.011719c-0.67145-1.6618-1.2017-3.4265-1.5469-5.2734l-0.0019531-0.009765c-0.28757-1.5627-0.46003-3.1324-0.54492-4.6992z"/></svg>