<svg width="100" height="100" version="1.1" viewBox="0 0 100 100" xml:space="preserve" xmlns="http://www.w3.org/2000/svg"><path d="m1.8555 0s-0.14637 1.6743-0.17578 2.5137c-0.026255 0.7492 0 1.4983 0 2.248 0 0.80846-0.066683 1.6181 0 2.4238 0.073748 0.89107 0.2783 1.7693 0.44141 2.6484 0.12043 0.64908 0.39648 1.9395 0.39648 1.9395s-0.79328-1.4253-1.1465-2.1602c-0.25666-0.53407-0.70508-1.6309-0.70508-1.6309 0 0-0.4265 1.2771-0.5293 1.9395-0.10828 0.69782-0.11731 1.4116-0.089844 2.1172 0.028783 0.73967 0.1403 1.4735 0.26562 2.2031 0.12498 0.72753 0.28656 1.449 0.48438 2.1602 0.18684 0.67174 0.42845 1.3294 0.66211 1.9863 0.19488 0.54788 0.3919 1.0948 0.61719 1.6309 0.25734 0.61236 0.83789 1.8086 0.83789 1.8086s-1.0723-0.902-1.6309-1.3242c-0.38714-0.29263-1.1914-0.83789-1.1914-0.83789s-0.11602 1.2341-0.087891 1.8516c0.029046 0.63753 0.12254 1.2746 0.26562 1.8965 0.12819 0.5572 0.32902 1.0965 0.52734 1.6328 0.19884 0.53768 0.4337 1.0621 0.66211 1.5879 0.26998 0.62149 0.53744 1.2442 0.83789 1.8516 0.28869 0.58359 0.60277 1.1554 0.92578 1.7207 0.32392 0.5669 0.63894 1.1406 1.0156 1.6738 0.36161 0.51191 0.77519 0.98478 1.1895 1.4551 0.25427 0.28871 0.79492 0.83789 0.79492 0.83789 0 0-1.1167-0.34351-1.6309-0.61523-0.63453-0.33538-1.1809-0.82009-1.7656-1.2363-0.42874-0.30526-1.2793-0.92578-1.2793-0.92578s-0.063578 0.98166 0.042969 1.4551c0.11272 0.5009 0.36996 0.96325 0.61914 1.4121 0.30275 0.54541 0.6651 1.059 1.0586 1.543 0.30823 0.37914 0.67181 0.70944 1.0137 1.0586 0.49443 0.50506 1.0043 0.99614 1.5 1.5 0.4447 0.45205 0.85408 0.93754 1.3223 1.3652 0.4322 0.39482 0.92227 0.72305 1.3672 1.1035 0.48245 0.41256 1.4121 1.2793 1.4121 1.2793s-1.553-0.71894-2.3379-1.0586c-0.67139-0.29057-1.3384-0.59737-2.0293-0.83789-0.30319-0.10555-0.92383-0.26562-0.92383-0.26562s0.53353 1.0921 0.88086 1.5879c0.42447 0.60591 0.92979 1.155 1.4551 1.6758 0.56268 0.55793 1.1863 1.0518 3.4453 2.7422 2.259 1.6904 2.9694 2.3598 5.0742 3.8203 2.1048 1.4605 3.0646 1.9783 5.1133 2.8125s2.8854 1.2568 4.6504 1.5098c1.765 0.25298 2.4554 0.3464 4.832 0.24414 2.3766-0.10226 3.5709-0.19007 4.7539-0.36914 1.2313-0.1864 2.4772-0.36098 3.6602-0.75 1.0309-0.33897 1.993-0.86538 2.9551-1.3672 0.36213-0.18886 0.70781-0.40621 1.5098-1.1758 0.55944-0.41682 0.9761-1.2441 0.96484-1.9258 0.05489-0.9242 0.070126-1.3803 0.11328-2.9688 0.04315-1.5884 0.1023-2.2346 0.20117-3.9316 0.09887-1.6971 0.13659-2.378-0.085938-3.6836-0.22252-1.3056-0.39004-1.7353-0.96094-2.6992-0.5709-0.96394-0.89363-1.4477-1.8789-1.9316-0.98528-0.48395-1.4228-0.57131-2.7461-0.94531s-1.8252-0.5071-3.4863-1.1035c-1.6611-0.59642-2.2788-0.85105-3.8789-1.5684-1.6001-0.71731-2.3618-1.1362-4.2656-2.3066-1.9038-1.1704-2.6379-1.7071-4.3223-2.8574-1.6844-1.1503-2.2509-1.5975-3.7188-2.8281-1.4679-1.2306-1.9559-1.729-3.3145-3.1055-1.3586-1.3764-1.8889-1.8429-3.2051-3.1738-1.3162-1.3309-1.8827-1.9736-3.0742-3.6191-1.1915-1.6455-1.5596-2.2574-2.752-4.1855-1.1924-1.9281-1.6138-2.733-2.6367-4.5488s-2.0195-3.2988-2.0195-3.2988zm52.174 8.8574c-0.77537-0.020296-1.5575 0.29447-2.0664 0.9043l-1.4121 1.6914-1.6602 2.0996-3.8809 4.9141-4.6289 5.8594-1.9199 2.4297-1.041 1.2695-0.054688 0.068359c0.02748 0.0091 0.058558 0.0223 0.085938 0.03125 0.35458 0.11588 0.8111 0.23745 1.3633 0.39648 0.55072 0.15864 1.1137 0.3165 1.6875 0.47656 0.22621 0.0631 0.75914 0.15722 1.5469 0.4375 0.19623 0.06982 1.0232 0.2139 2.1387 1.0391 1.2091 0.89444 1.7059 1.7878 1.9785 2.1699 0.39038 0.54705 0.70835 1.1044 0.97266 1.6582 0.28104 0.58885 0.5374 1.2329 0.73242 1.9414 0.20511 0.74518 0.32911 1.486 0.39258 2.2109 0.09225 1.0534 0.033232 1.892 0.013672 2.5059v0.001953c-0.02745 0.86086-0.1002 1.5945-0.14062 2.207-0.04737 0.71769-0.1037 1.3353-0.12695 1.8555-0.02481 0.55495-0.022139 1.2216-0.042969 2-0.0127 0.47436-0.031011 1.009-0.087891 1.9668l0.00586-0.30274c0.03808 2.3055-0.73806 3.7555-2.4785 5.0938-0.82669 0.74424-1.6557 1.3662-2.1445 1.6211-0.91561 0.47756-2.0592 1.1274-3.5547 1.6191-1.6371 0.53833-3.1084 0.72427-4.3105 0.90625-1.3856 0.20973-2.6864 0.30009-3.8828 0.38672-0.92137 0.06672-1.9986 0.16651-3.2324 0.14258-0.99838-0.01936-1.7928-0.13396-2.3906-0.19336-0.40611-0.04035-1.255-0.01999-2.4766-0.3125-1.5086-0.36127-2.4955-0.89394-3.0996-1.125-0.64426-0.24642-1.499-0.52457-2.5-0.98828-0.56484-0.26171-1.121-0.53989-1.668-0.83398l-0.013672 0.015625s-0.80697 0.9068-1.457 1.6055c-1.9822 2.1303-2.8498 2.742-3.6094 3.459-0.69486 0.65594-2.0566 1.9961-2.0566 1.9961s3.1135 2.4484 4.5527 3.8047c2.1405 2.0171 4.1311 4.1938 6.0488 6.4238 0.87852 1.0216 1.6741 2.1125 2.4941 3.1816 0.75909 0.98967 2.2441 2.9922 2.2441 2.9922s2.2254-0.85687 3.3691-1.1855c0.81915-0.23539 1.6438-0.61799 2.4941-0.56055 0.95158 0.06429 1.9088 0.43913 2.6816 0.99805 0.9707 0.70203 1.4941 1.8705 2.2441 2.8047 0.60158 0.74938 1.1886 1.5119 2.9492 4.1445 1.7606 2.6326 1.957 3.4806 3.9004 6.1641 1.9433 2.6835 2.8237 3.1548 6.332 5.6562 3.5083 2.5014 4.9668 3.4941 4.9668 3.4941h18.148s0.57265-2.4115 0.25-3.5547c-0.14573-0.5163-0.7445-0.80809-0.9375-1.3086-0.32374-0.83964-0.17217-1.7947-0.3125-2.6836-0.1157-0.73291-0.18776-1.4832-1.0762-3.0312-0.88836-1.5481-1.8042-1.6861-4.0957-2.9961-2.2915-1.31-3.4802-1.707-4.3672-2.5176-0.77066-0.70422-1.2987-1.6457-1.8086-2.5566-0.38661-0.69074-0.6474-1.4451-0.9375-2.1816-0.40485-1.0278-0.76301-2.074-1.1211-3.1191-0.30476-0.88929-0.62678-1.7725-0.87305-2.6797-0.17838-0.65716-0.40991-1.3172-0.17773-3.1191 0.23217-1.8019 0.61595-2.3394 0.86328-2.9316 0.43603-1.044 0.68146-2.168 2.1875-4.5625 1.5061-2.3945 2.4119-3.3096 3.2383-4.291 0.65068-0.77264 1.6632-1.8902 2.5508-2.7812 0.78635-0.78939 1.6369-1.5132 2.4551-2.2695 1.8054-1.6691 5.416-5.0078 5.416-5.0078l15.633-14.451 4.7344-4.377 1.3652-1.2617c0.93319-0.86273 0.89528-2.2189-0.11914-2.9844-0.87666-0.66149-1.9014-1.3896-2.6582-1.791-1.6342-0.86676-3.4106-1.4788-5.209-1.9121-2.1262-0.51232-4.3578-0.42476-6.5137-0.79297-2.254-0.38497-4.5397-0.72482-6.6992-1.4766-1.9545-0.68038-3.7588-1.7395-5.582-2.7188-1.607-0.8631-3.1427-1.8542-4.7148-2.7793-1.6119-0.94853-3.2474-1.8579-4.8379-2.8418-0.73754-0.45625-1.8056-1.1495-2.7324-1.7578-0.3984-0.26149-0.86095-0.39407-1.3262-0.40625zm-40.965 1.6699c0.0014 0.0018 0.002506 0.004059 0.003906 0.005859 0.43848 0.55646 0.93183 1.118 1.4648 1.6914 0.38974 0.41924 0.86298 0.87654 1.3984 1.3965 0.41061 0.39867 0.95015 0.87049 1.5625 1.4727 0.69342 0.68193 1.2524 1.2984 1.7402 1.7852 0.51412 0.51295 0.95436 0.96064 1.3477 1.3145 0.11573 0.10413 0.27713 0.22695 0.40234 0.33398h18.881l2.0059-2.5391 3.8809-4.916 0.43164-0.54492h-33.119zm52.076 0c1.5892 0.94097 3.0294 1.8596 4.3926 2.5918 1.9133 1.0276 3.5448 1.9569 5.0039 2.4648 1.6854 0.5867 3.7473 0.9158 6.0586 1.3105 1.6006 0.27337 3.9306 0.16172 6.7773 0.84766 0.47854 0.1153 0.95986 0.24411 1.4414 0.38476v-7.5996h-23.674zm23.674 28.422-4.1875 3.8711-2.7383 2.5312-1.0742 0.99219v34.598h-17.229c0.001899 0.0018 0.007865 0.012012 0.009765 0.013672 0.05339 0.04879 1.1457 0.56505 3.6523 1.998 0.99895 0.57108 1.7227 0.87222 2.7109 1.4902 0.98824 0.61802 2.1552 1.7441 2.8691 2.9883 0.29735 0.51815 0.5342 1.0251 0.73242 1.5098h15.254v-49.992zm-78.414 12.088v4.2461c0.37002-0.35902 0.78845-0.77987 1.3477-1.3809 0.4132-0.4441 0.69442-0.76274 0.96289-1.0625-0.34758-0.25253-0.69414-0.50586-1.0176-0.75195-0.49497-0.37661-0.92-0.73262-1.293-1.0508zm0 17.404v20.5h25.629c-0.35374-0.60322-0.73211-1.2335-1.2656-2.0312-1.7306-2.5878-2.1766-3.1582-2.7441-3.8652-1.2005-1.4954-1.6525-2.1993-1.4688-2.0664v-0.001954c-0.01904-0.013769-0.046899-0.022106-0.068359-0.035156h-0.91211c-0.21932 0.05652-0.36594 0.09193-0.74609 0.20117-0.69387 0.19941-3.0371 1.0742-3.0371 1.0742l-2.8379 1.0938-1.7578-2.3691h-2.791v-3.7109c-0.64056-0.84287-1.2437-1.6397-1.8223-2.3125-1.8645-2.1681-3.7638-4.2382-5.7598-6.1191v-0.001953c-0.08944-0.08429-0.30331-0.25313-0.41797-0.35547z"/></svg>