<svg width="100" height="100" version="1.1" viewBox="0 0 100 100" xml:space="preserve" xmlns="http://www.w3.org/2000/svg"><path d="m50 0-16.109 16.109c3.0729 0.44549 6.012 1.2917 8.7949 2.5195l7.3145-7.3145 7.3047 7.3047c2.7837-1.2287 5.7241-2.0748 8.7988-2.5156zm-21.725 19.742c-4.1331 0.05916-8.5699 0.81418-13.334 2.2617l-1e-6 48.211c12.117-5.4062 23.488-5.0353 33.859 1.0938l1e-6 -44.281c-5.8499-4.9757-12.635-7.3981-20.525-7.2852zm42.332 0.0078c-7.4157 0.11884-13.836 2.5371-19.404 7.2734v44.293c10.371-6.1289 21.742-6.4962 33.859-1.0898v-48.211c-5.1972-1.5806-10.006-2.3369-14.455-2.2656zm-58.08 6.2031-2.5273 0.78516-2e-6 50.871c16.086-8.0898 29.529-7.5899 40.01 1.4297 10.48-9.0078 23.912-9.5 39.99-1.418v-50.875l-2.5273-0.78125v46.156c0 0.41406-0.21093 0.80473-0.56641 1.0234-0.35156 0.21875-0.79294 0.2422-1.168 0.0586-12.859-6.2852-24.332-5.8595-35.07 1.293-0.03125 0.01953-0.06641 0.02735-0.10156 0.04687l-0.03125 0.01563c-0.34375 0.1875-0.75778 0.1875-1.1055 0-0.03516-0.02344-0.06641-0.04687-0.09766-0.07031-10.742-7.1602-22.219-7.582-35.07-1.3008-0.375 0.18359-0.81638 0.16405-1.168-0.05859-0.35547-0.21875-0.56641-0.60942-0.56641-1.0234zm-6.5273 18.047-6 6 6 6zm88 1e-6v12l6-6zm-63.531 31.764c-1.3849 0.03452-2.8146 0.18171-4.2832 0.42188l23.814 23.814 23.803-23.803c-4.3347-0.70703-8.2868-0.50528-11.93 0.61718l-11.873 11.873-11.895-11.896c-1.9937-0.61159-4.0789-0.9547-6.2676-1.0234-0.45172-0.01419-0.90751-0.01541-1.3691-0.0039z"/></svg>