<svg width="100" height="100" version="1.1" viewBox="0 0 100 100" xml:space="preserve" xmlns="http://www.w3.org/2000/svg"><path d="m50 7-15.406 26.5c0.92613-0.83042 1.918-1.5516 2.9414-2.1328 3.129-1.7771 6.4961-2.7092 9.627-3.5703l2.8379-4.8809 2.0137 3.4629c1.1185-0.3795 2.2249-0.79277 3.3145-1.25 1.4155-0.59466 3.0464-0.32676 4.1973 0.68945 0.56616 0.50038 1.0719 1.1505 1.4473 1.9023 0.43997 0.84822 0.56762 1.7878 0.75391 2.7109 0.51659-0.24307 1.0562-0.39606 1.6016-0.50781zm6.875 21.816c-2.6127 1.0964-5.2999 1.9842-8.0469 2.6699-6.5868 1.8172-13.307 3.6765-14.859 10.395-0.54894 2.3832-0.87306 4.3943-1.1602 6.1738-0.65098 4.0732-1.1255 7.0056-3.416 10.178-1e-6 -1e-6 -1.3127 1.3448-1.3477 1.334l-3.4395 3.2188-12.371 11.773-2.7793 2.6406c-1.8419 1.7498-1.9171 4.6613-0.16797 6.5039l1.3203 1.3887 6.416 6.7539 5.2734 5.5527c1.7459 1.8376 4.6546 1.9007 6.4785 0.14062l8.1816-7.8945 10.059-10.25c2.2416-1.6141 1.1352-0.92229 2.0938-1.4961 0.77749-0.36061 2.9856-0.50582 4.1348-0.64648 1.3623-0.16676 2.7194-0.40291 4.0586-0.70313 2.2454-0.50334 4.2701-1.0863 6.3418-2.0879 2.3078-1.1158 5.014-2.2836 7.3516-3.6016 0.96069-0.54167 1.3793-0.95911 2.4492-1.7461-2.378 1.134-5.3283 0.34034-6.7852-1.918-0.0051-0.0072-0.01063-0.01418-0.01563-0.02148-0.57584-0.91583-0.84624-1.9678-0.81641-2.9902 0.01193-0.40778 0.07906-0.80864 0.19141-1.1992-0.13065 0.21022-0.2938 0.39833-0.48242 0.5586-2.3877 1.5053-4.7015 0.33156-6.3164-1.9785-0.04871-0.07144-0.09409-0.14636-0.13476-0.22266-0.0038-0.0061-0.0079-0.01148-0.01172-0.01758-0.02908-0.04099-0.05756-0.08225-0.08398-0.125-0.52921-0.91586-0.76111-1.9482-0.70898-2.9434 0.05477-1.0457 0.51647-1.9964 1.1504-2.8457-1.5278-0.14817-2.9882-0.71324-3.8828-2.0371-0.02966-0.04509-0.05745-0.09168-0.08398-0.13867-0.0033-0.0047-0.01203-0.01794-0.01563-0.02344-0.0072-0.01107-0.01449-0.02201-0.02148-0.0332-0.02413-0.03498-0.04614-0.0712-0.06836-0.10742-0.51626-0.88753-0.75666-1.8923-0.71875-2.8906 0.01235-0.32707 0.05438-0.65345 0.12695-0.97656l2e-3 -0.0039c0.25906-1.1754 0.96352-2.1639 1.8828-2.9219-1.3473-0.24126-2.604-0.97073-3.4355-2.1602-0.05197-0.07525-0.09958-0.15366-0.14258-0.23438-1e-3 -0.0019-9.56e-4 -4e-3 -2e-3 -0.0059-0.03331-0.04678-0.06585-0.09547-0.0957-0.14453-0.482-0.84533-0.70363-1.7875-0.69141-2.7129-1.3941 0.65059-2.9601 1.1608-3.9746 2.3086-0.59024 0.66774-1.0462 1.5717-1.041 2.4629 0.0058 0.99928 0.88507 1.8001 1.2012 2.748 0.57669 1.7294 1.0424 3.5122 1.2598 5.3223 0.1996 1.6624 0.2098 3.3565 0.0332 5.0215-0.14838 1.3989-0.91406 4.1211-0.91406 4.1211-0.36157 1.6314-1.0365 3.1884-2.0254 4.5371-0.50897 0.6942-1.5181 0.80378-2.1953 0.26953-0.68373-0.53083-0.80469-1.5146-0.27539-2.1934 1.3712-2.2497 2.0912-4.834 2.0762-7.4668 0.04519-1.0993 0.0163-2.2008-0.09766-3.2949-0.01498-0.07519-0.02504-0.14905-0.02344-0.22461l0.0078 0.0039c-0.16964-1.654-0.61289-3.2672-1.3125-4.7695-0.46047-0.95627-0.81972-1.9526-1.0898-2.9805-0.25443-0.84941-0.31447-1.7501-0.16406-2.627 0.7978-3.1212 4.2072-4.6326 7.7285-6.1934 1.0887-0.48487 2.1882-0.97141 3.1094-1.459 2.7879-1.4715 4.7837-3.3833 2.8281-7.0859-0.12936-0.26784-0.31476-0.50316-0.54102-0.70313zm7.832 4.8359c-0.54999-0.0077-1.1067 0.13868-1.6055 0.45313l-2.875 1.8281c-0.05076 0.03542-0.10069 0.0691-0.15625 0.09961l-0.0039 2e-3 -3.9238 2.4941c-0.06755 0.05181-0.13889 0.09924-0.2168 0.14062-0.58699 0.41018-0.98407 0.99807-1.1602 1.6426-0.05868 0.21484-0.09071 0.43696-0.09961 0.66016-0.02156 0.53567 0.1015 1.0794 0.38476 1.5762 0.04661 0.06234 0.08877 0.1317 0.125 0.19922 0.90088 1.2887 2.6543 1.6445 3.9844 0.80078l7.082-4.5039c1.3249-0.84901 1.7482-2.5823 0.9668-3.9434-0.04658-0.06234-0.09072-0.1219-0.12695-0.18945-0.56305-0.8054-1.4583-1.247-2.375-1.2598zm6.8125 6.3106c-0.54037-0.01168-1.0891 0.12887-1.5801 0.4375l-0.03125 0.02148-11.52 7.4375h-0.0039c-0.57283 0.37141-0.9992 0.92957-1.209 1.5742-0.02999 0.09209-0.05518 0.18594-0.07617 0.28125-0.04184 0.18287-0.06732 0.36916-0.07422 0.55469-0.02114 0.55659 0.11512 1.1125 0.39844 1.5996 0.03626 0.05195 0.07245 0.11281 0.10352 0.16992 0.70925 1.0496 2.0218 1.5057 3.2266 1.1289l12.053-7.6563 0.16602-0.10742c0.65984-0.42446 1.1236-1.0975 1.291-1.8652 0.16732-0.7315 0.04837-1.499-0.32422-2.1484-0.04145-0.05197-0.07245-0.10891-0.10352-0.16602-0.54034-0.79888-1.4158-1.2422-2.3164-1.2617zm-41.541 1.4727-13.941 23.982 5.8223-5.541c0.0084-0.0072 3.8242-3.5918 3.8242-3.5918 0.3702-0.36102 0.41118-0.40499 0.53125-0.52734 1.6748-2.3751 2.0041-4.3388 2.6426-8.334l2e-3 -0.0059c0.26868-1.6654 0.60314-3.668 1.1191-5.9824zm46.172 6.2793c-0.55039-0.0078-1.1087 0.13868-1.6074 0.45312l-0.0039-2e-3 -1.9883 1.2676-0.07617 0.04883-9.332 5.9727-0.06836 0.04687c-0.30134 0.19152-0.62073 0.35195-0.95312 0.48633l-0.0059 2e-3 -0.09961 0.06641c-0.6186 0.39798-1.0415 0.99033-1.2344 1.6484-0.06425 0.21938-0.10329 0.44871-0.11523 0.67774-0.02879 0.54965 0.09567 1.1126 0.39062 1.623 0.0466 0.06236 0.08487 0.12195 0.12109 0.18945 0.90088 1.2886 2.6543 1.6452 3.9844 0.80664l-2e-3 -0.0039 3.6289-2.3047 4.9746-3.1621 3.9258-2.4043 2e-3 -0.01172c1.3197-0.84902 1.7384-2.5862 0.95703-3.9473-0.04661-0.06235-0.08682-0.12582-0.12305-0.19336-0.56305-0.8054-1.4577-1.2468-2.375-1.2598zm2.1035 9.1875c-0.55102-7e-3 -1.1106 0.13866-1.6094 0.45117l-2.1016 1.3398-4.9766 3.1641c-0.63563 0.41007-1.0627 1.0232-1.248 1.7012-0.06174 0.22598-0.09661 0.46046-0.10352 0.69531-0.01644 0.56366 0.12702 1.136 0.44922 1.6484 0.87481 1.356 2.6804 1.7576 4.0469 0.89844l6.5586-4.1699 0.0039 0.0059 0.52148-0.33203c1.3249-0.8541 1.7475-2.5919 0.96094-3.9531-0.04663-0.05716-0.08876-0.12777-0.125-0.19531-0.56304-0.8054-1.4586-1.2423-2.377-1.2539zm-11.602 4.6445c-0.01478 0.02815-0.02902 0.05644-0.04492 0.08398 0.01278-0.01675 0.032-0.03083 0.04297-0.04883zm16.736 2.8809c-0.41016 0.46795-0.885 0.8884-1.4277 1.2383-0.0065 0.0039-0.01301 0.0078-0.01953 0.01172l-0.52148 0.33203c-0.0046 6.58e-4 -0.0091 0.0013-0.01367 2e-3l-4.1367 2.6309c0.0552 0.38751 0.05326 0.78103-0.0059 1.168l8.832 15.189h-38.977l-7.3066 7.4472c-0.02569 0.02574-0.05174 0.05114-0.07813 0.07617l-0.49218 0.47656 60.758-0.001953zm-78.414 20.016-4.9746 8.5566 12.602 5.6e-5 -4.8945-5.1543-1.3184-1.3887c-0.58069-0.61136-1.05-1.2924-1.4141-2.0137z"/></svg>