<svg width="100" height="100" version="1.1" viewBox="0 0 100 100" xml:space="preserve" xmlns="http://www.w3.org/2000/svg"><path d="m-2.55e-4 13.398 14.676 25.422c1.963-1.7887 4.0912-3.4719 6.336-5.0332l-7.1524-12.391h72.282l-6.9141 11.977c2.2811 1.5332 4.4169 3.2055 6.3575 4.9961l14.416-24.971h-50zm50.004 14.602c-15.945 0-31.841 10.609-40.004 22 8.1632 11.457 24.052 22 40.004 22 15.95 0 33.466-10.543 39.996-21.967-6.5304-11.424-24.048-22.033-39.996-22.033zm-0.0039 5.5059c9.1136 0 16.5 7.3846 16.5 16.494 0 9.1096-7.3867 16.494-16.5 16.494-9.1134 0-16.5-7.3846-16.5-16.494 0-9.1096 7.3867-16.494 16.5-16.494zm0 4.5977c-6.572 0-11.9 5.3282-11.9 11.897 0 6.5684 5.3293 11.895 11.9 11.895 6.5711 0 11.902-5.3254 11.902-11.895 0-2.2983-0.66413-4.4374-1.793-6.2559 0.0092 0.10955 0.03125 0.21307 0.03125 0.32422 0 2.1671-1.7574 3.9199-3.9238 3.9199-2.1672 0-3.9203-1.7528-3.9219-3.9199 0-2.1671 1.7539-3.9219 3.9219-3.9219 0.1784 0 0.34833 0.02759 0.51953 0.05078-1.9176-1.3187-4.2348-2.0938-6.7364-2.0938zm-15.445 35.149 15.445 26.748 15.328-26.545c-3.4402 1.1246-6.9905 1.9126-10.563 2.2891l-4.7656 8.252-4.7735-8.2676c-3.6511-0.40589-7.2285-1.2619-10.672-2.4766z"/></svg>