<svg width="100" height="100" version="1.1" viewBox="0 0 100 100" xmlns="http://www.w3.org/2000/svg">
 <path d="m50.001 0a9.375 9.3775 0 0 0-9.375 9.3775 9.375 9.3775 0 0 0 9.375 9.3775 9.375 9.3775 0 0 0 9.375-9.3775 9.375 9.3775 0 0 0-9.375-9.3775zm-2.5391 21.49c-1.5671 0-3.0064 0.5331-4.1595 1.4202l-3e-3 -0.0065-11.073 8.5022 0.0053 0.0099a4.4922 4.4934 0 0 0-1.725 3.0362l-0.0069-7.81e-4 -1.9527 16.798 0.0069 7.82e-4a4.4922 4.4934 0 0 0-0.03738 0.5216 4.4922 4.4934 0 0 0 4.4922 4.4934 4.4922 4.4934 0 0 0 4.4552-3.9752l0.0069 7.81e-4 1.6239-13.968 1.5312-0.51436v9.7007l27.711-8.1122c-0.62178-0.69972-1.4465-1.1877-2.359-1.3958l3.91e-4 -0.0012-11.679-2.4924v-7.1792c0-3.7764-3.0606-6.8378-6.8359-6.8378zm40.723 12.951c-0.10196 0.0023-0.20338 0.01805-0.30212 0.04693l-48.824 14.294-0.29411 2.5287 49.777-14.573c0.62106-0.18192 0.9771-0.83292 0.79536-1.4542-0.11755-0.40191-0.44051-0.71055-0.84724-0.8097l-3.9e-4 3.9e-4c-0.09994-0.02438-0.20245-0.03551-0.30441-0.0332zm-18.805 8.7209-9.3895 2.7485 4.1035 0.87571 0.0023-0.01145c0.30986 0.07069 0.62634 0.1083 0.94414 0.11218 2.1518-0.04148 3.9718-1.6038 4.3396-3.7249zm-15.082 4.4152-14.129 4.1362-4.1573 15.026-9.9525 13.642 0.01106 8e-3c-0.68965 0.93449-1.064 2.0642-1.0689 3.2258 0 3.0211 2.4484 5.4702 5.4688 5.4702 1.744-0.0054 3.3808-0.8422 4.4064-2.2532l0.01105 8e-3 10.547-14.457-0.01105-8e-3c0.23672-0.32005 0.4378-0.66501 0.59967-1.0287l0.0053 2e-3 1.0414-2.3841 1.1776 3.0518-4.3453 18.139 0.01221 3e-3c-0.10394 0.41607-0.15862 0.84294-0.16289 1.2718 0 3.0211 2.4484 5.4702 5.4688 5.4702 2.5256-6e-3 4.7188-1.7414 5.3059-4.1984l0.01221 3e-3 4.7394-19.783-0.01221-3e-3c0.1058-0.41994 0.16138-0.85095 0.16556-1.284-8e-5 -0.4416-0.05362-0.88159-0.15946-1.3103h3.9e-4l-0.0046-0.01908-0.0012-0.0042-4.9674-20.142zm-26.932 4.6285-17.985 5.2653c-0.62103 0.18191-0.9771 0.83291-0.79536 1.4542 0.18187 0.62122 0.83269 0.97737 1.4538 0.79558l17.986-5.2653c-0.36824-0.67916-0.59667-1.4421-0.6588-2.2498zm72.393 38.266s-34.615 7.2421-51.092 7.1831c-16.494-0.059133-48.41-7.1797-48.41-7.1797a1.1719 1.1722 0 0 0-0.25673 0.044645v2.2975c0.76293 0.17176 31.721 7.1216 48.658 7.1823 16.98 0.06087 50.619-7.0321 51.342-7.1846v-2.2974a1.1719 1.1722 0 0 0-0.24147-0.04541z"/>
</svg>
