<?xml version="1.0" encoding="UTF-8"?>
<!-- Created with Inkscape (http://www.inkscape.org/) -->
<svg width="512" height="512" version="1.1" viewBox="0 0 512 512" xml:space="preserve" xmlns="http://www.w3.org/2000/svg"><g><path d="m510.76 463.09s-177.23 37.07-261.59 36.768c-84.45-0.30268-247.86-36.75-247.86-36.75a6 6 0 0 0-1.3145 0.22851v11.76c3.9062 0.87918 162.41 36.451 249.13 36.762 86.94 0.31159 259.17-35.994 262.87-36.775v-11.76a6 6 0 0 0-1.2363-0.23242z" color="#000000" style="-inkscape-stroke:none"/><path d="m453.06 176.46c-1.0234-0.24957-2.0944-0.22532-3.1055 0.0703l-249.98 73.166-1.5059 12.945 254.86-74.594c3.1798-0.93116 5.0028-4.2634 4.0723-7.4434-0.60188-2.0572-2.2554-3.637-4.3379-4.1445z" color="#000000"/><path d="m140.11 267.22-92.084 26.951c-3.1797 0.93115-5.0028 4.2634-4.0723 7.4434 0.93115 3.1798 4.2634 5.0028 7.4434 4.0723l92.086-26.951c-1.8857-3.4769-3.0551-7.3814-3.373-11.516z" color="#000000"/><g><path d="m355.22 220.93-48.074 14.068 21.01 4.4824 0.0117-0.0586c1.5865 0.36187 3.2069 0.55435 4.834 0.57422 11.017-0.2123 20.336-8.209 22.219-19.066z"/><path d="m278 243.53-72.342 21.172-21.285 76.912-50.957 69.83 0.0566 0.041c-3.531 4.7833-5.4477 10.566-5.4726 16.512 0 15.464 12.536 28 28 28 8.9293-0.0278 17.31-4.3127 22.561-11.535l0.0566 0.041 54-74-0.0566-0.041c1.212-1.6382 2.2415-3.4039 3.0703-5.2656l0.0273 0.01 5.332-12.203 6.0293 15.621-22.248 92.848 0.0625 0.0156c-0.53219 2.1297-0.81209 4.3145-0.83394 6.5096 0 15.464 12.536 28 28 28 12.931-0.0308 24.16-8.9131 27.166-21.49l0.0625 0.0156 24.266-101.26-0.0625-0.0156c0.54171-2.1495 0.82626-4.3557 0.84766-6.5723-4.1e-4 -2.2604-0.27454-4.5125-0.81641-6.707h2e-3l-0.0234-0.0977-6e-3 -0.0215-25.435-103.1z"/><path d="m243 110c-8.0236 0-15.393 2.7287-21.297 7.2695l-0.0156-0.0332-56.693 43.52 0.0273 0.0508a23 23 0 0 0-8.832 15.541l-0.0351-4e-3 -9.998 85.982 0.0352 4e-3a23 23 0 0 0-0.19148 2.6699 23 23 0 0 0 23 23 23 23 0 0 0 22.811-20.348l0.0351 4e-3 8.3145-71.498 7.8399-2.6329v49.654l141.88-41.523c-3.1835-3.5816-7.4061-6.0794-12.078-7.1445l2e-3 -6e-3 -59.799-12.758v-36.748c0-19.33-15.67-35-35-35z"/><circle cx="256" cy="48" r="48"/></g></g></svg>
