<?xml version="1.0" encoding="UTF-8"?>
<!-- Created with Inkscape (http://www.inkscape.org/) -->
<svg width="512" height="512" version="1.1" viewBox="0 0 512 512" xml:space="preserve" xmlns="http://www.w3.org/2000/svg"><g><path transform="translate(.95747 11.5)" d="m334.85 406.52c-1.5865 0.1216-3.0598 0.86841-4.0957 2.0762-2.1576 2.5154-1.8672 6.3037 0.64843 8.4609l9.9785 8.5586c-1.4795 3.0864-2.2515 6.4641-2.2598 9.8867 3e-3 1.0495 0.0783 2.0975 0.22461 3.1367h-0.01l0.0195 0.12695 2e-3 0.0195 7.8652 53.141 6e-3 0.041h4e-3c0.72594 4.9023 4.9329 8.5334 9.8887 8.5352 4.9113-5e-3 9.0921-3.5757 9.8652-8.4258h0.01l0.0234-0.15039 5.3144-33.348 50.781 0.36719 2.9746 29.742c-0.0601 0.43561-0.0914 0.87472-0.0937 1.3144 7e-3 1.0843 0.19047 2.1602 0.54297 3.1856l0.01 0.0898 0.0234-2e-3c1.3918 4.0176 5.172 6.7158 9.4238 6.7266 4.946-2e-3 9.1477-3.619 9.8848-8.5098h4e-3l5.6035-37.174 5.6152-20.961-32.781-24.854-3.7207 4.4219-58.315-0.4237v4e-3c-0.0553-2e-3 -0.11068-3e-3 -0.16602-4e-3 -4.6108 0.0122-9.1114 1.4099-12.918 4.0117l-9.9883-8.5664c-1.2081-1.036-2.7784-1.5496-4.3652-1.4277z" stroke-linecap="square" stroke-width="15.545"/><path transform="translate(.95747 11.5)" d="m447.54 374.69c-1.8511-2.3e-4 -3.3518 1.5004-3.3516 3.3516 6.5e-4 6e-3 1e-3 0.0117 2e-3 0.0176h-2e-3l0.0391 7.5801c-1.0994 0.81248-2.1026 1.7475-2.9902 2.7871l-0.0117-0.0117-14.322 17.023 31.322 23.748 2.8984-10.82 19.109 1.3242 8e-3 -0.0234c0.2045 0.022 0.4097 0.037 0.61523 0.0449 4.9706 0 9-4.0294 9-9-7e-5 -2.8694-1.3683-5.5667-3.6836-7.2617l-0.0293-0.0195c-0.26126-0.1889-0.53249-0.36363-0.8125-0.52343l-13.24-8.5508-6e-3 4e-3c-2.4339-7.3732-9.3215-12.355-17.086-12.358-0.23664 0.0123-0.47301 0.0292-0.70898 0.0508l-3.875-5.7344c-1e-3 -2e-3 -3e-3 -4e-3 -4e-3 -6e-3l-0.0117-0.0176c-0.6083-0.9968-1.6916-1.6051-2.8594-1.6055z" stroke-linecap="square" stroke-width="15.545"/><path d="m299.37 266.89c-2.1894 1.5082-4.5949 2.7179-7.1562 3.584 7.9277 14.997 19.198 34.93 33.092 55.678 24.206 36.148 56.1 74.847 92.537 93.369l5.3281-6.3359c-34.663-17.122-66.978-55.287-91.217-91.484-13.67-20.415-24.768-40.034-32.584-54.811z" color="#000000" stroke-linecap="round" stroke-linejoin="round" style="-inkscape-stroke:none"/><path d="m155 122a35 35 0 0 0-9.8789 1.6289l-0.08203-0.18164-82.582 24.502 0.001953 0.00586a23 23 0 0 0-11.777 8.2324l-0.044922-0.03516-46 61 0.044922 0.03516a23 23 0 0 0-4.6816 13.812 23 23 0 0 0 23 23 23 23 0 0 0 18.318-9.1875l0.044922 0.03516 41.17-54.596 30.699-7.957-22.262 92.518 0.078125 0.01953a35 35 0 0 0-0.70703 3.7383l-0.058594-0.01172-13.617 106.46-34.74 88.779 0.0625 0.02539a28 28 0 0 0-1.9883 10.178 28 28 0 0 0 28 28 28 28 0 0 0 26.012-17.822l0.0625 0.02539 36-92-0.0625-0.02539a28 28 0 0 0 1.0449-3.168l0.04883 0.00976 9.3887-36.25 27.689 37.414 22.652 90.607 0.05664-0.01368a28 28 0 0 0 27.107 21.223 28 28 0 0 0 28-28 28 28 0 0 0-0.83789-6.791h0.00195l-24-96h-0.00195a28 28 0 0 0-2.9473-7.2539l0.00586-0.00391-55.938-96.43 16.836-70.713 19.93 24.57 0.03515-0.02735a23 23 0 0 0 9.5078 6.998l-0.01953 0.05078 65.467 25.781 0.01367-0.0332a23 23 0 0 0 8.9473 1.8516 23 23 0 0 0 23-23 23 23 0 0 0-14.572-21.395l0.00196-0.00391-60.152-23.697-48.676-62.424-0.01367 0.00976a35 35 0 0 0-27.588-13.49z" stroke-linecap="square" stroke-width="12.646"/><circle cx="184" cy="62" r="48" stroke-linecap="square" stroke-width="15.728"/></g></svg>
