<svg width="100" height="100" version="1.1" viewBox="0 0 100 100" xmlns="http://www.w3.org/2000/svg">
 <path d="m37.669 0a9.6385 9.6385 0 0 0-9.6385 9.6385 9.6385 9.6385 0 0 0 9.6385 9.6385 9.6385 9.6385 0 0 0 9.6385-9.6385 9.6385 9.6385 0 0 0-9.6385-9.6385zm-5.8233 21.687a7.0281 7.0281 0 0 0-1.9837 0.32709l-0.01647-0.03648-16.583 4.9201 4.02e-4 0.0012a4.6185 4.6185 0 0 0-2.3649 1.6531l-0.0091-0.0071-9.2369 12.249 0.00902 0.0071a4.6185 4.6185 0 0 0-0.94002 2.7736 4.6185 4.6185 0 0 0 4.6185 4.6185 4.6185 4.6185 0 0 0 3.6784-1.8449l0.00902 0.0071 8.267-10.963 6.1645-1.5978-4.4702 18.578 0.01569 0.0039a7.0281 7.0281 0 0 0-0.14197 0.75066l-0.01177-0.0024-2.7344 21.377-6.9759 17.827 0.01255 5e-3a5.6225 5.6225 0 0 0-0.39925 2.0437 5.6225 5.6225 0 0 0 5.6225 5.6225 5.6225 5.6225 0 0 0 5.2232-3.5788l0.01255 5e-3 7.2289-18.474-0.01255-0.0051a5.6225 5.6225 0 0 0 0.20982-0.63581l0.0098 2e-3 1.8853-7.2791 5.5601 7.5129 4.5487 18.194 0.01136-3e-3a5.6225 5.6225 0 0 0 5.4432 4.2616 5.6225 5.6225 0 0 0 5.6225-5.6225 5.6225 5.6225 0 0 0-0.16825-1.3637h4.02e-4l-4.8193-19.277h-4.01e-4a5.6225 5.6225 0 0 0-0.59182-1.4566l0.0012-8.03e-4 -11.233-19.363 3.3807-14.199 4.0019 4.9338 0.0071-0.0055a4.6185 4.6185 0 0 0 1.9092 1.4052l-0.0039 0.0102 13.146 5.177 0.0028-0.0067a4.6185 4.6185 0 0 0 1.7966 0.3718 4.6185 4.6185 0 0 0 4.6185-4.6185 4.6185 4.6185 0 0 0-2.9262-4.2961l4.02e-4 -8.04e-4 -12.079-4.7585-9.7742-12.535-0.0028 2e-3a7.0281 7.0281 0 0 0-5.5398-2.7089zm28.99 29.094c-0.43964 0.30285-0.92268 0.54576-1.437 0.71968 1.5919 3.0114 3.8554 7.014 6.6453 11.18 4.8606 7.2586 11.265 15.03 18.582 18.749l1.0699-1.2723c-6.9604-3.4381-13.45-11.102-18.317-18.37-2.745-4.0994-4.9735-8.0389-6.543-11.006zm29.946 23.956c-0.37171-4.6e-5 -0.67304 0.30128-0.673 0.673 1.3e-4 0.0012 1.92e-4 0.0024 4.01e-4 0.0035h-4.01e-4l0.0079 1.5221c-0.22076 0.16315-0.42222 0.3509-0.60045 0.55966l-0.0024-0.0024-2.876 3.4184 6.2896 4.7687 0.58202-2.1728 3.8372 0.26591 0.0016-0.0047c0.04106 0.0044 0.08227 0.0074 0.12354 9e-3 0.99811 0 1.8072-0.80912 1.8072-1.8072-1.4e-5 -0.57618-0.27476-1.1178-0.73968-1.4582l-0.0059-0.0039c-0.05246-0.03793-0.10692-0.07302-0.16315-0.10511l-2.6587-1.717-0.0012 8.04e-4c-0.48873-1.4806-1.8718-2.4808-3.4309-2.4814-0.04752 0.0025-0.09498 0.0058-0.14237 0.0102l-0.77809-1.1514c-2.02e-4 -4.01e-4 -6.04e-4 -8.03e-4 -8.04e-4 -0.0012l-0.0024-0.0035c-0.1221-0.20022-0.33962-0.32236-0.57412-0.32244zm-22.629 6.3916c-0.31857 0.02442-0.61442 0.17437-0.82243 0.4169-0.43325 0.5051-0.37494 1.2658 0.13021 1.699l2.0037 1.7186c-0.29709 0.61976-0.4521 1.298-0.45377 1.9853 6.02e-4 0.21074 0.01572 0.42119 0.0451 0.62986h-2e-3l0.0039 0.0255 4.01e-4 4e-3 1.5794 10.671 0.0012 8e-3h8.03e-4c0.14577 0.9844 0.99054 1.7135 1.9857 1.7139 0.9862-9.9e-4 1.8257-0.71801 1.981-1.6919h0.0024l0.0043-0.0302 1.0672-6.6963 10.197 0.0737 0.59731 5.9723c-0.01206 0.0874-0.01837 0.17566-0.01881 0.26395 0.0014 0.21773 0.03825 0.43376 0.10903 0.63966l2e-3 0.018 0.0047-4.1e-4c0.27948 0.80675 1.0386 1.3486 1.8923 1.3507 0.99317-4e-4 1.8369-0.7267 1.9849-1.7088h0.0012l1.1248-7.4646 1.1276-4.209-6.5822-4.9907-0.74713 0.88792-11.71-0.0851v8.03e-4c-0.01111-4.02e-4 -0.02222-6.03e-4 -0.03334-8.03e-4 -0.92586 0.0025-1.8296 0.28312-2.594 0.80556l-2.0057-1.7202c-0.24259-0.20803-0.55792-0.31117-0.87655-0.28669z"/>
</svg>
