<svg width="100" height="100" version="1.1" viewBox="0 0 100 100" xmlns="http://www.w3.org/2000/svg">
 <g transform="matrix(.19531 0 0 .19531 -.00017566 0)">
  <path d="m128.67 216.36c-1.8588 0.37609-3.7431 0.6387-5.6582 0.64258a6.0006 6.0006 0 0 1-0.0117 0c-1.6496-5e-5 -3.2831-0.16407-4.8906-0.43945-3.5855 12.538-5.5469 25.758-5.5469 39.439 0 53.784 29.692 100.67 73.545 125.22l0.0605-0.60547a6.0006 6.0006 0 0 1 0.0703-0.13086c9e-3 -0.12909 0.0166-0.25775 0.0273-0.38672l0.084 0.10156a6.0006 6.0006 0 0 1-0.0957-0.33984l1.166-9.5059c-38.794-23.296-64.732-65.762-64.732-114.36 0-13.808 2.0949-27.122 5.9824-39.643zm254.66 0c3.8875 12.521 5.9824 25.835 5.9824 39.643 0 48.593-25.939 91.059-64.732 114.36l1.166 9.5059a6.0006 6.0006 0 0 1-4e-3 0.0391c0.0304 0.23017 0.0602 0.46066 0.0859 0.69141a6.0006 6.0006 0 0 1 8e-3 0.0664l0.0566 0.56446c43.853-24.551 73.545-71.439 73.545-125.22 0-13.682-1.9614-26.902-5.5469-39.439-1.6075 0.27537-3.241 0.4394-4.8906 0.43945a6.0006 6.0006 0 0 1-0.0117 0c-1.9151-4e-3 -3.7994-0.26649-5.6582-0.64258zm-129.69 172.89-1.0098 10.1c1.1223 0.026 2.2368 0.0859 3.3652 0.0859 1.1291 0 2.2443-0.0599 3.3672-0.0859l-1.0098-10.1c-0.78742 0.0137-1.5667 0.0605-2.3574 0.0605-0.79007 0-1.5687-0.0469-2.3555-0.0605z"/>
  <path d="m208.23 73.119c-0.29576 0.21123-0.59812 0.38496-0.88868 0.62695-1.1019 0.98997-1.9757 1.8746-2.625 2.6562-0.35196 0.54597-1.1097 1.8371-2.2676 3.873-1.0429 1.9281-1.8039 3.4419-2.2852 4.541-2.4191 5.2054-3.9711 8.7573-4.6562 10.652-0.0747 0.24281-0.16625 0.6723-0.27539 1.293-0.12927 0.55314-0.23196 0.9525-0.30664 1.1953-0.72678 2.4956-1.0944 3.8554-1.1016 4.0781-0.23419 1.1299-0.31856 2.4796-0.31055 3.9668 1.1982-0.69684 2.433-1.3037 3.7109-1.8203 0.1984-0.70402 0.33113-1.4473 0.58007-2.1211 0.46827-1.3893 1.1454-3.0602 2.0332-5.0156 0.88774-1.9554 1.5826-3.4489 2.084-4.4805 0.54875-1.1192 1.4897-3.0186 2.8242-5.6953s2.0497-4.1021 2.1445-4.2773l0.0703-0.13086c0.23703-0.43822 0.48765-0.95349 0.75196-1.5469 0.26432-0.59338 0.46715-1.0222 0.60937-1.2852 0.49418-0.8089 1.0675-1.6051 1.7168-2.3867 0.0379-0.04558 0.34384-0.26588 0.4043-0.32617-0.7866-1.234-1.5264-2.4979-2.2129-3.7969zm128.74 11.9c-1.4808 0.03992-2.7216 0.14582-3.7227 0.32031-0.62187 0.18774-2.0332 0.68217-4.2344 1.4824-2.0438 0.79265-3.6068 1.4533-4.6856 1.9785-5.2156 2.3969-8.6974 4.0945-10.447 5.0938-0.21424 0.13652-0.56349 0.40466-1.0488 0.80664-0.4569 0.33751-0.79357 0.57637-1.0078 0.71289-2.1708 1.4297-3.3307 2.2257-3.4805 2.3906-1.2422 0.96694-2.5432 2.4646-3.873 4.2305 1.3492 0.0222 2.69 0.12253 4.0137 0.33007 0.943-0.69592 1.8809-1.4046 2.8711-1.9609 1.257-0.75468 2.8575-1.588 4.8008-2.502 1.9433-0.91399 3.4399-1.6037 4.4902-2.0645 1.1432-0.49682 3.0908-1.3301 5.8418-2.5039s4.2204-1.7971 4.4062-1.8691l0.13672-0.05469c0.46449-0.18015 0.99033-0.41076 1.5762-0.69141 0.58583-0.28064 1.0182-0.47394 1.2969-0.58203 0.90056-0.29583 1.8505-0.53254 2.8516-0.70703 0.50053-0.08725 1.9865-0.0476 4.4551 0.11719-0.22749 0.51572-0.42095 1.3928-0.58203 2.6309-0.0493 0.2863-0.0868 0.80997-0.11328 1.5684 2e-3 0.69392-0.0355 1.2137-0.11328 1.5645-0.0132 0.37919-0.23774 1.3226-0.66992 2.8262-0.53836 1.9188-0.83162 3.0203-0.88086 3.3066-0.39809 0.9025-0.843 1.8232-1.334 2.7617-0.58388 0.97457-1.9663 2.714-4.1484 5.2168-0.12133 0.10047-0.28555 0.29595-0.49219 0.58984s-0.37084 0.4913-0.49219 0.5918c-0.1782 0.22942-0.42138 0.43096-0.72851 0.60351-0.24268 0.20099-0.53163 0.41923-0.86719 0.65625-0.27112 0.26545-0.4811 0.48153-0.63086 0.64649l-0.74414 0.61523 3.2578 2.1856c0.13231-0.0876 0.2688-0.15315 0.40039-0.24414 1.985-1.3576 3.9347-3.1552 5.8457-5.3926 1.9754-2.2089 3.4785-4.3952 4.5098-6.5586 0.0284-0.0645 0.0556-0.1289 0.084-0.19335 0.11374-0.25786 0.35277-1.2306 0.71289-2.9199 0.38071-1.9112 0.57005-3.2143 0.56836-3.9082-0.0552-1.7955-0.28339-3.5518-0.68164-5.2676-0.18775-0.62187-0.33528-1.0709-0.44336-1.3496 0.50052-0.08725 0.79987-0.41764 0.89843-0.99023 0.0132-0.37919-0.0802-0.69092-0.28125-0.93359-0.34511-0.61427-1.3198-1.1965-2.9238-1.75-1.3177-0.50424-2.781-0.76625-4.3906-0.7832zm-116.77 3.3457c0.16504 1.173 0.24683 3.1596 0.20899 6.2988-0.0272 0.15517-0.025 0.41179 8e-3 0.76953 0.0331 0.35774 0.0369 0.61436 0.01 0.76953 0.013 0.29022-0.042 0.59924-0.16406 0.92969-0.0546 0.31033-0.13238 0.66452-0.23437 1.0625-0.0345 0.37786-0.0553 0.6777-0.0625 0.90039-0.0819 0.4655-0.20541 1.1647-0.36914 2.0957-0.0339 0.3207-0.0739 0.52383-0.10938 0.80859h3.3672c0.38196-0.90751 0.72203-1.8462 0.98828-2.8438 0.57672-2.1177 0.8589-4.5299 0.91406-7.166-1.5836-1.1286-3.1057-2.3365-4.5566-3.625zm-60.729 8.1738c-1.655 0.0067-3.5031 0.31304-5.5449 0.92188-2.2373 0.60483-3.8832 1.5711-4.9355 2.8984-0.2497 0.2583-0.36804 0.64239-0.35938 1.1504l0.37305 1.2812c0.91426-1.4032 1.7107-2.168 2.3926-2.2969 1.7114-0.49816 3.4973-0.70481 5.3555-0.61914 1.9161 0.04559 3.5348 0.34236 4.8535 0.88672 0.37423 0.16954 0.88822 0.54003 1.543 1.1152 0.61467 0.51724 1.372 1.3661 2.2715 2.543 0.95742 1.1368 1.7414 2.5191 2.3555 4.1504 0.9211 2.4469 1.3323 5.334 1.2324 8.6582-0.0237 1.859-0.27413 3.6656-0.65625 5.4434l4.3809-2.9395c-0.0489-1.9846-0.23228-3.9715-0.5879-5.959-0.71951-4.3852-1.5383-7.6743-2.4551-9.8672-0.91678-2.1929-1.6617-3.5192-2.2363-3.9785-0.0802-0.1159-0.68356-0.55575-1.8106-1.3184-1.5413-0.99009-2.6761-1.5747-3.4023-1.7578-0.85378-0.21268-1.7765-0.31656-2.7695-0.3125zm81.213 3.2324c0.19116 0.44344 0.3836 0.88561 0.67773 1.2754 0.32703 0.40173 0.7385 0.69115 1.1719 0.95312h5.8516c0.16206-0.0956 0.43924-0.16418 0.55859-0.26953 0.0805-0.059 0.14457-0.1185 0.22266-0.17774-2.9048-0.36941-5.7388-0.96686-8.4824-1.7812zm24.404 1.4473c-1.3105 0.22364-2.6342 0.40439-3.9746 0.53125-0.0108 0.0841-0.0239 0.16698-0.0371 0.25h3.7109c0.11417-0.26195 0.20011-0.52071 0.30078-0.78125zm-104.01 8.6758c-0.89348 0.0395-1.855 0.17958-2.8867 0.42188-1.9654 0.50249-3.5754 1.2729-4.8281 2.3105-1.4845 1.1979-2.7367 2.9207-3.7539 5.166-0.852 1.6171-1.4364 3.4347-1.7539 5.4531-0.1609 0.88223-0.26956 1.9006-0.32812 3.0547-0.0406 1.0561 0.24087 2.7022 0.8457 4.9394 0.36521 1.351 0.93769 2.5786 1.6133 3.7461l3.7852-2.5391c-0.19486-0.27161-0.4309-0.51827-0.52735-0.84961-1.103-3.9487-0.81572-7.8733 0.85743-11.771-0.0401-0.0579-0.0325-0.10639 0.0254-0.14648 1.0838-1.7774 1.6644-2.735 1.7402-2.873 0.74905-0.77496 1.7917-1.4964 3.1289-2.1641 1.3193-0.56967 3.0158-0.84176 5.0879-0.81836 0.15598-0.0222 0.3033 4e-3 0.4414 0.0801l0.44141 0.0801c0.098 0.0179 0.16499 0.0553 0.20508 0.11328 0.35202 0.0136 0.72159-0.0695 1.1094-0.25196 0.38779-0.18249 0.60848-0.42076 0.66211-0.71484 0.0536-0.29407-0.35553-0.82683-1.2285-1.5938-0.81504-0.807-1.5358-1.2918-2.1641-1.457-0.75521-0.16306-1.5792-0.22503-2.4726-0.18555zm216.86 3.6309c-1.0283 6e-3 -2.1283 0.19016-3.2969 0.55273-0.78771 0.23378-1.2991 0.48053-1.5371 0.74024-0.43279 0.36794-0.54108 0.7961-0.32031 1.2852 0.0649 0.34625 0.25127 0.61274 0.55859 0.79882 0.0519 0.0476 0.12702 0.0689 0.22657 0.0645-0.33755 0.26405-0.49931 0.54511-0.48633 0.84375-0.0346 0.35058 0.18933 1.4638 0.66992 3.3379 0.53689 2.0212 0.81123 3.1799 0.82422 3.4785 0.0866 0.84399 0.0653 2.0685-0.0645 3.6699-0.21623 1.9044-0.47446 3.3868-0.77734 4.4473-0.25528 1.0085-0.79805 2.2783-1.6289 3.8106-0.6646 1.3393-1.5058 2.5055-2.4805 3.541l4.0117 2.6895c2.3085-2.7391 3.9583-5.6587 4.9414-8.7578l0.0645-0.22656c0.20768-0.95654 0.37312-2.3342 0.49414-4.1348 0.15129-2.2507 0.10074-3.9704-0.15039-5.1562-0.49361-2.1727-1.3793-4.1782-2.6562-6.0176-0.32033-0.48473-0.63756-0.86867-0.94921-1.1543 0.25103 0.0389 0.50286 0.0764 0.7539 0.11523 1.1556 0.19899 1.8094 0.32002 1.9609 0.36329 0.20343 0.0909 0.59075 0.40016 1.1621 0.92382 0.67959 0.71842 1.1258 1.2218 1.3379 1.5117 0.21644 0.38953 0.59714 1.122 1.1426 2.1953 0.22078 0.48908 0.58181 1.3435 1.084 2.5684 0.55411 1.2724 0.9937 2.2028 1.3184 2.7871 0.0562 0.14715 0.18872 0.31544 0.39649 0.50586 0.2597 0.23803 0.44103 0.40284 0.54492 0.49805 0.79214 1.0127 1.3149 1.59 1.5703 1.7285 1.2293 0.74434 2.957 0.89325 5.1816 0.44726 1.333-0.30741 2.5053-0.90518 3.5137-1.7969 0.14715-0.0562 0.29079-0.16449 0.4336-0.32032l0.68945-1.375c-0.0996 4e-3 -0.59169 0.17404-1.4746 0.51172-0.78338 0.33335-1.3244 0.50851-1.623 0.52149-2.4843 0.20797-3.9979-0.17659-4.5391-1.1504-0.22077-0.48906-0.77922-1.9112-1.6797-4.2656-0.90046-2.3544-1.7307-4.2129-2.4883-5.5762l-0.0781-0.0723c-0.32033-0.48472-0.92167-1.1321-1.8047-1.9414-1.1903-0.99538-2.2153-1.5966-3.0723-1.8086-0.56646-0.12493-1.1565-0.18709-1.7734-0.18359zm-24.059 6.0391c-1.0063 0.0812-2.0279 0.24549-3.0644 0.49024-2.009 0.53361-3.71 1.8692-5.1074 4.002l3.7891 2.5391c0.6021-0.91681 1.296-1.5956 2.1172-1.9394 1.2724-0.55411 2.5801-0.88583 3.9219-0.99414 1.3893-0.16026 2.3828-0.2044 2.9844-0.13086 0.70117 0.0692 1.2048 0.14786 1.5078 0.23437 0.86133 0.31155 1.3192 0.49145 1.3711 0.53907 0.61897 0.47172 1.0682 1.0767 1.3496 1.8125 0.68837 2.0645 0.70429 3.607 0.0508 4.6328-0.28129 0.4112-1.0803 0.92128-2.4004 1.5273l-0.29296 0.16211c-0.2467 0.0605-0.41999 0.0932-0.51954 0.0977-0.0476 0.0519-0.16656 0.13201-0.36132 0.24023l-0.28125 0.1543 0.41211 0.27734c0.20839 0.0944 0.35406 0.19155 0.94531 0.26954 0.85267 0.11244 1.4511 0.0864 1.793-0.0781 1.4196-0.6104 2.5361-1.8801 3.3496-3.8106 0.81352-1.9304 0.97863-3.833 0.49804-5.707 0.0303-0.45013-0.41401-0.95541-1.3359-1.5137-0.87435-0.6102-1.8993-1.2134-3.0723-1.8106-1.121-0.54959-2.682-0.87982-4.6816-0.99218-0.97601-0.0822-1.9664-0.0832-2.9727-2e-3zm-236.24 7.4356c0.0125 0.0988 0.22356 0.57564 0.63281 1.4277 0.39673 0.75325 0.61479 1.2777 0.65235 1.5742 0.41189 2.4588 0.15443 3.9977-0.77149 4.6172-0.46922 0.26032-1.8391 0.93603-4.1113 2.0273-1.5926 0.76489-2.6389 1.4056-3.752 2.0606l3.7812 3.2637c0.48621-0.26475 1.1674-0.62392 2.2305-1.166 1.2225-0.65704 2.1105-1.1713 2.666-1.543 0.14202-0.0682 0.29999-0.2128 0.47265-0.43555 0.21583-0.27843 0.3668-0.4726 0.45313-0.58398 0.94404-0.87286 1.4729-1.4431 1.5898-1.709 0.64056-1.2864 0.64917-3.0208 0.0215-5.2012-0.41617-1.3032-1.1103-2.42-2.082-3.3516-0.0682-0.14202-0.18646-0.27675-0.35352-0.40625l-1.4297-0.57422zm3.5977 17.096c-1.7888 0.0274-3.1338 0.18341-4.2344 0.40821l5.2012 4.4902c0.88038 0.0716 1.9341 0.1109 2.5469 0.23242 0.69819 0.11659 1.7123 0.52855 2.6738 0.89063l4.7949-3.2148c-2.134-1.2042-4.3265-2.0924-6.5879-2.6094l-0.23242-0.0449c-0.97041-0.12816-2.3577-0.18001-4.1621-0.15235zm-41.012 45.279c0.0066 0.15804-0.01561 0.30234-0.0039 0.46289 0.16296 1.4723 0.37369 2.6986 0.63086 3.6816 0.23882 0.60409 0.84754 1.9707 1.8281 4.0977 0.95992 1.9708 1.7462 3.4726 2.3594 4.5039 2.8224 4.9982 4.8039 8.3276 5.9453 9.9883 0.15387 0.20212 0.45162 0.52829 0.89258 0.97851 0.37435 0.42724 0.6391 0.74123 0.79297 0.94336 1.6053 2.0443 2.495 3.134 2.6719 3.2695 1.4101 1.5298 3.5224 3.0798 6.3359 4.6465 1.4401 0.7948 2.6953 1.1503 3.7656 1.0723 0.15619-0.0207 0.36797-0.0957 0.63672-0.22656 0.20213-0.15387 0.39506-0.27406 0.57422-0.36133 0.13553-0.17683 0.16817-0.27583 0.10156-0.29883-0.0436-0.0896-0.37561-0.2036-0.99805-0.34375-0.59946-0.20677-0.98721-0.37813-1.1641-0.51367-2.8295-2.1684-5.1326-4.566-6.9102-7.1914-0.85663-1.1898-1.8221-2.7156-2.8945-4.5762-1.0725-1.8605-1.8831-3.2944-2.4297-4.3027-0.5902-1.0979-1.5839-2.9695-2.9824-5.6133-1.3986-2.6438-2.1413-4.0552-2.2285-4.2344l-2e-3 -4e-3 -6.9219-5.9785zm333.25 15.807-3.1113 2.6856c1.5184 0.42759 2.9731 0.94532 4.3398 1.584 1.3456 0.58211 2.9552 1.3962 4.8301 2.4434s3.3046 1.8639 4.291 2.4492c1.0698 0.63986 2.8829 1.7367 5.4394 3.2891s3.9191 2.3831 4.0859 2.4922l0.125 0.082c0.417 0.27263 0.90917 0.5662 1.4785 0.87891 0.56936 0.31271 0.97831 0.55126 1.2285 0.71484 0.76504 0.55969 1.5114 1.1942 2.2363 1.9062 0.36247 0.35603 1.196 1.585 2.5 3.6875-0.5517 0.1155-1.3784 0.46836-2.4785 1.0586-0.26142 0.12672-0.70796 0.40009-1.3398 0.82032-0.56292 0.40578-1.0095 0.67915-1.3398 0.82031-0.31594 0.21011-1.2117 0.57705-2.6856 1.1016-1.8732 0.6801-2.9398 1.0842-3.2012 1.2109-0.96548 0.20212-1.9726 0.37584-3.0215 0.52344-1.1323 0.0931-3.3508-0.0163-6.6562-0.33203-0.15236-0.0402-0.40833-0.06-0.76758-0.0566-0.35926 3e-3 -0.6152-0.0146-0.76757-0.0547-0.29029-0.0112-0.5949-0.093-0.91407-0.24219-0.30472-0.0802-0.65093-0.18561-1.0391-0.32031-0.37369-0.0658-0.67126-0.11303-0.89258-0.13867-0.45709-0.12026-1.1425-0.29854-2.0566-0.53907-0.89975-0.17156-1.6542-0.3377-2.2637-0.49804-0.54049-0.17479-1.0186-0.39925-1.4356-0.67188-0.1668-0.10905-0.5086-0.3617-1.0234-0.75781-0.5004-0.32715-0.95291-0.59126-1.3555-0.79492-0.3336-0.21809-0.69391-0.39655-1.082-0.53125-0.15236-0.0401-0.37379-0.065-0.66407-0.0762l-1.0957 0.44531c0.0144 0.069 0.31464 0.29411 0.89844 0.67578 0.6672 0.4362 1.0922 0.74386 1.2734 0.92187 2.1925 2.5644 4.9997 4.4588 8.4238 5.6856 2.2598 0.82264 4.8573 1.3593 7.7891 1.6094 2.9462 0.31901 5.5979 0.26761 7.957-0.1543l0.20703-0.043c0.27585-0.0578 1.2042-0.43174 2.7871-1.123 1.7754-0.8036 2.9449-1.4087 3.5078-1.8144 1.4273-1.0907 2.724-2.2979 3.8867-3.6211 0.39612-0.51483 0.67431-0.89824 0.83789-1.1484 0.36247 0.35602 0.8053 0.40773 1.3281 0.1543 0.31591-0.21011 0.51552-0.46676 0.5957-0.77149 0.29826-0.63832 0.20318-1.7722-0.28125-3.3984-0.35771-1.3648-0.99803-2.7052-1.9219-4.0234-0.89498-1.1803-1.7048-2.1278-2.4297-2.8398-0.51484-0.39611-1.7392-1.2531-3.6719-2.5762-1.8348-1.1995-3.2787-2.0853-4.334-2.6562-4.9863-2.8433-8.395-4.6851-10.227-5.5254-0.23576-0.0946-0.65813-0.22246-1.2676-0.38281-0.54049-0.17479-0.92832-0.30969-1.1641-0.4043-2.4266-0.93171-3.7513-1.4099-3.9726-1.4356-0.466-0.13782-1.0532-0.20825-1.5859-0.30859zm-344.6 33.5c-0.10998 7e-3 -0.22669 0.019-0.34961 0.0391-0.42124 0.0789-0.69931 0.22529-0.83594 0.43946-0.13805 0.14372-0.20115 0.60403-0.18555 1.3789 0.01418 0.70443 0.0967 1.2677 0.24609 1.6875 0.29596 0.69876 1.0934 1.8098 2.3926 3.334 1.3006 1.5947 2.3818 2.8045 3.2441 3.6328 0.21558 0.20707 0.43285 0.41401 0.64844 0.62109-0.8874 1.4273-1.7123 2.6077-2.4688 3.5391-1.4424 1.8613-2.4014 3.1859-2.8789 3.9707-0.33945 0.64109-0.6301 1.8796-0.875 3.7168-0.24632 1.7667-0.05812 4.1581 0.56641 7.1758s1.9456 5.6702 3.9648 7.9551c3.2451 3.6697 9.6815 6.5694 19.309 8.7012 1.4864 0.32243 2.971 0.53929 4.4531 0.65039 1.4807 0.0406 2.9591-0.0247 4.4355-0.19532 1.406-0.16923 2.5953-0.68561 3.5645-1.5508 0.89872-0.86376 1.3681-2.0018 1.4102-3.4121-0.0184-0.91574-0.14221-1.7587-0.36914-2.5293-0.29738-0.76921-0.62506-1.3268-0.98437-1.6719-0.36072-0.41557-0.72077-0.7955-1.0801-1.1406l-0.53906-0.51758c-0.14656-0.27894-0.39852-0.59237-0.75782-0.9375-0.36073-0.41556-0.57853-0.65559-0.65039-0.72461-1.3006-1.5947-2.2346-2.5984-2.8066-3.0098-2.7884-1.9875-5.5903-2.8131-8.4023-2.4746-1.1257 0.0931-2.1384 0.57374-3.0371 1.4375-0.96919 0.86515-1.3731 1.8231-1.2109 2.877 0.1579 0.84249 1.1461 0.92868 2.9648 0.25781-0.07186-0.069-0.21357-0.17195-0.42773-0.30859-0.86092-0.75785-1.0469-1.2125-0.55664-1.3633 1.2595-0.44819 2.7069-0.37091 4.3398 0.23046 1.5625 0.60279 3.0247 1.5246 4.3887 2.7656 0.86234 0.8283 1.8813 2.4284 3.0566 4.8008 0.21984 0.4184 0.47856 1.049 0.77734 1.8887l0.78516 2.2031c0.14656 0.27894 0.25733 0.5225 0.33203 0.73242-0.72004-0.7607-1.9303-1.371-3.6309-1.8301-10.399-1.9753-17.964-4.9941-22.697-9.0566-1.5063-1.3086-2.5283-2.9788-3.0625-5.0117-0.53565-2.1034-0.49962-3.8305 0.10742-5.1816 0.19857-0.63825 0.50221-1.2794 0.91211-1.9219 0.33803-0.71152 0.64524-1.2456 0.91992-1.6035 0.27468-0.35789 0.61905-0.75241 1.0332-1.1836 0.3437-0.42975 0.55012-0.68205 0.61914-0.75391-0.0014-0.0702 0.03503-0.10379 0.10547-0.10547l-0.0039-0.10547c0.55078-0.64534 1.2352-1.7185 2.0508-3.2148 0.06761-0.14231 0.1341-0.24846 0.20312-0.32031 0.21417 0.13663 0.46593 0.30801 0.75195 0.51367 2.1445 1.5072 3.9621 2.6338 5.457 3.3789 5.0596 2.7875 8.8686 4.6839 11.426 5.6894 0.28319 0.0648 0.70901 0.16147 1.2754 0.29101 0.56638 0.12955 0.95522 0.22678 1.168 0.29297 2.3402 0.72807 3.6524 1.1247 3.9355 1.1895 2.1218 0.38011 4.4097 0.29859 6.8652-0.24415 1.3328-0.3087 2.2713-0.92444 2.8164-1.8516 0.0662-0.21275 0.098-0.42733 0.0937-0.63867-4e-3 -0.21132-0.044-0.38592-0.11719-0.52539-0.0747-0.21018-0.14635-0.31419-0.21679-0.3125-0.0704 2e-3 -0.31295 0.18225-0.72852 0.54297-0.41698 0.29028-0.69451 0.47359-0.83398 0.54687-2.4641 0.12008-5.0466-0.35648-7.7461-1.4297-4.262-1.676-11.174-5.3783-20.732-11.105-0.0014-0.0704-0.07254-0.13942-0.21484-0.20703-0.5002-0.34229-1.1429-0.75297-1.9277-1.2305-0.21416-0.13663-0.39338-0.27407-0.53711-0.41211-0.0014-0.0704-0.03804-0.17498-0.11133-0.31446-0.80891-1.675-2.2784-2.949-4.4102-3.8223-0.1423-0.0676-0.39407-0.23898-0.75195-0.51367-0.3579-0.27468-0.5357-0.44714-0.53711-0.51758-0.21417-0.13664-0.3948-0.23709-0.53711-0.30469-0.57489-0.5522-1.2214-1.21-1.9414-1.9707-0.07186-0.0691-0.14352-0.17304-0.2168-0.3125-0.14372-0.13805-0.25236-0.24347-0.32422-0.3125l-0.10938-0.20899c-0.21346-0.10142-0.48452-0.14094-0.81445-0.12109zm343.89 23.926c-0.46259-0.0171-0.89026 0.0219-1.2812 0.11719-0.15062 0.0462-0.34649 0.1565-0.58985 0.33008-0.17388 0.18521-0.34362 0.33545-0.50586 0.45117-0.10439 0.19684-0.12033 0.30086-0.0508 0.3125 0.0578 0.0811 0.40592 0.14059 1.043 0.17578 0.62542 0.10465 1.0336 0.20812 1.2305 0.3125 3.1495 1.6701 5.8182 3.6524 8.0059 5.9473 1.0418 1.0316 2.2476 2.3759 3.6133 4.0332s2.4014 2.9378 3.1074 3.8418c0.76384 0.98507 2.0541 2.6672 3.8711 5.043 1.817 2.3757 2.7827 3.6424 2.8984 3.8047l0.0859 0.12305c0.28931 0.4056 0.64388 0.85711 1.0606 1.3555 0.41666 0.49835 0.71119 0.86992 0.88476 1.1133 0.50913 0.79958 0.9723 1.661 1.3887 2.5879 0.20819 0.46347 0.53621 1.913 0.98632 4.3457-0.55591-0.093-1.4539-0.0638-2.6934 0.0859-0.28959 0.0229-0.80349 0.11371-1.5449 0.27539-0.67194 0.17329-1.1878 0.26601-1.5469 0.27734-0.37072 0.0809-1.3386 0.0983-2.9024 0.0508-1.9922-0.0476-3.1323-0.0601-3.4219-0.0371-0.97289-0.16281-1.9751-0.36545-3.0059-0.60938-1.0886-0.32505-3.1158-1.2362-6.0801-2.7324-0.12736-0.0928-0.35754-0.20439-0.69336-0.33203-0.33584-0.12764-0.56795-0.23537-0.69531-0.32813-0.26633-0.11601-0.52253-0.30165-0.76562-0.55664-0.2547-0.1855-0.53704-0.41307-0.84961-0.67968-0.3242-0.19713-0.58441-0.34874-0.78125-0.45313-0.38206-0.27825-0.95659-0.69546-1.7207-1.252-0.77576-0.48701-1.4164-0.91416-1.9258-1.2852-0.43993-0.35937-0.80444-0.74284-1.0938-1.1484-0.11572-0.16225-0.34218-0.51995-0.67773-1.0762-0.34718-0.48672-0.67173-0.90022-0.97266-1.2363-0.23145-0.32448-0.50188-0.6201-0.81445-0.88672-0.12735-0.0927-0.32547-0.19651-0.5918-0.3125l-1.1816 0.0176c-0.0116 0.0695 0.1848 0.38724 0.58984 0.95508 0.4629 0.64896 0.74748 1.0886 0.85157 1.3203 1.1099 3.1861 3.0357 5.9734 5.7793 8.3613 1.8059 1.5881 4.0298 3.033 6.6699 4.332 2.6285 1.3685 5.1177 2.2832 7.4688 2.748l0.20898 0.0371c0.27796 0.0465 1.278 0.0352 3.0039-0.0332 1.946-0.10297 3.2577-0.24272 3.9297-0.41602 1.7262-0.49694 3.3713-1.1492 4.9356-1.959 0.55623-0.33555 0.95586-0.59009 1.1992-0.76368 0.20819 0.46344 0.60051 0.67288 1.1797 0.62696 0.37072-0.0809 0.65043-0.2492 0.83593-0.50391 0.50998-0.48615 0.8345-1.5746 0.97461-3.2656 0.1631-1.4015 0.0531-2.8852-0.32812-4.4492-0.40447-1.425-0.81409-2.6004-1.2305-3.5274-0.33555-0.55622-1.1632-1.8011-2.4824-3.7363-1.273-1.7846-2.2968-3.1352-3.0723-4.0508-3.611-4.4619-6.117-7.4184-7.5176-8.8672-0.18522-0.17387-0.5316-0.44542-1.041-0.81641-0.43993-0.35937-0.75423-0.62691-0.93945-0.80078-1.9216-1.7503-2.9809-2.6769-3.1777-2.7812-1.644-1.2752-3.9835-2.452-7.0176-3.5312-0.96986-0.34089-1.8384-0.52612-2.6094-0.55469zm-313.87 38.367c-1.0199-5e-3 -2.0819 0.0371-3.1816 0.12695-2.9583 0.17373-5.5637 0.66361-7.8203 1.4707-0.06561 0.0256-0.13165 0.0524-0.19727 0.0781-0.26246 0.10267-1.1161 0.62425-2.5625 1.5684-1.6176 1.0867-2.6723 1.8776-3.1602 2.3711-1.2268 1.3122-2.3032 2.7153-3.2305 4.2129-0.3053 0.57337-0.51883 0.99764-0.63867 1.2715-0.41647-0.29105-0.8604-0.26619-1.334 0.0703-0.27674 0.25957-0.42847 0.54559-0.45703 0.85938-0.18835 0.67894 0.09062 1.7812 0.83789 3.3047 0.57898 1.2866 1.4329 2.5015 2.5625 3.6484 1.0782 1.0157 2.0323 1.8144 2.8652 2.3965 0.57337 0.30531 1.9236 0.95113 4.0488 1.9355 2.0082 0.87884 3.5795 1.5123 4.7148 1.9004 5.3886 1.9775 9.0564 3.2288 11.002 3.7539 0.24819 0.0542 0.68686 0.1089 1.3145 0.16602 0.56199 0.0828 0.96665 0.15082 1.2148 0.20507 2.5474 0.51661 3.9318 0.76923 4.1543 0.75782 2.0654 0.25124 4.6779 0.0618 7.8359-0.56836 1.6118-0.32791 2.7998-0.8661 3.5645-1.6191 0.10556-0.11695 0.21805-0.31406 0.33789-0.58789 0.0542-0.24819 0.12128-0.46392 0.20117-0.64649-0.0114-0.22254-0.0497-0.32061-0.11523-0.29492-0.0913-0.04-0.41951 0.0882-0.98438 0.38476-0.59054 0.23099-0.99624 0.35383-1.2188 0.36524-3.5602 0.18223-6.8686-0.15048-9.9238-0.99805-1.4235-0.35103-3.1474-0.88743-5.1699-1.6094-2.0225-0.72195-3.5689-1.2913-4.6387-1.7051-1.161-0.4537-3.1297-1.2327-5.9082-2.3398s-4.2588-1.7033-4.4414-1.7832l-0.13672-0.0586c-0.45642-0.19974-0.99215-0.40708-1.6055-0.6211-0.61332-0.21402-1.0562-0.38015-1.3301-0.5-0.84722-0.42514-1.6866-0.92772-2.5195-1.5098-0.41647-0.29102-1.4417-1.3673-3.0762-3.2246 0.52492-0.20535 1.2805-0.68869 2.2676-1.4531 0.23679-0.16828 0.63206-0.51211 1.1855-1.0312 0.48787-0.49349 0.88118-0.8373 1.1836-1.0312 0.27674-0.25958 1.1003-0.76969 2.4668-1.5312 1.7346-0.98114 2.7202-1.5563 2.957-1.7246 0.91862-0.35936 1.8827-0.69817 2.8926-1.0176 1.1012-0.27946 3.3071-0.53698 6.6191-0.77344 0.1569 0.0143 0.41383-0.0118 0.76757-0.0742 0.35374-0.0627 0.60874-0.0866 0.76563-0.0723 0.28814-0.037 0.59998-9e-3 0.93945 0.0859 0.3138 0.0286 0.675 0.076 1.0801 0.14453 0.37942 3e-3 0.67983-6.2e-4 0.90234-0.0117l2.1172 0.19141c0.91573 0.0201 1.6888 0.06 2.3164 0.11719 0.56199 0.0828 1.0709 0.22409 1.5273 0.42383 0.18257 0.0799 0.5614 0.27281 1.1348 0.57812 0.5477 0.23968 1.036 0.42643 1.4668 0.56055 0.36513 0.15979 0.74922 0.2733 1.1543 0.3418 0.1569 0.0143 0.37984 2e-3 0.66797-0.0352l1.0059-0.61914c-0.0257-0.0656-0.35711-0.23794-0.9961-0.51758-0.73025-0.31958-1.2-0.55177-1.4082-0.69726-2.5872-2.1655-5.6718-3.5687-9.252-4.2109-1.478-0.27294-3.0658-0.41498-4.7656-0.42383zm302.75 7.7383c-0.90302 5e-3 -1.8053 0.0959-2.709 0.26953-2.219 0.40573-4.3288 1.3498-6.3281 2.834-2.0948 1.5128-3.7572 3.3386-4.9883 5.4766-2.4192 3.8988-3.1897 7.9276-2.3066 12.084 0.96895 4.4427 3.0772 7.7375 6.3223 9.8848 4.2997 2.715 8.6223 4.2015 12.965 4.459l0.23437 6e-3c0.97825-0.0335 2.3557-0.21252 4.1309-0.53711 2.219-0.40575 3.873-0.87562 4.9609-1.4102 1.9851-1.0118 3.712-2.3634 5.1816-4.0527 0.39128-0.4295 0.68632-0.82895 0.88672-1.2012 0.0239 0.25291 0.0484 0.50489 0.0723 0.75781 0.0905 1.1691 0.1334 1.8328 0.1289 1.9902-0.0382 0.21951-0.24197 0.67109-0.60937 1.3535-0.52965 0.83513-0.90768 1.3912-1.1367 1.668-0.32448 0.30542-0.94103 0.85429-1.8477 1.6465-0.41992 0.33406-1.1624 0.89421-2.2266 1.6816-1.0975 0.84948-1.8883 1.5028-2.375 1.9609-0.12884 0.0907-0.25898 0.26162-0.39258 0.50977-0.16701 0.31019-0.28475 0.52631-0.35156 0.65039-0.78732 1.0165-1.2175 1.6657-1.2891 1.9473-0.41986 1.3743-0.14049 3.0857 0.83789 5.1328 0.62519 1.2168 1.4936 2.2042 2.6055 2.9629 0.0907 0.12885 0.22989 0.24355 0.41601 0.34375l1.502 0.33008c-0.0287-0.0954-0.31533-0.52971-0.85937-1.3027-0.51542-0.6776-0.81449-1.1609-0.90039-1.4473-0.81137-2.3573-0.8112-3.9181 0-4.6816 0.41991-0.33406 1.6593-1.225 3.7207-2.6758s3.6592-2.7123 4.7949-3.7812l0.0508-0.0937c0.39128-0.4295 0.87165-1.17 1.4395-2.2246 0.67302-1.3982 1.0051-2.5391 1-3.4219-0.0478-1.5461-0.58028-3.1541-1.6016-4.8242-0.41997-0.70624-0.78552-1.1416-1.0957-1.3086-0.4629-0.32901-0.9043-0.32862-1.3242 6e-3 -0.31971 0.14795-0.53177 0.39469-0.63671 0.73828-0.0331 0.0621-0.036 0.14089-8e-3 0.23633-0.33883-0.26244-0.65118-0.35154-0.9375-0.26563-0.34835 0.0525-1.3715 0.5429-3.0703 1.4688-1.8276 1.0165-2.8836 1.5684-3.1699 1.6543-0.79691 0.29113-1.988 0.56862-3.5723 0.83594-1.8992 0.25778-3.4016 0.37123-4.5039 0.33789-1.0403 5e-5 -2.4045-0.21515-4.0938-0.64453-3.2259-0.69654-5.9202-2.3078-8.082-4.832-1.465-1.589-2.2-3.8647-2.2051-6.8281 0.0237-2.868 0.83208-5.6321 2.4258-8.2949 0.76345-1.2694 1.8829-2.3087 3.3574-3.1152 1.3791-0.77791 2.8139-1.2867 4.3027-1.5254 1.3314-0.24347 2.6382-0.22069 3.9219 0.0703 1.2503 0.35306 2.1791 0.93575 2.7852 1.7422 0.84946 1.0975 1.4895 2.2826 1.9238 3.5566 0.49637 1.3075 0.78495 2.262 0.86133 2.8633 0.10506 0.6967 0.15213 1.2007 0.14258 1.5156-0.0906 0.91145-0.15216 1.3989-0.18555 1.4609-0.30537 0.71582-0.78158 1.3005-1.4258 1.7539-1.8324 1.174-3.3256 1.5692-4.4805 1.1875-0.46766-0.17177-1.1568-0.8222-2.0684-1.9531l-0.23046-0.24414c-0.11934-0.22428-0.1921-0.38308-0.22071-0.47852-0.0621-0.0334-0.16955-0.13073-0.32226-0.29297l-0.22852-0.24414c-0.0334 0.062-0.0805 0.0764-0.14258 0.043-0.12881 0.0907-0.14324 0.56379-0.043 1.418 0.10026 0.85418 0.27224 1.4277 0.51563 1.7188 0.94015 1.2264 2.4446 1.9957 4.5156 2.3106s3.9575 0.01 5.6562-0.91602c0.4438-0.0811 0.82182-0.6372 1.1367-1.668 0.37693-0.99737 0.71093-2.1382 1.002-3.4219 0.25762-1.2216 0.19632-2.8172-0.18555-4.7832-0.31983-1.9326-0.97195-3.8428-1.9551-5.7324-1.0165-1.8276-2.742-3.1561-5.1758-3.9863-1.5032-0.45921-3.0067-0.68443-4.5117-0.67578v-2e-3zm-269.43 41.664c-3.2597 0.0273-6.4898 0.46655-9.6895 1.3164-4.3109 1.0787-7.521 2.1653-9.6309 3.2598-2.1098 1.0945-3.3709 1.9461-3.7812 2.5566-0.1089 0.0894-0.49699 0.72803-1.1641 1.9141-0.85962 1.6177-1.3501 2.7963-1.4726 3.5352-0.37747 2.3158 0.0527 5.0609 1.293 8.2363 0.78726 2.1798 1.8873 3.7384 3.2969 4.6777 0.27803 0.22752 0.67022 0.3161 1.1758 0.26562l1.248-0.47656c-1.4738-0.79544-2.3036-1.5284-2.4883-2.1973-0.6376-1.6645-0.99074-3.4263-1.0586-5.2852-0.11257-1.9133 0.0487-3.5491 0.48242-4.9082 0.13809-0.38693 0.46709-0.93091 0.98633-1.6309 0.46479-0.65521 1.247-1.4811 2.3457-2.4746 1.054-1.0479 2.3683-1.943 3.9434-2.6895 2.3626-1.1197 5.2043-1.7687 8.5254-1.9434 3.2764-0.22908 6.471 0.11113 9.5859 1.0176 3.601 1.0543 6.122 3.1782 7.5606 6.373 0.69205 1.6198 0.87171 3.1136 0.53711 4.4824-0.33459 1.3688-1.0241 2.2538-2.0644 2.6523-3.8443 1.4249-7.7779 1.4651-11.801 0.11914-0.0545 0.0448-0.10374 0.0388-0.14844-0.0156-1.8607-0.93354-2.862-1.4319-3.0059-1.4961-0.83409-0.68259-1.6403-1.6638-2.416-2.9414-0.67653-1.2679-1.0888-2.935-1.2363-5.002-0.035-0.15362-0.0193-0.30143 0.0449-0.44532 0.0195-0.19833 0.0351-0.34809 0.0449-0.44726 0.01-0.0992 0.0413-0.17016 0.0957-0.21485-0.0155-0.35195-0.13185-0.71452-0.3457-1.0859-0.21385-0.37144-0.47009-0.5724-0.76758-0.60157-0.2975-0.0292-0.79009 0.42221-1.4824 1.3555-0.73704 0.8788-1.1625 1.6396-1.2754 2.2793-0.20045 1.5322 0.0246 3.3058 0.67773 5.3223 0.66285 1.9173 1.5638 3.4582 2.7012 4.6211 1.3162 1.3807 3.1355 2.4859 5.457 3.3144 1.6819 0.71573 3.5423 1.1469 5.5801 1.2969 0.89249 0.0876 1.9153 0.11305 3.0703 0.0762 1.0558-0.0466 2.6737-0.46274 4.8535-1.25 2.1798-0.78725 4.0734-1.978 5.6816-3.5723 1.3262-1.2715 1.7968-3.2522 1.4102-5.9434-0.43137-2.7456-1.4193-5.1713-2.9648-7.2754-1.322-1.8318-2.9265-3.341-4.8125-4.5273-1.9307-1.2408-3.8385-1.9518-5.7226-2.1367-1.0933-0.0823-2.183-0.12046-3.2695-0.11133zm244.73 3.375-2e-3 2e-3c-0.8147-0.0289-1.7171 0.0693-2.7109 0.29687-2.7008 0.65593-5.0362 1.8411-7.0059 3.5547-1.7168 1.4683-3.0882 3.1907-4.1152 5.168-1.0776 2.0263-1.6329 3.9879-1.6621 5.8809 0.032 4.3852 0.78902 8.656 2.2695 12.814 1.4299 4.2075 2.7766 7.3175 4.041 9.3301s2.2191 3.198 2.8613 3.5566c0.0981 0.10117 0.76503 0.43477 2.002 1.002 1.683 0.72354 2.8981 1.1164 3.6445 1.1777 2.339 0.18556 5.041-0.47135 8.1035-1.9688 2.1076-0.96403 3.5705-2.1878 4.3906-3.6699 0.20388-0.29582 0.25991-0.69172 0.16797-1.1914l-0.58008-1.2051c-0.67141 1.5343-1.3329 2.4211-1.9844 2.6602-1.6064 0.77246-3.3327 1.2696-5.1797 1.4902-1.8976 0.2697-3.5414 0.24417-4.9316-0.0762-0.39698-0.10578-0.96674-0.3878-1.707-0.84766-0.69127-0.40928-1.5776-1.1216-2.6582-2.1348-1.1312-0.96415-2.1322-2.2007-3.0059-3.709-1.3104-2.2624-2.1893-5.0424-2.6367-8.3379-0.49803-3.2464-0.42428-6.4578 0.22266-9.6367 0.75427-3.6756 2.6649-6.3619 5.7305-8.0586 1.5573-0.82303 3.0321-1.1251 4.4238-0.9043 1.3918 0.22077 2.3278 0.83391 2.8105 1.8379 1.7365 3.714 2.102 7.63 1.0918 11.75 0.0489 0.0506 0.0464 0.10137-4e-3 0.15039-0.77718 1.9313-1.192 2.9705-1.2441 3.1191-0.61161 0.88746-1.523 1.7702-2.7324 2.6484-1.2078 0.7786-2.835 1.3273-4.8828 1.6445-0.15022 0.0476-0.29859 0.0447-0.44727-8e-3 -0.19926-3e-3 -0.34763-6e-3 -0.44726-8e-3 -0.0997-2e-3 -0.17559-0.0256-0.22461-0.0762-0.34946 0.0444-0.70019 0.18794-1.0527 0.43164-0.35266 0.2437-0.53065 0.51361-0.53515 0.8125-4e-3 0.29889 0.48752 0.75599 1.4746 1.3691 0.9365 0.66219 1.7282 1.0242 2.375 1.084 1.5435 0.0736 3.2922-0.29834 5.248-1.1152 1.8562-0.81843 3.3175-1.843 4.3828-3.0723 1.2677-1.4254 2.2169-3.329 2.8516-5.7109 0.57487-1.7351 0.85426-3.6248 0.83594-5.668 0.0138-0.89667-0.0439-1.9184-0.17578-3.0664-0.13331-1.0484-0.68441-2.6268-1.6484-4.7344-0.96404-2.1076-2.3061-3.8956-4.0274-5.3672-0.86022-0.76067-1.9684-1.1667-3.3262-1.2148zm-201.94 23.629c-0.77172-0.0144-1.5534 0.0303-2.3438 0.13086-4.5076 0.59785-7.9665 2.4243-10.375 5.4805-3.0617 4.0602-4.8996 8.2425-5.5156 12.549l-0.0273 0.23437c-0.0476 0.97766 0.0188 2.3642 0.19531 4.1602 0.22065 2.2449 0.55152 3.932 0.99414 5.0605 0.84396 2.062 2.0455 3.8955 3.6074 5.5 0.39564 0.42548 0.77063 0.75191 1.125 0.98243-0.25403 3e-3 -0.5077 9e-3 -0.76172 0.0117-1.1726-7e-3 -1.8356-0.0193-1.9922-0.0371-0.2156-0.0562-0.64917-0.29611-1.2988-0.71874-0.78842-0.59696-1.3115-1.0203-1.5684-1.2715-0.27752-0.34864-0.77386-1.0075-1.4883-1.9766-0.29816-0.44613-0.79555-1.2337-1.4922-2.3594-0.75571-1.1641-1.3415-2.0063-1.7578-2.5293-0.0797-0.13591-0.23837-0.28187-0.47461-0.43555-0.29529-0.19211-0.50101-0.32549-0.61914-0.40234-0.9478-0.86877-1.5593-1.3507-1.834-1.4453-1.3349-0.53219-3.0625-0.39539-5.1836 0.41016-1.2644 0.52232-2.3218 1.3043-3.1699 2.3496-0.1359 0.0797-0.25973 0.20954-0.375 0.38672l-0.45313 1.4707c0.0975-0.0207 0.55372-0.26987 1.3691-0.74805 0.71794-0.45756 1.2232-0.71737 1.5156-0.77929 2.4164-0.61343 3.9703-0.48491 4.6641 0.38672 0.29816 0.44613 1.0862 1.7572 2.3613 3.9316 1.2752 2.1744 2.3978 3.8715 3.3691 5.0918l0.0898 0.0586c0.39564 0.42549 1.0956 0.96402 2.0996 1.6172 1.3377 0.78621 2.446 1.213 3.3262 1.2812 1.5448 0.0804 3.1924-0.3197 4.9414-1.1992 0.73857-0.36007 1.2024-0.68518 1.3945-0.98047 0.36643-0.43406 0.39972-0.87614 0.10156-1.3223-0.12097-0.33086-0.34792-0.56225-0.68164-0.69531-0.059-0.0384-0.13689-0.048-0.23437-0.0273 0.28959-0.31593 0.4037-0.61967 0.3418-0.91211-0.0235-0.35151-0.42695-1.4121-1.209-3.1816-0.86176-1.9055-1.3229-3.0044-1.3848-3.2969-0.22414-0.81827-0.40381-2.0279-0.53906-3.6289-0.0997-1.914-0.0874-3.4179 0.0371-4.5137 0.0861-1.0367 0.41271-2.3794 0.98047-4.0273 0.9612-3.1572 2.7898-5.7108 5.4844-7.6562 1.7048-1.3285 4.0327-1.8713 6.9863-1.6309 2.8562 0.26105 5.5466 1.2949 8.0684 3.1035 0.85597 0.61672 1.5326 1.465 2.125 2.4219l0.61133-6.1172c-0.49736-0.43826-0.9559-0.92156-1.5039-1.3008-2.9942-2.2211-6.1618-3.3631-9.5058-3.4258zm164.88 7.6152c-0.22077 0.0299-0.31618 0.0753-0.28515 0.13868-0.0322 0.0943 0.12424 0.41095 0.4668 0.94921 0.2793 0.5693 0.43303 0.96475 0.46289 1.1856 0.47751 3.5328 0.42076 6.8576-0.16993 9.9727-0.2315 1.4477-0.62248 3.2096-1.1738 5.2852-0.55133 2.0755-0.98909 3.6613-1.3125 4.7617-0.35563 1.1947-0.96943 3.2231-1.8418 6.084-0.87238 2.8608-1.3398 4.3856-1.4043 4.5742l-0.0488 0.14062c-0.16111 0.47145-0.32402 1.0214-0.48632 1.6504-0.1623 0.62899-0.29201 1.0863-0.38868 1.3691-0.35325 0.87964-0.78412 1.7583-1.2949 2.6367-0.17624 0.30309-1.168 1.3578-2.0391 2.3008l0.42578 4.2598c0.43939-0.18588 0.88014-0.37349 1.4277-0.70117 1.234-0.68393 2.3767-1.6364 3.4258-2.8574 0.92255-1.1589 1.6376-2.1782 2.1484-3.0566 0.25659-0.59677 0.78745-1.9937 1.5918-4.1934 0.70888-2.0743 1.2096-3.6937 1.502-4.8574 1.5228-5.5343 2.4646-9.293 2.8262-11.275 0.0336-0.25183 0.052-0.6921 0.0566-1.3223 0.0358-0.56691 0.0701-0.97669 0.10351-1.2285 0.30308-2.5816 0.44001-3.9824 0.41016-4.2031 0.0787-2.0791-0.32634-4.667-1.2168-7.7617-0.46074-1.579-1.0981-2.7166-1.9121-3.416-0.12532-0.0955-0.33042-0.19239-0.61328-0.28906-0.25183-0.0334-0.47159-0.082-0.66016-0.14649zm-165 8.084c-0.85955 0.0292-1.4437 0.15263-1.7539 0.37109-1.3 0.8354-2.1925 2.2726-2.6777 4.3106-0.48521 2.0379-0.33673 3.9414 0.44531 5.7109 0.0441 0.44899 0.56524 0.87232 1.5664 1.2715 0.96273 0.4582 2.0729 0.88691 3.3281 1.2832 1.1961 0.35788 2.7903 0.42678 4.7812 0.20899 1.0248-0.0833 2.0502-0.26851 3.0781-0.53516l0.49218-4.9356c-0.9416 0.52496-1.9154 0.95665-2.9453 1.2148-1.3441 0.3864-2.3183 0.59278-2.9238 0.61914-0.70301 0.047-1.2104 0.0512-1.5234 0.0156-0.90083-0.16573-1.3804-0.26819-1.4395-0.30664-0.68808-0.36358-1.2324-0.88493-1.6309-1.5644-1.0183-1.9233-1.2904-3.4432-0.81445-4.5625 0.20989-0.45184 0.91665-1.0876 2.1191-1.9023l0.26172-0.20703c0.23337-0.10035 0.39861-0.16102 0.49609-0.18165 0.0385-0.059 0.14403-0.15617 0.31836-0.29492l0.26172-0.20898c-0.0591-0.0385-0.0696-0.0875-0.0312-0.14649-0.0797-0.13588-0.54865-0.18932-1.4082-0.16015zm87.938 40.922c-0.016 0.01-0.022 7e-3 -0.0391 0.0176-1.6028 0.944-2.7524 2.5146-3.4473 4.7109-0.0557 0.14738-0.20493 0.40977-0.44922 0.78906-0.24431 0.37929-0.40061 0.57288-0.4707 0.58008-0.11856 0.22468-0.20607 0.41121-0.26172 0.55859-0.50302 0.61838-1.1058 1.3175-1.8047 2.0977-0.0629 0.0773-0.16001 0.15768-0.29297 0.24219l-0.2832 0.34765-0.19922 0.12696c-0.11134 0.29476-0.10681 0.68458 0.0137 1.168 0.11334 0.41332 0.28314 0.67834 0.50782 0.79688 0.1546 0.12574 0.61771 0.14964 1.3887 0.0703 0.70088-0.0721 1.254-0.19937 1.6602-0.38281 0.67205-0.35245 1.7148-1.238 3.127-2.6582 0.55852-0.53787 0.80852-0.86509 1.2637-1.332l-0.71289-7.1328z"/>
  <path d="m202.03 46.906c-45.301 11.696-84.897 37.676-113.59 72.926l15.244 13.168c25.673-31.768 61.109-55.26 101.75-66.088-2.2134-5.8907-3.4336-12.262-3.4336-18.912 0-0.36666 0.02-0.7288 0.0273-1.0938zm107.95 0c7e-3 0.36495 0.0273 0.72709 0.0273 1.0938 0 6.6498-1.2183 13.022-3.4316 18.912 40.642 10.828 76.077 34.319 101.75 66.086l15.244-13.166c-28.692-35.25-68.288-61.23-113.59-72.926zm-252.11 123.15c-11.464 26.351-17.859 55.402-17.859 85.941 0 91.848 57.54 170.37 138.47 201.57l2.0859-20.873c-70.698-29.498-120.31-99.223-120.31-180.7 0-25.457 4.8945-49.741 13.709-72.037l-16.1-13.904zm396.28 0-16.1 13.904c8.8144 22.296 13.709 46.581 13.709 72.037 0 81.479-49.612 151.2-120.31 180.7l2.0879 20.873c80.932-31.204 138.47-109.73 138.47-201.57 0-30.539-6.3958-59.59-17.859-85.941zm-206.72 281.47-2.0195 20.199c3.5141 0.17043 7.0477 0.26758 10.604 0.26758s7.0894-0.0971 10.604-0.26758l-2.0195-20.199c-2.8485 0.12261-5.7049 0.2168-8.584 0.2168s-5.7355-0.0942-8.584-0.2168z"/>
  <path d="m256 0a48 48 0 0 0-48 48 48 48 0 0 0 48 48 48 48 0 0 0 48-48 48 48 0 0 0-48-48zm-199 108a23 23 0 0 0-22.998 23 23 23 0 0 0 7.9668 17.406l65.957 56.963a23 23 0 0 0 15.076 5.6309 23 23 0 0 0 12.797-3.9199l0.0137 0.0215 54.361-36.453 14.596 107.54-12.559 102.4 0.0352 4e-3a28 28 0 0 0-0.0449 0.625l-0.0606-6e-3 -10 100 0.0606 6e-3a28 28 0 0 0-0.19931 2.7792 28 28 0 0 0 28 28 28 28 0 0 0 27.801-25.221l0.0606 6e-3 9.9746-99.738 8.1641-66.574 8.166 66.582 9.9726 99.73 0.0606-6e-3a28 28 0 0 0 27.801 25.221 28 28 0 0 0 28-28 28 28 0 0 0-0.14062-2.7852h2e-3l-9.9961-99.959a28 28 0 0 0-0.082-0.66406h8e-3l-12.559-102.4 14.596-107.54 54.361 36.453 0.0137-0.0215a23 23 0 0 0 12.797 3.9199 23 23 0 0 0 15.076-5.6309l65.957-56.963a23 23 0 0 0 7.9668-17.406 23 23 0 0 0-23-23 23 23 0 0 0-15.033 5.5938l-0.0137 0.0117a23 23 0 0 0-0.0293 0.0254l-52.684 45.498-70.43-47.23v2e-3a23 23 0 0 0-12.812-3.9004h-96a23 23 0 0 0-12.797 3.9199l-0.0137-0.0215-70.432 47.23-52.725-45.535-0.0039 6e-3a23 23 0 0 0-15.027-5.5997z"/>
 </g>
</svg>
