<?xml version="1.0" encoding="UTF-8"?>
<!-- Created with Inkscape (http://www.inkscape.org/) -->
<svg width="512" height="512" version="1.1" viewBox="0 0 512 512" xml:space="preserve" xmlns="http://www.w3.org/2000/svg"><g><path d="m106 142a23 23 0 0 0-23 23 23 23 0 0 0 8.8262 18.049l-0.0625 0.08984 101.17 79.723 5.0176 95.461-78.049 45.486 0.02734 0.05469a28 28 0 0 0-13.928 24.137v56a28 28 0 0 0 28 28 28 28 0 0 0 28-28v-37.951l94-42.619 94 42.619v37.951a28 28 0 0 0 28 28 28 28 0 0 0 28-28v-56a28 28 0 0 0-13.904-24.186l0.00391-0.00586-78.049-45.486 5.0176-95.461 101.17-79.723-0.0625-0.08984a23 23 0 0 0 8.8262-18.049 23 23 0 0 0-23-23 23 23 0 0 0-12.811 3.9316l-81.557 48.375c-3.1535 27.884-26.932 49.693-55.633 49.693s-52.479-21.809-55.633-49.693l-81.271-48.205a23 23 0 0 0-13.096-4.1016z"/><circle cx="256" cy="188" r="48"/><path d="m60 74a28 28 0 0 0-28 28 28 28 0 0 0 28 28h392a28 28 0 0 0 28-28 28 28 0 0 0-28-28h-392z"/><path d="m106 16a23 23 0 0 0-23 23 23 23 0 0 0 23 23h300a23 23 0 0 0 23-23 23 23 0 0 0-23-23h-300z"/></g></svg>
