<svg width="100" height="100" version="1.1" viewBox="0 0 100 100" xmlns="http://www.w3.org/2000/svg">
 <path d="m19.758 0a4.6371 4.6371 0 0 0-4.6371 4.6371 4.6371 4.6371 0 0 0 4.6371 4.6371h60.484a4.6371 4.6371 0 0 0 4.6371-4.6371 4.6371 4.6371 0 0 0-4.6371-4.6371zm-9.2742 11.694a5.6452 5.6452 0 0 0-5.6452 5.6452 5.6452 5.6452 0 0 0 5.6452 5.6452h79.033a5.6452 5.6452 0 0 0 5.6452-5.6452 5.6452 5.6452 0 0 0-5.6452-5.6452zm39.516 13.306a9.6775 9.6774 0 0 0-9.6775 9.6774 9.6775 9.6774 0 0 0 9.6775 9.6774 9.6775 9.6774 0 0 0 9.6775-9.6774 9.6775 9.6774 0 0 0-9.6775-9.6774zm-30.242 0.40323a4.6371 4.6371 0 0 0-4.6371 4.6371 4.6371 4.6371 0 0 0 1.7795 3.6389l-0.0126 0.01811 20.397 16.073 1.0116 19.246-15.736 9.1706 0.0055 0.01103a5.6452 5.6452 0 0 0-2.808 4.8663v11.29a5.6452 5.6452 0 0 0 5.6452 5.6452 5.6452 5.6452 0 0 0 5.6452-5.6452v-7.6514l18.952-8.5926 18.952 8.5926v7.6514a5.6452 5.6452 0 0 0 5.6452 5.6452 5.6452 5.6452 0 0 0 5.6452-5.6452v-11.29a5.6452 5.6452 0 0 0-2.8033-4.8761l8.1e-4 -0.0012-15.736-9.1706 1.0116-19.246 20.397-16.073-0.0126-0.01811a4.6371 4.6371 0 0 0 1.7795-3.6389 4.6371 4.6371 0 0 0-4.6371-4.6371 4.6371 4.6371 0 0 0-2.5828 0.79267l-16.443 9.753c-0.63579 5.6218-5.4302 10.019-11.217 10.019-5.7865 0-10.58-4.3971-11.216-10.019l-16.385-9.7188a4.6371 4.6371 0 0 0-2.6407-0.82693z"/>
</svg>
