<?xml version="1.0" encoding="UTF-8"?>
<!-- Created with Inkscape (http://www.inkscape.org/) -->
<svg width="512" height="512" version="1.1" viewBox="0 0 512 512" xml:space="preserve" xmlns="http://www.w3.org/2000/svg"><path d="m208 108a23 23 0 0 0-14.896 5.4922l-0.00782-0.00977-67 57 0.00782 0.00977a23 23 0 0 0-8.1035 17.508 23 23 0 0 0 2.7227 10.736l-0.04883 0.02539 35.998 67.996 0.04882-0.02539a23 23 0 0 0 20.279 12.268 23 23 0 0 0 23-23 23 23 0 0 0-2.6738-10.762l-0.04101-0.08008a23 23 0 0 0-0.02149-0.03711l-27.299-51.566 20.902-17.781 13.9 102.41-12.559 102.4 0.03516 0.0039a28 28 0 0 0-0.04492 0.625l-0.06055-0.00586-10 100 0.06055 0.00586a28 28 0 0 0-0.19922 2.7793 28 28 0 0 0 28 28 28 28 0 0 0 27.801-25.221l0.06055 0.00586 9.9746-99.738 8.1641-66.574 8.166 66.582 9.9726 99.73 0.06055-0.00586a28 28 0 0 0 27.801 25.221 28 28 0 0 0 28-28 28 28 0 0 0-0.14062-2.7852h0.00195l-9.9961-99.959a28 28 0 0 0 0-0.00195 28 28 0 0 0 0-0.00196 28 28 0 0 0-0.08203-0.66015h0.00782l-12.559-102.4 5.1836-38.188h-56.416c-15.945 0-29-13.055-29-29 0-11.667 7.0035-21.761 17-26.352v-76.648h-36zm60 0v74h39.131l3.502 6h-54.633a23 23 0 0 0-23 23 23 23 0 0 0 23 23h94.684a23 23 0 0 0 23-23 23 23 0 0 0-3.1387-11.59l0.00391-0.00196-0.13672-0.23242-46.494-79.676-0.05274-0.0918-0.00585 0.00391a23 23 0 0 0-19.859-11.412h-36z"/><path d="m256.31 6.0039c-10.324-0.023604-21.663 1.8957-30.672 5.2676-5.0417 1.8871-8.9 3.8469-9.373 4.7617-0.26513 0.5128-0.29429 3.317-0.24219 22.574l0.0586 21.988 0.4668 2.2148c1.8696 8.8664 7.1349 18.174 14.613 25.838 5.939 6.0863 12.449 10.153 18.84 11.834v82.15c1.9378-0.41219 3.9443-0.63281 6-0.63281h6v-81.529c6.0392-1.5344 12.101-5.1769 17.854-10.777 8.3139-8.0937 13.987-17.987 15.76-27.488 0.35211-1.8869 0.375-3.3931 0.375-24.082 0-25.501 0.32965-22.393-2.5293-23.83-9.2317-4.6405-20.437-7.4278-32.797-8.1582-1.4236-0.08412-2.8787-0.12749-4.3535-0.13086zm-0.74609 4.2656c3.683-0.020657 7.3721 0.064933 9.2266 0.26562 6.038 0.65343 11.976 1.8761 17.008 3.502 2.9595 0.9563 7.0121 2.5309 8.8574 3.4414l1.3086 0.64453 0.05859 19.525c0.03787 12.58-0.01579 20.325-0.15234 21.773-0.61183 6.4879-3.8168 13.803-9.1465 20.885-1.9463 2.5859-6.0948 6.9874-8.375 8.8867-4.8904 4.0736-10.265 6.8398-14.846 7.6387-8.136 1.4188-17.041-2.4916-25.518-11.203-4.1153-4.2295-7.0399-8.243-9.5488-13.105-1.5769-3.0561-2.602-5.6972-3.5-9.0098l-0.62891-2.3145-0.05859-21.557-0.0586-21.555 1.8223-0.84766c7.1359-3.3155 15.164-5.4922 24.359-6.6035 1.8316-0.22137 5.5084-0.34653 9.1914-0.36719zm-16.627 18.422c-2.0103 0.060082-3.8895 1.1892-4.8965 3.0918-0.66863 1.2633-0.62454 3.5009 0.09766 4.8828 0.75382 1.4424 2.1322 2.5315 3.6797 2.9082 0.99166 0.24142 1.7769 0.20568 2.9102-0.13086 1.4586-0.43316 3.0248-1.9832 3.5254-3.4902 0.93561-2.8169-0.58693-6.0337-3.291-6.9551-0.67175-0.22889-1.3553-0.32667-2.0254-0.30664zm34.029 0.003906c-4.5235 0.017663-7.0978 5.4363-4.2344 8.9102 0.68495 0.83096 2.0907 1.73 3.0684 1.9629 1.921 0.45756 3.6229-0.046731 5.084-1.5078 0.83002-0.83003 1.1373-1.3207 1.4024-2.2324 1.0769-3.7043-1.4914-7.1478-5.3203-7.1328zm-16.947 36.43c-15.179 0-17.277 0.035631-17.5 0.30469-0.33596 0.40481-0.16108 2.0563 0.38086 3.5977 1.6767 4.7688 7.5404 9.2345 13.914 10.598 2.22 0.4748 4.0958 0.47925 6.3398 0.013672 5.8299-1.2096 11.387-5.0707 13.494-9.377 0.96778-1.9781 1.3856-4.3683 0.85743-4.8965-0.18411-0.18411-4.3411-0.24023-17.486-0.24023z" color="#000000" style="-inkscape-stroke:none"/></svg>
