<svg width="100" height="100" version="1.1" viewBox="0 0 100 100" xmlns="http://www.w3.org/2000/svg">
 <path d="m49.984 2.5039c-18.675-0.25348-36.669 11.767-43.752 29.02-7.3984 16.952-3.5557 38.009 9.3867 51.229 12.448 13.401 32.958 18.32 50.135 12.051 17.801-6.062 30.942-23.546 31.656-42.363 1.1983-18.491-9.6784-36.94-26.334-44.994-6.5219-3.2549-13.805-4.9518-21.092-4.9414zm0 5c18.137-0.29751 35.454 12.443 40.582 29.846 5.4125 16.718-0.8749 36.387-15.146 46.709-14.799 11.441-37.163 11.174-51.682-0.62109-14.317-10.875-20.044-31.291-13.668-48.062 5.8306-16.487 22.422-28.092 39.914-27.871zm0.005859 12.498c-11.794-0.16153-23.164 7.427-27.635 18.326-4.6694 10.708-2.2471 24.01 5.9277 32.361 7.8636 8.4648 20.82 11.564 31.67 7.6074 11.245-3.8258 19.542-14.871 19.99-26.756 0.74569-11.554-5.9582-23.095-16.305-28.254-4.203-2.1614-8.9233-3.2923-13.648-3.2852z"/>
</svg>
