<?xml version="1.0" encoding="UTF-8"?>
<!-- Created with Inkscape (http://www.inkscape.org/) -->
<svg width="512" height="512" version="1.1" viewBox="0 0 512 512" xml:space="preserve" xmlns="http://www.w3.org/2000/svg"><g><path d="m378.15 459.58a38.777 52.182 0 0 0-34.041 27.342 22.501 27.767 0 0 0-7.1309-1.4902 22.501 27.767 0 0 0-22.404 26.564h124.78a27.767 41.65 0 0 0-24.34-21.775 27.767 41.65 0 0 0-1.502 0.14648 38.777 52.182 0 0 0-35.361-30.787z" stroke-linecap="round" stroke-linejoin="round" stroke-width="12"/><path d="m349.91 304c-0.39885-0.26976-46.422 14.173-46.652 14.641-0.09727 0.19736 0.51143 3.387 1.3535 7.0879l1.5312 6.7285 8.8008-2.7559 8.7988-2.7559 11.977 52.363 11.977 52.365-9.3711 2.9766c-5.154 1.6374-9.7002 3.2287-10.104 3.5371-1.0316 0.78881-2.554 4.0308-2.6074 5.5508-0.02466 0.70184 1.5559 8.1453 3.5137 16.541 2.753 11.806 3.8447 15.774 5.2988 19.299 0.83032-0.08748 1.6706-0.14296 2.5254-0.14648a6.0006 6.0006 0 0 1 0.07226 0c1.2782 0.01 2.5426 0.20013 3.8008 0.41015 7.9735-15.783 21.715-26.229 37.311-26.262a6.0006 6.0006 0 0 1 0.01563 0c4.4302 0.00107 8.6974 0.85056 12.725 2.4062-0.60307-3.5697-1.5359-8.002-2.9199-14.176-1.8869-8.4169-3.6928-15.789-4.0137-16.383-0.69498-1.285-3.3969-3.1984-4.627-3.2773-0.48094-0.03085-5.0994 1.2546-10.262 2.8555l-9.3848 2.9102-23.957-104.73 17.594-5.5352-1.5449-6.7246c-0.85032-3.6983-1.6825-6.8166-1.8496-6.9297z" stroke-width=".38711"/><path transform="translate(-7.6597 11.49)" d="m393 90.361c-21.5 0-42.999 11.25-42.999 28.125 0 11.25 8.0625 16.875 8.0625 28.125 0 8.4376-2.6875 8.4376-2.6875 14.063 0 2.8122 8.6018 6.0004 16.125 8.4372v11.25h42.999v-11.25s16.227-5.242 16.125-8.4376c-0.16717-5.2401-2.6875-5.6251-2.6875-14.062 0-5.6251 8.1775-17.141 8.0622-28.125 0-16.875-21.5-28.125-42.999-28.125zm-16.125 33.75c5.937 0 10.75 5.0371 10.75 11.25s-4.813 11.25-10.75 11.25c-5.9365-1.9e-4 -10.749-5.0372-10.749-11.25 0-6.2131 4.8128-11.25 10.75-11.25zm32.25 0c5.9369 0 10.75 5.0371 10.75 11.25s-4.8131 11.25-10.75 11.25c-5.9369 0-10.75-5.0371-10.75-11.25s4.8131-11.25 10.75-11.25zm-16.125 19.688c2.6875 0 8.0625 11.25 8.0625 14.063 0 5.6247 0 5.6247-2.6875 5.6247h-10.75c-2.6875 0-2.6875 0-2.6875-5.6251 0-2.8125 5.375-14.062 8.0625-14.062z" color="#000000" style="-inkscape-stroke:none"/><path d="m342.32 167.43-38.92 19.814-21.781 55.287c2.187 0.72374 4.4703 1.1148 6.7734 1.1602 3.6235-0.0168 7.1918-0.88943 10.414-2.5469l0.0215 0.043 74.473-37.912-0.0234-0.043c2.5759-1.3503 4.8723-3.1768 6.7676-5.3828h-22.213v-13.104c-2.5434-0.89096-5.151-1.7208-7.4356-2.7949-1.7799-0.83685-3.4053-1.6973-4.9551-2.9258-1.5498-1.2285-3.7344-3.1015-3.7344-6.8633 0-1.8082 0.2708-3.3956 0.61328-4.7324z"/><path d="m211 112a35 35 0 0 0-32.061 21.061l-0.03711-0.01563s-24.213 31.675-37.66 65.648c-13.447 33.974-22.34 72.352-22.34 72.352l0.03711 0.01563a35 35 0 0 0-2.4102 8.9414l-0.16602-0.02734-13.648 94.088-36.984 100.25 0.068359 0.02539a28 28 0 0 0-1.7988 9.666 28 28 0 0 0 28 28 28 28 0 0 0 26.201-18.334l0.06836 0.02539 38-103-0.06836-0.02539a28 28 0 0 0 1.5098-5.6602h0.00195l5.543-38.326 25.143 39.873-17.885 92.109 0.0625 0.01172a28 28 0 0 0-0.57617 5.3262 28 28 0 0 0 28 28 28 28 0 0 0 27.424-22.674l0.0625 0.01172 20-103-0.0625-0.01172a28 28 0 0 0 0.57617-5.3262 28 28 0 0 0-4.166-14.682l0.00586-0.00391-53.898-87.498c3.7875-14.525 9.6357-34.313 17.496-51.734 3.7012-8.2031 8.0481-16.472 12.426-24.428l13.523 40.25 0.04297-0.01368a23 23 0 0 0 21.762 15.697 23 23 0 0 0 21.35-14.59l0.04882 0.01953 35.207-89.367-0.05079-0.01953a23 23 0 0 0 1.6504-8.4102 23 23 0 0 0-23-23 23 23 0 0 0-21.348 14.588l-0.05078-0.01953-12.01 30.484-10.785-32.346-0.01367 0.00391a35 35 0 0 0-33.189-23.932z"/><circle cx="280.68" cy="69.665" r="48"/></g></svg>
