<?xml version="1.0" encoding="UTF-8"?>
<!-- Created with Inkscape (http://www.inkscape.org/) -->
<svg width="512" height="512" version="1.1" viewBox="0 0 512 512" xml:space="preserve" xmlns="http://www.w3.org/2000/svg"><path transform="matrix(-1 0 0 1 459.02 125.84)" d="m126.96 58.085-19.733-6.6534a7.6085 7.6085 170.9 0 0-6.9919 1.1199l-16.668 12.483a1.9741 1.9741 26.901 0 1-3.1574-1.6019l0.23002-20.823a7.6085 7.6085 62.901 0 0-3.2257-6.3037l-17.023-11.994a1.9741 1.9741 98.901 0 1 0.54779-3.4979l19.875-6.2158a7.6085 7.6085 134.9 0 0 4.9984-5.0157l6.1468-19.896a1.9741 1.9741 170.9 0 1 3.496-0.55993l12.053 16.981a7.6085 7.6085 26.901 0 0 6.3148 3.2038l20.822-0.30227a1.9741 1.9741 62.901 0 1 1.6128 3.1518l-12.425 16.711a7.6085 7.6085 98.901 0 0-1.0956 6.9958l6.7218 19.709a1.9741 1.9741 134.9 0 1-2.4992 2.5079z"/><path transform="translate(30.745 129.72)" d="m126.96 58.085-19.733-6.6534a7.6085 7.6085 170.9 0 0-6.9919 1.1199l-16.668 12.483a1.9741 1.9741 26.901 0 1-3.1574-1.6019l0.23002-20.823a7.6085 7.6085 62.901 0 0-3.2257-6.3037l-17.023-11.994a1.9741 1.9741 98.901 0 1 0.54779-3.4979l19.875-6.2158a7.6085 7.6085 134.9 0 0 4.9984-5.0157l6.1468-19.896a1.9741 1.9741 170.9 0 1 3.496-0.55993l12.053 16.981a7.6085 7.6085 26.901 0 0 6.3148 3.2038l20.822-0.30227a1.9741 1.9741 62.901 0 1 1.6128 3.1518l-12.425 16.711a7.6085 7.6085 98.901 0 0-1.0956 6.9958l6.7218 19.709a1.9741 1.9741 134.9 0 1-2.4992 2.5079z"/><g fill="#070707" stroke-linecap="round" stroke-linejoin="round"><path d="m361.91 78.166c-17.219 0.06119-33.061 7.6152-41.887 20.115-5.2511-1.8653-10.835-2.8782-16.504-2.8809a4.0004 4.0004 0 0 0-2e-3 0c-24.089-6.08e-4 -44.216 17.16-44.215 38.949a4.0004 4.0004 0 0 0 0 6e-3c0.0209 12.372 6.7573 23.774 17.627 31.002-2.0536 3.7853-3.1936 7.8603-3.2637 12.01a4.0004 4.0004 0 0 0 0 0.0684c5e-4 10.551 6.6979 19.75 16.572 26.051s23.125 10.024 37.695 10.023a4.0004 4.0004 0 0 0 4e-3 0c6.4922-7e-3 12.879-0.87693 18.961-2.3789 10.142 7.6277 23.271 11.916 37.037 11.953a4.0004 4.0004 0 0 0 0.01 0c23.147-2e-3 43.866-11.672 51.596-29.754 17.31-6.7727 28.959-21.83 29.002-38.865a4.0004 4.0004 0 0 0 0-2e-3 4.0004 4.0004 0 0 0 0-2e-3 4.0004 4.0004 0 0 0 0-2e-3 4.0004 4.0004 0 0 0 0-2e-3 4.0004 4.0004 0 0 0 0-2e-3c-9e-5 -23.925-22.285-42.778-49.002-42.777a4.0004 4.0004 0 0 0-0.043 0c-1.8488 0.0196-3.6691 0.32225-5.502 0.52344-3.9926-19.757-24.318-34.029-48.071-34.035a4.0004 4.0004 0 0 0-0.0156 0zm0.0137 8h6e-3c21.961 0.0077 39.484 13.852 40.891 30.676a4.0004 4.0004 0 0 0 4.7012 3.6035c2.6428-0.48038 5.3385-0.73583 8.043-0.76562 22.978 0.0107 40.976 15.872 40.979 34.771v4e-3c-0.0397 13.834-9.7612 26.547-25.264 32.023a4.0004 4.0004 0 0 0-2.416 2.375c-5.6262 15.111-23.809 26.224-44.906 26.23-12.8-0.0347-25.008-4.196-33.705-11.289a4.0004 4.0004 0 0 0-3.5879-0.75781c-5.883 1.6165-12.271 2.4649-18.73 2.4727-13.191 8e-5 -25.074-3.4596-33.393-8.7676-8.305-5.2992-12.854-12.121-12.869-19.271 0.0696-3.7073 1.3607-7.4153 4.0215-11.01a4.0004 4.0004 0 0 0-1.332-5.9082c-10.758-5.7389-17.038-15.666-17.059-26.203v-4e-3c0-1e-3 1e-5 -3e-3 0-4e-3 4e-3 -16.81 15.885-30.941 36.213-30.941 5.7137 3e-3 11.347 1.1668 16.416 3.377a4.0004 4.0004 0 0 0 5.0508-1.6484c6.5875-11.272 20.943-18.902 36.941-18.963z" color="#000000" style="-inkscape-stroke:none"/><path d="m323.5 219.59c-10.297 0-19.617 6.8015-19.617 16.447 0 9.6458 9.3201 16.447 19.617 16.447 10.297 0 19.619-6.8015 19.619-16.447 0-9.6458-9.3221-16.447-19.619-16.447zm0 8.6738c6.5823 0 10.945 4.0425 10.945 7.7734s-4.363 7.7734-10.945 7.7734-10.943-4.0424-10.943-7.7734 4.361-7.7734 10.943-7.7734z" color="#000000" style="-inkscape-stroke:none"/><path d="m349.7 251.95c-8.1809 0-15.576 5.6728-15.576 13.574 0 7.9014 7.3952 13.574 15.576 13.574s15.574-5.6728 15.574-13.574c0-7.9014-7.3933-13.574-15.574-13.574zm0 8c4.6046 0 7.5742 2.8997 7.5742 5.5742s-2.9696 5.5742-7.5742 5.5742c-4.6046 0-7.5762-2.8997-7.5762-5.5742s2.9716-5.5742 7.5762-5.5742z" color="#000000" style="-inkscape-stroke:none"/><path d="m62.746 94.443c-8.7892 0-16 7.2108-16 16v96c0 8.7892 7.2108 16 16 16h80.867l-5.8144 26.42a4.0004 4.0004 0 0 0 6.791 3.6309l28.85-30.051h25.307c8.7892 0 16-7.2108 16-16v-96c0-8.7892-7.2108-16-16-16zm0 8h136c4.4657 0 8 3.5344 8 8v96c0 4.4656-3.5343 8-8 8h-27.012a4.0004 4.0004 0 0 0-2.8867 1.2305l-20.18 21.02 3.8262-17.389a4.0004 4.0004 0 0 0-3.9062-4.8613h-85.842c-4.4657 0-8-3.5344-8-8v-96c-1e-6 -4.4656 3.5343-8 8-8z" color="#000000" style="-inkscape-stroke:none"/></g><g><path d="m449.58 351.21a35 35 0 0 0-33.543 25.584l-0.15625-0.03906-27.953 96.469-0.02344 0.07812 0.00586 0.00195a23 23 0 0 0-0.91406 6.4004 23 23 0 0 0 23 23 23 23 0 0 0 22.072-16.537h0.00195l7.0918-24.221c3.0913 20.868 2.8242 48.488 2.8242 48.488a35 35 0 0 0 0.17579 1.5606h69.648a35 35 0 0 0 0.17578-1.5606s0.00916-0.37479 0.00977-0.39062v-29.49c-0.38057-13.317-1.3677-28.645-3.8301-41-5.5168-27.68-26.742-67.869-26.742-67.869-0.00356 6.8e-4 -0.00619 0.00128-0.00976 0.00196a35 35 0 0 0-31.834-20.477z"/><circle cx="410" cy="301.44" r="48"/><path d="m52 351.21a35 35 0 0 0-32.537 22.338l-0.080079-0.03125s-19.906 40.055-19.383 69.584c0.52322 29.529-2.9606e-16 67.334 0 67.334a35 35 0 0 0 0.17578 1.5606h69.648a35 35 0 0 0 0.17578-1.5606s0.56461-41.294 0-56.896c-0.27272-7.5364 3.1599-20.569 6.7715-32.057l24.355 20.707 0.00782-0.00977a23 23 0 0 0 14.893 5.4902 23 23 0 0 0 2.252-0.16016l0.00586 0.05078 68.293-6.7363-0.00585-0.05078a23 23 0 0 0 20.748-22.84 23 23 0 0 0-23-23 23 23 0 0 0-2.252 0.16211l-0.00586-0.05078-58.576 5.7773-47.781-40.625-0.13867 0.16406a35 35 0 0 0-23.566-9.1504z"/><circle cx="100" cy="301.44" r="48"/></g></svg>
