<svg width="100" height="100" version="1.1" viewBox="0 0 100 100" xmlns="http://www.w3.org/2000/svg">
 <path d="m70.686 15.268c-3.3629 0.01206-6.4568 1.4875-8.1805 3.9287-1.0256-0.36431-2.1162-0.56214-3.2234-0.56266a0.78132 0.78132 0 0 0-3.9e-4 0c-4.7048-1.19e-4 -8.6358 3.3516-8.6356 7.6072a0.78132 0.78132 0 0 0 0 0.0011c0.0041 2.4164 1.3198 4.6433 3.4427 6.055-0.40109 0.73931-0.62374 1.5352-0.63743 2.3456a0.78132 0.78132 0 0 0 0 0.01335c9.7e-5 2.0607 1.3078 3.8574 3.2363 5.088 1.9285 1.2307 4.5166 1.9579 7.3623 1.9577a0.78132 0.78132 0 0 0 7.83e-4 0c1.268-0.0014 2.5154-0.17127 3.7033-0.46463 1.9808 1.4898 4.5451 2.3274 7.2337 2.3346a0.78132 0.78132 0 0 0 0.0019 0c4.5208-3.91e-4 8.5678-2.2797 10.078-5.8113 3.3808-1.3228 5.656-4.2637 5.6644-7.5908a0.78132 0.78132 0 0 0 0-3.9e-4 0.78132 0.78132 0 0 0 0-3.91e-4 0.78132 0.78132 0 0 0 0-3.91e-4 0.78132 0.78132 0 0 0 0-3.9e-4 0.78132 0.78132 0 0 0 0-3.91e-4c-1.7e-5 -4.6728-4.3525-8.3551-9.5706-8.3549a0.78132 0.78132 0 0 0-0.0084 0c-0.36109 0.0038-0.7166 0.06294-1.0746 0.10223-0.77979-3.8588-4.7498-6.6463-9.389-6.6475a0.78132 0.78132 0 0 0-0.0027 0zm0.0031 1.5625h0.0012c4.2892 0.0015 7.7116 2.7054 7.9864 5.9913a0.78132 0.78132 0 0 0 0.91819 0.70381c0.51616-0.09382 1.0426-0.14372 1.5709-0.14954 4.4878 0.0021 8.0029 3.1001 8.0035 6.7913v7.62e-4c-0.0078 2.7019-1.9064 5.185-4.9343 6.2545a0.78132 0.78132 0 0 0-0.47187 0.46386c-1.0988 2.9513-4.6502 5.1216-8.7706 5.1227-2.5-0.0068-4.8843-0.81954-6.5829-2.2049a0.78132 0.78132 0 0 0-0.70075-0.14801c-1.149 0.31572-2.3964 0.48141-3.6579 0.48294-2.5763 1.5e-5 -4.8971-0.6757-6.5219-1.7124-1.622-1.035-2.5105-2.3671-2.5135-3.7636 0.01359-0.72407 0.26576-1.4482 0.78544-2.1503a0.78132 0.78132 0 0 0-0.26016-1.1539c-2.1011-1.1209-3.328-3.0598-3.3321-5.1178v-7.63e-4c0-1.96e-4 2e-6 -5.69e-4 0-7.64e-4 7.81e-4 -3.2832 3.1025-6.0432 7.0727-6.0432 1.1159 5.86e-4 2.2162 0.22788 3.2062 0.65956a0.78132 0.78132 0 0 0 0.98647-0.32196c1.2866-2.2015 4.0905-3.6918 7.215-3.7037zm-58.432 1.6167c-1.7166 0-3.125 1.4084-3.125 3.125v18.75c0 1.7166 1.4083 3.125 3.125 3.125h15.794l-1.1356 5.1601a0.78132 0.78132 0 0 0 1.3264 0.70915l5.6346-5.8693h4.9426c1.7166 0 3.125-1.4084 3.125-3.125v-18.75c0-1.7166-1.4083-3.125-3.125-3.125zm0 1.5625h26.562c0.8722 0 1.5625 0.69031 1.5625 1.5625v18.75c0 0.87218-0.69028 1.5625-1.5625 1.5625h-5.2757a0.78132 0.78132 0 0 0-0.5638 0.24032l-3.9413 4.1054 0.74729-3.3962a0.78132 0.78132 0 0 0-0.76293-0.94947h-16.766c-0.87219 0-1.5625-0.69031-1.5625-1.5625v-18.75c0-0.87218 0.69029-1.5625 1.5625-1.5625zm59.128 2.2884a0.38556 0.38556 0 0 0-0.37536 0.15755l-2.354 3.3165a1.486 1.486 0 0 1-1.2333 0.62599l-4.0668-0.05913a0.38556 0.38556 0 0 0-0.31509 0.61531l2.4269 3.2638a1.486 1.486 0 0 1 0.214 1.3664l-1.313 3.8494a0.38556 0.38556 0 0 0 0.48828 0.4898v3.9e-4l3.8539-1.2997a1.486 1.486 0 0 1 1.3656 0.21858l3.2554 2.4383a0.38556 0.38556 0 0 0 0.61645-0.3128l-0.04463-4.0672a1.486 1.486 0 0 1 0.6298-1.231l3.3248-2.3426a0.38556 0.38556 0 0 0-0.10681-0.68321l-3.8818-1.2142a1.486 1.486 0 0 1-0.97655-0.97961l-1.2005-3.8856a0.38556 0.38556 0 0 0-0.30746-0.26703zm-47.111 0.75759a0.38556 0.38556 0 0 0-0.30746 0.26703l-1.2005 3.886a1.486 1.486 0 0 1-0.97617 0.97961l-3.8818 1.2138a0.38556 0.38556 0 0 0-0.10681 0.68321l3.3245 2.3426a1.486 1.486 0 0 1 0.63018 1.2314l-0.04501 4.0668a0.38556 0.38556 0 0 0 0.61683 0.3128l3.2554-2.438a1.486 1.486 0 0 1 1.3656-0.21858l3.8539 1.2993a0.38556 0.38556 0 0 0 0.4879-0.4898l-1.3126-3.8494a1.486 1.486 0 0 1 0.214-1.3664l2.4265-3.2638a0.38556 0.38556 0 0 0-0.31471-0.61569l-4.0668 0.05913a1.486 1.486 0 0 1-1.2333-0.62561l-2.3544-3.3169a0.38556 0.38556 0 0 0-0.37536-0.15755zm38.91 19.834c-2.0111 0-3.8314 1.3285-3.8314 3.2123 0 1.8839 1.8204 3.2123 3.8314 3.2123 2.0111 0 3.8318-1.3285 3.8318-3.2123 0-1.8839-1.8207-3.2123-3.8318-3.2123zm0 1.6941c1.2856 0 2.1377 0.78956 2.1377 1.5182 0 0.72869-0.8522 1.5182-2.1377 1.5182-1.2855 0-2.1373-0.78953-2.1373-1.5182 0-0.72871 0.85182-1.5182 2.1373-1.5182zm5.117 4.6261c-1.5978 0-3.0422 1.108-3.0422 2.6512 0 1.5432 1.4444 2.6512 3.0422 2.6512s3.0418-1.108 3.0418-2.6512c0-1.5432-1.444-2.6512-3.0418-2.6512zm-48.769 0.29106a9.3749 9.3749 0 0 0-9.3749 9.3749 9.3749 9.3749 0 0 0 9.3749 9.3749 9.3749 9.3749 0 0 0 9.3749-9.3749 9.3749 9.3749 0 0 0-9.3749-9.3749zm60.546 0a9.3749 9.3749 0 0 0-9.3749 9.3749 9.3749 9.3749 0 0 0 9.3749 9.3749 9.3749 9.3749 0 0 0 9.3749-9.3749 9.3749 9.3749 0 0 0-9.3749-9.3749zm-11.777 1.2714c0.89932 0 1.4793 0.56635 1.4793 1.0887 0 0.52236-0.58 1.0887-1.4793 1.0887-0.89933 0-1.4797-0.56635-1.4797-1.0887 0-0.52236 0.58038-1.0887 1.4797-1.0887zm19.508 17.824v3.9e-4a6.8359 6.8359 0 0 0-6.5513 4.9968l-0.03052-0.0076-5.4595 18.841-0.0046 0.01525 0.0012 3.91e-4a4.4921 4.4922 0 0 0-0.17853 1.2501 4.4921 4.4922 0 0 0 4.4921 4.4922 4.4921 4.4922 0 0 0 4.3109-3.2299h3.9e-4l1.3851-4.7306c0.60376 4.0757 0.5516 9.4699 0.5516 9.4699a6.8359 6.8359 0 0 0 0.03433 0.30479h13.603a6.8359 6.8359 0 0 0 0.03433-0.30479s0.0018-0.0732 0.0019-0.07629v-5.7594c-0.07433-2.601-0.26712-5.5947-0.74805-8.0078-1.0775-5.4062-5.223-13.256-5.223-13.256-7.03e-4 1.33e-4 -0.0012 1.96e-4 -0.0019 3.91e-4a6.8359 6.8359 0 0 0-6.2175-3.9997zm-77.651 3.82e-4a6.8359 6.8359 0 0 0-6.3548 4.3628l-0.01564-0.0061s-3.8878 7.8232-3.7857 13.591c0.10219 5.7673 0 13.151 0 13.151a6.8359 6.8359 0 0 0 0.034331 0.3048h13.603a6.8359 6.8359 0 0 0 0.03433-0.3048s0.11027-8.0653 0-11.113c-0.05327-1.4719 0.61716-4.0173 1.3225-6.261l4.7569 4.0443 0.0016-2e-3a4.4921 4.4922 0 0 0 2.9087 1.0723 4.4921 4.4922 0 0 0 0.43983-0.03128l0.0012 0.0099 13.338-1.3157-0.0012-0.0099a4.4921 4.4922 0 0 0 4.0523-4.4609 4.4921 4.4922 0 0 0-4.4921-4.4922 4.4921 4.4922 0 0 0-0.43983 0.03166l-0.0012-0.0099-11.441 1.1284-9.3322-7.9345-0.02708 0.03204a6.8359 6.8359 0 0 0-4.6028-1.7871z"/>
</svg>
