<svg width="100" height="100" version="1.1" viewBox="0 0 100 100" xmlns="http://www.w3.org/2000/svg">
 <path d="m54.687 1.562a9.375 9.375 0 0 0-9.375 9.375 9.375 9.375 0 0 0 9.375 9.375 9.375 9.375 0 0 0 9.375-9.375 9.375 9.375 0 0 0-9.375-9.375zm-41.787 15.625a4.5019 4.4922 0 0 0-4.5021 4.4922 4.5019 4.4922 0 0 0 0.03014 0.42l-0.0103 7.81e-4 1.5285 16.207 0.0103-0.0012a4.4922 4.4922 0 0 0 4.462 4.0718 4.4922 4.4922 0 0 0 3.088-1.2478c-3.4476 4.7789-6.8447 9.76-6.8447 9.76l0.01335 0.0095a6.8359 6.836 0 0 0-1.3008 3.9837 6.8359 6.836 0 0 0 0.49553 2.4475l-0.037 0.01373 6.1596 15.96-0.50545 20.437a5.4687 5.4688 0 0 0-0.05798 0.78927 5.4687 5.4688 0 0 0 0.02861 0.40092l-0.0031 0.12703 0.01221-3.9e-4a5.4687 5.4688 0 0 0 5.431 4.9413 5.4687 5.4688 0 0 0 5.4588-5.3299l8e-3 -4e-4 0.54817-21.656a5.4687 5.4688 0 0 0 0.03967-0.55236 5.4687 5.4688 0 0 0-0.01564-0.39177l3.91e-4 -0.01488h-0.0016a5.4687 5.4688 0 0 0-0.11635-0.78469l0.0016-3.9e-4 -3.3684-15.088c1.9902-3.1701 5.5965-8.7951 8.1131-11.965 3.9633-4.9922 13.072-13.957 13.072-13.957l-0.01029-0.0095a6.8359 6.836 0 0 0 1.8566-4.6635 6.8359 6.836 0 0 0-5.5641-6.7124l7.81e-4 -0.0042-0.03014-0.0019a6.8359 6.836 0 0 0-1.2421-0.11749 6.8359 6.836 0 0 0-0.25482 0.02746l-26.221-1.582-3.91e-4 0.0012a4.5019 4.4922 0 0 0-0.27122-0.0092zm5.0606 10.283 8.8093 2.0882c-1.7652 1.9875-3.4908 3.9757-4.7382 5.5321-1.048 1.3075-2.3137 2.9963-3.6137 4.7779a4.4922 4.4922 0 0 0 0.49286-1.9829 4.4922 4.4922 0 0 0-0.0206-0.42381h3.91e-4l-0.0015-0.01641zm50.789 12.764a9.375 9.375 0 0 0-9.375 9.375 9.375 9.375 0 0 0 9.375 9.375 9.375 9.375 0 0 0 9.375-9.375 9.375 9.375 0 0 0-9.375-9.375zm-15.82 14.063a6.8359 6.836 0 0 0-6.4422 4.5971l-0.01488-0.0053s-5.1631 10.555-7.0717 16.095c-1.7854 5.1828-4.0611 15.936-4.0611 15.936l0.01488 0.0053a6.8359 6.836 0 0 0-0.39367 2.2389 6.8359 6.836 0 0 0 6.8359 6.836 6.8359 6.836 0 0 0 3.2371-0.86365l0.02213 0.0366 0.5207-0.34561a6.8359 6.836 0 0 0 0.25215-0.16708l22.365-14.841 14.003 14.51 0.01-9e-3a5.4687 5.4688 0 0 0 3.9253 1.68 5.4687 5.4688 0 0 0 5.4687-5.4688 5.4687 5.4688 0 0 0-1.2455-3.4744l-7.8e-4 -7.81e-4a5.4687 5.4688 0 0 0-0.59167-0.61302l-16.885-17.484-1e-3 0.0012a5.4687 5.4688 0 0 0-3.9325-1.6709 5.4687 5.4688 0 0 0-2.6207 0.68474l-7e-3 -0.01182-13.446 7.3681c0.01895-0.05512 0.03996-0.12368 0.05875-0.17776 0.96539-2.7795 2.5641-6.6692 3.9272-9.8938l7.1167 1.9024 0.0042-0.0092a4.4922 4.4922 0 0 0 0.68931 0.11062l-7.81e-4 0.01106 0.13466-0.0016a4.4922 4.4922 0 0 0 0.23766 0.01717 4.4922 4.4922 0 0 0 0.317-0.0225l16.87-0.17277 0.0458-3.91e-4v-3e-3a4.4922 4.4922 0 0 0 4.4468-4.4888 4.4922 4.4922 0 0 0-4.4922-4.4922 4.4922 4.4922 0 0 0-0.0534 0.0038v-0.0034l-15.723 0.18654-9.4452-6.6517-0.0012 0.0023a6.8359 6.836 0 0 0-4.075-1.3498z"/>
</svg>
