<?xml version="1.0" encoding="UTF-8"?>
<!-- Created with Inkscape (http://www.inkscape.org/) -->
<svg width="512" height="512" version="1.1" viewBox="0 0 512 512" xml:space="preserve" xmlns="http://www.w3.org/2000/svg"><g><path d="m271 278a35 35 0 0 0-32.984 23.537l-0.0762-0.0273s-26.435 54.041-36.207 82.408c-9.1413 26.536-20.793 81.592-20.793 81.592l0.0762 0.0273a35 35 0 0 0-2.0156 11.463 35 35 0 0 0 35 35 35 35 0 0 0 16.574-4.4219l0.11328 0.1875 2.666-1.7695a35 35 0 0 0 1.291-0.85547l114.51-75.986 71.697 74.289 0.0508-0.0449a28 28 0 0 0 20.098 8.6015 28 28 0 0 0 28-28 28 28 0 0 0-6.377-17.789l-4e-3 -4e-3a28 28 0 0 0-3.0293-3.1387l-86.449-89.52-6e-3 6e-3a28 28 0 0 0-20.135-8.5547 28 28 0 0 0-13.418 3.5059l-0.0371-0.0605-68.846 37.725c0.097-0.28221 0.20461-0.63325 0.30078-0.91015 4.9428-14.231 13.128-34.146 20.107-50.656l36.439 9.7402 0.0215-0.0469a23 23 0 0 0 3.5293 0.5664l-4e-3 0.0566 0.68945-8e-3a23 23 0 0 0 1.2169 0.0881 23 23 0 0 0 1.623-0.11523l86.377-0.88477 0.23438-2e-3v-0.0156a23 23 0 0 0 22.766-22.982 23 23 0 0 0-23-23 23 23 0 0 0-0.27344 0.0195v-0.0176l-80.5 0.95508-48.359-34.057-6e-3 0.0117a35 35 0 0 0-20.861-6.912z"/><circle cx="352" cy="254" r="48"/><path d="m66.051 88a23.05 23 0 0 0-23.051 23 23.05 23 0 0 0 0.1543 2.1504l-0.05273 4e-3 7.8262 82.979 0.05273-6e-3a23 23 0 0 0 22.846 20.848 23 23 0 0 0 15.811-6.3887c-17.652 24.468-35.045 49.969-35.045 49.969l0.06836 0.0488a35 35 0 0 0-6.6602 20.397 35 35 0 0 0 2.5371 12.531l-0.18945 0.0703 31.537 81.717-2.5879 104.64a28 28 0 0 0-0.29688 4.041 28 28 0 0 0 0.14648 2.0527l-0.01563 0.65039 0.0625-2e-3a28 28 0 0 0 27.807 25.299 28 28 0 0 0 27.949-27.289l0.041-2e-3 2.8066-110.88a28 28 0 0 0 0.20313-2.8281 28 28 0 0 0-0.0801-2.0059l2e-3 -0.0762h-8e-3a28 28 0 0 0-0.5957-4.0176l8e-3 -2e-3 -17.246-77.252c10.19-16.231 28.654-45.031 41.539-61.262 20.292-25.56 66.928-71.459 66.928-71.459l-0.0527-0.0488a35 35 0 0 0 9.5058-23.877 35 35 0 0 0-28.49-34.367l4e-3 -0.02148-0.15429-0.0098a35 35 0 0 0-6.3595-0.60153 35 35 0 0 0-1.3047 0.14062l-134.25-8.0996-2e-3 0.0059a23.05 23 0 0 0-1.3886-0.046916zm25.91 52.648 45.104 10.691c-9.038 10.176-17.873 20.357-24.26 28.326-5.3656 6.6946-11.846 15.339-18.502 24.461a23 23 0 0 0 2.5234-10.152 23 23 0 0 0-0.10547-2.1699h2e-3l-0.0078-0.084z"/><circle cx="280" cy="56" r="48"/></g></svg>
