<svg width="100" height="100" version="1.1" viewBox="0 0 100 100" xmlns="http://www.w3.org/2000/svg">
 <path d="m68.244 2.539a9.375 9.375 0 0 0-9.375 9.375 9.375 9.375 0 0 0 9.375 9.375 9.375 9.375 0 0 0 9.375-9.375 9.375 9.375 0 0 0-9.375-9.375zm-15.43 15.43a6.8359 6.836 0 0 0-5.5965 2.9343l-20.348 24.305a6.8359 6.836 0 0 0-1.936 4.3114l-0.03166-0.0042-1.5759 22.174-13.852 19.696 0.0095 6e-3a5.4688 5.4688 0 0 0-1.0052 3.1395 5.4688 5.4688 0 0 0 5.4688 5.4688 5.4688 5.4688 0 0 0 4.4544-2.3171l0.0099 7e-3 14.648-20.703-0.0095-0.0072a5.4688 5.4688 0 0 0 0.90637-2.1347l0.01184 2e-3 2.0161-10.637 9.618 9.9102 3.373 21.269 5e-3 -7.9e-4a5.4688 5.4688 0 0 0 5.3963 4.6127 5.4688 5.4688 0 0 0 5.4688-5.4688 5.4688 5.4688 0 0 0-0.0706-0.86899l1e-3 -3.9e-4 -3.6453-22.333a5.4688 5.4688 0 0 0-1.5947-3.7084l-14.029-17.518 10.69-12.737 4.3934 9.2827 0.0038-0.0012a4.4922 4.4922 0 0 0 2.8797 2.409l-1e-3 0.0053 14.265 3.8765-1.1215 1.8395 2e-3 7.82e-4a1.1719 1.1719 0 0 0-0.1728 0.60921 1.1719 1.1719 0 0 0 1.1719 1.1719 1.1719 1.1719 0 0 0 0.99945-0.56267l1e-3 7.81e-4 1.4755-2.4197 1.3489 0.36659 2e-3 -0.0053a4.4922 4.4922 0 0 0 1.1764 0.16251 4.4922 4.4922 0 0 0 4.4922-4.4922 4.4922 4.4922 0 0 0-2.2858-3.7945l1.2894-2.1149-2.0012-1.2203-1.5087 2.4746-14.15-3.8033-3.8986-17.466a6.8359 6.836 0 0 0-6.7418-5.7163zm31.285 10.878c-4.0897 0-7.4219 3.3322-7.4219 7.4219 0 4.0897 3.3322 7.4219 7.4219 7.4219 4.0897 0 7.4219-3.3322 7.4219-7.4219 0-4.0897-3.3322-7.4219-7.4219-7.4219zm0 1.5625c3.2453 0 5.8594 2.6141 5.8594 5.8594 0 3.2453-2.6141 5.8594-5.8594 5.8594-3.2453 0-5.8594-2.6141-5.8594-5.8594 0-3.2453 2.6141-5.8594 5.8594-5.8594z"/>
</svg>
