<?xml version="1.0" encoding="UTF-8"?>
<!-- Created with Inkscape (http://www.inkscape.org/) -->
<svg width="512" height="512" version="1.1" viewBox="0 0 512 512" xml:space="preserve" xmlns="http://www.w3.org/2000/svg"><g><path d="m273.06 361.76c-2.6698 3.3583-6.0186 6.1948-9.8926 8.2852l0.13671 0.3457-51.895 20.086-15.018 88.859 0.041 8e-3a28 28 0 0 0-0.43162 4.658 28 28 0 0 0 28 28 28 28 0 0 0 27.568-23.342l0.041 8e-3z"/><g stroke-linecap="round"><path d="m328.75 285.33c-3.6102 1.5779-7.5656 2.4855-11.715 2.6192l40.527 205.53a6 6 0 0 0 7.0469 4.7266 6 6 0 0 0 4.7266-7.0469z" color="#000000" style="-inkscape-stroke:none"/><path d="m351.15 148.81c-0.39867-0.00289-0.8026 0.0332-1.209 0.11328l-16.887 3.3301 1.752 11.885 17.455-3.4414c3.2511-0.64076 5.3673-3.7957 4.7266-7.0469-0.56067-2.8447-3.0472-4.8196-5.8379-4.8398z" color="#000000" style="-inkscape-stroke:none"/><path d="m260.84 166.5-15.256 3.0078c-3.2503 0.64168-5.3654 3.7964-4.7246 7.0469 0.64076 3.2511 3.7957 5.3673 7.0469 4.7266l15.824-3.1211-2.8906-11.66z" color="#000000" style="-inkscape-stroke:none"/></g><path d="m288 79a35 35 0 0 0-22.033 7.8477l-0.02149-0.023437s-38.744 30.772-54.006 57.584c-15.262 26.812-26.225 80.551-26.225 80.551l0.01954 0.00391a35 35 0 0 0-0.73438 7.0371 35 35 0 0 0 0.75 6.6621 35 35 0 0 0 0.60352 2.4883 35 35 0 0 0 0.375 1.5449l-0.05079 0.01367 26.584 82.713-50.211 19.438c-0.79734-2.0601-3.1136-3.084-5.1738-2.2871l-45.428 17.586c-0.0541 0.0493-0.10687 0.10013-0.1582 0.15235-12.189 4.7964-20.256 16.567-20.291 29.68-4e-6 3e-3 -4e-6 0.00677 0 0.00977 0 17.626 14.374 32 32 32 8e-3 2e-5 0.01564 2e-5 0.02344 0 4.0143-0.0236 7.9802-0.82806 11.705-2.3203 0.0742 3e-3 0.14841 0.0049 0.22265 0.0039l45.027-17.428c2.0601-0.79734 3.084-3.1136 2.2871-5.1738v-0.00195l74.842-28.969-0.02539-0.06445a28 28 0 0 0 0.62109-0.31446 28 28 0 0 0 3.2813-1.6602 28 28 0 0 0 1.9121-1.2012 28 28 0 0 0 2.7539-2.1738 28 28 0 0 0 1.7441-1.7442 28 28 0 0 0 2.1562-2.5469 28 28 0 0 0 1.4512-2.3066 28 28 0 0 0 1.4941-2.7188 28 28 0 0 0 1.0625-3.0352 28 28 0 0 0 0.78516-2.5176 28 28 0 0 0 0.65625-5.8281 28 28 0 0 0-0.50781-5.2793 28 28 0 0 0-0.00196-0.02929h0.00196l-0.0293-0.1543-19.51-102.81c2.4751-7.9449 7.011-20.928 13.383-32.955l-4.6426-18.727-16.016 3.1582c-5.372 1.0587-10.685-2.5049-11.744-7.877-1.0588-5.371 2.5023-10.684 7.873-11.744a4.0004 4.0004 0 0 0 0.00195 0l18.994-3.7461 25.02 100.9 0.06054-0.01172a28 28 0 0 0 27.117 21.273 28 28 0 0 0 28-28 28 28 0 0 0-0.29883-4.082l-0.0039-0.02735a28 28 0 0 0 0-0.00195 28 28 0 0 0 0-0.00195l-21.07-142.99h-0.00195a35 35 0 0 0-0.09766-0.38867 35 35 0 0 0-1.5449-6.0977 35 35 0 0 0-0.26562-0.73828 35 35 0 0 0-2.748-5.6719 35 35 0 0 0-0.39648-0.66016 35 35 0 0 0-3.8711-5.0391 35 35 0 0 0-0.46679-0.51367 35 35 0 0 0-4.877-4.2129 35 35 0 0 0-0.48633-0.36133 35 35 0 0 0-5.7461-3.2051 35 35 0 0 0-0.41406-0.19531 35 35 0 0 0-6.4668-2.0371 35 35 0 0 0-0.24414-0.0625 35 35 0 0 0-7-0.71484zm-130.97 272.48 17.328 44.762-37.652 14.574-3.7461 1.3848s-5.8951 1.7812-8.9746 1.8008c-13.293-0.0065-23.983-10.695-23.988-23.988v-0.00586-0.00391c0.0306-9.9053 6.1158-18.748 15.357-22.314 13.83-5.5146 27.78-10.829 41.676-16.209z" color="#000000" stroke-width="8" style="-inkscape-stroke:none"/><circle cx="365" cy="48" r="48"/></g></svg>
