<svg width="100" height="100" version="1.1" viewBox="0 0 100 100" xmlns="http://www.w3.org/2000/svg">
 <path d="m70.101 0-18 24.265 9.785-1.5205c2.0191-0.31378-13.248 15.76-13.248 15.76l10.326-1.1238c2.1008-0.22867-12.895 17.86-12.895 17.86l11.276-1.8738c2.7074-0.44994-14.315 18.8-14.315 18.8 0.06896-0.03796 13.567-2.0836 13.567-2.0836-2.9794 6.4405-16.397 18.116-16.397 18.116l23.878-2.2362c1.3593-0.12728-0.92048 14.037-0.92048 14.037h13.884s-2.2798-14.164-0.92048-14.037l23.878 2.2362s-13.417-11.675-16.397-18.116c0 0 13.498 2.0457 13.567 2.0836 0 0-17.023-19.249-14.315-18.8l11.276 1.8738s-14.995-18.089-12.895-17.86l10.326 1.1238s-15.267-16.074-13.248-15.76l9.785 1.5205zm-49.595 36.615a5.9424 5.9424 0 0 0-5.9425 5.9421 5.9424 5.9424 0 0 0 5.9425 5.9425 5.9424 5.9424 0 0 0 5.9421-5.9425 5.9424 5.9424 0 0 0-5.9421-5.9421zm-5.9425 13.37a2.8475 2.8475 0 0 0-2.3289 1.2192l-0.0046-3e-3 -6.4495 9.225 0.00496 0.0034a2.8475 2.8475 0 0 0-0.12169 0.18959l-0.00534-3e-3 -5.2669 8.9733 0.005341 3e-3a2.8475 2.8475 0 0 0-0.39711 1.4381 2.8475 2.8475 0 0 0 2.8477 2.8477 2.8475 2.8475 0 0 0 2.4517-1.4114l0.00496 3e-3 5.207-8.8714 2.2114-3.1628 1.4408 10.618-1.5545 12.678 0.0042 3.91e-4a3.4664 3.4664 0 0 0-0.0053 0.07744l-0.0076-3.91e-4 -1.2379 12.38 0.0072 3.9e-4a3.4664 3.4664 0 0 0-0.02441 0.34408 3.4664 3.4664 0 0 0 3.4664 3.4664 3.4664 3.4664 0 0 0 3.4416-3.1223l0.0076 7.82e-4 1.2348-12.348 1.0105-8.2416 1.0109 8.2428 1.2348 12.347 0.0072-7.82e-4a3.4664 3.4664 0 0 0 3.442 3.1223 3.4664 3.4664 0 0 0 3.4664-3.4664 3.4664 3.4664 0 0 0-0.01754-0.34485h3.9e-4l-1.2375-12.375a3.4664 3.4664 0 0 0-0.01029-0.08202h0.0012l-1.5549-12.678 1.3088-9.6435 1.6109 2.7607 0.0053-0.0027a2.8475 2.8475 0 0 0 1.7387 1.3187l-0.0012 5e-3 10.949 2.8473 0.0012-5e-3a2.8475 2.8475 0 0 0 0.71564 0.09651 2.8475 2.8475 0 0 0 2.8477-2.8473 2.8475 2.8475 0 0 0-2.1309-2.7553v-7.81e-4l-9.8034-2.5494-5.1826-8.881-3.91e-4 3.9e-4a2.8475 2.8475 0 0 0-2.4589-1.4125z"/>
</svg>
