<?xml version="1.0" encoding="UTF-8"?>
<!-- Created with Inkscape (http://www.inkscape.org/) -->
<svg width="512" height="512" version="1.1" viewBox="0 0 512 512" xml:space="preserve" xmlns="http://www.w3.org/2000/svg"><path d="m104.99 187.47a30.425 30.425 0 0 0-30.425 30.425 30.425 30.425 0 0 0 30.425 30.425 30.425 30.425 0 0 0 30.425-30.425 30.425 30.425 0 0 0-30.425-30.425zm-30.425 68.456a14.579 14.579 0 0 0-11.924 6.242l-0.02352-0.0161-33.022 47.233 0.02477 0.0173a14.579 14.579 0 0 0-0.62271 0.97059l-0.026-0.0148-26.967 45.943 0.025998 0.0148a14.579 14.579 0 0 0-2.0316 7.3648 14.579 14.579 0 0 0 14.579 14.579 14.579 14.579 0 0 0 12.553-7.2262l0.026 0.0161 26.66-45.422 11.321-16.194 7.3784 54.366-7.9603 64.909 0.02231 3e-3a17.748 17.748 0 0 0-0.02846 0.39615l-0.03835-3e-3 -6.3385 63.385 0.03838 3e-3a17.748 17.748 0 0 0-0.12634 1.7611 17.748 17.748 0 0 0 17.748 17.748 17.748 17.748 0 0 0 17.622-15.986l0.03843 3e-3 6.3224-63.219 5.1748-42.198 5.176 42.203 6.3212 63.214 0.0384-3e-3a17.748 17.748 0 0 0 17.622 15.986 17.748 17.748 0 0 0 17.748-17.748 17.748 17.748 0 0 0-0.0891-1.7654h8.6e-4l-6.336-63.359a17.748 17.748 0 0 0-0.052-0.42092h5e-3l-7.9603-64.909 6.7012-49.375 8.2487 14.135 0.026-0.0149a14.579 14.579 0 0 0 8.9024 6.752l-6e-3 0.0248 56.06 14.579 6e-3 -0.0248a14.579 14.579 0 0 0 3.6635 0.49399 14.579 14.579 0 0 0 14.579-14.579 14.579 14.579 0 0 0-10.91-14.107l8.6e-4 -3e-3 -50.193-13.053-26.535-45.471-3e-3 8.7e-4a14.579 14.579 0 0 0-12.589-7.2323z"/><path class="UnoptimicedTransforms" transform="matrix(.99999 0 0 .99999 102.92 0)" d="m256 0-92.158 124.24 50.1-7.7859c10.338-1.6066-67.829 80.693-67.829 80.693l52.867-5.7548c10.756-1.1708-66.021 91.447-66.021 91.447l57.732-9.5946c13.862-2.3037-73.294 96.255-73.294 96.255 0.35309-0.19437 69.464-10.668 69.464-10.668-15.255 32.976-83.952 92.753-83.952 92.753l122.26-11.449c6.9596-0.65169-4.7142 71.868-4.7142 71.868h71.086s-11.674-72.52-4.7142-71.868l122.26 11.449s-68.697-59.778-83.952-92.753c0 0 69.111 10.474 69.464 10.668 0 0-87.156-98.558-73.294-96.255l57.732 9.5946s-76.776-92.618-66.021-91.447l52.867 5.7548s-78.167-82.3-67.829-80.693l50.1 7.7859z"/></svg>
