<svg width="100" height="100" version="1.1" viewBox="0 0 100 100" xmlns="http://www.w3.org/2000/svg">
 <path d="m33.594 3.788a9.3749 9.3749 0 0 0-9.3749 9.3749 9.3749 9.3749 0 0 0 9.3749 9.3749 9.3749 9.3749 0 0 0 9.3749-9.3749 9.3749 9.3749 0 0 0-9.3749-9.3749zm18.945 2.9296a4.4921 4.4921 0 0 0-4.449 3.8875l-2e-3 -3.9e-4 -2.206 16.23h-12.092a6.8359 6.8358 0 0 0-6.8359 6.8358s-0.84605 7.0855-0.87851 11.661c-0.0325 4.5759 0.68359 11.719 0.68359 11.719h4e-3a6.8359 6.8358 0 0 0-4e-3 0.05722 6.8359 6.8358 0 0 0 0.41312 2.2625l-0.0256 0.0061 6.2374 17.729-4.3853 16.96 8e-3 2e-3a4.7474 4.7474 0 0 0-0.15946 1.186 4.7474 4.7474 0 0 0 4.7477 4.7473 4.7474 4.7474 0 0 0 4.5879-3.561l8e-3 2e-3 4.7474-18.359-8e-3 -0.0023a4.7474 4.7474 0 0 0 0.15944-1.1864 4.7474 4.7474 0 0 0-0.0465-0.65803h7.8e-4l-5e-3 -0.03853-2.6676-19.994-0.029 0.0069a6.8359 6.8358 0 0 0-0.0442-0.44479c-0.2036-2.2107-0.57068-6.6395-0.55465-9.8757 0.01-2.0101 0.19134-4.6437 0.38642-6.9808l10.895-3.2585-3.9e-4 -0.0034a4.4921 4.4921 0 0 0 3.231-3.7158l2e-3 3.9e-4 2.7344-20.117-2e-3 -3.9e-4a4.4921 4.4921 0 0 0 0.0431-0.60461 4.4921 4.4921 0 0 0-4.4921-4.4921zm12.5 0c-0.93965 0.0037-1.8544 0.30206-2.6157 0.85296l-6e-3 -0.0084-0.71486 0.51383 6.1851-0.33989c-0.77522-0.63638-1.7672-1.0185-2.8484-1.0185zm10.742 1.3672-18.002 0.98914c0.27139 0.66032 0.4238 1.3808 0.4238 2.1358v0.0046c-9.8e-4 0.24484-0.0193 0.489-0.0519 0.73165 1.9e-4 0.0089 3.9e-4 0.0178 3.9e-4 0.0267l-0.18806 1.3832 17.818 0.97884zm-28.681 1.5758-3.4935 0.19188c0.28888 0.87024 0.46751 1.7897 0.5184 2.7427l2.4906 0.13695 0.31051-2.2854c1e-3 -0.0023 3e-3 -0.0046 4e-3 -0.0069 0.0367-0.26736 0.0975-0.52594 0.16976-0.77933zm10.758 4.4719-1.1703 8.6116 10.97-7.8845-6e-3 -0.0084c0.0756-0.05404 0.1489-0.11044 0.22048-0.16861zm-12.141 5.2108-11.538 6.3193h10.679z"/>
</svg>
