<?xml version="1.0" encoding="UTF-8"?>
<!-- Created with Inkscape (http://www.inkscape.org/) -->
<svg width="512" height="512" version="1.1" viewBox="0 0 512 512" xml:space="preserve" xmlns="http://www.w3.org/2000/svg"><g><path d="m361 33c-4.8111 0.01918-9.495 1.5466-13.393 4.3672l-0.0312-0.04297-3.6602 2.6309 31.668-1.7402c-3.9691-3.2583-9.0481-5.2148-14.584-5.2148z"/><path d="m324.23 70.965-5.9922 44.092 56.166-40.369-0.0293-0.04297c0.38692-0.27667 0.76244-0.56544 1.1289-0.86328z"/><path d="m262.07 97.645-59.074 32.355h54.676z"/><path d="m416 40-92.17 5.0645c1.3896 3.3809 2.1699 7.0701 2.1699 10.936v0.022c-5e-3 1.2536-0.099 2.5056-0.26562 3.748 1e-3 0.04556 2e-3 0.09114 2e-3 0.13672l-0.96294 7.0815 91.227 5.0117z"/><path d="m269.15 48.068-17.887 0.98242c1.4791 4.4557 2.3937 9.1636 2.6543 14.043l12.752 0.70117 1.5898-11.701c7e-3 -0.01174 0.01429-0.023456 0.02149-0.035156 0.18789-1.3689 0.49904-2.6928 0.86914-3.9902z"/><path d="m297 33a23 23 0 0 0-22.779 19.904l-0.0117-2e-3 -11.295 83.098h-61.914a35 35 0 0 0-35 35s-4.3318 36.278-4.498 59.707 3.5 60 3.5 60h0.0195a35 35 0 0 0-0.02145 0.29297 35 35 0 0 0 2.1152 11.584l-0.13085 0.0312 31.936 90.773-22.453 86.834 0.043 0.0117a24.307 24.307 0 0 0-0.81641 6.0723 24.307 24.307 0 0 0 24.307 24.307 24.307 24.307 0 0 0 23.49-18.232l0.043 0.0117 24.307-94-0.043-0.0117a24.307 24.307 0 0 0 0.8164-6.0742 24.307 24.307 0 0 0-0.23828-3.3691h4e-3l-0.0273-0.19727-13.658-102.37-0.14844 0.0352a35 35 0 0 0-0.22656-2.2773c-1.0424-11.319-2.9219-33.994-2.8398-50.564 0.051-10.292 0.97966-23.776 1.9785-35.742l55.781-16.684-2e-3 -0.0176a23 23 0 0 0 16.543-19.025l0.0117 2e-3 14-103-0.0117-2e-3a23 23 0 0 0 0.2207-3.0957 23 23 0 0 0-23-23z"/><circle cx="200" cy="66" r="48"/></g></svg>
