<?xml version="1.0" encoding="UTF-8"?>
<!-- Created with Inkscape (http://www.inkscape.org/) -->
<svg width="512" height="512" version="1.1" viewBox="0 0 512 512" xml:space="preserve" xmlns="http://www.w3.org/2000/svg"><g><path d="m421.09 123.38-41.414 23.213s-4.0687 2.7915-4.5547 5.1582c-0.3992 1.9439-1.4738 3.4337-3.1602 4.3789-1.4058 0.78794-2.4271 1.6618-2.2715 1.9395 0.15564 0.27768-106.89 54.307-106.89 54.307l-2.7148-3.6406c-7.2749-9.7616-22.132-16.387-33.6-14.984-4.7247 0.5776-7.0007 1.4582-13.914 5.3906-7.1176 4.0485-9.0972 5.6335-14.254 11.418-11.375 12.76-21.478 17.38-39.777 18.184-5.0713 0.22288-9.4076 0.51068-13.426 0.84766l-2.6582 5.3106 31.551 38.492-0.19922-0.20117a6.0006 6.0006 0 0 1 0.39258 0.43555c0.59662 0.72758 1.1444 1.4873 1.6641 2.2637l13.508-7.5703a25 25 0 0 1 9.584-34.031 25 25 0 0 1 34.031 9.584l194.53-109.04zm6.4238 11.461-194.53 109.04a25 25 0 0 1-9.5859 34.029 25 25 0 0 1-34.031-9.582l-13.506 7.5703c3.1815 4.7542 4.9097 10.36 4.9102 16.121 0 15.945-13.055 29-29 29a6.0006 6.0006 0 0 1-0.0117 0c-8.6348-0.0172-16.811-3.8992-22.303-10.557a6.0006 6.0006 0 0 1-0.11523-0.0605l-4.7344-5.7773h-2e-3l-33.762-41.19c-1.4087 4.0185-2.3335 8.2337-2.5781 12.605-0.54412 9.7234 1.6438 21.353 6.875 33.689 2.9342 6.9194 4.1543 9.082 4.1543 9.082s1.2092 2.1711 5.5801 8.2852c7.7934 10.901 16.57 18.835 25.148 23.445 13.204 7.0965 28.876 7.3005 42.395 0.55273 12.396-6.1877 19.86-13.909 34.621-35.814 10.236-15.19 19.449-21.396 36.27-24.439 7.6255-1.38 10.01-2.2426 17.178-6.2012 6.9624-3.845 8.9029-5.3259 11.861-9.0547 7.1814-9.0505 9.2822-25.182 4.752-36.482l-1.6894-4.2148s101.96-63.116 102.11-62.838c0.15565 0.27769 1.4321-0.13979 2.8379-0.92774 1.6864-0.94524 3.5183-1.0841 5.3848-0.41015 2.2725 0.82058 6.7773-1.1914 6.7773-1.1914l41.414-23.215z" color="#000000" style="-inkscape-stroke:none"/><path d="m400.59 171.87-5.375 3.0137-0.25 0.11132s-1.4709 0.66521-3.3438 1.1973c-1.8728 0.53205-4.1169 1.5327-7.918 0.16016-0.43886-0.15838-0.12624-0.15937-0.41406 2e-3 -0.98415 0.55162-1.8945 0.98451-2.957 1.332-0.24764 0.081-0.66221 0.12712-0.95508 0.19922-0.71891 0.42564-1.7995 1.0761-3.1816 1.9141-2.7846 1.6882-6.775 4.1282-11.561 7.0644-0.77658 0.47649-2.0289 1.2523-2.8457 1.7539l10.809 2.6035 0.0117-0.0508c1.7588 0.44163 3.5636 0.67371 5.377 0.6914 11.464-0.0992 21.105-8.626 22.604-19.992z" stroke-linecap="round" stroke-linejoin="round" stroke-width="10.14"/><path d="m284.4 263.56c-1.3531 5.7958-3.7815 11.26-7.3476 15.754-3.2713 4.1232-6.5399 6.644-13.66 10.576-7.3383 4.0526-11.171 5.4346-19.012 6.8535-15.792 2.8577-22.635 7.4543-32.361 21.889h-2e-3c-2.7645 4.1025-5.2648 7.6254-7.6699 10.896l2.5527 9.4512-12.471 48.092-61.223 75.363c-2.8165 2.339-5.1469 5.2075-6.8594 8.4434l-0.22461 0.27734 0.0547 0.0352c-2.0633 3.9557-3.1514 8.3472-3.1738 12.809 0 15.464 12.536 28 28 28 8.37-0.0166 16.294-3.7767 21.6-10.25l0.0371 0.0234 69-84-0.0352-0.0274c2.5741-3.1392 4.4348-6.8006 5.4531-10.73l0.0488 0.0117 14.176-54.666 40.061 48.846-5.2812 80.971 0.0723 4e-3c-0.0633 0.60455-0.10696 1.211-0.13081 1.8184 0 15.464 12.536 28 28 28 14.73-0.0378 26.913-11.482 27.869-26.182l0.0723 4e-3 6-92-0.0723-4e-3c0.0633-0.60454 0.10699-1.211 0.13086-1.8184 6e-5 -6.4747-2.2438-12.749-6.3496-17.756l-6e-3 -8e-3 -0.01-0.0117-50.404-61.459z"/><path d="m235.62 105.69c-1.734 0-3.4167 0.20661-5.041 0.57031l-0.00391-0.00977-81.605 18.342 0.00196 0.00977a23 23 0 0 0-15.484 12.152l-0.03906-0.01953-45.916 91.711 0.039063 0.01953a23 23 0 0 0-2.4727 10.277 23 23 0 0 0 5.2383 14.557l-0.027344 0.02344 43.672 53.279 0.02735-0.02344a23 23 0 0 0 17.762 8.4434 23 23 0 0 0 23-23 23 23 0 0 0-5.2148-14.582l-0.00781-0.00782-34.205-41.73 28.348-56.621 11.133 41.201c7.1295-2.2805 12.485-6.3881 19.01-13.707 5.3017-5.9471 8.4782-8.4974 15.766-12.643 7.071-4.022 10.931-5.4924 16.154-6.1308l-0.00196 0.00195c13.963-1.7078 29.39 5.1591 38.354 16.455l-16.215-47.396 50.496 16.412 0.01172-0.03711c0.58641 0.18452 1.18 0.34546 1.7793 0.48242l-0.01367 0.05469 17.395 4.1914c11.888-6.0223 23.845-12.084 32.768-16.633 5.0022-2.5497 9.1653-4.6796 12.059-6.1738 1.4338-0.74047 2.5507-1.3218 3.2891-1.7129 0.21415-0.21248 0.46963-0.54166 0.66797-0.71094 0.85123-0.72652 1.6973-1.2792 2.6836-1.832 0.2878-0.16132 0.1229 0.10551 0.2168-0.35156 0.20009-0.97444 0.47615-1.7827 0.79492-2.4824 0.10245-0.22466 0.22872-0.37851 0.33984-0.58007 0.23485-0.42642 0.46726-0.85751 0.72852-1.1973 0.16417-0.21368 0.33271-0.37736 0.50195-0.56445 0.24138-0.26664 0.47521-0.54472 0.7168-0.77149 0.33746-0.31739 0.65707-0.59896 0.9668-0.87695l-61.541-14.83-69.021-22.432-0.00196 0.00586c-2.2944-0.74803-4.6922-1.1303-7.1055-1.1328z"/><circle cx="171" cy="48" r="48"/></g></svg>
