<?xml version="1.0" encoding="UTF-8"?>
<!-- Created with Inkscape (http://www.inkscape.org/) -->
<svg width="512" height="512" version="1.1" viewBox="0 0 512 512" xml:space="preserve" xmlns="http://www.w3.org/2000/svg"><g><path d="m148.95 295.08a15.002 15.002 0 0 0-14.928 16.471l19.736 200.45h204.49l19.736-200.45a15.002 15.002 0 0 0-14.928-16.471h-107.05-107.05z" color="#000000" style="-inkscape-stroke:none"/><path d="m106.71 258a12 12 0 0 0-12 12 12 12 0 0 0 12 12h298.57a12 12 0 0 0 12-12 12 12 0 0 0-12-12z" color="#000000"/><path d="m208 108a23 23 0 0 0-16.529 7.084l-0.03906-0.0371-48.521 50.389-56.33 22.162 0.019531 0.05078a23 23 0 0 0-14.6 21.352 23 23 0 0 0 23 23 23 23 0 0 0 8.4004-1.6484l0.01953 0.05078 61-24-0.01953-0.05078a23 23 0 0 0 8.1289-5.4355l0.03711 0.0371 19.137-19.873 9.2266 68.92h110.14l9.2266-68.92 19.135 19.873 0.03906-0.0371a23 23 0 0 0 8.1289 5.4355l-0.01953 0.05078 61 24 0.01953-0.05078a23 23 0 0 0 8.4004 1.6484 23 23 0 0 0 23-23 23 23 0 0 0-14.582-21.398l0.00195-0.0039-56.332-22.164-48.52-50.387-0.00586 0.0039a23 23 0 0 0-16.562-7.0508h-96z"/><circle cx="256" cy="48" r="48"/></g></svg>
