<svg width="100" height="100" version="1.1" viewBox="0 0 100 100" xmlns="http://www.w3.org/2000/svg">
 <path d="m50 0a9.375 9.375 0 0 0-9.375 9.375 9.375 9.375 0 0 0 9.375 9.375 9.375 9.375 0 0 0 9.375-9.375 9.375 9.375 0 0 0-9.375-9.375zm-9.375 21.094a4.4922 4.4922 0 0 0-3.2284 1.3836l-0.0076-0.0072-9.4768 9.8415-11.002 4.3285 0.0038 0.0099a4.4922 4.4922 0 0 0-2.8515 4.1702 4.4922 4.4922 0 0 0 4.4922 4.4922 4.4922 4.4922 0 0 0 1.6407-0.32196l0.0038 0.0099 11.914-4.6875-0.0038-0.0099a4.4922 4.4922 0 0 0 1.5877-1.0616l0.0072 0.0072 3.7376-3.8814 1.8021 13.461h21.512l1.8021-13.461 3.7372 3.8814 8e-3 -0.0072a4.4922 4.4922 0 0 0 1.5877 1.0616l-4e-3 0.0099 11.914 4.6875 4e-3 -0.0099a4.4922 4.4922 0 0 0 1.6407 0.32196 4.4922 4.4922 0 0 0 4.4922-4.4922 4.4922 4.4922 0 0 0-2.848-4.179l3.9e-4 -7.82e-4 -11.002-4.3289-9.4764-9.8415-1e-3 7.81e-4a4.4922 4.4922 0 0 0-3.2353-1.3771zm-19.783 29.297a2.3437 2.3437 0 0 0-2.3437 2.3437 2.3437 2.3437 0 0 0 2.3437 2.3437h58.314a2.3437 2.3437 0 0 0 2.3437-2.3437 2.3437 2.3437 0 0 0-2.3437-2.3437zm8.2496 7.2422a2.9301 2.9301 0 0 0-2.9156 3.2169l3.8547 39.15h39.939l3.8547-39.15a2.9301 2.9301 0 0 0-2.9156-3.2169h-41.817z"/>
</svg>
