<?xml version="1.0" encoding="UTF-8"?>
<!-- Created with Inkscape (http://www.inkscape.org/) -->
<svg width="512" height="512" version="1.1" viewBox="0 0 512 512" xml:space="preserve" xmlns="http://www.w3.org/2000/svg"><path d="m274.06 205a35 35 0 0 0-25.486 11.115l-0.05274-0.04687c-37.604 40.131-71.843 98.377-94.131 156.38l0.08204 0.03125a35 35 0 0 0-2.4121 12.523 35 35 0 0 0 12.877 27.062l-0.0293 0.0332 53.699 43.904h-99.547a28 28 0 0 0-28 28 28 28 0 0 0 28 28h178a28 28 0 0 0 28-28 28 28 0 0 0-9.2988-20.836l0.00195-0.00195-87.41-86.535c13.321-30.678 27.83-56.269 46.844-82.096l41.469 47.516a23 23 0 0 0 0.02539 0.02929l0.04101 0.04688 0.00391-0.00196a23 23 0 0 0 17.324 7.8789 23 23 0 0 0 15.143-5.6973l0.00391 0.00586 63.967-55.971-0.00195-0.00391a23 23 0 0 0 7.8887-17.334 23 23 0 0 0-23-23 23 23 0 0 0-15.141 5.6973l-0.00586-0.00586-42.191 36.924-35.779-67.086-0.01563 0.01172a35 35 0 0 0-30.867-18.541z"/><circle cx="347.64" cy="163.69" r="48"/></svg>
