<?xml version="1.0" encoding="UTF-8"?>
<!-- Created with Inkscape (http://www.inkscape.org/) -->
<svg width="512" height="512" version="1.1" viewBox="0 0 512 512" xml:space="preserve" xmlns="http://www.w3.org/2000/svg"><g><path d="m421.82 136.92a35 35 0 0 0-33.412 24.682l-0.0293-0.00781s-12.775 40.288-17.004 68.57c-1.0587 7.0802-1.7592 14.946-2.2148 22.76l41.406 26.656-21.652 33.633-20.174-12.988a35 35 0 0 0 3.1953 13.635l-0.09961 0.03711 33.805 73.453-5.5879 95.008 0.06836 0.00391a28 28 0 0 0-0.11719 1.6406 28 28 0 0 0 28 28 28 28 0 0 0 27.883-26.359l0.06836 0.00391 6-102-0.06836-0.00391a28 28 0 0 0 0.11719-1.6406 28 28 0 0 0-1.0391-7.5273l0.00781-0.00391-18.209-65.201-29.16-39.096c-0.0202-0.07045-0.03839-0.1414-0.05469-0.2129-2.5044-3.398-4.1898-7.3272-4.8965-11.49-0.0173-0.0271-0.03418-0.05453-0.05078-0.08203l-13.426-82.113a2.0003 2.0005 81 0 1 1.6621-2.2891 2.0003 2.0005 81 0 1 2.2852 1.6445 2.0003 2.0005 81 0 1 0.00391 0.01953v0.00976l13.422 82.084 0.02735-0.00391c0.60576 3.6304 2.074 7.0625 4.2812 10.008l-0.04688 0.03516 22.967 30.795 19.672 26.373 0.04688-0.03516a23 23 0 0 0 3.6309 3.8574c0.00981 0.00829 0.01751 0.01908 0.02734 0.02735a23 23 0 0 0 4.4394 2.9297 23 23 0 0 0 4.9941 1.832c0.01017 0.00244 0.02109 0.00148 0.03125 0.0039a23 23 0 0 0 5.2656 0.63282 23 23 0 0 0 5.7754-0.75977c0.10605-0.02748 0.21291-0.05308 0.31836-0.08203a23 23 0 0 0 5.3047-2.1973c0.07648-0.04377 0.14868-0.09404 0.22461-0.13867a23 23 0 0 0 4.6406-3.5586 23 23 0 0 0 3.5586-4.6406c0.04463-0.07592 0.0949-0.14813 0.13868-0.22461a23 23 0 0 0 2.1973-5.3047c0.02895-0.10545 0.05455-0.21231 0.08203-0.31836a23 23 0 0 0 0.75977-5.7754c1e-5 -1.2316-0.10088-2.454-0.29492-3.6582a23 23 0 0 0-0.00782-0.04101c-0.19626-1.2041-0.48415-2.3906-0.86718-3.5449-0.38122-1.1488-0.85706-2.266-1.416-3.3437a23 23 0 0 0-0.0332-0.06446c-0.56287-1.077-1.2098-2.1141-1.9434-3.0976l-39.281-52.668c-4.2607-25.473-8.9382-51.077-12.527-76.572h0.00195a2.0003 2.0005 81 0 1 1.6621-2.2812 2.0003 2.0005 81 0 1 0.28515-0.02344 2.0003 2.0005 81 0 1 1.998 1.6602l0.00586-0.00195 4.1113 25.148c1.0117-4.1735 1.9177-7.8036 2.5254-10.125a35 35 0 0 0 0.71484-2.7148c0.08603-0.31856 0.41797-1.582 0.41797-1.582l-0.07031-0.01758a35 35 0 0 0 0.6543-6.3516 35 35 0 0 0-35-35z" color="#000000" stroke-linecap="round" stroke-width="8" style="-inkscape-stroke:none"/><circle cx="464" cy="88.214" r="48"/><path transform="rotate(-57.227)" d="m-16.83 448.39c-0.56058 0.42662-1.135 0.8399-1.737 1.2275-9.5248 6.132-21.528 5.473-30.264-0.71615l0.001083 43.642 32 8e-5 -4.84e-4 -44.153z" color="#000000" stroke-linecap="round" stroke-width="8" style="-inkscape-stroke:none"/><path d="m135 165a23 23 0 0 0-8.0215 1.5059l-0.01954-0.05469-67 25 0.019532 0.05469a23 23 0 0 0-14.979 21.494 23 23 0 0 0 23 23 23 23 0 0 0 8.0215-1.5059l0.019532 0.05469 58.867-21.965 24.893 9.5039-52.898 75.234 0.06055 0.04296a35 35 0 0 0-5.5898 12.73l-0.05274-0.01562-18.002 83.539-68.812 37.848 0.035157 0.0625a28 28 0 0 0-14.541 24.471 28 28 0 0 0 28 28 28 28 0 0 0 13.459-3.5293l0.035157 0.0625 80-44-0.03516-0.0625a28 28 0 0 0 12.73-14.77l0.06836 0.01953 19.391-52.381 38.072 23.059-9.4336 67.611a28 28 0 0 0-0.00195 0.01171l-0.01563 0.10938 0.00781 0.00195a28 28 0 0 0-0.27734 3.8672 28 28 0 0 0 28 28 28 28 0 0 0 27.723-24.135l0.00976 0.00196 11.998-85.998-0.00781-0.00195a28 28 0 0 0 0.27734-3.8672 28 28 0 0 0-10.457-21.816l0.00391-0.0039-56.508-45.439 38.506-54.764 35.113 28.004 0.03516-0.0332a23 23 0 0 0 14.307 5.0527 23 23 0 0 0 2.2832-0.16406l0.00586 0.05078 69.963-6.998-0.00586-0.04883a23 23 0 0 0 20.754-22.84 23 23 0 0 0-23-23 23 23 0 0 0-2.2832 0.16406l-0.00586-0.05078-56.543 5.6543-39.127-56.309-0.00782 0.00782a35 35 0 0 0-26.359-14.949l0.00195-0.00781-80.113-5.457-0.00195 0.00782a23 23 0 0 0-1.5606-0.06055z"/><circle cx="281.62" cy="130.34" r="48"/></g></svg>
