<svg width="100" height="100" version="1.1" viewBox="0 0 100 100" xmlns="http://www.w3.org/2000/svg">
 <path d="m90.625 7.854a9.375 9.375 0 0 0-9.375 9.375 9.375 9.375 0 0 0 9.375 9.375 9.375 9.375 0 0 0 9.375-9.375 9.375 9.375 0 0 0-9.375-9.375zm-35.621 8.2276a9.375 9.375 0 0 0-9.375 9.375 9.375 9.375 0 0 0 9.375 9.375 9.375 9.375 0 0 0 9.375-9.375 9.375 9.375 0 0 0-9.375-9.375zm27.383 10.66a6.8359 6.836 0 0 0-6.5258 4.8206l-0.0057-0.0016s-2.4951 7.8688-3.3211 13.393c-0.20678 1.3829-0.3436 2.9191-0.43259 4.4453l8.0872 5.2063-4.229 6.5689-3.9402-2.5368a6.8359 6.836 0 0 0 0.62409 2.663l-0.01945 0.0072 6.6025 14.346-1.0914 18.556 0.01336 7.8e-4a5.4688 5.4688 0 0 0-0.02289 0.32043 5.4688 5.4688 0 0 0 5.4688 5.4688 5.4688 5.4688 0 0 0 5.4459-5.1479l0.01336 7.8e-4 1.1719-19.922-0.01336-7.9e-4a5.4688 5.4688 0 0 0 0.02289-0.32043 5.4688 5.4688 0 0 0-0.20294-1.4702l0.0016-7.9e-4 -3.5565-12.735-5.6953-7.6359c-0.0039-0.01375-0.0075-0.02762-0.01068-0.04158-0.48914-0.66367-0.81832-1.4311-0.95635-2.2442-0.0034-0.0053-0.0067-0.01064-0.0099-0.01601l-2.6222-16.038a0.39068 0.39072 80.82 0 1 0.32463-0.44708 0.39068 0.39072 80.82 0 1 0.44632 0.3212 0.39068 0.39072 80.82 0 1 7.81e-4 0.0038v2e-3l2.6215 16.032 0.0053-7.81e-4c0.11831 0.70906 0.40509 1.3794 0.83618 1.9547l-0.0092 0.0069 4.4857 6.0146 3.8422 5.151 0.0092-0.0069a4.4922 4.4922 0 0 0 0.70915 0.7534c2e-3 0.0016 0.0034 0.0037 0.0053 0.0053a4.4922 4.4922 0 0 0 0.86708 0.57221 4.4922 4.4922 0 0 0 0.97542 0.35782c2e-3 3.9e-4 0.0041 1.95e-4 0.0061 7.81e-4a4.4922 4.4922 0 0 0 1.0284 0.1236 4.4922 4.4922 0 0 0 1.128-0.14839c0.02071-0.0054 0.04158-0.01037 0.06218-0.01602a4.4922 4.4922 0 0 0 1.0361-0.42916c0.01494-0.0086 0.02904-0.01836 0.04387-0.02708a4.4922 4.4922 0 0 0 0.90637-0.69504 4.4922 4.4922 0 0 0 0.69504-0.90637c0.0087-0.01482 0.01853-0.02893 0.02708-0.04387a4.4922 4.4922 0 0 0 0.42915-1.0361c0.0056-0.0206 0.01064-0.04147 0.01602-0.06218a4.4922 4.4922 0 0 0 0.14839-1.128c2e-6 -0.24055-0.01971-0.4793-0.0576-0.71449a4.4922 4.4922 0 0 0-0.0016-8e-3c-0.03833-0.23518-0.09456-0.46692-0.16937-0.69237-0.07446-0.22438-0.1674-0.44259-0.27656-0.65308a4.4922 4.4922 0 0 0-0.0065-0.01258c-0.10993-0.21035-0.23628-0.41292-0.37956-0.60501l-7.672-10.287c-0.83217-4.9752-1.7454-9.9761-2.4464-14.956h3.91e-4a0.39068 0.39072 80.82 0 1 0.32463-0.44556 0.39068 0.39072 80.82 0 1 0.05569-0.0046 0.39068 0.39072 80.82 0 1 0.38986 0.32425l0.0012-3.9e-4 0.80299 4.9118c0.1976-0.81514 0.37455-1.5241 0.49324-1.9775a6.8359 6.836 0 0 0 0.13962-0.53024c0.0168-0.06222 0.08163-0.30899 0.08163-0.30899l-0.01373-0.0034a6.8359 6.836 0 0 0 0.12779-1.2405 6.8359 6.836 0 0 0-6.8359-6.836zm-56.02 5.4844a4.4922 4.4922 0 0 0-1.5667 0.29411l-0.0038-0.01068-13.086 4.8828 0.0038 0.01068a4.4922 4.4922 0 0 0-2.9255 4.1981 4.4922 4.4922 0 0 0 4.4922 4.4922 4.4922 4.4922 0 0 0 1.5667-0.29411l0.0038 0.01068 11.497-4.29 4.8618 1.8562-10.332 14.694 0.01184 0.0084a6.8359 6.836 0 0 0-1.0918 2.486l-0.01029-3e-3 -3.516 16.316-13.44 7.3925 0.00687 0.0122a5.4688 5.4688 0 0 0-2.84 4.7794 5.4688 5.4688 0 0 0 5.4688 5.4688 5.4688 5.4688 0 0 0 2.6287-0.68931l0.00687 0.0122 15.625-8.5938-0.0069-0.0122a5.4688 5.4688 0 0 0 2.4864-2.8851l0.01336 4e-3 3.7872-10.231 7.436 4.504-1.8425 13.205a5.4688 5.4688 0 0 0-3.91e-4 2e-3l-3e-3 0.0214 0.0016 3.9e-4a5.4688 5.4688 0 0 0-0.0542 0.75531 5.4688 5.4688 0 0 0 5.4688 5.4688 5.4688 5.4688 0 0 0 5.4146-4.7138l2e-3 3.9e-4 2.3434-16.797-0.0016-3.9e-4a5.4688 5.4688 0 0 0 0.05416-0.75531 5.4688 5.4688 0 0 0-2.0424-4.2606l7.82e-4 -7.8e-4 -11.037-8.8749 7.5207-10.696 6.8581 5.4695 0.0069-0.0065a4.4922 4.4922 0 0 0 2.7942 0.98688 4.4922 4.4922 0 0 0 0.44594-0.03204l0.0012 0.0099 13.665-1.3668-0.0012-0.0095a4.4922 4.4922 0 0 0 4.0535-4.4609 4.4922 4.4922 0 0 0-4.4922-4.4922 4.4922 4.4922 0 0 0-0.44594 0.03204l-0.0012-0.0099-11.044 1.1044-7.642-10.998-0.0016 0.0016a6.8359 6.836 0 0 0-5.1479-2.9198l3.9e-4 -0.0012-15.647-1.0658-3.9e-4 0.0016a4.4922 4.4922 0 0 0-0.30473-0.01187zm45.49 17.944c0.01078 0.13704 0.01793 0.27495 0.01793 0.41466 6e-6 2.2125-1.3772 4.1143-3.3173 4.8946l7.1671 4.6139 3.3833-5.2551z"/>
</svg>
