<?xml version="1.0" encoding="UTF-8"?>
<!-- Created with Inkscape (http://www.inkscape.org/) -->
<svg width="512" height="512" version="1.1" viewBox="0 0 512 512" xml:space="preserve" xmlns="http://www.w3.org/2000/svg"><g><path d="m117 0a6.0005 6.0005 0 0 0-6 6v500a6.0005 6.0005 0 0 0 6 6h278a6.0005 6.0005 0 0 0 6-6v-500a6.0005 6.0005 0 0 0-6-6zm6 12h266v488h-266z" color="#000000"/><path d="m363 150a35 35 0 0 0-28.793 15.453l-0.14844-0.13671-35.965 52.832-53.703-7.8984-0.01562-0.00195a23 23 0 0 0-0.0293-0.00391 23 23 0 0 0-3.3457-0.24414 23 23 0 0 0-23 23 23 23 0 0 0 19.654 22.75v0.00586l0.07226 0.00976 67.928 9.9902v-0.00586a23 23 0 0 0 3.3457 0.25 23 23 0 0 0 14.229-4.9922l0.0371 0.03321 23.809-18.828 31.154 83.076 0.08398-0.03125a35 35 0 0 0 4.6875 8.2793v-176.94a35 35 0 0 0-20-6.5957z"/><circle cx="319.49" cy="105.55" r="48"/></g></svg>
