<svg width="100" height="100" version="1.1" viewBox="0 0 100 100" xmlns="http://www.w3.org/2000/svg">
 <path d="m22.851 0a1.172 1.172 0 0 0-1.1719 1.1719v97.657a1.172 1.172 0 0 0 1.1719 1.1719h54.297a1.172 1.172 0 0 0 1.1719-1.1719v-97.657a1.172 1.172 0 0 0-1.1719-1.1719zm1.1719 2.3438h51.953v95.313h-51.953zm38.377 8.8967a9.3751 9.3751 0 0 0-9.3751 9.3751 9.3751 9.3751 0 0 0 9.3751 9.3751 9.3751 9.3751 0 0 0 9.3751-9.3751 9.3751 9.3751 0 0 0-9.3751-9.3751zm8.4981 18.057a6.836 6.836 0 0 0-5.6237 3.0182l-0.029-0.0267-7.0244 10.319-10.489-1.5427-3e-3 -3.9e-4a4.4922 4.4922 0 0 0-6e-3 -7.82e-4 4.4922 4.4922 0 0 0-0.65347-0.04766 4.4922 4.4922 0 0 0-4.4922 4.4922 4.4922 4.4922 0 0 0 3.8388 4.4434v0.0012l0.0141 2e-3 13.267 1.9512v-0.0012a4.4922 4.4922 0 0 0 0.65345 0.04883 4.4922 4.4922 0 0 0 2.779-0.97504l7e-3 0.0065 4.6502-3.6774 6.0849 16.226 0.0164-0.0061a6.836 6.836 0 0 0 0.91552 1.6171v-34.559a6.836 6.836 0 0 0-3.9063-1.2882z"/>
</svg>
