<?xml version="1.0" encoding="UTF-8"?>
<!-- Created with Inkscape (http://www.inkscape.org/) -->
<svg width="512" height="512" version="1.1" viewBox="0 0 512 512" xml:space="preserve" xmlns="http://www.w3.org/2000/svg"><g><path d="m168.18 82.615a24.5 24.5 0 0 0-23.412 17.344l-0.0176-0.0039-42.479 133.38 0.0508 0.0117a37.5 37.5 0 0 0-1.8184 11.367 37.5 37.5 0 0 0 37.5 37.5 37.5 37.5 0 0 0 37.172-32.891l0.043 0.01 17.273-139.2-0.0293-6e-3a24.5 24.5 0 0 0 0.2168-3.0117 24.5 24.5 0 0 0-24.5-24.5z"/><path d="m232 114a35 35 0 0 0-34.73 31.234l-0.0664-8e-3 -16.627 143.78a35 35 0 0 0-0.57618 5.9943 35 35 0 0 0 4.0469 16.109l-9.8535 61.24-57.328 97.453 0.0508 0.0293a28 28 0 0 0-3.916 14.168 28 28 0 0 0 28 28 28 28 0 0 0 24.084-13.832l0.0508 0.0293 60-102-0.0508-0.0293a28 28 0 0 0 3.5312-9.7227l0.0293 4e-3 5.9668-37.084 42.139 36.871 14.531 101.72h2e-3a28 28 0 0 0 27.717 24.041 28 28 0 0 0 28-28 28 28 0 0 0-0.28516-3.9609h4e-3l-16-112-4e-3 -6e-3a28 28 0 0 0-9.2832-17.102l6e-3 -6e-3 -70.43-61.627 9.2402-79.902 26.373 26.75 0.041-0.041a23 23 0 0 0 8.9375 5.6172l-0.0156 0.0469 90.998 31 0.0156-0.0469a23 23 0 0 0 5.4022 1.0979v226.18a6 6 0 0 0 6 6 6 6 0 0 0 6-6v-228.46a23 23 0 0 0 13-20.539 23 23 0 0 0-13-20.508v-60.492a6 6 0 0 0-6-6 6 6 0 0 0-6 6v56.021l-76.432-26.035-48.684-49.377a35 35 0 0 0 0.11523-1.6094 35 35 0 0 0-35-35z"/><circle cx="249" cy="49" r="48"/></g></svg>
