<?xml version="1.0" encoding="UTF-8" standalone="no"?>
<svg
   xmlns:dc="http://purl.org/dc/elements/1.1/"
   xmlns:cc="http://creativecommons.org/ns#"
   xmlns:rdf="http://www.w3.org/1999/02/22-rdf-syntax-ns#"
   xmlns:svg="http://www.w3.org/2000/svg"
   xmlns="http://www.w3.org/2000/svg"
   xmlns:sodipodi="http://sodipodi.sourceforge.net/DTD/sodipodi-0.dtd"
   xmlns:inkscape="http://www.inkscape.org/namespaces/inkscape"
   width="100mm"
   height="100mm"
   viewBox="0 0 100 100"
   version="1.1"
   id="svg8"
   inkscape:version="1.0.2-2 (e86c870879, 2021-01-15)"
   sodipodi:docname="ac.svg">
  <defs
     id="defs2" />
  <sodipodi:namedview
     id="base"
     pagecolor="#ffffff"
     bordercolor="#666666"
     borderopacity="1.0"
     inkscape:pageopacity="0.0"
     inkscape:pageshadow="2"
     inkscape:zoom="2"
     inkscape:cx="145.29171"
     inkscape:cy="190.64032"
     inkscape:document-units="mm"
     inkscape:current-layer="layer1"
     showgrid="false"
     inkscape:window-width="1920"
     inkscape:window-height="1001"
     inkscape:window-x="-9"
     inkscape:window-y="-9"
     inkscape:window-maximized="1"
     inkscape:document-rotation="0" />
  <metadata
     id="metadata5">
    <rdf:RDF>
      <cc:Work
         rdf:about="">
        <dc:format>image/svg+xml</dc:format>
        <dc:type
           rdf:resource="http://purl.org/dc/dcmitype/StillImage" />
        <dc:title></dc:title>
      </cc:Work>
    </rdf:RDF>
  </metadata>
  <g
     inkscape:label="Layer 1"
     inkscape:groupmode="layer"
     id="layer1"
     transform="translate(0,-197)">
    <path
       style="fill:#000000;stroke-width:0.156261"
       d="m 44.12872,294.14799 c -6.73345,-3.40314 -8.703535,-4.62444 -12.820194,-7.94758 -9.134918,-7.37408 -15.277669,-16.9546 -17.745265,-27.67637 -0.99974,-4.34389 -1.109667,-5.60299 -1.176366,-13.47418 -0.0335,-3.95338 -0.0065,-13.6907 0.05996,-21.63848 l 0.12087,-14.45049 37.416801,-11.96114 37.432193,11.9798 0.120948,15.3006 c 0.200044,25.30693 0.125499,28.21532 -0.844781,32.95804 -2.386779,11.66666 -8.710766,21.61255 -18.874774,29.68479 -3.073305,2.44082 -6.31434,4.39668 -12.047748,7.27044 -3.086791,1.5472 -5.702391,2.81004 -5.81244,2.80632 -0.110053,-0.004 -2.733195,-1.28701 -5.829206,-2.85175 z m 10.097332,-5.11818 c 5.351323,-2.67718 7.371207,-3.93104 11.133413,-6.91121 1.752093,-1.3879 5.219389,-4.78783 6.934672,-6.79995 5.021358,-5.89033 8.369809,-13.37649 9.659732,-21.59632 0.376363,-2.39832 0.439779,-7.63918 0.306867,-25.36082 L 82.144219,212.82579 49.957532,202.481 17.853364,212.82695 17.749912,223.46929 c -0.146796,15.10114 -0.123862,26.64796 0.05636,28.37791 1.454396,13.96047 9.179081,25.8753 22.07398,34.04771 1.494625,0.94726 9.684705,5.14579 10.07406,5.16433 0.108066,0.005 2.030348,-0.90809 4.271736,-2.02943 z m -7.916682,-3.78765 c -9.027962,-4.5872 -15.452357,-10.50881 -19.87093,-18.31582 -2.528897,-4.4682 -4.192551,-9.80905 -4.71772,-15.14534 -0.179934,-1.82831 -0.193607,-14.98475 -0.02923,-28.13063 l 0.09564,-7.64858 28.188816,-9.00136 28.221384,8.99479 0.09509,8.58942 c 0.188919,17.06509 0.15948,25.45126 -0.09704,27.64419 -1.440156,12.31148 -7.911546,22.44586 -19.122883,29.94698 -1.931765,1.29248 -8.62838,4.83796 -9.111972,4.82429 -0.111478,-0.003 -1.754491,-0.79423 -3.651145,-1.75794 z"
       id="path839"
       inkscape:connector-curvature="0"
       sodipodi:nodetypes="csssccccscssccccscsscccssccccssscccscsccc" />
  </g>
</svg>
