<?xml version="1.0" encoding="UTF-8" standalone="no"?>
<svg
   xmlns:dc="http://purl.org/dc/elements/1.1/"
   xmlns:cc="http://creativecommons.org/ns#"
   xmlns:rdf="http://www.w3.org/1999/02/22-rdf-syntax-ns#"
   xmlns:svg="http://www.w3.org/2000/svg"
   xmlns="http://www.w3.org/2000/svg"
   xmlns:sodipodi="http://sodipodi.sourceforge.net/DTD/sodipodi-0.dtd"
   xmlns:inkscape="http://www.inkscape.org/namespaces/inkscape"
   aria-hidden="true"
   focusable="false"
   data-prefix="fas"
   data-icon="book-open"
   class="svg-inline--fa fa-book-open fa-w-18"
   role="img"
   viewBox="0 0 453.54332 377.95278"
   version="1.1"
   id="svg4"
   sodipodi:docname="book.svg"
   width="120mm"
   height="100mm"
   inkscape:version="1.0.2-2 (e86c870879, 2021-01-15)">
  <metadata
     id="metadata10">
    <rdf:RDF>
      <cc:Work
         rdf:about="">
        <dc:format>image/svg+xml</dc:format>
        <dc:type
           rdf:resource="http://purl.org/dc/dcmitype/StillImage" />
        <dc:title></dc:title>
      </cc:Work>
    </rdf:RDF>
  </metadata>
  <defs
     id="defs8" />
  <sodipodi:namedview
     pagecolor="#ffffff"
     bordercolor="#666666"
     borderopacity="1"
     objecttolerance="10"
     gridtolerance="10"
     guidetolerance="10"
     inkscape:pageopacity="0"
     inkscape:pageshadow="2"
     inkscape:window-width="1920"
     inkscape:window-height="1001"
     id="namedview6"
     showgrid="false"
     inkscape:document-units="mm"
     units="mm"
     inkscape:zoom="1.3037281"
     inkscape:cx="288"
     inkscape:cy="194.63751"
     inkscape:window-x="-9"
     inkscape:window-y="-9"
     inkscape:window-maximized="1"
     inkscape:current-layer="svg4"
     inkscape:document-rotation="0" />
  <path
     d="m 393.58888,45.349477 c -35.95864,1.994577 -107.42971,9.254593 -151.5512,35.652307 -3.04467,1.821413 -4.77043,5.0602 -4.77043,8.446492 V 322.81409 c 0,7.40752 8.28755,12.08934 15.27587,8.65174 45.39448,-22.3316 111.04524,-28.42437 143.50642,-30.09185 11.08288,-0.57081 19.69851,-9.25462 19.69851,-19.66362 V 65.038735 C 415.75505,53.680529 405.6757,44.682478 393.58888,45.349477 Z M 211.50566,81.001784 C 167.39072,54.60407 95.919648,47.350467 59.961017,45.349477 47.874192,44.682478 37.795277,53.680529 37.795277,65.038735 V 281.71676 c 0,10.41543 8.615636,19.09924 19.698505,19.66363 32.47432,1.66748 98.157878,7.76666 143.552368,30.11109 6.96863,3.43119 15.22993,-1.24422 15.22993,-8.63249 V 89.332846 c 0,-3.392714 -1.71919,-6.503228 -4.77042,-8.331062 z"
     id="path2"
     inkscape:connector-curvature="0"
     style="fill:currentColor;stroke-width:0.64872" />
</svg>
