<?xml version="1.0" encoding="UTF-8" standalone="no"?>
<svg
   xmlns:dc="http://purl.org/dc/elements/1.1/"
   xmlns:cc="http://creativecommons.org/ns#"
   xmlns:rdf="http://www.w3.org/1999/02/22-rdf-syntax-ns#"
   xmlns:svg="http://www.w3.org/2000/svg"
   xmlns="http://www.w3.org/2000/svg"
   xmlns:sodipodi="http://sodipodi.sourceforge.net/DTD/sodipodi-0.dtd"
   xmlns:inkscape="http://www.inkscape.org/namespaces/inkscape"
   aria-hidden="true"
   focusable="false"
   data-prefix="fas"
   data-icon="book-open"
   class="svg-inline--fa fa-book-open fa-w-18"
   role="img"
   viewBox="0 0 377.95277 377.95278"
   version="1.1"
   id="svg4"
   sodipodi:docname="book.svg"
   width="100mm"
   height="100mm"
   inkscape:version="0.92.4 (5da689c313, 2019-01-14)">
  <metadata
     id="metadata10">
    <rdf:RDF>
      <cc:Work
         rdf:about="">
        <dc:format>image/svg+xml</dc:format>
        <dc:type
           rdf:resource="http://purl.org/dc/dcmitype/StillImage" />
        <dc:title></dc:title>
      </cc:Work>
    </rdf:RDF>
  </metadata>
  <defs
     id="defs8" />
  <sodipodi:namedview
     pagecolor="#ffffff"
     bordercolor="#666666"
     borderopacity="1"
     objecttolerance="10"
     gridtolerance="10"
     guidetolerance="10"
     inkscape:pageopacity="0"
     inkscape:pageshadow="2"
     inkscape:window-width="1366"
     inkscape:window-height="715"
     id="namedview6"
     showgrid="false"
     inkscape:document-units="mm"
     units="mm"
     inkscape:zoom="1.3037281"
     inkscape:cx="288"
     inkscape:cy="194.63751"
     inkscape:window-x="-8"
     inkscape:window-y="-8"
     inkscape:window-maximized="1"
     inkscape:current-layer="svg4" />
  <path
     d="m 355.50334,45.600755 c -35.89607,1.991115 -107.24278,9.238524 -151.2875,35.590402 -3.03937,1.818251 -4.76213,5.051414 -4.76213,8.431826 V 322.58359 c 0,7.39466 8.27313,12.06834 15.24929,8.63671 45.31549,-22.29282 110.85202,-28.37501 143.25672,-30.0396 11.06359,-0.56981 19.66423,-9.23854 19.66423,-19.62947 V 65.255826 c 0.007,-11.338484 -10.05482,-20.320911 -22.12061,-19.655071 z M 173.73694,81.191157 C 129.69876,54.839279 58.352054,47.598272 22.455991,45.600755 10.390197,44.934915 0.32881891,53.917342 0.32881891,65.255826 V 281.55762 c 0,10.39735 8.60064439,19.06608 19.66423009,19.62948 32.417814,1.66459 97.987081,7.75318 143.302581,30.05881 6.95651,3.42523 15.20343,-1.24205 15.20343,-8.6175 V 89.507753 c 0,-3.386823 -1.7162,-6.491935 -4.76212,-8.316596 z"
     id="path2"
     inkscape:connector-curvature="0"
     style="fill:currentColor;stroke-width:0.64759165" />
</svg>
