<?xml version="1.0" encoding="UTF-8" standalone="no"?>
<!-- Created with Inkscape (http://www.inkscape.org/) -->

<svg
   xmlns:dc="http://purl.org/dc/elements/1.1/"
   xmlns:cc="http://creativecommons.org/ns#"
   xmlns:rdf="http://www.w3.org/1999/02/22-rdf-syntax-ns#"
   xmlns:svg="http://www.w3.org/2000/svg"
   xmlns="http://www.w3.org/2000/svg"
   xmlns:sodipodi="http://sodipodi.sourceforge.net/DTD/sodipodi-0.dtd"
   xmlns:inkscape="http://www.inkscape.org/namespaces/inkscape"
   width="100mm"
   height="100mm"
   viewBox="0 0 100 100"
   version="1.1"
   id="svg8"
   inkscape:version="0.92.4 (5da689c313, 2019-01-14)"
   sodipodi:docname="item.svg">
  <defs
     id="defs2" />
  <sodipodi:namedview
     id="base"
     pagecolor="#ffffff"
     bordercolor="#666666"
     borderopacity="1.0"
     inkscape:pageopacity="0.0"
     inkscape:pageshadow="2"
     inkscape:zoom="1"
     inkscape:cx="195.65226"
     inkscape:cy="181"
     inkscape:document-units="mm"
     inkscape:current-layer="layer1"
     showgrid="false"
     inkscape:window-width="1366"
     inkscape:window-height="715"
     inkscape:window-x="-8"
     inkscape:window-y="-8"
     inkscape:window-maximized="1" />
  <metadata
     id="metadata5">
    <rdf:RDF>
      <cc:Work
         rdf:about="">
        <dc:format>image/svg+xml</dc:format>
        <dc:type
           rdf:resource="http://purl.org/dc/dcmitype/StillImage" />
        <dc:title></dc:title>
      </cc:Work>
    </rdf:RDF>
  </metadata>
  <g
     inkscape:label="Layer 1"
     inkscape:groupmode="layer"
     id="layer1"
     transform="translate(0,-197)">
    <path
       style="fill:#000000;stroke-width:0.15082957"
       d="m 49.799515,288.38706 c -0.08988,-0.28198 -0.874518,-3.12581 -1.743645,-6.31963 -0.869126,-3.19381 -2.540346,-9.30241 -3.713819,-13.57466 -1.173474,-4.27224 -2.325204,-8.48039 -2.5594,-9.35143 -0.234195,-0.87104 -1.310682,-4.80769 -2.392195,-8.74811 -4.081248,-14.86981 -6.660339,-24.30635 -6.660339,-24.36927 0,-0.0358 7.771493,-0.0651 17.269985,-0.0651 9.498492,0 17.269986,0.032 17.269986,0.0712 0,0.0392 -0.682823,2.56745 -1.517381,5.6184 -0.834559,3.05094 -2.01773,7.37975 -2.629266,9.61957 -0.611537,2.23982 -1.96933,7.19457 -3.01732,11.01055 -1.047991,3.81599 -2.778542,10.12821 -3.84567,14.02715 -1.067128,3.89895 -2.869175,10.48266 -4.004549,14.63047 -1.135376,4.14781 -2.115764,7.63645 -2.178644,7.75251 -0.08089,0.14932 -0.162117,0.0611 -0.277743,-0.30166 z m 2.840056,-3.49157 c 0.229894,-0.8503 0.930499,-3.41252 1.556899,-5.69382 0.626401,-2.2813 2.402897,-8.7632 3.947773,-14.40422 1.544877,-5.64103 3.27469,-11.95324 3.844032,-14.02715 2.369855,-8.63253 4.335105,-15.80793 5.506201,-20.10391 0.684957,-2.51266 1.276989,-4.60008 1.315627,-4.63872 0.03864,-0.0386 7.076183,-0.053 15.638989,-0.0318 l 15.568738,0.0384 -7.142867,9.04977 c -14.864074,18.83227 -33.331462,42.25423 -36.828711,46.70941 -1.998081,2.54537 -3.67603,4.63248 -3.728773,4.63801 -0.05274,0.006 0.0922,-0.68565 0.322092,-1.53595 z m -6.427647,-0.27808 C 44.763019,282.78343 0.3586546,226.46629 0.10951,226.14667 c -0.1181358,-0.15155 2.9703145,-0.18159 15.508386,-0.15083 l 15.655899,0.0384 0.483536,1.80996 c 0.265943,0.99547 1.200559,4.42307 2.076923,7.61689 1.974868,7.1972 6.530048,23.82502 7.416876,27.0739 0.823139,3.01556 5.669373,20.70075 6.10827,22.2907 0.178327,0.64601 0.298914,1.25051 0.267969,1.34334 -0.03094,0.0928 -0.667892,-0.6054 -1.415444,-1.55163 z M 14.077907,224.45054 0.026,224.37514 4.4509975,217.58781 c 2.433749,-3.73304 5.278747,-8.0939 6.3222175,-9.6908 l 1.897219,-2.90347 h 10.952403 10.952401 l -0.06827,0.33936 c -0.03755,0.18665 -0.903903,4.51358 -1.925234,9.61539 -1.021332,5.10181 -1.910578,9.33626 -1.976104,9.40989 -0.158628,0.17826 -0.337989,0.17926 -16.527726,0.0924 z m 21.254021,0.0347 c -1.762821,-0.0224 -3.205128,-0.0809 -3.205128,-0.13008 0,-0.0492 0.511106,-2.61003 1.135795,-5.69082 0.624686,-3.08079 1.476282,-7.29827 1.892433,-9.37218 0.41615,-2.07391 0.79208,-3.88987 0.8354,-4.03547 0.07447,-0.25031 0.839721,-0.26264 14.048339,-0.22625 l 13.969576,0.0385 1.931386,9.64167 c 1.062262,5.30292 1.910275,9.66278 1.884473,9.68858 -0.06269,0.0627 -28.418666,0.1378 -32.492275,0.0861 z m 33.978077,-0.22325 c -0.06396,-0.19378 -3.849873,-19.07552 -3.849873,-19.20074 0,-0.0383 4.935564,-0.0523 10.967917,-0.031 l 10.967917,0.0387 6.155507,9.42685 c 3.38552,5.18477 6.223839,9.54563 6.30737,9.6908 0.144217,0.25065 -0.62031,0.26395 -15.167367,0.26395 -12.121651,0 -15.332231,-0.0393 -15.381471,-0.18854 z"
       id="path826"
       inkscape:connector-curvature="0" />
  </g>
</svg>
