<?xml version="1.0" encoding="UTF-8" standalone="no"?>
<svg
   xmlns:dc="http://purl.org/dc/elements/1.1/"
   xmlns:cc="http://creativecommons.org/ns#"
   xmlns:rdf="http://www.w3.org/1999/02/22-rdf-syntax-ns#"
   xmlns:svg="http://www.w3.org/2000/svg"
   xmlns="http://www.w3.org/2000/svg"
   xmlns:sodipodi="http://sodipodi.sourceforge.net/DTD/sodipodi-0.dtd"
   xmlns:inkscape="http://www.inkscape.org/namespaces/inkscape"
   aria-hidden="true"
   focusable="false"
   data-prefix="fas"
   data-icon="map-marker-alt"
   class="svg-inline--fa fa-map-marker-alt fa-w-12"
   role="img"
   viewBox="0 0 94.999999 100"
   version="1.1"
   id="svg837"
   sodipodi:docname="location.svg"
   width="95mm"
   height="100mm"
   inkscape:version="1.0.2-2 (e86c870879, 2021-01-15)">
  <metadata
     id="metadata843">
    <rdf:RDF>
      <cc:Work
         rdf:about="">
        <dc:format>image/svg+xml</dc:format>
        <dc:type
           rdf:resource="http://purl.org/dc/dcmitype/StillImage" />
        <dc:title></dc:title>
      </cc:Work>
    </rdf:RDF>
  </metadata>
  <defs
     id="defs841" />
  <sodipodi:namedview
     pagecolor="#ffffff"
     bordercolor="#666666"
     borderopacity="1"
     objecttolerance="10"
     gridtolerance="10"
     guidetolerance="10"
     inkscape:pageopacity="0"
     inkscape:pageshadow="2"
     inkscape:window-width="1920"
     inkscape:window-height="1001"
     id="namedview839"
     showgrid="false"
     inkscape:document-units="mm"
     units="mm"
     inkscape:zoom="1.0703125"
     inkscape:cx="192"
     inkscape:cy="256"
     inkscape:window-x="-9"
     inkscape:window-y="-9"
     inkscape:window-maximized="1"
     inkscape:current-layer="svg837"
     inkscape:document-rotation="0" />
  <path
     d="M 43.646096,97.982394 C 15.267578,56.841978 10,52.61971 10,37.49999 10,16.789254 26.789257,0 47.499998,0 68.210743,0 85,16.789254 85,37.49999 c 0,15.11972 -5.267576,19.341988 -33.646094,60.482404 -1.862303,2.690236 -5.845703,2.690036 -7.70781,0 z m 3.853902,-44.857405 c 8.629493,0 15.625005,-6.995506 15.625005,-15.624999 0,-8.629487 -6.995512,-15.624995 -15.625005,-15.624995 -8.629489,0 -15.624998,6.995508 -15.624998,15.624995 0,8.629493 6.995509,15.624999 15.624998,15.624999 z"
     id="path835"
     inkscape:connector-curvature="0"
     style="fill:currentColor;stroke-width:0.195313" />
</svg>
