<svg width="100" height="100" version="1.1" viewBox="0 0 100 100" xmlns="http://www.w3.org/2000/svg">
 <path d="m50 7.9359c-5.4411 0.00323-10.658 2.1653-14.508 6.0118-3.8496 3.8452-6.0166 9.0612-6.0254 14.502-0.01186 3.6127 0.95437 7.1583 2.7969 10.266l16.859 29.227c0.18012 0.31487 0.51547 0.50977 0.87696 0.50977 0.36309 0 0.69701-0.19602 0.87696-0.51172l16.879-29.225c1.8241-3.1182 2.7871-6.6658 2.7871-10.277 0-3.6121-0.96349-7.1588-2.7871-10.275v-2e-3c-1.7874-3.1249-4.3723-5.7186-7.4922-7.5156-3.1201-1.7961-6.6629-2.7316-10.264-2.709zm-0.0039 9.2383c2.8068-0.0011 5.5005 1.1132 7.4864 3.0977 1.9857 1.9835 3.1024 4.6757 3.1035 7.4825-0.0022 2.8079-1.1159 5.5005-3.1016 7.4864-1.9846 1.9857-4.6766 3.103-7.4844 3.1074-2.8068 0-5.4988-1.1151-7.4844-3.0996-1.9857-1.9857-3.1016-4.6777-3.1016-7.4844-0.0011-2.8079 1.1132-5.5005 3.0977-7.4864 1.9846-1.9857 4.6766-3.1024 7.4844-3.1035zm-36.02 26.111c-0.46222-0.0032-0.86627 0.30873-0.98047 0.75586l-12.959 46.739c-0.082961 0.30169-0.02233 0.62484 0.16406 0.87696 0.1907 0.25859 0.49425 0.4104 0.81641 0.4082h97.965c0.32213 0.0022 0.62463-0.14962 0.81641-0.4082h2e-3c0.18639-0.25213 0.24611-0.57526 0.16211-0.87696l-12.961-46.739c-0.11422-0.44713-0.51738-0.75906-0.97852-0.75586h-13.664l-1.9512 3.3809-17.315 29.955c-0.64609 1.0974-1.8192 1.7751-3.0938 1.7852-1.262-0.0051-2.43-0.67373-3.0723-1.7598l-17.311-29.981-1.9512-3.3809z"/>
</svg>
