<?xml version="1.0" encoding="UTF-8" standalone="no"?>
<svg
   xmlns:dc="http://purl.org/dc/elements/1.1/"
   xmlns:cc="http://creativecommons.org/ns#"
   xmlns:rdf="http://www.w3.org/1999/02/22-rdf-syntax-ns#"
   xmlns:svg="http://www.w3.org/2000/svg"
   xmlns="http://www.w3.org/2000/svg"
   xmlns:sodipodi="http://sodipodi.sourceforge.net/DTD/sodipodi-0.dtd"
   xmlns:inkscape="http://www.inkscape.org/namespaces/inkscape"
   width="120mm"
   height="100mm"
   viewBox="0 0 120 100"
   version="1.1"
   id="svg8"
   inkscape:version="1.0.2-2 (e86c870879, 2021-01-15)"
   sodipodi:docname="mob.svg">
  <defs
     id="defs2" />
  <sodipodi:namedview
     id="base"
     pagecolor="#ffffff"
     bordercolor="#666666"
     borderopacity="1.0"
     inkscape:pageopacity="0.0"
     inkscape:pageshadow="2"
     inkscape:zoom="1.4"
     inkscape:cx="207.5794"
     inkscape:cy="196.34508"
     inkscape:document-units="mm"
     inkscape:current-layer="layer1"
     showgrid="false"
     inkscape:window-width="1920"
     inkscape:window-height="1001"
     inkscape:window-x="-9"
     inkscape:window-y="-9"
     inkscape:window-maximized="1"
     inkscape:document-rotation="0" />
  <metadata
     id="metadata5">
    <rdf:RDF>
      <cc:Work
         rdf:about="">
        <dc:format>image/svg+xml</dc:format>
        <dc:type
           rdf:resource="http://purl.org/dc/dcmitype/StillImage" />
        <dc:title></dc:title>
      </cc:Work>
    </rdf:RDF>
  </metadata>
  <g
     inkscape:label="Layer 1"
     inkscape:groupmode="layer"
     id="layer1"
     transform="translate(0,-197)">
    <path
       style="fill:#000000;stroke-width:0.209835"
       d="m 49.25302,292.898 c -0.81153,-0.92291 -3.0297,-4.5407 -3.970538,-6.47587 -1.304592,-2.68336 -2.155826,-5.2565 -2.766878,-8.36382 l -0.485748,-2.47011 -1.861232,1.32392 c -3.136384,2.23096 -6.303314,5.05318 -11.39814,10.15746 l -4.878646,4.88771 v -0.81586 c 0,-1.51209 0.619933,-5.54096 1.242773,-8.07664 1.188757,-4.83965 3.218357,-9.81546 5.343881,-13.10119 l 0.958914,-1.48234 -2.671155,6.3e-4 c -3.500808,8.4e-4 -6.903895,0.32261 -10.027598,0.94783 -2.535571,0.50751 -6.185284,1.66325 -7.712065,2.44217 -0.448053,0.22857 -0.858209,0.37203 -0.911457,0.31877 -0.2638536,-0.26376 2.638384,-6.22652 4.712122,-9.68115 3.414257,-5.68778 7.864575,-10.42463 12.631768,-13.44506 l 0.944253,-0.59827 -0.734419,-0.17385 c -1.384893,-0.32782 -6.558178,-0.43342 -8.917955,-0.18202 -1.269497,0.13524 -3.716207,0.52767 -5.437132,0.87206 -1.720926,0.34438 -3.208667,0.59958 -3.306092,0.56711 -0.097425,-0.0325 0.744054,-1.07869 1.869951,-2.32492 4.925196,-5.45161 10.710115,-9.59134 16.81138,-12.03038 0.470349,-0.18802 0.386685,-0.29364 -1.644137,-2.07558 -4.017159,-3.52485 -7.708738,-5.75803 -11.928862,-7.21622 -0.96051,-0.3319 -1.668701,-0.65088 -1.573756,-0.70886 0.09494,-0.058 1.438197,-0.22215 2.985004,-0.36481 3.855982,-0.35565 12.252378,-0.14542 15.714811,0.39346 1.418885,0.22084 2.624355,0.44608 2.678824,0.50055 0.05447,0.0545 0.339359,0.928 0.633089,1.94119 0.525502,1.81264 1.563674,4.37576 2.148241,5.30376 l 0.297985,0.47305 1.653731,-0.89272 c 0.909549,-0.49099 1.653821,-0.96667 1.653935,-1.05707 1.14e-4,-0.0904 -0.236433,-0.63134 -0.525659,-1.2021 -1.252592,-2.47188 -1.797341,-4.61291 -2.213471,-8.69965 -0.453962,-4.45828 0.118537,-9.28826 1.611538,-13.59601 0.732889,-2.1146 3.142656,-7.07867 3.436282,-7.07867 0.08274,0 2.048706,4.13113 4.368805,9.18027 3.798048,8.26556 4.266186,9.17856 4.698352,9.16318 0.264001,-0.009 1.329825,-0.12717 2.368502,-0.26171 6.674768,-0.86455 14.533821,0.38922 20.787329,3.31626 l 2.11209,0.98859 3.238682,-0.38598 c 6.340329,-0.75562 12.944689,-1.41667 16.563161,-1.65785 3.437307,-0.2291 12.009217,-0.22125 12.239507,0.0113 0.0572,0.0577 -0.24189,1.76298 -0.66456,3.78947 l -0.76848,3.68457 -2.51642,3.28354 c -1.38403,1.80594 -2.57442,3.21672 -2.64532,3.13506 -0.0709,-0.0817 -0.44906,-1.30519 -0.84037,-2.71896 -0.39132,-1.41375 -0.76988,-2.57046 -0.84125,-2.57046 -0.0714,0 -1.20473,1.36846 -2.518569,3.041 -1.313834,1.67256 -2.439452,3.04173 -2.501367,3.04261 -0.06191,8.4e-4 -0.383337,-1.17873 -0.714278,-2.62135 -0.330932,-1.4426 -0.669552,-2.62292 -0.752483,-2.62292 -0.08292,0 -1.176376,1.32195 -2.429874,2.93768 -1.253498,1.61573 -2.327805,2.93758 -2.387368,2.93745 -0.0595,-1.4e-4 -0.427793,-1.20406 -0.818297,-2.6754 -0.390513,-1.47133 -0.751879,-2.74872 -0.803049,-2.83865 -0.05116,-0.0899 -1.181572,1.27924 -2.512021,3.0426 -1.330439,1.76336 -2.443644,3.23282 -2.473767,3.26547 -0.03015,0.0327 -0.354249,-1.05324 -0.720269,-2.4131 -0.366009,-1.35986 -0.739064,-2.65408 -0.829001,-2.87606 -0.184497,-0.45536 -0.429311,-0.053 -3.247548,5.33749 l -1.592178,3.04539 -0.13983,4.29883 c -0.09046,2.78242 -0.06794,4.22481 0.06392,4.089 0.112089,-0.11541 1.221103,-1.55991 2.464479,-3.21 1.243366,-1.6501 2.291752,-2.96911 2.329725,-2.93112 0.03799,0.038 0.401831,1.28314 0.808568,2.76702 0.406726,1.48388 0.77563,2.73409 0.819794,2.77826 0.04412,0.0441 1.156274,-1.33775 2.471375,-3.07089 1.3151,-1.73316 2.438648,-3.15158 2.496783,-3.15205 0.05809,-4.2e-4 0.441795,1.19694 0.852581,2.66089 l 0.746895,2.66175 2.274233,-2.9765 c 1.250834,-1.63707 2.331011,-2.9765 2.400394,-2.9765 0.06935,0 0.446327,1.15672 0.837645,2.57048 0.391318,1.41376 0.770615,2.63841 0.842882,2.72146 0.07227,0.083 1.257327,-1.27903 2.633458,-3.02682 l 2.502047,-3.17778 0.65144,2.50222 0.65144,2.50222 -0.92986,1.88851 c -0.51143,1.03869 -1.38902,2.70339 -1.9502,3.69935 l -1.020332,1.81084 -2.4664,0.14184 c -9.068809,0.52155 -17.172053,1.66659 -25.967826,3.66943 -7.542757,1.71751 -12.408203,3.32772 -16.965997,5.61491 -1.021851,0.51278 -1.906575,0.88369 -1.966037,0.82423 -0.0595,-0.0595 0.507076,-2.87453 1.258965,-6.25568 0.954399,-4.29172 1.296557,-6.19152 1.133428,-6.29314 -0.83274,-0.51879 -5.488666,-0.57929 -7.748669,-0.1007 -0.77901,0.16497 -1.416381,0.21638 -1.416381,0.11424 0,-0.10214 1.274742,-2.73385 2.832762,-5.84825 1.558015,-3.1144 2.83276,-5.73874 2.83276,-5.83186 0,-0.21337 -3.310332,-1.83915 -3.453429,-1.69605 -0.18807,0.18807 -10.131549,20.43048 -10.070989,20.50199 0.03225,0.0381 1.669972,-0.55024 3.639373,-1.30737 3.719685,-1.43002 5.836254,-2.06452 7.762926,-2.32717 1.113084,-0.15174 1.128432,-0.14653 1.007437,0.34168 -0.704092,2.84083 -3.721338,16.81805 -3.646625,16.89277 0.05416,0.0542 1.31284,-0.67738 2.79709,-1.6256 1.484249,-0.94824 3.766774,-2.28645 5.072276,-2.97379 l 2.373638,-1.24973 -0.304165,0.70635 c -0.16729,0.38848 -0.652826,1.50895 -1.078981,2.48993 -2.996613,6.89799 -4.972299,15.64952 -5.204237,23.05281 -0.04553,1.45173 -0.06905,1.52122 -0.391911,1.15409 z m 21.10411,-63.11683 c 1.503869,-0.45258 2.555431,-1.25279 3.259357,-2.48022 0.347395,-0.60576 0.632513,-1.20846 0.633599,-1.33935 0.003,-0.31562 -2.53142,-1.24235 -5.138976,-1.87939 -2.207042,-0.53918 -6.459746,-0.73952 -6.875377,-0.3239 -0.293793,0.29379 0.819794,2.22773 1.9547,3.39471 1.085916,1.1166 2.391207,1.99585 3.766594,2.53721 1.165209,0.45863 1.176919,0.45907 2.400113,0.091 z"
       id="path826"
       inkscape:connector-curvature="0" />
  </g>
</svg>
