<?xml version="1.0" encoding="UTF-8" standalone="no"?>
<!-- Created with Inkscape (http://www.inkscape.org/) -->

<svg
   xmlns:dc="http://purl.org/dc/elements/1.1/"
   xmlns:cc="http://creativecommons.org/ns#"
   xmlns:rdf="http://www.w3.org/1999/02/22-rdf-syntax-ns#"
   xmlns:svg="http://www.w3.org/2000/svg"
   xmlns="http://www.w3.org/2000/svg"
   xmlns:sodipodi="http://sodipodi.sourceforge.net/DTD/sodipodi-0.dtd"
   xmlns:inkscape="http://www.inkscape.org/namespaces/inkscape"
   width="100mm"
   height="100mm"
   viewBox="0 0 100 100"
   version="1.1"
   id="svg8"
   inkscape:version="0.92.4 (5da689c313, 2019-01-14)"
   sodipodi:docname="monster2.svg">
  <defs
     id="defs2" />
  <sodipodi:namedview
     id="base"
     pagecolor="#ffffff"
     bordercolor="#666666"
     borderopacity="1.0"
     inkscape:pageopacity="0.0"
     inkscape:pageshadow="2"
     inkscape:zoom="1.4"
     inkscape:cx="203.28639"
     inkscape:cy="188.57143"
     inkscape:document-units="mm"
     inkscape:current-layer="layer1"
     showgrid="false"
     inkscape:window-width="1366"
     inkscape:window-height="715"
     inkscape:window-x="-8"
     inkscape:window-y="-8"
     inkscape:window-maximized="1" />
  <metadata
     id="metadata5">
    <rdf:RDF>
      <cc:Work
         rdf:about="">
        <dc:format>image/svg+xml</dc:format>
        <dc:type
           rdf:resource="http://purl.org/dc/dcmitype/StillImage" />
        <dc:title></dc:title>
      </cc:Work>
    </rdf:RDF>
  </metadata>
  <g
     inkscape:label="Layer 1"
     inkscape:groupmode="layer"
     id="layer1"
     transform="translate(0,-197)">
    <path
       style="fill:#000000;stroke-width:0.20797206"
       d="m 22.953554,296.88154 c 0,-0.32503 4.238069,-5.08231 6.587158,-7.39414 3.369812,-3.31637 6.431664,-5.94143 12.567394,-10.77456 11.484026,-9.046 15.853275,-13.01584 18.991838,-17.25574 2.703489,-3.65214 3.440597,-5.56123 3.038576,-7.8698 -0.330294,-1.89668 -0.608667,-2.47238 -1.854619,-3.83554 l -1.08085,-1.18254 1.142332,-0.86247 c 1.023411,-0.77267 4.776787,-5.49607 6.852274,-8.62315 1.532175,-2.30849 -0.119071,-0.89024 -5.065584,4.3508 -3.855268,4.08482 -4.141706,4.33994 -5.802616,5.16807 -2.219787,1.10678 -3.168353,1.1212 -6.259778,0.0952 -2.794262,-0.92741 -4.070773,-1.19487 -5.702808,-1.19487 -4.038096,0 -9.944125,2.83781 -16.073986,7.72348 -4.543356,3.62116 -4.689485,3.67247 -12.984348,4.55855 -3.034223,0.32412 -4.355164,0.054 -6.330993,-1.29453 -1.8083531,-1.23426 -1.8354121,-1.4208 -0.206088,-1.4208 4.808973,0 10.13579,-2.61066 15.521067,-7.60686 5.58206,-5.17877 9.460804,-7.81664 15.118574,-10.2819 1.629983,-0.71024 2.963605,-1.41146 2.963605,-1.55828 0,-0.30106 -1.58541,-1.3728 -2.751506,-1.86002 -2.197621,-0.91823 -7.3807,0.15366 -12.014527,2.48466 -2.414218,1.21444 -3.475233,1.96012 -6.044246,4.2479 -1.995619,1.77716 -2.73026,2.2849 -4.562342,3.15318 -3.408953,1.6156 -3.579096,1.71421 -4.03861,2.3406 -0.369027,0.50304 -0.425676,0.84778 -0.38448,2.33968 0.02658,0.96234 -0.02957,1.74971 -0.124775,1.74971 -0.296713,0 -1.812076,-1.17534 -2.276374,-1.76561 -0.243377,-0.30939 -0.559455,-0.88597 -0.702398,-1.28126 -0.204743,-0.56622 -0.349477,-0.69702 -0.682054,-0.61642 -0.232188,0.0563 -1.0304791,0.16088 -1.7739801,0.23247 -1.7758291,0.17099 -3.0640481,0.64053 -3.2349891,1.17911 -0.07419,0.23373 -0.07295,0.92057 0.0028,1.52633 0.173359,1.38751 -0.102989,1.59426 -0.926216,0.69294 -0.5866131,-0.64226 -0.8413591,-1.20693 -1.1243341,-2.4922 -0.08307,-0.37731 -0.300226,-0.59369 -0.694589,-0.69211 -1.6344651,-0.40789 -2.73090221,-1.96133 -2.98564023,-4.23007 -0.31207401,-2.7794 0.71083303,-6.88958 2.06046413,-8.27925 1.3753811,-1.41618 2.6574312,-1.65177 4.2821192,-0.78689 1.7200711,0.91567 2.9275361,0.65817 4.9081472,-1.04668 0.629116,-0.54153 1.507992,-1.17258 1.953057,-1.40235 0.778951,-0.40212 0.854872,-0.40494 2.030421,-0.0751 l 1.221212,0.34266 1.028487,-0.55977 c 1.504906,-0.81906 4.08522,-2.95921 5.534586,-4.59045 0.695841,-0.78315 2.595283,-3.28905 4.220986,-5.56864 l 2.955822,-4.14473 0.0752,-1.33959 c 0.153438,-2.73343 2.271052,-5.70821 4.973513,-6.98668 3.109651,-1.4711 7.599694,-1.48253 12.04435,-0.0307 0.890016,0.29072 2.019258,0.52859 2.509426,0.52859 0.80099,0 1.037869,-0.13209 2.339875,-1.30474 3.158792,-2.84498 5.948596,-4.69554 9.991062,-6.62739 3.167421,-1.51366 4.175814,-1.91067 6.544247,-2.57659 2.087231,-0.58685 2.750122,-0.57491 1.669761,0.03 -2.145896,1.20167 -4.517666,2.79498 -6.227739,4.18368 -1.855244,1.50658 -4.485615,4.41603 -5.144669,5.6905 l -0.312586,0.60446 h 0.664215 c 0.365318,0 1.266305,0.10489 2.00219,0.23299 l 1.337977,0.23301 1.706077,-1.7066 c 0.938345,-0.93862 2.44964,-2.2195 3.358437,-2.84638 2.001995,-1.38097 7.617487,-4.17671 10.154006,-5.0553 2.13265,-0.7387 4.677401,-1.35281 4.857891,-1.17233 0.16136,0.16137 0.25755,0.0975 -2.03865,1.35383 -1.094141,0.59866 -2.638331,1.56317 -3.431541,2.14337 -1.61016,1.17776 -7.268608,6.81793 -7.843413,7.81807 l -0.370011,0.64383 0.889943,0.22673 c 5.601211,1.42705 12.956602,4.65462 17.088432,7.49846 1.74982,1.20435 5.11866,4.56264 5.11866,5.10261 0,0.24147 -0.0778,0.28604 -0.25996,0.14888 -0.86605,-0.65215 -2.67587,-1.708 -3.43575,-2.0044 -0.93594,-0.36509 -2.54345,-0.4711 -2.54345,-0.16773 0,0.0983 0.3544,0.5896 0.78756,1.09184 1.92015,2.22641 3.44181,4.36251 5.0941,7.15111 0.20372,0.34383 1.02311,1.94638 1.82087,3.56125 4.35676,8.81921 6.496824,18.56773 6.317871,28.77957 -0.11177,6.37917 -1.11398,11.7724 -3.053071,16.42979 -1.0745,2.58073 -1.25368,2.79812 -1.44038,1.74745 -0.0793,-0.44637 -0.14962,-1.5539 -0.15621,-2.46119 -0.0205,-2.81235 -1.15626,-6.16132 -2.29665,-6.77163 -0.39435,-0.21105 -0.41898,-0.16233 -0.41898,0.82889 0,2.50849 -1.739,9.01772 -3.44697,12.90234 -0.85319,1.94051 -3.25951,6.48915 -4.69985,8.88409 L 83.445646,297 H 53.199573 C 36.564266,297 22.95356,296.9467 22.95356,296.88151 Z m -8.176426,-59.45159 c 1.240498,0.13087 1.282177,0.11988 1.170143,-0.30854 -0.0639,-0.24432 -0.376125,-0.72251 -0.693845,-1.06263 -0.878582,-0.94052 -1.75694,-0.85838 -2.838868,0.26548 -0.467996,0.48614 -0.956148,1.08966 -1.084784,1.34117 l -0.233883,0.4573 1.197462,-0.41425 c 0.937077,-0.32417 1.477167,-0.38474 2.483775,-0.27853 z m 21.486655,-10.26954 c 2.373122,-0.76085 7.306015,-3.06827 7.426474,-3.47382 0.08488,-0.28574 -2.070682,-1.44121 -3.435101,-1.84135 -2.457155,-0.72058 -4.323216,0.51033 -5.551976,3.66222 -0.350189,0.89827 -0.848438,1.74681 -1.229816,2.09442 -0.622919,0.56777 -0.62636,0.58068 -0.121193,0.45484 0.285962,-0.0712 1.596187,-0.47457 2.911612,-0.89631 z"
       id="path826"
       inkscape:connector-curvature="0" />
  </g>
</svg>
