<?xml version="1.0" encoding="UTF-8" standalone="no"?>
<svg
   xmlns:dc="http://purl.org/dc/elements/1.1/"
   xmlns:cc="http://creativecommons.org/ns#"
   xmlns:rdf="http://www.w3.org/1999/02/22-rdf-syntax-ns#"
   xmlns:svg="http://www.w3.org/2000/svg"
   xmlns="http://www.w3.org/2000/svg"
   xmlns:sodipodi="http://sodipodi.sourceforge.net/DTD/sodipodi-0.dtd"
   xmlns:inkscape="http://www.inkscape.org/namespaces/inkscape"
   aria-hidden="true"
   focusable="false"
   data-prefix="fas"
   data-icon="sitemap"
   class="svg-inline--fa fa-sitemap fa-w-20"
   role="img"
   viewBox="0 0 453.54332 377.95278"
   version="1.1"
   id="svg4"
   sodipodi:docname="organization.svg"
   width="120mm"
   height="100mm"
   inkscape:version="1.0.2-2 (e86c870879, 2021-01-15)">
  <metadata
     id="metadata10">
    <rdf:RDF>
      <cc:Work
         rdf:about="">
        <dc:format>image/svg+xml</dc:format>
        <dc:type
           rdf:resource="http://purl.org/dc/dcmitype/StillImage" />
        <dc:title></dc:title>
      </cc:Work>
    </rdf:RDF>
  </metadata>
  <defs
     id="defs8" />
  <sodipodi:namedview
     pagecolor="#ffffff"
     bordercolor="#666666"
     borderopacity="1"
     objecttolerance="10"
     gridtolerance="10"
     guidetolerance="10"
     inkscape:pageopacity="0"
     inkscape:pageshadow="2"
     inkscape:window-width="1920"
     inkscape:window-height="1001"
     id="namedview6"
     showgrid="false"
     inkscape:document-units="mm"
     units="mm"
     inkscape:zoom="0.79882813"
     inkscape:cx="320"
     inkscape:cy="256"
     inkscape:window-x="-9"
     inkscape:window-y="-9"
     inkscape:window-maximized="1"
     inkscape:current-layer="svg4" />
  <path
     fill="currentColor"
     d="M 113.38583,245.66931 H 56.692916 c -10.43504,0 -18.897639,8.46259 -18.897639,18.89763 v 56.69292 c 0,10.43504 8.462599,18.89764 18.897639,18.89764 h 56.692914 c 10.43504,0 18.89764,-8.4626 18.89764,-18.89764 v -56.69292 c 0,-10.43504 -8.4626,-18.89763 -18.89764,-18.89763 z M 99.212604,198.42521 H 212.59844 v 28.34646 h 28.34646 v -28.34646 h 113.38583 v 28.34646 h 28.34646 v -34.00985 c 0,-12.50197 -10.1752,-22.68307 -22.68308,-22.68307 H 240.9449 v -37.79528 h 23.62204 c 10.43504,0 18.89764,-8.4626 18.89764,-18.89764 V 56.692916 c 0,-10.43504 -8.4626,-18.897639 -18.89764,-18.897639 h -75.59055 c -10.43504,0 -18.89764,8.462599 -18.89764,18.897639 v 56.692914 c 0,10.43504 8.4626,18.89764 18.89764,18.89764 h 23.62205 v 37.79528 H 93.549218 c -12.507875,0 -22.683072,10.1752 -22.683072,22.68307 v 34.00985 h 28.346458 z m 155.905516,47.2441 h -56.69291 c -10.43504,0 -18.89764,8.46259 -18.89764,18.89763 v 56.69292 c 0,10.43504 8.4626,18.89764 18.89764,18.89764 h 56.69291 c 10.43504,0 18.89764,-8.4626 18.89764,-18.89764 v -56.69292 c 0,-10.43504 -8.4626,-18.89763 -18.89764,-18.89763 z m 141.73229,0 H 340.1575 c -10.43504,0 -18.89764,8.46259 -18.89764,18.89763 v 56.69292 c 0,10.43504 8.4626,18.89764 18.89764,18.89764 h 56.69291 c 10.43504,0 18.89764,-8.4626 18.89764,-18.89764 v -56.69292 c 0,-10.43504 -8.4626,-18.89763 -18.89764,-18.89763 z"
     id="path2"
     style="stroke-width:0.590551" />
</svg>
