<?xml version="1.0" encoding="UTF-8" standalone="no"?>
<svg
   xmlns:dc="http://purl.org/dc/elements/1.1/"
   xmlns:cc="http://creativecommons.org/ns#"
   xmlns:rdf="http://www.w3.org/1999/02/22-rdf-syntax-ns#"
   xmlns:svg="http://www.w3.org/2000/svg"
   xmlns="http://www.w3.org/2000/svg"
   xmlns:sodipodi="http://sodipodi.sourceforge.net/DTD/sodipodi-0.dtd"
   xmlns:inkscape="http://www.inkscape.org/namespaces/inkscape"
   aria-hidden="true"
   focusable="false"
   data-prefix="fas"
   data-icon="male"
   class="svg-inline--fa fa-male fa-w-6"
   role="img"
   viewBox="0 0 60 100"
   version="1.1"
   id="svg4"
   sodipodi:docname="person.svg"
   width="60mm"
   height="100mm"
   inkscape:version="1.0.2-2 (e86c870879, 2021-01-15)">
  <metadata
     id="metadata10">
    <rdf:RDF>
      <cc:Work
         rdf:about="">
        <dc:format>image/svg+xml</dc:format>
        <dc:type
           rdf:resource="http://purl.org/dc/dcmitype/StillImage" />
        <dc:title></dc:title>
      </cc:Work>
    </rdf:RDF>
  </metadata>
  <defs
     id="defs8" />
  <sodipodi:namedview
     pagecolor="#ffffff"
     bordercolor="#666666"
     borderopacity="1"
     objecttolerance="10"
     gridtolerance="10"
     guidetolerance="10"
     inkscape:pageopacity="0"
     inkscape:pageshadow="2"
     inkscape:window-width="1920"
     inkscape:window-height="1001"
     id="namedview6"
     showgrid="false"
     units="mm"
     inkscape:zoom="1.3037281"
     inkscape:cx="96"
     inkscape:cy="191.27801"
     inkscape:window-x="-9"
     inkscape:window-y="-9"
     inkscape:window-maximized="1"
     inkscape:current-layer="svg4"
     inkscape:document-rotation="0"
     inkscape:document-units="mm" />
  <path
     d="m 30,0 c 7.282198,0 13.185665,5.5964533 13.185665,12.499931 0,6.903476 -5.903467,12.49993 -13.185665,12.49993 -7.282197,0 -13.185667,-5.596454 -13.185667,-12.49993 C 16.814333,5.5964533 22.717803,0 30,0 m 9.889251,28.124845 h -2.340458 c -4.679057,2.039636 -10.216832,2.127723 -15.097587,0 h -2.340457 c -5.461749,0 -9.889249,4.197241 -9.889249,9.374948 v 26.56235 c 0,2.588854 2.21375,4.687478 4.944625,4.687478 h 3.296416 v 26.562352 c 0,2.588852 2.21375,4.687473 4.944625,4.687473 h 13.185667 c 2.730876,0 4.944624,-2.098621 4.944624,-4.687473 V 68.749621 h 3.296416 c 2.730877,0 4.944627,-2.098624 4.944627,-4.687478 v -26.56235 c 0,-5.177707 -4.4275,-9.374948 -9.889249,-9.374948 z"
     id="path2"
     inkscape:connector-curvature="0"
     style="fill:currentColor;stroke-width:0.200597" />
</svg>
