<svg width="100" height="100" version="1.1" viewBox="0 0 100 100" xmlns="http://www.w3.org/2000/svg">
 <path d="m50 0c7.2822 0 13.186 5.5965 13.186 12.5 0 6.9035-5.9035 12.5-13.186 12.5-7.2822 0-13.186-5.5965-13.186-12.5 0-6.9035 5.9035-12.5 13.186-12.5m9.8893 28.125h-2.3405c-4.6791 2.0396-10.217 2.1277-15.098 0h-2.3405c-5.4617 0-9.8892 4.1972-9.8892 9.3749v26.562c0 2.5889 2.2138 4.6875 4.9446 4.6875h3.2964v26.562c0 2.5889 2.2138 4.6875 4.9446 4.6875h13.186c2.7309 0 4.9446-2.0986 4.9446-4.6875v-26.562h3.2964c2.7309 0 4.9446-2.0986 4.9446-4.6875v-26.562c0-5.1777-4.4275-9.3749-9.8892-9.3749z"/>
</svg>
