<?xml version="1.0" encoding="UTF-8" standalone="no"?>
<svg
   xmlns:dc="http://purl.org/dc/elements/1.1/"
   xmlns:cc="http://creativecommons.org/ns#"
   xmlns:rdf="http://www.w3.org/1999/02/22-rdf-syntax-ns#"
   xmlns:svg="http://www.w3.org/2000/svg"
   xmlns="http://www.w3.org/2000/svg"
   xmlns:sodipodi="http://sodipodi.sourceforge.net/DTD/sodipodi-0.dtd"
   xmlns:inkscape="http://www.inkscape.org/namespaces/inkscape"
   aria-hidden="true"
   focusable="false"
   data-prefix="fas"
   data-icon="male"
   class="svg-inline--fa fa-male fa-w-6"
   role="img"
   viewBox="0 0 151.1811 377.95278"
   version="1.1"
   id="svg4"
   sodipodi:docname="person.svg"
   width="40mm"
   height="100mm"
   inkscape:version="0.92.4 (5da689c313, 2019-01-14)">
  <metadata
     id="metadata10">
    <rdf:RDF>
      <cc:Work
         rdf:about="">
        <dc:format>image/svg+xml</dc:format>
        <dc:type
           rdf:resource="http://purl.org/dc/dcmitype/StillImage" />
        <dc:title></dc:title>
      </cc:Work>
    </rdf:RDF>
  </metadata>
  <defs
     id="defs8" />
  <sodipodi:namedview
     pagecolor="#ffffff"
     bordercolor="#666666"
     borderopacity="1"
     objecttolerance="10"
     gridtolerance="10"
     guidetolerance="10"
     inkscape:pageopacity="0"
     inkscape:pageshadow="2"
     inkscape:window-width="1366"
     inkscape:window-height="715"
     id="namedview6"
     showgrid="false"
     units="mm"
     inkscape:zoom="1.3037281"
     inkscape:cx="96"
     inkscape:cy="191.27801"
     inkscape:window-x="-8"
     inkscape:window-y="-8"
     inkscape:window-maximized="1"
     inkscape:current-layer="svg4" />
  <path
     d="m 74.851121,-0.56989802 c 27.499419,0 49.792399,21.13361902 49.792399,47.20289002 0,26.069272 -22.29298,47.202893 -49.792399,47.202893 -27.49941,0 -49.7924,-21.133621 -49.7924,-47.202893 0,-26.069271 22.29299,-47.20289002 49.7924,-47.20289002 M 112.19543,105.63661 h -8.83816 c -17.669301,7.70218 -38.581332,8.03482 -57.012299,0 H 37.50682 c -20.624945,0 -37.34430031,15.84984 -37.34430031,35.40217 v 100.30613 c 0,9.77617 8.35967721,17.7011 18.67214931,17.7011 H 31.28277 v 100.30614 c 0,9.77616 8.359677,17.70108 18.67215,17.70108 h 49.792404 c 10.312476,0 18.672146,-7.92492 18.672146,-17.70108 V 259.04601 h 12.4481 c 10.31248,0 18.67216,-7.92493 18.67216,-17.7011 V 141.03878 c 0,-19.55233 -16.71936,-35.40217 -37.3443,-35.40217 z"
     id="path2"
     inkscape:connector-curvature="0"
     style="fill:currentColor;stroke-width:0.7575056" />
</svg>
