<?xml version="1.0" encoding="UTF-8" standalone="no"?>
<svg
   xmlns:dc="http://purl.org/dc/elements/1.1/"
   xmlns:cc="http://creativecommons.org/ns#"
   xmlns:rdf="http://www.w3.org/1999/02/22-rdf-syntax-ns#"
   xmlns:svg="http://www.w3.org/2000/svg"
   xmlns="http://www.w3.org/2000/svg"
   xmlns:sodipodi="http://sodipodi.sourceforge.net/DTD/sodipodi-0.dtd"
   xmlns:inkscape="http://www.inkscape.org/namespaces/inkscape"
   width="100mm"
   height="100mm"
   viewBox="0 0 100 100.00001"
   version="1.1"
   id="svg8"
   inkscape:version="1.0.2-2 (e86c870879, 2021-01-15)"
   sodipodi:docname="potion.svg">
  <defs
     id="defs2" />
  <sodipodi:namedview
     id="base"
     pagecolor="#ffffff"
     bordercolor="#666666"
     borderopacity="1.0"
     inkscape:pageopacity="0.0"
     inkscape:pageshadow="2"
     inkscape:zoom="0.98994949"
     inkscape:cx="224.49827"
     inkscape:cy="248.22555"
     inkscape:document-units="mm"
     inkscape:current-layer="layer1"
     showgrid="false"
     units="mm"
     inkscape:window-width="1920"
     inkscape:window-height="1001"
     inkscape:window-x="-9"
     inkscape:window-y="-9"
     inkscape:window-maximized="1"
     inkscape:document-rotation="0" />
  <metadata
     id="metadata5">
    <rdf:RDF>
      <cc:Work
         rdf:about="">
        <dc:format>image/svg+xml</dc:format>
        <dc:type
           rdf:resource="http://purl.org/dc/dcmitype/StillImage" />
        <dc:title></dc:title>
      </cc:Work>
    </rdf:RDF>
  </metadata>
  <g
     inkscape:label="Layer 1"
     inkscape:groupmode="layer"
     id="layer1"
     transform="translate(0,-196.99999)">
    <path
       style="fill:#000000;stroke-width:0.641058"
       d="M 19.684008,296.99999 18.46209,291.0514 c -0.09177,-0.44679 -1.881974,-10.1926 -4.182163,-21.63665 -5.6659294,-28.18947 -5.8874204,-27.44814 10.912983,-36.52564 5.288502,-2.85745 10.12027,-5.78666 10.737261,-6.50936 2.47003,-2.89325 0.253452,-8.86502 -3.290484,-8.86502 -2.628893,0 -3.136145,-1.45694 -3.236448,-9.29589 l -0.09494,-7.41964 c 0.05648,-1.0218 0.21887,-2.07893 1.122698,-2.74747 0.609608,-0.6332 1.572279,-1.05443 2.676176,-1.05173 h 16.765415 16.765411 c 0.939135,0.0208 1.984187,0.35966 2.605564,1.1224 0.609607,0.71563 1.219216,1.67854 1.19331,2.6768 l -0.09494,7.41964 c -0.100303,7.83895 -0.607556,9.29589 -3.236448,9.29589 -3.543936,0 -5.760514,5.97177 -3.290484,8.86502 0.616992,0.7227 5.44876,3.65191 10.737264,6.50936 10.669627,5.76494 13.289035,8.08093 14.384933,12.7186 0.645272,2.7307 0.283367,5.11902 -4.035849,26.63392 -2.992548,14.90648 -5.069322,24.40709 -5.62379,24.75836 l -34.647685,-4.4e-4 z m 35.957851,-37.42111 c 3.922863,-0.58683 11.030243,-1.01267 17.036765,-1.02076 l 10.305942,-0.0139 0.751837,-4.08068 c 1.1471,-6.22613 0.973863,-8.37875 -0.848651,-10.54488 -0.880259,-1.04622 -5.712023,-4.12675 -10.737258,-6.84563 -5.025231,-2.71887 -10.05449,-5.81701 -11.176133,-6.88472 -2.529276,-2.40771 -3.742978,-6.81641 -2.781873,-10.10499 0.359988,-1.23177 0.654523,-2.31361 0.654523,-2.40408 0,-0.0905 -4.038491,-0.16451 -8.974426,-0.16451 -4.935936,0 -8.974428,0.074 -8.974428,0.16451 0,0.0905 0.294536,1.17231 0.654525,2.40408 0.961105,3.28858 -0.252598,7.69728 -2.781876,10.10499 -1.121641,1.06771 -6.1509,4.16585 -11.176132,6.88472 -10.140076,5.48624 -12.337737,7.47342 -12.337737,11.15609 0,2.72694 1.254471,9.75613 1.866075,10.45622 0.221819,0.25389 2.705217,0.89113 5.518664,1.41607 6.398388,1.19382 23.317267,0.92592 33.000183,-0.52253 z m 9.615458,-52.32151 v -5.12868 H 49.872585 34.487853 v 5.12868 5.12868 h 15.384732 15.384732 z"
       id="path826"
       inkscape:connector-curvature="0"
       sodipodi:nodetypes="cssscsscccccccsscssscccccccscscssscsssccccccccccccc" />
  </g>
</svg>
