<?xml version="1.0" encoding="UTF-8" standalone="no"?>
<!-- Created with Inkscape (http://www.inkscape.org/) -->

<svg
   xmlns:dc="http://purl.org/dc/elements/1.1/"
   xmlns:cc="http://creativecommons.org/ns#"
   xmlns:rdf="http://www.w3.org/1999/02/22-rdf-syntax-ns#"
   xmlns:svg="http://www.w3.org/2000/svg"
   xmlns="http://www.w3.org/2000/svg"
   xmlns:sodipodi="http://sodipodi.sourceforge.net/DTD/sodipodi-0.dtd"
   xmlns:inkscape="http://www.inkscape.org/namespaces/inkscape"
   width="78mm"
   height="100mm"
   viewBox="0 0 78 100.00001"
   version="1.1"
   id="svg8"
   inkscape:version="0.92.4 (5da689c313, 2019-01-14)"
   sodipodi:docname="potion.svg">
  <defs
     id="defs2" />
  <sodipodi:namedview
     id="base"
     pagecolor="#ffffff"
     bordercolor="#666666"
     borderopacity="1.0"
     inkscape:pageopacity="0.0"
     inkscape:pageshadow="2"
     inkscape:zoom="0.98994949"
     inkscape:cx="224.49827"
     inkscape:cy="248.22555"
     inkscape:document-units="mm"
     inkscape:current-layer="layer1"
     showgrid="false"
     units="mm"
     inkscape:window-width="1366"
     inkscape:window-height="715"
     inkscape:window-x="-8"
     inkscape:window-y="-8"
     inkscape:window-maximized="1" />
  <metadata
     id="metadata5">
    <rdf:RDF>
      <cc:Work
         rdf:about="">
        <dc:format>image/svg+xml</dc:format>
        <dc:type
           rdf:resource="http://purl.org/dc/dcmitype/StillImage" />
        <dc:title></dc:title>
      </cc:Work>
    </rdf:RDF>
  </metadata>
  <g
     inkscape:label="Layer 1"
     inkscape:groupmode="layer"
     id="layer1"
     transform="translate(0,-196.99999)">
    <path
       style="fill:#000000;stroke-width:0.63669074"
       d="m 8.8905652,296.65999 -1.2135929,-5.90808 c -0.091149,-0.44374 -1.8691508,-10.12319 -4.1536677,-21.4893 -5.6273241,-27.9975 -5.847306,-27.26122 10.8386274,-36.2769 5.252468,-2.83799 10.051315,-5.74726 10.664102,-6.46504 2.453201,-2.87354 0.251725,-8.80464 -3.268064,-8.80464 -2.610981,0 -3.114777,-1.44702 -3.214397,-9.23259 l -0.09429,-7.36911 c 0.05609,-1.01484 0.217378,-2.06478 1.115048,-2.72876 0.605454,-0.62889 1.561566,-1.04725 2.657942,-1.04457 h 16.651181 16.651181 c 0.932735,0.0207 1.970667,0.35721 2.587811,1.11476 0.605453,0.71075 1.210908,1.66711 1.185179,2.65857 l -0.09429,7.36911 c -0.09962,7.78557 -0.603417,9.23259 -3.214397,9.23259 -3.51979,0 -5.721265,5.9311 -3.268065,8.80464 0.612788,0.71778 5.411635,3.62705 10.664106,6.46504 10.596929,5.72568 13.19849,8.0259 14.286921,12.63198 0.640876,2.71211 0.281437,5.08416 -4.008351,26.45255 -2.972158,14.80496 -5.034781,24.24087 -5.585471,24.58975 l -34.411613,-4.3e-4 z M 44.603416,259.49372 c 3.896134,-0.58283 10.955089,-1.00577 16.920685,-1.01381 l 10.235722,-0.0138 0.746715,-4.0529 c 1.139284,-6.18373 0.967227,-8.32169 -0.842868,-10.47306 -0.874262,-1.0391 -5.673105,-4.09865 -10.6641,-6.79902 -4.990992,-2.70035 -9.985985,-5.77739 -11.099985,-6.83783 -2.512043,-2.39132 -3.717475,-6.76999 -2.762919,-10.03618 0.357536,-1.22338 0.650064,-2.29785 0.650064,-2.38771 0,-0.0899 -4.010975,-0.16338 -8.913279,-0.16338 -4.902304,0 -8.91328,0.0735 -8.91328,0.16338 0,0.0899 0.292529,1.16433 0.650065,2.38771 0.954556,3.26619 -0.250876,7.64486 -2.762921,10.03618 -1.113999,1.06044 -6.108991,4.13748 -11.099983,6.83783 -10.0709864,5.44888 -12.2536736,7.42253 -12.2536736,11.08012 0,2.70837 1.2459238,9.68969 1.8533606,10.38501 0.2203074,0.25217 2.6867848,0.88507 5.481062,1.40643 6.354793,1.18569 23.158394,0.91962 32.775335,-0.51897 z m 9.549943,-51.9652 v -5.09376 H 38.873451 23.593543 v 5.09376 5.09375 h 15.279908 15.279908 z"
       id="path826"
       inkscape:connector-curvature="0"
       sodipodi:nodetypes="cssscsscccccccsscssscccccccscscssscsssccccccccccccc" />
  </g>
</svg>
