<?xml version="1.0" encoding="UTF-8" standalone="no"?>
<svg
   xmlns:dc="http://purl.org/dc/elements/1.1/"
   xmlns:cc="http://creativecommons.org/ns#"
   xmlns:rdf="http://www.w3.org/1999/02/22-rdf-syntax-ns#"
   xmlns:svg="http://www.w3.org/2000/svg"
   xmlns="http://www.w3.org/2000/svg"
   xmlns:sodipodi="http://sodipodi.sourceforge.net/DTD/sodipodi-0.dtd"
   xmlns:inkscape="http://www.inkscape.org/namespaces/inkscape"
   width="120mm"
   height="100mm"
   viewBox="0 0 120 100.00001"
   version="1.1"
   id="svg8"
   inkscape:version="1.0.2-2 (e86c870879, 2021-01-15)"
   sodipodi:docname="scroll.svg">
  <defs
     id="defs2" />
  <sodipodi:namedview
     id="base"
     pagecolor="#ffffff"
     bordercolor="#666666"
     borderopacity="1.0"
     inkscape:pageopacity="0.0"
     inkscape:pageshadow="2"
     inkscape:zoom="0.7"
     inkscape:cx="139.87514"
     inkscape:cy="315.31954"
     inkscape:document-units="mm"
     inkscape:current-layer="layer1"
     showgrid="false"
     units="mm"
     inkscape:window-width="1920"
     inkscape:window-height="1001"
     inkscape:window-x="-9"
     inkscape:window-y="-9"
     inkscape:window-maximized="1"
     inkscape:document-rotation="0" />
  <metadata
     id="metadata5">
    <rdf:RDF>
      <cc:Work
         rdf:about="">
        <dc:format>image/svg+xml</dc:format>
        <dc:type
           rdf:resource="http://purl.org/dc/dcmitype/StillImage" />
        <dc:title></dc:title>
      </cc:Work>
    </rdf:RDF>
  </metadata>
  <g
     inkscape:label="Layer 1"
     inkscape:groupmode="layer"
     id="layer1"
     transform="translate(0,-161.53332)">
    <path
       style="fill:#000000;stroke-width:0.658993"
       d="m 86.352821,261.24779 c -1.371267,0.18721 -3.820934,0.1938 -5.731401,0.25253 h -2.963442 l -30.040371,-0.18967 c -28.845379,-0.18211 -30.131154,-0.24313 -32.322457,-1.53167 -3.583887,-2.10743 -5.8659215,-4.97115 -5.170533,-11.51547 l -0.0585,-7.92092 h 8.87553 6.869125 V 228.11636 215.8798 l -0.08342,-14.43506 0.20638,-16.31306 c 0.189855,-15.00683 0.313729,-16.49594 1.547054,-18.59726 0.737372,-1.25632 2.367612,-2.88811 3.622757,-3.62617 2.217002,-1.30367 3.268282,-1.34193 36.862955,-1.34193 33.594662,0 34.645952,0.0383 36.862962,1.34193 3.58388,2.10744 4.85654,4.9418 5.17054,11.51547 v 7.9107 h -6.1823 l -4.234408,-9e-5 v 9.59935 9.59934 14.34678 8.6104 c 0,8.54916 -0.01729,9.16948 -0.0022,11.17107 v 10.81047 c -0.03745,1.886 -0.343487,3.95899 -0.734641,5.45995 -0.39114,1.50097 -0.878759,3.20207 -1.950179,4.64537 -1.071428,1.44329 -3.090167,2.88044 -4.701165,3.6144 -1.610983,0.73397 -3.904458,0.81255 -5.841574,1.05633 z m -62.158814,-6.68993 c 1.327836,-1.32909 1.616768,-2.27167 1.616768,-5.27443 v -3.65612 h -5.269466 -5.269467 v 3.65612 c 0,4.39907 1.906398,6.89272 5.269467,6.89272 1.28336,0 2.633558,-0.59819 3.652698,-1.61829 z m 69.058349,-3.24869 c 0.831638,-1.51825 0.707668,-3.38299 1.061498,-5.07449 v -13.13416 -7.69075 l -2.2e-5,-7.6908 v -18.02514 -8.67975 -8.67975 l -25.312257,9e-5 H 42.107917 l -0.488681,-7.32947 c -0.312854,-4.69233 -0.170604,-5.42799 -1.616832,-6.87557 -1.01914,-1.02009 -2.369338,-1.6183 -3.652698,-1.6183 -1.283361,0 -2.633559,0.59821 -3.652699,1.6183 -0.981062,0.86522 -1.682878,1.87005 -1.686578,2.59564 l 0.0698,13.99572 v 14.97309 l 0.07945,17.94232 -0.217079,18.11622 c -0.119393,9.96392 -0.465389,18.63542 -0.76888,19.26999 -0.520128,1.08757 0.784953,1.15345 22.737254,1.1478 l 23.289056,-0.006 6.527731,0.0679 c 2.065311,-0.12261 4.649752,0.28786 6.535434,-0.59417 1.885674,-0.88202 3.157523,-2.81042 3.989153,-4.32869 z m 11.600404,-77.90539 c 0,-3.00274 -0.28893,-3.94533 -1.61677,-5.2744 l -1.61676,-1.6183 H 73.524777 c -26.49545,0 -28.067862,0.0657 -27.627322,1.15378 0.256919,0.6346 0.625621,3.00808 0.819336,5.27442 l 0.352207,4.12064 h 28.891881 28.891881 z"
       id="path3626"
       inkscape:connector-curvature="0"
       sodipodi:nodetypes="cccscsccccccsccsccccccccssczzzzccccsssccscccccscccscccccssccccczzsscscccssss" />
  </g>
</svg>
