<?xml version="1.0" encoding="UTF-8" standalone="no"?>
<svg
   xmlns:dc="http://purl.org/dc/elements/1.1/"
   xmlns:cc="http://creativecommons.org/ns#"
   xmlns:rdf="http://www.w3.org/1999/02/22-rdf-syntax-ns#"
   xmlns:svg="http://www.w3.org/2000/svg"
   xmlns="http://www.w3.org/2000/svg"
   xmlns:sodipodi="http://sodipodi.sourceforge.net/DTD/sodipodi-0.dtd"
   xmlns:inkscape="http://www.inkscape.org/namespaces/inkscape"
   aria-hidden="true"
   focusable="false"
   data-prefix="fas"
   data-icon="search"
   class="svg-inline--fa fa-search fa-w-16"
   role="img"
   viewBox="0 0 120 100"
   version="1.1"
   id="svg4"
   sodipodi:docname="search.svg"
   width="120mm"
   height="100mm"
   inkscape:version="1.0.2-2 (e86c870879, 2021-01-15)">
  <metadata
     id="metadata10">
    <rdf:RDF>
      <cc:Work
         rdf:about="">
        <dc:format>image/svg+xml</dc:format>
        <dc:type
           rdf:resource="http://purl.org/dc/dcmitype/StillImage" />
        <dc:title></dc:title>
      </cc:Work>
    </rdf:RDF>
  </metadata>
  <defs
     id="defs8" />
  <sodipodi:namedview
     pagecolor="#ffffff"
     bordercolor="#666666"
     borderopacity="1"
     objecttolerance="10"
     gridtolerance="10"
     guidetolerance="10"
     inkscape:pageopacity="0"
     inkscape:pageshadow="2"
     inkscape:window-width="1920"
     inkscape:window-height="1001"
     id="namedview6"
     showgrid="false"
     inkscape:document-units="mm"
     units="mm"
     inkscape:zoom="0.79882813"
     inkscape:cx="256"
     inkscape:cy="256"
     inkscape:window-x="-9"
     inkscape:window-y="-9"
     inkscape:window-maximized="1"
     inkscape:current-layer="svg4" />
  <path
     fill="currentColor"
     d="M 108.63176,86.456401 89.160989,66.985646 c -0.878821,-0.87882 -2.070112,-1.367054 -3.319991,-1.367054 H 82.657712 C 88.047815,58.724734 91.25063,50.053706 91.25063,40.621033 91.25063,18.181818 73.068798,0 50.629565,0 28.190332,0 10.0085,18.181818 10.0085,40.621033 c 0,22.439215 18.181832,40.621033 40.621065,40.621033 9.43268,0 18.103715,-3.202812 24.997579,-8.592911 v 3.183283 c 0,1.249878 0.488234,2.441168 1.367055,3.319989 l 19.47077,19.470754 c 1.835759,1.835759 4.804221,1.835759 6.620451,0 l 5.52681,-5.526804 c 1.83576,-1.835758 1.83576,-4.804218 0.0195,-6.639976 z M 50.629565,65.618592 c -13.807256,0 -24.997579,-11.170784 -24.997579,-24.997559 0,-13.807245 11.170793,-24.997559 24.997579,-24.997559 13.807256,0 24.997579,11.170784 24.997579,24.997559 0,13.807245 -11.170793,24.997559 -24.997579,24.997559 z"
     id="path2"
     style="stroke-width:0.195293" />
</svg>
