<?xml version="1.0" encoding="UTF-8" standalone="no"?>
<!-- Created with Inkscape (http://www.inkscape.org/) -->

<svg
   xmlns:dc="http://purl.org/dc/elements/1.1/"
   xmlns:cc="http://creativecommons.org/ns#"
   xmlns:rdf="http://www.w3.org/1999/02/22-rdf-syntax-ns#"
   xmlns:svg="http://www.w3.org/2000/svg"
   xmlns="http://www.w3.org/2000/svg"
   xmlns:sodipodi="http://sodipodi.sourceforge.net/DTD/sodipodi-0.dtd"
   xmlns:inkscape="http://www.inkscape.org/namespaces/inkscape"
   width="100mm"
   height="100mm"
   viewBox="0 0 100 100"
   version="1.1"
   id="svg8"
   inkscape:version="0.92.4 (5da689c313, 2019-01-14)"
   sodipodi:docname="spellbook.svg">
  <defs
     id="defs2" />
  <sodipodi:namedview
     id="base"
     pagecolor="#ffffff"
     bordercolor="#666666"
     borderopacity="1.0"
     inkscape:pageopacity="0.0"
     inkscape:pageshadow="2"
     inkscape:zoom="2.8"
     inkscape:cx="163.21835"
     inkscape:cy="190.07877"
     inkscape:document-units="mm"
     inkscape:current-layer="layer1"
     showgrid="false"
     inkscape:window-width="1366"
     inkscape:window-height="715"
     inkscape:window-x="-8"
     inkscape:window-y="-8"
     inkscape:window-maximized="1" />
  <metadata
     id="metadata5">
    <rdf:RDF>
      <cc:Work
         rdf:about="">
        <dc:format>image/svg+xml</dc:format>
        <dc:type
           rdf:resource="http://purl.org/dc/dcmitype/StillImage" />
        <dc:title></dc:title>
      </cc:Work>
    </rdf:RDF>
  </metadata>
  <g
     inkscape:label="Layer 1"
     inkscape:groupmode="layer"
     id="layer1"
     transform="translate(0,-197)">
    <path
       style="fill:#000000;stroke-width:0.25773194"
       d="m 3.2968287,296.60264 c -1.1850233,-0.19279 -2.1439334,-0.83203 -2.79361114,-1.8623 -0.78143789,-1.23923 -0.55195664,-3.17916 1.56085284,-13.19476 1.0167021,-4.81958 2.6009309,-12.41623 3.52051,-16.88143 2.1003233,-10.19855 2.0677093,-10.07544 2.9537343,-11.15034 0.7273269,-0.88237 2.4650383,-1.91756 2.7464703,-1.63613 0.0793,0.0793 -1.138421,6.55506 -2.7060372,14.39057 -3.7298193,18.643 -4.6968564,23.65919 -4.6966614,24.36238 8.8e-5,0.31894 0.2321193,0.81186 0.5156256,1.09536 0.5115316,0.51153 0.859107,0.51546 45.56126,0.51546 49.377031,0 46.191418,0.10107 46.191418,-1.4655 0,-0.71511 -2.445443,-13.67541 -5.510537,-29.20459 -1.049201,-5.31571 -1.871672,-9.70384 -1.827732,-9.75139 0.21996,-0.238 2.034223,0.90773 2.682203,1.69384 0.883631,1.072 0.845251,0.92701 2.951674,11.15034 0.920021,4.4652 2.511783,12.06185 3.537254,16.88143 2.220218,10.43477 2.392668,12.47002 1.165221,13.75233 -0.40648,0.42464 -1.044361,0.89594 -1.417531,1.04734 -0.723011,0.29332 -92.6727332,0.54395 -94.4341133,0.25739 z m 8.9746033,-7.68056 c 0.440081,-0.40726 5.086208,-2.01602 7.590215,-2.62816 3.532317,-0.86353 9.942462,-0.87513 14.15618,-0.0256 2.935321,0.59178 8.175188,2.19528 8.640238,2.64408 0.148515,0.14332 -5.828961,0.23629 -15.193317,0.23629 -8.891348,0 -15.334331,-0.0961 -15.193316,-0.22659 z m 45.103144,-0.01 c 0.465049,-0.4488 5.704915,-2.0523 8.640236,-2.64408 4.213719,-0.84951 10.623863,-0.83791 14.156181,0.0256 2.504006,0.61215 7.150136,2.2209 7.590217,2.62817 0.14101,0.13048 -6.30197,0.22657 -15.193319,0.22657 -9.364356,0 -15.341831,-0.093 -15.193315,-0.23629 z M 45.763738,286.7782 c -3.269195,-1.45953 -7.797012,-2.91099 -11.23714,-3.60222 -3.901089,-0.78386 -11.044671,-0.84964 -14.407219,-0.13268 -3.00529,0.64079 -6.903893,1.96862 -9.92487,3.38033 -1.390845,0.64995 -2.5567493,1.15197 -2.5908994,1.1156 -0.1445641,-0.15396 7.5812644,-38.6743 7.7862554,-38.82163 2.482228,-1.78401 6.159819,-3.42076 10.057412,-4.47615 2.809186,-0.76067 3.351771,-0.82458 6.914384,-0.81442 3.127469,0.009 4.246878,0.11607 5.859903,0.56093 2.545559,0.70205 6.279479,2.53772 8.50867,4.18304 l 1.739692,1.28403 v 19.20233 c 0,10.56129 -0.08698,19.19201 -0.193299,19.17938 -0.106314,-0.0126 -1.237114,-0.48897 -2.512889,-1.05854 z m 5.798976,-18.09864 v -19.18014 l 1.481961,-1.18412 c 1.950177,-1.55825 6.121313,-3.61525 8.698463,-4.28966 5.881679,-1.53917 12.754702,-0.60124 19.329918,2.63785 3.296337,1.62385 3.715252,1.95709 4.01459,3.19356 0.414681,1.71293 7.409329,37.61153 7.342159,37.68218 -0.0346,0.0364 -1.200831,-0.46565 -2.591673,-1.1156 -3.020983,-1.41171 -6.919582,-2.73954 -9.924871,-3.38033 -3.089847,-0.65882 -10.221471,-0.65162 -13.788676,0.0139 -3.526687,0.65797 -7.756296,1.96518 -11.355478,3.50954 -1.657291,0.71112 -3.056713,1.29294 -3.109826,1.29294 -0.05311,0 -0.09657,-8.63106 -0.09657,-19.18014 z"
       id="path826"
       inkscape:connector-curvature="0"
       sodipodi:nodetypes="ccssccsccssscccscccccccscccsccsccsccccssccscscscccsccccscsscc" />
  </g>
</svg>
