<?xml version="1.0" encoding="UTF-8" standalone="no"?>
<!-- Created with Inkscape (http://www.inkscape.org/) -->

<svg
   xmlns:dc="http://purl.org/dc/elements/1.1/"
   xmlns:cc="http://creativecommons.org/ns#"
   xmlns:rdf="http://www.w3.org/1999/02/22-rdf-syntax-ns#"
   xmlns:svg="http://www.w3.org/2000/svg"
   xmlns="http://www.w3.org/2000/svg"
   xmlns:sodipodi="http://sodipodi.sourceforge.net/DTD/sodipodi-0.dtd"
   xmlns:inkscape="http://www.inkscape.org/namespaces/inkscape"
   width="100mm"
   height="100mm"
   viewBox="0 0 100 100"
   version="1.1"
   id="svg8"
   inkscape:version="0.92.4 (5da689c313, 2019-01-14)"
   sodipodi:docname="spell.svg">
  <defs
     id="defs2" />
  <sodipodi:namedview
     id="base"
     pagecolor="#ffffff"
     bordercolor="#666666"
     borderopacity="1.0"
     inkscape:pageopacity="0.0"
     inkscape:pageshadow="2"
     inkscape:zoom="1.4"
     inkscape:cx="163.21835"
     inkscape:cy="195.8443"
     inkscape:document-units="mm"
     inkscape:current-layer="layer1"
     showgrid="false"
     inkscape:window-width="1366"
     inkscape:window-height="715"
     inkscape:window-x="-8"
     inkscape:window-y="-8"
     inkscape:window-maximized="1" />
  <metadata
     id="metadata5">
    <rdf:RDF>
      <cc:Work
         rdf:about="">
        <dc:format>image/svg+xml</dc:format>
        <dc:type
           rdf:resource="http://purl.org/dc/dcmitype/StillImage" />
        <dc:title></dc:title>
      </cc:Work>
    </rdf:RDF>
  </metadata>
  <g
     inkscape:label="Layer 1"
     inkscape:groupmode="layer"
     id="layer1"
     transform="translate(0,-197)">
    <path
       style="fill:#000000;stroke-width:0.25773194"
       d="m 3.2968287,296.60264 c -1.1850233,-0.19279 -2.1439334,-0.83203 -2.79361114,-1.8623 -0.78143789,-1.23923 -0.55195664,-3.17916 1.56085284,-13.19476 1.0167021,-4.81958 2.6009309,-12.41623 3.52051,-16.88143 2.1003233,-10.19855 2.0677093,-10.07544 2.9537343,-11.15034 0.7273269,-0.88237 2.4650383,-1.91756 2.7464703,-1.63613 0.0793,0.0793 -1.138421,6.55506 -2.7060372,14.39057 -3.7298193,18.643 -4.6968564,23.65919 -4.6966614,24.36238 8.8e-5,0.31894 0.2321193,0.81186 0.5156256,1.09536 0.5115316,0.51153 0.859107,0.51546 45.56126,0.51546 49.377031,0 46.191418,0.10107 46.191418,-1.4655 0,-0.71511 -2.445443,-13.67541 -5.510537,-29.20459 -1.049201,-5.31571 -1.871672,-9.70384 -1.827732,-9.75139 0.21996,-0.238 2.034223,0.90773 2.682203,1.69384 0.883631,1.072 0.845251,0.92701 2.951674,11.15034 0.920021,4.4652 2.511783,12.06185 3.537254,16.88143 2.220218,10.43477 2.392668,12.47002 1.165221,13.75233 -0.40648,0.42464 -1.044361,0.89594 -1.417531,1.04734 -0.723011,0.29332 -92.6727332,0.54395 -94.4341133,0.25739 z m 8.9746033,-7.68056 c 0.440081,-0.40726 5.086208,-2.01602 7.590215,-2.62816 3.532317,-0.86353 9.942462,-0.87513 14.15618,-0.0256 2.935321,0.59178 8.175188,2.19528 8.640238,2.64408 0.148515,0.14332 -5.828961,0.23629 -15.193317,0.23629 -8.891348,0 -15.334331,-0.0961 -15.193316,-0.22659 z m 45.103144,-0.01 c 0.465049,-0.4488 5.704915,-2.0523 8.640236,-2.64408 4.213719,-0.84951 10.623863,-0.83791 14.156181,0.0256 2.504006,0.61215 7.150136,2.2209 7.590217,2.62817 0.14101,0.13048 -6.30197,0.22657 -15.193319,0.22657 -9.364356,0 -15.341831,-0.093 -15.193315,-0.23629 z M 45.763738,286.7782 c -3.269195,-1.45953 -7.797012,-2.91099 -11.23714,-3.60222 -3.901089,-0.78386 -11.044671,-0.84964 -14.407219,-0.13268 -3.00529,0.64079 -6.903893,1.96862 -9.92487,3.38033 -1.390845,0.64995 -2.5567493,1.15197 -2.5908994,1.1156 -0.1445641,-0.15396 7.5812644,-38.6743 7.7862554,-38.82163 2.482228,-1.78401 6.159819,-3.42076 10.057412,-4.47615 2.809186,-0.76067 3.351771,-0.82458 6.914384,-0.81442 3.127469,0.009 4.246878,0.11607 5.859903,0.56093 2.545559,0.70205 6.279479,2.53772 8.50867,4.18304 l 1.739692,1.28403 v 19.20233 c 0,10.56129 -0.08698,19.19201 -0.193299,19.17938 -0.106314,-0.0126 -1.237114,-0.48897 -2.512889,-1.05854 z m 5.798976,-18.09864 v -19.18014 l 1.481961,-1.18412 c 1.950177,-1.55825 6.121313,-3.61525 8.698463,-4.28966 5.881679,-1.53917 12.754702,-0.60124 19.329918,2.63785 3.296337,1.62385 3.715252,1.95709 4.01459,3.19356 0.414681,1.71293 7.409329,37.61153 7.342159,37.68218 -0.0346,0.0364 -1.200831,-0.46565 -2.591673,-1.1156 -3.020983,-1.41171 -6.919582,-2.73954 -9.924871,-3.38033 -3.089847,-0.65882 -10.221471,-0.65162 -13.788676,0.0139 -3.526687,0.65797 -7.756296,1.96518 -11.355478,3.50954 -1.657291,0.71112 -3.056713,1.29294 -3.109826,1.29294 -0.05311,0 -0.09657,-8.63106 -0.09657,-19.18014 z m 14.662495,-5.11257 c 0.782287,-3.30126 1.327986,-4.2242 2.942511,-4.97665 0.736073,-0.34305 2.237155,-0.8183 3.335738,-1.05612 1.098585,-0.23781 1.997426,-0.50118 1.997426,-0.58525 0,-0.0841 -1.048548,-0.40335 -2.330106,-0.7095 -4.261443,-1.01799 -4.962849,-1.72461 -5.955574,-5.99989 l -0.566506,-2.43973 -0.354848,1.75576 c -0.52664,2.60578 -1.292481,4.4386 -2.159501,5.16815 -0.817977,0.68828 -3.212685,1.52841 -5.210584,1.82801 -0.663524,0.0995 -1.206406,0.25728 -1.206406,0.35063 0,0.0933 0.941473,0.36439 2.092164,0.60233 4.534606,0.93765 5.536493,1.99375 6.473363,6.82364 0.170433,0.87864 0.331858,1.57452 0.358727,1.54639 0.02687,-0.0281 0.289488,-1.06662 0.583596,-2.30777 z M 25.360305,241.04676 c -0.420433,-2.27487 -1.199761,-4.7422 -1.904769,-6.03044 -0.804107,-1.46932 -2.801002,-2.50077 -6.507396,-3.36125 -1.558355,-0.36179 -2.36552,-0.64554 -1.983406,-0.69724 1.388536,-0.18789 5.457895,-1.35796 6.407296,-1.8423 1.96194,-1.00091 2.898891,-2.85085 3.896098,-7.69258 0.331092,-1.60753 0.503024,-2.0648 0.603159,-1.60414 0.790975,3.63879 1.329041,5.51955 1.972419,6.89441 0.713421,1.52455 0.866437,1.67788 2.382439,2.38726 1.699481,0.79524 5.241619,1.8008 6.343414,1.8008 1.070667,0 0.541764,0.20105 -1.972499,0.74979 -2.691707,0.58748 -5.153674,1.60024 -5.949587,2.44745 -0.693947,0.73867 -1.648533,3.13568 -2.216464,5.56565 -0.70084,2.99862 -0.758316,3.07284 -1.070704,1.38259 z m 50.19041,-7.95476 c -0.500339,-2.49834 -1.28303,-4.65514 -1.899492,-5.23428 -0.83682,-0.78615 -2.63682,-1.51471 -4.661637,-1.88683 l -1.77418,-0.32606 2.07328,-0.44601 c 2.208601,-0.47513 3.442582,-0.9948 4.365749,-1.83856 0.608822,-0.55645 1.385784,-2.68703 1.902386,-5.2167 l 0.315796,-1.5464 0.294954,1.5464 c 0.495111,2.59578 1.216533,4.51881 1.982608,5.28488 0.775805,0.77581 2.211324,1.34005 4.884987,1.9201 0.905379,0.19641 1.36409,0.36634 1.019363,0.37761 -1.02219,0.0334 -4.517467,1.04966 -5.348576,1.55509 -0.993646,0.60427 -1.80085,2.34415 -2.382541,5.13542 l -0.463004,2.22173 z m -21.760169,-3.47938 c -0.08013,-0.35438 -0.274261,-1.34021 -0.43141,-2.19072 -0.968068,-5.2393 -2.378243,-8.78704 -4.035791,-10.15333 -1.522041,-1.2546 -5.014983,-2.43491 -9.874047,-3.33659 l -2.448457,-0.45435 2.448457,-0.44632 c 4.863799,-0.88661 8.794038,-2.26985 10.27037,-3.61464 1.256261,-1.14433 2.487328,-4.31824 3.394811,-8.75244 0.295327,-1.44307 0.601415,-2.9137 0.68019,-3.26809 0.09832,-0.44231 0.331558,0.27934 0.743914,2.30175 0.808444,3.96504 1.727695,6.81416 2.749885,8.52299 0.726889,1.21516 1.106156,1.54667 2.656681,2.32216 1.725819,0.86316 5.534451,1.95359 9.143357,2.61778 l 1.67526,0.30833 -2.928395,0.57615 c -5.804468,1.14201 -9.133732,2.53682 -10.397235,4.35599 -1.000166,1.44001 -1.952382,4.30054 -2.788298,8.37628 -0.482892,2.35448 -0.760706,3.27106 -0.859292,2.83505 z"
       id="path826"
       inkscape:connector-curvature="0" />
  </g>
</svg>
