<?xml version="1.0" encoding="UTF-8" standalone="no"?>
<svg
   xmlns:dc="http://purl.org/dc/elements/1.1/"
   xmlns:cc="http://creativecommons.org/ns#"
   xmlns:rdf="http://www.w3.org/1999/02/22-rdf-syntax-ns#"
   xmlns:svg="http://www.w3.org/2000/svg"
   xmlns="http://www.w3.org/2000/svg"
   xmlns:sodipodi="http://sodipodi.sourceforge.net/DTD/sodipodi-0.dtd"
   xmlns:inkscape="http://www.inkscape.org/namespaces/inkscape"
   width="120mm"
   height="100mm"
   viewBox="0 0 120 100"
   version="1.1"
   id="svg8"
   inkscape:version="1.0.2-2 (e86c870879, 2021-01-15)"
   sodipodi:docname="spellbook.svg">
  <defs
     id="defs2" />
  <sodipodi:namedview
     id="base"
     pagecolor="#ffffff"
     bordercolor="#666666"
     borderopacity="1.0"
     inkscape:pageopacity="0.0"
     inkscape:pageshadow="2"
     inkscape:zoom="1.4"
     inkscape:cx="163.21835"
     inkscape:cy="190.07877"
     inkscape:document-units="mm"
     inkscape:current-layer="layer1"
     showgrid="false"
     inkscape:window-width="1920"
     inkscape:window-height="1001"
     inkscape:window-x="-9"
     inkscape:window-y="-9"
     inkscape:window-maximized="1"
     inkscape:document-rotation="0" />
  <metadata
     id="metadata5">
    <rdf:RDF>
      <cc:Work
         rdf:about="">
        <dc:format>image/svg+xml</dc:format>
        <dc:type
           rdf:resource="http://purl.org/dc/dcmitype/StillImage" />
        <dc:title></dc:title>
      </cc:Work>
    </rdf:RDF>
  </metadata>
  <g
     inkscape:label="Layer 1"
     inkscape:groupmode="layer"
     id="layer1"
     transform="translate(0,-197)">
    <path
       style="fill:#000000;stroke-width:0.258205"
       d="m 13.211706,296.87341 c -1.187196,-0.19315 -2.147864,-0.83356 -2.798733,-1.86572 -0.7828702,-1.24151 -0.5529683,-3.185 1.563715,-13.21897 1.018566,-4.82841 2.605699,-12.439 3.526964,-16.9124 2.104174,-10.21726 2.0715,-10.09392 2.959149,-11.17079 0.72866,-0.88399 2.469558,-1.92108 2.751506,-1.63913 0.07944,0.0794 -1.140508,6.56709 -2.710999,14.41696 -3.736657,18.6772 -4.705467,23.7026 -4.705271,24.40708 8.8e-5,0.31952 0.232544,0.81335 0.516571,1.09737 0.512469,0.51246 0.860682,0.5164 45.644787,0.5164 49.467555,0 46.276105,0.10126 46.276105,-1.46819 0,-0.71642 -2.44993,-13.70049 -5.52064,-29.25816 -1.051128,-5.32546 -1.875107,-9.72164 -1.831086,-9.76928 0.220363,-0.23843 2.037956,0.9094 2.687116,1.69695 0.88525,1.07397 0.8468,0.92871 2.95709,11.17079 0.92171,4.4734 2.51639,12.08399 3.54374,16.9124 2.22429,10.45391 2.39706,12.49289 1.16736,13.77756 -0.40723,0.42542 -1.04628,0.89759 -1.42013,1.04926 -0.72434,0.29386 -92.842635,0.54495 -94.607244,0.25787 z m 8.991057,-7.69465 c 0.440888,-0.40801 5.095533,-2.01972 7.60413,-2.63298 3.538793,-0.86512 9.960689,-0.87674 14.182132,-0.0257 2.940703,0.59286 8.190175,2.1993 8.656078,2.64893 0.148787,0.14358 -5.839647,0.23672 -15.221171,0.23672 -8.907648,0 -15.362443,-0.0963 -15.221169,-0.227 z m 45.185831,-0.01 c 0.465902,-0.44963 5.715374,-2.05607 8.656077,-2.64893 4.221444,-0.85107 10.64334,-0.83945 14.182134,0.0256 2.508595,0.61327 7.163243,2.22497 7.604131,2.63298 0.141269,0.13072 -6.313523,0.22699 -15.221172,0.22699 -9.381524,0 -15.369958,-0.0932 -15.22117,-0.23672 z m -11.632125,-2.1378 c -3.275188,-1.46221 -7.811305,-2.91633 -11.25774,-3.60883 -3.908241,-0.7853 -11.064919,-0.8512 -14.433631,-0.13292 -3.0108,0.64196 -6.91655,1.97223 -9.943066,3.38653 -1.393395,0.65115 -2.561437,1.15409 -2.595649,1.11765 -0.14483,-0.15424 7.595163,-38.74524 7.80053,-38.89284 2.486779,-1.78729 6.171112,-3.42704 10.075851,-4.48437 2.814335,-0.76206 3.357915,-0.82609 6.927059,-0.81591 3.133203,0.009 4.254664,0.11628 5.870646,0.56196 2.550225,0.70333 6.290991,2.54237 8.524268,4.19071 l 1.742882,1.28639 v 19.23755 c 0,10.58067 -0.08714,19.22722 -0.193654,19.21457 -0.106508,-0.0126 -1.239382,-0.48987 -2.517496,-1.06049 z m 5.809608,-18.13184 V 249.6838 l 1.484678,-1.18629 c 1.953752,-1.56112 6.132535,-3.62189 8.71441,-4.29754 5.892462,-1.54199 12.778086,-0.60234 19.365356,2.64269 3.30238,1.62684 3.722063,1.96069 4.021949,3.19943 0.415442,1.71607 7.42291,37.68052 7.35562,37.7513 -0.0347,0.0365 -1.20303,-0.4665 -2.596424,-1.11765 -3.026522,-1.4143 -6.932268,-2.74457 -9.943066,-3.38653 -3.095512,-0.66003 -10.24021,-0.65282 -13.813955,0.0139 -3.533153,0.65918 -7.770516,1.96879 -11.376297,3.51599 -1.660329,0.71242 -3.062317,1.29531 -3.115527,1.29531 -0.05321,0 -0.09675,-8.6469 -0.09675,-19.21533 z"
       id="path826"
       inkscape:connector-curvature="0"
       sodipodi:nodetypes="ccssccsccssscccscccccccscccsccsccsccccssccscscscccsccccscsscc" />
  </g>
</svg>
