<?xml version="1.0" encoding="UTF-8" standalone="no"?>
<svg
   xmlns:dc="http://purl.org/dc/elements/1.1/"
   xmlns:cc="http://creativecommons.org/ns#"
   xmlns:rdf="http://www.w3.org/1999/02/22-rdf-syntax-ns#"
   xmlns:svg="http://www.w3.org/2000/svg"
   xmlns="http://www.w3.org/2000/svg"
   xmlns:sodipodi="http://sodipodi.sourceforge.net/DTD/sodipodi-0.dtd"
   xmlns:inkscape="http://www.inkscape.org/namespaces/inkscape"
   width="120mm"
   height="100mm"
   viewBox="0 0 120 100"
   version="1.1"
   id="svg8"
   inkscape:version="1.0.2-2 (e86c870879, 2021-01-15)"
   sodipodi:docname="spell.svg">
  <defs
     id="defs2" />
  <sodipodi:namedview
     id="base"
     pagecolor="#ffffff"
     bordercolor="#666666"
     borderopacity="1.0"
     inkscape:pageopacity="0.0"
     inkscape:pageshadow="2"
     inkscape:zoom="1.4"
     inkscape:cx="163.21835"
     inkscape:cy="195.8443"
     inkscape:document-units="mm"
     inkscape:current-layer="layer1"
     showgrid="false"
     inkscape:window-width="1920"
     inkscape:window-height="1001"
     inkscape:window-x="-9"
     inkscape:window-y="-9"
     inkscape:window-maximized="1"
     inkscape:document-rotation="0" />
  <metadata
     id="metadata5">
    <rdf:RDF>
      <cc:Work
         rdf:about="">
        <dc:format>image/svg+xml</dc:format>
        <dc:type
           rdf:resource="http://purl.org/dc/dcmitype/StillImage" />
        <dc:title></dc:title>
      </cc:Work>
    </rdf:RDF>
  </metadata>
  <g
     inkscape:label="Layer 1"
     inkscape:groupmode="layer"
     id="layer1"
     transform="translate(0,-197)">
    <path
       style="fill:#000000;stroke-width:0.258205"
       d="m 13.211706,296.69341 c -1.187196,-0.19315 -2.147864,-0.83355 -2.798733,-1.86571 -0.7828702,-1.2415 -0.5529683,-3.18497 1.563715,-13.21891 1.018566,-4.82839 2.605699,-12.43894 3.526964,-16.91232 2.104174,-10.2172 2.0715,-10.09387 2.959149,-11.17074 0.728661,-0.88399 2.469558,-1.92106 2.751506,-1.63912 0.07944,0.0795 -1.140508,6.56705 -2.710998,14.41691 -3.736658,18.6771 -4.705468,23.70248 -4.705272,24.40695 8.8e-5,0.31952 0.232545,0.81335 0.516571,1.09737 0.512469,0.51247 0.860682,0.5164 45.644789,0.5164 49.467553,0 46.276103,0.10126 46.276103,-1.46818 0,-0.71642 -2.44993,-13.70044 -5.52064,-29.25804 -1.051125,-5.32543 -1.875104,-9.72159 -1.831083,-9.76922 0.220363,-0.23844 2.037953,0.90938 2.687123,1.69693 0.88525,1.07397 0.8468,0.92871 2.95708,11.17074 0.92171,4.47338 2.51639,12.08393 3.54374,16.91232 2.22429,10.45387 2.39706,12.49285 1.16736,13.77751 -0.40723,0.42541 -1.04628,0.89757 -1.42013,1.04925 -0.72434,0.29385 -92.842635,0.54494 -94.607244,0.25786 z m 8.991057,-7.69461 c 0.440888,-0.40801 5.095533,-2.01971 7.60413,-2.63297 3.538793,-0.86511 9.96069,-0.87674 14.182133,-0.0256 2.940703,0.59287 8.190176,2.1993 8.656079,2.64892 0.148787,0.14358 -5.839648,0.23672 -15.221172,0.23672 -8.907649,0 -15.362444,-0.0963 -15.22117,-0.227 z m 45.185833,-0.01 c 0.465902,-0.44962 5.715374,-2.05605 8.656077,-2.64892 4.221444,-0.85107 10.64334,-0.83944 14.182134,0.0257 2.508596,0.61327 7.163244,2.22496 7.604132,2.63298 0.141269,0.13072 -6.313524,0.22698 -15.221173,0.22698 -9.381524,0 -15.369958,-0.0932 -15.22117,-0.23672 z M 55.756471,286.851 c -3.275188,-1.46221 -7.811306,-2.91632 -11.257741,-3.60882 -3.908241,-0.78529 -11.06492,-0.85119 -14.433632,-0.13292 -3.0108,0.64196 -6.91655,1.97222 -9.943066,3.38652 -1.393395,0.65114 -2.561437,1.15407 -2.595649,1.11763 -0.144829,-0.15424 7.595163,-38.74506 7.80053,-38.89266 2.486779,-1.78728 6.171112,-3.42702 10.075851,-4.48435 2.814336,-0.76206 3.357916,-0.82609 6.92706,-0.81591 3.133203,0.009 4.254664,0.11628 5.870646,0.56196 2.550226,0.70333 6.290992,2.54236 8.524269,4.1907 l 1.742882,1.28637 V 268.697 c 0,10.58061 -0.08714,19.22712 -0.193654,19.21447 -0.106508,-0.0126 -1.239382,-0.48987 -2.517496,-1.06047 z m 5.809608,-18.13176 v -19.21525 l 1.484678,-1.18628 c 1.953752,-1.56111 6.132535,-3.62187 8.71441,-4.29751 5.892462,-1.54198 12.778086,-0.60235 19.365356,2.64267 3.302381,1.62683 3.722064,1.96068 4.02195,3.19941 0.415442,1.71607 7.422917,37.68035 7.355617,37.75113 -0.0347,0.0365 -1.20303,-0.46649 -2.596421,-1.11763 -3.026522,-1.4143 -6.932268,-2.74456 -9.943067,-3.38652 -3.095512,-0.66003 -10.24021,-0.65282 -13.813955,0.0139 -3.533153,0.65918 -7.770516,1.96878 -11.376297,3.51597 -1.660329,0.71242 -3.062317,1.2953 -3.115527,1.2953 -0.05321,0 -0.09675,-8.64685 -0.09675,-19.21523 z m 14.689376,-5.12193 c 0.783721,-3.3073 1.330421,-4.23193 2.947906,-4.98576 0.737422,-0.34368 2.241256,-0.81979 3.341853,-1.05805 1.100599,-0.23824 2.001088,-0.5021 2.001088,-0.58632 0,-0.0842 -1.05047,-0.40409 -2.334378,-0.7108 -4.269255,-1.01986 -4.971947,-1.72776 -5.966492,-6.01087 l -0.567545,-2.44419 -0.355498,1.75897 c -0.527606,2.61054 -1.294851,4.44672 -2.16346,5.17761 -0.819477,0.68953 -3.218575,1.5312 -5.220137,1.83135 -0.664741,0.0997 -1.208618,0.25775 -1.208618,0.35127 0,0.0935 0.943199,0.36506 2.096,0.60344 4.542919,0.93936 5.546643,1.99739 6.485231,6.83612 0.170745,0.88025 0.332466,1.57741 0.359384,1.54922 0.02692,-0.0282 0.290019,-1.06857 0.584666,-2.31199 z M 35.315632,241.03587 c -0.421204,-2.27903 -1.20196,-4.75088 -1.908261,-6.04148 -0.805581,-1.472 -2.806137,-2.50534 -6.519326,-3.3674 -1.561212,-0.36246 -2.369857,-0.64672 -1.987042,-0.69851 1.391081,-0.18824 5.467901,-1.36045 6.419042,-1.84568 1.965537,-1.00273 2.904206,-2.85606 3.903241,-7.70665 0.331699,-1.61048 0.503946,-2.06858 0.604265,-1.60708 0.792425,3.64545 1.331478,5.52965 1.976035,6.90703 0.714729,1.52734 0.868026,1.68094 2.386807,2.39162 1.702597,0.7967 5.251229,1.80411 6.355043,1.80411 1.07263,0 0.542758,0.20141 -1.976115,0.75115 -2.696642,0.58856 -5.163122,1.60317 -5.960494,2.45194 -0.69522,0.74001 -1.651556,3.14141 -2.220528,5.57583 -0.702125,3.00411 -0.759706,3.07846 -1.072667,1.38512 z m 50.282426,-7.96932 c -0.501256,-2.50291 -1.285382,-4.66366 -1.902974,-5.24385 -0.838355,-0.7876 -2.641655,-1.51749 -4.670184,-1.89029 l -1.777432,-0.32666 2.077081,-0.44682 c 2.21265,-0.476 3.448893,-0.99662 4.373753,-1.84193 0.609938,-0.55747 1.388324,-2.69195 1.905873,-5.22624 l 0.316375,-1.54924 0.295495,1.54924 c 0.496019,2.60053 1.218763,4.52707 1.986243,5.29455 0.777227,0.77723 2.215378,1.3425 4.893943,1.92361 0.907038,0.19677 1.36659,0.36701 1.021231,0.3783 -1.024064,0.0335 -4.525749,1.05158 -5.358381,1.55794 -0.995468,0.60538 -1.804152,2.34844 -2.386909,5.14481 l -0.463853,2.2258 z M 63.797995,229.5808 c -0.08028,-0.35503 -0.274763,-1.34266 -0.432201,-2.19472 -0.969842,-5.24889 -2.382603,-8.80312 -4.04319,-10.17192 -1.524831,-1.25689 -5.024177,-2.43936 -9.892149,-3.34269 l -2.452946,-0.45518 2.452946,-0.44714 c 4.872716,-0.88823 8.81016,-2.27401 10.289199,-3.62125 1.258564,-1.14643 2.491888,-4.32615 3.401035,-8.76846 0.295868,-1.44571 0.602517,-2.91903 0.681437,-3.27407 0.0985,-0.44312 0.332166,0.27985 0.745278,2.30596 0.809926,3.9723 1.730862,6.82663 2.754926,8.53858 0.728222,1.21739 1.108184,1.54951 2.661552,2.32642 1.728983,0.86473 5.544597,1.95716 9.16012,2.62257 l 1.678331,0.3089 -2.933764,0.57719 c -5.815109,1.14411 -9.150477,2.54146 -10.416296,4.36397 -1.002,1.44264 -1.955962,4.3084 -2.79341,8.39161 -0.483778,2.35878 -0.762101,3.27704 -0.860868,2.84023 z"
       id="path826"
       inkscape:connector-curvature="0" />
  </g>
</svg>
