<?xml version="1.0" encoding="UTF-8" standalone="no"?>
<!-- Created with Inkscape (http://www.inkscape.org/) -->

<svg
   xmlns:dc="http://purl.org/dc/elements/1.1/"
   xmlns:cc="http://creativecommons.org/ns#"
   xmlns:rdf="http://www.w3.org/1999/02/22-rdf-syntax-ns#"
   xmlns:svg="http://www.w3.org/2000/svg"
   xmlns="http://www.w3.org/2000/svg"
   xmlns:sodipodi="http://sodipodi.sourceforge.net/DTD/sodipodi-0.dtd"
   xmlns:inkscape="http://www.inkscape.org/namespaces/inkscape"
   width="100mm"
   height="100mm"
   viewBox="0 0 100 100"
   version="1.1"
   id="svg8"
   inkscape:version="0.92.4 (5da689c313, 2019-01-14)"
   sodipodi:docname="terrain.svg">
  <defs
     id="defs2" />
  <sodipodi:namedview
     id="base"
     pagecolor="#ffffff"
     bordercolor="#666666"
     borderopacity="1.0"
     inkscape:pageopacity="0.0"
     inkscape:pageshadow="2"
     inkscape:zoom="0.98994949"
     inkscape:cx="201.39972"
     inkscape:cy="155.93898"
     inkscape:document-units="mm"
     inkscape:current-layer="layer1"
     showgrid="false"
     inkscape:window-width="1366"
     inkscape:window-height="715"
     inkscape:window-x="-8"
     inkscape:window-y="-8"
     inkscape:window-maximized="1" />
  <metadata
     id="metadata5">
    <rdf:RDF>
      <cc:Work
         rdf:about="">
        <dc:format>image/svg+xml</dc:format>
        <dc:type
           rdf:resource="http://purl.org/dc/dcmitype/StillImage" />
        <dc:title></dc:title>
      </cc:Work>
    </rdf:RDF>
  </metadata>
  <g
     inkscape:label="Layer 1"
     inkscape:groupmode="layer"
     id="layer1"
     transform="translate(0,-197)">
    <path
       style="fill:#000000;stroke-width:0.29407126"
       d="M 0.41169004,296.04427 C 1.470498,293.58627 34.713998,223.66433 35.114227,223.05351 c 0.250498,-0.38232 0.926498,-0.85058 1.502215,-1.04058 0.893195,-0.29478 1.203346,-0.26421 2.114081,0.20843 1.028159,0.53357 1.674786,1.83732 17.624077,35.53424 9.106213,19.23921 17.024724,35.93977 17.596703,37.11239 L 74.991249,297 H 37.495621 0 Z M 74.166959,280.10084 c -4.396176,-9.29455 -7.991249,-17.06905 -7.989059,-17.27669 0.002,-0.20763 1.450841,-3.48733 3.219242,-7.2882 3.394335,-7.29556 3.93198,-8.05887 5.674305,-8.05596 1.864635,0.003 2.223339,0.52524 6.08177,8.85266 2.007703,4.33312 6.885613,14.82584 10.8398,23.31715 3.954186,8.49131 7.373386,15.86881 7.598211,16.39447 L 100,297 h -8.919999 -8.920013 z"
       id="path826"
       inkscape:connector-curvature="0" />
  </g>
</svg>
