<svg width="100" height="100" version="1.1" viewBox="0 0 100 100" xmlns="http://www.w3.org/2000/svg">
 <path d="m16.938 0c-1.3998 0.012899-2.5731 0.58473-3.3281 1.4453-0.75504 0.86059-1.1094 1.9648-1.1094 3.0547s0.35434 2.1921 1.1094 3.0527c0.75504 0.86059 1.9283 1.4344 3.3281 1.4473h0.005859 2.6328c0.83533 14.11 8.1537 27.051 19.885 34.906l4.3828 2.9395c2.2636 1.5172 2.2636 4.7933 0 6.3105l-4.3828 2.9395c-11.731 7.8553-19.049 20.795-19.885 34.904h-2.6328-0.005859c-1.3998 0.01291-2.5731 0.58668-3.3281 1.4473-0.75495 0.86058-1.1094 1.9628-1.1094 3.0527s0.35434 2.1941 1.1094 3.0547c0.75503 0.86058 1.9283 1.4324 3.3281 1.4453h0.005859 66.113 0.005859c1.3998-0.01291 2.5731-0.58473 3.3281-1.4453 0.75487-0.86059 1.1094-1.9648 1.1094-3.0547s-0.35434-2.1922-1.1094-3.0527c-0.75503-0.86059-1.9283-1.4344-3.3281-1.4473h-0.005859-2.6309c-0.8354-14.111-8.1546-27.051-19.887-34.906h-0.001953l-4.3809-2.9395c-2.262-1.5174-2.262-4.7912 0-6.3086l4.3809-2.9395c11.733-7.855 19.053-20.795 19.889-34.906h2.6309 0.005859c1.3998-0.012899 2.5731-0.58668 3.3281-1.4473 0.75504-0.86059 1.1094-1.9628 1.1094-3.0527s-0.35434-2.1941-1.1094-3.0547c-0.75504-0.86059-1.9283-1.4324-3.3281-1.4453h-0.005859-66.113-0.005859zm7.1133 9h51.898a40.424 40.664 0 0 1-6.4727 19.578 53.955 54.275 0 0 1-38.953 0 40.424 40.664 0 0 1-6.4727-19.578zm25.949 41a8.2226 8.2714 0 0 0 3.6699 6.8984l4.3828 2.9395a40.425 40.665 0 0 1 16.547 23.23c-0.73535-0.63836-4.261-3.6515-6.5762-4.6484-5.6396-2.4284-11.932-3.5379-18.066-3.5352-6.107 0.0027-12.364 1.1217-17.98 3.5352-2.2862 0.98253-5.7486 3.9077-6.5684 4.6133a40.428 40.668 0 0 1 16.539-23.195l4.3828-2.9395a8.2228 8.2716 0 0 0 3.6699-6.8984z"/>
</svg>
