<?xml version="1.0" encoding="UTF-8" standalone="no"?>
<svg
   xmlns:dc="http://purl.org/dc/elements/1.1/"
   xmlns:cc="http://creativecommons.org/ns#"
   xmlns:rdf="http://www.w3.org/1999/02/22-rdf-syntax-ns#"
   xmlns:svg="http://www.w3.org/2000/svg"
   xmlns="http://www.w3.org/2000/svg"
   xmlns:sodipodi="http://sodipodi.sourceforge.net/DTD/sodipodi-0.dtd"
   xmlns:inkscape="http://www.inkscape.org/namespaces/inkscape"
   aria-hidden="true"
   focusable="false"
   data-prefix="far"
   data-icon="clock"
   class="svg-inline--fa fa-clock fa-w-16"
   role="img"
   viewBox="0 0 120 100"
   version="1.1"
   id="svg4"
   sodipodi:docname="time.svg"
   width="120mm"
   height="100mm"
   inkscape:version="1.0.2-2 (e86c870879, 2021-01-15)">
  <metadata
     id="metadata10">
    <rdf:RDF>
      <cc:Work
         rdf:about="">
        <dc:format>image/svg+xml</dc:format>
        <dc:type
           rdf:resource="http://purl.org/dc/dcmitype/StillImage" />
        <dc:title></dc:title>
      </cc:Work>
    </rdf:RDF>
  </metadata>
  <defs
     id="defs8" />
  <sodipodi:namedview
     pagecolor="#ffffff"
     bordercolor="#666666"
     borderopacity="1"
     objecttolerance="10"
     gridtolerance="10"
     guidetolerance="10"
     inkscape:pageopacity="0"
     inkscape:pageshadow="2"
     inkscape:window-width="1920"
     inkscape:window-height="1001"
     id="namedview6"
     showgrid="false"
     inkscape:document-units="mm"
     units="mm"
     inkscape:zoom="1.1297136"
     inkscape:cx="256"
     inkscape:cy="256"
     inkscape:window-x="-9"
     inkscape:window-y="-9"
     inkscape:window-maximized="1"
     inkscape:current-layer="svg4" />
  <path
     fill="currentColor"
     d="M 60,0 C 32.379032,0 10,22.379032 10,50 c 0,27.620968 22.379032,50 50,50 27.620968,0 50,-22.379032 50,-50 C 110,22.379032 87.620968,0 60,0 Z m 0,90.322581 C 37.721774,90.322581 19.677419,72.278226 19.677419,50 19.677419,27.721774 37.721774,9.677419 60,9.677419 82.278226,9.677419 100.32258,27.721774 100.32258,50 100.32258,72.278226 82.278226,90.322581 60,90.322581 Z M 72.459677,69.274194 55.342742,56.834677 c -0.625,-0.463709 -0.987903,-1.189516 -0.987903,-1.955645 V 21.774194 c 0,-1.330646 1.088709,-2.419355 2.419355,-2.419355 h 6.451612 c 1.330646,0 2.419355,1.088709 2.419355,2.419355 v 28.568548 l 13.467742,9.798387 c 1.08871,0.78629 1.310484,2.298387 0.524194,3.387097 L 75.846774,68.75 c -0.78629,1.068548 -2.298387,1.310484 -3.387097,0.524194 z"
     id="path2"
     style="stroke-width:0.201613" />
</svg>
