<?xml version="1.0" encoding="UTF-8" standalone="no"?>
<svg
   xmlns:dc="http://purl.org/dc/elements/1.1/"
   xmlns:cc="http://creativecommons.org/ns#"
   xmlns:rdf="http://www.w3.org/1999/02/22-rdf-syntax-ns#"
   xmlns:svg="http://www.w3.org/2000/svg"
   xmlns="http://www.w3.org/2000/svg"
   xmlns:sodipodi="http://sodipodi.sourceforge.net/DTD/sodipodi-0.dtd"
   xmlns:inkscape="http://www.inkscape.org/namespaces/inkscape"
   height="100mm"
   width="100mm"
   version="1.1"
   x="0px"
   y="0px"
   viewBox="0 0 125.98425 125.98425"
   enable-background="new 0 0 100 100"
   xml:space="preserve"
   id="svg4"
   sodipodi:docname="eye.svg"
   style="fill:#000000"
   inkscape:version="0.92.4 (5da689c313, 2019-01-14)"><metadata
     id="metadata10"><rdf:RDF><cc:Work
         rdf:about=""><dc:format>image/svg+xml</dc:format><dc:type
           rdf:resource="http://purl.org/dc/dcmitype/StillImage" /><dc:title></dc:title></cc:Work></rdf:RDF></metadata><defs
     id="defs8" /><sodipodi:namedview
     pagecolor="#ffffff"
     bordercolor="#666666"
     borderopacity="1"
     objecttolerance="10"
     gridtolerance="10"
     guidetolerance="10"
     inkscape:pageopacity="0"
     inkscape:pageshadow="2"
     inkscape:window-width="1366"
     inkscape:window-height="715"
     id="namedview6"
     showgrid="false"
     inkscape:document-units="mm"
     units="mm"
     inkscape:zoom="1.5733333"
     inkscape:cx="150"
     inkscape:cy="226.27119"
     inkscape:window-x="-8"
     inkscape:window-y="-8"
     inkscape:window-maximized="1"
     inkscape:current-layer="svg4" /><path
     d="M 125.05539,60.105437 C 108.97242,38.661479 87.116081,25.465196 62.991628,25.465196 c -24.124453,0 -45.980795,13.196283 -62.06376441,34.640241 -1.23715145,1.855727 -1.23715145,4.123838 0,5.979566 C 17.010833,87.322763 38.867175,100.51905 62.991628,100.51905 c 24.124453,0 45.980792,-13.196287 62.063762,-34.64024 1.23715,-1.649535 1.23715,-4.123837 0,-5.773373 z M 89.384192,64.641659 C 88.559425,77.837943 77.837446,88.559913 64.641164,89.384693 48.558195,90.415653 35.568104,77.219363 36.392872,61.136397 37.217639,47.940115 47.939619,37.218136 61.135901,36.393368 77.218869,35.568601 90.415152,48.764883 89.384192,64.641659 Z M 77.218869,63.816892 c -0.412383,7.010524 -6.185757,12.783901 -13.402474,13.402471 -8.660059,0.61858 -15.670584,-6.598138 -15.2582,-15.258199 0.412383,-7.010525 6.185757,-12.783898 13.402474,-13.402474 8.66006,-0.412384 15.876777,6.804333 15.2582,15.258202 z"
     id="path2"
     inkscape:connector-curvature="0"
     style="stroke-width:2.06191921" /></svg>