<?xml version="1.0" encoding="UTF-8" standalone="no"?>
<svg
   xmlns:dc="http://purl.org/dc/elements/1.1/"
   xmlns:cc="http://creativecommons.org/ns#"
   xmlns:rdf="http://www.w3.org/1999/02/22-rdf-syntax-ns#"
   xmlns:svg="http://www.w3.org/2000/svg"
   xmlns="http://www.w3.org/2000/svg"
   xmlns:sodipodi="http://sodipodi.sourceforge.net/DTD/sodipodi-0.dtd"
   xmlns:inkscape="http://www.inkscape.org/namespaces/inkscape"
   height="100mm"
   width="120mm"
   version="1.1"
   x="0px"
   y="0px"
   viewBox="0 0 120 100"
   enable-background="new 0 0 100 100"
   xml:space="preserve"
   id="svg4"
   sodipodi:docname="vision.svg"
   style="fill:#000000"
   inkscape:version="1.0.2-2 (e86c870879, 2021-01-15)"><metadata
     id="metadata10"><rdf:RDF><cc:Work
         rdf:about=""><dc:format>image/svg+xml</dc:format><dc:type
           rdf:resource="http://purl.org/dc/dcmitype/StillImage" /><dc:title></dc:title></cc:Work></rdf:RDF></metadata><defs
     id="defs8" /><sodipodi:namedview
     pagecolor="#ffffff"
     bordercolor="#666666"
     borderopacity="1"
     objecttolerance="10"
     gridtolerance="10"
     guidetolerance="10"
     inkscape:pageopacity="0"
     inkscape:pageshadow="2"
     inkscape:window-width="1920"
     inkscape:window-height="1001"
     id="namedview6"
     showgrid="false"
     inkscape:document-units="mm"
     units="mm"
     inkscape:zoom="1.5733333"
     inkscape:cx="150"
     inkscape:cy="226.27119"
     inkscape:window-x="-9"
     inkscape:window-y="-9"
     inkscape:window-maximized="1"
     inkscape:current-layer="svg4"
     inkscape:document-rotation="0" /><path
     d="M 109.26251,47.708693 C 96.49668,30.687551 79.148247,20.213 59.999501,20.213 c -19.148745,0 -36.49718,10.474551 -49.263011,27.495693 -0.9819868,1.472983 -0.9819868,3.273297 0,4.746281 C 23.502321,69.312446 40.850756,79.787 59.999501,79.787 c 19.148746,0 36.497179,-10.474554 49.263009,-27.495692 0.98199,-1.309318 0.98199,-3.273296 0,-4.582615 z M 80.948555,51.309319 C 80.293899,61.783871 71.783346,70.294435 61.308818,70.949104 48.542988,71.767428 38.232125,61.292873 38.886783,48.527017 c 0.654656,-10.474549 9.16521,-18.98512 19.639738,-19.63978 12.76583,-0.654659 23.240358,9.81989 22.422034,22.422082 z M 71.292351,50.65466 C 70.965022,56.219265 66.382416,60.801882 60.654158,61.292873 53.780251,61.783871 48.215659,56.0556 48.542988,49.181676 48.870316,43.617072 53.452923,39.034457 59.18118,38.543462 c 6.873908,-0.32733 12.602166,5.400939 12.111171,12.111198 z"
     id="path2"
     inkscape:connector-curvature="0"
     style="stroke-width:1.63665" /></svg>
