<svg width="100" height="100" version="1.1" viewBox="0 0 100 100" xmlns="http://www.w3.org/2000/svg"><path d="m49.998 5c-12.458 7.671e-4 -23.479 7.3064-30.299 18.525 0.28479 0.93634 0.4646 2.1293 0.39648 3.2305 0.50931-0.27913 1.7353-0.9407 1.7578-0.95312l10.527-6.0762c0.88513-0.51102 1.8918-0.73923 2.793-0.73633h0.001953l1.375 0.003907 0.31445 0.24805c1.8216 0.50078 3.1687 1.7604 4.0703 3.3125 1.4417-0.41675 2.9232-0.38941 4.0547 0.11328 1.4468 0.6428 2.5473 1.7079 3.3203 3.0469 0.77314 1.3391 1.1449 2.8242 0.97852 4.3984-0.11461 1.0844-0.71207 2.2073-1.5566 3.1934 0.057381 0.091081 0.1431 0.15617 0.19727 0.25 0.77272 1.3384 1.145 2.822 0.97852 4.3965s-1.0362 3.4304-2.8008 4.4492l-0.67969 0.39258c0.68735 1.2792 1.042 2.6751 0.88477 4.1621-0.16653 1.5745-1.0362 3.4304-2.8008 4.4492l-0.007813 0.003906-11.902 6.7988-0.033203 0.019532c-0.032454 0.018962-2.7229 1.5916-5.5391 3.2207-1.4166 0.81945-2.857 1.6477-4 2.2969-0.57151 0.32457-1.0671 0.60454-1.4629 0.82226-0.39577 0.21773-0.30498 0.23922-1.1465 0.57617-1.7528 0.70142-3.123 0.82617-3.123 0.82617l-0.13477 0.027344-0.13476 0.015625c-0.34812 0.043278-0.69688 0.063777-1.0449 0.080078 5.3976 16.901 19.033 28.906 35.016 28.906 15.991 0 29.634-12.019 35.025-28.934-0.24144-0.01699-0.48324-0.024685-0.72461-0.054687l-0.13477-0.015625-0.13281-0.027344s-1.3699-0.12188-3.127-0.82617c-0.84004-0.33672-0.74893-0.36046-1.1445-0.57812-0.39563-0.21768-0.89141-0.49576-1.4629-0.82031-1.1429-0.6491-2.5834-1.4774-4-2.2969-2.8163-1.6291-5.5066-3.2017-5.5391-3.2207l-11.936-6.8184-0.007813-0.005859c-1.7646-1.0188-2.6342-2.8727-2.8008-4.4473-0.15737-1.4879 0.19853-2.8843 0.88672-4.1641l-0.68164-0.39258c-1.7646-1.0188-2.6342-2.8727-2.8008-4.4473-0.16654-1.5745 0.20576-3.0581 0.97852-4.3965 0.054171-0.093826 0.13989-0.15892 0.19727-0.25-0.84481-0.98614-1.442-2.1088-1.5566-3.1934-0.16638-1.5742 0.20538-3.0593 0.97852-4.3984 0.77302-1.3389 1.8734-2.404 3.3203-3.0469 1.1313-0.50262 2.6132-0.52981 4.0547-0.11328 0.91569-1.5769 2.3011-2.8455 4.1719-3.3281l0.33203-0.23242 1.2578-0.003907c0.90129-0.002865 1.9079 0.22533 2.793 0.73633l10.461 6.0391s0.034916 0.019399 0.035156 0.019531l0.03125 0.017578c0.022503 0.012423 1.2485 0.674 1.7578 0.95312-0.05927-0.95831 0.074513-1.9781 0.29492-2.8496-6.7992-11.434-17.927-18.903-30.525-18.904h-0.001953zm-14.836 17.99c-0.2768-8.76e-4 -0.5421 0.063104-0.78125 0.20117l-10.527 6.0762s-10.458 5.7752-10.576 5.4336c-0.06973-0.2014 0.39266-1.5686 1.0293-3.0391 2.1982-5.0775 2.3394-5.7505 1.5059-7.1973-0.402-0.69761-0.67083-0.88734-1.7051-1.2031-1.1288-0.34471-1.3031-0.32982-2.1641 0.18359-0.77111 0.45986-1.2302 1.028-2.6016 3.2148-5.0345 8.0281-8.2566 14.368-8.7129 17.145-0.27549 1.6764-0.025007 4.0566 0.63086 5.9961 0.55569 1.6433 2.7359 6.0008 3.3965 6.7891 0.19986 0.23852 0.75621 0.90248 1.2363 1.4746 0.48017 0.57214 1.6156 1.5489 2.5234 2.1699 2.13 1.4569 4.7001 2.111 7.1172 1.8105 0 0 1.6877-0.32788 2.4004-0.61328 0.7127-0.28539 11.65-6.6758 11.65-6.6758l11.928-6.8145c0.95658-0.55228 1.1168-2.0656 0.35742-3.3809s-2.1508-1.9351-3.1074-1.3828l-4.2812 2.4727-5.3613 3.0957c-0.0055 0.0035-0.011827 0.006665-0.017579 0.009765-0.17936 0.10355-0.43615-0.007006-0.57422-0.24609-0.13807-0.23914-0.10514-0.51754 0.074218-0.62109l8.0195-4.6289 7.4863-4.3223c0.95658-0.55228 1.1168-2.0656 0.35742-3.3809s-2.1508-1.9351-3.1074-1.3828l-7.0137 4.0488-7.1445 4.125c-0.1915 0.11087-0.46923-0.01173-0.62109-0.27539-0.15135-0.26308-0.11904-0.56567 0.072266-0.67578l9.4785-5.4727 8.3594-4.8262c0.95658-0.55228 1.1168-2.0675 0.35742-3.3828s-2.1508-1.9331-3.1074-1.3809l-9.1055 5.2559-9.1875 5.3047c-0.1672 0.09621-0.40304 0.0017-0.52734-0.21289-0.12483-0.21521-0.091268-0.46941 0.076172-0.56641l7.3516-4.2441 6.7852-3.916c0.95658-0.55228 1.1168-2.0675 0.35742-3.3828-0.56954-0.98648-1.4958-1.5794-2.3262-1.582zm30.002 0c-0.83039 0.0026-1.7547 0.59562-2.3242 1.582-0.75939 1.3153-0.60112 2.8305 0.35547 3.3828l6.7852 3.916 7.3516 4.2441c0.1674 0.09699 0.201 0.3512 0.076172 0.56641-0.12431 0.21463-0.36013 0.3091-0.52734 0.21289l-9.1875-5.3047-9.1055-5.2559c-0.95658-0.55228-2.348 0.06548-3.1074 1.3809-0.7594 1.3153-0.59916 2.8305 0.35742 3.3828l8.3594 4.8262 9.4785 5.4727c0.19128 0.11011 0.22362 0.4127 0.072266 0.67578-0.15186 0.26366-0.4296 0.38629-0.62109 0.27539l-7.1445-4.125-7.0137-4.0488c-0.95658-0.55228-2.348 0.067536-3.1074 1.3828-0.7594 1.3153-0.59916 2.8286 0.35742 3.3809l7.4863 4.3223 8.0195 4.6289c0.17936 0.10355 0.21229 0.38195 0.074219 0.62109-0.13807 0.23911-0.39486 0.34965-0.57422 0.24609-0.0057-0.0031-0.012078-0.006365-0.017578-0.009765l-5.3613-3.0957-4.2812-2.4727c-0.95658-0.55228-2.348 0.067536-3.1074 1.3828-0.7594 1.3153-0.59916 2.8286 0.35742 3.3809l11.928 6.8145c-1e-6 0 10.938 6.3904 11.65 6.6758s2.4004 0.61328 2.4004 0.61328c2.4171 0.30044 4.9872-0.35373 7.1172-1.8105 0.90787-0.62098 2.0433-1.5978 2.5234-2.1699 0.48018-0.57214 1.0365-1.2361 1.2363-1.4746 0.66059-0.78827 2.8408-5.1458 3.3965-6.7891 0.65583-1.9395 0.90635-4.3197 0.63086-5.9961-0.4563-2.7767-3.6784-9.1155-8.7129-17.145-1.3714-2.1869-1.8305-2.755-2.6016-3.2148-0.86092-0.51341-1.0353-0.5283-2.1641-0.18359-1.0342 0.31583-1.3031 0.50556-1.7051 1.2031-0.83358 1.4467-0.69241 2.1198 1.5059 7.1973 0.63664 1.4705 1.099 2.8377 1.0293 3.0391-0.11831 0.3416-10.576-5.4336-10.576-5.4336l-10.527-6.0762c-0.23915-0.13807-0.50445-0.20205-0.78125-0.20117zm-15.305 32.01c2.0894 0 3.1257 0.2821 4.5352 1.2344 3.0088 2.033 4.5766 6.5668 4.8301 13.967 0.3215 9.3859-1.575 14.854-5.8262 16.801-0.938 0.42941-1.5899 0.55622-3.1152 0.60742-2.2904 0.07683-3.457-0.13513-4.6895-0.85742-1.1225-0.6578-1.8629-1.52-2.6367-3.0684-1.8752-3.752-2.7854-9.708-2.3535-15.398 0.25132-3.3111 0.45385-4.4537 1.2051-6.7715 1.3662-4.2154 4.2078-6.5137 8.0508-6.5137z"/></svg>
