<svg width="100" height="100" version="1.1" viewBox="0 0 100 100" xmlns="http://www.w3.org/2000/svg"><path d="m50 5c-20.711 0-37.5 20.147-37.5 45s16.789 45 37.5 45 37.5-20.147 37.5-45-16.789-45-37.5-45zm-11.693 21.314c0.52214 0.01108 1.046 0.10006 1.5547 0.27344 3.0704 1.0463 4.4181 4.381 3.1836 7.875-0.72266 2.0453-1.9905 3.6211-5.9199 7.3535-0.78724 0.74778-1.4831 1.3648-1.5449 1.3711-0.06186 0.0063-1.0597-0.53282-2.2188-1.1973-4.5104-2.5856-5.9259-3.674-7.1094-5.4648-2.0432-3.0916-1.5425-6.654 1.1836-8.4121 1.8068-1.1652 4.169-1.0935 5.9863 0.18359l0.375 0.26367 0.29883-0.3457c1.0908-1.2591 2.6445-1.9337 4.2109-1.9004zm23.387 0c1.5664-0.033304 3.1201 0.64133 4.2109 1.9004l0.29883 0.3457 0.375-0.26367c1.8174-1.2771 4.1796-1.3488 5.9863-0.18359 2.7261 1.7581 3.2268 5.3205 1.1836 8.4121-1.1835 1.7908-2.5989 2.8792-7.1094 5.4648-1.1591 0.66445-2.1569 1.2036-2.2188 1.1973-0.061851-0.006313-0.75768-0.62332-1.5449-1.3711-3.9294-3.7324-5.1973-5.3082-5.9199-7.3535-1.2345-3.494 0.1132-6.8287 3.1836-7.875 0.50871-0.17337 1.0326-0.26236 1.5547-0.27344zm-33.887 34.656h45.107c-3.4506 9.3235-12.463 15.529-22.553 15.529-10.09 5.3e-5 -19.104-6.2058-22.555-15.529z"/></svg>
