<svg width="100" height="100" version="1.1" viewBox="0 0 100 100" xmlns="http://www.w3.org/2000/svg"><path d="m50 5c-15.038 0-28.001 10.625-33.979 25.957 0.70018 0.3628 1.3642 0.83001 1.9258 1.418 1.3088 1.3142 2.4737 3.1907 2.9688 5.2773 0.5037 2.1231 0.57938 4.4012 0.58398 7.6875 0.008629 6.1674-0.57671 10.521-2.125 14.84-0.61324 1.7112-1.8193 4.0917-3.1836 6.7422-0.19251 0.374-0.36535 0.72388-0.55469 1.0977 5.7913 15.88 18.994 26.98 34.363 26.98s28.572-11.1 34.363-26.98c-0.18934-0.37378-0.36218-0.72365-0.55469-1.0977-1.3643-2.6505-2.5704-5.031-3.1836-6.7422-1.5483-4.3186-2.1336-8.6724-2.125-14.84 0.004578-3.2863 0.080277-5.5644 0.58398-7.6875 0.49505-2.0866 1.66-3.9631 2.9688-5.2773 0.56163-0.58796 1.2256-1.0552 1.9258-1.418-5.9774-15.332-18.941-25.957-33.979-25.957zm-15.836 20.5a9.75 9.75 0 0 1 0.085938 0 9.75 9.75 0 0 1 9.75 9.75 9.75 9.75 0 0 1-9.75 9.75 9.75 9.75 0 0 1-9.75-9.75 9.75 9.75 0 0 1 9.6641-9.75zm31.5 0a9.75 9.75 0 0 1 0.085938 0 9.75 9.75 0 0 1 9.75 9.75 9.75 9.75 0 0 1-9.75 9.75 9.75 9.75 0 0 1-9.75-9.75 9.75 9.75 0 0 1 9.6641-9.75zm-54.322 8.5234c-1.0217 0.090223-1.6057 0.48493-2.5078 1.4883-1.3108 1.4579-1.7279 2.7663-2.5527 8.0137-0.9048 5.7564-1.6646 9.3574-2.2148 10.492-0.59578 1.2666-1.3382 2.0756-2.4512 3.5352-0.44773 0.58716-1.0343 1.3572-1.6152 2.1191v26.74l3.3398-5.1504c2.3836-3.6758 5.2438-8.3944 5.9531-9.6504 0.70932-1.256 2.0195-3.9506 3.3418-6.5195s2.6612-5.3872 2.9746-6.2617c1.3809-3.8516 1.8989-7.5522 1.8906-13.484-0.0089-6.3884-0.45258-8.2636-2.4219-10.203-0.66602-0.71064-1.5074-1.037-2.541-1.1191-0.46602-0.026325-0.85473-0.030075-1.1953 0zm76.121 0c-1.0336 0.082099-1.875 0.4085-2.541 1.1191-1.9693 1.9395-2.413 3.8147-2.4219 10.203-0.0083 5.9322 0.50976 9.6328 1.8906 13.484 0.3134 0.8745 1.6523 3.6928 2.9746 6.2617s2.6325 5.2635 3.3418 6.5195c0.70932 1.256 3.5695 5.9746 5.9531 9.6504l3.3398 5.1504v-26.74c-0.58092-0.76195-1.1675-1.532-1.6152-2.1191-1.113-1.4596-1.8554-2.2686-2.4512-3.5352-0.5502-1.1348-1.31-4.7358-2.2148-10.492-0.8248-5.2474-1.2419-6.5558-2.5527-8.0137-1.2028-1.3378-1.839-1.5936-3.7031-1.4883zm-37.604 17.701c2.0894 0 3.1256 0.28206 4.5352 1.2344 3.0088 2.033 4.5766 6.5664 4.8301 13.967 0.3215 9.3859-1.5749 14.858-5.8262 16.805-0.93801 0.42941-1.5899 0.55622-3.1152 0.60742-2.2904 0.07683-3.4569-0.13708-4.6895-0.85938-1.1225-0.6578-1.8629-1.52-2.6367-3.0684-1.8752-3.752-2.7854-9.7051-2.3535-15.395 0.25132-3.3111 0.4538-4.4537 1.2051-6.7715 1.3662-4.2154 4.2078-6.5156 8.0508-6.5156v-0.003907z"/></svg>
