<svg width="100" height="100" version="1.1" viewBox="0 0 100 100" xmlns="http://www.w3.org/2000/svg"><path d="m50 5c-20.711 0-37.5 20.147-37.5 45 0 6.2481 1.0626 12.198 2.9805 17.605 0.38512-1.0279 0.78995-2.0838 1.2188-3.1719 0.4898-1.2427 0.83821-2.0979 1.2891-2.9316 0.45085-0.83371 1.1364-1.694 1.7539-2.2383 0.45088-0.39739 1.2195-1.0958 2.4629-1.4414 1.2434-0.34561 2.0586-0.18754 2.7207-0.11328 0.6654 0.074622 1.4278 0.15338 2.3809 0.5918 0.95306 0.43842 1.7025 1.1762 2.1113 1.6543 0.6729 0.787 1.3955 2.4922 1.5898 4.0664 0.45017-0.36847 1.5348-1.2434 1.5547-1.2598l9.2305-7.9062c0.35809-0.30672 0.7471-0.53463 1.1504-0.71289a13.5 13.5 0 0 1 7.0566-2.043 13.5 13.5 0 0 1 13.5 13.5 13.5 13.5 0 0 1-4.3945 9.8848c0.76341 1.0493 1.2789 2.2338 1.3867 3.5762 0.12669 1.578-0.3852 3.5643-1.9336 4.8906l-0.007813 0.005859-10.455 8.8691-0.03125 0.02539c-0.013304 0.011519-1.4257 1.229-2.1738 1.875 1.3502 0.17667 2.72 0.27344 4.1094 0.27344 20.711 0 37.5-20.147 37.5-45s-16.789-45-37.5-45zm-12.691 28.754c0.89345-0.007507 1.7396 0.050845 2.5078 0.12305 2.0485 0.19253 3.6309 0.58984 3.6309 0.58984a3 3 0 0 1 2.1797 3.6387 3 3 0 0 1-3.6387 2.1816s-1.1516-0.28874-2.7344-0.4375c-1.5828-0.14876-3.5114-0.052185-4.5176 0.33398-2.4608 0.94441-5.7266 4.3145-5.7266 4.3145a3 3 0 0 1-4.2344 0.26367 3 3 0 0 1-0.26367-4.2344s3.3633-4.1366 8.0762-5.9453c1.2903-0.4952 2.584-0.72034 3.8125-0.79688 0.30713-0.019133 0.61038-0.028747 0.9082-0.03125zm25.383 0c0.29782 0.002505 0.60108 0.012115 0.9082 0.03125 1.2285 0.076537 2.5222 0.30168 3.8125 0.79688 4.7129 1.8087 8.0762 5.9453 8.0762 5.9453a3 3 0 0 1-0.26367 4.2344 3 3 0 0 1-4.2344-0.26367s-3.2658-3.37-5.7266-4.3145c-1.0062-0.38617-2.9348-0.48274-4.5176-0.33398-1.5828 0.14876-2.7344 0.4375-2.7344 0.4375a3 3 0 0 1-3.6387-2.1816 3 3 0 0 1 2.1797-3.6387s1.5824-0.39731 3.6309-0.58984c0.76818-0.072225 1.6144-0.13056 2.5078-0.12305zm-17.143 23.768c-0.43532-0.01754-0.83971 0.10163-1.1543 0.37109l-9.2305 7.9062s-9.2214 7.5973-9.4004 7.2832c-0.10553-0.18516 0.099318-1.6134 0.45508-3.1758 1.2284-5.3948 1.2433-6.0825 0.1582-7.3516-0.52327-0.61192-0.8218-0.75057-1.8965-0.87109-1.1729-0.13155-1.3418-0.082713-2.0938 0.58008-0.67354 0.59366-1.0203 1.2352-1.9668 3.6367-3.4745 8.8161-5.4794 15.642-5.418 18.455 0.03707 1.6985 0.72164 3.9913 1.7227 5.7773 0.84803 1.5133 3.7918 5.3953 4.5859 6.0488 0.24026 0.19776 0.90934 0.7483 1.4863 1.2227 0.57708 0.47422 1.8705 1.2262 2.877 1.6699 2.3613 1.041 5.0093 1.2119 7.3301 0.47266 0 0 1.5999-0.63145 2.248-1.043 0.64817-0.41143 10.225-8.7031 10.225-8.7031l10.48-8.8887c0.83889-0.71856 0.71654-2.2352-0.27148-3.3887-0.98803-1.1535-2.4678-1.5076-3.3066-0.78906l-3.7559 3.2168-4.7012 4.0273c-5e-3 0.0044-0.010515 0.009602-0.015625 0.013672-0.1573 0.13473-0.42974 0.073001-0.60938-0.13672-0.17964-0.20972-0.19832-0.48832-0.041016-0.62305l7.0332-6.0234 6.5645-5.625c0.83889-0.71856 0.71849-2.2352-0.26953-3.3887-0.98803-1.1535-2.4697-1.5057-3.3086-0.78711l-6.1484 5.2676-6.2656 5.3672c-0.16787 0.14418-0.46636 0.073076-0.66406-0.1582-0.19709-0.23081-0.2206-0.53436-0.052735-0.67774l8.3125-7.1211 7.332-6.2773c0.83889-0.71856 0.71654-2.2372-0.27148-3.3906-0.98802-1.1535-2.4678-1.5057-3.3066-0.78711l-7.9844 6.8398-8.0586 6.9004c-0.14669 0.12528-0.39503 0.074868-0.55664-0.11328-0.16223-0.18862-0.17607-0.44422-0.029297-0.57031l6.4473-5.5215 5.9492-5.0957c0.83888-0.71856 0.7185-2.2372-0.26953-3.3906-0.61751-0.72092-1.4288-1.129-2.1543-1.1582h-0.001954-0.001953-0.001953z"/></svg>
