<svg width="100" height="100" version="1.1" viewBox="0 0 100 100" xmlns="http://www.w3.org/2000/svg"><path d="m50 5c-19.552 0-35.602 17.958-37.338 40.877 1.1019-0.44446 1.9247-0.4368 2.6309-0.47656h0.001953c1.1397-0.064323 2.436-0.070374 3.8164 0.48438 1.3812 0.55504 2.3364 1.4884 3.0879 2.3242 0.91213 1.0145 1.7904 2.4608 2.2949 4.0449 0.50453 1.5841 0.81382 3.3461 1.2344 6.0215 0.44562 2.835 0.85247 5.122 1.2012 6.7734 0.32668 1.5473 0.70017 2.6076 0.64062 2.5215 0.079147 0.11928 0.33173 0.54652 0.60547 0.94141 0.40378 0.58248 0.92938 1.3072 1.4473 1.9863 1.1136 1.4604 2.92 3.8314 4.0156 5.2695 1.2097 1.5878 2.3281 3.1307 3.0918 4.6348l0.71484 1.4082a4.0004 4.0004 0 0 1 0.43359 1.7812l0.060547 8.0254 0.007813 0.99414c3.784 1.5409 7.8344 2.3887 12.053 2.3887 4.1984 0 8.2311-0.83993 12-2.3672v-1.9355-9.002a4.0004 4.0004 0 0 1 0.68555-2.2402l0.79688-1.1777c0.87861-1.2995 2.2517-2.885 3.7949-4.6426 3.3498-3.8151 5.2921-6.3673 5.5195-6.7598-0.40177 0.69323 0.1944-0.60805 0.50391-2.1289 0.30951-1.5209 0.6444-3.5977 0.94727-5.9844 0.42719-3.3664 0.89364-5.8423 1.9844-8.0215 1.0233-2.0447 1.8889-3.3344 4.2988-4.5996 1.8448-0.96845 2.6386-0.75005 3.7383-0.74805 0.95755 0.00175 1.698-0.1397 3.0645 0.43945-1.7533-22.898-17.795-40.832-37.334-40.832zm-15.75 20.5a5 9.25 0 0 1 0.77734 0.11328c0.84936 0.12971 1.701 0.37389 2.5332 0.76758 1.4585 0.69 3.57 2.6497 4.4688 4.1465 1.9681 3.2773 1.6883 7.7694-0.66406 10.656-1.1456 1.4059-2.6832 2.5686-4.1582 3.1465v0.001953c-1.683 0.65932-4.9533 0.75225-6.666 0.18945-3.8781-1.2744-6.4865-4.9488-6.4941-9.1504-0.010588-5.781 4.8194-10.065 9.9844-9.8613a5 9.25 0 0 1 0.21875-0.009766zm31.5 0a5 9.25 0 0 1 0.5293 0.052734c1.3617 0.007981 2.7343 0.30667 4.0234 0.9375 1.8811 0.9206 3.9909 3.0435 4.9258 4.957 0.69639 1.4254 0.72461 1.5765 0.72461 3.9277 0 2.3082-0.039449 2.5256-0.67773 3.873-1.187 2.5057-3.4335 4.4733-6.0293 5.2812-1.5045 0.46824-4.2963 0.52121-5.6074 0.10547-2.1005-0.6661-4.1398-2.2033-5.4531-4.1113-1.9731-2.867-1.9885-7.4097-0.035156-10.504 1.5394-2.4383 4.0141-3.9567 6.6699-4.3574a5 9.25 0 0 1 0.92969-0.16211zm-50.23 23.893c-1.4543 0.0821-1.5144 0.10798-2.541 1.1191-1.9693 1.9395-2.413 3.8146-2.4219 10.203-0.0083 5.9322 0.50974 9.6324 1.8906 13.484 0.3134 0.8745 1.6523 3.6928 2.9746 6.2617 1.3223 2.5689 2.6908 5.5292 3.041 6.5801 0.76522 2.2962 1.0859 5.0897 1.0859 9.4707v3.4883h14.451l-0.060547-8.3535-0.060547-8.0254-0.71484-1.4082c-0.3934-0.7748-1.6119-2.586-2.707-4.0234s-2.9026-3.808-4.0156-5.2676-2.216-3.0499-2.4512-3.5352c-0.5502-1.1348-1.31-4.7356-2.2148-10.492-0.8248-5.2474-1.2419-6.5558-2.5527-8.0137-1.2028-1.3378-1.839-1.5936-3.7031-1.4883zm68.742 0c-0.75111-0.001372-1.4984 0.095382-1.8711 0.29102-0.8253 0.4333-2.0483 1.7813-2.582 2.8477-0.65797 1.3146-1.1924 3.5719-1.5938 6.7344-0.6247 4.9228-1.3758 8.6123-1.957 9.6152-0.6836 1.1796-2.5826 3.5313-5.9746 7.3945-1.4801 1.6856-3.0485 3.5945-3.4863 4.2422l-0.79688 1.1777v9.002 9.3027h14.375l0.125-4.9199c0.1813-6.7129 0.40516-7.477 4.5176-15.385 2.6148-5.0279 3.28-6.7231 3.8008-9.6777 1.0678-6.058 0.83544-15.445-0.44336-17.918-0.4494-0.8692-1.5479-2.0592-2.2266-2.4102-0.3809-0.19714-1.1356-0.2955-1.8867-0.29688zm-34.402 2.332c2.0894 0 3.1256 0.2821 4.5352 1.2344 3.0088 2.033 4.5766 6.5668 4.8301 13.967 0.3215 9.3859-1.5749 14.856-5.8262 16.803-0.93801 0.42941-1.5899 0.55622-3.1152 0.60742-2.2904 0.07683-3.4569-0.13708-4.6895-0.85938-1.1225-0.6578-1.8629-1.52-2.6367-3.0684-1.8752-3.752-2.7854-9.7061-2.3535-15.396 0.25132-3.3111 0.45384-4.4537 1.2051-6.7715 1.3662-4.2154 4.2078-6.5156 8.0508-6.5156z"/></svg>
