<svg width="100" height="100" version="1.1" viewBox="0 0 100 100" xmlns="http://www.w3.org/2000/svg"><path d="m24.131 0c-5.9547-0.065026-11.056 4.2467-11.984 10.129l-7.082 44.855-4.9492 31.412c-0.031865 0.26699-0.058476 0.49838-0.082031 0.99805-0.023555 0.49967-0.026202 0.69376 0.033203 1.5 0.059405 0.80624 0.10281 1.0682 0.19531 1.5254 0.092505 0.45718 0.1589 0.7003 0.29492 1.1445 0.13602 0.44423 0.21025 0.63111 0.40039 1.0898 0.19014 0.45873 0.2768 0.62085 0.50391 1.0488s0.31704 0.56242 0.59375 0.98047c0.27671 0.41805 0.37045 0.53461 0.69531 0.93555 0.32486 0.40094 0.46624 0.54125 0.80273 0.88086 0.33649 0.33961 0.51576 0.49257 0.87305 0.78906 0.35729 0.29649 0.56418 0.43842 0.9375 0.69141 0.37332 0.25299 0.60303 0.3819 0.98828 0.5918 0.38525 0.2099 0.60424 0.30591 1.0273 0.48633s0.6199 0.24586 1.3672 0.45703c0.74729 0.21117 0.97612 0.26001 1.7754 0.35938 0.79928 0.09937 0.98478 0.10621 2.082 0.052734 1.0972-0.05347 1.3606-0.09643 1.6152-0.14062 0.11271-0.021121 27.254-5.7339 49.781-10.475v-15.312-9.2109l-37.105 7.8125c-1.2861-1.2469-2.7032-2.7572-4.1855-4.1504-4.7337-6.0737-8.1672-13.602-9.6426-21.969-3.2449-18.403 3.7499-36.259 16.848-44.912-1.2201-0.69221-2.5755-1.1922-4.043-1.4238-0.57575-0.091029-1.1574-0.13999-1.7402-0.14648zm55.869 0c-3.7623 4.3231e-4 -7.3067 1.7654-9.5742 4.7676 8.0823 6.7259 14.085 16.903 16.174 28.75 1.6895 9.5816 0.60412 19.015-2.6738 27.078l-15.926 3.3535v10.051 26h24v-26-62c0-6.6274-5.3726-12-12-12zm-32.033 0.17969c-1.6828-0.011452-3.3804 0.12803-5.0801 0.42773-18.13 3.1968-29.717 23.426-25.881 45.182 1.5692 8.8992 5.4789 16.671 10.789 22.535l53.174-11.193c2.4049-6.8894 3.1235-14.798 1.6914-22.92-3.4765-19.716-18.427-33.921-34.693-34.031zm19.184 18.182c0.99156-0.03648 1.9374 0.48425 2.4297 1.373 0.71355 1.2879 0.24849 2.909-1.0391 3.623l-4.6562 2.5801 5.3555 0.99805c1.4474 0.26979 2.402 1.6618 2.1328 3.1094-0.26898 1.448-1.6614 2.4037-3.1094 2.1348l-12.648-2.3535c-2.4584-0.45744-2.9919-3.7429-0.80469-4.9551l11.145-6.1758c0.23988-0.13346 0.49851-0.23075 0.76758-0.28516 0.14232-0.0285 0.28608-0.043618 0.42774-0.048828zm-40.205 7.0996c0.15095-0.0019 0.30155 0.009403 0.45117 0.033203l12.586 1.9922c2.4699 0.39096 3.0932 3.659 0.93945 4.9297l-11.082 6.5391c-1.2687 0.74798-2.9043 0.32529-3.6523-0.94336-0.74807-1.2681-0.32645-2.9018 0.94141-3.6504l4.6914-2.7695-5.2578-0.83203c-1.4541-0.23066-2.4468-1.5965-2.2168-3.0508 0.17373-1.0997 1.0124-1.9758 2.1035-2.1973 0.01481-0.0028 0.030072-0.005313 0.044922-0.007813 0.149-0.02744 0.30022-0.041118 0.45117-0.042968zm26.23 16.875c6.6957-0.17218 13.137 3.1256 17.033 8.8281 1.1077 1.6208 0.69087 3.8333-0.92969 4.9414-1.6216 1.1087-3.8336 0.69254-4.9414-0.92969-2.9332-4.2933-7.9146-6.4095-12.807-5.5469-4.8925 0.86268-8.8488 4.5542-10.137 9.5918-0.34217 1.3391-1.4288 2.3579-2.7871 2.6133l-0.001953 0.001954c-0.50987 0.09579-1.0344 0.077748-1.5371-0.050782-1.9024-0.4862-3.0507-2.4219-2.5645-4.3242 1.9549-7.6463 8.1106-13.479 15.793-14.834 0.96022-0.16931 1.9224-0.26642 2.8789-0.29102zm42.824 20.734v10.93 6.9316c3.0855-2.7693 4.6578-7.0557 3.7422-11.404-0.54179-2.573-1.8919-4.7998-3.7422-6.457z"/></svg>
