<svg width="100" height="100" version="1.1" viewBox="0 0 100 100" xmlns="http://www.w3.org/2000/svg"><path d="m50 5c-20.711 0-37.5 20.147-37.5 45s16.789 45 37.5 45 37.5-20.147 37.5-45-16.789-45-37.5-45zm-10.211 23.568c0.57913 0.05479 1.1354 0.27722 1.5957 0.64648 1.2922 1.0365 1.4992 2.9243 0.46289 4.2168l-4.3164 5.3828 5.3828 4.3164c1.2922 1.0365 1.4992 2.9243 0.46289 4.2168-1.0365 1.2922-2.9243 1.4992-4.2168 0.46289l-5.3828-4.3164-4.3164 5.3828c-1.0365 1.2922-2.9243 1.5011-4.2168 0.46484-1.2922-1.0365-1.4992-2.9243-0.46289-4.2168l4.3164-5.3828-5.3828-4.3184c-1.2922-1.0365-1.4992-2.9243-0.46289-4.2168 0.50317-0.62763 1.2368-1.0262 2.0371-1.1074 0.78284-0.07919 1.5659 0.15218 2.1797 0.64453l5.3828 4.3164 4.3164-5.3828c0.50317-0.62763 1.2368-1.0262 2.0371-1.1074 0.19571-0.0198 0.39094-0.020173 0.58398-0.001953zm20.422 0c0.19304-0.01826 0.38828-0.017896 0.58398 0.001953 0.80032 0.081261 1.5339 0.47982 2.0371 1.1074l4.3164 5.3828 5.3828-4.3164c0.61374-0.49235 1.3969-0.72372 2.1797-0.64453 0.8003 0.08126 1.5339 0.47982 2.0371 1.1074 1.0363 1.2925 0.82936 3.1802-0.46289 4.2168l-5.3828 4.3184 4.3164 5.3828c1.0363 1.2925 0.82937 3.1802-0.46289 4.2168-1.2925 1.0363-3.1802 0.8274-4.2168-0.46484l-4.3164-5.3828-5.3828 4.3164c-1.2925 1.0363-3.1802 0.82936-4.2168-0.46289-1.0363-1.2925-0.82936-3.1802 0.46289-4.2168l5.3828-4.3164-4.3164-5.3828c-1.0363-1.2925-0.82937-3.1802 0.46289-4.2168 0.46031-0.36926 1.0166-0.5917 1.5957-0.64648zm-19.611 31.432c2.2361 0 4.0231 1.3825 5.0664 2.6992 1.0433 1.3167 1.6992 2.715 2.3203 3.9648 0.6211 1.2499 1.2082 2.3521 1.6504 2.9102 0.4422 0.55808 0.38374 0.42578 0.36328 0.42578-0.020454 0-0.078922 0.1323 0.36328-0.42578 0.4422-0.55808 1.0293-1.6603 1.6504-2.9102 0.6211-1.2499 1.277-2.6481 2.3203-3.9648 1.0433-1.3167 2.8304-2.6992 5.0664-2.6992 2.2221 0 4.0097 1.3625 5.0566 2.6699 1.0469 1.3074 1.7038 2.697 2.3262 3.9414 0.62234 1.2444 1.2089 2.3449 1.6602 2.918 0.27536 0.34971 0.23033 0.26339 0.26953 0.28711 0.24949-0.21546 0.57191-0.52993 0.89062-0.92578 0.73063-0.90746 1.2891-1.875 1.2891-1.875a3 3 0 0 1 4.0898-1.123 3 3 0 0 1 1.125 4.0898s-0.73746 1.3129-1.8301 2.6699c-0.54631 0.67853-1.184 1.3925-2.0137 2.0371s-1.9224 1.354-3.5469 1.3086c-2.2191-0.062075-3.9541-1.4444-4.9883-2.7578-1.0342-1.3134-1.6905-2.7055-2.3105-3.9453-0.62005-1.2398-1.2057-2.327-1.6445-2.875-0.43885-0.54804-0.37952-0.41992-0.37305-0.41992 0.020455 0 0.078922-0.1323-0.36328 0.42578-0.4422 0.55808-1.0293 1.6583-1.6504 2.9082s-1.277 2.6501-2.3203 3.9668-2.8304 2.6992-5.0664 2.6992-4.0231-1.3825-5.0664-2.6992-1.6992-2.7169-2.3203-3.9668-1.2082-2.3501-1.6504-2.9082c-0.4422-0.55808-0.38374-0.42578-0.36328-0.42578s0.078923-0.1323-0.36328 0.42578c-0.4422 0.55808-1.0293 1.6583-1.6504 2.9082-0.6211 1.2499-1.277 2.6501-2.3203 3.9668s-2.8304 2.6992-5.0664 2.6992c-1.6822 0-2.7946-0.79299-3.625-1.5078-0.83038-0.71482-1.4579-1.4986-1.9922-2.2422-1.0686-1.4872-1.7695-2.916-1.7695-2.916a3 3 0 0 1 1.3516-4.0215 3 3 0 0 1 4.0234 1.3516c0 1e-6 0.54007 1.0715 1.2676 2.084 0.32137 0.44727 0.6548 0.81219 0.91211 1.0566 0.031598-0.028027-0.041872 0.071331 0.19726-0.23047 0.4422-0.55808 1.0273-1.6603 1.6484-2.9102 0.6211-1.2499 1.277-2.6481 2.3203-3.9648s2.8304-2.6992 5.0664-2.6992z"/></svg>
