<svg width="100" height="100" version="1.1" viewBox="0 0 100 100" xmlns="http://www.w3.org/2000/svg"><path d="m44.334 0a4.1018 4.1014 0 0 0-0.67773 0.060547c-3.0411 0.52847-5.9985 1.4451-8.7969 2.6973a4.1018 4.1014 0 0 0-2.0703 5.4199 4.1018 4.1014 0 0 0 3.7461 2.4238 4.1018 4.1014 0 0 0 1.6738-0.35547c2.1929-0.98122 4.5021-1.6956 6.8496-2.1035a4.1018 4.1014 0 0 0 3.3398-4.7441 4.1018 4.1014 0 0 0-4.0645-3.3984zm16.227 1.2891a4.1018 4.1014 0 0 0-3.9004 2.7734 4.1018 4.1014 0 0 0 2.5488 5.209c2.2657 0.77628 4.4532 1.8396 6.5 3.1406a4.1018 4.1014 0 0 0 2.1797 0.64062 4.1018 4.1014 0 0 0 3.4824-1.9023 4.1018 4.1014 0 0 0-1.2617-5.6602c-2.568-1.6323-5.3314-2.9838-8.2402-3.9805a4.1018 4.1014 0 0 0-1.3086-0.2207zm-37.135 10.869a4.1018 4.1014 0 0 0-3.0039 1.3906c-1.9803 2.2498-3.7364 4.6779-5.2617 7.2305a4.1018 4.1014 0 0 0 1.418 5.623 4.1018 4.1014 0 0 0 2.0273 0.58203 4.1018 4.1014 0 0 0 3.5996-1.998c1.2796-2.1413 2.7438-4.1641 4.377-6.0195a4.1018 4.1014 0 0 0-0.37109-5.7871 4.1018 4.1014 0 0 0-2.7852-1.0215zm56.047 4.0781a4.1018 4.1014 0 0 0-2.2363 0.72656 4.1018 4.1014 0 0 0-1.043 5.7051c1.4145 2.0475 2.6497 4.2301 3.6973 6.5059a4.1018 4.1014 0 0 0 3.7715 2.3887 4.1018 4.1014 0 0 0 1.6699-0.37695 4.1018 4.1014 0 0 0 2.0117-5.4414c-1.2389-2.6914-2.7065-5.2863-4.4004-7.7383a4.1018 4.1014 0 0 0-3.4707-1.7695zm-47.01 15.764a7.5 7.5 0 0 0-7.4629 7.5 7.5 7.5 0 0 0 7.5 7.5 7.5 7.5 0 0 0 7.5-7.5 7.5 7.5 0 0 0-7.5-7.5 7.5 7.5 0 0 0-0.037109 0zm35 0a7.5 7.5 0 0 0-7.4629 7.5 7.5 7.5 0 0 0 7.5 7.5 7.5 7.5 0 0 0 7.5-7.5 7.5 7.5 0 0 0-7.5-7.5 7.5 7.5 0 0 0-0.037109 0zm-54.848 1.9922a4.1018 4.1014 0 0 0-3.8926 3.2285c-0.62666 2.8797-1.029 5.8017-1.2148 8.7305a4.1018 4.1014 0 0 0 3.834 4.3535 4.1018 4.1014 0 0 0 0.23438 0.007812 4.1018 4.1014 0 0 0 4.1191-3.8438c0.16048-2.5285 0.5068-5.04 1.043-7.5039a4.1018 4.1014 0 0 0-3.1348-4.8789 4.1018 4.1014 0 0 0-0.98828-0.09375zm75.422 5.1035a4.1018 4.1014 0 0 0-0.50976 0.027344 4.1018 4.1014 0 0 0-3.5898 4.5566c0.29864 2.5114 0.41182 5.0499 0.33789 7.584a4.1018 4.1014 0 0 0 3.9785 4.2188 4.1018 4.1014 0 0 0 0.0625 0.003906v-0.001953a4.1018 4.1014 0 0 0 4.1582-3.9805c0.085529-2.9319-0.041601-5.8722-0.38867-8.791a4.1018 4.1014 0 0 0-4.0488-3.6172zm-54.76 17.904a4 4 0 0 0-1.6934 0.35547 4 4 0 0 0-1.9961 5.293c3.6598 8.0904 11.619 13.352 20.395 13.352s16.735-5.2612 20.395-13.352a4 4 0 0 0-1.9941-5.293 4 4 0 0 0-5.2949 1.9961c-2.4112 5.3302-7.5156 8.6484-13.105 8.6484s-10.694-3.3182-13.105-8.6484a4 4 0 0 0-3.5996-2.3516zm-20.412 1.3984a4.1018 4.1014 0 0 0-0.8418 0.11133 4.1018 4.1014 0 0 0-3.0391 4.9395c0.68384 2.867 1.5932 5.6846 2.7266 8.416a4.1018 4.1014 0 0 0 3.6758 2.5293 4.1018 4.1014 0 0 0 1.6855-0.3125 4.1018 4.1014 0 0 0 2.2168-5.3594c-0.96254-2.3197-1.7393-4.7237-2.3242-7.1758a4.1018 4.1014 0 0 0-4.0996-3.1484zm72.633 4.9648a4.1018 4.1014 0 0 0-3.9082 2.7598c-0.82218 2.3756-1.8368 4.6816-3.0332 6.877a4.1018 4.1014 0 0 0 1.6406 5.5645 4.1018 4.1014 0 0 0 1.875 0.49805 4.1018 4.1014 0 0 0 3.6895-2.1387c1.4205-2.6066 2.6119-5.3254 3.5781-8.1172a4.1018 4.1014 0 0 0-2.5332-5.2188 4.1018 4.1014 0 0 0-1.3086-0.22461zm-61.256 16.611a4.1018 4.1014 0 0 0-2.7891 1.0898 4.1018 4.1014 0 0 0-0.22266 5.7988c2.0401 2.2042 4.3057 4.215 6.7773 5.9707a4.1018 4.1014 0 0 0 2.3184 0.75781 4.1018 4.1014 0 0 0 3.4004-1.7246 4.1018 4.1014 0 0 0-0.96875-5.7188c-1.9873-1.4116-3.8337-3.0486-5.5078-4.8574a4.1018 4.1014 0 0 0-3.0078-1.3164zm47.697 3.5664a4.1018 4.1014 0 0 0-2.6699 0.95508c-1.8768 1.57-3.9112 2.9348-6.0566 4.0371a4.1018 4.1014 0 0 0-1.7715 5.5234 4.1018 4.1014 0 0 0 3.6953 2.2266 4.1018 4.1014 0 0 0 1.8262-0.45312c2.7196-1.3972 5.2533-3.1047 7.5703-5.043a4.1018 4.1014 0 0 0 0.51367-5.7773 4.1018 4.1014 0 0 0-3.1074-1.4688zm-26.574 7.9453a4.1018 4.1014 0 0 0-3.9805 3.5293 4.1018 4.1014 0 0 0 3.4902 4.6328c1.6829 0.23672 3.3776 0.35127 5.0684 0.35156a4.1018 4.1014 0 0 0 4.1035-4.1016 4.1018 4.1014 0 0 0-4.1035-4.1016c-1.3171-2.23e-4 -2.6281-0.089227-3.9238-0.27148a4.1018 4.1014 0 0 0-0.6543-0.039063z"/></svg>
