<svg width="100" height="100" version="1.1" viewBox="0 0 100 100" xmlns="http://www.w3.org/2000/svg"><path d="m37.5 5c-20.711 0-37.5 20.147-37.5 45s16.789 45 37.5 45c8.8994 0 17.07-3.7267 23.5-9.9414v-15.266c0-3.3795 1.6883-6.4144 4.2891-8.2422v-0.68555c0.001398-4.7671 0.5129-7.5934 1.9688-10.414 0.8373-1.6223 1.8646-3.0231 3.1973-4.3789h0.001953c1.2014-1.2222 2.5872-2.2436 4.0918-3.0547-2.7961-21.537-18.317-38.018-37.049-38.018zm-17.537 25c0.01237-3.1e-5 0.024739-3.1e-5 0.037109 0 4.1421 0 7.5 3.3579 7.5 7.5s-3.3579 7.5-7.5 7.5-7.5-3.3579-7.5-7.5c-5.1e-5 -4.1277 3.3353-7.4796 7.4629-7.5zm35 0c0.0124-3.1e-5 0.024709-3.1e-5 0.037109 0 4.1421 0 7.5 3.3579 7.5 7.5s-3.3579 7.5-7.5 7.5c-4.1421 0-7.5-3.3579-7.5-7.5-5e-5 -4.1277 3.3353-7.4796 7.4629-7.5zm27.768 15c-1.7063-0.001161-2.0477 0.033344-3.1855 0.32227-2.3468 0.59586-4.5813 1.8692-6.2363 3.5527-1.1571 1.1772-1.7915 2.0451-2.4961 3.4102-1.2439 2.41-1.5221 3.9738-1.5234 8.5801l-0.001953 3.1289c-2.4836 0.74021-4.2871 3.0484-4.2871 5.7988v19.158c0 3.3515 2.676 6.0488 6 6.0488h23c3.324 0 6-2.6974 6-6.0488v-19.158c0-2.54-1.5393-4.7023-3.7305-5.6016h0.027344c-0.08171 0-0.12283-1.0405-0.12305-3.1797-3.58e-4 -3.4825-0.10807-4.7701-0.53516-6.2734-0.36117-1.2714-1.3755-3.3431-2.1133-4.3203-0.73966-0.97971-2.3113-2.4988-3.25-3.1406-1.1336-0.77521-2.9528-1.5888-4.3574-1.9492-1.1407-0.29272-1.476-0.32694-3.1855-0.32812h-0.001953zm-0.041016 5.7852c0.43795-4.73e-4 0.88436 0.052622 1.4727 0.1582 2.249 0.40365 4.3175 1.982 5.3574 4.0879 0.7191 1.4564 0.77753 1.7747 0.83008 5.3398l0.050782 3.373h-15.336l0.044922-3.373c0.04848-3.116 0.062996-3.2751 0.35742-4.1758 0.89075-2.7249 3.1058-4.729 5.8008-5.248 0.5544-0.10682 0.98392-0.16164 1.4219-0.16211zm-45.207 4.2148c8.776 0 16.735 5.2608 20.395 13.352 0.91068 2.0123 0.01796 4.3818-1.9941 5.293-2.0133 0.9117-4.3845 0.01782-5.2949-1.9961-2.4112-5.3302-7.5161-8.6484-13.105-8.6484s-10.693 3.3182-13.104 8.6484c-0.64075 1.4169-2.0446 2.334-3.5996 2.3516h-0.001953c-0.58364 0.0065-1.1616-0.11485-1.6934-0.35547-2.0128-0.91041-2.9065-3.2801-1.9961-5.293 3.6598-8.0904 11.619-13.352 20.395-13.352zm44.895 17.062c0.09997-0.0011 0.20029 0.001512 0.30274 0.007812 3.1626 0.19243 4.8764 3.5588 3.1133 6.1152-0.25126 0.36432-0.64229 0.79317-0.86914 0.95312l-0.41406 0.28906 0.99023 8.7676h-6l0.98242-8.7676-0.45703-0.31836c-0.25212-0.17558-0.62628-0.56814-0.83008-0.87109-1.7856-2.6547 0.082781-6.1418 3.1816-6.1758z"/></svg>
