<svg width="100" height="100" version="1.1" viewBox="0 0 100 100" xmlns="http://www.w3.org/2000/svg"><path d="m48 5.5879-13.068 3.8438 4.5 10.592 8.5684-2.5195v-11.916zm4 0v11.916l8.5684 2.5195 4.5-10.592-13.068-3.8438zm-20.525 5.9375-10.549 10.549 8.2617 6.4824 6.7266-6.5859-4.4395-10.445zm37.051 0-4.4395 10.445 6.7266 6.5859 8.2617-6.4824-10.549-10.549zm-18.525 9.5586-10.668 3.1387-8.1055 7.9355-4.9355 37.695 10.672 9.1465h13.037 13.037l10.672-9.1465-4.9355-37.695-8.1055-7.9355-10.668-3.1387zm-30.787 4.7324-6.3613 51.34 9.4355-7.5469 4.9141-37.527-7.9883-6.2656zm61.574 0-7.9883 6.2656 4.9141 37.527 9.4355 7.5469-6.3613-51.34zm-43.121 9.1836 5.0586 0.050781 3.543 3.6152-0.052734 5.0586-3.6133 3.543-5.0605-0.052734-3.541-3.6133 0.050781-5.0605 3.6152-3.541zm19.732 0 5.0605 0.050781 3.541 3.6152-0.052734 5.0586-3.6133 3.543-5.0605-0.052734-3.541-3.6133 0.052734-5.0605 3.6133-3.541zm-9.6992 19h4.6016l3.1992 3.1992v10.602l-3.2676 3.1992h-4.5332l-3.1992-3.1992v-10.602l3.1992-3.1992zm-23.576 19.264-10.076 8.0625 14.367 12.314 5.375-12.092-9.666-8.2852zm51.754 0-9.666 8.2852 5.375 12.092 14.367-12.314-10.076-8.0625zm-38.354 9.7363-5.334 12h17.811 17.811l-5.334-12h-12.477-12.477z"/></svg>
