<svg width="100" height="100" version="1.1" viewBox="0 0 100 100" xmlns="http://www.w3.org/2000/svg"><path d="m50 5c-20.711 0-37.5 20.147-37.5 45 0 16.53 7.432 30.968 18.5 38.791-3.42e-4 -5.6137-4e-5 -14.455 0-14.791h-2.75c-0.37911 0-0.71594-0.42671-0.7207-0.93164 0.60577-9.5083 10.435-17.068 22.471-17.068 12.108 0 21.982 7.6502 22.48 17.238 0.004296 0.5031-0.15708 0.76172-0.73047 0.76172h-2.752c6.7e-5 0.33538 5.63e-4 9.1729 0 14.793 11.069-7.8229 18.502-22.262 18.502-38.793 0-24.853-16.789-45-37.5-45zm-23.076 24.381a3 3 0 0 1 0.050781 0 3 3 0 0 1 1.002 0.16406l13.555 4.666a3.0003 3.0003 0 0 1 0.076172 5.6465l-13.555 5.0781a3 3 0 0 1-3.8613-1.7578 3 3 0 0 1 1.7559-3.8613l5.7383-2.1504-5.6621-1.9492a3 3 0 0 1-1.8594-3.8125 3 3 0 0 1 2.7598-2.0234zm46.006 0a3 3 0 0 1 2.9062 2.0234 3 3 0 0 1-1.8594 3.8125l-5.6621 1.9492 5.7383 2.1504a3 3 0 0 1 1.7559 3.8613 3 3 0 0 1-3.8613 1.7578l-13.555-5.0781a3.0003 3.0003 0 0 1 0.076172-5.6465l13.555-4.666a3 3 0 0 1 0.90625-0.16406zm-22.93 36.619c-8.2837 0-15 4.4461-15 7.7598 0 0-0.0019 19.113 0 19.9 0.0019 0.91445 0.80472 2.7149 2.6895 2.9531s3.266-2.0298 5.5781-2.082c2.3122-0.05219 4.3318 3.5 6.7324 3.4219 2.4006-0.0781 4.4955-4.2573 6.4922-4.25 1.9967 0.0073 3.7462 2.9878 5.4199 2.9961 1.5144-0.0129 3.0661-1.9729 3.0859-3.0391 0.0026-0.66559 0-19.9 0-19.9 0-3.3137-6.7143-7.7598-14.998-7.7598z"/></svg>
