<svg width="100" height="100" version="1.1" viewBox="0 0 100 100" xmlns="http://www.w3.org/2000/svg"><path d="m5 50c0 20.711 20.147 37.5 45 37.5s45-16.789 45-37.5-20.147-37.5-45-37.5-45 16.789-45 37.5zm23 17.537c-3.1e-5 -0.01237-3.1e-5 -0.02474 0-0.03711 0-4.1421 3.3579-7.5 7.5-7.5s7.5 3.3579 7.5 7.5-3.3579 7.5-7.5 7.5c-4.1277 5.1e-5 -7.4796-3.3353-7.5-7.4629zm0-35c-3.1e-5 -0.01237-3.1e-5 -0.02474 0-0.03711 0-4.1421 3.3579-7.5 7.5-7.5s7.5 3.3579 7.5 7.5-3.3579 7.5-7.5 7.5c-4.1277 5.1e-5 -7.4796-3.3353-7.5-7.4629zm25 17.463c0-8.7753 5.2597-16.733 13.35-20.393 2.0121-0.91061 4.3819-0.01777 5.293 1.9941 0.9116 2.0132 0.01759 4.3826-1.9961 5.293-5.3296 2.411-8.6465 7.5165-8.6465 13.105 0 5.589 3.3169 10.693 8.6465 13.104 1.4168 0.6407 2.334 2.0448 2.3516 3.5996v2e-3c0.0065 0.5836-0.11488 1.1616-0.35547 1.6934-0.9103 2.0127-3.2804 2.9064-5.293 1.9961-8.0895-3.6596-13.35-11.619-13.35-20.395z"/></svg>
