<svg width="100" height="100" version="1.1" viewBox="0 0 100 100" xml:space="preserve" xmlns="http://www.w3.org/2000/svg"><path d="m30.73 5c-1.5557 0-2.8184 0.91743-2.8184 2.0488v10.77 10.867c-2.87e-4 0.1976-0.20493 0.35708-0.45898 0.35742-0.25483 5.14e-4 -0.4626-0.15922-0.46289-0.35742v-8.6953-8.0234c0-1.1314-1.2607-2.0488-2.8164-2.0488-1.5557 0-2.8164 0.91743-2.8164 2.0488v12.449s-0.23404 12.234-0.59766 12.164c-0.21436-0.04129-1.1916-1.1529-2.1699-2.4707-3.3782-4.5503-3.903-5.02-5.6133-5.0215-0.8247-6.85e-4 -1.1296 0.14083-1.9395 0.89648-0.88388 0.82476-0.95983 0.989-0.94531 2.0156 0.01301 0.91953 0.28201 1.6166 1.5195 3.9531 4.543 8.5774 8.5167 14.683 10.746 16.51 1.346 1.1029 0.85475 0.7206 2.3516 2.1895 0.42714 0.41917 0.58843 2.5674 0.64062 5.3477h18.135c0.31936-4.2724 0.20251-5.6301 1.0898-6.5156 0 0 2.1591-2.6151 2.3906-5.7305 0.10818-1.4554-0.064453-15.369-0.064453-15.369l0.064453-14.068c0-1.1314-1.2607-2.0488-2.8164-2.0488-1.5557 0-2.8184 0.91743-2.8184 2.0488v5.0625 6.3418c2.36e-4 0.0067 2.36e-4 0.012871 0 0.019531 0 0.21214-0.22887 0.38477-0.51172 0.38477s-0.51172-0.17263-0.51172-0.38477v-9.4844-8.8535c0-1.1314-1.2607-2.0488-2.8164-2.0488-1.5557 0-2.8184 0.91743-2.8184 2.0488v8.293 8.4512c3.08e-4 0.22666-0.25084 0.41048-0.5625 0.41016-0.31088-4.8e-4 -0.56281-0.18406-0.5625-0.41016v-11.211-9.8867c0-1.1314-1.2607-2.0488-2.8164-2.0488zm38.539 0c-1.5557 0-2.8164 0.91743-2.8164 2.0488v9.8867 11.211c3.08e-4 0.2261-0.25162 0.40968-0.5625 0.41016-0.31166 3.22e-4 -0.56281-0.18349-0.5625-0.41016v-8.4512-8.293c0-1.1314-1.2627-2.0488-2.8184-2.0488-1.5557 0-2.8164 0.91743-2.8164 2.0488v8.8535 9.4844c0 0.21214-0.22887 0.38477-0.51172 0.38477s-0.51172-0.17263-0.51172-0.38477c-2.36e-4 -0.00666-2.36e-4 -0.012831 0-0.019531v-6.3418-5.0625c0-1.1314-1.2627-2.0488-2.8184-2.0488-1.5557 0-2.8164 0.91743-2.8164 2.0488l0.064453 14.068s-0.17264 13.914-0.064453 15.369c0.23157 3.1154 2.3906 5.7305 2.3906 5.7305 0.88734 0.88551 0.77048 2.2433 1.0898 6.5156h18.135c0.052195-2.7803 0.21348-4.9285 0.64062-5.3477 1.4968-1.4689 1.0056-1.0865 2.3516-2.1895 2.2294-1.8268 6.2031-7.9324 10.746-16.51 1.2375-2.3365 1.5065-3.0336 1.5195-3.9531 0.014514-1.0266-0.061434-1.1909-0.94531-2.0156-0.80982-0.75566-1.1147-0.89717-1.9395-0.89648-1.7102 0.001491-2.2351 0.47116-5.6133 5.0215-0.97837 1.3178-1.9556 2.4294-2.1699 2.4707-0.36361 0.070006-0.59766-12.164-0.59766-12.164v-12.449c0-1.1314-1.2607-2.0488-2.8164-2.0488-1.5557-3e-7 -2.8164 0.91743-2.8164 2.0488v8.0234 8.6953c-2.86e-4 0.1982-0.20806 0.35794-0.46289 0.35742-0.25406-3.43e-4 -0.4587-0.15983-0.45898-0.35742v-10.867-10.77c0-1.1314-1.2627-2.0488-2.8184-2.0488zm-49.27 57c-2.2091 0-4 1.7909-4 4s1.7909 4 4 4h60c2.2091 0 4-1.7909 4-4s-1.7909-4-4-4h-60zm-6 9a4 4 0 0 0-4 4 4 4 0 0 0 4 4h72a4 4 0 0 0 4-4 4 4 0 0 0-4-4h-72zm6 9c-2.2091 0-4 1.7909-4 4s1.7909 4 4 4h60c2.2091 0 4-1.7909 4-4s-1.7909-4-4-4h-60zm5.0312 10c-0.03895 2.5061-0.057936 4.715 0.013672 5h18.32c0.13173-0.5928 0.20532-2.4173 0.21484-5h-18.549zm31.389 0c0.009526 2.5827 0.083112 4.4072 0.21484 5h18.32c0.071608-0.28496 0.052622-2.4939 0.013672-5h-18.549z"/></svg>
