<svg width="100" height="100" version="1.1" viewBox="0 0 100 100" xmlns="http://www.w3.org/2000/svg"><path d="m50 5c-20.711 0-37.5 20.147-37.5 45 0 6.8293 1.2889 13.289 3.5586 19.086 0.59156-1.6412 1.2288-3.349 1.9434-5.1621 0.4898-1.2427 0.83817-2.0979 1.2891-2.9316 0.45085-0.83372 1.1364-1.694 1.7539-2.2383 0.45088-0.39739 1.2195-1.0958 2.4629-1.4414 1.2434-0.34561 2.0586-0.18754 2.7207-0.11328 0.66538 0.074621 1.4278 0.1534 2.3809 0.5918s1.7024 1.1761 2.1113 1.6543c0.67271 0.78678 1.3951 2.4906 1.5898 4.0645 0.46716-0.38237 1.6133-1.3086 1.6133-1.3086l9.1719-7.8555c0.74899-0.64154 1.6287-0.95553 2.5059-1.1367l0.61133-0.22656 0.80078 0.033203c2.0928 0.084232 3.7552 1.0786 5.0117 2.5371 1.3405-0.67421 2.8034-0.91755 4.0078-0.63086 1.5403 0.36665 2.8153 1.2114 3.8203 2.3848 0.33683 0.39321 0.56545 0.84444 0.81445 1.2852l4.3516 3.3672s1.1903 0.86804 1.6758 1.2266c0.11543-1.582 0.75146-3.3204 1.3848-4.1406v-0.001953c0.38636-0.50036 1.101-1.2742 2.0312-1.7578s1.6852-0.59966 2.3438-0.70703c0.191-0.03115 0.41703-0.051905 0.625-0.078125 0.1515-0.01909 0.27424-0.046124 0.45508-0.058594 0.64756-0.044642 1.7156 0.048536 2.5527 0.4082 0.83711 0.35967 1.2696 0.74162 1.6211 1.0215 0.64282 0.51186 1.3709 1.3362 1.8633 2.1465s0.88218 1.6481 1.4336 2.8652c1.0503 2.3184 1.9853 4.4954 2.8086 6.5254 2.3493-5.8794 3.6855-12.452 3.6855-19.408 0-24.853-16.789-45-37.5-45zm-15.75 20.5c0.24667 0 0.48751 0.043593 0.72461 0.10742 0.86694 0.12709 1.7365 0.37157 2.5859 0.77344 1.4585 0.69 3.57 2.6497 4.4688 4.1465 1.9681 3.2773 1.6883 7.7694-0.66406 10.656-1.1456 1.4059-2.6832 2.5686-4.1582 3.1465v0.001953c-1.683 0.65932-4.9533 0.75225-6.666 0.18945-3.8781-1.2744-6.4865-4.9488-6.4941-9.1504-0.010624-5.8007 4.8523-10.091 10.037-9.8555 0.055561-0.003381 0.11001-0.015625 0.16602-0.015625zm31.5 0c0.18004 0 0.35808 0.018405 0.5332 0.052734 1.3604 0.008541 2.7316 0.30727 4.0195 0.9375 1.8811 0.9206 3.9909 3.0435 4.9258 4.957 0.69639 1.4254 0.72461 1.5765 0.72461 3.9277 0 2.3082-0.039449 2.5256-0.67773 3.873-1.187 2.5057-3.4335 4.4733-6.0293 5.2812-1.5045 0.46824-4.2963 0.52121-5.6074 0.10547-2.1005-0.6661-4.1398-2.2033-5.4531-4.1113-1.9731-2.867-1.9885-7.4097-0.035156-10.504 1.5446-2.4467 4.0311-3.967 6.6973-4.3613 0.29309-0.098976 0.59381-0.1582 0.90234-0.1582zm-18.898 31.512c-0.43532-0.01754-0.83971 0.10163-1.1543 0.37109l-9.2305 7.9062s-9.2214 7.5973-9.4004 7.2832c-0.10553-0.18516 0.099316-1.6134 0.45508-3.1758 1.2284-5.3948 1.2433-6.0825 0.1582-7.3516-0.52327-0.61192-0.82182-0.75057-1.8965-0.87109-1.1729-0.13155-1.3418-0.082714-2.0938 0.58008-0.67354 0.59366-1.0203 1.2352-1.9668 3.6367-3.4745 8.8161-5.4794 15.642-5.418 18.455 0.037068 1.6985 0.72168 3.9913 1.7227 5.7773 0.84803 1.5133 3.7918 5.3953 4.5859 6.0488 0.24026 0.19776 0.90931 0.74834 1.4863 1.2227 0.57708 0.47422 1.8705 1.2262 2.877 1.6699 2.3613 1.041 5.0093 1.2119 7.3301 0.47266 0 0 1.5999-0.63148 2.248-1.043 0.64817-0.41143 10.225-8.7031 10.225-8.7031l10.479-8.8887c0.83889-0.71856 0.71654-2.2352-0.27148-3.3887-0.98803-1.1535-2.4678-1.5076-3.3066-0.78906l-3.7559 3.2168-4.7012 4.0273c-5e-3 0.0044-0.010525 0.009602-0.015625 0.013672-0.1573 0.13473-0.42974 0.073002-0.60938-0.13672s-0.19833-0.48832-0.041015-0.62305l7.0332-6.0234 6.5645-5.625c0.83889-0.71856 0.71849-2.2352-0.26953-3.3887-0.98803-1.1535-2.4697-1.5057-3.3086-0.78711l-6.1484 5.2676-6.2656 5.3672c-0.16787 0.14418-0.46636 0.073084-0.66406-0.1582-0.19709-0.23081-0.2206-0.53436-0.052735-0.67773l8.3125-7.1211 7.332-6.2773c0.83889-0.71856 0.71654-2.2372-0.27148-3.3906-0.98802-1.1535-2.4678-1.5057-3.3066-0.78711l-7.9844 6.8398-8.0586 6.9004c-0.14669 0.12528-0.39503 0.074868-0.55664-0.11328-0.16223-0.18862-0.17607-0.44422-0.029297-0.57031l6.4473-5.5215 5.9492-5.0957c0.83888-0.71856 0.7185-2.2372-0.26953-3.3906-0.61751-0.72092-1.4288-1.129-2.1543-1.1582h-0.001953-0.001954zm26.959 3.4199c-0.19207 0.01324-0.42167 0.04626-0.71289 0.09375-1.0673 0.17403-1.3595 0.3256-1.8516 0.96289-1.0204 1.3216-0.97078 2.0092 0.52539 7.3359 0.43332 1.5427 0.70944 2.9602 0.61328 3.1504-0.16312 0.32261-9.752-6.8047-9.752-6.8047l-3.0977-2.3965c-0.15398 0.75117-0.50293 1.49-1.1484 2.043l-0.44727 0.38281c0.53649 0.30913 1.037 0.69068 1.4609 1.1855 0.7497 0.87525 1.2076 1.9042 1.2949 3 0.030001 0.3768-0.014703 0.77242-0.095703 1.166l1.9648 1.5195c0.15289 0.11861 0.15261 0.37383 0 0.57031-0.15201 0.19599-0.39801 0.26038-0.55078 0.14258l-1.7012-1.3164c-0.20154 0.41542-0.48372 0.80341-0.86133 1.127l-2.3047 1.9766c0.49834 0.30187 0.95711 0.67566 1.3555 1.1406 0.74971 0.87525 1.2076 1.9062 1.2949 3.002s-0.25836 2.3663-1.2422 3.209l-0.003907 0.001953-7.1699 6.0859 2.1484 1.6465s9.9813 7.8011 10.648 8.1797c0.6679 0.37855 2.2969 0.92969 2.2969 0.92969 2.3548 0.62242 4.9904 0.32164 7.2969-0.83594 0.98306-0.49339 2.2383-1.3101 2.791-1.8125 0.55268-0.50245 1.1937-1.0854 1.4238-1.2949 0.7605-0.69239 3.5059-4.7177 4.2773-6.2715 0.91047-1.8338 1.4794-4.1572 1.4316-5.8555-0.079098-2.8128-2.4217-9.5307-6.332-18.162-1.0652-2.3513-1.4441-2.9739-2.1465-3.5332-0.58811-0.46831-0.83014-0.60808-1.4062-0.56836zm-23.926 31.473-0.48633 0.41016-0.03125 0.027344c-0.017829 0.015436-1.6686 1.4371-2.8262 2.4355 1.1408 0.12964 2.2898 0.22266 3.459 0.22266 1.2104 0 2.4001-0.097913 3.5801-0.23633-0.91156-0.70977-2.4702-1.9206-2.4844-1.9316l-1.2109-0.92773z"/></svg>
