<svg width="100" height="100" version="1.1" viewBox="0 0 100 100" xmlns="http://www.w3.org/2000/svg"><path d="m83.066 0c-0.78125 7.4015e-17 -1.3867 0.18229-1.8164 0.54688-0.41666 0.36458-0.625 0.85287-0.625 1.4648 0 0.83333 0.27995 1.3477 0.83984 1.543 0.55989 0.19531 1.3867 0.29297 2.4805 0.29297h7.9297c-0.32552 0.45573-0.76172 1.0026-1.3086 1.6406-0.53385 0.63802-1.2109 1.4193-2.0312 2.3438-0.82031 0.91146-1.7122 1.8945-2.6758 2.9492-0.95052 1.0547-2.0117 2.2331-3.1836 3.5352-1.1068 1.237-1.8359 2.0898-2.1875 2.5586-0.35156 0.45573-0.52734 0.91146-0.52734 1.3672 0 0.76823 0.2474 1.3737 0.74219 1.8164 0.50781 0.44271 1.2695 0.66406 2.2852 0.66406h14.453c0.85937 0 1.4974-0.1888 1.9141-0.56641 0.42969-0.3776 0.64453-0.86589 0.64453-1.4648 0-0.625-0.21484-1.1328-0.64453-1.5234-0.42969-0.40364-1.0677-0.60547-1.9141-0.60547h-10.449l9.7656-10.918c0.36458-0.39062 0.67057-0.72266 0.91797-0.99609 0.2474-0.28646 0.44271-0.52734 0.58594-0.72266 0.14323-0.19531 0.27344-0.44271 0.39062-0.74219 0.11719-0.3125 0.17578-0.61198 0.17578-0.89844 0-0.85937-0.30599-1.4518-0.91797-1.7773-0.59896-0.33854-1.4648-0.50781-2.5977-0.50781h-12.246zm-33.066 5c-20.711 0-37.5 20.147-37.5 45s16.789 45 37.5 45 37.5-20.147 37.5-45c0-11.943-3.8847-22.792-10.211-30.848-0.11552 0.22634-0.24783 0.45549-0.41797 0.6875-0.18071 0.24642-0.36749 0.47558-0.58594 0.72852l-0.023437 0.025391-0.023438 0.027344c-0.18823 0.20804-0.41712 0.45493-0.67578 0.73242l-0.007812 0.009765c-0.013323 0.01428-0.021647 0.02264-0.035157 0.03711l-2.7949 3.125h1.1133c1.1041 0 2.4313 0.29411 3.4668 1.2559 0.89952 0.8299 1.4492 2.1907 1.4492 3.3379 0 1.1592-0.5865 2.5282-1.4902 3.332-1.0684 0.95664-2.3498 1.1895-3.4258 1.1895h-10.818c-1.1961 0-2.5548-0.25395-3.6816-1.2363l-0.015625-0.013672-0.013672-0.011719c-1.013-0.90637-1.5547-2.3766-1.5547-3.5957 0-1.1109 0.46014-2.1277 1.0176-2.8516 9e-4 -0.0011 0.001123-0.002807 0.001954-0.003907 0.40773-0.54069 0.94086-1.1491 1.7773-2.084l0.001953-0.003906 0.003907-0.001953c0.87756-0.97507 1.6707-1.8583 2.3828-2.6484l0.007813-0.007812 0.005859-0.007813c0.079429-0.086943 0.1426-0.15658 0.2207-0.24219-0.76377-0.021136-1.4867-0.032696-2.2832-0.31055-0.83598-0.29162-1.6872-1.0068-2.1172-1.7969-0.43003-0.79006-0.52344-1.5416-0.52344-2.1895 0-1.1389 0.55426-2.5348 1.4922-3.3555l0.017578-0.015625 0.017578-0.013672c1.0056-0.85322 2.2493-1.1211 3.3008-1.1211h7.1641c-5.8403-4.5045-12.784-7.1289-20.242-7.1289zm13.078 10.129c-0.5848 0-1.0377 0.1353-1.3594 0.4082-0.31189 0.2729-0.46875 0.63957-0.46875 1.0977 0 0.62378 0.2098 1.0081 0.62891 1.1543s1.0387 0.21875 1.8574 0.21875h5.9355c-0.24366 0.34113-0.57111 0.75093-0.98047 1.2285-0.39961 0.47758-0.9055 1.0619-1.5195 1.7539-0.61404 0.68226-1.2827 1.4176-2.0039 2.207-0.7115 0.78947-1.5056 1.6718-2.3828 2.6465-0.82846 0.92592-1.3736 1.5651-1.6367 1.916-0.26316 0.34113-0.39453 0.68231-0.39453 1.0234 0 0.57505 0.18432 1.028 0.55469 1.3594 0.38012 0.33138 0.9507 0.49805 1.7109 0.49805h10.818c0.64327 0 1.1217-0.14313 1.4336-0.42578 0.32164-0.28265 0.48242-0.64736 0.48242-1.0957 0-0.46784-0.16078-0.84823-0.48242-1.1406-0.32164-0.30214-0.80007-0.45312-1.4336-0.45312h-7.8203l7.3086-8.1719c0.2729-0.2924 0.50232-0.54142 0.6875-0.74609 0.18518-0.21442 0.33224-0.39482 0.43945-0.54102 0.10721-0.1462 0.2033-0.33052 0.29102-0.55469 0.087718-0.23392 0.13281-0.4594 0.13281-0.67383 0-0.64327-0.22941-1.0864-0.6875-1.3301-0.44834-0.25341-1.0974-0.37891-1.9453-0.37891h-9.166zm-38.822 29.871c0.090753 0.23344 0.32317 0.62487 0.68945 1.0957 0.056406 0.072503 0.12141 0.15048 0.19531 0.23047 0.27854 0.30146 0.66612 0.62309 1.209 0.93359 0.83191 0.47584 1.9612 0.88404 3.4141 1.1465 1.4582 0.26342 2.8766 0.29842 4.2363 0.29102-0.002578 1.8e-5 0.11588-1.8e-5 0.11328 0 1.3265-0.008988 2.7002-0.051458 4.1172-0.30664 1.4487-0.26089 2.5785-0.66424 3.4141-1.1367 0.54375-0.30746 0.93425-0.62823 1.2148-0.92969 0.074202-0.079717 0.13863-0.156 0.19531-0.22852 0.3672-0.46981 0.59836-0.86139 0.68945-1.0957 0.083333 0.21436 0.31121 0.69749 0.25586 1.4258-0.00872 0.11472-0.023202 0.24223-0.044922 0.38086-0.081495 0.52022-0.27415 1.1905-0.7207 1.9395-0.69342 1.163-1.9127 2.3566-3.7207 3.2559-1.7169 0.85389-3.6196 1.2842-5.3613 1.3008-0.050296 4.79e-4 -0.10159 2.06e-4 -0.15234 0-1.7859-0.007272-3.7451-0.44179-5.5078-1.3184-1.8078-0.89901-3.0261-2.0872-3.7207-3.2441-0.44855-0.74708-0.64386-1.4152-0.72656-1.9336-0.02211-0.13858-0.036022-0.26636-0.044922-0.38086-0.056832-0.73007 0.17253-1.2114 0.25586-1.4258zm31.99 0c0.090752 0.23344 0.32316 0.62487 0.68945 1.0957 0.056404 0.072503 0.1214 0.15048 0.19531 0.23047 0.27854 0.30146 0.66613 0.62309 1.209 0.93359 0.83191 0.47584 1.9612 0.88404 3.4141 1.1465 1.4582 0.26342 2.8766 0.29842 4.2363 0.29102-0.002578 1.8e-5 0.11588-1.8e-5 0.11328 0 1.3265-0.008988 2.7002-0.051458 4.1172-0.30664 1.4487-0.26089 2.5785-0.66424 3.4141-1.1367 0.54374-0.30746 0.93424-0.62823 1.2148-0.92969 0.074202-0.079717 0.13863-0.156 0.19531-0.22852 0.3672-0.46981 0.59836-0.86139 0.68945-1.0957 0.083334 0.21436 0.31121 0.69749 0.25586 1.4258-0.00872 0.11472-0.023201 0.24223-0.044922 0.38086-0.081496 0.52022-0.27415 1.1905-0.7207 1.9395-0.69342 1.163-1.9127 2.3566-3.7207 3.2559-1.7169 0.85389-3.6216 1.2842-5.3633 1.3008-0.050296 4.79e-4 -0.099641 2.06e-4 -0.15039 0-1.7859-0.007272-3.7451-0.44179-5.5078-1.3184-1.8078-0.89901-3.0261-2.0872-3.7207-3.2441-0.44855-0.74708-0.64386-1.4152-0.72656-1.9336-0.02211-0.13858-0.036022-0.26636-0.044922-0.38086-0.056832-0.73007 0.17253-1.2114 0.25586-1.4258zm-6.3398 20a7 7 0 0 1 0.09375 0 7 7 0 0 1 7 7 7 7 0 0 1-7 7 7 7 0 0 1-7-7 7 7 0 0 1 6.9062-7z"/></svg>
