<svg width="100" height="100" version="1.1" viewBox="0 0 100 100" xmlns="http://www.w3.org/2000/svg"><path d="m50 5c-8.2239 0-15.824 3.1856-22.006 8.5723 0.47435 0.11995 0.95934 0.2403 1.5215 0.36914 2.6984 0.61847 5.8475 1.2288 9.4531 1.8398 0.25924 0.043937 0.50239 0.085024 0.73242 0.12305 6.5332 1.0797 15.39 2.1689 24.883 2.6309 4.229 0.20578 8.0889 0.25543 11.443 0.16602 0.31984-0.00852 0.46114-0.047664 0.76953-0.058594-0.092384-0.11397-0.15794-0.23595-0.20312-0.36328-6.7924-8.2004-16.197-13.279-26.594-13.279zm-26.908 2.5566c-0.80755 0.023676-1.579 0.072792-2.3086 0.14648-1.5209 0.15362-3.1492 0.41563-4.6348 0.85352-0.92982 0.27408-1.8211 0.62092-2.6035 1.0645-0.76484 0.43354-1.4658 0.98045-1.9961 1.6797-0.2723 0.35905-0.49477 0.75487-0.65625 1.1855-0.16766 0.44722-0.26052 0.91176-0.27734 1.3809-0.01772 0.49395 0.047625 0.96849 0.17188 1.4102 0.13444 0.47784 0.33597 0.91031 0.56641 1.293 0.52813 0.87694 1.2555 1.5515 1.957 2.0664 0.78916 0.57918 1.7078 1.0752 2.7148 1.5371 0.8173 0.3749 1.7944 0.77367 2.9219 1.1934 1.1184 0.41626 2.4997 0.87187 4.1777 1.332 2.6769 0.73412 5.7217 1.3726 9.0117 1.8672 4.3817 0.65864 8.0864 0.8966 10.283 0.99609-2.1582-0.32435-5.8451-0.9536-10.057-2.0859-3.178-0.85458-6.0492-1.8342-8.5098-2.8789-1.5395-0.65367-2.763-1.2673-3.7246-1.8047-0.97656-0.54569-1.7428-1.0701-2.3516-1.5488-0.74741-0.58778-1.329-1.1605-1.7637-1.6641-0.4057-0.46993-0.68463-0.88219-0.86328-1.2207-0.0749-0.14191-0.11894-0.24849-0.15039-0.33008-0.03246-0.08419-0.037734-0.10438-0.058594-0.14844-0.01344-0.0284-0.033735-0.060223-0.041015-0.10742-0.0074-0.048131-0.006704-0.12319 0.029297-0.22852 0.073078-0.21384 0.27562-0.52075 0.68359-0.88867 0.41375-0.37313 0.98111-0.75507 1.6973-1.127 1.1479-0.59605 2.5175-1.0893 3.9141-1.4902 0.66237-0.19019 1.3668-0.37751 2.123-0.56055 3.4161-0.82677 6.8066-1.2718 8.8672-1.4355-2.0151-0.20635-5.5047-0.59241-9.123-0.48633zm54.352 5.7012c1.1572 1.2098 2.2558 2.4918 3.291 3.8438 2.1133 0.7278 4.0508 1.4949 5.6094 2.2754 0.04724 0.02366 0.10385 0.046633 0.15039 0.070313 0.90625 0.46106 1.6269 0.8998 2.1465 1.3027 0.12985 0.10071 0.19794 0.17877 0.29492 0.26758-0.31983 0.14461-0.7318 0.29922-1.3438 0.46289-0.62945 0.16836-1.3651 0.32324-2.1973 0.46094-0.20698 0.03425-0.42309 0.068853-0.64453 0.10156-2.2305 0.32956-5.1136 0.56292-8.6152 0.65625-3.4744 0.0926-7.4298 0.042061-11.746-0.16797-9.6762-0.47085-18.661-1.5759-25.34-2.6797-0.25314-0.04184-0.50172-0.085213-0.74805-0.12695-3.6595-0.62019-6.8796-1.243-9.6797-1.8848-1.6559-0.37953-3.0375-0.73502-4.1855-1.0645-1.6183-0.46429-2.681-0.84849-3.3262-1.1113 0.58554 0.37965 1.5554 0.97333 3.1016 1.707 1.0948 0.51954 2.4289 1.0856 4.0488 1.6816 2.7111 0.99751 5.9591 1.983 9.5879 2.8672 0.24621 0.06 0.49489 0.11946 0.74805 0.17969 6.6909 1.5917 15.699 3.2114 25.541 4.0938 4.3802 0.3927 8.442 0.60134 12.041 0.62109 3.6154 0.01984 6.7087-0.15043 9.1855-0.49609 0.24846-0.03467 0.49212-0.071095 0.72852-0.10938 0.94198-0.1525 1.8365-0.34092 2.6504-0.57226 0.94769-0.26939 1.8531-0.61505 2.6035-1.0762 0.36961-0.22712 0.73669-0.50408 1.0566-0.8418 0.31862-0.33628 0.61191-0.75592 0.79492-1.2656 0.09111-0.25374 0.15156-0.52016 0.17578-0.79688 0.02416-0.27614 0.010564-0.5479-0.035156-0.8125-0.09128-0.5282-0.30576-0.99025-0.56445-1.377-0.02143-0.03203-0.048103-0.058534-0.070313-0.089844-0.24479-0.34515-0.53002-0.65124-0.83203-0.91602-0.33382-0.29265-0.70858-0.56196-1.1035-0.81055-0.80173-0.5046-1.7652-0.97304-2.8164-1.4043-2.297-0.94234-5.1779-1.7814-8.1348-2.4824-0.79517-0.18853-1.5818-0.34023-2.373-0.50586zm-58.873 12.207v0.001953c-3.8338 7.058-6.0703 15.48-6.0703 24.533 0 24.853 16.789 45 37.5 45s37.5-20.147 37.5-45c0-6.9777-1.3234-13.584-3.6855-19.479-2.2666 0.2132-4.8185 0.30855-7.6582 0.29297-1.0775-0.005915-2.1997-0.032246-3.3457-0.070312 2.8196 3.4921 3.3696 8.3829 0.75781 11.992-2.8972 4.0041-8.9629 5.0564-13.395 1.9277-0.4888-0.34513-0.93727-0.7314-1.3418-1.1484-2.8317-2.9196-3.5344-7.4048-1.1289-10.605 1.1842-1.5755 2.9887-2.5682 4.9375-2.8535-6.1305-0.5949-11.686-1.4784-16.801-2.4375-0.75474 1.2571-2.1367 2.0005-3.6016 1.9375-0.087947-0.00399-0.31956-0.036616-0.41211-0.041016-1.6846-0.080537-4.061-0.22736-6.9219-0.55469-0.15481 0.20412-0.38481 0.36471-0.66016 0.42969-0.46591 0.10988-0.92545 0.25092-1.373 0.42383-4.4518 1.7196-7.1372 6.4539-5.6035 10.428 1.3528 3.5047 5.7682 5.3289 9.748 3.7363 3.4564-1.3831 5.537-5.1013 4.2812-8.1777-1.0691-2.6192-4.424-3.9748-7.3965-2.7188-2.4645 1.0415-3.9428 3.7411-2.9707 5.918 0.77658 1.739 3.0733 2.6336 5.0332 1.7227 1.4799-0.68784 2.3638-2.3742 1.6914-3.6445-0.46064-0.87036-1.6983-1.3132-2.6289-0.7793-0.2466 0.14149-0.50893 0.44144-0.60352 0.69336-0.10248 0.27294-0.093304 0.42131 0.0625 0.60742-0.03386-0.040447 0.032847 0.023888 0.091797 0.054688 0.052194 0.02727 0.10601 0.042776 0.11719 0.046875 0.3408-0.31942 0.83404-0.4688 1.2441-0.26172 0.48435 0.24446 0.62666 0.82972 0.31641 1.2969-0.46545 0.70061-1.3473 0.95329-2 0.87305-0.60589-0.074491-1.1148-0.33701-1.4688-0.75977-0.57605-0.68808-0.6183-1.582-0.33594-2.334 0.2787-0.74225 0.84008-1.3918 1.5801-1.8164 2.1136-1.2127 4.5957-0.32343 5.5215 1.4258 1.2152 2.296-0.2723 5.1335-2.7754 6.2969-3.121 1.4506-6.6053 0.090764-7.791-2.5645-1.4271-3.1958 0.66512-7.0187 4.1797-8.5039 4.123-1.7423 8.6496 0.086246 10.102 3.6426 1.4613 3.5802-0.42793 7.7277-3.9512 9.9199-0.50327 0.31314-1.0401 0.58627-1.6055 0.8125-5.1246 2.0507-10.7-0.25231-12.42-4.707-1.8118-4.6941 1.019-10.144 5.9688-12.549-3.3217-0.50954-6.4194-1.1578-9.1914-1.918-1.3437-0.36849-2.4705-0.73408-3.4961-1.0898zm47.766 4.918c0.76866 0.25603 1.5143 0.63214 2.207 1.1426 3.0163 2.2224 4.0082 6.4347 1.7422 9.2637-1.8824 2.3501-5.6494 2.9264-8.291 0.82422-2.1181-1.6856-2.7904-4.7931-0.97852-6.7832 1.38-1.5157 4.0413-1.8515 5.7656-0.20312 0.60336 0.57677 0.97115 1.3368 1.0391 2.125 0.06876 0.79855-0.21669 1.669-0.96484 2.2188-0.45901 0.3372-1.0255 0.48213-1.6348 0.42383-0.65566-0.062748-1.4428-0.50081-1.7031-1.2871-0.17217-0.52154 0.1225-1.0593 0.65625-1.1934 0.45535-0.11466 0.89738 0.1402 1.1387 0.5293 0.011145-0.00123 0.072404-0.005464 0.13281-0.021484 0.066563-0.01765 0.14821-0.065116 0.10742-0.035156 0.20515-0.15072 0.25571-0.2987 0.23047-0.5918-0.023366-0.27136-0.19674-0.62563-0.40039-0.82031-0.76581-0.73207-2.1014-0.56424-2.793 0.19531-1.0085 1.1077-0.60661 2.9629 0.65234 3.9648 1.6665 1.3262 4.1546 0.94598 5.3926-0.59961 1.5493-1.9342 0.85094-4.9167-1.2715-6.4805-2.5595-1.8857-6.2097-1.2816-7.9746 1.0664-2.0727 2.7575-1.0646 6.8708 1.9316 8.9863 3.4497 2.4357 8.2621 1.6027 10.547-1.5547 2.4201-3.3447 1.4248-8.1416-1.877-10.93-1.187-0.0631-2.4102-0.14624-3.6543-0.24024zm-16.477 21.342c2.0894 0 3.1256 0.2821 4.5352 1.2344 3.0088 2.033 4.5766 6.5668 4.8301 13.967 0.3215 9.3859-1.5749 14.856-5.8262 16.803-0.93801 0.42941-1.5899 0.55622-3.1152 0.60742-2.2904 0.07683-3.4569-0.13708-4.6895-0.85938-1.1225-0.6578-1.8629-1.52-2.6367-3.0684-1.8752-3.752-2.7854-9.7061-2.3535-15.396 0.25132-3.3111 0.45384-4.4537 1.2051-6.7715 1.3662-4.2154 4.2078-6.5156 8.0508-6.5156z"/></svg>
