<svg width="100" height="100" version="1.1" viewBox="0 0 100 100" xmlns="http://www.w3.org/2000/svg"><path d="m6.9986 51.999c0 8.2239 3.1856 15.824 8.5723 22.006 0.11995-0.47435 0.2403-0.95936 0.36914-1.5215 0.61847-2.6984 1.2288-5.8475 1.8398-9.4531 0.04394-0.25924 0.08503-0.50239 0.12305-0.73242 1.0797-6.5332 2.1689-15.39 2.6309-24.883 0.20578-4.229 0.25543-8.0885 0.16602-11.443-0.0085-0.31984-0.04766-0.46114-0.05859-0.76953-0.11397 0.09238-0.23595 0.15794-0.36328 0.20312-8.2004 6.7924-13.279 16.197-13.279 26.594zm2.5566 26.908c0.023676 0.80755 0.072788 1.579 0.14648 2.3086 0.15362 1.5209 0.41563 3.1492 0.85352 4.6348 0.27408 0.92982 0.62097 1.8211 1.0645 2.6035 0.43354 0.76484 0.98046 1.4658 1.6797 1.9961 0.35905 0.2723 0.75482 0.49477 1.1855 0.65625 0.44722 0.16766 0.9118 0.26052 1.3809 0.27734 0.49395 0.01772 0.96853-0.04763 1.4102-0.17188 0.47784-0.13444 0.91034-0.33597 1.293-0.56641 0.87694-0.52813 1.5515-1.2555 2.0664-1.957 0.57918-0.78916 1.0752-1.7078 1.5371-2.7148 0.3749-0.8173 0.77371-1.7944 1.1934-2.9219 0.41626-1.1184 0.87184-2.4997 1.332-4.1777 0.73412-2.6769 1.3726-5.7217 1.8672-9.0117 0.65864-4.3817 0.8966-8.0862 0.99609-10.283-0.32435 2.1582-0.95356 5.8455-2.0859 10.057-0.85458 3.178-1.8342 6.0492-2.8789 8.5098-0.65367 1.5395-1.2673 2.763-1.8047 3.7246-0.54569 0.97656-1.0701 1.7428-1.5488 2.3516-0.58778 0.74741-1.1605 1.329-1.6641 1.7637-0.46993 0.4057-0.88219 0.68463-1.2207 0.86328-0.14191 0.0749-0.24849 0.11894-0.33008 0.15039-0.08419 0.03246-0.10438 0.03773-0.14844 0.05859-0.0284 0.01344-0.06022 0.03374-0.10742 0.04102-0.04813 0.0074-0.12319 0.0067-0.22852-0.0293-0.21384-0.07308-0.52075-0.27562-0.88867-0.68359-0.37313-0.41375-0.75512-0.98114-1.127-1.6973-0.59605-1.1479-1.0893-2.5175-1.4902-3.9141-0.19019-0.66237-0.37751-1.3668-0.56055-2.123-0.82677-3.4161-1.2718-6.8066-1.4355-8.8672-0.20635 2.0151-0.59241 5.5047-0.48633 9.123zm5.7012-54.352c1.2098-1.1572 2.4918-2.2558 3.8438-3.291 0.7278-2.1133 1.4949-4.0508 2.2754-5.6094 0.02366-0.04724 0.04663-0.10385 0.07031-0.15039 0.46106-0.90625 0.89977-1.6269 1.3027-2.1465 0.10071-0.12985 0.17877-0.19794 0.26758-0.29492 0.14461 0.31983 0.29922 0.73185 0.46289 1.3438 0.16836 0.62945 0.32324 1.3651 0.46094 2.1973 0.03425 0.20698 0.06885 0.42309 0.10156 0.64453 0.32956 2.2305 0.56292 5.1136 0.65625 8.6152 0.0926 3.4744 0.04206 7.4297-0.16797 11.746-0.47085 9.6762-1.5759 18.661-2.6797 25.34-0.04184 0.25314-0.08521 0.50172-0.12695 0.74805-0.62019 3.6595-1.243 6.8796-1.8848 9.6797-0.37953 1.6559-0.73507 3.0375-1.0645 4.1855-0.46429 1.6183-0.84846 2.681-1.1113 3.3262 0.37965-0.58554 0.9733-1.5554 1.707-3.1016 0.51954-1.0948 1.0856-2.4289 1.6816-4.0488 0.99751-2.7111 1.983-5.9591 2.8672-9.5879 0.06-0.24621 0.11946-0.49489 0.17969-0.74805 1.5917-6.6909 3.2114-15.699 4.0938-25.541 0.3927-4.3802 0.60134-8.442 0.62109-12.041 0.019843-3.6154-0.15043-6.7087-0.49609-9.1855-0.03467-0.24846-0.0711-0.49212-0.10938-0.72852-0.1525-0.94198-0.34092-1.8365-0.57226-2.6504-0.26939-0.94769-0.61508-1.8531-1.0762-2.6035-0.22712-0.36961-0.50408-0.73665-0.8418-1.0566-0.33628-0.31862-0.7559-0.61191-1.2656-0.79492-0.25374-0.09111-0.52016-0.15156-0.79688-0.17578-0.27614-0.02416-0.5479-0.010564-0.8125 0.035156-0.5282 0.09128-0.9903 0.30576-1.377 0.56445-0.03203 0.02143-0.05853 0.048103-0.08984 0.070313-0.34515 0.24479-0.65124 0.53002-0.91602 0.83203-0.29265 0.33382-0.56196 0.70856-0.81055 1.1035-0.5046 0.80173-0.97304 1.7652-1.4043 2.8164-0.94234 2.297-1.7814 5.1779-2.4824 8.1348-0.18853 0.79517-0.34023 1.5818-0.50586 2.373zm12.209 58.873c7.058 3.8338 15.48 6.0703 24.533 6.0703 24.853 0 45-16.789 45-37.5 0-20.711-20.147-37.5-45-37.5-6.9777 0-13.584 1.3234-19.479 3.6855 0.20789 2.2102 0.30086 4.6979 0.29102 7.4531 0.11964-0.13914 0.24925-0.27024 0.39453-0.38672 1.2925-1.0363 3.1802-0.82936 4.2168 0.46289l4.3184 5.3828 5.3828-4.3164c1.2925-1.0363 3.1802-0.82937 4.2168 0.46289 1.0363 1.2925 0.8274 3.1802-0.46484 4.2168l-5.3828 4.3164 4.3164 5.3828c1.0363 1.2925 0.82936 3.1802-0.46289 4.2168-1.2925 1.0363-3.1802 0.82936-4.2168-0.46289l-4.3164-5.3828-5.3828 4.3164c-1.1552 0.9262-2.782 0.85348-3.8555-0.09375-0.54953 4.4205-1.2302 8.5405-1.9551 12.406 1.2571 0.75474 2.0005 2.1367 1.9375 3.6016-4e-3 0.08795-0.03662 0.31956-0.04102 0.41211-2e-3 0.04135-0.0058 0.09846-0.0078 0.14062 1.0715-1.0074 2.7414-1.1086 3.9219-0.16211l5.3828 4.3164 4.3164-5.3828c1.0365-1.2922 2.9243-1.4992 4.2168-0.46289 1.2922 1.0365 1.4992 2.9243 0.46289 4.2168l-4.3164 5.3828 5.3828 4.3164c1.2922 1.0365 1.5011 2.9243 0.46484 4.2168-1.0365 1.2922-2.9243 1.4992-4.2168 0.46289l-5.3828-4.3164-4.3184 5.3828c-1.0365 1.2922-2.9243 1.4992-4.2168 0.46289-0.62763-0.50317-1.0262-1.2368-1.1074-2.0371-0.07919-0.78284 0.15218-1.5659 0.64453-2.1797l4.3164-5.3828-5.3828-4.3164c-0.16396-0.13145-0.31028-0.27947-0.44141-0.43945-0.15304 1.7681-0.37497 3.8034-0.71484 6.0645-0.51585 3.4317-1.1826 6.6241-1.9648 9.4766-0.36849 1.3437-0.73404 2.4705-1.0898 3.4961zm4.6484-44.613 4.9453-3.9648-4.3164-5.3828c-0.0039-0.0048-0.0059-0.01078-0.0098-0.01563-0.09684 2.7538-0.27992 5.681-0.55664 8.7676-0.01827 0.20378-0.04356 0.39323-0.0625 0.5957zm29.885 22.584c0-2.2361 1.3825-4.0231 2.6992-5.0664s2.715-1.6992 3.9648-2.3203c1.2499-0.6211 2.3521-1.2082 2.9102-1.6504 0.55808-0.44221 0.42578-0.38374 0.42578-0.36328 0 0.0204 0.1323 0.07891-0.42578-0.36328-0.55808-0.4422-1.6603-1.0293-2.9102-1.6504-1.2499-0.6211-2.6481-1.277-3.9648-2.3203-1.3167-1.0433-2.6992-2.8304-2.6992-5.0664 0-2.2221 1.3625-4.0097 2.6699-5.0566 1.3074-1.0469 2.697-1.7038 3.9414-2.3262 1.2444-0.62233 2.3449-1.2089 2.918-1.6602 0.34971-0.27537 0.26339-0.23034 0.28711-0.26953-0.21546-0.24949-0.52993-0.57192-0.92578-0.89062-0.90746-0.73063-1.875-1.2891-1.875-1.2891a3 3 0 0 1-1.123-4.0898 3 3 0 0 1 4.0898-1.125s1.3129 0.73746 2.6699 1.8301c0.67853 0.54631 1.3925 1.184 2.0371 2.0137 0.64462 0.8297 1.354 1.9224 1.3086 3.5469-0.06207 2.2191-1.4444 3.9541-2.7578 4.9883-1.3134 1.0342-2.7055 1.6905-3.9453 2.3105s-2.327 1.2057-2.875 1.6445c-0.54804 0.43885-0.41992 0.37952-0.41992 0.37305 0-0.0204-0.1323-0.0789 0.42578 0.36328 0.55808 0.4422 1.6583 1.0293 2.9082 1.6504s2.6501 1.277 3.9668 2.3203 2.6992 2.8303 2.6992 5.0664c0 2.236-1.3825 4.0231-2.6992 5.0664-1.3167 1.0434-2.7169 1.6992-3.9668 2.3203-1.2499 0.6211-2.3501 1.2082-2.9082 1.6504-0.55808 0.4422-0.42578 0.38373-0.42578 0.36328 0-0.0205-0.1323-0.0789 0.42578 0.36328 0.55808 0.4422 1.6583 1.0293 2.9082 1.6504 1.2499 0.6211 2.6501 1.277 3.9668 2.3203 1.3167 1.0434 2.6992 2.8303 2.6992 5.0664 0 1.6822-0.79299 2.7946-1.5078 3.625-0.71482 0.83038-1.4986 1.4579-2.2422 1.9922-1.4872 1.0686-2.916 1.7695-2.916 1.7695a3 3 0 0 1-4.0215-1.3516 3 3 0 0 1 1.3516-4.0234c1e-6 0 1.0715-0.54007 2.084-1.2676 0.44727-0.32137 0.81219-0.6548 1.0566-0.91211-0.02803-0.0316 0.07133 0.0419-0.23047-0.19726-0.55808-0.4422-1.6603-1.0273-2.9102-1.6484-1.2499-0.6211-2.6481-1.277-3.9648-2.3203-1.3167-1.0433-2.6992-2.8304-2.6992-5.0664z"/></svg>
