<svg width="100" height="100" viewBox="0 0 100 100" xmlns="http://www.w3.org/2000/svg">
 <path d="m43.893 0c-1.1449 0-1.9082 0.76251-1.9082 1.9082l-2.2891 12.596c-2.6716 0.76298-4.9632 1.9079-7.6348 3.0527l-10.305-7.252c-0.76297-0.76298-1.909-0.76298-2.6719 0l-8.7793 8.3965c-0.3819 0.76298-0.76298 1.9098 0 3.0547l7.252 10.305c-1.1449 2.6716-2.289 4.9632-3.0527 7.6348l-12.596 2.2891c-1.1449 0-1.9082 0.76251-1.9082 1.9082v11.832c0 1.1449 0.76251 2.291 1.9082 2.291l12.596 2.2891c0.76298 2.6716 1.9079 4.9632 3.0527 7.6348l-7.252 10.305c-0.76298 0.76297-0.76298 1.909 0 2.6719l8.3965 8.7793c0.76298 0.76298 1.9098 0.76298 3.0547 0l10.305-7.252c2.6716 1.1449 4.9632 2.289 7.6348 3.0527l2.2891 12.596c0 1.1449 0.76251 1.9082 1.9082 1.9082h11.832c1.1449 0 2.291-0.7625 2.291-1.9082l2.2891-12.596c2.6716-0.76297 4.9632-1.9079 7.6348-3.0527l10.688 7.252c0.76297 0.76298 1.907 0.76298 2.6699 0l8.3984-8.7793c0.76297-0.76298 0.76193-1.909 0.38086-2.6719l-7.6328-10.688c1.1449-2.2898 2.289-4.5802 3.0527-7.252l12.596-2.2891c1.1449 0 1.9082-1.1461 1.9082-2.291v-11.832c0-1.1449-0.76251-1.9082-1.9082-1.9082l-12.596-2.2891c-0.76297-2.6716-1.9079-4.9622-3.0527-7.252l7.252-10.688c0.76298-1.1449 0.76298-2.2909 0-3.0547l-8.7793-8.3965c-0.76298-0.76298-1.909-0.76298-2.6719 0l-10.305 7.252c-2.6716-1.1449-4.9632-2.289-7.6348-3.0527l-2.2891-12.596c0-1.1449-1.1461-1.9082-2.291-1.9082zm5.9629 20a30 30 0 0 1 0.14453 0 30 30 0 0 1 30 30 30 30 0 0 1-30 30 30 30 0 0 1-30-30 30 30 0 0 1 29.855-30zm0.49609 7.75c-3.0568 0-5.7309 0.6268-8.0234 1.8809-2.2926 1.2541-4.0371 2.8414-5.2324 4.7617-1.1953 1.9007-1.793 3.7811-1.793 5.6426 0 0.90135 0.37259 1.7455 1.1172 2.5293 0.76419 0.76419 1.6957 1.1445 2.793 1.1445 1.8615 0 3.1248-1.1061 3.791-3.3203 0.70541-2.1162 1.569-3.7133 2.5879-4.791 1.0189-1.0973 2.6044-1.6465 4.7598-1.6465 1.8419 0 3.342 0.53948 4.498 1.6172 1.1757 1.0777 1.7637 2.4012 1.7637 3.9688 0 0.80338-0.196 1.5466-0.58789 2.2324-0.3723 0.68581-0.84386 1.3126-1.4121 1.8809-0.54865 0.54865-1.4491 1.3714-2.7031 2.4688-1.4304 1.2541-2.5676 2.3427-3.4102 3.2637-0.84257 0.90135-1.5179 1.959-2.0273 3.1738-0.50946 1.1953-0.76367 2.6158-0.76367 4.2617 0 1.3128 0.34153 2.3025 1.0273 2.9688 0.70541 0.66622 1.569 1 2.5879 1 1.9595 0 3.1238-1.0188 3.4961-3.0566 0.21554-0.96014 0.37273-1.6277 0.4707-2 0.11757-0.39189 0.27476-0.77419 0.4707-1.1465 0.19595-0.39189 0.49092-0.813 0.88281-1.2637 0.41149-0.47027 0.94902-1.0078 1.6152-1.6152 2.4101-2.1554 4.0751-3.6846 4.9961-4.5859 0.94054-0.92095 1.7439-2.0077 2.4102-3.2617 0.68581-1.2541 1.0293-2.7153 1.0293-4.3809 0-2.1162-0.5977-4.0742-1.793-5.877-1.1757-1.8027-2.8504-3.2232-5.0254-4.2617-2.175-1.0581-4.6842-1.5879-7.5254-1.5879zm-0.70508 35.711c-1.2541 0-2.3117 0.4211-3.1738 1.2637-0.86216 0.84257-1.293 1.8808-1.293 3.1152-1e-6 1.3912 0.44051 2.4799 1.3223 3.2637 0.90135 0.76419 1.9493 1.1465 3.1445 1.1465 1.1561 0 2.1749-0.392 3.0566-1.1758 0.88176-0.78379 1.3223-1.8628 1.3223-3.2344 0-1.2345-0.4211-2.2727-1.2637-3.1152-0.84257-0.84257-1.8808-1.2637-3.1152-1.2637z"/>
</svg>
