<svg width="100" height="100" viewBox="0 0 100 100" xmlns="http://www.w3.org/2000/svg">
 <path d="m25.859 5.9194c-0.39184 0.062245-1.6276 0.28878-2.7612 0.51531-11.724 2.4316-20.027 11.291-22.624 24.106-0.41123 2.0612-0.47347 2.9469-0.47347 7.0878 0.020408 4.1408 0.062245 5.0071 0.47347 6.8816 1.7725 8.1388 5.6051 14.938 12.281 21.799 5.748 5.9337 11.909 10.611 24.539 18.605 5.6245 3.5439 7.1082 4.5949 10.137 7.15l2.5133 2.102 2.4316-2.0602c2.7398-2.3286 4.9653-3.8735 12.115-8.4265 10.796-6.8816 16.318-11.064 21.757-16.483 5.9133-5.8929 9.7868-11.827 11.867-18.132 1.5255-4.6163 2.0204-8.0367 1.8551-12.776-0.59797-16.236-10.405-28.042-25.116-30.205-2.9878-0.43265-8.0357-0.28878-10.838 0.30918-4.9653 1.051-9.3949 3.2551-12.795 6.3255l-1.2571 1.1337-1.4837-1.2776c-3.5439-3.049-7.85-5.1714-12.63-6.202-1.8122-0.39184-8.1174-0.68061-9.9919-0.45408zm7.8082 5.9551c6.1816 1.0092 11.62 4.5122 15.02 9.6633 0.57653 0.90714 1.1122 1.7306 1.1745 1.8541 0.06225 0.16531 0.14388 0.16531 0.20612 0 1.9571-3.9561 6.5725-8.2418 10.776-9.9724 4.9867-2.0816 11.167-2.4316 16.484-0.90714 8.5919 2.452 14.588 9.5602 16.442 19.553 0.57653 3.0286 0.53572 8.5296-0.08265 11.353-2.1225 9.8694-8.448 18.296-20.501 27.361-2.7612 2.0602-9.3133 6.449-15.762 10.549-1.9367 1.2367-4.4296 2.9051-5.5214 3.7092l-1.9776 1.4837-1.3806-1.051c-1.4837-1.1337-4.6776-3.2347-11.662-7.7265-5.2949-3.3796-9.7255-6.4898-13.187-9.2714-3.049-2.452-8.8592-8.2-10.61-10.529-3.6061-4.8-5.7694-9.3122-6.9021-14.443-0.51531-2.4102-0.63878-7.6643-0.22653-10.466 1.5653-10.652 8.0551-18.441 17.265-20.728 3.1531-0.78367 7.2112-0.94796 10.446-0.43265z"/>
</svg>
