<svg width="100" height="100" viewBox="0 0 100 100" xmlns="http://www.w3.org/2000/svg">
 <path d="m25.858 5.9193c-0.39184 0.062245-1.6276 0.28878-2.7612 0.51531-11.724 2.4316-20.027 11.291-22.624 24.106-0.41123 2.0612-0.47347 2.9469-0.47347 7.0878 0.020408 4.1408 0.062245 5.0072 0.47347 6.8817 1.7725 8.1388 5.6051 14.938 12.281 21.799 5.748 5.9337 11.909 10.611 24.539 18.605 5.6245 3.5439 7.1082 4.5949 10.137 7.15l2.5133 2.102 2.4316-2.0602c2.7398-2.3286 4.9653-3.8735 12.115-8.4266 10.796-6.8816 16.318-11.064 21.757-16.483 5.9133-5.8929 9.7868-11.827 11.867-18.132 1.5255-4.6163 2.0204-8.0368 1.8551-12.776-0.59796-16.236-10.405-28.042-25.116-30.205-2.9878-0.43265-8.0357-0.28878-10.838 0.30918-4.9653 1.051-9.3949 3.2551-12.795 6.3255l-1.2571 1.1337-1.4837-1.2776c-3.5439-3.049-7.85-5.1714-12.63-6.2021-1.8122-0.39184-8.1174-0.68061-9.9919-0.45408z"/>
</svg>
