<svg width="100" height="100" viewBox="0 0 100 100" xmlns="http://www.w3.org/2000/svg">
 <path d="m70.85 5.8344c-2.4546-0.01092-5.0835 0.18563-6.8348 0.55935-4.9653 1.051-9.3949 3.2552-12.795 6.3256l-1.2573 1.1337-1.4837-1.2779c-3.5439-3.049-7.8499-5.1714-12.629-6.202-1.8122-0.39184-8.1174-0.68043-9.9919-0.4539-0.39184 0.06224-1.6274 0.28888-2.7611 0.51541-11.724 2.4316-20.026 11.291-22.623 24.106-0.41123 2.0612-0.47354 2.9468-0.47354 7.0876 0.020408 4.1408 0.062314 5.0073 0.47354 6.8818 1.7725 8.1388 5.605 14.938 12.281 21.799 5.748 5.9337 11.909 10.612 24.539 18.606 5.6245 3.5439 7.1081 4.5945 10.137 7.1496l2.5135 2.102 2.4318-2.0601c2.7398-2.3286 4.9651-3.8734 12.115-8.4265 10.796-6.8816 16.318-11.064 21.757-16.482 5.9133-5.8929 9.7868-11.827 11.867-18.132 1.5255-4.6163 2.0207-8.0364 1.8554-12.775-0.59796-16.236-10.405-28.042-25.117-30.205-1.1204-0.16224-2.5301-0.24366-4.0029-0.25021zm-28.436 24.296h9.8937v8.7879h10.197v7.0746h-10.197v13.127c0 1.437 0.28549 2.4133 0.85661 2.9291 0.57112 0.49743 1.7041 0.74598 3.399 0.74598h5.0849v7.0746h-8.4839c-3.9058 0-6.6788-0.81054-8.3185-2.4318-1.6213-1.6397-2.4318-4.4122-2.4318-8.318v-13.127h-4.9189v-7.0746h4.9189z"/>
</svg>
