<?xml version="1.0" encoding="UTF-8" standalone="no"?>
<svg
   xmlns:dc="http://purl.org/dc/elements/1.1/"
   xmlns:cc="http://creativecommons.org/ns#"
   xmlns:rdf="http://www.w3.org/1999/02/22-rdf-syntax-ns#"
   xmlns:svg="http://www.w3.org/2000/svg"
   xmlns="http://www.w3.org/2000/svg"
   xmlns:sodipodi="http://sodipodi.sourceforge.net/DTD/sodipodi-0.dtd"
   xmlns:inkscape="http://www.inkscape.org/namespaces/inkscape"
   height="100mm"
   width="100mm"
   version="1.1"
   x="0px"
   y="0px"
   viewBox="0 0 125.98425 125.98425"
   style="fill:#000000"
   xml:space="preserve"
   id="svg18"
   sodipodi:docname="beholder.svg"
   inkscape:version="0.92.4 (5da689c313, 2019-01-14)"><metadata
     id="metadata24"><rdf:RDF><cc:Work
         rdf:about=""><dc:format>image/svg+xml</dc:format><dc:type
           rdf:resource="http://purl.org/dc/dcmitype/StillImage" /><dc:title></dc:title></cc:Work></rdf:RDF></metadata><defs
     id="defs22" /><sodipodi:namedview
     pagecolor="#ffffff"
     bordercolor="#666666"
     borderopacity="1"
     objecttolerance="10"
     gridtolerance="10"
     guidetolerance="10"
     inkscape:pageopacity="0"
     inkscape:pageshadow="2"
     inkscape:window-width="1366"
     inkscape:window-height="715"
     id="namedview20"
     showgrid="false"
     inkscape:zoom="2.2250293"
     inkscape:cx="150"
     inkscape:cy="150"
     inkscape:window-x="-8"
     inkscape:window-y="-8"
     inkscape:window-maximized="1"
     inkscape:current-layer="svg18"
     inkscape:document-units="mm"
     units="mm" /><style
     type="text/css"
     id="style2">
	.st0{stroke:#000000;stroke-linejoin:round;stroke-miterlimit:10;}
</style><path
     style="stroke-width:1.48800147"
     d="m 43.920823,-9.611835e-7 c -3.830113,0 -6.933341,3.1042083611835 -6.933341,6.9343280611835 0,3.2274789 2.215319,5.9145029 5.200247,6.6882639 0.435984,3.026598 1.196521,6.945695 2.43156,9.436612 0.215761,0.434497 0.466473,0.852563 0.734314,1.263252 -5.34192,2.845061 -9.862035,7.039007 -13.079092,12.141369 -3.08016,-1.224626 -6.596002,-2.904722 -8.320594,-4.644197 -0.912144,-0.921074 -1.687998,-2.261905 -2.330813,-3.714195 2.199263,-1.60258 3.633782,-4.19 3.633782,-7.11839 0,-4.867257 -3.944502,-8.811767 -8.81175,-8.811767 -4.867248,0 -8.8117504,3.94451 -8.8117504,8.811767 0,4.667866 3.6322704,8.476697 8.2227494,8.781737 0.93744,2.264741 2.199133,4.553824 3.870156,6.239731 2.374849,2.397173 6.416474,4.390438 9.807627,5.772793 -1.650193,4.029515 -2.567189,8.432783 -2.567189,13.050057 0,0.824353 0.03604,1.690505 0.11044,2.639851 -0.510384,0.79013 -1.230439,1.679728 -2.051813,2.696034 -3.696192,4.572633 -9.282246,11.481867 -7.456469,23.521299 0.7812,5.152955 4.204747,7.713024 7.226875,9.9733 2.672448,1.999876 5.19884,3.886996 5.713688,7.322796 0.316944,2.11148 -0.476137,4.92737 -2.35697,8.36615 -3.66048,6.69155 3.687938,15.96408 4.001906,16.35543 0.147312,0.18153 0.363034,0.27803 0.580282,0.27803 0.159216,0 0.318417,-0.0498 0.455313,-0.15402 0.31992,-0.2485 0.383982,-0.70831 0.141434,-1.03269 -0.209808,-0.27975 -5.062594,-6.93884 0.203439,-12.26441 4.282465,-4.33009 6.453814,-8.43993 6.453814,-12.21499 0,-6.559119 -3.414024,-9.988668 -6.156408,-12.742962 -2.010288,-2.01922 -3.746684,-3.764936 -3.889532,-6.270733 -0.117553,-2.059396 0.596813,-3.822599 2.123501,-5.252576 1.974576,2.647163 4.923915,5.450814 7.331499,7.739362 0.876432,0.833282 1.673603,1.590606 2.310466,2.234911 2.397168,2.423957 5.289951,6.72382 5.554815,10.869396 0.419616,6.556142 -5.209062,12.907602 -5.267094,12.971582 -0.267841,0.29612 -0.25179,0.75058 0.03393,1.02882 0.287184,0.27975 0.743047,0.28058 1.03172,0.007 0.28272,-0.26933 6.942999,-6.66797 7.667655,-13.858001 0.308016,-3.048919 -0.247118,-6.399047 -1.648815,-9.976206 2.650128,1.023746 5.412542,1.714422 8.238253,2.056662 0.473184,0.684482 0.80738,1.358354 1.017188,2.05472 0.09374,0.309504 0.166408,0.631047 0.216999,0.965847 0.306529,2.032613 -0.806466,4.033173 -2.212626,6.564266 l -0.555094,1.003623 c -3.669408,6.710889 5.380093,17.263879 5.766973,17.708789 0.261887,0.30058 0.717816,0.34299 1.028808,0.093 0.310992,-0.25147 0.368415,-0.70407 0.128846,-1.02397 -0.06696,-0.0908 -6.660303,-9.09162 -1.404687,-14.40825 3.629233,-3.669414 5.548032,-7.882249 5.548032,-12.181089 0,-0.321409 -0.01503,-0.63136 -0.03586,-0.931937 1.983504,-0.306528 3.931079,-0.780868 5.816375,-1.419221 -1.787088,2.849526 -3.65741,6.267483 -3.103875,8.844705 1.209745,5.649952 9.441475,14.821032 9.791156,15.209402 0.251471,0.27826 0.670492,0.32419 0.975533,0.11145 0.308015,-0.21427 0.408013,-0.62188 0.235405,-0.95519 -0.05208,-0.0997 -5.264108,-10.15892 -5.122747,-15.134807 0.05357,-1.941844 1.609247,-4.513251 4.495968,-7.434201 2.330208,-2.356997 6.770508,-7.507938 8.716812,-11.946651 0.599664,-0.758881 1.171775,-1.547568 1.705967,-2.354065 1.86,1.493955 2.734423,3.40024 2.604967,5.676884 -0.144335,2.505797 -1.87924,4.249053 -3.889528,6.269761 -2.742383,2.755781 -6.155439,6.184816 -6.155439,12.743933 0,3.773576 2.170382,7.882966 6.452846,12.213056 5.249656,5.3092 0.411239,11.98607 0.204406,12.26731 -0.241055,0.32587 -0.177512,0.78374 0.142402,1.03075 0.325847,0.24998 0.781661,0.19191 1.034622,-0.12202 0.315455,-0.39283 7.661408,-9.66583 4.000936,-16.35738 -1.882317,-3.44025 -2.675849,-6.2542 -2.358904,-8.364192 0.517824,-3.435799 3.041682,-5.321953 5.715617,-7.321829 3.020644,-2.261764 6.445674,-4.821317 7.226874,-9.974272 1.82727,-12.04092 -3.75975,-18.949633 -7.457433,-23.522266 -0.708289,-0.874946 -1.327448,-1.64166 -1.812527,-2.339534 0.0164,-0.418129 0.0281,-0.837754 0.0281,-1.260347 0,-1.059458 -0.0651,-2.104077 -0.15887,-3.139727 3.034024,-1.434435 7.22824,-3.792909 9.56737,-6.737667 1.58324,-1.992439 2.7172,-4.772313 3.50881,-7.386734 5.32853,-0.986546 9.36878,-5.649445 9.36878,-11.26368 -10e-4,-6.329965 -5.13372,-11.462272 -11.46515,-11.462272 -6.33144,0 -11.463219,5.131788 -11.463219,11.463241 0,4.395561 2.477255,8.210126 6.107969,10.134114 -0.53419,1.569843 -1.16655,2.98736 -1.882277,3.887601 -1.037138,1.304979 -3.144134,2.67126 -5.291319,3.811071 -2.586135,-7.92064 -7.950191,-14.596225 -14.949743,-18.851914 0.761856,-1.333247 1.549127,-2.764065 2.165159,-4.015475 0.523776,-1.062434 0.944775,-2.459909 1.285528,-3.916664 2.702208,-0.461281 4.764312,-2.800585 4.764312,-5.635231 0,-3.1664703 -2.567117,-5.7321059 -5.732092,-5.7321059 -3.164976,0 -5.731128,2.5671236 -5.731128,5.7321059 0,2.377829 1.449352,4.418006 3.51172,5.285512 -0.272338,1.108602 -0.589695,2.11877 -0.954255,2.859794 -0.58776,1.194867 -1.357145,2.592311 -2.104121,3.89729 -4.563696,-2.226053 -9.686631,-3.478789 -15.097,-3.478789 -4.22592,0 -8.269143,0.779102 -12.014439,2.174849 -0.339265,-0.450865 -0.650405,-0.908844 -0.882533,-1.377565 -0.894288,-1.80346 -1.543682,-5.009975 -1.958808,-7.776173 2.467079,-1.062434 4.195654,-3.5116096 4.195654,-6.3685754 0,-3.8301198 -3.104201,-6.93432656118 -6.934313,-6.93432656118 z M 44.38679,3.6037568 c 2.46264,0 4.459159,1.7408638 4.459159,3.8895401 0.0015,2.1471884 -1.995031,3.8895391 -4.459159,3.8895391 -2.46264,0 -4.459154,-1.7408627 -4.459154,-3.8895391 0,-2.1486763 1.996514,-3.8895401 4.459154,-3.8895401 z m 0.415594,1.2651909 c -0.721681,0.5966892 -1.209968,1.7080176 -1.209968,2.9847242 0,1.2767066 0.486799,2.3880361 1.209968,2.9847261 0.72168,-0.59669 1.208033,-1.7080195 1.208033,-2.9847261 0,-1.2767066 -0.486353,-2.388035 -1.208033,-2.9847242 z m 36.683658,3.9699444 c 1.982016,0 3.588248,1.4621339 3.588248,3.2685699 0,1.806436 -1.606232,3.269538 -3.588248,3.269538 -1.982016,0 -3.589219,-1.463102 -3.589219,-3.269538 0,-1.804948 1.607203,-3.2685699 3.589219,-3.2685699 z m -0.371033,1.091785 c -0.58776,0.5193129 -0.985219,1.4847859 -0.985219,2.5933479 0,1.108563 0.397459,2.076494 0.985219,2.594319 0.58776,-0.519313 0.98522,-1.485756 0.98522,-2.594319 -0.0015,-1.11005 -0.39746,-2.075523 -0.98522,-2.5933479 z M 17.370292,15.746095 c 2.670961,0 4.836,2.363212 4.836,5.279698 0,2.916486 -2.165039,5.278729 -4.836,5.278729 -2.67096,0 -4.836,-2.362243 -4.836,-5.278729 0,-2.914998 2.16504,-5.279698 4.836,-5.279698 z m 0.747875,1.976254 c -1.001424,0.715729 -1.675937,2.046964 -1.675937,3.576631 0,1.529667 0.676001,2.861872 1.675937,3.577601 1.001425,-0.715729 1.674969,-2.047934 1.674969,-3.577601 0,-1.529667 -0.673544,-2.86239 -1.674969,-3.576631 z m 87.395783,1.440534 c 3.6084,0 6.53228,3.198881 6.53228,7.143577 0,3.944696 -2.92537,7.143576 -6.53228,7.143576 -3.6084,0 -6.532276,-3.19888 -6.532276,-7.143576 0,-3.944696 2.925366,-7.143575 6.532276,-7.143577 z m -0.59675,2.574942 c -1.17553,1.037138 -1.9685,2.969054 -1.9685,5.187666 0,2.218613 0.79297,4.14956 1.9685,5.186698 1.17552,-1.037138 1.9685,-2.968085 1.9685,-5.186698 0,-2.218612 -0.79298,-4.150528 -1.9685,-5.187666 z m -43.180097,11.68218 c 12.914353,0 23.381753,8.772705 23.381753,19.594945 0,10.822246 -10.468888,19.595912 -23.381753,19.595912 -12.912864,0 -23.382719,-8.773666 -23.382719,-19.595912 0,-10.82224 10.468367,-19.594945 23.382719,-19.594945 z m -0.29062,4.249914 c -5.097889,3.035528 -8.536627,8.691092 -8.536627,15.183249 0,6.492158 3.438734,12.147725 8.536627,15.183251 5.097887,-3.035526 8.536619,-8.691093 8.536619,-15.183251 0,-6.492157 -3.438732,-12.146235 -8.536619,-15.183249 z"
     id="path4"
     inkscape:connector-curvature="0" /><path
     class="st0"
     d="M 43.813,111.48425"
     id="path14"
     inkscape:connector-curvature="0"
     style="stroke:#000000;stroke-linejoin:round;stroke-miterlimit:10" /></svg>