<svg width="100" height="100" version="1.1" viewBox="0 0 100 100" xmlns="http://www.w3.org/2000/svg">
 <path d="m29.505 80.775c-10.017-10.513-20.246-21.25-22.732-23.858l-4.5194-4.7431 1.3568-0.36067c0.74624-0.19835 4.8902-1.2674 9.2088-2.3756l7.852-2.015 3.3807 1.5508c1.8594 0.85295 7.9693 3.6898 13.577 6.3042l10.197 4.7534v19.932c0 10.963-0.02454 19.931-0.05453 19.93-0.02999-1e-3 -8.2501-8.6044-18.267-19.118zm5.3813-5.2948c1.6725-0.75936 2.1868-2.4185 1.4241-4.5938-0.41429-1.1817-0.43326-1.1994-1.2683-1.1837-0.46624 9e-3 -1.1124 0.083-1.4359 0.16483-0.57932 0.14661-0.58342 0.16021-0.27264 0.90401 0.40836 0.97734 0.39807 1.407-0.04545 1.8971-0.48098 0.53147-1.7372 0.51431-2.6399-0.0361-0.39989-0.24382-0.91932-0.86275-1.1878-1.4153-0.64515-1.3279-0.40039-2.0652 0.82727-2.4917l0.88312-0.30683-0.625-1.154-0.625-1.154-1.0464 0.12393c-1.4301 0.16938-2.5138-0.36714-3.3249-1.6461-1.1484-1.8108-0.70134-3.3 0.9902-3.2984 1.1127 1e-3 2.0987 0.58577 2.7415 1.6259 0.27167 0.43957 0.6169 0.75202 0.76718 0.69436 0.15029-0.0577 0.72868-0.17315 1.2853-0.25663 0.55664-0.0835 1.0598-0.22903 1.1182-0.32346 0.17377-0.28116-1.7748-2.7158-2.6663-3.3316-1.5176-1.0481-2.4185-1.3034-4.229-1.1986-2.8139 0.16288-4.0134 1.2136-4.0117 3.5141 0.0018 2.4322 1.8713 5.2416 4.1018 6.1642 0.94535 0.39101 0.94703 0.39369 0.63562 1.0179-0.90675 1.8176 1.4759 5.4031 4.2474 6.3917 1.2167 0.43399 3.2755 0.38304 4.3566-0.1078zm17.302 4.5504v-19.969l0.81792-0.3937c5.1954-2.5007 26.107-12.12 26.348-12.12 0.17575 0 4.4984 1.0449 9.6058 2.322l9.2863 2.322-1.8419 1.8767c-1.0131 1.0322-10.849 11.25-21.858 22.706-11.009 11.456-20.543 21.369-21.187 22.027l-1.1707 1.1972zm20.461-5.8012c0.45291-1.0704 0.58121-1.5942 0.40623-1.6588-0.14066-0.0519-1.8008-0.36982-3.6892-0.70653l-3.4334-0.61218 1.3613-1.2034c2.9889-2.6421 5.4478-5.4234 7.2619-8.2138 1.1377-1.75 2.2786-3.8571 2.2786-4.2082 0-0.17351-2.8169-0.80006-2.9448-0.65499-0.03139 0.0356-0.37593 0.70273-0.76563 1.4825-1.9081 3.8178-5.0852 7.8445-8.6338 10.942-1.9319 1.6866-2.2092 2.0227-2.6237 3.1804l-0.46344 1.2945 5.2619 0.97762c2.8941 0.5377 5.2754 0.97028 5.2919 0.96131 0.01649-9e-3 0.32788-0.72032 0.69197-1.5808zm-35.401-23.649c-6.9573-3.2382-12.728-5.9659-12.823-6.0615-0.16203-0.16202 25.324-44.519 25.579-44.519 0.26692 0 25.752 44.353 25.583 44.522-0.17776 0.17776-25.461 11.981-25.614 11.958-0.04098-6e-3 -5.7669-2.6609-12.724-5.8991zm15.66-5.9708c1.6923-0.80307 2.8372-2.7157 3.4304-5.7308 0.41991-2.1344 0.1723-7.863-0.41915-9.6974-0.60297-1.8701-1.5949-3.1642-2.9655-3.8688-0.95103-0.4889-1.3518-0.55695-3.2697-0.55529-2.5524 2e-3 -3.4816 0.3673-4.772 1.8748-1.4496 1.6935-2.2424 5.3432-2.0325 9.3561 0.25608 4.8958 1.351 7.4013 3.8012 8.6984 1.2854 0.68046 4.7204 0.63792 6.2272-0.0772zm-4.1649-2.8432c-0.512-0.22245-0.85643-0.6114-1.1996-1.3547-0.44567-0.96524-0.48141-1.3665-0.48141-5.4049 0-3.7078 0.05999-4.5178 0.39988-5.3987 0.48755-1.2636 1.0518-1.69 2.2366-1.69 1.8859 0 2.5777 1.3207 2.8275 5.3985 0.16484 2.6902-0.13482 5.8621-0.68334 7.233-0.276 0.6898-0.5704 1.0229-1.0995 1.244-0.88623 0.37028-1.0917 0.36749-2.0001-0.0272zm-48.248 6.3155c0-0.14198 12.001-12.966 12.134-12.966 0.04965 0-0.0725 0.24844-0.27146 0.55208-0.19896 0.30366-0.32391 0.58678-0.27767 0.62916 0.09114 0.0835 6.0619 0.78177 6.685 0.78177 0.22797 0 0.70674-0.52288 1.1972-1.3075 0.44952-0.71913 0.8173-1.3444 0.8173-1.3896 0-0.0451-0.61344-0.14904-1.3632-0.2309-2.3054-0.25171-2.9957-0.3908-2.8787-0.58004 0.06181-0.10003 1.4303-0.97486 3.0412-1.9441 3.447-2.0741 5.0476-3.464 6.4379-5.5901 1.6248-2.4848 1.9357-4.5047 0.82346-5.3491-0.46965-0.35654-0.4292-0.40802 4.198-5.3438 2.5697-2.7411 6.1869-6.6032 8.0381-8.5826 1.8512-1.9794 3.6109-3.8442 3.9105-4.1441l0.54468-0.54529-0.4292 0.7634c-0.41378 0.73596-22.805 40.185-22.873 40.297-0.04087 0.0678-19.341 5.0664-19.571 5.0686-0.08997 8.9e-4 -0.16358-0.0527-0.16358-0.11911zm89.063-2.346-9.6329-2.4293-11.4-20.072c-6.27-11.04-11.546-20.318-11.724-20.617-0.21986-0.3695-0.04179-0.26403 0.55238 0.32716 1.3846 1.3777 17.082 18.183 17.082 18.288 0 0.0518-0.34071 0.15798-0.75713 0.2361-1.4075 0.26405-1.8031 1.603-0.97757 3.3083 0.57523 1.1883 1.9618 2.7586 3.1694 3.5895 0.85366 0.58733 0.93777 0.72189 0.81987 1.3114-0.22213 1.1107 1.1595 3.5816 2.944 5.265 1.6933 1.5974 2.9936 2.312 4.5402 2.4952 1.8873 0.22352 3.3971-0.84019 3.0541-2.1518-0.05579-0.2135-0.03712-0.38046 0.04164-0.37104 0.07876 9e-3 2.0571 2.0762 4.3964 4.5927 2.3393 2.5166 5.12 5.5024 6.1794 6.6353 1.0594 1.1328 1.7956 2.0513 1.6358 2.041-0.15971-0.0103-4.6252-1.1119-9.9233-2.448zm-7.0527-10.993c-1.3492-0.53955-3.136-2.865-3.0146-3.9233 0.06426-0.56018 0.14353-0.60968 0.95323-0.5954 1.0641 0.0188 1.9641 0.62967 2.9497 2.0022 0.45953 0.63988 0.7101 1.2518 0.7249 1.7703 0.02087 0.73119-0.02789 0.79563-0.63173 0.83473-0.35989 0.0233-0.80157-0.0165-0.98151-0.0885zm-66.621-3.142c0.35287-0.43388 2.2611-2.5186 4.2404-4.6328 2.5884-2.7647 3.7366-3.8445 4.0896-3.846 1.153-5e-3 0.25405 2.4337-1.4984 4.0649-0.40547 0.37742-2.0132 1.4902-3.5727 2.4728-1.5595 0.9826-3.0751 1.9988-3.368 2.2583-0.42899 0.38005-0.40778 0.31839 0.10906-0.31711zm60.498-4.944c-1.2005-1.2005-1.5626-2.1464-0.98351-2.5698 0.82022-0.59976 2.8708 0.6999 3.5308 2.2379 0.41708 0.97182 0.2021 1.3754-0.73268 1.3754-0.63 0-0.96228-0.19107-1.8146-1.0434z"/>
</svg>
