<?xml version="1.0" encoding="UTF-8" standalone="no"?>
<!-- Created with Inkscape (http://www.inkscape.org/) -->

<svg
   xmlns:dc="http://purl.org/dc/elements/1.1/"
   xmlns:cc="http://creativecommons.org/ns#"
   xmlns:rdf="http://www.w3.org/1999/02/22-rdf-syntax-ns#"
   xmlns:svg="http://www.w3.org/2000/svg"
   xmlns="http://www.w3.org/2000/svg"
   xmlns:sodipodi="http://sodipodi.sourceforge.net/DTD/sodipodi-0.dtd"
   xmlns:inkscape="http://www.inkscape.org/namespaces/inkscape"
   width="100mm"
   height="100mm"
   viewBox="0 0 100 100"
   version="1.1"
   id="svg8"
   inkscape:version="0.92.4 (5da689c313, 2019-01-14)"
   sodipodi:docname="d10.svg">
  <defs
     id="defs2" />
  <sodipodi:namedview
     id="base"
     pagecolor="#ffffff"
     bordercolor="#666666"
     borderopacity="1.0"
     inkscape:pageopacity="0.0"
     inkscape:pageshadow="2"
     inkscape:zoom="1.4"
     inkscape:cx="180.03323"
     inkscape:cy="195.8443"
     inkscape:document-units="mm"
     inkscape:current-layer="layer1"
     showgrid="false"
     inkscape:window-width="1366"
     inkscape:window-height="715"
     inkscape:window-x="-8"
     inkscape:window-y="-8"
     inkscape:window-maximized="1" />
  <metadata
     id="metadata5">
    <rdf:RDF>
      <cc:Work
         rdf:about="">
        <dc:format>image/svg+xml</dc:format>
        <dc:type
           rdf:resource="http://purl.org/dc/dcmitype/StillImage" />
        <dc:title></dc:title>
      </cc:Work>
    </rdf:RDF>
  </metadata>
  <g
     inkscape:label="Layer 1"
     inkscape:groupmode="layer"
     id="layer1"
     transform="translate(0,-197)">
    <path
       style="fill:#000000;stroke-width:0.21811284"
       d="M 29.504948,277.77534 C 19.488137,267.26194 9.2588212,256.52569 6.7731362,253.91701 l -4.5194279,-4.74306 1.3567977,-0.36067 c 0.7462383,-0.19835 4.8902189,-1.2674 9.208844,-2.37565 l 7.852046,-2.01499 3.380742,1.55081 c 1.859408,0.85295 7.969282,3.68984 13.577498,6.3042 l 10.196754,4.75338 v 19.93233 c 0,10.96277 -0.02454,19.93118 -0.05453,19.9298 -0.02999,-0.001 -8.250102,-8.60441 -18.266914,-19.11782 z m 5.381279,-5.29481 c 1.672483,-0.75936 2.186821,-2.41846 1.424145,-4.59385 -0.414286,-1.18168 -0.433264,-1.19939 -1.268293,-1.18367 -0.466241,0.009 -1.112389,0.083 -1.435879,0.16483 -0.579316,0.14661 -0.583417,0.16021 -0.27264,0.90401 0.408359,0.97734 0.398066,1.407 -0.04545,1.89709 -0.480981,0.53147 -1.737185,0.51431 -2.639884,-0.0361 -0.399887,-0.24382 -0.919315,-0.86275 -1.187765,-1.4153 -0.645153,-1.32793 -0.400388,-2.06515 0.827271,-2.49169 l 0.883118,-0.30683 -0.625004,-1.15395 -0.625,-1.15395 -1.046421,0.12393 c -1.43012,0.16938 -2.513804,-0.36714 -3.324916,-1.64613 -1.148389,-1.81083 -0.701342,-3.29997 0.990199,-3.29842 1.112668,10e-4 2.098656,0.58577 2.741487,1.6259 0.271666,0.43957 0.616899,0.75202 0.767184,0.69436 0.150287,-0.0577 0.728682,-0.17315 1.285322,-0.25663 0.556641,-0.0835 1.059821,-0.22903 1.118181,-0.32346 0.173766,-0.28116 -1.774757,-2.71582 -2.666338,-3.33157 -1.517611,-1.04809 -2.418522,-1.30344 -4.22898,-1.19862 -2.813924,0.16288 -4.013431,1.2136 -4.011711,3.51406 0.0018,2.43222 1.871254,5.24161 4.101772,6.16416 0.945351,0.39101 0.947029,0.39369 0.635624,1.01792 -0.906747,1.81762 1.475872,5.40309 4.247388,6.39168 1.216697,0.43399 3.275517,0.38304 4.35659,-0.1078 z m 17.302411,4.55038 v -19.96908 l 0.817922,-0.3937 c 5.19537,-2.50071 26.107099,-12.11952 26.3484,-12.11952 0.175753,0 4.498358,1.04488 9.605794,2.32198 l 9.286252,2.32199 -1.84193,1.87668 c -1.013059,1.03218 -10.849359,11.25008 -21.85845,22.70646 C 63.53754,285.2321 54.003277,295.14426 53.359372,295.80275 L 52.188638,297 Z m 20.461138,-5.80116 c 0.452911,-1.07036 0.581211,-1.59425 0.406233,-1.65879 -0.140662,-0.0519 -1.800779,-0.36982 -3.689151,-0.70653 l -3.433401,-0.61218 1.361334,-1.20341 c 2.988872,-2.64214 5.447823,-5.42343 7.261904,-8.21384 1.137721,-1.75005 2.278644,-3.85713 2.278644,-4.20825 0,-0.17351 -2.816922,-0.80006 -2.944792,-0.65499 -0.03139,0.0356 -0.37593,0.70273 -0.765634,1.48248 -1.908073,3.81783 -5.08521,7.84451 -8.633831,10.94246 -1.931944,1.68659 -2.20919,2.02267 -2.623663,3.18039 l -0.463443,1.29451 5.261916,0.97762 c 2.894054,0.5377 5.275415,0.97028 5.291911,0.96131 0.01649,-0.009 0.327883,-0.72032 0.691973,-1.58078 z M 37.248789,247.58073 C 30.291471,244.34249 24.520919,241.61482 24.425342,241.51924 24.263311,241.35722 49.748894,197 50.004022,197 c 0.266922,0 25.752238,44.35267 25.582722,44.52218 -0.177758,0.17776 -25.460876,11.98104 -25.613785,11.95765 -0.04098,-0.006 -5.766853,-2.66086 -12.72417,-5.8991 z m 15.660144,-5.97082 c 1.692339,-0.80307 2.837235,-2.71571 3.430412,-5.73077 0.419906,-2.13435 0.172298,-7.86298 -0.419147,-9.69736 -0.602974,-1.87014 -1.594883,-3.16418 -2.965505,-3.86878 -0.951031,-0.4889 -1.351777,-0.55695 -3.269673,-0.55529 -2.552411,0.002 -3.481646,0.3673 -4.771993,1.87477 -1.449555,1.69349 -2.242411,5.34319 -2.032511,9.35614 0.256076,4.8958 1.350998,7.40134 3.801198,8.69841 1.285404,0.68046 4.720396,0.63792 6.227219,-0.0772 z m -4.164911,-2.84323 c -0.511997,-0.22245 -0.856432,-0.6114 -1.199619,-1.35467 -0.445667,-0.96524 -0.481406,-1.3665 -0.481406,-5.40489 0,-3.70781 0.05999,-4.51775 0.399875,-5.39866 0.487549,-1.26364 1.051824,-1.69001 2.23659,-1.69001 1.88594,0 2.577675,1.32069 2.827534,5.39846 0.16484,2.69024 -0.134824,5.86212 -0.683342,7.233 -0.276001,0.6898 -0.570401,1.02287 -1.099525,1.24395 -0.886232,0.37028 -1.091659,0.36749 -2.000107,-0.0272 z M 0.496,245.08222 c 0,-0.14198 12.001197,-12.96605 12.134064,-12.96605 0.04965,0 -0.0725,0.24844 -0.271455,0.55208 -0.198959,0.30366 -0.32391,0.58678 -0.27767,0.62916 0.09114,0.0835 6.061898,0.78177 6.685023,0.78177 0.227966,0 0.706735,-0.52288 1.197188,-1.30748 0.449516,-0.71913 0.817302,-1.34443 0.817302,-1.38957 0,-0.0451 -0.61344,-0.14904 -1.363202,-0.2309 -2.305405,-0.25171 -2.995708,-0.3908 -2.878745,-0.58004 0.06181,-0.10003 1.43033,-0.97486 3.041169,-1.94412 3.447005,-2.07413 5.047623,-3.46395 6.437875,-5.59008 1.624763,-2.48477 1.935719,-4.50472 0.823456,-5.34911 -0.469649,-0.35654 -0.429205,-0.40802 4.198048,-5.34376 2.569746,-2.74107 6.186882,-6.60324 8.038084,-8.58262 1.851199,-1.97937 3.610924,-3.84424 3.910495,-4.14414 l 0.544677,-0.54529 -0.429197,0.7634 c -0.413777,0.73596 -22.804762,40.18457 -22.872661,40.29723 -0.04087,0.0678 -19.34129517,5.06639 -19.57086717,5.06863 C 0.56961639,245.20222 0.496,245.14866 0.496,245.08222 Z m 89.062942,-2.34599 -9.632918,-2.4293 -11.399913,-20.07215 C 62.256159,209.1951 56.980192,199.91726 56.801738,199.61736 c -0.219863,-0.3695 -0.04179,-0.26403 0.552375,0.32716 1.384644,1.37773 17.08199,18.18326 17.08199,18.28793 0,0.0518 -0.340708,0.15798 -0.757126,0.2361 -1.407496,0.26405 -1.803128,1.60296 -0.977571,3.30833 0.575228,1.18828 1.961805,2.75862 3.169407,3.58947 0.853655,0.58733 0.937774,0.72189 0.819869,1.31142 -0.222134,1.11067 1.159538,3.58162 2.944009,5.265 1.693335,1.59741 2.993648,2.31204 4.540171,2.49521 1.887299,0.22352 3.397091,-0.84019 3.054107,-2.15175 -0.05579,-0.2135 -0.03712,-0.38046 0.04164,-0.37104 0.07876,0.009 2.057101,2.07616 4.396354,4.59274 2.339255,2.51656 5.119998,5.50245 6.17941,6.6353 1.059423,1.13283 1.795557,2.05129 1.635849,2.041 -0.159708,-0.0103 -4.625192,-1.11189 -9.923298,-2.448 z m -7.052681,-10.99332 c -1.349178,-0.53955 -3.136023,-2.865 -3.014612,-3.9233 0.06426,-0.56018 0.143529,-0.60968 0.953231,-0.5954 1.064075,0.0188 1.964057,0.62967 2.949721,2.00218 0.45953,0.63988 0.710098,1.2518 0.724897,1.77026 0.02087,0.73119 -0.02789,0.79563 -0.631728,0.83473 -0.35989,0.0233 -0.80157,-0.0165 -0.981509,-0.0885 z M 15.88568,228.60088 c 0.352869,-0.43388 2.261066,-2.51865 4.240436,-4.63283 2.588381,-2.76466 3.736646,-3.84454 4.089607,-3.84602 1.152958,-0.005 0.254051,2.43367 -1.498432,4.06489 -0.405472,0.37742 -2.013177,1.49015 -3.572681,2.47275 -1.559503,0.9826 -3.075097,1.99884 -3.367987,2.25832 -0.428986,0.38005 -0.407783,0.31839 0.109057,-0.31711 z m 60.498264,-4.94397 c -1.200539,-1.20054 -1.562551,-2.14645 -0.983512,-2.56985 0.82022,-0.59976 2.870758,0.6999 3.530816,2.23788 0.417081,0.97182 0.202102,1.3754 -0.732675,1.3754 -0.629995,0 -0.962279,-0.19107 -1.814629,-1.04343 z"
       id="path924"
       inkscape:connector-curvature="0" />
  </g>
</svg>
