<?xml version="1.0" encoding="UTF-8" standalone="no"?>
<svg
   xmlns:dc="http://purl.org/dc/elements/1.1/"
   xmlns:cc="http://creativecommons.org/ns#"
   xmlns:rdf="http://www.w3.org/1999/02/22-rdf-syntax-ns#"
   xmlns:svg="http://www.w3.org/2000/svg"
   xmlns="http://www.w3.org/2000/svg"
   xmlns:sodipodi="http://sodipodi.sourceforge.net/DTD/sodipodi-0.dtd"
   xmlns:inkscape="http://www.inkscape.org/namespaces/inkscape"
   width="120mm"
   height="100mm"
   viewBox="0 0 120 100"
   version="1.1"
   id="svg8"
   inkscape:version="1.0.2-2 (e86c870879, 2021-01-15)"
   sodipodi:docname="d12.svg">
  <defs
     id="defs2" />
  <sodipodi:namedview
     id="base"
     pagecolor="#ffffff"
     bordercolor="#666666"
     borderopacity="1.0"
     inkscape:pageopacity="0.0"
     inkscape:pageshadow="2"
     inkscape:zoom="1.4"
     inkscape:cx="180.03323"
     inkscape:cy="195.8443"
     inkscape:document-units="mm"
     inkscape:current-layer="layer1"
     showgrid="false"
     inkscape:window-width="1920"
     inkscape:window-height="1001"
     inkscape:window-x="-9"
     inkscape:window-y="-9"
     inkscape:window-maximized="1"
     inkscape:document-rotation="0" />
  <metadata
     id="metadata5">
    <rdf:RDF>
      <cc:Work
         rdf:about="">
        <dc:format>image/svg+xml</dc:format>
        <dc:type
           rdf:resource="http://purl.org/dc/dcmitype/StillImage" />
        <dc:title></dc:title>
      </cc:Work>
    </rdf:RDF>
  </metadata>
  <g
     inkscape:label="Layer 1"
     inkscape:groupmode="layer"
     id="layer1"
     transform="translate(0,-197)">
    <path
       style="fill:#000000;stroke-width:0.185564"
       d="m 58.876206,296.92455 c -0.459269,-0.0786 -6.553966,-2.07049 -13.543771,-4.42653 -6.989802,-2.35605 -12.720551,-4.28372 -12.734996,-4.28372 -0.01444,0 -0.126887,-0.24294 -0.249875,-0.53985 -0.287452,-0.69397 -0.308662,-0.65609 2.552687,-4.55877 1.273837,-1.73742 2.826474,-3.86699 3.450305,-4.73238 0.62383,-0.86538 1.35745,-1.8048 1.630265,-2.08758 l 0.496025,-0.51417 h 19.304173 c 13.341767,0 19.435829,0.0614 19.730425,0.19888 0.557801,0.26025 8.185012,10.51499 8.270497,11.11964 0.03617,0.25562 -0.04469,0.6134 -0.179587,0.79508 -0.286265,0.38548 -25.73532,8.92094 -27.058146,9.07512 -0.458129,0.0534 -1.208732,0.0329 -1.668002,-0.0457 z m 6.295532,-5.39303 c 1.816867,-0.56083 2.797092,-1.43868 2.797092,-2.50495 0,-0.90488 -0.349014,-1.41973 -1.353891,-1.99721 -1.529793,-0.87912 -5.50891,-1.29482 -7.785123,-0.81331 -1.397086,0.29555 -1.648485,0.10986 -0.778148,-0.57475 0.99949,-0.78619 2.18743,-1.01207 4.706517,-0.8949 1.283926,0.0597 2.510038,0.16119 2.724696,0.22547 0.557196,0.16688 1.463305,-0.63288 1.299997,-1.14742 -0.163703,-0.51577 -0.730409,-0.74023 -2.535195,-1.00413 -1.883371,-0.27538 -5.523525,-0.13695 -7.319896,0.27836 -3.486889,0.80615 -5.469017,3.09957 -4.750771,5.49685 0.462096,1.54234 2.2335,2.81448 4.528913,3.25248 2.095288,0.39981 6.703356,0.22753 8.465809,-0.31649 z m -6.407505,-1.62041 c -0.698904,-0.32618 -0.990573,-0.74835 -0.998875,-1.44581 -0.0035,-0.29342 2.31005,-0.6716 3.194479,-0.52218 0.962181,0.16256 1.716795,0.81134 1.551059,1.33353 -0.253108,0.79747 -2.56026,1.18816 -3.746663,0.63446 z m 9.236377,-9.05533 c 0.385217,-0.34861 0.454681,-1.35897 0.116672,-1.69698 -0.166251,-0.16625 -2.233563,-0.22267 -8.158277,-0.22267 -7.655778,0 -7.942372,0.0126 -8.127693,0.35893 -0.291602,0.54486 -0.231974,1.01278 0.186266,1.46172 0.377375,0.40505 0.398112,0.40611 8.011019,0.40611 6.841869,0 7.667824,-0.0318 7.972013,-0.30711 z m -39.146249,4.43589 c -0.205019,-0.1786 -2.566314,-3.37261 -5.247322,-7.09779 -2.681008,-3.72518 -6.23673,-8.65189 -7.901605,-10.94823 -1.664873,-2.29635 -3.174166,-4.55095 -3.353984,-5.01021 -0.299621,-0.76526 -0.331688,-1.96697 -0.383752,-14.38117 -0.03124,-7.45036 -0.0072,-13.81814 0.05349,-14.15061 0.06336,-0.3472 0.299273,-0.7283 0.554312,-0.89541 0.422294,-0.27669 0.755432,-0.18617 6.810797,1.85067 5.403829,1.81768 6.441794,2.22477 6.86273,2.69152 0.356612,0.39542 0.842747,1.63538 1.730349,4.4135 0.678921,2.12496 1.888688,5.90941 2.688371,8.40988 0.799684,2.50046 2.094336,6.55039 2.877006,8.99982 0.782671,2.44943 1.950619,6.08183 2.59544,8.07201 0.644823,1.99016 1.401637,4.38742 1.68181,5.32723 0.49778,1.66975 0.501787,1.72059 0.175518,2.22676 -1.134717,1.76042 -7.602869,10.48092 -7.886451,10.63269 -0.496542,0.26574 -0.833507,0.22802 -1.256706,-0.14066 z M 24.94982,271.02093 c 0.532661,-0.48205 0.419339,-1.42754 -0.342837,-2.86038 -0.3752,-0.70536 -0.646588,-1.31148 -0.603082,-1.34693 0.04351,-0.0355 1.248153,-0.46438 2.676995,-0.95316 3.510889,-1.20098 3.505602,-1.19721 3.380069,-2.4135 -0.09053,-0.87718 -0.910061,-3.31297 -1.236221,-3.67428 -0.200755,-0.2224 -7.845686,2.45501 -8.221061,2.87917 -0.729873,0.82475 -0.274539,2.72253 1.35477,5.64657 1.595722,2.86376 2.213748,3.42624 2.991367,2.72251 z m -3.661305,-11.99724 c 0.155559,-0.62982 0.09886,-0.85957 -0.521569,-2.11344 -0.382856,-0.77373 -0.628403,-1.46825 -0.54566,-1.54336 0.08274,-0.0752 1.330811,-0.52649 2.773484,-1.00306 2.709091,-0.89492 3.22295,-1.21043 3.221181,-1.97787 -0.0024,-1.06372 -1.165416,-4.06777 -1.574767,-4.06777 -0.549272,0 -7.818701,2.64335 -8.027122,2.91887 -0.324014,0.42833 -0.289112,1.85747 0.07118,2.91489 0.367593,1.07882 2.349855,4.67046 2.904359,5.26238 0.280891,0.29984 0.566135,0.40989 0.961842,0.37112 0.48114,-0.0472 0.587785,-0.15737 0.737065,-0.76176 z m 68.430257,26.26798 c -0.329312,-0.28649 -1.973928,-2.45292 -6.683827,-8.80453 -0.733918,-0.98974 -1.334396,-1.97517 -1.334396,-2.18982 0,-0.21467 0.537322,-2.03525 1.194048,-4.04573 0.65673,-2.01049 3.335307,-10.2522 5.952406,-18.31492 2.617089,-8.06273 4.856257,-14.7536 4.975941,-14.8686 0.287738,-0.2765 12.735946,-4.41525 13.181436,-4.38252 0.19002,0.0139 0.50316,0.16806 0.69586,0.34245 0.33767,0.30558 0.35021,0.82889 0.34628,14.43752 -0.004,13.28705 -0.0242,14.16425 -0.34384,14.8627 -0.29545,0.64544 -2.89896,4.39411 -5.02619,7.23696 -0.38185,0.5103 -2.764794,3.80869 -5.295447,7.32975 -5.704137,7.93655 -6.052276,8.41086 -6.297116,8.57946 -0.345515,0.23794 -0.979118,0.15314 -1.365155,-0.18272 z m 9.780152,-18.74189 c 0.474848,-0.44313 0.768466,-1.25517 2.231036,-6.16999 0.92632,-3.11282 1.68361,-5.88931 1.68288,-6.16997 -0.002,-0.73218 -0.6169,-1.28939 -1.25671,-1.13864 -0.27911,0.0657 -0.55984,0.17141 -0.62383,0.23478 -0.064,0.0633 -0.59713,1.74353 -1.18477,3.7337 -0.587643,1.99016 -1.087784,3.64212 -1.111422,3.67101 -0.0508,0.0621 -1.025242,-1.5936 -2.798039,-4.75451 -0.70628,-1.25931 -1.438053,-2.37283 -1.626166,-2.47449 -0.682383,-0.36877 -1.189217,-0.0255 -1.761684,1.19337 -0.299261,0.63715 -0.648013,1.57718 -0.774992,2.08897 l -0.230871,0.93051 0.868542,1.38903 c 4.797076,7.67185 5.001985,7.95751 5.717414,7.97063 0.177001,0.003 0.567869,-0.22374 0.868612,-0.5044 z m -58.014567,6.75894 c -0.32908,-0.11981 -0.758456,-0.38484 -0.954167,-0.58896 -0.216985,-0.22631 -1.636808,-4.38986 -3.63856,-10.66989 -1.805498,-5.66432 -3.979281,-12.46985 -4.830631,-15.12341 -2.691858,-8.39021 -3.060557,-9.5811 -3.060557,-9.88568 0,-0.61049 0.886081,-1.57174 2.565622,-2.78325 0.951823,-0.68658 2.136367,-1.54059 2.632326,-1.89779 1.304132,-0.9393 5.577948,-4.04264 15.637494,-11.35485 4.942593,-3.59274 9.151394,-6.5237 9.510142,-6.62275 0.421836,-0.11648 0.882675,-0.11168 1.337589,0.0139 0.417036,0.11514 3.286824,2.08543 7.190595,4.93678 3.573113,2.60983 7.999636,5.84373 9.836717,7.18643 6.537103,4.77792 9.29981,6.78683 10.904984,7.92962 1.648564,1.17367 2.362821,2.10365 2.362821,3.07641 0,0.22513 -0.632421,2.34898 -1.405387,4.71967 -1.853913,5.68592 -3.251664,9.98409 -6.199121,19.06263 -1.341966,4.13342 -2.687517,8.27446 -2.990113,9.20231 -0.574929,1.7629 -1.095393,2.47466 -2.082182,2.84749 -0.774986,0.29282 -36.007557,0.24621 -36.817572,-0.0487 z m 13.033371,-14.3472 c 0.252686,-0.097 0.279455,-1.25877 0.234287,-10.16842 l -0.05099,-10.05894 -0.455427,-0.6645 c -0.585904,-0.85485 -1.263636,-1.24673 -2.386068,-1.37966 -0.801936,-0.095 -1.142471,-1.9e-4 -3.111896,0.86558 -1.216279,0.53473 -2.471052,1.16627 -2.788386,1.40342 -1.400856,1.04691 -1.561623,3.11486 -0.359066,4.61864 0.286113,0.35777 0.309689,0.35599 1.830154,-0.13917 0.847169,-0.27589 1.639716,-0.50162 1.761214,-0.50162 0.167059,0 0.220904,1.76625 0.220904,7.24618 0,5.93004 0.04834,7.33965 0.266109,7.76078 0.363749,0.70341 0.745188,0.98758 1.552862,1.1569 0.699505,0.14664 2.769973,0.0589 3.286303,-0.13919 z m 18.258839,-0.33582 c 0.286735,-0.14828 0.626655,-0.52385 0.755372,-0.83461 0.26227,-0.63317 0.178383,-2.39924 -0.152707,-3.21494 l -0.209075,-0.51509 -3.918028,0.0173 c -2.154916,0.01 -3.944436,-0.009 -3.976712,-0.0416 -0.03228,-0.0324 1.070803,-1.0192 2.451287,-2.19288 3.022026,-2.56934 4.053156,-3.66504 4.815812,-5.1174 1.196905,-2.27931 1.282067,-4.41399 0.258998,-6.49214 -1.236525,-2.51172 -3.802741,-3.79222 -7.599946,-3.79222 -3.853338,0 -6.051397,1.06117 -6.438255,3.1082 -0.174601,0.92389 0.07402,1.84483 0.686295,2.54217 l 0.555097,0.63222 1.159078,-0.5424 c 0.637493,-0.29832 1.657012,-0.6347 2.265598,-0.74752 2.19225,-0.40641 4.168322,0.51118 4.168322,1.93555 0,1.48235 -0.642664,2.30391 -4.608672,5.89154 -3.359844,3.0393 -3.848834,3.55165 -4.235344,4.43764 -0.613361,1.40599 -0.262937,3.72899 0.720414,4.77572 l 0.394618,0.42005 h 6.193253 c 5.052833,0 6.289255,-0.0496 6.714595,-0.26959 z m -52.75811,-26.15453 c -6.071838,-2.08534 -6.605369,-2.33776 -6.605369,-3.12517 0,-0.18969 1.02292,-1.77427 2.273155,-3.52128 1.250236,-1.747 2.607171,-3.65308 3.015412,-4.23572 3.577172,-5.10534 10.513239,-14.65765 10.99958,-15.14857 0.784053,-0.79144 1.713337,-1.25729 3.815209,-1.91257 2.054172,-0.64041 6.253498,-1.96759 16.41384,-5.18752 6.536558,-2.07152 7.722257,-2.3965 8.072023,-2.21236 0.225495,0.11872 0.471339,0.30773 0.546323,0.42002 0.07498,0.11229 0.137609,3.34063 0.139173,7.17409 l 0.0028,6.96992 -15.68035,11.40085 c -12.357383,8.98479 -15.80811,11.40874 -16.283219,11.43808 -0.365376,0.0226 -3.008168,-0.78887 -6.708617,-2.05977 z m 16.12619,-10.67653 c 2.974696,-1.41094 6.843623,-4.66997 7.783898,-6.55685 0.666856,-1.3382 0.64331,-2.4067 -0.06873,-3.11873 -0.468299,-0.46831 -0.682173,-0.54242 -1.565212,-0.54242 -0.562536,0 -1.24857,0.0859 -1.524518,0.19076 -0.27595,0.10492 -0.533851,0.15863 -0.573114,0.11937 -0.03926,-0.0393 0.138319,-0.43825 0.394629,-0.88662 1.239231,-2.16786 -0.167325,-3.73498 -2.819571,-3.14144 -1.931729,0.4323 -5.101892,2.3687 -7.416107,4.52993 -1.928589,1.80108 -2.363329,2.78066 -1.488463,3.3539 0.682439,0.44715 1.316758,0.18272 2.575148,-1.0735 1.59753,-1.59476 3.084825,-2.55588 4.139039,-2.67471 0.858275,-0.0967 0.945082,-0.0255 0.847755,0.69569 -0.0593,0.43946 -0.908032,1.24821 -2.465129,2.34901 -1.200146,0.84846 -1.438119,1.10134 -1.438119,1.52825 0,0.46844 0.436082,1.03695 1.072301,1.39792 0.144611,0.0821 0.850027,-0.30368 1.806407,-0.98777 2.032194,-1.45361 2.982729,-1.93454 3.544717,-1.7935 0.528249,0.13258 0.606804,0.90011 0.157741,1.54123 -0.685271,0.97837 -3.398481,2.73057 -5.106727,3.29796 -0.784258,0.26049 -1.001992,0.4313 -1.222505,0.95906 -0.318188,0.76153 -0.185562,1.31916 0.367466,1.54503 0.587402,0.23991 1.332533,0.0579 2.999094,-0.73257 z m 50.9151,8.67367 c -3.10065,-2.26499 -6.735767,-4.91623 -8.078036,-5.89164 -1.342272,-0.97539 -5.914098,-4.30597 -10.159616,-7.40128 l -7.719124,-5.62783 v -6.93062 -6.93061 l 0.493068,-0.38784 c 0.31429,-0.24723 0.633878,-0.34731 0.881428,-0.27604 0.213598,0.0615 3.812011,1.19663 7.996474,2.52252 4.184463,1.32589 9.862714,3.12085 12.618336,3.98881 2.755618,0.86797 5.344239,1.77328 5.752472,2.0118 1.114283,0.65106 1.806745,1.4681 5.111388,6.03106 1.663092,2.29635 3.703725,5.09371 4.534761,6.21637 0.831025,1.12266 2.111222,2.87623 2.844862,3.89683 0.73366,1.0206 2.21061,3.05731 3.28213,4.52603 2.02437,2.77479 2.27608,3.3883 1.62347,3.957 -0.39427,0.34358 -12.475071,4.41362 -13.100597,4.41362 -0.284922,0 -2.459057,-1.47236 -6.081016,-4.11818 z m 0.919075,-8.25404 c 0.586767,-0.37257 1.016784,-1.45563 0.875977,-2.20623 -0.06203,-0.33066 -0.312227,-0.97629 -0.555984,-1.43474 l -0.443204,-0.83354 0.704887,0.0946 c 0.919486,0.12332 1.946732,-0.22628 2.415338,-0.82202 0.919897,-1.16945 0.139424,-3.07267 -2.140617,-5.22006 -4.061931,-3.82559 -9.187212,-5.30958 -10.378895,-3.00512 -0.377279,0.72958 -0.3546,1.45426 0.07168,2.29039 l 0.353168,0.69272 -0.889294,-0.11797 c -1.077127,-0.14289 -2.015122,0.13632 -2.619602,0.77976 -1.386658,1.47602 0.51403,4.71512 4.280614,7.2949 3.791318,2.59672 6.757897,3.48298 8.325936,2.48735 z m -5.883529,-3.78599 c -1.384507,-0.55421 -2.475404,-2.00206 -2.07383,-2.7524 0.287921,-0.53799 1.043297,-0.57151 2.333068,-0.10353 1.201028,0.43578 2.161333,2.20736 1.53567,2.83302 -0.261612,0.26161 -1.169632,0.27321 -1.794908,0.023 z m 2.29593,-4.41806 c -1.456318,-0.67046 -1.906423,-2.61914 -0.604968,-2.61914 0.875428,0 2.738952,1.45259 2.738952,2.13496 0,0.38404 -0.535974,0.83453 -0.987465,0.82998 -0.222345,-0.002 -0.738279,-0.15785 -1.146519,-0.3458 z"
       id="path837"
       inkscape:connector-curvature="0" />
  </g>
</svg>
