<svg width="100" height="100" version="1.1" viewBox="0 0 100 100" xmlns="http://www.w3.org/2000/svg">
 <path d="m49.355 99.528c-0.24708-0.25657-1.6214-1.7492-3.0541-3.317-2.3047-2.5219-3.516-3.8292-5.2938-5.7131-0.2773-0.29384-1.5251-1.6542-2.773-3.0229-2.3561-2.5844-5.1488-5.6429-7.9097-8.6624-0.88412-0.96693-2.926-3.1848-4.5376-4.9285-1.6116-1.7438-2.9553-3.2374-2.9861-3.3192-0.03234-0.0858 11.461-0.14867 27.183-0.14867 14.982 0 27.24 0.0489 27.24 0.10862 0 0.0597-0.35576 0.49459-0.79058 0.96634-0.43482 0.47174-1.5941 1.7274-2.5761 2.7904-2.0061 2.1714-6.6115 7.1835-16.129 17.553-7.9441 8.6552-7.4759 8.1604-7.7209 8.1604-0.11174 0-0.40531-0.20993-0.65239-0.46651zm-3.7748-13.817c0.39727-2e-3 0.81169-0.3825 3.5099-3.2228 2.3664-2.491 2.4207-2.5693 2.4207-3.4926 0-0.64199-0.08645-0.869-0.47136-1.2378-0.47061-0.45088-0.47552-0.4516-3.1091-0.4516h-2.6377v-0.58029c0-0.77677-0.29798-1.3867-0.73474-1.5039-0.66048-0.17724-2.2232-0.10269-2.5286 0.12063-0.23999 0.1755-0.29005 0.40128-0.24219 1.0925l0.06032 0.87127-0.72189-1e-4c-0.54246-8e-5 -0.82442 0.10243-1.1344 0.4124-0.46236 0.46236-0.49288 0.65126-0.22801 1.4111 0.17624 0.50555 0.22516 0.52926 1.0924 0.52926h0.90788l0.0018 2.0587c0.0024 2.6671 0.10714 3.2727 0.62472 3.6118 0.53088 0.34786 1.4868 0.54218 2.2304 0.45344 0.32351-0.0386 0.75546-0.071 0.95989-0.072zm-0.45571-4.4549v-1.597h2.7298l-0.8107 0.96633c-0.44588 0.53148-1.0601 1.2502-1.3649 1.597l-0.55419 0.6307zm12.321 4.2144c0.8131-0.22371 1.6667-0.53017 1.897-0.68103 0.80329-0.52633 0.85761-1.4792 0.12208-2.1415-0.29264-0.26347-0.39883-0.26725-1.2377-0.044-0.50468 0.1343-0.97433 0.24508-1.0437 0.24618-0.06933 1e-3 -0.12605-1.54-0.12605-3.4246 0-4.0332-0.0313-4.1238-1.4718-4.2622-0.4742-0.0456-1.1311-0.0324-1.4598 0.0293l-0.59765 0.11213v4.625c0 4.7022 0.05332 5.1523 0.65475 5.5273 0.78945 0.49217 1.5119 0.49514 3.2628 0.0134zm-15.934 10.222c-1.4789-0.86882-3.3696-1.9615-4.2015-2.4283-0.83189-0.46671-2.231-1.269-3.1091-1.783-0.87811-0.5139-2.1638-1.2552-2.857-1.6474-1.1159-0.63127-6.3995-3.7016-7.0585-4.1017-0.16478-0.10005 0.01413-0.12419 0.51658-0.0697 1.0579 0.11473 2.0979-0.40834 2.2576-1.1355 0.18747-0.85356-0.60997-2.1791-2.2134-3.6793-1.6671-1.5597-2.903-2.2412-3.9281-2.1659-0.87311 0.0642-1.0924 0.35849-0.9267 1.2436 0.09952 0.53145 0.40876 0.93983 1.6115 2.1282 0.85734 0.84704 1.3737 1.4705 1.2179 1.4705-0.53059 0-1.7144-0.8545-2.7635-1.9948-1.1112-1.2078-1.7484-1.5858-1.9198-1.139-0.14181 0.36954 0.20176 0.9087 1.326 2.0809l1.0049 1.0478-3.1753-1.8243c-7.5298-4.3261-9.5448-5.5157-9.5908-5.6619-0.0413-0.13126 11.913-5.2904 12.243-5.2835 0.06231 1e-3 2.5958 2.7035 5.63 6.0049 3.0342 3.3014 7.3653 8.0091 9.6247 10.462 2.2594 2.4525 4.8266 5.2532 5.7049 6.2237 0.87829 0.97054 2.0525 2.2373 2.6094 2.815 0.55691 0.57771 0.93912 1.043 0.84935 1.034-0.08977-9e-3 -1.3732-0.72718-2.8521-1.596zm-11.008-11.851c0-0.16876-3.1603-3.806-4.474-5.1492-0.56794-0.58069-1.1402-0.69509-1.6419-0.32824-0.27162 0.19861-0.11049 0.43344 1.8161 2.6469 1.1628 1.3359 2.3223 2.5609 2.5767 2.7222 0.51342 0.32542 1.7231 0.40145 1.7231 0.10829zm27.785 10.48c2.7071-2.9298 5.6036-6.0821 16.292-17.73 2.9473-3.212 5.4213-5.84 5.4977-5.84 0.1134 0 3.2765 1.3251 11.923 4.9947l0.57582 0.24439-0.49178 0.29554c-0.50069 0.30087-2.6666 1.5541-7.6343 4.4173-1.5251 0.87902-4.7393 2.7344-7.1425 4.123-2.4032 1.3886-6.5627 3.789-9.2432 5.3342-6.2842 3.6225-7.7929 4.4953-10.283 5.9487-1.1263 0.6575-2.0933 1.1954-2.1488 1.1954s1.1393-1.3424 2.6553-2.983zm15.411-11.055 0.6075-0.5932 1.5614 0.603c1.3194 0.50957 1.6385 0.57613 2.0591 0.42951 0.62617-0.21829 1.4067-0.85993 2.1111-1.7354l0.54619-0.67886v-2.4934c0-2.486-1e-3 -2.4942-0.42777-2.7736-0.78128-0.51191-1.4935-0.12225-3.4114 1.8664l-1.6992 1.7619-0.76243-0.1045c-0.74918-0.10269-0.77844-0.0885-1.6843 0.81741-0.50705 0.50706-0.92192 1.0017-0.92192 1.0991 0 0.0975 0.22688 0.25627 0.50418 0.35295 0.61346 0.21385 0.62719 0.3552 0.084 0.86547-0.40713 0.38248-0.53797 0.8345-0.3081 1.0644 0.31743 0.31743 1.1631 0.0838 1.7417-0.48117zm3.5547-2.4184c-0.3991-0.15832-0.70984-0.35845-0.69053-0.44474 0.0193-0.0863 0.3602-0.52851 0.75753-0.98272 0.69095-0.78986 0.72626-0.80816 0.81051-0.42015 0.17368 0.79996 0.18398 2.1705 0.0162 2.153-0.09239-0.01-0.4946-0.14706-0.8937-0.30538zm-53.622 1.7656c-0.59744-0.44078-1.1959-1.1577-1.1959-1.4326 0-0.30204 0.44464-0.38937 0.86918-0.17069 0.67218 0.34622 1.3156 1.0477 1.3156 1.4344 0 0.53897-0.39574 0.60657-0.98891 0.16895zm-17.324-9.1625c-0.11287-0.2109-0.17397-3.1085-0.17397-8.2498v-7.9247l0.50912 0.4284c1.0142 0.85342 2.3042 0.68805 3.5028-0.44905 1.2455-1.1815 1.6707-3.079 1.1375-5.0753-0.51715-1.936-1.3598-2.941-2.4657-2.941-0.51111 0-0.73028 0.11175-1.1446 0.5836-0.49742 0.56653-0.86402 1.4963-0.86593 2.1961-0.0018 0.67533 0.5256 2.3576 0.93316 2.9763 0.38976 0.59168 0.39529 0.63021 0.09039 0.63021-0.58952 0-0.86637-0.20134-1.2417-0.90303l-0.37097-0.69352-0.04109-11.764-0.04109-11.764 6.3853 19.067c3.5119 10.487 6.3853 19.115 6.3853 19.175 0 0.1797-11.598 5.0334-12.027 5.0334-0.22101 0-0.47476-0.14434-0.57149-0.32507zm4.0067-8.3049c0.32316-0.38938 0.2724-1.0265-0.13421-1.6844-0.3788-0.61291-0.38116-0.63946-0.07596-0.85607 0.17323-0.12294 0.9956-0.74527 1.8275-1.3829 1.2903-0.98907 1.5203-1.2395 1.5657-1.7046 0.07311-0.74938-0.44134-2.26-0.7317-2.1485-0.57858 0.22203-4.7593 3.5317-4.9276 3.9008-0.27481 0.60315 0.01779 1.7125 0.75989 2.881 0.33868 0.53331 0.69792 1.0252 0.79831 1.0931 0.28795 0.19479 0.71242 0.14927 0.91801-0.0985zm79.765 7.5155c-1.2016-0.5139-3.6973-1.5786-5.5459-2.366-1.8486-0.78738-3.3839-1.452-3.4117-1.477-0.0278-0.025 2.8281-8.6566 6.3464-19.182l6.397-19.136-0.06 10.84c-0.033 5.9619-0.12851 11.178-0.21227 11.592l-0.15227 0.75199-1.7414-1.6763c-0.95776-0.92197-1.8841-1.7306-2.0584-1.7968-0.38352-0.1458-0.70716 0.29355-0.98047 1.331l-0.18608 0.7063 1.3908 1.3237c0.76496 0.72806 1.9721 1.8471 2.6826 2.4868l1.2917 1.1631 0.0107 7.9147c0.0101 7.4619-7e-3 7.9306-0.29662 8.1928-0.49632 0.44916-1.1594 0.3216-3.474-0.66831zm1.6041-8.3049c1.0338-1.1067 1.5617-3.5073 1.1101-5.0482-0.34817-1.1879-0.9474-1.8341-1.7007-1.8341-0.54457 0-0.58106-0.0398-0.83396-0.90978-0.33762-1.1613-1.0873-1.8581-1.8377-1.708-0.70051 0.1401-1.0076 0.46438-1.5191 1.6042-1.0771 2.4001-0.96085 4.6927 0.2976 5.8683 0.3466 0.32377 0.55376 0.38448 1.0739 0.31473 0.63184-0.0848 0.64862-0.0729 0.85904 0.60719 0.48345 1.5625 1.6513 2.0687 2.5508 1.1057zm-1.2637-2.6725c-0.3569-0.69018-0.32033-1.1206 0.12173-1.4325 0.35419-0.2499 0.39775-0.24277 0.68804 0.11264 0.47659 0.58351 0.18698 1.8-0.43163 1.8131-0.067 1e-3 -0.23712-0.22055-0.37814-0.49325zm-2.3094-1.813c-0.42602-0.48504-0.49804-0.99099-0.23178-1.6282 0.29224-0.69943 0.65516-0.76742 1.0314-0.19324 0.6004 0.91632-0.13107 2.5826-0.79959 1.8215zm-65.842 8.4009c9.25e-4 -0.16654 1.2582-2.3568 13.868-24.158 1.9246-3.3276 4.2341-7.3358 5.1322-8.9071s1.7738-3.0986 1.946-3.3939c0.17212-0.2953 1.7499-3.0342 3.5061-6.0865 1.7562-3.0523 3.2309-5.5499 3.2771-5.5504 0.04622-5e-4 0.72189 1.1125 1.5015 2.4732 0.77961 1.3607 2.072 3.6084 2.872 4.9949 0.8 1.3865 2.3457 4.0712 3.435 5.9661 1.0892 1.8948 2.2297 3.8611 2.5343 4.3695 0.30461 0.50839 2.9918 5.1594 5.9715 10.336 2.9797 5.1762 6.7672 11.743 8.4165 14.593 1.6494 2.8498 2.9989 5.251 2.9989 5.3359 0 0.0931-10.996 0.15436-27.73 0.15436-15.251 0-27.729-0.0567-27.729-0.12605zm37.606-8.4356c2.4648-1.3188 3.6068-3.7111 3.6144-7.572 0.0045-2.2651-0.29676-3.6156-1.1483-5.1478-0.6781-1.2201-1.4817-1.9684-2.7557-2.5659-0.80918-0.37954-1.1534-0.43714-2.6126-0.43714-1.495 0-1.785 0.0513-2.6258 0.46421-1.0411 0.51129-2.2839 1.7306-2.805 2.7521-0.73197 1.4348-0.94808 2.5596-0.94808 4.9345 0 3.1865 0.50517 4.7607 2.0617 6.4248 1.3064 1.3966 2.4489 1.8284 4.6533 1.7587 1.3454-0.0426 1.6289-0.11012 2.566-0.61148zm-3.9838-3.2286c-0.72061-0.67135-1.0689-1.7672-1.1531-3.6285-0.12287-2.7142 0.44092-4.7874 1.4237-5.2352 1.1673-0.53187 2.1977 0.0116 2.7626 1.4571 0.31808 0.81391 0.37614 1.2867 0.37614 3.0632 0 1.7765-0.05805 2.2493-0.37616 3.0632-0.20689 0.52938-0.57063 1.1155-0.80832 1.3024-0.5968 0.46945-1.7089 0.4583-2.2248-0.0223zm-7.8519 3.3688c0.76638-0.3492 1.0157-1.6194 0.54091-2.7557l-0.2418-0.57869-5.587-0.0922 1.9373-1.6493c2.1184-1.8035 2.7247-2.4823 3.3773-3.7816 1.2918-2.572 0.24707-5.451-2.4002-6.6139-1.7596-0.77292-5.36-0.53586-6.3971 0.4212-1.0543 0.97293-1.1503 2.2908-0.24282 3.3331 0.22626 0.25984 0.32044 0.24441 1.2809-0.20995 2.2631-1.0706 4.5125-0.29409 4.0847 1.4102-0.18523 0.73803-1.1046 1.7742-3.528 3.9764-1.4466 1.3146-2.5495 2.4567-2.7208 2.8177-0.33213 0.69991-0.36926 2.1791-0.06928 2.7601 0.11165 0.2162 0.35798 0.56327 0.5474 0.77125 0.34015 0.37345 0.39804 0.37813 4.6767 0.37813 2.8171 0 4.4756-0.0653 4.7418-0.18659zm-27.525 6.5688c-0.13758-0.37024-8.3083-24.636-11.307-33.58-2.1982-6.5563-2.5743-7.8215-2.3794-8.0036 0.13592-0.12697 1.9313-0.43792 4.3489-0.75321 2.2646-0.29532 4.9115-0.64726 5.8821-0.78208 5.8415-0.81144 30.822-4.0903 30.861-4.0508 0.02619 0.0262-0.27791 0.61163-0.67577 1.301-0.39786 0.68936-1.6153 2.8037-2.7055 4.6986-1.0901 1.8949-2.7 4.693-3.5774 6.2182-0.87745 1.5251-1.7177 2.9778-1.8672 3.2281-0.37435 0.62667-6.1822 10.663-7.6631 13.242-0.66341 1.1554-1.775 3.0839-2.4701 4.2855-0.69517 1.2016-2.7223 4.7182-4.5047 7.8147-4.0974 7.1182-3.8295 6.6845-3.9418 6.3822zm6.3119-25.215c1.5533-0.79245 3.4705-3.2576 4.1865-5.3831 0.45858-1.3613 0.43758-2.8954-0.05144-3.7588-0.81309-1.4355-2.4884-2.0759-3.9872-1.5241-1.1979 0.44108-1.2065 0.43729-1.4233-0.62702-0.31339-1.5388-1.4533-2.5163-2.9344-2.5163-1.0921 0-1.8935 0.39035-3.0329 1.4772-1.7199 1.6405-2.7727 3.7723-2.7754 5.6201-0.0019 1.323 0.38702 2.189 1.3162 2.9302 0.56334 0.4494 0.77734 0.51484 1.6806 0.51389 0.56928-6.7e-4 1.2325-0.0629 1.4739-0.13841 0.42633-0.13342 0.44219-0.11228 0.55521 0.73971 0.06399 0.48237 0.2578 1.1543 0.43068 1.4932 0.28181 0.55239 1.1741 1.3144 1.8524 1.5819 0.48186 0.19003 1.9782-0.0356 2.7091-0.40844zm-1.2994-3.3412c-0.54897-0.23164-1.0737-1.0079-1.0726-1.5869 2e-3 -1.1103 0.31406-1.7664 1.0088-2.1208 1.1097-0.56611 2.2445-0.31639 2.6548 0.58422 0.28411 0.62356 0.25096 1.0554-0.14359 1.8704-0.5158 1.0655-1.5893 1.6152-2.4474 1.2531zm-4.8971-3.4612c-0.62581-0.26313-0.88216-0.69558-0.88216-1.4881 0-0.45709 0.14742-0.74715 0.64621-1.2715 0.66086-0.69471 1.0266-0.80174 1.7716-0.51848 0.98922 0.37611 1.2372 2.3857 0.36495 2.9572-0.6811 0.44628-1.3384 0.55724-1.9007 0.32085zm55.728 27.013c-4.2797-7.4421-9.6077-16.68-10.633-18.435-0.48578-0.83188-2.0813-3.5922-3.5456-6.1341-1.4643-2.5419-4.17-7.2307-6.0128-10.42-4.3995-7.6135-4.1825-7.2265-4.052-7.2265 0.06271 0 3.7527 0.48721 8.1999 1.0827 4.4473 0.59547 13.569 1.8106 20.27 2.7004 9.8763 1.3113 12.241 1.6732 12.484 1.9107 0.28709 0.28062 0.17877 0.65513-2.5609 8.8536-1.5734 4.7083-3.2113 9.5816-3.6398 10.829-0.42849 1.2478-2.2501 6.6551-4.0481 12.016-1.7979 5.3611-3.32 9.8-3.3824 9.8643-0.0624 0.0643-1.4483-2.2045-3.08-5.0418zm-0.6831-18.782c0.20596-0.14426 0.48383-0.47375 0.61748-0.73222 0.23687-0.45804 0.21139-0.51585-1.0084-2.2875-0.68827-0.99968-1.2226-1.8464-1.1875-1.8815 0.0352-0.0352 0.77211 0.2368 1.6376 0.60438 2.3724 1.0075 3.8182 1.1734 4.9388 0.56652 0.60712-0.32878 1.2251-1.1247 1.4069-1.812 0.68407-2.586-2.5419-7.8037-4.827-7.8072-0.77149-1e-3 -1.5433 0.77246-1.5371 1.5408 4e-3 0.47233 0.1116 0.62433 0.69441 0.97926 0.7699 0.46887 1.8899 1.8608 2.0524 2.5507 0.0986 0.41846-0.21118 0.98219-0.53653 0.9765-0.38385-7e-3 -2.112-0.5896-4.1721-1.4072-1.3076-0.51898-2.5946-0.94359-2.86-0.94359-0.76381 0-1.6638 0.71293-1.856 1.4703-0.0906 0.35691-0.10447 0.81181-0.03083 1.0109 0.1587 0.429 4.4627 6.7054 4.8939 7.1365 0.36801 0.36802 1.2732 0.38611 1.7738 0.0355zm-66.841 11.332c-0.18989-0.31146-0.34554-0.75745-0.34588-0.99108-7.48e-4 -0.50612 0.4285-1.1718 0.75564-1.1718 0.36936 0 0.75626 0.69198 0.75626 1.3526 0 0.42478-0.12251 0.72064-0.41038 0.99108l-0.41038 0.38553zm6.1237-34.604c6.481-3.7574 12.198-7.0611 21.932-12.674 5.6139-3.2373 7.522-4.3435 10.197-5.9112 0.84788-0.49697 1.6231-0.90359 1.7226-0.90359 0.12692 0 0.181 2.5498 0.181 8.5332v8.5332l-18.781 2.4947c-10.329 1.3721-19.045 2.531-19.369 2.5754-0.42039 0.0577 0.75433-0.69769 4.1174-2.6474zm17.554-2.361c0.46671-0.1001 0.84856-0.25079 0.84856-0.33488 0-0.0841 0.75626-1.7156 1.6806-3.6255 0.92432-1.9099 1.6806-3.6418 1.6806-3.8486 0-0.71758-0.8024-0.65481-2.6991 0.21112-1.1814 0.53938-1.8385 1.1957-1.8385 1.8364 0 0.46471 0.22903 0.4953 1.0719 0.14314 0.3348-0.13989 0.60873-0.22338 0.60873-0.18554 0 0.0378-0.52777 1.1347-1.1728 2.4375-1.2266 2.4773-1.4521 3.0759-1.2699 3.3707 0.13362 0.21621 0.06014 0.2165 1.09-4e-3zm7.1297-1.2433c2.0115-1.0177 4.2078-4.0854 4.4197-6.1731 0.07545-0.74333 0.03038-0.96402-0.27579-1.3507-0.32344-0.40845-0.47861-0.46216-1.3353-0.46216-0.74049 0-1.2072 0.11886-1.977 0.50353-2.2007 1.0997-4.3741 4.1083-4.5499 6.2983-0.07471 0.93071-0.04058 1.0984 0.29119 1.4301 0.53978 0.53978 2.0946 0.42818 3.4271-0.246zm-1.4509-1.4737c-0.21502-0.63193 1.1111-3.3774 2.0145-4.1706 0.76453-0.67127 1.4482-0.63661 1.5297 0.0776 0.07592 0.66519-1.01 2.8208-1.8383 3.649-0.66814 0.66814-1.5514 0.89804-1.7059 0.44401zm31.975 5.2273c-10.306-1.3797-18.833-2.5412-18.949-2.5812-0.16433-0.0568-0.21007-1.9218-0.21007-8.5648 0-5.1598 0.0617-8.4922 0.15724-8.4922 0.08648 0 2.3364 1.2583 4.9997 2.7962 2.6634 1.5379 5.8635 3.3807 7.1113 4.0951 3.0313 1.7356 13.647 7.8684 15.545 8.9805 0.83189 0.48743 3.5922 2.0802 6.1341 3.5396 2.5419 1.4594 4.6531 2.6802 4.6916 2.7129 0.15612 0.13263-1.4784-0.076-19.481-2.486zm0.12998-2.6748c0.02739-0.14224-0.12571-0.51951-0.34023-0.83836-0.37147-0.55214-0.47575-0.59568-2.1906-0.91456-0.99032-0.18414-1.8005-0.37321-1.8003-0.42014 1.65e-4 -0.0469 0.34043-0.30021 0.75615-0.56285 1.456-0.91986 1.7099-1.6077 1.0764-2.9163-0.82295-1.7-3.8199-3.2142-6.0343-3.0488-0.67445 0.0504-0.76181 0.1043-0.8075 0.49854-0.03275 0.28256 0.09793 0.61548 0.36216 0.92267 0.38128 0.44326 0.49163 0.47673 1.4203 0.4307 1.1795-0.0585 2.0663 0.25334 2.4691 0.8682 0.37256 0.56859 0.1918 0.87015-1.1721 1.9554-1.3514 1.0753-1.431 1.5086-0.46535 2.5323 0.62072 0.65803 0.67202 0.67671 3.4032 1.239 3.0193 0.62167 3.2489 0.63923 3.3231 0.25419zm-8.0287-1.0942c0-0.053-0.6824-1.6978-1.5164-3.6553-1.6304-3.8264-1.969-4.3228-3.1697-4.6461-0.37368-0.10063-1.0956-0.13107-1.6452-0.0694-1.5473 0.17368-1.7417 0.5029-0.87785 1.4868 0.45977 0.52365 0.61631 0.59405 1.3209 0.59405h0.79929l1.1389 2.6469c0.6264 1.4558 1.2678 2.784 1.4254 2.9516 0.47308 0.50325 2.5247 1.0651 2.5247 0.69137z"/>
</svg>
