<?xml version="1.0" encoding="UTF-8" standalone="no"?>
<!-- Created with Inkscape (http://www.inkscape.org/) -->

<svg
   xmlns:dc="http://purl.org/dc/elements/1.1/"
   xmlns:cc="http://creativecommons.org/ns#"
   xmlns:rdf="http://www.w3.org/1999/02/22-rdf-syntax-ns#"
   xmlns:svg="http://www.w3.org/2000/svg"
   xmlns="http://www.w3.org/2000/svg"
   xmlns:sodipodi="http://sodipodi.sourceforge.net/DTD/sodipodi-0.dtd"
   xmlns:inkscape="http://www.inkscape.org/namespaces/inkscape"
   width="100mm"
   height="100mm"
   viewBox="0 0 100 100"
   version="1.1"
   id="svg8"
   inkscape:version="0.92.4 (5da689c313, 2019-01-14)"
   sodipodi:docname="d20.svg">
  <defs
     id="defs2" />
  <sodipodi:namedview
     id="base"
     pagecolor="#ffffff"
     bordercolor="#666666"
     borderopacity="1.0"
     inkscape:pageopacity="0.0"
     inkscape:pageshadow="2"
     inkscape:zoom="1.4"
     inkscape:cx="180.03323"
     inkscape:cy="195.8443"
     inkscape:document-units="mm"
     inkscape:current-layer="layer1"
     showgrid="false"
     inkscape:window-width="1366"
     inkscape:window-height="715"
     inkscape:window-x="-8"
     inkscape:window-y="-8"
     inkscape:window-maximized="1" />
  <metadata
     id="metadata5">
    <rdf:RDF>
      <cc:Work
         rdf:about="">
        <dc:format>image/svg+xml</dc:format>
        <dc:type
           rdf:resource="http://purl.org/dc/dcmitype/StillImage" />
        <dc:title></dc:title>
      </cc:Work>
    </rdf:RDF>
  </metadata>
  <g
     inkscape:label="Layer 1"
     inkscape:groupmode="layer"
     id="layer1"
     transform="translate(0,-197)">
    <path
       style="fill:#000000;stroke-width:0.16805857"
       d="m 49.354664,296.52828 c -0.247081,-0.25657 -1.621444,-1.74922 -3.054144,-3.31699 -2.304651,-2.52193 -3.516011,-3.82922 -5.293848,-5.71308 -0.277297,-0.29384 -1.525133,-1.65416 -2.772969,-3.02293 -2.356065,-2.58441 -5.148776,-5.64289 -7.909692,-8.66242 -0.884121,-0.96693 -2.926033,-3.18476 -4.537583,-4.92853 -1.61155,-1.74376 -2.9553,-3.23738 -2.986111,-3.31916 -0.03234,-0.0858 11.460713,-0.14867 27.183489,-0.14867 14.981728,0 27.239506,0.0489 27.239506,0.10862 0,0.0597 -0.355762,0.49459 -0.790581,0.96634 -0.434819,0.47174 -1.594052,1.72742 -2.576074,2.79038 -2.006072,2.17144 -6.611528,7.18348 -16.128657,17.55259 -7.944085,8.65523 -7.475863,8.16036 -7.720946,8.16036 -0.111738,0 -0.405312,-0.20993 -0.65239,-0.46651 z m -3.774845,-13.81661 c 0.397274,-0.002 0.811689,-0.3825 3.50986,-3.22281 2.366375,-2.49102 2.420659,-2.56934 2.420659,-3.49261 0,-0.64199 -0.08645,-0.869 -0.471358,-1.23776 -0.470613,-0.45088 -0.475516,-0.4516 -3.109085,-0.4516 h -2.637727 v -0.58029 c 0,-0.77677 -0.297981,-1.38668 -0.734736,-1.5039 -0.660477,-0.17724 -2.223173,-0.10269 -2.528591,0.12063 -0.239991,0.1755 -0.290046,0.40128 -0.242194,1.0925 l 0.06032,0.87127 -0.721888,-10e-5 c -0.542461,-8e-5 -0.82442,0.10243 -1.134395,0.4124 -0.462358,0.46236 -0.492881,0.65126 -0.22801,1.41106 0.176235,0.50555 0.225159,0.52926 1.092383,0.52926 h 0.907881 l 0.0018,2.05871 c 0.0024,2.66712 0.107141,3.2727 0.624724,3.61183 0.530878,0.34786 1.486754,0.54218 2.230423,0.45344 0.323512,-0.0386 0.755463,-0.071 0.959887,-0.072 z m -0.45571,-4.45491 v -1.59704 h 1.364883 1.364886 l -0.810697,0.96633 c -0.445882,0.53148 -1.060079,1.25015 -1.364883,1.59704 l -0.554189,0.6307 z m 12.320516,4.21438 c 0.813104,-0.22371 1.666746,-0.53017 1.896981,-0.68103 0.803288,-0.52633 0.857609,-1.47922 0.122076,-2.14146 -0.292642,-0.26347 -0.398826,-0.26725 -1.237712,-0.044 -0.504685,0.1343 -0.974328,0.24508 -1.043651,0.24618 -0.06933,0.001 -0.126046,-1.53997 -0.126046,-3.42459 0,-4.03316 -0.0313,-4.1238 -1.471755,-4.26221 -0.474198,-0.0456 -1.131123,-0.0324 -1.459829,0.0293 l -0.597647,0.11213 v 4.62504 c 0,4.70223 0.05332,5.15231 0.654753,5.52726 0.78945,0.49217 1.511888,0.49514 3.26283,0.0134 z m -15.933778,10.22237 c -1.478916,-0.86882 -3.369575,-1.96154 -4.201466,-2.42827 -0.831889,-0.46671 -2.230978,-1.26905 -3.109085,-1.78296 -0.878107,-0.5139 -2.163755,-1.25523 -2.856997,-1.64739 -1.115919,-0.63127 -6.399534,-3.7016 -7.058463,-4.1017 -0.164779,-0.10005 0.01413,-0.12419 0.516584,-0.0697 1.057868,0.11473 2.097863,-0.40834 2.257567,-1.13546 0.187472,-0.85356 -0.609968,-2.17914 -2.213399,-3.67932 -1.667083,-1.55973 -2.903036,-2.24122 -3.928126,-2.16591 -0.873106,0.0642 -1.092443,0.35849 -0.926699,1.24359 0.09952,0.53145 0.408761,0.93983 1.611544,2.12816 0.857343,0.84704 1.373714,1.47051 1.217916,1.47051 -0.530591,0 -1.714372,-0.8545 -2.763502,-1.9948 -1.111192,-1.20775 -1.748352,-1.58577 -1.919797,-1.139 -0.141807,0.36954 0.201755,0.9087 1.325973,2.08087 l 1.004939,1.0478 -3.175275,-1.8243 c -7.5297722,-4.32608 -9.5448408,-5.51567 -9.5908496,-5.66188 -0.041298,-0.13126 11.9133596,-5.29039 12.2428576,-5.28351 0.06231,10e-4 2.595793,2.70351 5.629965,6.00489 3.034174,3.30139 7.365295,8.00912 9.624719,10.46165 2.259424,2.45251 4.826644,5.25319 5.704935,6.22373 0.878289,0.97054 2.052542,2.23728 2.609449,2.81498 0.556906,0.57771 0.939115,1.04302 0.849353,1.03403 -0.08977,-0.009 -1.373226,-0.72718 -2.852143,-1.59601 z M 30.503006,280.84254 c 0,-0.16876 -3.160324,-3.80603 -4.473954,-5.14916 -0.567936,-0.58069 -1.140215,-0.69509 -1.641918,-0.32824 -0.271616,0.19861 -0.110491,0.43344 1.816071,2.64692 1.162771,1.33593 2.322307,2.56092 2.576745,2.72219 0.513423,0.32542 1.723056,0.40145 1.723056,0.10829 z m 27.784862,10.48028 c 2.70706,-2.92984 5.603562,-6.08209 16.291714,-17.73017 2.947315,-3.21202 5.421274,-5.84004 5.497691,-5.84004 0.113395,0 3.27654,1.32512 11.922818,4.9947 l 0.575822,0.24439 -0.491786,0.29554 c -0.500685,0.30087 -2.6666,1.55408 -7.634287,4.41726 -1.525136,0.87902 -4.739258,2.73436 -7.142501,4.12299 -2.403233,1.38863 -6.562687,3.78901 -9.243223,5.33418 -6.284224,3.62249 -7.792866,4.49528 -10.282711,5.94874 -1.126309,0.6575 -2.093266,1.19544 -2.148796,1.19544 -0.05553,0 1.139339,-1.34236 2.655259,-2.98303 z m 15.411327,-11.05485 0.6075,-0.5932 1.561384,0.603 c 1.319445,0.50957 1.638499,0.57613 2.05909,0.42951 0.626169,-0.21829 1.40672,-0.85993 2.111127,-1.73543 l 0.546192,-0.67886 v -2.49335 c 0,-2.48596 -10e-4,-2.49418 -0.427769,-2.77363 -0.781282,-0.51191 -1.493497,-0.12225 -3.411443,1.86643 l -1.699197,1.76188 -0.762433,-0.1045 c -0.749184,-0.10269 -0.778442,-0.0885 -1.684348,0.81741 -0.507054,0.50706 -0.921925,1.00166 -0.921925,1.09912 0,0.0975 0.226879,0.25627 0.504176,0.35295 0.61346,0.21385 0.627189,0.3552 0.084,0.86547 -0.40713,0.38248 -0.537974,0.8345 -0.308105,1.06437 0.317434,0.31743 1.163143,0.0838 1.741725,-0.48117 z m 3.554736,-2.41843 c -0.399101,-0.15832 -0.709835,-0.35845 -0.690526,-0.44474 0.0193,-0.0863 0.360202,-0.52851 0.757533,-0.98272 0.690946,-0.78986 0.726264,-0.80816 0.81051,-0.42015 0.173682,0.79996 0.183981,2.17049 0.0162,2.15299 -0.09239,-0.01 -0.494595,-0.14706 -0.893696,-0.30538 z m -53.621885,1.76555 c -0.597439,-0.44078 -1.195856,-1.15767 -1.195856,-1.43262 0,-0.30204 0.444638,-0.38937 0.869175,-0.17069 0.672177,0.34622 1.315588,1.04772 1.315588,1.43436 0,0.53897 -0.395737,0.60657 -0.988907,0.16895 z M 6.3084715,270.4526 C 6.195604,270.2417 6.1345,267.34414 6.1345,262.20279 v -7.92473 l 0.5091231,0.4284 c 1.0142295,0.85342 2.3042135,0.68805 3.5028499,-0.44905 1.245452,-1.18151 1.670706,-3.07897 1.137453,-5.07526 -0.517152,-1.936 -1.3597591,-2.94101 -2.4657421,-2.94101 -0.511111,0 -0.7302823,0.11175 -1.144579,0.5836 -0.4974158,0.56653 -0.8640199,1.49626 -0.8659328,2.19606 -0.0018,0.67533 0.5256003,2.35764 0.9331555,2.97634 0.389763,0.59168 0.3952887,0.63021 0.090385,0.63021 -0.5895183,0 -0.8663677,-0.20134 -1.2417134,-0.90303 l -0.3709736,-0.69352 -0.041088,-11.76409 -0.041088,-11.7641 6.3853014,19.06653 c 3.511916,10.48658 6.385301,19.11539 6.385301,19.17513 0,0.1797 -11.5976226,5.0334 -12.0269987,5.0334 -0.2210122,0 -0.4747628,-0.14434 -0.5714881,-0.32507 z M 10.3152,262.14768 c 0.323163,-0.38938 0.272398,-1.02653 -0.134211,-1.68444 -0.3788041,-0.61291 -0.381159,-0.63946 -0.07596,-0.85607 0.173232,-0.12294 0.995604,-0.74527 1.827494,-1.38293 1.290321,-0.98907 1.520342,-1.23949 1.565714,-1.70458 0.07311,-0.74938 -0.441335,-2.25996 -0.731701,-2.14854 -0.578582,0.22203 -4.7593485,3.53169 -4.9275502,3.90085 -0.2748106,0.60315 0.017789,1.71251 0.7598919,2.88104 0.3386854,0.53331 0.6979249,1.02521 0.798308,1.09312 0.287952,0.19479 0.7124193,0.14927 0.9180133,-0.0985 z m 79.764605,7.51549 c -1.201621,-0.5139 -3.6973,-1.57858 -5.54594,-2.36595 -1.848649,-0.78738 -3.383924,-1.45202 -3.411723,-1.47697 -0.0278,-0.025 2.828082,-8.65663 6.3464,-19.18151 l 6.396958,-19.13613 -0.06,10.83978 c -0.033,5.96187 -0.128514,11.17816 -0.21227,11.59176 l -0.152272,0.75199 -1.741405,-1.67631 c -0.957763,-0.92197 -1.884068,-1.73056 -2.05845,-1.79685 -0.383521,-0.1458 -0.707155,0.29355 -0.980472,1.33101 l -0.186081,0.7063 1.390822,1.32374 c 0.764953,0.72806 1.972104,1.84712 2.68256,2.48681 l 1.291736,1.16307 0.0107,7.91472 c 0.0101,7.46191 -0.007,7.93062 -0.296616,8.19285 -0.496326,0.44916 -1.159403,0.3216 -3.47398,-0.66831 z m 1.604102,-8.30486 c 1.033849,-1.10673 1.561723,-3.50733 1.110075,-5.04822 -0.348173,-1.18787 -0.947404,-1.83409 -1.700707,-1.83409 -0.544563,0 -0.581051,-0.0398 -0.833959,-0.90978 -0.337614,-1.16134 -1.087256,-1.8581 -1.83765,-1.70802 -0.700506,0.1401 -1.007581,0.46438 -1.519116,1.60424 -1.077127,2.40014 -0.960853,4.69268 0.297605,5.86826 0.346603,0.32377 0.553763,0.38448 1.073868,0.31473 0.631839,-0.0848 0.648619,-0.0729 0.859038,0.60719 0.483446,1.56247 1.651279,2.06869 2.550846,1.10569 z m -1.263679,-2.6725 c -0.356902,-0.69018 -0.320324,-1.12059 0.121734,-1.4325 0.354183,-0.2499 0.39775,-0.24277 0.688036,0.11264 0.476587,0.58351 0.186982,1.80003 -0.431628,1.81311 -0.067,0.001 -0.237119,-0.22055 -0.378142,-0.49325 z m -2.309397,-1.81298 c -0.426019,-0.48504 -0.498036,-0.99099 -0.231779,-1.62823 0.292236,-0.69943 0.655158,-0.76742 1.03137,-0.19324 0.600401,0.91632 -0.131074,2.58262 -0.799591,1.82147 z m -65.841999,8.40092 c 9.25e-4,-0.16654 1.258232,-2.35685 13.867585,-24.1584 1.924558,-3.32755 4.234055,-7.33576 5.132214,-8.9071 0.898159,-1.57134 1.773845,-3.0986 1.945969,-3.39389 0.172124,-0.2953 1.749852,-3.03421 3.506066,-6.08648 1.756213,-3.05228 3.230928,-5.54994 3.277144,-5.55037 0.04622,-5e-4 0.72189,1.11252 1.5015,2.47322 0.779608,1.36071 2.072019,3.6084 2.872019,4.99489 0.800003,1.38648 2.345749,4.07122 3.434989,5.96608 1.089241,1.89485 2.229663,3.86114 2.534269,4.36951 0.304608,0.50839 2.991779,5.1594 5.971494,10.3356 2.979714,5.1762 6.767154,11.74295 8.416533,14.59277 1.64938,2.84983 2.998874,5.25097 2.998874,5.33586 0,0.0931 -10.996484,0.15436 -27.729678,0.15436 -15.251323,0 -27.729363,-0.0567 -27.728978,-0.12605 z m 37.605506,-8.43559 c 2.464812,-1.31877 3.606759,-3.71106 3.614443,-7.57197 0.0045,-2.26507 -0.296757,-3.61564 -1.148284,-5.14778 -0.678104,-1.22011 -1.481723,-1.96839 -2.755676,-2.56592 -0.809182,-0.37954 -1.153438,-0.43714 -2.612576,-0.43714 -1.494979,0 -1.784981,0.0513 -2.625841,0.46421 -1.041149,0.51129 -2.283901,1.7306 -2.805034,2.7521 -0.73197,1.43478 -0.948076,2.55956 -0.948076,4.93453 0,3.18646 0.505172,4.76066 2.061744,6.42476 1.306357,1.3966 2.448931,1.82843 4.653324,1.75869 1.3454,-0.0426 1.628928,-0.11012 2.565976,-0.61148 z m -3.983787,-3.22857 c -0.720614,-0.67135 -1.068892,-1.76724 -1.153149,-3.62848 -0.12287,-2.71425 0.440915,-4.78742 1.423675,-5.2352 1.167344,-0.53187 2.197689,0.0116 2.762616,1.45709 0.318084,0.81391 0.376137,1.28667 0.376137,3.06319 0,1.77654 -0.05805,2.24926 -0.376158,3.06324 -0.206886,0.52938 -0.570632,1.11548 -0.808324,1.30245 -0.5968,0.46945 -1.708945,0.4583 -2.224797,-0.0223 z m -7.851854,3.36876 c 0.766375,-0.3492 1.015699,-1.6194 0.540908,-2.75573 l -0.241795,-0.57869 -2.793501,-0.0461 -2.793499,-0.0461 1.937278,-1.64928 c 2.118443,-1.80352 2.724653,-2.48231 3.377273,-3.78164 1.291849,-2.57202 0.247066,-5.45103 -2.400153,-6.61387 -1.759551,-0.77292 -5.360008,-0.53586 -6.397105,0.4212 -1.054306,0.97293 -1.150318,2.29082 -0.242823,3.3331 0.226255,0.25984 0.320438,0.24441 1.280859,-0.20995 2.263105,-1.07063 4.512451,-0.29409 4.08471,1.41017 -0.185233,0.73803 -1.104621,1.77425 -3.528019,3.97638 -1.446647,1.31455 -2.54953,2.4567 -2.720841,2.81771 -0.332131,0.69991 -0.369258,2.17912 -0.06928,2.76007 0.111646,0.2162 0.357978,0.56327 0.547405,0.77125 0.340147,0.37345 0.398042,0.37813 4.676733,0.37813 2.817133,0 4.47555,-0.0653 4.741846,-0.18659 z m -27.524707,6.56882 c -0.137577,-0.37024 -8.308335,-24.63583 -11.307223,-33.5803 -2.1981877,-6.55629 -2.5743233,-7.82148 -2.3794308,-8.00355 0.1359223,-0.12697 1.9312846,-0.43792 4.3489238,-0.75321 2.26459,-0.29532 4.911514,-0.64726 5.882053,-0.78208 5.8415,-0.81144 30.821786,-4.09028 30.861308,-4.05075 0.02619,0.0262 -0.277909,0.61163 -0.675774,1.30098 -0.397864,0.68936 -1.615316,2.80371 -2.705451,4.69857 -1.090134,1.89486 -2.699972,4.69303 -3.577421,6.21816 -0.877448,1.52514 -1.717692,2.97776 -1.867213,3.22806 -0.374347,0.62667 -6.182218,10.66256 -7.663093,13.24168 -0.663406,1.1554 -1.774969,3.08387 -2.470136,4.28548 -0.695166,1.20162 -2.722278,4.71825 -4.504693,7.81473 -4.09741,7.11818 -3.829541,6.68447 -3.94185,6.38223 z m 6.311877,-25.21506 c 1.553329,-0.79245 3.4705,-3.25757 4.186543,-5.38311 0.458575,-1.36126 0.437583,-2.89543 -0.05144,-3.75882 -0.813088,-1.43553 -2.488436,-2.07593 -3.987202,-1.52408 -1.197914,0.44108 -1.206501,0.43729 -1.423256,-0.62702 -0.313386,-1.5388 -1.453284,-2.51627 -2.934409,-2.51627 -1.092051,0 -1.893517,0.39035 -3.032922,1.47715 -1.719879,1.64048 -2.772654,3.77234 -2.775361,5.62009 -0.0019,1.32305 0.387025,2.189 1.316172,2.93022 0.563339,0.4494 0.777335,0.51484 1.680587,0.51389 0.569277,-6.7e-4 1.232539,-0.0629 1.473918,-0.13841 0.42633,-0.13342 0.442193,-0.11228 0.555214,0.73971 0.06399,0.48237 0.257796,1.15432 0.430684,1.4932 0.281809,0.55239 1.174134,1.31442 1.852377,1.58189 0.481863,0.19003 1.978205,-0.0356 2.70909,-0.40844 z m -1.299394,-3.34119 c -0.548967,-0.23164 -1.073679,-1.00793 -1.072642,-1.58691 0.002,-1.1103 0.314058,-1.76635 1.008816,-2.1208 1.109677,-0.56611 2.244473,-0.31639 2.654817,0.58422 0.284111,0.62356 0.250961,1.05536 -0.143591,1.8704 -0.515803,1.0655 -1.589342,1.61516 -2.4474,1.25309 z m -4.897059,-3.46117 c -0.625808,-0.26313 -0.882162,-0.69558 -0.882162,-1.48813 0,-0.45709 0.147421,-0.74715 0.646213,-1.27149 0.660861,-0.69471 1.026592,-0.80174 1.771648,-0.51848 0.989225,0.37611 1.23723,2.38572 0.364952,2.95725 -0.681101,0.44628 -1.338441,0.55724 -1.900651,0.32085 z m 55.728031,27.01257 c -4.279712,-7.44211 -9.607726,-16.67994 -10.632775,-18.43533 -0.485778,-0.83188 -2.081293,-3.59224 -3.54559,-6.13413 -1.464298,-2.54188 -4.17004,-7.23071 -6.012757,-10.41962 -4.399475,-7.61349 -4.182494,-7.22652 -4.051965,-7.22652 0.06271,0 3.752682,0.48721 8.199944,1.08267 4.447263,0.59547 13.568843,1.81063 20.270186,2.70038 9.876338,1.31129 12.241033,1.67321 12.48404,1.91072 0.287096,0.28062 0.178772,0.65513 -2.560924,8.85365 -1.573383,4.70834 -3.211284,9.58158 -3.639772,10.82941 -0.428489,1.24784 -2.25012,6.65511 -4.048062,12.01619 -1.797943,5.36106 -3.319998,9.80001 -3.382355,9.86434 -0.0624,0.0643 -1.44834,-2.20446 -3.07997,-5.04176 z m -0.683097,-18.78164 c 0.20596,-0.14426 0.483827,-0.47375 0.61748,-0.73222 0.236868,-0.45804 0.21139,-0.51585 -1.008391,-2.28751 -0.688266,-0.99968 -1.22262,-1.84637 -1.187452,-1.88154 0.0352,-0.0352 0.772113,0.2368 1.63765,0.60438 2.372444,1.00753 3.818214,1.17338 4.938839,0.56652 0.607121,-0.32878 1.225111,-1.12469 1.406921,-1.81199 0.684067,-2.58601 -2.541885,-7.80371 -4.826994,-7.80722 -0.771492,-0.001 -1.543305,0.77246 -1.537095,1.54075 0.004,0.47233 0.111595,0.62433 0.694407,0.97926 0.769901,0.46887 1.889887,1.86081 2.052379,2.55073 0.0986,0.41846 -0.211179,0.98219 -0.536533,0.9765 -0.383852,-0.007 -2.111957,-0.5896 -4.172097,-1.40723 -1.307606,-0.51898 -2.594614,-0.94359 -2.86,-0.94359 -0.763811,0 -1.66375,0.71293 -1.855993,1.4703 -0.0906,0.35691 -0.104468,0.81181 -0.03083,1.01087 0.158701,0.429 4.462716,6.70538 4.893864,7.13652 0.368013,0.36802 1.273229,0.38611 1.773844,0.0355 z M 8.8338322,251.09293 c -0.1898898,-0.31146 -0.3455372,-0.75745 -0.3458831,-0.99108 -7.48e-4,-0.50612 0.428505,-1.17178 0.7556361,-1.17178 0.3693559,0 0.7562641,0.69198 0.7562641,1.35256 0,0.42478 -0.1225071,0.72064 -0.4103811,0.99108 l -0.4103809,0.38553 z M 14.957579,216.489 c 6.481004,-3.75738 12.19782,-7.06111 21.931655,-12.67423 5.613901,-3.23732 7.522,-4.34349 10.196625,-5.91118 C 47.933741,197.40662 48.708911,197 48.80846,197 c 0.126915,0 0.180999,2.54975 0.180999,8.53315 v 8.53315 l -18.780556,2.49474 c -10.329305,1.37211 -19.045248,2.53104 -19.368761,2.5754 -0.420388,0.0577 0.754329,-0.69769 4.117437,-2.64744 z m 17.553859,-2.36096 c 0.46671,-0.1001 0.848564,-0.25079 0.848564,-0.33488 0,-0.0841 0.756265,-1.71557 1.680588,-3.6255 0.924322,-1.90994 1.680586,-3.6418 1.680586,-3.8486 0,-0.71758 -0.802402,-0.65481 -2.699105,0.21112 -1.181415,0.53938 -1.838479,1.1957 -1.838479,1.83643 0,0.46471 0.229026,0.4953 1.071859,0.14314 0.334799,-0.13989 0.608728,-0.22338 0.608728,-0.18554 0,0.0378 -0.527766,1.13472 -1.17281,2.43751 -1.226592,2.47734 -1.452119,3.07592 -1.269945,3.37069 0.13362,0.21621 0.06014,0.2165 1.090014,-0.004 z m 7.129732,-1.24332 c 2.011468,-1.0177 4.207815,-4.0854 4.419716,-6.17314 0.07545,-0.74333 0.03038,-0.96402 -0.275787,-1.35067 -0.323444,-0.40845 -0.478611,-0.46216 -1.335285,-0.46216 -0.740489,0 -1.207187,0.11886 -1.976976,0.50353 -2.200682,1.0997 -4.374134,4.10834 -4.549923,6.29832 -0.07471,0.93071 -0.04058,1.09836 0.291191,1.43012 0.539783,0.53978 2.094582,0.42818 3.427064,-0.246 z m -1.450935,-1.47371 c -0.215016,-0.63193 1.111136,-3.37741 2.014531,-4.1706 0.764528,-0.67127 1.448162,-0.63661 1.529669,0.0776 0.07592,0.66519 -1.009994,2.82076 -1.838294,3.64905 -0.668135,0.66814 -1.551423,0.89804 -1.705906,0.44401 z m 31.974614,5.22726 c -10.306198,-1.37971 -18.833073,-2.54125 -18.948613,-2.58119 -0.164331,-0.0568 -0.210074,-1.92184 -0.210074,-8.56485 0,-5.15979 0.0617,-8.49223 0.157237,-8.49223 0.08648,0 2.336365,1.25827 4.999745,2.79615 2.663379,1.53789 5.863464,3.38069 7.1113,4.09513 3.031301,1.73555 13.647443,7.86842 15.545431,8.98047 0.831889,0.48743 3.592244,2.08025 6.13414,3.53961 2.541886,1.45935 4.653123,2.68015 4.691631,2.71287 0.156123,0.13263 -1.478398,-0.076 -19.480797,-2.48596 z m 0.129975,-2.67476 c 0.02739,-0.14224 -0.12571,-0.51951 -0.340229,-0.83836 -0.37147,-0.55214 -0.475746,-0.59568 -2.190624,-0.91456 -0.990324,-0.18414 -1.800454,-0.37321 -1.800288,-0.42014 1.65e-4,-0.0469 0.340432,-0.30021 0.756147,-0.56285 1.456009,-0.91986 1.709879,-1.6077 1.076377,-2.91634 -0.822948,-1.69998 -3.819926,-3.21421 -6.03429,-3.04884 -0.674453,0.0504 -0.761807,0.1043 -0.807503,0.49854 -0.03275,0.28256 0.09793,0.61548 0.36216,0.92267 0.381278,0.44326 0.491631,0.47673 1.420293,0.4307 1.179513,-0.0585 2.066259,0.25334 2.469124,0.8682 0.372557,0.56859 0.191797,0.87015 -1.172093,1.95544 -1.351395,1.07533 -1.431013,1.50859 -0.465351,2.53231 0.620719,0.65803 0.67202,0.67671 3.403187,1.23904 3.019321,0.62167 3.248939,0.63923 3.32309,0.25419 z m -8.028732,-1.09425 c 0,-0.053 -0.682397,-1.69783 -1.516437,-3.65527 -1.630404,-3.82645 -1.969024,-4.3228 -3.169672,-4.64609 -0.373677,-0.10063 -1.095586,-0.13107 -1.645155,-0.0694 -1.547296,0.17368 -1.741686,0.5029 -0.877849,1.48676 0.459771,0.52365 0.616313,0.59405 1.320879,0.59405 h 0.799292 l 1.138917,2.64692 c 0.626403,1.45581 1.267813,2.78405 1.425355,2.95164 0.473075,0.50325 2.52467,1.06508 2.52467,0.69137 z"
       id="path861"
       inkscape:connector-curvature="0" />
  </g>
</svg>
