<?xml version="1.0" encoding="UTF-8" standalone="no"?>
<!-- Created with Inkscape (http://www.inkscape.org/) -->

<svg
   xmlns:dc="http://purl.org/dc/elements/1.1/"
   xmlns:cc="http://creativecommons.org/ns#"
   xmlns:rdf="http://www.w3.org/1999/02/22-rdf-syntax-ns#"
   xmlns:svg="http://www.w3.org/2000/svg"
   xmlns="http://www.w3.org/2000/svg"
   xmlns:sodipodi="http://sodipodi.sourceforge.net/DTD/sodipodi-0.dtd"
   xmlns:inkscape="http://www.inkscape.org/namespaces/inkscape"
   width="100mm"
   height="100mm"
   viewBox="0 0 100 100"
   version="1.1"
   id="svg8"
   inkscape:version="0.92.4 (5da689c313, 2019-01-14)"
   sodipodi:docname="d4.svg">
  <defs
     id="defs2" />
  <sodipodi:namedview
     id="base"
     pagecolor="#ffffff"
     bordercolor="#666666"
     borderopacity="1.0"
     inkscape:pageopacity="0.0"
     inkscape:pageshadow="2"
     inkscape:zoom="1.4"
     inkscape:cx="180.03323"
     inkscape:cy="195.8443"
     inkscape:document-units="mm"
     inkscape:current-layer="layer1"
     showgrid="false"
     inkscape:window-width="1366"
     inkscape:window-height="715"
     inkscape:window-x="-8"
     inkscape:window-y="-8"
     inkscape:window-maximized="1" />
  <metadata
     id="metadata5">
    <rdf:RDF>
      <cc:Work
         rdf:about="">
        <dc:format>image/svg+xml</dc:format>
        <dc:type
           rdf:resource="http://purl.org/dc/dcmitype/StillImage" />
        <dc:title></dc:title>
      </cc:Work>
    </rdf:RDF>
  </metadata>
  <g
     inkscape:label="Layer 1"
     inkscape:groupmode="layer"
     id="layer1"
     transform="translate(0,-197)">
    <path
       style="fill:#000000;stroke-width:0.30152509"
       d="m 1.948005,290.46756 c -0.5264573,-0.2304 -1.18453508,-0.76587 -1.46239316,-1.18994 -1.05995733,-1.61771 -0.80833075,-2.23152 5.14497516,-12.55044 3.1075955,-5.38642 9.172855,-15.89939 13.478354,-23.36215 4.305499,-7.46276 8.343485,-14.45062 8.973302,-15.52857 0.629817,-1.07796 3.412377,-5.89484 6.183468,-10.70417 11.354679,-19.70649 13.185472,-22.77738 13.927297,-23.3609 0.440323,-0.34635 1.228368,-0.61039 1.821759,-0.61039 1.599917,0 2.716971,1.42307 7.10057,9.04577 2.145811,3.73138 4.721744,8.20904 5.724294,9.95035 1.002551,1.74131 2.231209,3.91229 2.730347,4.82441 0.499141,0.91211 1.248805,2.20114 1.665923,2.8645 0.814477,1.29528 2.434981,4.07488 3.515795,6.0305 0.366618,0.66336 2.94341,5.14102 5.726207,9.95036 2.782798,4.80932 6.307317,10.91522 7.832269,13.56865 1.524951,2.65343 3.521376,6.11344 4.436501,7.68891 5.313001,9.14685 10.111994,17.51308 10.719611,18.68786 0.852716,1.64862 0.696156,2.78879 -0.559873,4.07733 l -0.88175,0.90458 -47.559732,0.0662 c -40.036501,0.0556 -47.7111416,-1.5e-4 -48.516924,-0.35278 z m 17.029059,-3.30079 c 1.078982,-0.55796 1.777973,-1.36259 2.017406,-2.32229 0.166083,-0.6657 0.06286,-0.83875 -0.685031,-1.14854 -0.484317,-0.20061 -1.462714,-0.9579 -2.174215,-1.68288 -1.080233,-1.10068 -1.31668,-1.55792 -1.433312,-2.77174 -0.294448,-3.0644 1.552937,-3.32233 9.452293,-1.31978 5.51144,1.39718 6.36859,1.43082 8.187677,0.32124 1.109369,-0.67668 2.19133,-2.26315 2.16048,-3.1679 -0.01131,-0.33169 -1.740797,-3.1811 -3.843309,-6.33204 -3.66397,-5.49103 -3.866582,-5.7324 -4.878084,-5.81115 -1.248315,-0.0972 -2.875008,0.80133 -3.354009,1.85263 -0.289814,0.63608 -0.06601,1.11264 1.993547,4.24482 1.276007,1.94056 2.270425,3.57788 2.209817,3.63851 -0.06061,0.0606 -1.735132,-0.37178 -3.721164,-0.96083 -4.69607,-1.39286 -8.283833,-1.54765 -10.395267,-0.44848 -2.931407,1.52604 -4.059854,3.34624 -4.048476,6.53028 0.0058,1.61642 0.18755,2.49901 0.77627,3.76906 1.096509,2.36551 2.995891,4.62463 4.524294,5.38117 1.535297,0.75996 2.104168,0.80034 3.211083,0.22792 z m 63.833038,-0.89001 c 2.644606,-1.23154 5.577925,-4.98042 6.459956,-8.25603 0.643051,-2.38811 -0.78585,-4.30272 -3.211197,-4.30272 -1.225696,0 -1.289766,0.044 -1.289766,0.88494 0,2.47398 -2.489809,5.74863 -4.370835,5.74863 -0.660753,0 -1.961173,-1.35509 -1.961173,-2.04361 0,-0.30987 0.618853,-1.5307 1.375234,-2.71293 1.177882,-1.84103 1.326254,-2.24105 1.033897,-2.78733 -0.394762,-0.73763 -2.907293,-2.41102 -3.598881,-2.39693 -0.257756,0.005 -1.069673,0.90103 -1.804275,1.99062 -0.825773,1.22482 -1.718789,2.16378 -2.339299,2.45968 -0.943853,0.45011 -1.051507,0.44288 -1.807046,-0.12122 -1.17635,-0.87827 -1.411767,-1.39925 -1.183097,-2.61818 0.305965,-1.63094 2.213611,-3.8525 4.043491,-4.70886 1.405165,-0.65759 1.535635,-0.80144 1.367341,-1.50762 -0.285971,-1.20003 -0.659457,-1.79183 -1.46318,-2.31845 -2.527376,-1.656 -6.599829,1.05973 -9.063051,6.04375 -1.768845,3.57903 -1.476176,7.01689 0.780982,9.17397 2.075977,1.98393 4.623304,2.61766 6.824656,1.69787 0.595363,-0.24876 1.099825,-0.45158 1.121031,-0.45073 0.0212,9.2e-4 0.06997,0.55175 0.108376,1.22418 0.139999,2.45166 1.674579,4.36853 4.226299,5.27915 1.662981,0.59346 3.053647,0.51203 4.750537,-0.27818 z M 54.65873,241.45477 c 0.50019,0 0.560965,-0.26135 0.560965,-2.41221 v -2.41221 h 1.035707 c 1.803957,0 2.51854,-0.45152 2.888404,-1.82509 0.259288,-0.96293 0.24552,-1.53498 -0.06019,-2.50083 l -0.396383,-1.25231 -1.733766,-0.0905 -1.733766,-0.0905 v -5.87968 c 0,-6.57104 -0.165063,-7.27622 -1.870307,-7.99019 -1.066529,-0.44657 -4.189219,-0.49 -5.27272,-0.0733 -0.759717,0.29215 -9.230505,11.40941 -10.072578,13.2195 -0.667235,1.43426 -0.729174,3.12108 -0.163667,4.45718 0.807849,1.90867 1.090347,2.00123 6.388573,2.09304 l 4.809448,0.0833 0.101336,1.80917 c 0.147928,2.64092 0.885969,3.24791 3.634422,2.98911 0.727962,-0.0686 1.575999,-0.12462 1.884529,-0.12462 z m -9.46074,-11.83489 c 0.458854,-0.70481 1.510671,-2.33006 2.337366,-3.61166 0.826699,-1.28158 1.604852,-2.33316 1.729231,-2.33681 0.124379,-0.004 0.226144,1.62157 0.226144,3.61164 v 3.61831 h -2.563514 -2.563509 z"
       id="path874"
       inkscape:connector-curvature="0" />
  </g>
</svg>
