<?xml version="1.0" encoding="UTF-8" standalone="no"?>
<!-- Created with Inkscape (http://www.inkscape.org/) -->

<svg
   xmlns:dc="http://purl.org/dc/elements/1.1/"
   xmlns:cc="http://creativecommons.org/ns#"
   xmlns:rdf="http://www.w3.org/1999/02/22-rdf-syntax-ns#"
   xmlns:svg="http://www.w3.org/2000/svg"
   xmlns="http://www.w3.org/2000/svg"
   xmlns:sodipodi="http://sodipodi.sourceforge.net/DTD/sodipodi-0.dtd"
   xmlns:inkscape="http://www.inkscape.org/namespaces/inkscape"
   width="100mm"
   height="100mm"
   viewBox="0 0 100 100"
   version="1.1"
   id="svg8"
   inkscape:version="0.92.4 (5da689c313, 2019-01-14)"
   sodipodi:docname="d6.svg">
  <defs
     id="defs2" />
  <sodipodi:namedview
     id="base"
     pagecolor="#ffffff"
     bordercolor="#666666"
     borderopacity="1.0"
     inkscape:pageopacity="0.0"
     inkscape:pageshadow="2"
     inkscape:zoom="1.4"
     inkscape:cx="180.03323"
     inkscape:cy="252.98716"
     inkscape:document-units="mm"
     inkscape:current-layer="layer1"
     showgrid="false"
     inkscape:window-width="1366"
     inkscape:window-height="715"
     inkscape:window-x="-8"
     inkscape:window-y="-8"
     inkscape:window-maximized="1" />
  <metadata
     id="metadata5">
    <rdf:RDF>
      <cc:Work
         rdf:about="">
        <dc:format>image/svg+xml</dc:format>
        <dc:type
           rdf:resource="http://purl.org/dc/dcmitype/StillImage" />
        <dc:title></dc:title>
      </cc:Work>
    </rdf:RDF>
  </metadata>
  <g
     inkscape:label="Layer 1"
     inkscape:groupmode="layer"
     id="layer1"
     transform="translate(0,-197)">
    <path
       style="fill:#000000;stroke-width:0.32034817"
       d="M 23.584,296.89006 C 3.0269767,296.71435 3.9829235,296.80924 2.077121,294.75631 0.06956135,292.5938 0.20050783,295.2763 0.1861152,256.01822 L 0.173,220.23881 l 0.73355701,-1.4755 c 0.83507959,-1.67972 2.71029389,-3.13682 4.60135189,-3.5754 0.7134721,-0.16546 16.1040941,-0.29501 35.5642721,-0.29934 37.156095,-0.008 36.06637,-0.057 38.394318,1.71855 0.590696,0.45055 1.377628,1.44641 1.748755,2.21305 0.673608,1.39149 0.674781,1.45529 0.683364,37.1625 0.008,34.97551 -0.005,35.79608 -0.623103,37.00685 -0.818487,1.60438 -2.585591,3.14143 -4.107876,3.5731 -1.442763,0.4091 -26.274335,0.56085 -53.583639,0.32744 z m 23.616881,-20.87101 c 4.517275,-1.67601 7.156017,-4.65272 8.254447,-9.31172 0.605113,-2.5666 0.601961,-4.99502 -0.0098,-7.5906 -0.946573,-4.01576 -2.807722,-6.4094 -6.218959,-7.99828 -1.513509,-0.70496 -2.227111,-0.82833 -4.819849,-0.83327 -3.527954,-0.007 -5.271641,0.52378 -7.993096,2.43176 -0.960463,0.67337 -1.777885,1.19273 -1.816487,1.15412 -0.182432,-0.18244 0.972945,-4.97033 1.491099,-6.17913 0.761849,-1.77732 2.659388,-3.8579 4.266039,-4.67755 1.80718,-0.92195 5.54063,-1.12101 8.216979,-0.43811 1.145247,0.29223 2.406931,0.61216 2.803741,0.71096 0.596428,0.1485 0.804636,-0.0195 1.201308,-0.96877 1.149914,-2.75213 0.379958,-4.86506 -2.239924,-6.14685 -1.486484,-0.72727 -2.319453,-0.89089 -5.210965,-1.02358 -1.93095,-0.0886 -4.280153,-6.4e-4 -5.351902,0.20053 -6.299566,1.18217 -10.692435,5.78841 -12.71166,13.32909 -0.567445,2.1191 -0.690364,3.50565 -0.70998,8.00871 -0.02666,6.12018 0.518388,9.00998 2.403865,12.74509 1.860655,3.68592 5.662931,6.56981 9.564358,7.25422 2.567673,0.45043 6.70765,0.13967 8.880839,-0.66662 z m -8.079967,-6.8108 c -2.058135,-0.91475 -3.269684,-3.08849 -3.5813,-6.4255 -0.264371,-2.83106 -0.01544,-3.53019 1.592575,-4.47254 3.224271,-1.88954 6.372357,-1.77484 8.192781,0.2985 2.479612,2.82412 1.990342,8.35762 -0.913456,10.33097 -1.229418,0.83548 -3.729521,0.96239 -5.2906,0.26857 z m 46.93109,-15.58106 c 0,-38.16905 -0.06317,-36.74632 1.795099,-40.4135 0.554889,-1.09502 2.489191,-3.3331 5.706789,-6.60308 4.144575,-4.21201 4.971765,-4.91347 5.570251,-4.72352 L 99.827,202.11017 99.82,237.8875 c -0.007,34.29718 -0.03189,35.83032 -0.60734,37.05871 -0.370826,0.79156 -3.000966,3.66813 -6.880459,7.5251 l -6.280147,6.24371 z m 9.433984,6.9532 c 0.751376,-0.98511 0.817173,-1.33196 0.817173,-4.30775 0,-2.83691 0.09887,-3.42229 0.80087,-4.74261 0.698134,-1.313 0.80087,-1.91107 0.80087,-4.662 0,-1.73568 -0.09676,-3.15577 -0.215037,-3.15577 -0.118269,0 -0.478655,0.23857 -0.800871,0.53017 -0.566099,0.51232 -0.585983,0.25069 -0.590204,-7.76844 -0.003,-4.56424 -0.09134,-8.62297 -0.19754,-9.0194 -0.311978,-1.16414 -1.284949,-0.87442 -2.151596,0.6407 -0.732596,1.28074 -2.308245,9.4129 -4.236231,21.86376 -0.547438,3.53539 -0.584127,7.39093 -0.08393,8.82568 l 0.373964,1.07274 1.863212,-2.06608 1.863211,-2.06607 0.009,1.76191 c 0.01103,2.20933 0.324672,4.16453 0.668053,4.16453 0.144167,0 0.629861,-0.48212 1.079307,-1.07137 z m -3.347366,-11.22244 c 0,-0.79322 1.626055,-10.90235 1.778103,-11.0544 0.07921,-0.0792 0.143997,1.98731 0.143997,4.59224 v 4.73624 l -0.96105,1.09457 c -0.547229,0.62326 -0.96105,0.8951 -0.96105,0.63135 z m -77.68456,-44.6849 c 5.281076,-5.23804 6.68845,-6.46167 8.008718,-6.96311 1.531526,-0.58167 3.101008,-0.61215 35.801373,-0.69545 18.809793,-0.0479 34.883297,0.027 35.71888,0.16644 1.258568,0.21004 1.537618,0.38224 1.626275,1.00356 0.08603,0.60274 -0.810425,1.65254 -4.565012,5.34609 -5.076638,4.9941 -6.532565,6.02727 -9.751245,6.91979 -1.991376,0.55219 -4.188563,0.58612 -37.680322,0.58191 l -35.5656414,-0.004 z m 40.524114,3.65172 c 5.210482,-0.79616 8.969764,-2.52943 8.969764,-4.13563 0,-1.32686 -5.33321,-2.35131 -10.404114,-1.99852 l -2.875919,0.20008 0.721498,-0.72246 c 0.6951,-0.69603 0.984085,-0.72832 7.899047,-0.88263 6.534303,-0.14582 7.254357,-0.21759 8.034571,-0.80088 0.471355,-0.35237 0.877846,-0.78484 0.903314,-0.96104 0.06678,-0.46228 -18.053709,-0.59117 -20.212129,-0.14376 -1.646137,0.3412 -4.185203,1.82076 -6.490678,3.7822 -0.900843,0.76642 -1.042704,1.03446 -0.721756,1.36371 0.603024,0.61861 3.478712,0.82337 6.945577,0.49453 4.817446,-0.45695 7.45915,0.39682 4.674878,1.51086 -1.56302,0.6254 -7.473583,0.71413 -10.812666,0.16232 -1.891198,-0.31254 -2.390753,-0.28184 -3.90897,0.24025 -3.052414,1.04969 -2.32716,1.9054 2.002648,2.36291 3.429438,0.36236 11.433232,0.11508 15.274935,-0.47194 z"
       id="path898"
       inkscape:connector-curvature="0" />
  </g>
</svg>
