<svg width="100" height="100" version="1.1" viewBox="0 0 100 100" xmlns="http://www.w3.org/2000/svg">
 <path d="m23.584 99.89c-20.557-0.17571-19.601-0.0808-21.507-2.1338-2.0076-2.1625-1.8766 0.51999-1.891-38.738l-0.01311-35.779 0.73356-1.4755c0.83508-1.6797 2.7103-3.1368 4.6014-3.5754 0.71347-0.16546 16.104-0.29501 35.564-0.29934 37.156-8e-3 36.066-0.057 38.394 1.7186 0.5907 0.45055 1.3776 1.4464 1.7488 2.213 0.67361 1.3915 0.67478 1.4553 0.68336 37.162 8e-3 34.976-5e-3 35.796-0.6231 37.007-0.81849 1.6044-2.5856 3.1414-4.1079 3.5731-1.4428 0.4091-26.274 0.56085-53.584 0.32744zm23.617-20.871c4.5173-1.676 7.156-4.6527 8.2544-9.3117 0.60511-2.5666 0.60196-4.995-0.0098-7.5906-0.94657-4.0158-2.8077-6.4094-6.219-7.9983-1.5135-0.70496-2.2271-0.82833-4.8198-0.83327-3.528-7e-3 -5.2716 0.52378-7.9931 2.4318-0.96046 0.67337-1.7779 1.1927-1.8165 1.1541-0.18243-0.18244 0.97294-4.9703 1.4911-6.1791 0.76185-1.7773 2.6594-3.8579 4.266-4.6776 1.8072-0.92195 5.5406-1.121 8.217-0.43811 1.1452 0.29223 2.4069 0.61216 2.8037 0.71096 0.59643 0.1485 0.80464-0.0195 1.2013-0.96877 1.1499-2.7521 0.37996-4.8651-2.2399-6.1468-1.4865-0.72727-2.3195-0.89089-5.211-1.0236-1.931-0.0886-4.2802-6.4e-4 -5.3519 0.20053-6.2996 1.1822-10.692 5.7884-12.712 13.329-0.56744 2.1191-0.69036 3.5056-0.70998 8.0087-0.02666 6.1202 0.51839 9.01 2.4039 12.745 1.8607 3.6859 5.6629 6.5698 9.5644 7.2542 2.5677 0.45043 6.7076 0.13967 8.8808-0.66662zm-8.08-6.8108c-2.0581-0.91475-3.2697-3.0885-3.5813-6.4255-0.26437-2.8311-0.01544-3.5302 1.5926-4.4725 3.2243-1.8895 6.3724-1.7748 8.1928 0.2985 2.4796 2.8241 1.9903 8.3576-0.91346 10.331-1.2294 0.83548-3.7295 0.96239-5.2906 0.26857zm46.931-15.581c0-38.169-0.06317-36.746 1.7951-40.414 0.55489-1.095 2.4892-3.3331 5.7068-6.6031 4.1446-4.212 4.9718-4.9135 5.5702-4.7235l0.70286 0.22308-7e-3 35.777c-7e-3 34.297-0.0319 35.83-0.60734 37.059-0.37083 0.79156-3.001 3.6681-6.8805 7.5251l-6.2801 6.2437zm9.434 6.9532c0.75137-0.98511 0.81717-1.332 0.81717-4.3078 0-2.8369 0.0989-3.4223 0.80087-4.7426 0.69813-1.313 0.80087-1.9111 0.80087-4.662 0-1.7357-0.0968-3.1558-0.21504-3.1558-0.11826 0-0.47865 0.23857-0.80087 0.53017-0.5661 0.51232-0.58598 0.25069-0.5902-7.7684-3e-3 -4.5642-0.0913-8.623-0.19754-9.0194-0.31198-1.1641-1.285-0.87442-2.1516 0.6407-0.73259 1.2807-2.3082 9.4129-4.2362 21.864-0.54744 3.5354-0.58413 7.3909-0.08393 8.8257l0.37397 1.0727 1.8632-2.0661 1.8632-2.0661 9e-3 1.7619c0.011 2.2093 0.32467 4.1645 0.66805 4.1645 0.14417 0 0.62986-0.48212 1.0793-1.0714zm-3.3474-11.222c0-0.79322 1.6261-10.902 1.7781-11.054 0.0792-0.0792 0.14399 1.9873 0.14399 4.5922v4.7362l-0.96105 1.0946c-0.54723 0.62326-0.96105 0.8951-0.96105 0.63135zm-77.685-44.685c5.2811-5.238 6.6884-6.4617 8.0087-6.9631 1.5315-0.58167 3.101-0.61215 35.801-0.69545 18.81-0.0479 34.883 0.027 35.719 0.16644 1.2586 0.21004 1.5376 0.38224 1.6263 1.0036 0.086 0.60274-0.81043 1.6525-4.565 5.3461-5.0766 4.9941-6.5326 6.0273-9.7512 6.9198-1.9914 0.55219-4.1886 0.58612-37.68 0.58191l-35.566-4e-3zm40.524 3.6517c5.2105-0.79616 8.9698-2.5294 8.9698-4.1356 0-1.3269-5.3332-2.3513-10.404-1.9985l-2.8759 0.20008 0.7215-0.72246c0.6951-0.69603 0.98408-0.72832 7.899-0.88263 6.5343-0.14582 7.2544-0.21759 8.0346-0.80088 0.47136-0.35237 0.87785-0.78484 0.90331-0.96104 0.06678-0.46228-18.054-0.59117-20.212-0.14376-1.6461 0.3412-4.1852 1.8208-6.4907 3.7822-0.90084 0.76642-1.0427 1.0345-0.72176 1.3637 0.60302 0.61861 3.4787 0.82337 6.9456 0.49453 4.8174-0.45695 7.4592 0.39682 4.6749 1.5109-1.563 0.6254-7.4736 0.71413-10.813 0.16232-1.8912-0.31254-2.3908-0.28184-3.909 0.24025-3.0524 1.0497-2.3272 1.9054 2.0026 2.3629 3.4294 0.36236 11.433 0.11508 15.275-0.47194z"/>
</svg>
