<?xml version="1.0" encoding="UTF-8" standalone="no"?>
<!-- Created with Inkscape (http://www.inkscape.org/) -->

<svg
   xmlns:dc="http://purl.org/dc/elements/1.1/"
   xmlns:cc="http://creativecommons.org/ns#"
   xmlns:rdf="http://www.w3.org/1999/02/22-rdf-syntax-ns#"
   xmlns:svg="http://www.w3.org/2000/svg"
   xmlns="http://www.w3.org/2000/svg"
   xmlns:sodipodi="http://sodipodi.sourceforge.net/DTD/sodipodi-0.dtd"
   xmlns:inkscape="http://www.inkscape.org/namespaces/inkscape"
   width="100mm"
   height="100mm"
   viewBox="0 0 100 100"
   version="1.1"
   id="svg8"
   inkscape:version="0.92.4 (5da689c313, 2019-01-14)"
   sodipodi:docname="d8.svg">
  <defs
     id="defs2" />
  <sodipodi:namedview
     id="base"
     pagecolor="#ffffff"
     bordercolor="#666666"
     borderopacity="1.0"
     inkscape:pageopacity="0.0"
     inkscape:pageshadow="2"
     inkscape:zoom="1.4"
     inkscape:cx="180.03323"
     inkscape:cy="252.98716"
     inkscape:document-units="mm"
     inkscape:current-layer="layer1"
     showgrid="false"
     inkscape:window-width="1366"
     inkscape:window-height="715"
     inkscape:window-x="-8"
     inkscape:window-y="-8"
     inkscape:window-maximized="1" />
  <metadata
     id="metadata5">
    <rdf:RDF>
      <cc:Work
         rdf:about="">
        <dc:format>image/svg+xml</dc:format>
        <dc:type
           rdf:resource="http://purl.org/dc/dcmitype/StillImage" />
        <dc:title></dc:title>
      </cc:Work>
    </rdf:RDF>
  </metadata>
  <g
     inkscape:label="Layer 1"
     inkscape:groupmode="layer"
     id="layer1"
     transform="translate(0,-197)">
    <path
       style="fill:#000000;stroke-width:0.25240418"
       d="m 49.085861,296.8995 c -0.432602,-0.10463 -1.454839,-0.59407 -2.271637,-1.08763 -0.816794,-0.49357 -3.359182,-1.97229 -5.649749,-3.28604 -2.290567,-1.31376 -4.562203,-2.61965 -5.048082,-2.90198 -0.485878,-0.28233 -4.972361,-2.86832 -9.96996,-5.74666 -13.048935,-7.51545 -15.619126,-9.0113 -15.888837,-9.24728 -0.131881,-0.11538 17.751579,-0.20979 39.741022,-0.20979 24.319279,0 39.886872,0.0909 39.741025,0.23203 -0.131879,0.12762 -3.136124,1.89911 -6.676091,3.93665 -3.539967,2.03755 -7.458541,4.29948 -8.707941,5.0265 -1.2494,0.72702 -4.316109,2.49438 -6.81491,3.92744 -2.498801,1.43308 -5.735882,3.30865 -7.193516,4.16796 -5.489922,3.23642 -8.984977,5.12455 -9.717557,5.2497 -0.416467,0.0711 -1.111161,0.0438 -1.543767,-0.0609 z m 9.438333,-6.46603 c 0.61184,-0.42854 0.752394,-1.55422 0.299687,-2.40012 -0.244224,-0.45633 -0.573841,-0.48821 -5.048082,-0.48821 -2.632739,0 -4.786798,-0.0511 -4.786798,-0.11349 0,-0.0624 1.590146,-2.17342 3.533658,-4.69111 4.095652,-5.30563 4.263022,-5.81127 2.207796,-6.67 -0.555448,-0.23208 -1.689109,-0.3884 -2.81681,-0.3884 h -1.887246 l -0.960404,1.37044 c -0.528223,0.75374 -1.528317,2.18853 -2.222429,3.18844 -0.69411,0.9999 -2.19907,3.12813 -3.344353,4.72937 -1.722913,2.40884 -2.082334,3.07519 -2.082334,3.86055 0,0.7248 0.157223,1.07287 0.66505,1.47233 0.639401,0.50295 0.958428,0.52312 8.273172,0.52312 6.477438,0 7.691493,-0.0584 8.169093,-0.39292 z M 7.2114625,271.13132 c -0.1607731,-0.26014 0.052146,-0.67208 2.5400447,-4.91433 1.6899898,-2.8817 9.2993528,-16.06372 11.2918428,-19.56133 0.830372,-1.45763 2.305263,-4.01323 3.277536,-5.67909 3.016164,-5.16782 4.290647,-7.37015 7.887535,-13.62984 3.340965,-5.81428 8.587574,-14.90485 11.362631,-19.68752 0.724941,-1.2494 2.424054,-4.17922 3.775808,-6.51071 1.351753,-2.33149 2.586575,-4.19787 2.744047,-4.14751 0.157474,0.0504 1.295774,1.84437 2.529554,3.98668 1.23378,2.1423 3.690934,6.3939 5.460339,9.44799 1.76941,3.05409 5.799035,10.03937 8.954729,15.52285 3.155695,5.48349 5.954733,10.31072 6.220085,10.72718 0.265352,0.41647 1.879325,3.19923 3.586609,6.18391 1.707283,2.98468 4.222781,7.35758 5.589993,9.71756 8.910687,15.38096 10.523939,18.26848 10.357219,18.53824 -0.227815,0.36862 -85.3501778,0.3745 -85.5779725,0.006 z M 53.972485,259.42231 c 2.965708,-0.78952 5.222702,-2.49273 6.194036,-4.67426 0.63914,-1.43546 0.826931,-3.79731 0.447321,-5.62589 -0.339688,-1.63627 -1.561035,-3.46554 -3.07338,-4.60312 l -0.973313,-0.73213 1.086976,-1.04151 c 1.68075,-1.61044 2.306981,-3.12417 2.298053,-5.5549 -0.0061,-1.67761 -0.119513,-2.23545 -0.670009,-3.29727 -0.688925,-1.32881 -2.170156,-2.8412 -3.411272,-3.48301 -2.154872,-1.11432 -6.705052,-1.51396 -9.317546,-0.81837 -2.770583,0.7377 -4.731836,2.22421 -5.955236,4.51371 -0.481998,0.90204 -0.569459,1.45336 -0.569459,3.58975 0,2.88574 0.365683,3.85712 2.095475,5.56625 l 0.991864,0.98003 -1.215451,1.09279 c -0.689636,0.62004 -1.520728,1.71548 -1.92111,2.53216 -0.597933,1.21963 -0.704211,1.74762 -0.696177,3.4586 0.01923,4.09328 2.352071,6.88372 6.74367,8.06643 1.726786,0.46505 6.248451,0.48255 7.945558,0.0308 z m -6.170149,-5.43671 c -1.050521,-0.64054 -1.589779,-1.71843 -1.589779,-3.17769 0,-1.5533 0.622105,-2.79365 1.788227,-3.56536 1.956851,-1.29498 3.644323,-0.94652 5.182543,1.07018 0.595139,0.78028 0.719141,1.18957 0.719141,2.37376 0,1.63945 -0.468129,2.54337 -1.709028,3.3 -1.094017,0.66706 -3.296357,0.66661 -4.391104,-0.001 z m 0.228242,-13.27618 c -1.267186,-1.08466 -1.718024,-2.39417 -1.325778,-3.85086 0.601885,-2.23523 3.259085,-3.17961 5.259147,-1.86911 1.992384,1.30545 1.660084,4.78461 -0.577108,6.04226 -1.416059,0.79604 -2.129816,0.72751 -3.356261,-0.32229 z M 5.5755,244.67686 c 0,-21.35695 0.01964,-22.31059 0.47795,-23.20857 0.6325925,-1.23946 0.9893593,-1.53394 3.8129196,-3.14724 3.8834414,-2.21888 8.7270744,-5.00883 12.2415974,-7.05119 1.80469,-1.04874 5.155353,-2.98529 7.445921,-4.30345 2.290566,-1.31816 6.379512,-3.67745 9.086546,-5.24286 2.707034,-1.56541 5.407962,-3.12629 6.002063,-3.46862 l 1.080184,-0.62241 -2.239438,3.87753 c -1.231692,2.13264 -3.579125,6.20595 -5.216519,9.05181 -1.637392,2.84586 -3.74195,6.48048 -4.676795,8.07694 -1.524427,2.6033 -4.697781,8.10187 -11.726303,20.31853 -1.277882,2.22116 -3.836745,6.65086 -5.686363,9.84376 -3.276436,5.65597 -5.329308,9.21771 -8.583177,14.89186 -0.8756934,1.52703 -1.6881128,2.88434 -1.805377,3.01622 C 5.6714437,266.84105 5.5755,256.92651 5.5755,244.67686 Z m 13.756022,-14.1698 c 5.409658,-4.62288 5.77634,-4.99413 6.463823,-6.54429 0.83392,-1.88035 0.873966,-3.62538 0.140986,-6.14358 -0.353451,-1.21429 -0.713035,-2.32172 -0.799075,-2.46094 -0.568726,-0.92022 -2.526219,0.53112 -3.278399,2.43069 -0.375852,0.94918 -0.378323,1.17623 -0.02743,2.51996 0.212105,0.81224 0.304305,1.54938 0.204889,1.63811 -0.870462,0.77678 -7.360051,6.42107 -8.478295,7.37394 -2.225124,1.89607 -2.886768,3.60432 -2.563874,6.61946 l 0.176019,1.64364 1.682837,-1.4894 c 0.925562,-0.81917 3.840893,-3.33358 6.478515,-5.58759 z m 68.664464,25.41215 c -3.464745,-5.9973 -7.681849,-13.2894 -9.371341,-16.20467 -3.076084,-5.30787 -14.865088,-25.72365 -15.813847,-27.38585 -0.277332,-0.48588 -2.251289,-3.90849 -4.386574,-7.6058 -2.135283,-3.6973 -3.882333,-6.78113 -3.882333,-6.85293 0,-0.12093 8.522921,4.76667 25.871417,14.83637 3.887024,2.25617 8.373511,4.83552 9.969958,5.73188 2.570284,1.44313 2.967834,1.75864 3.471942,2.7555 l 0.569292,1.12576 -0.06453,22.25196 -0.06443,22.25196 z m 1.993316,-17.1854 c 0.447062,-0.5986 0.533038,-1.14625 0.611678,-3.89635 0.108712,-3.80117 -0.216952,-5.92722 -1.368472,-8.93405 -1.382881,-3.61097 -3.855163,-6.84983 -6.001044,-7.86177 -2.236712,-1.05479 -3.072775,0.14056 -3.065759,4.38322 l 0.0048,2.90264 -1.077515,-1.16199 -1.077516,-1.162 v -3.71121 c 0,-4.73894 -0.241342,-5.71456 -1.798904,-7.27213 -2.070047,-2.07004 -2.045091,-2.13476 -1.946656,5.04719 l 0.0857,6.25309 0.807883,1.63454 c 1.012243,2.048 6.924418,8.33859 7.828077,8.32911 0.810664,-0.008 1.165522,-0.86532 0.984623,-2.3774 -0.414535,-3.46499 -0.461639,-4.19464 -0.309838,-4.79947 0.215405,-0.85824 0.893015,-0.84223 1.718998,0.0406 1.132109,1.21002 1.546086,2.33354 1.665246,4.5194 0.111853,2.05183 -0.0013,2.52893 -0.957904,4.039 -0.693581,1.09486 1.979587,5.18381 3.139393,4.80211 0.130376,-0.0429 0.471131,-0.39144 0.757215,-0.77452 z"
       id="path911"
       inkscape:connector-curvature="0" />
  </g>
</svg>
