<?xml version="1.0" encoding="UTF-8" standalone="no"?>
<svg
   xmlns:dc="http://purl.org/dc/elements/1.1/"
   xmlns:cc="http://creativecommons.org/ns#"
   xmlns:rdf="http://www.w3.org/1999/02/22-rdf-syntax-ns#"
   xmlns:svg="http://www.w3.org/2000/svg"
   xmlns="http://www.w3.org/2000/svg"
   xmlns:sodipodi="http://sodipodi.sourceforge.net/DTD/sodipodi-0.dtd"
   xmlns:inkscape="http://www.inkscape.org/namespaces/inkscape"
   aria-hidden="true"
   focusable="false"
   data-prefix="fas"
   data-icon="dice"
   class="svg-inline--fa fa-dice fa-w-20"
   role="img"
   viewBox="0 0 120 100"
   version="1.1"
   id="svg4"
   sodipodi:docname="roll-dice.svg"
   width="120mm"
   height="100mm"
   inkscape:version="1.0.2-2 (e86c870879, 2021-01-15)">
  <metadata
     id="metadata10">
    <rdf:RDF>
      <cc:Work
         rdf:about="">
        <dc:format>image/svg+xml</dc:format>
        <dc:type
           rdf:resource="http://purl.org/dc/dcmitype/StillImage" />
        <dc:title></dc:title>
      </cc:Work>
    </rdf:RDF>
  </metadata>
  <defs
     id="defs8" />
  <sodipodi:namedview
     pagecolor="#ffffff"
     bordercolor="#666666"
     borderopacity="1"
     objecttolerance="10"
     gridtolerance="10"
     guidetolerance="10"
     inkscape:pageopacity="0"
     inkscape:pageshadow="2"
     inkscape:window-width="1920"
     inkscape:window-height="1001"
     id="namedview6"
     showgrid="false"
     inkscape:document-units="mm"
     units="mm"
     inkscape:zoom="1.5976562"
     inkscape:cx="320"
     inkscape:cy="230.96333"
     inkscape:window-x="-9"
     inkscape:window-y="-9"
     inkscape:window-maximized="1"
     inkscape:current-layer="svg4" />
  <path
     fill="currentColor"
     d="M 102.5,40 H 83.946875 c 1.982812,4.623437 1.1125,10.1875 -2.65625,13.95625 L 60,75.246875 V 82.5 c 0,4.142187 3.357812,7.5 7.5,7.5 h 35 c 4.14219,0 7.5,-3.357813 7.5,-7.5 v -35 C 110,43.357812 106.64219,40 102.5,40 Z M 85,68.75 c -2.070313,0 -3.75,-1.679688 -3.75,-3.75 0,-2.071875 1.679687,-3.75 3.75,-3.75 2.070312,0 3.75,1.678125 3.75,3.75 0,2.070312 -1.679688,3.75 -3.75,3.75 z M 77.754687,39.578125 50.421875,12.245313 c -2.99375,-2.9937505 -7.848438,-2.9937505 -10.842188,0 L 12.245313,39.578125 c -2.9937505,2.99375 -2.9937505,7.848437 0,10.842187 l 27.332812,27.334375 c 2.99375,2.99375 7.848437,2.99375 10.842187,0 L 77.754687,50.421875 c 2.99375,-2.995313 2.99375,-7.85 0,-10.84375 z M 25,48.75 c -2.070313,0 -3.75,-1.679688 -3.75,-3.75 0,-2.071875 1.679687,-3.75 3.75,-3.75 2.070312,0 3.75,1.678125 3.75,3.75 0,2.070312 -1.679688,3.75 -3.75,3.75 z m 20,20 c -2.070313,0 -3.75,-1.679688 -3.75,-3.75 0,-2.071875 1.679687,-3.75 3.75,-3.75 2.070312,0 3.75,1.678125 3.75,3.75 0,2.070312 -1.679688,3.75 -3.75,3.75 z m 0,-20 c -2.070313,0 -3.75,-1.679688 -3.75,-3.75 0,-2.071875 1.679687,-3.75 3.75,-3.75 2.070312,0 3.75,1.678125 3.75,3.75 0,2.070312 -1.679688,3.75 -3.75,3.75 z m 0,-20 c -2.070313,0 -3.75,-1.679688 -3.75,-3.75 0,-2.071875 1.679687,-3.75 3.75,-3.75 2.070312,0 3.75,1.678125 3.75,3.75 0,2.070312 -1.679688,3.75 -3.75,3.75 z m 20,20 c -2.070313,0 -3.75,-1.679688 -3.75,-3.75 0,-2.071875 1.679687,-3.75 3.75,-3.75 2.070312,0 3.75,1.678125 3.75,3.75 0,2.070312 -1.679688,3.75 -3.75,3.75 z"
     id="path2"
     style="stroke-width:0.15625" />
</svg>
