<svg width="100" height="100" version="1.1" viewBox="0 0 100 100" xmlns="http://www.w3.org/2000/svg">
 <path d="m92.5 40h-18.553c1.9828 4.6234 1.1125 10.188-2.6562 13.956l-21.291 21.291v7.2531c0 4.1422 3.3578 7.5 7.5 7.5h35c4.1422 0 7.5-3.3578 7.5-7.5v-35c0-4.1422-3.3578-7.5-7.5-7.5zm-17.5 28.75c-2.0703 0-3.75-1.6797-3.75-3.75 0-2.0719 1.6797-3.75 3.75-3.75 2.0703 0 3.75 1.6781 3.75 3.75 0 2.0703-1.6797 3.75-3.75 3.75zm-7.2453-29.172-27.333-27.333c-2.9938-2.9938-7.8484-2.9938-10.842 0l-27.334 27.333c-2.9938 2.9938-2.9938 7.8484 0 10.842l27.333 27.334c2.9938 2.9938 7.8484 2.9938 10.842 0l27.334-27.333c2.9938-2.9953 2.9938-7.85 0-10.844zm-52.755 9.1719c-2.0703 0-3.75-1.6797-3.75-3.75 0-2.0719 1.6797-3.75 3.75-3.75 2.0703 0 3.75 1.6781 3.75 3.75 0 2.0703-1.6797 3.75-3.75 3.75zm20 20c-2.0703 0-3.75-1.6797-3.75-3.75 0-2.0719 1.6797-3.75 3.75-3.75 2.0703 0 3.75 1.6781 3.75 3.75 0 2.0703-1.6797 3.75-3.75 3.75zm0-20c-2.0703 0-3.75-1.6797-3.75-3.75 0-2.0719 1.6797-3.75 3.75-3.75 2.0703 0 3.75 1.6781 3.75 3.75 0 2.0703-1.6797 3.75-3.75 3.75zm0-20c-2.0703 0-3.75-1.6797-3.75-3.75 0-2.0719 1.6797-3.75 3.75-3.75 2.0703 0 3.75 1.6781 3.75 3.75 0 2.0703-1.6797 3.75-3.75 3.75zm20 20c-2.0703 0-3.75-1.6797-3.75-3.75 0-2.0719 1.6797-3.75 3.75-3.75 2.0703 0 3.75 1.6781 3.75 3.75 0 2.0703-1.6797 3.75-3.75 3.75z"/>
</svg>
