<?xml version="1.0" encoding="UTF-8" standalone="no"?>
<!-- Created with Inkscape (http://www.inkscape.org/) -->

<svg
   xmlns:dc="http://purl.org/dc/elements/1.1/"
   xmlns:cc="http://creativecommons.org/ns#"
   xmlns:rdf="http://www.w3.org/1999/02/22-rdf-syntax-ns#"
   xmlns:svg="http://www.w3.org/2000/svg"
   xmlns="http://www.w3.org/2000/svg"
   xmlns:sodipodi="http://sodipodi.sourceforge.net/DTD/sodipodi-0.dtd"
   xmlns:inkscape="http://www.inkscape.org/namespaces/inkscape"
   width="100mm"
   height="100mm"
   viewBox="0 0 100 100"
   version="1.1"
   id="svg8"
   inkscape:version="0.92.4 (5da689c313, 2019-01-14)"
   sodipodi:docname="cone-1.svg">
  <defs
     id="defs2" />
  <sodipodi:namedview
     id="base"
     pagecolor="#ffffff"
     bordercolor="#666666"
     borderopacity="1.0"
     inkscape:pageopacity="0.0"
     inkscape:pageshadow="2"
     inkscape:zoom="1.4"
     inkscape:cx="170.37336"
     inkscape:cy="188.57143"
     inkscape:document-units="mm"
     inkscape:current-layer="layer1"
     showgrid="false"
     inkscape:window-width="1366"
     inkscape:window-height="715"
     inkscape:window-x="-8"
     inkscape:window-y="-8"
     inkscape:window-maximized="1" />
  <metadata
     id="metadata5">
    <rdf:RDF>
      <cc:Work
         rdf:about="">
        <dc:format>image/svg+xml</dc:format>
        <dc:type
           rdf:resource="http://purl.org/dc/dcmitype/StillImage" />
        <dc:title></dc:title>
      </cc:Work>
    </rdf:RDF>
  </metadata>
  <g
     inkscape:label="Layer 1"
     inkscape:groupmode="layer"
     id="layer1"
     transform="translate(0,-197)">
    <path
       style="fill:#000000;stroke-width:0.21010478"
       d="m 84.798979,285.66851 c -1.117207,-0.51544 -2.366141,-1.06527 -11.975972,-5.2722 -3.351172,-1.46706 -6.613048,-2.90168 -7.248616,-3.18804 -2.018167,-0.9093 -2.308978,-1.03813 -7.983982,-3.53698 -3.062277,-1.34839 -7.127804,-3.14145 -9.034505,-3.98457 -3.206196,-1.41775 -8.07152,-3.55593 -9.559768,-4.20128 -0.346672,-0.15032 -1.575785,-0.70085 -2.731362,-1.22341 -2.592687,-1.1724 -11.191756,-4.96325 -11.765868,-5.18689 -0.231115,-0.09 -0.940218,-0.40064 -1.575785,-0.69023 -1.835144,-0.83617 -15.6431013,-6.93112 -19.6447974,-8.67138 -1.2711346,-0.55279 -2.52388434,-1.19456 -2.78388902,-1.42616 -0.65924611,-0.58721 -0.65924611,-1.99544 0,-2.59668 0.26000468,-0.23712 2.41095312,-1.28517 4.77988412,-2.32898 7.3454563,-3.23661 15.2202833,-6.71191 20.6205153,-9.10021 2.847799,-1.25946 5.227437,-2.28994 5.288084,-2.28994 0.06065,0 0.99251,-0.41406 2.0708,-0.92015 1.86372,-0.8747 6.374324,-2.87717 14.041558,-6.23371 5.991946,-2.62313 6.922239,-3.03332 11.765867,-5.18786 2.600046,-1.15656 5.861924,-2.60085 7.248616,-3.20954 1.38669,-0.6087 2.993992,-1.31765 3.57178,-1.57545 0.577788,-0.25779 1.854175,-0.82139 2.836415,-1.25243 2.007291,-0.88089 2.746368,-1.20665 8.815432,-3.88563 4.16215,-1.83725 4.347897,-1.89729 5.869126,-1.89729 2.05622,0 2.992415,0.45867 4.693403,2.29946 4.718456,5.10625 7.559227,17.49695 7.876578,34.35552 0.402427,21.37889 -3.6413,37.85796 -10.12789,41.27328 -1.19781,0.63069 -3.59999,0.5977 -5.045624,-0.0693 z m 3.908768,-3.50189 c 0.786975,-0.55394 1.517663,-1.57867 2.474418,-3.47021 2.286076,-4.51962 3.897725,-11.28433 4.899904,-20.56679 0.600309,-5.5602 0.648544,-16.24826 0.09721,-21.53575 -1.2187,-11.68735 -3.720107,-20.6753 -6.694502,-24.05439 -1.333026,-1.5144 -2.584706,-1.68872 -3.652619,-0.50869 -0.199601,0.22056 -0.58271,0.40101 -0.851357,0.40101 -0.589228,0 -2.177789,0.61091 -2.177789,0.83751 0,0.0888 0.141821,0.27927 0.315157,0.42312 0.468829,0.38909 0.384118,1.83903 -0.177983,3.04653 -0.268968,0.57779 -0.657836,1.57054 -0.864148,2.2061 -0.688621,2.12136 -2.065265,2.91936 -3.198948,1.85432 -0.724333,-0.68048 -0.646945,-2.13979 0.232041,-4.37558 0.38616,-0.98225 0.680549,-1.8109 0.654197,-1.84145 -0.0445,-0.0516 -3.324267,1.37575 -13.87375,6.03783 -11.89133,5.25508 -17.564322,7.75967 -20.800374,9.18323 -1.96448,0.86419 -3.855423,1.69737 -4.202095,1.85151 -0.346673,0.15414 -2.28489,1.00665 -4.307148,1.89447 -2.022259,0.88783 -4.055023,1.78609 -4.517254,1.99614 -0.46223,0.21005 -1.265881,0.569 -1.78589,0.79767 -0.520009,0.22866 -4.63281,2.04413 -9.139559,4.03438 -4.506747,1.99024 -9.4351,4.1658 -10.951896,4.83455 -4.4967635,1.98263 -4.4785377,1.54918 -0.145227,3.45394 5.780825,2.54105 14.76145,6.51496 15.929534,7.04878 0.577788,0.26406 2.185089,0.9746 3.571781,1.57899 1.386691,0.60439 4.93221,2.16172 7.87893,3.46074 2.94672,1.29903 6.079585,2.67396 6.961922,3.0554 0.882337,0.38144 2.111451,0.92392 2.731363,1.20551 0.619912,0.28161 4.294441,1.90825 8.165621,3.61479 3.871181,1.70652 9.024,3.97975 11.450711,5.05161 2.42671,1.07187 6.019501,2.65824 7.983982,3.52527 5.375585,2.37255 6.45966,2.85991 7.08634,3.1858 0.337399,0.17544 0.623329,0.21673 0.695241,0.10037 0.06718,-0.10869 0.467872,-0.19763 0.890424,-0.19763 0.626123,0 0.944549,0.17275 1.720964,0.93369 1.652625,1.61966 2.367114,1.80564 3.600828,0.93723 z m -8.912132,-3.29839 c -0.187623,-0.20733 -0.675012,-1.29931 -1.083088,-2.42664 -0.915876,-2.53015 -0.996909,-4.02722 -0.255677,-4.72358 0.603285,-0.56676 1.828413,-0.61423 2.300251,-0.0891 0.452965,0.50409 2.045882,5.34264 2.045882,6.21447 0,0.41752 -0.157128,0.8486 -0.384227,1.05412 -0.53611,0.48517 -2.174132,0.46693 -2.623141,-0.0292 z m -2.611403,-9.34042 c -0.462343,-0.49742 -1.314686,-4.53355 -1.314686,-6.2255 0,-1.00545 0.729923,-1.70596 1.7776,-1.70596 1.138768,0 1.522413,0.64711 1.99921,3.37214 0.56274,3.21621 0.552304,3.99906 -0.06099,4.57523 -0.65993,0.61997 -1.817224,0.61231 -2.401133,-0.0159 z m -1.481218,-9.88107 c -0.403338,-0.42933 -0.464814,-0.80976 -0.594204,-3.67712 -0.131373,-2.91133 -0.110228,-3.23588 0.23572,-3.61815 0.264234,-0.29198 0.64706,-0.41994 1.256321,-0.41994 1.154381,0 1.790186,0.63938 1.789377,1.79943 -4.2e-4,0.45478 0.106096,1.84818 0.236475,3.09642 0.233506,2.2356 0.229825,2.27723 -0.246153,2.78388 -0.659263,0.70176 -2.03448,0.71998 -2.677536,0.0355 z m -0.536271,-9.78028 c -0.292071,-0.32273 -0.347721,-0.90533 -0.347721,-3.64022 0,-3.13178 0.01855,-3.2734 0.486277,-3.71281 0.666371,-0.62603 1.815933,-0.61203 2.418567,0.0294 0.428556,0.45618 0.456833,0.68825 0.456833,3.74932 0,2.89437 -0.04341,3.30235 -0.384228,3.61078 -0.540777,0.48939 -2.174315,0.46672 -2.629728,-0.0365 z m 0.2852,-9.80309 -0.49085,-0.52248 0.246625,-3.19309 c 0.288022,-3.7291 0.398298,-3.95602 1.922456,-3.95602 1.748701,0 1.917626,0.58784 1.457716,5.07278 -0.177038,1.72641 -0.314794,2.27347 -0.66694,2.64857 -0.62702,0.66787 -1.81736,0.64389 -2.469007,-0.0498 z m 1.056385,-9.86869 c -0.440143,-0.46852 -0.471302,-0.63728 -0.336931,-1.82496 0.253929,-2.24443 0.916181,-5.03736 1.293241,-5.45401 0.535988,-0.59226 1.977932,-0.54322 2.57038,0.0874 0.504642,0.53716 0.562688,1.2229 0.225606,2.66529 -0.121525,0.52001 -0.353632,1.69225 -0.515793,2.60498 -0.356816,2.00837 -0.686983,2.43754 -1.875229,2.43754 -0.658966,0 -0.996562,-0.12803 -1.361274,-0.51625 z"
       id="path826"
       inkscape:connector-curvature="0" />
  </g>
</svg>
