<?xml version="1.0" encoding="UTF-8" standalone="no"?>
<!-- Created with Inkscape (http://www.inkscape.org/) -->

<svg
   xmlns:dc="http://purl.org/dc/elements/1.1/"
   xmlns:cc="http://creativecommons.org/ns#"
   xmlns:rdf="http://www.w3.org/1999/02/22-rdf-syntax-ns#"
   xmlns:svg="http://www.w3.org/2000/svg"
   xmlns="http://www.w3.org/2000/svg"
   xmlns:sodipodi="http://sodipodi.sourceforge.net/DTD/sodipodi-0.dtd"
   xmlns:inkscape="http://www.inkscape.org/namespaces/inkscape"
   version="1.1"
   id="svg828"
   width="100mm"
   height="100mm"
   viewBox="0 0 377.95277 377.95277"
   sodipodi:docname="cube-1.svg"
   inkscape:version="0.92.4 (5da689c313, 2019-01-14)">
  <metadata
     id="metadata834">
    <rdf:RDF>
      <cc:Work
         rdf:about="">
        <dc:format>image/svg+xml</dc:format>
        <dc:type
           rdf:resource="http://purl.org/dc/dcmitype/StillImage" />
        <dc:title></dc:title>
      </cc:Work>
    </rdf:RDF>
  </metadata>
  <defs
     id="defs832" />
  <sodipodi:namedview
     pagecolor="#ffffff"
     bordercolor="#666666"
     borderopacity="1"
     objecttolerance="10"
     gridtolerance="10"
     guidetolerance="10"
     inkscape:pageopacity="0"
     inkscape:pageshadow="2"
     inkscape:window-width="1366"
     inkscape:window-height="715"
     id="namedview830"
     showgrid="false"
     inkscape:document-units="mm"
     units="mm"
     inkscape:zoom="1.2330828"
     inkscape:cx="270.66666"
     inkscape:cy="173.34959"
     inkscape:window-x="-8"
     inkscape:window-y="-8"
     inkscape:window-maximized="1"
     inkscape:current-layer="svg828" />
  <path
     style="fill:#000000;stroke-width:0.93090767"
     d="M 2.0240871,363.69429 0,361.53975 V 225.07574 88.61174 L 4.42181,84.960201 C 6.8538025,82.95186 29.626584,65.737606 55.027987,46.706305 L 101.21235,12.103938 h 136.34398 136.34398 l 2.02719,2.157834 2.02718,2.157831 -0.23583,137.245587 -0.23583,137.24558 -47.94173,36.08985 c -26.36796,19.84941 -48.76804,36.71048 -49.77797,37.46902 -1.60262,1.20374 -19.25678,1.37919 -138.77568,1.37919 H 4.0481742 Z M 266.23956,321.27925 c 0,-25.24217 -0.20858,-29.84817 -1.39634,-30.83394 -1.81925,-1.50984 -1.81925,-7.79924 0,-9.30907 1.22361,-1.01552 1.39634,-12.31499 1.39634,-91.34293 V 99.609259 h -77.26532 -77.26533 v 11.809071 c 0,10.84344 -0.1655,11.98526 -2.02409,13.96361 -2.78693,2.96657 -6.94784,2.82588 -10.259494,-0.34688 -2.583842,-2.47549 -2.610942,-2.62041 -2.610942,-13.96363 V 99.609259 H 55.854458 14.894521 V 222.0236 344.43795 h 2.500002 c 2.65689,0 6.809073,3.22113 6.809073,5.28226 0,1.01852 21.139321,1.23409 121.017984,1.23409 H 266.23956 Z M 26.675149,345.52829 c -0.889692,-0.9831 -1.540643,-3.26589 -1.540643,-5.40283 0,-4.22012 1.669751,-6.11725 12.473349,-14.17192 5.33068,-3.97429 7.083389,-4.78828 10.310442,-4.78828 5.284021,0 8.181388,2.98914 7.765953,8.01196 -0.273766,3.31002 -0.972559,4.09237 -9.604322,10.75268 -8.424545,6.50043 -9.71552,7.18854 -13.586606,7.24187 -3.016735,0.0415 -4.731637,-0.44288 -5.818173,-1.64348 z m 32.075396,-23.78754 c -1.632331,-1.73754 -2.019887,-3.097 -1.79136,-6.28362 0.284938,-3.97303 0.511475,-4.23202 9.868479,-11.28093 8.02253,-6.04361 10.149174,-7.21453 13.10316,-7.21453 4.557729,0 7.574486,3.00994 7.574486,7.55736 0,3.75917 -2.028848,5.95433 -13.115572,14.19062 -8.167997,6.06799 -12.074833,6.82519 -15.639193,3.0311 z M 89.976862,298.052 c -0.90449,-0.99945 -1.540644,-3.27309 -1.540644,-5.50633 0,-3.3415 0.509276,-4.25222 4.189084,-7.49132 3.875246,-3.41112 4.189082,-4.02348 4.189082,-8.17361 0,-3.60025 0.494015,-5.00188 2.501441,-7.09718 4.984285,-5.20248 12.393085,-2.13624 12.393085,5.12905 0,3.35606 0.0777,3.4309 3.56136,3.4309 4.60366,0 7.60953,2.9933 7.60953,7.57773 0,4.91673 -3.03679,7.31679 -9.25791,7.31679 -4.17133,0 -5.66129,0.51188 -9.48393,3.25818 -5.327638,3.82752 -11.492289,4.50479 -14.161098,1.55579 z m 41.890848,-6.51634 c -2.16837,-2.39604 -2.0679,-9.63371 0.16175,-11.65149 1.43474,-1.29844 4.04356,-1.54066 16.59406,-1.54066 14.36246,0 14.96361,0.0765 16.91577,2.15455 2.7737,2.95247 2.7117,8.04581 -0.13047,10.71589 -2.02714,1.9044 -3.03696,2.02408 -17.0775,2.02408 -13.27489,0 -15.09312,-0.18801 -16.46361,-1.70237 z m 44.68356,0 c -2.16836,-2.39604 -2.06789,-9.63371 0.16175,-11.65149 1.43493,-1.29861 4.04481,-1.54066 16.61206,-1.54066 17.23532,0 17.99095,0.31959 17.99095,7.60902 0,6.92604 -0.90363,7.2855 -18.31446,7.2855 -13.26199,0 -15.07992,-0.18813 -16.4503,-1.70237 z m 44.23609,-0.45217 c -2.7737,-2.95247 -2.71169,-8.04583 0.13046,-10.71589 2.02094,-1.89858 3.04988,-2.02409 16.59407,-2.02409 13.88984,0 14.51658,0.082 16.46361,2.15455 2.6035,2.77129 2.78165,8.97311 0.3217,11.19933 -1.43475,1.29843 -4.04357,1.54064 -16.59407,1.54064 -14.36245,0 -14.9636,-0.0765 -16.91577,-2.15454 z M 98.838472,258.50174 c -1.9044,-2.02715 -2.024088,-3.03697 -2.024088,-17.07752 0,-17.25018 0.318696,-18.00426 7.609016,-18.00426 6.92491,0 7.28551,0.90562 7.28551,18.29646 0,14.36247 -0.0766,14.96361 -2.15454,16.91576 -2.95247,2.77371 -8.04582,2.7117 -10.715898,-0.13044 z m 0,-44.68357 c -1.89858,-2.02095 -2.024088,-3.04988 -2.024088,-16.59407 0,-13.88983 0.082,-14.51658 2.154546,-16.46361 2.7713,-2.60351 8.97311,-2.78165 11.19935,-0.32171 1.29842,1.43476 1.54063,4.04359 1.54063,16.59408 0,14.36246 -0.0766,14.9636 -2.15454,16.91575 -2.95247,2.77372 -8.04582,2.71172 -10.715898,-0.13044 z m 0,-44.68356 c -1.89858,-2.02095 -2.024088,-3.04989 -2.024088,-16.59408 0,-13.88983 0.082,-14.51658 2.154546,-16.46361 2.95247,-2.77371 8.04582,-2.7117 10.71589,0.13046 1.9044,2.02713 2.02409,3.03697 2.02409,17.07751 0,13.27488 -0.18801,15.09311 -1.70239,16.46361 -2.59832,2.35145 -8.6972,2.01619 -11.168048,-0.61389 z m 219.299198,146.18825 34.6763,-26.00451 v -3.78504 c 0,-4.97647 2.05043,-7.1898 6.66064,-7.1898 h 3.57935 V 157.32554 c 0,-66.55991 -0.20584,-121.018005 -0.45743,-121.018005 -0.25157,0 -13.34245,9.671031 -29.09086,21.49118 -15.74839,11.82015 -33.97452,25.470697 -40.5025,30.334545 l -11.86908,8.84337 v 90.68344 90.68344 h 7.62 c 6.5424,0 7.92467,0.28624 9.77453,2.02409 2.84214,2.67006 2.90415,7.76342 0.13045,10.71589 -1.80142,1.91752 -2.87672,2.15454 -9.77453,2.15454 h -7.75045 v 24.724 c 0,19.5209 0.24489,24.58102 1.16363,24.04465 0.64001,-0.37363 16.76799,-12.38136 35.83995,-26.68382 z m -8.46662,-23.7872 c -2.16836,-2.39604 -2.06788,-9.63371 0.16175,-11.65149 1.43569,-1.2993 4.05015,-1.54066 16.68878,-1.54066 h 14.98637 l 1.92938,2.45281 c 2.60196,3.30785 2.50371,7.854 -0.22515,10.41763 -2.02715,1.9044 -3.03696,2.02408 -17.07751,2.02408 -13.27489,0 -15.09312,-0.18801 -16.46362,-1.70237 z M 281.97749,76.103833 c 6.28106,-4.735992 12.33722,-9.239256 13.4581,-10.007255 2.50544,-1.716651 50.051,-37.250164 51.28095,-38.325163 0.48639,-0.425126 -52.19134,-0.772956 -117.06164,-0.772956 H 111.70891 v 3.883056 c 0,2.30686 -0.62538,4.574085 -1.54063,5.585446 -1.97204,2.179074 -8.37032,2.288733 -10.696745,0.183334 -1.826979,-1.653395 -1.222566,-1.905077 -9.236797,3.846324 -3.043634,2.184262 -41.543479,31.086196 -51.772023,38.865392 l -7.03807,5.352719 H 150.99099 270.55733 Z M 98.838472,80.698375 c -1.89858,-2.020947 -2.024088,-3.049879 -2.024088,-16.594067 0,-13.889833 0.082,-14.51658 2.154546,-16.463612 2.7713,-2.603498 8.97311,-2.781643 11.19935,-0.321697 1.29842,1.434749 1.54063,4.04357 1.54063,16.594067 0,14.362459 -0.0766,14.963608 -2.15454,16.915763 -2.95247,2.773708 -8.04582,2.711703 -10.715898,-0.130454 z"
     id="path1381"
     inkscape:connector-curvature="0" />
</svg>
