<?xml version="1.0" encoding="UTF-8" standalone="no"?>
<!-- Created with Inkscape (http://www.inkscape.org/) -->

<svg
   xmlns:dc="http://purl.org/dc/elements/1.1/"
   xmlns:cc="http://creativecommons.org/ns#"
   xmlns:rdf="http://www.w3.org/1999/02/22-rdf-syntax-ns#"
   xmlns:svg="http://www.w3.org/2000/svg"
   xmlns="http://www.w3.org/2000/svg"
   xmlns:sodipodi="http://sodipodi.sourceforge.net/DTD/sodipodi-0.dtd"
   xmlns:inkscape="http://www.inkscape.org/namespaces/inkscape"
   version="1.1"
   id="svg1936"
   width="100mm"
   height="100mm"
   viewBox="0 0 377.95276 377.95276"
   sodipodi:docname="cylinder-1.svg"
   inkscape:version="0.92.4 (5da689c313, 2019-01-14)">
  <metadata
     id="metadata1942">
    <rdf:RDF>
      <cc:Work
         rdf:about="">
        <dc:format>image/svg+xml</dc:format>
        <dc:type
           rdf:resource="http://purl.org/dc/dcmitype/StillImage" />
        <dc:title></dc:title>
      </cc:Work>
    </rdf:RDF>
  </metadata>
  <defs
     id="defs1940" />
  <sodipodi:namedview
     pagecolor="#ffffff"
     bordercolor="#666666"
     borderopacity="1"
     objecttolerance="10"
     gridtolerance="10"
     guidetolerance="10"
     inkscape:pageopacity="0"
     inkscape:pageshadow="2"
     inkscape:window-width="1366"
     inkscape:window-height="715"
     id="namedview1938"
     showgrid="false"
     inkscape:document-units="mm"
     units="mm"
     inkscape:zoom="1.1721855"
     inkscape:cx="189.75324"
     inkscape:cy="189.14731"
     inkscape:window-x="-8"
     inkscape:window-y="-8"
     inkscape:window-maximized="1"
     inkscape:current-layer="svg1936" />
  <path
     style="fill:#000000;stroke-width:1.24958813"
     d="m 139.2234,376.60004 c -2.06182,-0.23684 -9.93423,-1.03331 -17.49424,-1.76993 C 63.521294,369.15846 20.255754,354.31584 4.706764,334.68456 L 0.51911847,329.39749 0.19061088,190.86501 C -0.18115056,34.097782 -1.1435087,48.390057 10.500642,37.747943 29.094466,20.754215 65.463535,9.7509639 125.47793,2.962233 c 26.76121,-3.02718568 98.30881,-2.98913801 126.2084,0.067116 59.61389,6.5303887 97.62398,18.2104629 115.04007,35.3505139 3.87683,3.815401 9.34127,8.819012 10.30231,11.119138 1.04594,12.433865 1.1057,272.536749 0.66499,279.524629 -2.47006,5.89488 -18.67844,18.41986 -27.96631,22.96965 -23.24148,11.38515 -56.64235,19.16196 -101.02769,23.52248 -13.58885,1.335 -31.92022,1.83441 -62.4794,1.70211 -23.78646,-0.10296 -44.93507,-0.38099 -46.99688,-0.61783 z m 93.85004,-20.46135 c 45.11702,-3.56421 84.09073,-12.32401 107.67632,-24.20154 8.87618,-4.47 15.27717,-10.49275 15.27717,-14.37444 0,-2.78866 -5.20789,-7.54299 -13.12067,-11.97798 -3.43637,-1.92604 -7.23199,-4.35446 -8.43472,-5.39651 -2.85092,-2.47004 -2.92314,-11.11833 -0.1187,-14.21719 2.90704,-3.21226 13.44914,-3.10031 18.86254,0.2003 l 4.06116,2.47615 v -99.342 -99.342033 l -7.80992,3.947289 C 309.3029,114.21026 221.75688,124.31594 139.84819,118.10761 109.94866,115.84134 100.36206,114.57424 77.993581,109.93201 58.350683,105.85545 39.347236,99.802687 27.697662,93.912357 l -7.809926,-3.94891 v 99.610303 c 0,77.47469 0.333221,99.27708 1.499507,98.1108 2.483911,-2.48392 9.895746,-1.79521 13.102611,1.21749 2.143153,2.01338 2.892117,4.09218 2.892117,8.0273 0,4.4843 -0.603916,5.76238 -3.882652,8.21689 -7.637648,5.7177 -12.361993,10.82062 -12.361993,13.35261 0,7.77342 24.360613,19.82841 55.606667,27.51729 18.282489,4.49885 42.260427,8.2026 64.978587,10.03689 18.50362,1.494 72.87822,1.545 91.35086,0.0857 z M 47.066281,292.77215 c -2.189413,-2.29359 -3.436375,-4.96392 -3.436375,-7.35889 0,-6.33301 5.102306,-9.85087 19.595072,-13.51018 22.216872,-5.60959 29.138866,-4.09479 29.138866,6.37674 0,7.07556 -2.671164,8.93315 -19.059831,13.25458 -20.719012,5.46331 -22.140119,5.53036 -26.237732,1.23775 z m 249.866319,-2.8226 c -10.39606,-2.4168 -15.63859,-4.27513 -17.80662,-6.31189 -4.11769,-3.86838 -4.1093,-9.78861 0.0194,-13.66732 2.893,-2.71783 3.75789,-2.85294 13.43307,-2.09849 12.19555,0.95094 26.32028,4.62435 29.76368,7.7406 3.59455,3.25303 3.34601,11.78978 -0.44699,15.35313 -3.63057,3.41077 -6.40651,3.29777 -24.96252,-1.01603 z m -193.10464,-9.1558 c -3.82609,-4.07269 -3.64104,-10.79924 0.40157,-14.59708 2.74305,-2.57696 5.37172,-3.15729 21.82988,-4.81937 17.88024,-1.80569 18.824,-1.78763 21.2484,0.40642 1.86272,1.68574 2.53709,3.85381 2.53709,8.15664 0,8.63791 -1.78285,9.6895 -20.10637,11.85954 -20.97637,2.48422 -22.69421,2.41751 -25.91057,-1.00615 z m 131.47923,-0.11508 c -6.94669,-0.7515 -13.55388,-2.13812 -14.68265,-3.08136 -3.057,-2.55457 -2.78734,-12.85234 0.41238,-15.74805 2.27148,-2.05564 3.98599,-2.13478 21.87061,-1.00958 22.85352,1.4378 24.39866,2.17241 24.39866,11.59987 0,10.47962 -3.33949,11.33946 -31.999,8.2391 z m -73.39753,-4.27634 c -2.91067,-3.21625 -2.7758,-12.93165 0.21711,-15.6402 1.92616,-1.74317 5.42951,-2.06808 22.29892,-2.06808 23.13554,0 24.14986,0.42899 24.14986,10.21384 0,9.29709 -1.21297,9.77961 -24.5841,9.77961 -17.80202,0 -20.24228,-0.25253 -22.08179,-2.28518 z M 239.32192,97.442953 c 30.57802,-2.862603 56.72096,-7.710098 78.37099,-14.531763 22.46169,-7.07741 38.33402,-16.650948 38.33402,-23.121494 0,-8.445462 -27.9067,-21.40324 -62.4794,-29.010739 C 261.23092,23.667896 207.59343,19.080186 173.50875,20.511823 111.62338,23.111154 68.116497,31.202081 37.789428,45.75139 16.762007,55.839227 15.880994,63.121871 34.517452,72.798029 c 21.288573,11.053145 45.963125,17.403057 91.585268,23.569156 26.15746,3.535322 81.34506,4.059695 113.2192,1.075768 z"
     id="path2489"
     inkscape:connector-curvature="0"
     sodipodi:nodetypes="ccscsssscccsssccccssscccccsssscsccscssscccssscccsccscccscscscscccssccccsssccsssssssss" />
</svg>
