<?xml version="1.0" encoding="UTF-8" standalone="no"?>
<svg
   xmlns:dc="http://purl.org/dc/elements/1.1/"
   xmlns:cc="http://creativecommons.org/ns#"
   xmlns:rdf="http://www.w3.org/1999/02/22-rdf-syntax-ns#"
   xmlns:svg="http://www.w3.org/2000/svg"
   xmlns="http://www.w3.org/2000/svg"
   xmlns:sodipodi="http://sodipodi.sourceforge.net/DTD/sodipodi-0.dtd"
   xmlns:inkscape="http://www.inkscape.org/namespaces/inkscape"
   height="100mm"
   width="100mm"
   version="1.1"
   x="0px"
   y="0px"
   viewBox="0 0 125.98425 125.98425"
   enable-background="new 0 0 100 100"
   xml:space="preserve"
   id="svg12"
   sodipodi:docname="beam.svg"
   style="fill:#000000"
   inkscape:version="0.92.4 (5da689c313, 2019-01-14)"><metadata
     id="metadata18"><rdf:RDF><cc:Work
         rdf:about=""><dc:format>image/svg+xml</dc:format><dc:type
           rdf:resource="http://purl.org/dc/dcmitype/StillImage" /><dc:title></dc:title></cc:Work></rdf:RDF></metadata><defs
     id="defs16" /><sodipodi:namedview
     pagecolor="#ffffff"
     bordercolor="#666666"
     borderopacity="1"
     objecttolerance="10"
     gridtolerance="10"
     guidetolerance="10"
     inkscape:pageopacity="0"
     inkscape:pageshadow="2"
     inkscape:window-width="1366"
     inkscape:window-height="715"
     id="namedview14"
     showgrid="false"
     inkscape:document-units="mm"
     units="mm"
     inkscape:zoom="0.78666667"
     inkscape:cx="150"
     inkscape:cy="150"
     inkscape:window-x="-8"
     inkscape:window-y="-8"
     inkscape:window-maximized="1"
     inkscape:current-layer="svg12" /><g
     id="g10"
     transform="matrix(1.3998094,0,0,1.3998105,-6.9990472,-6.9984023)"><g
       id="g8"><g
         id="g6"><rect
           x="10.091"
           y="45.622002"
           width="79.818001"
           height="8.7559996"
           id="rect2"
           style="fill:none" /><path
           d="M 93.548,45.622 C 94.35,45.622 95,44.972 95,44.17 v -2.403 c 0,-0.801 -0.65,-1.452 -1.452,-1.452 H 6.452 C 5.65,40.315 5,40.966 5,41.767 v 2.403 c 0,0.801 0.65,1.452 1.452,1.452 h 0.736 v 8.756 H 6.452 C 5.65,54.378 5,55.028 5,55.83 v 2.403 c 0,0.801 0.65,1.452 1.452,1.452 h 87.097 c 0.802,0 1.452,-0.65 1.452,-1.452 V 55.83 c 0,-0.801 -0.65,-1.452 -1.452,-1.452 h -0.736 v -8.756 z m -3.639,8.756 H 10.091 v -8.756 h 79.818 z"
           id="path4"
           inkscape:connector-curvature="0" /></g></g></g></svg>