<?xml version="1.0" encoding="UTF-8" standalone="no"?>
<!-- Created with Inkscape (http://www.inkscape.org/) -->

<svg
   xmlns:dc="http://purl.org/dc/elements/1.1/"
   xmlns:cc="http://creativecommons.org/ns#"
   xmlns:rdf="http://www.w3.org/1999/02/22-rdf-syntax-ns#"
   xmlns:svg="http://www.w3.org/2000/svg"
   xmlns="http://www.w3.org/2000/svg"
   xmlns:sodipodi="http://sodipodi.sourceforge.net/DTD/sodipodi-0.dtd"
   xmlns:inkscape="http://www.inkscape.org/namespaces/inkscape"
   version="1.1"
   id="svg2491"
   width="100mm"
   height="100mm"
   viewBox="0 0 377.95275 377.95275"
   sodipodi:docname="sphere-1.svg"
   inkscape:version="0.92.4 (5da689c313, 2019-01-14)">
  <metadata
     id="metadata2497">
    <rdf:RDF>
      <cc:Work
         rdf:about="">
        <dc:format>image/svg+xml</dc:format>
        <dc:type
           rdf:resource="http://purl.org/dc/dcmitype/StillImage" />
        <dc:title></dc:title>
      </cc:Work>
    </rdf:RDF>
  </metadata>
  <defs
     id="defs2495" />
  <sodipodi:namedview
     pagecolor="#ffffff"
     bordercolor="#666666"
     borderopacity="1"
     objecttolerance="10"
     gridtolerance="10"
     guidetolerance="10"
     inkscape:pageopacity="0"
     inkscape:pageshadow="2"
     inkscape:window-width="1366"
     inkscape:window-height="715"
     id="namedview2493"
     showgrid="false"
     inkscape:document-units="mm"
     units="mm"
     inkscape:zoom="1.3385872"
     inkscape:cx="249.33333"
     inkscape:cy="189.56882"
     inkscape:window-x="-8"
     inkscape:window-y="-8"
     inkscape:window-maximized="1"
     inkscape:current-layer="svg2491" />
  <path
     style="fill:#000000;stroke-width:1.01120603"
     d="M 170.69333,377.2156 C 142.41529,374.76153 113.34455,364.7678 87.774564,348.71036 78.415502,342.83305 59.195161,327.09077 50.741968,318.37906 23.257954,290.05455 6.4679113,254.87183 1.1297372,214.41902 -0.75890588,200.10687 -0.18894465,167.51277 2.1647417,155.23075 9.1320758,118.87373 23.365402,89.820336 47.350487,62.996564 52.428939,57.317072 58.710196,51.063472 61.30885,49.099676 63.907493,47.13588 68.536392,43.45372 71.595295,40.917099 89.554102,26.024548 113.62615,13.621766 137.3541,7.0357868 153.86348,2.4534081 163.78593,1.0121004 183.33339,0.35696039 229.82671,-1.2012782 274.28055,13.652375 307.52365,41.853465 c 3.6849,3.126007 7.08785,5.683651 7.56211,5.683651 1.06715,0 15.33885,14.715518 21.57562,22.246571 21.30384,25.724947 34.38824,55.425753 39.87028,90.503103 1.68617,10.78919 1.93167,43.2931 0.41379,54.78485 -6.24057,47.24663 -30.22033,89.80945 -67.38576,119.60619 -28.51131,22.85844 -56.38102,35.52353 -90.32854,41.04886 -11.00679,1.79146 -36.16041,2.56307 -48.53782,1.48891 z m 24.48612,-18.73207 c 4.5765,-3.10983 8.51995,-3.22223 11.59795,-0.33059 2.22514,2.09042 2.6716,2.13751 9.16601,0.9669 33.10659,-5.96749 60.70641,-18.77922 85.7693,-39.81373 25.89915,-21.73634 46.494,-55.6584 55.49975,-91.41435 2.77944,-11.03538 2.76704,-11.04827 -6.27194,-6.5135 -14.5011,7.27506 -36.22386,13.70959 -59.91385,17.74719 -5.28356,0.9005 -12.43312,2.12145 -15.88794,2.71325 -3.45482,0.5918 -11.64418,1.60662 -18.19858,2.25518 l -11.91708,1.17919 -0.84039,6.04484 c -1.02675,7.38535 -2.80274,9.58406 -7.74151,9.58406 -5.45046,0 -8.43832,-3.50748 -7.96402,-9.34902 l 0.36044,-4.43911 -39.68978,5.9e-4 -39.68977,5.7e-4 v 2.19977 c 0,3.80445 4.06883,29.75535 6.73172,42.93463 5.6169,27.79952 15.05561,53.46103 23.01668,62.57662 2.8121,3.2199 7.69735,6.17707 10.21224,6.18173 1.12226,0.002 3.71462,-1.13382 5.76077,-2.52422 z m 14.11592,-7.90204 c -3.1966,-3.40265 -2.78109,-7.5725 2.02551,-20.32647 5.03915,-13.37107 6.85366,-15.75904 11.97464,-15.75904 5.63579,0 7.42408,2.57686 6.81715,9.82327 -0.57643,6.88205 -5.98189,21.3643 -9.56243,25.61956 -3.19082,3.79207 -8.03624,4.06875 -11.25487,0.64268 z m 13.63172,-45.0132 c -2.05535,-2.27114 -2.12163,-7.09902 -0.22858,-16.64794 0.79471,-4.00874 1.75283,-9.33632 2.12914,-11.83906 0.90842,-6.04176 3.79242,-9.10088 8.5799,-9.10088 5.25497,0 7.05889,2.38279 7.05889,9.32403 0,7.54627 -3.7999,26.13565 -5.79375,28.34347 -2.20591,2.44261 -9.50782,2.39311 -11.7456,-0.0795 z m -65.97526,44.70179 c -10.35993,-20.64247 -17.9001,-51.8225 -22.71203,-93.91855 -0.63575,-5.56164 -1.32957,-10.39373 -1.54185,-10.73797 -0.21227,-0.34424 -4.15004,-0.94392 -8.75061,-1.3326 -10.38051,-0.877 -32.589054,-4.07408 -43.009403,-6.19151 -24.56529,-4.99168 -42.11543,-10.50693 -55.122125,-17.32248 l -7.475769,-3.91732 2.287618,9.63886 c 10.648152,44.86586 36.48242,81.68452 75.17777,107.14239 15.839009,10.42057 35.495859,18.79363 53.652609,22.85395 4.17122,0.93279 8.03908,1.84192 8.59524,2.0203 3.05406,0.9795 2.88363,-0.29468 -1.10145,-8.23507 z m 67.58814,-120.33463 c 5.02224,-0.50056 5.81442,-0.86512 5.81442,-2.67581 0,-3.50552 2.92671,-5.79478 7.40834,-5.79478 4.47288,0 7.75974,2.22741 7.75974,5.25857 0,1.59348 0.54682,1.82147 3.28641,1.37033 1.80753,-0.29767 8.80487,-1.22585 15.54965,-2.06263 50.38169,-6.25049 93.39309,-22.13018 96.93202,-35.78703 0.42785,-1.65108 -0.18346,-3.61885 -1.95667,-6.29837 -3.21414,-4.85689 -3.42528,-10.4932 -0.50937,-13.59706 l 2.06956,-2.20295 -2.13166,-10.46034 C 352.26729,125.81317 336.67793,94.97692 315.17655,71.471149 307.67382,63.268997 293.97859,51.83038 283.44263,44.966136 268.08353,34.959582 244.64736,25.038183 226.30958,20.779598 c -9.68453,-2.249038 -11.12325,-2.099085 -11.12325,1.159346 0,3.794401 -3.67043,7.396431 -7.53688,7.396431 -2.49405,0 -4.20818,-1.13529 -8.33726,-5.521871 -7.52545,-7.994737 -12.28806,-8.595979 -18.45164,-2.329367 -11.77019,11.966975 -22.69735,45.982857 -29.32118,91.275883 -2.9523,20.18744 -3.28137,18.70734 4.15908,18.70734 7.81742,0 9.93887,1.61464 9.93887,7.56452 0,6.02428 -2.76077,8.2682 -10.84917,8.81813 -3.46432,0.23554 -6.64961,0.77911 -7.07843,1.20795 -1.02361,1.02359 -1.01642,79.08009 0.007,80.10388 1.94523,1.94521 59.27504,2.52253 76.8229,0.77361 z m 9.0243,-18.90065 c -2.05583,-2.18834 -2.19867,-3.32647 -2.19867,-17.51987 0,-14.55945 0.0956,-15.26927 2.34038,-17.37815 2.95014,-2.77152 8.79646,-2.95469 11.15415,-0.34946 1.41062,1.55872 1.67354,4.39374 1.67354,18.04502 0,14.40599 -0.20436,16.38073 -1.84923,17.86931 -2.75282,2.49129 -8.47567,2.1481 -11.12017,-0.66685 z m 103.97779,-41.32017 c -2.50272,-1.132 -7.70906,-3.15007 -11.56964,-4.48461 -8.42707,-2.9131 -11.68806,-5.66612 -11.68806,-9.86741 0,-4.35974 4.42868,-8.72712 8.84958,-8.72712 4.89493,0 24.40655,7.60242 27.76182,10.81699 3.80458,3.64503 3.80057,8.09467 -0.0106,11.74599 -3.41119,3.26813 -6.95567,3.40525 -13.34313,0.51616 z M 232.9723,163.74842 c -2.17159,-2.58078 -2.61791,-4.13234 -2.61791,-9.10087 0,-4.38702 -0.36936,-5.98966 -1.38043,-5.98966 -0.75924,0 -2.57941,-0.9431 -4.04482,-2.0958 -4.91644,-3.86728 -3.02138,-15.09473 2.5478,-15.09473 0.83255,0 2.58244,-1.13761 3.88866,-2.52801 3.55528,-3.78443 7.97131,-3.4122 11.9965,1.0112 2.8266,3.10625 3.8146,3.53923 8.07584,3.53923 6.04234,0 9.25259,2.85593 9.25259,8.23137 0,5.23362 -3.31936,7.94795 -9.71954,7.94795 h -5.03878 l 0.40846,6.41473 c 0.38301,6.01502 0.23573,6.55057 -2.36366,8.59526 -4.00191,3.14792 -7.84639,2.8228 -11.00471,-0.93067 z m 49.56759,-9.12256 c -5.61266,-1.04971 -10.82793,-2.61695 -11.88165,-3.57056 -2.8863,-2.61208 -2.54565,-9.50738 0.61645,-12.47804 2.81019,-2.64003 4.4752,-2.59853 21.55672,0.53723 11.73335,2.15397 14.37452,3.98507 14.37452,9.96568 0,8.16837 -4.83302,9.25499 -24.66604,5.54569 z m -106.1282,-9.83961 c -2.3554,-2.6027 -2.24626,-10.46471 0.17569,-12.65655 1.54769,-1.40065 4.32209,-1.67355 17.01421,-1.67355 14.54432,0 15.25496,0.0958 17.36366,2.3404 2.82806,3.01035 3.02156,9.74714 0.34945,12.1654 -1.55349,1.40589 -4.35858,1.67354 -17.53936,1.67354 -13.91612,0 -15.87935,-0.20909 -17.36365,-1.84924 z m 52.43632,-27.46429 c -1.87138,-2.06785 -5.47007,-21.520799 -5.53843,-29.938213 -0.0427,-5.26016 2.25596,-7.487981 7.72611,-7.487981 5.64149,0 6.89873,1.894189 8.80841,13.270955 2.25541,13.436469 2.17712,22.327129 -0.21569,24.492619 -2.59036,2.34426 -8.52156,2.15864 -10.7804,-0.33738 z m -9.54347,-47.16904 c -1.15269,-1.465414 -2.0958,-3.280146 -2.0958,-4.032739 0,-0.752593 -1.36513,-5.630007 -3.03362,-10.838699 -3.73908,-11.672685 -3.91511,-16.67578 -0.69322,-19.702593 3.23038,-3.034793 6.83597,-2.780383 10.18849,0.718897 3.16731,3.305965 9.70217,22.487262 9.71182,28.506396 0.012,7.466404 -9.55323,11.100655 -14.07767,5.348738 z m -87.54258,118.70065 v -39.69006 l -2.27521,-1.84301 c -3.56859,-2.89071 -3.20663,-9.83357 0.6833,-13.10674 2.82194,-2.37452 3.03329,-3.13719 4.57841,-16.52203 4.58653,-39.731488 12.76301,-72.327971 22.88335,-91.227187 l 3.97402,-7.421266 -4.30428,0.69016 C 140.75484,22.386576 113.56347,32.8753 98.897815,42.261925 87.48209,49.568461 85.210683,51.262562 74.734488,60.283802 47.780017,83.494785 27.089012,119.36835 19.547092,155.96636 l -1.202916,5.83724 h 2.725883 c 4.453569,0 8.054642,3.55351 8.054642,7.94826 0,3.18286 -0.784393,4.52313 -5.135357,8.77467 -7.214034,7.04923 -8.500313,9.73253 -6.510222,13.58095 2.231633,4.3155 6.159902,7.64624 13.663027,11.58475 21.95614,11.52508 54.79439,19.68029 99.608611,24.7373 0.6589,0.0743 1.0112,-13.71399 1.0112,-39.57596 z M 35.854261,166.02161 c -2.391793,-2.64291 -2.244561,-10.46625 0.23927,-12.71409 2.9264,-2.64836 21.961534,-8.69445 27.373075,-8.69445 5.922843,0 9.139885,2.89727 9.139885,8.23137 0,4.84927 -2.87864,7.19483 -12.134447,9.88731 -4.171222,1.21339 -9.299655,2.86608 -11.396513,3.67263 -5.341928,2.05476 -11.167989,1.8861 -13.22127,-0.38277 z m 46.515406,-13.1457 c -2.404471,-2.65692 -2.200963,-9.49449 0.351331,-11.8043 2.247032,-2.03355 11.55089,-4.05881 23.552552,-5.12691 7.34213,-0.65342 8.05127,-0.54178 10.36485,1.63172 1.75778,1.65135 2.48351,3.4121 2.48351,6.02544 0,5.83385 -2.78536,7.62636 -14.78313,9.51365 -13.823774,2.17452 -19.843797,2.10887 -21.969113,-0.2396 z"
     id="path3044"
     inkscape:connector-curvature="0" />
</svg>
