<svg width="100" height="100" version="1.1" viewBox="0 0 100 100" xmlns="http://www.w3.org/2000/svg"><path d="m4.75 1.5c-1.108 0-2 0.892-2 2v92.499c0 1.108 0.892 2 2 2h10.5c1.108 0 2-0.892 2-2v-92.499c0-1.108-0.892-2-2-2zm59.307 2.0391c-0.1328-0.00897-0.26898-0.00475-0.40625 0.013672l-9.416 1.2637c-1.0981 0.14739-1.8642 1.1499-1.7168 2.248l11.973 89.201c0.14739 1.0981 1.1499 1.8642 2.248 1.7168l9.416-1.2637c1.0981-0.14739 1.8642-1.1518 1.7168-2.25l-11.973-89.199c-0.12897-0.96087-0.91218-1.6677-1.8418-1.7305zm-58.453 1.0762h8.793c0.74953 0 1.3535 0.446 1.3535 0.99999v8.9999c0 0.554-0.60399 0.99999-1.3535 0.99999h-8.793c-0.74953 0-1.3535-0.446-1.3535-0.99999v-8.9999c0-0.55399 0.60399-0.99999 1.3535-0.99999zm15.896 6.8847c-1.108 0-2 0.892-2 2v82.5c0 1.108 0.892 2 2 2h9.5c1.108 0 2-0.892 2-2v-82.5c0-1.108-0.892-2-2-2zm61.25 2.5c-1.108 0-2 0.892-2 2v9.9999h16.5v-9.9999c0-1.108-0.892-2-2-2zm-45.25 2.4121c-1.108 0-2 0.892-2 2v77.587c0 1.108 0.892 2 2 2h12.5c1.108 0 2-0.892 2-2v-77.587c0-1.108-0.892-2-2-2zm-26.75 1.0879h3v65h-3v-63.5zm-4 0.5h2v37.5h-2v-36.5zm74 9.9999v57h16.5v-57zm-55.5 1.75h2v50h-2v-49zm42.428 3.0058 0.26562 1.9824-0.99023 0.13281-7.9297 1.0644-0.99024 0.13281-0.26758-1.9824 0.99219-0.13281 7.9297-1.0644zm-38.787 0.22852h1.8633v43.529h-1.8633v-42.597zm39.367 3.0156 0.26563 1.9824-0.99219 0.13281-7.9277 1.0644-0.99219 0.13281-0.26562-1.9824 0.99219-0.13281 7.9277-1.0644zm-46.43 2.3457h1.6934v36.109h-1.6934v-35.262zm45.238 2.7969 0.15234 1.1269 3.7051 27.601 0.15039 1.1269-2.2559 0.30273-0.15039-1.1269-3.7051-27.601-0.15039-1.1289zm-27.816 0.5625h9c0.554 0 1 0.446 1 0.99999v29c0 0.554-0.446 0.99999-1 0.99999h-9c-0.554 0-1-0.446-1-0.99999v-29c0-0.554 0.446-0.99999 1-0.99999zm23.584 0.06836 0.13281 0.99023 2.8613 21.308 0.13281 0.99218-1.9824 0.26562-0.13281-0.99023-2.8613-21.31-0.13281-0.99023zm17.916 45.226v8.9999c0 1.108 0.892 2 2 2h12.5c1.108 0 2-0.892 2-2v-8.9999z"/></svg>
