<svg width="100" height="100" version="1.1" viewBox="0 0 100 100" xmlns="http://www.w3.org/2000/svg">
 <path d="m3.2117 76.635c-1.1872-0.19315-2.1479-0.83356-2.7987-1.8657-0.78287-1.2415-0.55297-3.185 1.5637-13.219 1.0186-4.8284 2.6057-12.439 3.527-16.912 2.1042-10.217 2.0715-10.094 2.9591-11.171 0.72866-0.88399 2.4696-1.9211 2.7515-1.6391 0.07944 0.0794-1.1405 6.5671-2.711 14.417-3.7367 18.677-4.7055 23.703-4.7053 24.407 8.8e-5 0.31952 0.23254 0.81335 0.51657 1.0974 0.51247 0.51246 0.86068 0.5164 45.645 0.5164 49.468 0 46.276 0.10126 46.276-1.4682 0-0.71642-2.4499-13.7-5.5206-29.258-1.0511-5.3255-1.8751-9.7216-1.8311-9.7693 0.22036-0.23843 2.038 0.9094 2.6871 1.697 0.88525 1.074 0.8468 0.92871 2.9571 11.171 0.92171 4.4734 2.5164 12.084 3.5437 16.912 2.2243 10.454 2.3971 12.493 1.1674 13.778-0.40723 0.42542-1.0463 0.89759-1.4201 1.0493-0.72434 0.29386-92.843 0.54495-94.607 0.25787zm8.9911-7.6946c0.44089-0.40801 5.0955-2.0197 7.6041-2.633 3.5388-0.86512 9.9607-0.87674 14.182-0.0257 2.9407 0.59286 8.1902 2.1993 8.6561 2.6489 0.14879 0.14358-5.8396 0.23672-15.221 0.23672-8.9076 0-15.362-0.0963-15.221-0.227zm45.186-0.01c0.4659-0.44963 5.7154-2.0561 8.6561-2.6489 4.2214-0.85107 10.643-0.83945 14.182 0.0256 2.5086 0.61327 7.1632 2.225 7.6041 2.633 0.14127 0.13072-6.3135 0.22699-15.221 0.22699-9.3815 0-15.37-0.0932-15.221-0.23672zm-11.632-2.1378c-3.2752-1.4622-7.8113-2.9163-11.258-3.6088-3.9082-0.7853-11.065-0.8512-14.434-0.13292-3.0108 0.64196-6.9166 1.9722-9.9431 3.3865-1.3934 0.65115-2.5614 1.1541-2.5956 1.1176-0.14483-0.15424 7.5952-38.745 7.8005-38.893 2.4868-1.7873 6.1711-3.427 10.076-4.4844 2.8143-0.76206 3.3579-0.82609 6.9271-0.81591 3.1332 9e-3 4.2547 0.11628 5.8706 0.56196 2.5502 0.70333 6.291 2.5424 8.5243 4.1907l1.7429 1.2864v19.238c0 10.581-0.08714 19.227-0.19365 19.215-0.10651-0.0126-1.2394-0.48987-2.5175-1.0605zm5.8096-18.132v-19.215l1.4847-1.1863c1.9538-1.5611 6.1325-3.6219 8.7144-4.2975 5.8925-1.542 12.778-0.60234 19.365 2.6427 3.3024 1.6268 3.7221 1.9607 4.0219 3.1994 0.41544 1.7161 7.4229 37.681 7.3556 37.751-0.0347 0.0365-1.203-0.4665-2.5964-1.1176-3.0265-1.4143-6.9323-2.7446-9.9431-3.3865-3.0955-0.66003-10.24-0.65282-13.814 0.0139-3.5332 0.65918-7.7705 1.9688-11.376 3.516-1.6603 0.71242-3.0623 1.2953-3.1155 1.2953s-0.09675-8.6469-0.09675-19.215z"/>
</svg>
