<svg width="100" height="100" version="1.1" viewBox="0 0 100 100" xmlns="http://www.w3.org/2000/svg">
 <path d="m50-0.45235a50 50 0 0 0-50 50 50 50 0 0 0 15.471 36h69.059a50 50 0 0 0 15.471-36 50 50 0 0 0-50-50zm-20.107 10.008c0.010208-0.0095289 0.023573-0.010344 0.039063 0 0.03097 0.020712 0.28238 1.3058 0.55859 2.8555 1.2504 7.0144 1.9842 9.1285 3.8223 11.027 1.9928 2.0588 5.941 3.3327 12.166 3.9238 0.83631 0.07941 1.5215 0.1728 1.5215 0.20703 3.4e-5 0.03425-0.12568 0.06237-0.2793 0.0625-0.15362 1.65e-4 -0.86234 0.075613-1.5742 0.16797-6.8963 0.89482-10.612 2.3569-12.666 4.9824-1.5899 2.0323-2.3059 4.3932-3.1777 10.486-0.17619 1.2313-0.3436 2.2538-0.37305 2.2734-0.02944 0.01965-0.052785-0.017431-0.052735-0.082031l-0.001953 0.001953c1.24e-4 -0.23209-0.88379-5.0421-1.1875-6.459-0.74619-3.4808-1.7225-5.6117-3.2715-7.1406-0.56576-0.55847-1.9519-1.4604-2.8789-1.873-2.1617-0.96248-5.4924-1.7607-9.334-2.2402-0.6618-0.08258-1.2031-0.17592-1.2031-0.20703 0-0.03115 0.37703-0.084198 0.83789-0.11719 1.4359-0.10276 4.7557-0.58977 6.1621-0.9043 6.1115-1.3666 8.3024-3.6015 9.623-9.8164 0.34999-1.6474 1.2539-6.7618 1.2539-7.0957 0-0.024801 0.005418-0.043206 0.015625-0.052734zm44.156 5.3477a3 3 0 0 1 2.2168 0.59961c18.774 14.485 22.264 41.538 7.7793 60.312a3 3 0 0 1-4.209 0.54297 3 3 0 0 1-0.54102-4.209c12.504-16.207 9.5137-39.392-6.6934-51.896a3 3 0 0 1-0.54297-4.207 3 3 0 0 1 1.9902-1.1426zm-31.115 24.648c0.006235-0.005825 0.01591-0.00633 0.02539 0 0.01892 0.01243 0.173 0.79907 0.3418 1.7461 0.7641 4.2866 1.2107 5.5779 2.334 6.7383 1.2178 1.2581 3.6313 2.0372 7.4355 2.3984 0.51108 0.048518 0.92969 0.10602 0.92969 0.12695 2.1e-5 0.02095-0.076039 0.037019-0.16992 0.037109-0.09386 1e-4 -0.52785 0.047067-0.96289 0.10352-4.2144 0.54683-6.4851 1.4385-7.7402 3.043-0.97161 1.242-1.4086 2.6866-1.9414 6.4102-0.10767 0.75246-0.21052 1.3767-0.22852 1.3887-0.018 0.01195-0.033243-0.009589-0.033203-0.048829 7.8e-5 -0.14183-0.54096-3.0814-0.72656-3.9473-0.45601-2.1272-1.0514-3.429-1.998-4.3633-0.34574-0.34129-1.1933-0.89234-1.7598-1.1445-1.321-0.58818-3.3574-1.0761-5.7051-1.3691-0.40444-0.05048-0.73438-0.1079-0.73438-0.12695 0-0.01903 0.23008-0.052106 0.51172-0.072266 0.87752-0.06279 2.9062-0.36053 3.7656-0.55273 3.7348-0.83518 5.0738-2.2 5.8809-5.998 0.21388-1.0067 0.76562-4.1319 0.76562-4.3359 0-0.01515 0.003531-0.027378 0.009766-0.033203zm-38.012 48.996a15 15 0 0 0-4.9219 11h100a15 15 0 0 0-4.8184-11h-90.26z"/>
</svg>
