<svg width="100" height="100" version="1.1" viewBox="0 0 100 100" xmlns="http://www.w3.org/2000/svg">
 <path d="m49.338 0.046679a38.79 38.79 0 0 0-14.992 3.8224 27.515 27.515 0 0 0-13.272 13.291c-2.247 4.6845-2.8678 9.7214-3.1386 14.827-0.03009 0.5818 0.32053 0.63086 0.77192 0.63086h7.5037l-0.05094 0.05094c2.4476 0 4.8857-0.05016 7.3333 0a0.9028 0.9028 0 0 0 1.1324-1.0031 27.285 27.285 0 0 1 0.65241-3.8126c0.96298-3.7817 2.9198-6.9115 6.5712-8.6068a20.473 20.473 0 0 1 16.11-0.59168c5.4268 1.9561 7.5215 6.1194 6.4281 11.767a17.163 17.163 0 0 1-4.6629 8.787c-2.8187 2.909-5.7385 5.6878-8.7478 8.4363a24.255 24.255 0 0 0-7.2627 11.404c-1.1636 4.2231-1.1639 8.5875-1.3244 12.921a0.51159 0.51159 0 0 0 0.63282 0.59168h13.281a0.57177 0.57177 0 0 0 0.66221-0.672c0.03009-0.89277 0.17045-1.7757 0.17045-2.6684a25.178 25.178 0 0 1 1.344-7.3627c1.1636-3.22 3.5209-5.4565 6.0187-7.6232 3.3704-2.909 6.8111-5.8184 10.031-8.9281a22.841 22.841 0 0 0 7.3431-14.806 28.869 28.869 0 0 0-1.7163-13.632 24.877 24.877 0 0 0-15.529-14.486 38.79 38.79 0 0 0-15.292-2.3373zm0.51723 82.286a8.5666 8.5666 0 0 0-8.9085 8.6871 8.8439 8.8439 0 1 0 17.686 0.27037 8.5565 8.5565 0 0 0-8.7772-8.9575z"/>
</svg>
