<svg width="100" height="100" version="1.1" viewBox="0 0 100 100" xmlns="http://www.w3.org/2000/svg"><path d="m17.515 69.461c3.7671 1.3866 9.3485-1.725 17.9-12.166 3.2382 1.2133 5.7767 3.904 6.8832 9.6734 2.0991 10.986-1.2367 18.018-5.8743 27.683-0.86244 1.7911-1.7249 3.5656-2.5629 5.3484h66.139c0-32.388-26.223-48.458-3.9135-38.462-9.5844-23.54-39.127-31.199-18.282-28.756-10.723-9.9458-24.246-15.443-43.472-11.968-4.0844-6.05-13.856-18.951-10.862-3.4996l-4.898-4.4323-0.26849 15.591c-5.8255 4.5065-9.0068 19.52-13.514 29.284-3.8566 3.8793-5.3373 8.5179-4.1088 15.732 6.0045 7.8493 15.483 5.9014 16.834-4.0278z"/></svg>
