<svg width="100" height="100" version="1.1" viewBox="0 0 100 100" xmlns="http://www.w3.org/2000/svg"><path d="m48.117 77.39c0.13108-0.31371 0.23832-0.60976 0.23832-0.6579 0-0.04814-0.32159-0.08752-0.71464-0.08752-0.90981 0-1.0507-0.16328-1.9164-2.2204-1.3196-3.1358-2.7742-5.9207-3.779-7.2346-0.55249-0.72247-1.0483-1.4882-1.1019-1.7016-0.05356-0.21342-0.03208-0.84352 0.04775-1.4002 0.22274-1.5534 0.16284-6.9503-0.08847-7.9708-0.23322-0.9471-0.86617-1.8412-1.3024-1.8398-0.15026 4.84e-4 -1.1244 0.48712-2.1647 1.0814-1.0403 0.59429-2.9882 1.6414-4.3287 2.327-1.7561 0.89812-2.7338 1.5152-3.4983 2.2081-0.82353 0.74632-1.1776 0.96157-1.5815 0.96157-1.3218 0-2.7903 1.2834-4.5845 4.0068-1.1676 1.7723-1.7255 2.8742-2.2882 4.5194l-0.41288 1.2072-2.1382 0.87957-0.41118 1.2351c-0.49496 1.4868-0.58683 1.6387-0.99111 1.6387-0.36368 0-2.6273-2.716-2.6273-3.1524 0-0.65841 1.6919-1.4087 2.7352-1.213 0.57293 0.10748 0.59572 0.07796 0.75545-0.97875 0.02724-0.18023 0.25362-0.42551 0.50306-0.54506 0.30565-0.1465 0.64722-0.60273 1.0476-1.3993 0.32674-0.65005 1.4246-2.3661 2.4396-3.8135 2.0016-2.854 2.2482-3.2705 2.6466-4.4691 0.17718-0.5331 0.56766-1.1043 1.1882-1.7383 0.81755-0.83518 1.0365-0.9663 1.8955-1.1353 1.7215-0.33869 3.5699-1.8466 4.6375-3.7833 0.70663-1.2819 0.67028-2.4591-0.14867-4.8146-0.98665-2.8379-0.98518-4.7398 0.0053-6.7625 0.23862-0.48732 0.68376-1.1589 0.9892-1.4923 0.30544-0.33347 0.51855-0.64311 0.47356-0.6881-0.04498-0.04498-0.40818 0.04286-0.80709 0.1952-1.5319 0.58504-2.5457 2.1052-2.9966 4.4934-0.58338 3.0897-1.0359 4.1507-2.2309 5.2303-0.96647 0.87315-1.9777 1.4747-3.6315 2.1602-1.1514 0.47725-1.6054 0.76744-2.1282 1.3602-1.3501 1.5308-2.0119 3.4984-2.2759 6.7672-0.25875 3.2035-0.6473 4.1374-2.4351 5.8529-1.9365 1.8582-6.07 3.6022-10.452 4.4098-1.2536 0.23105-2.3638 0.4616-2.4671 0.51233-0.10332 0.05074 0.064753-0.13182 0.3735-0.40569 0.30875-0.27386 1.2721-0.79783 2.1407-1.1644 4.0533-1.7104 7.8229-4.656 8.9955-7.0294 0.60414-1.2228 0.40847-1.4026-0.32468-0.29845-1.9123 2.8801-5.9131 5.6663-9.3393 6.5039-1.2982 0.3174-5.074 0.87599-5.1832 0.7668-0.027778-0.02778 0.98085-0.35829 2.2414-0.73447 4.5228-1.3497 6.0702-2.1355 7.9006-4.012 1.9342-1.9828 3.1466-4.2323 4.0262-7.4701 0.67239-2.475 1.3125-3.9928 2.3065-5.4693 0.49655-0.73755 0.8733-1.341 0.83721-1.341s-0.6099 0.25258-1.2751 0.56128c-1.1884 0.55148-3.6572 1.655-5.0335 2.2499-1.5683 0.67789-0.47735-0.01242 2.5082-1.5871 3.9301-2.0728 6.1901-3.7127 7.5471-5.4761 0.41736-0.54238 0.75883-1.0307 0.75883-1.0851 0-0.05441-0.47504 0.30406-1.0556 0.7966-2.2012 1.8673-4.9288 3.5046-8.2603 4.9582-1.0983 0.47922-2.3195 1.0659-2.7138 1.3038l-0.71694 0.43248 0.49342-0.42748c0.50791-0.44003 1.2209-0.8759 4.5845-2.8025 2.5147-1.4404 4.341-2.8615 7.2297-5.6257 3.1746-3.0378 4.2449-3.8996 5.7845-4.6574 1.5417-0.75888 2.9123-0.99461 4.6053-0.79211 3.1683 0.37896 3.0768 0.38074 3.9812-0.07753 0.46418-0.23522 1.5716-0.71645 2.461-1.0694 3.5461-1.4073 5.1405-1.3841 10.457 0.15193 3.9584 1.1437 5.1974 1.3605 7.8543 1.3741 2.2437 0.01152 2.4393-0.01329 3.305-0.41924 0.60396-0.28322 1.1409-0.70349 1.5625-1.2231 1.5396-1.8973 2.0658-2.3667 3.0593-2.7289l0.97566-0.35574-0.62721-0.21469c-0.61319-0.20989-1.2029-0.74733-1.2029-1.0963 0-0.09621 0.16745-0.01761 0.37212 0.17466 0.20466 0.19227 0.74126 0.51661 1.1924 0.72076 1.138 0.51491 3.602 0.5428 4.6682 0.05283l0.72288-0.33219-1.9564-0.0021c-3.8261-4e-3 -4.9734-0.79994-5.2387-3.6345-0.03514-0.37538-0.18701-0.92058-0.33749-1.2116l-0.2736-0.52908 0.54866 0.40956c1.4833 1.1072 4.2921 1.5914 7.518 1.296 1.4339-0.1313 2.4076-0.13979 3.1458-0.02743 1.5775 0.24012 1.6031 0.21943 0.46596-0.3767-1.5852-0.83098-3.0094-1.3094-3.6689-1.2325-0.35626 0.04159-0.5209 0.0089-0.42716-0.08487 0.26523-0.26523 2.297-0.3122 5.357-0.12384 1.6283 0.10023 3.1826 0.22482 3.4539 0.27686 0.47524 0.09114 0.46918 0.07912-0.16447-0.32593-0.36184-0.2313-0.78308-0.42286-0.93608-0.42569-0.153-0.0028-1.1076-0.4122-2.1214-0.90974-1.0138-0.49753-2.0543-0.9046-2.3123-0.9046-0.258 0-0.46908-0.07401-0.46908-0.16447 0-0.2559 2.1381-0.18134 2.8783 0.10037 0.36184 0.13772 1.065 0.36127 1.5625 0.49677 0.49753 0.1355 1.4177 0.49951 2.0448 0.80892s1.1694 0.53327 1.2052 0.49748c0.08511-0.08511-1.546-1.288-2.1809-1.6084-0.27138-0.13694-0.71546-0.307-0.98684-0.37791l-0.49342-0.12893 0.41118-0.12447c1.3251-0.4011 3.546-0.0086 5.2069 0.92025 0.55786 0.31198 1.2013 0.56723 1.43 0.56723 0.35691 0 0.42286-0.08252 0.4667-0.58391l0.05105-0.58391 0.56649 0.41944c0.63571 0.47068 0.99601 0.53619 0.99601 0.1811 0-0.33248-0.99081-1.0536-1.6208-1.1796-0.28832-0.05767-0.56177-0.16558-0.60765-0.23982-0.3024-0.48929 2.3796-0.70336 3.4027-0.27159 0.86498 0.36503 1.8483 1.3158 2.2022 2.1291 0.16864 0.38764 0.32729 0.73385 0.35256 0.76936 0.0922 0.12955 0.60217-0.40502 1.0007-1.049 0.46307-0.74824 1.1867-1.5649 1.3866-1.5649 0.18617 0 0.16781 2.1036-0.02421 2.7732-0.1373 0.47873-0.08141 0.70251 0.42826 1.7146 0.32239 0.64019 0.8749 1.4498 1.2278 1.7992 0.57637 0.57064 0.63195 0.69723 0.54656 1.2449-0.08634 0.55369 0.01995 0.78319 1.1583 2.5011 0.68936 1.0403 1.694 2.7666 2.2324 3.8362 1.3127 2.6075 1.3061 3.0904-0.06127 4.5108-0.6482 0.67333-0.71002 0.69901-1.6823 0.69901-1.1536 0-1.3363-0.13676-1.7755-1.3289-0.3102-0.84203-0.58996-1.1307-2.526-2.6065-0.91554-0.69787-1.6788-1.1313-2.3726-1.3472-1.3637-0.42443-1.9452-0.80655-2.5867-1.6999-0.52887-0.73644-0.54201-0.74306-1.002-0.50517-0.99188 0.51292-2.8702 3.5295-4.0396 6.4874-0.84768 2.1443-0.86698 2.4586-0.26178 4.265 0.67955 2.0283 0.68168 3.2495 0.01004 5.7549l-0.49996 1.865 0.68919 1.26c1.0275 1.8785 2.286 3.4628 4.001 5.0371 1.6713 1.5342 1.9963 2.0764 2.5436 4.2444 0.57515 2.2784 2.5663 6.3707 3.7288 7.6637 0.60407 0.67187 0.7286 0.92228 0.7286 1.4651 0 0.37618 0.10314 0.7403 0.24243 0.85591 0.23888 0.19826 1.7312 2.8245 1.7312 3.0466 0 0.14635-4.3764 0.03709-4.5262-0.113-0.06186-0.06197 0.1549-0.64711 0.48168-1.3003s0.56543-1.2164 0.53033-1.2515c-0.0351-0.0351-0.38701-0.2271-0.78202-0.42666-0.70441-0.35587-0.72541-0.39063-1.0941-1.8108-0.42419-1.634-1.3991-4.1662-2.2691-5.8938-0.76549-1.5201-3.8582-4.6628-6.403-6.5065-2.6873-1.947-3.0334-2.0741-2.4806-0.9111 0.62217 1.3088 2.0133 3.0269 3.6549 4.514 0.77349 0.7007 0.96704 1.3402 0.7027 2.3219-0.18498 0.68697-0.35268 0.87382-2.5067 2.793-0.74562 0.66434-1.6649 1.7159-2.2612 2.5865-1.101 1.6075-1.5519 1.9627-3.0302 2.3871-0.54276 0.15584-1.6078 0.56946-2.3668 0.91915-1.5714 0.72404-1.8273 0.76729-1.8273 0.30882 0-0.62102 0.98659-3.4047 1.3106-3.698 0.30093-0.27234 0.39575-0.27634 1.2786-0.05395l0.95355 0.2402 1.4836-1.1111c1.8115-1.3566 4.1842-3.7814 4.1842-4.276 0-0.59248-1.0461-1.8214-3.1611-3.7138-1.1109-0.99394-2.4593-2.3563-2.9964-3.0276-1.6545-2.0675-2.4079-2.7829-2.9309-2.7829-0.25626 0-1.2096-0.1235-2.1185-0.27445-1.5445-0.2565-1.8102-0.2564-4.0633 0.0016-6.8627 0.7858-11.461-0.16632-15.79-3.2694-1.7875-1.2813-1.7225-1.2967-2.4613 0.58174-0.9733 2.4745-1.9532 6.4573-2.3329 9.4818-0.1767 1.4076-0.1668 1.5481 0.15338 2.1757 0.2866 0.56179 0.33697 0.9324 0.30961 2.2781-0.03845 1.8914 0.16999 2.6496 1.3688 4.9789 0.9104 1.7689 1.3396 2.3154 2.1351 2.7187 0.81147 0.41137 1.099 0.70891 1.2208 1.2632 0.06814 0.31025 0.51484 0.88266 1.2018 1.54l1.0933 1.0462-4.5062 0.011zm-22.328-29.277c1.1552-1.2639 1.8922-2.8058 1.9575-4.0949l0.05108-1.0088-0.24316 0.85946c-0.49696 1.7565-1.5896 3.5228-3.2727 5.2905l-0.84439 0.88683 0.75624-0.50746c0.41593-0.2791 1.1339-0.92065 1.5954-1.4257zm47.044-18.25c1.2054-0.30619 2.2354-0.60053 2.2889-0.65408 0.11876-0.11876-0.30299-0.13377-4.4805-0.15942-3.2151-0.01974-3.3111-0.03031-4.2435-0.46718-0.52469-0.24584-1.1766-0.60548-1.4486-0.79919-0.27205-0.19371-0.53582-0.31102-0.58616-0.26068-0.18379 0.18379 0.65217 1.2776 1.336 1.7481 1.9208 1.3216 3.6864 1.4682 7.1337 0.59248zm3.7295-2.8986c-0.36184-0.17123-0.80592-0.31001-0.98684-0.30842-0.18708 0.0017-0.05767 0.09965 0.30007 0.22722 0.34596 0.12337 0.67285 0.26815 0.72643 0.32173 0.05358 0.05358 0.2146 0.09142 0.35783 0.0841 0.14323-0.0073-0.03564-0.15341-0.39748-0.32463zm-0.57566-3.1982c-0.22615-0.12928-0.5222-0.23434-0.6579-0.23346-0.13569 8.75e-4 -0.02467 0.10326 0.24671 0.22752 0.6534 0.29919 0.93118 0.3032 0.41118 0.0059z"/></svg>
