<svg width="100" height="100" version="1.1" viewBox="0 0 100 100" xmlns="http://www.w3.org/2000/svg">
 <path d="m20 65h-15c-2.7609 0-5 2.2391-5 5v15c0 2.7609 2.2391 5 5 5h15c2.7609 0 5-2.2391 5-5v-15c0-2.7609-2.2391-5-5-5zm-3.75-12.5h30v7.5h7.5v-7.5h30v7.5h7.5v-8.9984c0-3.3078-2.6922-6.0016-6.0016-6.0016h-31.498v-10h6.25c2.7609 0 5-2.2391 5-5v-15c0-2.7609-2.2391-5-5-5h-20c-2.7609 0-5 2.2391-5 5v15c0 2.7609 2.2391 5 5 5h6.25v10h-31.498c-3.3094 0-6.0016 2.6922-6.0016 6.0016v8.9984h7.5zm41.25 12.5h-15c-2.7609 0-5 2.2391-5 5v15c0 2.7609 2.2391 5 5 5h15c2.7609 0 5-2.2391 5-5v-15c0-2.7609-2.2391-5-5-5zm37.5 0h-15c-2.7609 0-5 2.2391-5 5v15c0 2.7609 2.2391 5 5 5h15c2.7609 0 5-2.2391 5-5v-15c0-2.7609-2.2391-5-5-5z"/>
</svg>
