<svg width="100" height="100" version="1.1" viewBox="0 0 100 100" xmlns="http://www.w3.org/2000/svg"><path d="m26.75 5.783c-3.4625 0-6.2503 2.8478-6.2503 6.4999 0 3.6521 2.7878 6.5004 6.2503 6.5004h8.2497v-13zm11.25 0v13h24v-13zm27 0v13h8.2502c3.4625 0 6.2498-2.8483 6.2498-6.5004 0-3.6521-2.7873-6.4999-6.2498-6.4999zm-47 16c-1.4109 0-2.4996 1.0892-2.4996 2.5001v20c0 1.4109 1.0887 2.5001 2.4996 2.5001h10.5v-2.5001c0-1.6447 1.3551-2.9998 2.9998-2.9998h2.0004c1.6447 0 2.9998 1.3551 2.9998 2.9998v2.5001h27v-2.5001c0-1.6447 1.3556-2.9998 3.0003-2.9998h1.9999c1.6447 0 2.9998 1.3551 2.9998 2.9998v2.5001h10.5c1.4109 0 2.5001-1.0892 2.5001-2.5001v-20c0-1.4109-1.0892-2.5001-2.5001-2.5001zm13.5 21.5c-0.5713 0-0.99994 0.42865-0.99994 0.99994v8c0 0.5713 0.42865 0.99994 0.99994 0.99994h2.0004c0.5713 0 0.99994-0.42864 0.99994-0.99994v-8c0-0.57129-0.42864-0.99994-0.99994-0.99994zm35.001 0c-0.5713 0-1.0005 0.42865-1.0005 0.99994v8c0 0.5713 0.42916 0.99994 1.0005 0.99994h1.9999c0.5713 0 0.99994-0.42864 0.99994-0.99994v-8c0-0.57129-0.42865-0.99994-0.99994-0.99994zm-46.5 6.4999v34.301c0 1.8155 1.263 3.2941 2.9998 3.6282v-16.638c0-3.7662 3.0576-6.8575 6.8125-6.8575h40.375c3.7549 0 6.8125 3.0913 6.8125 6.8575v16.638c1.7369-0.33411 3.0003-1.8127 3.0003-3.6282v-34.301h-8.5003v2.5001c0 1.6447-1.3551 2.9998-2.9998 2.9998h-1.9999c-1.6447 0-3.0003-1.3551-3.0003-2.9998v-2.5001h-27v2.5001c0 1.6447-1.3551 2.9998-2.9998 2.9998h-2.0004c-1.6447 0-2.9998-1.3551-2.9998-2.9998v-2.5001zm-9.0005 13c-0.85694 0-1.4997 0.64272-1.4997 1.4997v16c0 0.85694 0.64271 1.5002 1.4997 1.5002h6.0002v-19zm72.001 0v19h6.0002c0.85695 0 1.4997-0.64323 1.4997-1.5002v-16c0-0.85694-0.64271-1.4997-1.4997-1.4997zm-53.188 4.4333c-2.1313 0-3.8127 1.6881-3.8127 3.8576v19.285c0 2.1695 1.6814 3.8576 3.8127 3.8576h40.375c2.1313 0 3.8127-1.6881 3.8127-3.8576v-19.285c0-2.1695-1.6814-3.8576-3.8127-3.8576zm16.187 4.0669a1.5001 1.5 0 0 1 1.0604 0.43925l2.9404 2.9399 2.9394-2.9399a1.5001 1.5 0 0 1 2.1208 0 1.5001 1.5 0 0 1 0 2.1213l-3.9998 3.9998a1.5001 1.5 0 0 1-2.1218 0l-3.9998-3.9998a1.5001 1.5 0 0 1 0-2.1213 1.5001 1.5 0 0 1 1.0604-0.43925z" /></svg>
