<svg width="100" height="100" version="1.1" viewBox="0 0 100 100" xmlns="http://www.w3.org/2000/svg"><path d="m33.98 5.0035c-0.18448-0.00592-0.36935-0.00424-0.55469 0.00392-5.9408 0.36061-10.039 7.883-9.0782 16.865 0.95542 9.0319 6.561 16.068 12.447 15.752 5.9359-0.3109 9.9363-7.8429 9.0255-16.82-0.87756-8.7448-6.121-15.618-11.84-15.801zm32.039 0c-5.719 0.18351-10.962 7.0563-11.84 15.801-0.9108 8.9772 3.0896 16.509 9.0255 16.82 5.8863 0.31584 11.492-6.7203 12.447-15.752 0.96036-8.9821-3.1374-16.505-9.0782-16.865-0.18534-0.00816-0.37021-0.00984-0.55469-0.00392zm-57.465 22.379c-1.1702-2e-3 -2.3067 0.21311-3.3711 0.6721-5.4776 2.398-6.8715 10.742-2.9375 18.586 3.9339 7.8434 11.602 12.239 17.229 9.7915 5.627-2.4479 6.9213-10.741 3.1368-18.635-3.2772-6.2916-8.9859-10.406-14.057-10.415zm82.891 0c-5.0709 0.0088-10.78 4.123-14.057 10.415-3.7845 7.8933-2.4903 16.187 3.1368 18.635 5.627 2.4479 13.295-1.9481 17.229-9.7915 3.9339-7.8434 2.5401-16.188-2.9375-18.586-1.0644-0.45899-2.2009-0.67415-3.3711-0.6721zm-41.993 14.861c-10.009 0-14.991 13.238-22.012 20.282-5.2784 5.4454-14.192 9.443-15.088 16.887-0.64736 5.3954 2.7899 11.889 7.7696 14.337 8.7642 4.4462 19.421-4.3951 29.33-4.3951s20.466 8.4916 29.379 4.3951c4.2825-1.9484 7.8672-7.1431 7.668-11.839-0.34858-8.1431-9.5606-13.29-15.088-19.385-6.7226-7.2439-12-20.282-21.959-20.282z"/></svg>
