<svg width="100" height="100" version="1.1" viewBox="0 0 100 100" xml:space="preserve" xmlns="http://www.w3.org/2000/svg"><path transform="matrix(1.2435 0 0 1.2443 -52.228 -59.729)" d="m74.303 48.003c-3.1036-0.04144-6.3797 0.35305-9.7678 1.3655-3.0119 0.98076-7.404 3.4406-7.404 3.4406s6.6587 0.57537 7.7935 0.71887c3.1993 0.36774 16.257 2.4495 22.989 12.246l9.3233-9.325c0.06289-0.06306 0.13156-0.11719 0.19633-0.17736-4.1608-3.0321-12.653-8.1287-23.131-8.2686zm27.976 10.373c-0.82349 4.78e-4 -1.613 0.32859-2.1942 0.91194l-9.5511 9.5494c-1.2092 1.2136-1.2092 3.1766 0 4.3902l6.6203 6.6206c1.2286 1.172 3.1613 1.172 4.3899 0l9.5511-9.551c0.58454-0.58221 0.91198-1.374 0.9094-2.199 0.0108-0.82431-0.31808-1.6167-0.9094-2.1912l-6.6202-6.619c-0.58163-0.58373-1.3717-0.91187-2.1958-0.91194zm11.847 14.555c-0.0657 0.07106-0.12588 0.14648-0.19476 0.21503l-9.3123 9.3108c9.7834 6.7416 11.87 19.799 12.275 23.001 0.14235 1.1365 0.98637 7.7993 0.98637 7.7993s2.1312-3.9968 3.1743-7.4101c4.425-14.862-3.0064-27.582-6.9281-32.916zm-26.051 3.5253-45.235 45.25c-0.37424 0.38986-0.80158 1.4271-0.80532 2.5088 6.9e-4 2.2854 1.8549 4.1376 4.1418 4.1375 1.0924-4e-3 2.139-0.43877 2.5278-0.82211l45.227-45.222z" stroke-width=".8039"/></svg>
