<svg width="100" height="100" version="1.1" viewBox="0 0 100 100" xmlns="http://www.w3.org/2000/svg"><path d="m42.213 0.0012117c-0.10344 0.00311-0.20426 0.00857-0.30665 0.025147-1.3005 0.21175-2.1833 1.4395-1.9706 2.7398l1.5081 9.3001c0.18756 1.1554 1.1872 2.0071 2.3577 2.0058h13.513c1.1688-9.94e-4 2.1654-0.85214 2.3527-2.0058l1.5132-9.3001c0.21254-1.3019-0.67329-2.5303-1.9756-2.7398l-16.68-0.015083c-0.10321-0.010373-0.20823-0.013178-0.31168-0.010064zm-6.4548 17.198c-1.4215 0-2.5739 1.1524-2.5739 2.5739 0.01724 3.5095 1.8211 6.7685 4.7858 8.6466l-0.09552 14.242c-8.9602 3.944-15.428 12.017-17.323 21.621-0.39707 1.9047-0.5942 3.8456-0.58817 5.7912 0.06049 16.546 13.491 29.926 30.037 29.926 16.546 0 29.976-13.38 30.037-29.926 0.02419-2.6064-0.30563-5.204-0.98028-7.7216-2.321-8.7911-8.5279-16.042-16.856-19.691l0.09552-14.242c0.66033-0.38832 1.2656-0.86343 1.7997-1.4126 1.9088-1.9243 2.9817-4.5236 2.9861-7.234 0-1.4215-1.1524-2.5739-2.5739-2.5739zm25.658 5.0975c-0.23641 0.43178-0.5307 0.82925-0.87471 1.1814-0.89984 0.8758-2.0888 1.3925-3.343 1.4528v5.0321l-0.09552 14.372c-0.02471 0.19698-0.02471 0.39623 0 0.5932v0.38709l0.25638 0.38206c0 0.12869 0.17857 0.28413 0.28152 0.38709 0.10597 0.08589 0.2186 0.16321 0.33681 0.23124 0.1526 0.11868 0.31584 0.22303 0.48763 0.31168 7.6162 2.8095 13.381 9.1601 15.443 17.012 0 0.48904 0.20872 1.004 0.31168 1.493-3.1916 3.7578-6.7711 9.3689-13.437 10.295-9.652 1.7502-13.282-8.7787-27.207-10.864-2.5581-0.36521-5.1512-0.41586-7.7216-0.1508 1.8608-8.1431 7.6783-14.812 15.493-17.761v-0.02522c0.17353-0.08839 0.33846-0.19273 0.49265-0.31168 0.17994-0.06593 0.35192-0.15201 0.51276-0.2563 0 0 0.17858-0.25839 0.28152-0.38709l0.26141-0.38708v-0.38206c0.02265-0.18869 0.02265-0.37938 0-0.56806l0.09552-14.372v-5.0422c-1.6832-0.11603-3.2026-1.0495-4.0669-2.4985z"/></svg>
