<svg width="100" height="100" version="1.1" viewBox="0 0 100 100" xmlns="http://www.w3.org/2000/svg">
 <path d="m71.016 0.7445c5.8738 0 10.653 4.7277 10.653 10.539v67.057l-42.696-0.080208h-5e-3c-1.4984 0.0082-2.7212 1.2013-2.766 2.6991l-0.33411 12.284c-0.16638 3.5498-2.1611 5.5792-5.9279 6.0115h-0.23645c-5.8389 0-10.413-4.6292-10.413-10.539v-78.87c-0.006306-3.4902-2.0729-6.8079-4.7033-9.102zm-60.209 0.049867a10.016 10.016 0 0 1 5.8012 9.0521v9.7465h-16.608v-7.0982c0-6.1224 4.7579-11.164 10.807-11.701zm28.162 79.593 60.394 0.11469c0.35185 8.51e-4 0.63664 0.28644 0.63664 0.6383v6.3643c0 6.4792-5.3273 11.75-11.875 11.75h-52.702c1.9926-1.7736 2.4929-4.2359 2.5723-5.933l0.33536-12.308c0.0091-0.34672 0.29147-0.62384 0.6383-0.62625z"/>
</svg>
