<svg width="100" height="100" version="1.1" viewBox="0 0 100 100" xmlns="http://www.w3.org/2000/svg"><path d="m49.745 0.0028957c-2.1547 0.10138-3.6264 2.8385-2.8013 6.1018 0.01832 0.072421 0.05693 0.1554 0.07858 0.23085 0.0074 0.063986 0.01865 0.12471 0.0275 0.18781 0.01359 0.095911 0.03615 0.18414 0.05304 0.2778 0.04753 0.26643 0.1045 0.52297 0.1768 0.76884 0.02727 0.091876 0.05592 0.17942 0.08644 0.26802 0.08651 0.2536 0.18573 0.49047 0.29663 0.71407 0.02692 0.053923 0.05231 0.10842 0.08054 0.16042 0.14512 0.26907 0.30256 0.51589 0.47932 0.72776-0.2828 0.65629-0.64414 1.6788-0.72292 2.6235-0.36493 0.15188-0.91886 0.23794-1.8682 0.33845-6.0542 0.64098-13.535 3.6253-18.366 7.3285-1.3797 1.0577-2.0072 1.473-2.5322 1.6042-0.7161-0.57269-1.6401-1.0125-2.2768-1.2658-0.02544-0.27449-0.08828-0.56029-0.1768-0.85296-0.01719-0.05738-0.0394-0.11433-0.05893-0.17216-0.07975-0.23402-0.17708-0.46826-0.29467-0.70624-0.0417-0.08505-0.08126-0.16924-0.12769-0.25432-0.1211-0.22061-0.26246-0.43751-0.4145-0.65538-0.05993-0.08622-0.11209-0.17291-0.1768-0.25824-0.06096-0.08016-0.12744-0.15758-0.19252-0.23672-0.60234-1.0366-1.2702-1.8974-1.8427-2.2772-1.6519-1.0961-3.7837-1.0386-4.7029 0.12521-1.4714 1.8629-0.34447 4.5555 2.1471 6.1527 0.146 0.12718 0.29013 0.2567 0.44004 0.36975 0.08568 0.06444 0.17273 0.11639 0.25931 0.17607 0.21876 0.15142 0.43656 0.29219 0.65809 0.41279 0.08543 0.04624 0.16998 0.08563 0.25538 0.12716 0.23896 0.1171 0.47418 0.21403 0.70917 0.29345 0.05808 0.01945 0.11524 0.04158 0.17287 0.05869 0.29389 0.08815 0.58087 0.15074 0.8565 0.17607 0.25057 0.62468 0.68306 1.5272 1.2455 2.2361-0.15682 0.57429-0.59405 1.2959-1.6167 2.7154-2.5878 3.5919-3.241 4.7709-4.7697 8.604-1.2222 3.0647-2.0346 6.3113-2.5479 10.191-0.07422 0.56093-0.16038 0.91516-0.2986 1.1895-0.96243 0.06883-2.0146 0.43717-2.6854 0.72385-0.21275-0.17604-0.46059-0.33283-0.73078-0.47735-0.05222-0.02812-0.10694-0.0534-0.16108-0.08021-0.22452-0.11044-0.46237-0.20926-0.71702-0.29541-0.088964-0.03039-0.17687-0.05893-0.26913-0.08608-0.22189-0.06472-0.45276-0.11553-0.69149-0.16042-2.2175-0.74516-4.2002-0.51524-5.6812 0.7258-2.0986 1.7586-0.86678 4.754 2.1904 5.3252 1.0147 0.18958 1.9863 0.09507 3.1529-0.27976 0.089201-0.01278 0.17009-0.03526 0.25734-0.05086 0.26753-0.04734 0.52513-0.10406 0.77203-0.17607 0.092257-0.02715 0.18017-0.05569 0.26913-0.08608 0.25465-0.08615 0.4925-0.18496 0.71702-0.29541 0.054146-0.02681 0.10886-0.0521 0.16108-0.08021 0.27018-0.14452 0.51802-0.30131 0.73078-0.47735 0.68857 0.29426 1.7796 0.67846 2.762 0.73167 0.06658 0.24124 0.20495 1.0101 0.37324 2.2107 0.98154 7.002 3.4375 12.944 7.6044 18.397 0.76147 0.99661 1.0952 1.5463 1.216 2.0366-0.58123 0.71503-1.0266 1.6444-1.2828 2.2831-0.27563 0.02532-0.56261 0.08792-0.8565 0.17607-0.05762 0.01711-0.1148 0.03923-0.17287 0.05869-0.23498 0.07942-0.4702 0.17636-0.70917 0.29345-0.0854 0.04153-0.16994 0.08092-0.25538 0.12716-0.22153 0.1206-0.43932 0.26137-0.65809 0.41279-0.08657 0.05968-0.17363 0.11163-0.25931 0.17607-0.1499 0.11305-0.29404 0.24257-0.44004 0.36975-2.4916 1.5972-3.6186 4.2898-2.1471 6.1527 0.87097 1.1027 2.9564 1.2056 4.5713 0.22498 0.65035-0.3949 1.5122-1.5111 2.1746-2.6235 0.06208-0.08213 0.11129-0.16551 0.16894-0.24846 0.15204-0.21786 0.2934-0.43476 0.4145-0.65538 0.04643-0.08508 0.08599-0.16928 0.12769-0.25433 0.11758-0.23798 0.21492-0.47222 0.29467-0.70624 0.01953-0.05784 0.04175-0.11477 0.05893-0.17216 0.08852-0.29267 0.15137-0.57848 0.1768-0.85296 0.62891-0.25019 1.5386-0.68197 2.2513-1.2442 0.54349 0.13804 1.2837 0.59762 2.597 1.5964 2.8246 2.1481 7.0923 4.3967 10.626 5.5971 2.3847 0.81015 7.5937 1.8861 9.1622 1.8918 0.14044 5.15e-4 0.27323 0.0395 0.40075 0.09977 0.06639 0.96212 0.43958 2.0168 0.72881 2.688-0.17676 0.21188-0.33421 0.45869-0.47932 0.72776-0.02823 0.052-0.05362 0.1065-0.08054 0.16042-0.1109 0.2236-0.21012 0.46047-0.29663 0.71406-0.03052 0.0886-0.05917 0.17614-0.08644 0.26802-0.07231 0.24588-0.12926 0.50242-0.1768 0.76884-0.01523 0.08445-0.03852 0.16217-0.05107 0.24846-0.24038 0.80715-0.42236 1.6503-0.42236 2.2596 0 1.5432 0.90304 3.334 1.9723 3.9127 1.1246 0.60861 1.5373 0.61288 2.6933 0.01761 1.7664-0.90966 2.3464-3.2789 1.6521-5.914-0.0091-0.08336-0.01993-0.16463-0.03143-0.2465-0.01359-0.09591-0.03615-0.18414-0.05304-0.2778-0.04753-0.26643-0.1045-0.52297-0.1768-0.76884-0.02727-0.09187-0.05592-0.17942-0.08644-0.26802-0.08651-0.2536-0.18573-0.49047-0.29663-0.71406-0.02692-0.05392-0.05231-0.10842-0.08054-0.16042-0.14512-0.26907-0.30256-0.51589-0.47932-0.72776 0.28943-0.67168 0.66278-1.7273 0.72881-2.69 0.12645-0.0611 0.25778-0.10173 0.39878-0.10173 1.5481 0 6.7668-1.0722 9.1642-1.884 3.427-1.1605 7.8777-3.519 10.738-5.689 1.3193-1.001 1.9381-1.4022 2.4556-1.5318 0.71652 0.57403 1.643 1.014 2.2807 1.2677 0.02543 0.27449 0.08828 0.56029 0.1768 0.85296 0.01718 0.05738 0.0394 0.11433 0.05893 0.17216 0.07975 0.23402 0.17708 0.46826 0.29467 0.70624 0.0417 0.08505 0.08126 0.16924 0.12769 0.25433 0.1211 0.22061 0.26246 0.43751 0.4145 0.65538 0.01525 0.02194 0.02569 0.04462 0.04126 0.06652 1.1612 2.3244 2.7063 3.4608 4.7441 3.4608 1.1507 0 1.5722-0.17481 2.1295-0.88035 1.1861-1.5017 0.75769-3.7173-1.0333-5.3428-0.27484-0.24944-0.65727-0.51689-1.0785-0.77862-0.15743-0.13872-0.31333-0.27883-0.4754-0.40105-0.08568-0.06444-0.17273-0.11639-0.25931-0.17607-0.21876-0.15142-0.43656-0.29218-0.65809-0.41279-0.08543-0.04624-0.16998-0.08563-0.25538-0.12716-0.23896-0.1171-0.47418-0.21403-0.70917-0.29345-0.05807-0.01945-0.11524-0.04158-0.17287-0.05869-0.29389-0.08816-0.58087-0.15074-0.8565-0.17607-0.25759-0.64218-0.70653-1.5784-1.2926-2.2948 0.12356-0.47255 0.46246-1.0256 1.214-2.0092 4.1796-5.4697 6.6335-11.403 7.6162-18.413 0.16829-1.2005 0.30665-1.9694 0.37324-2.2107 0.98245-0.05318 2.0734-0.43741 2.762-0.73167 0.21275 0.17603 0.46059 0.33283 0.73078 0.47735 0.05222 0.02812 0.10694 0.0534 0.16108 0.08021 0.22452 0.11044 0.46237 0.20926 0.71702 0.29541 0.08896 0.03039 0.17687 0.05893 0.26913 0.08608 0.2469 0.07201 0.5045 0.12873 0.77203 0.17607 0.09405 0.01682 0.18264 0.03928 0.27895 0.05282 0.01288 0.0018 0.0244 0.0061 0.03733 0.0078 2.147 0.67254 3.8358 0.4118 5.2844-0.8021 1.444-1.21 1.4374-3.0492-0.01572-4.2668-0.5674-0.47547-1.4083-0.95909-1.8682-1.074-0.86509-0.21623-2.1467-0.07187-3.4064 0.28758-0.01083 0.0015-0.02063 0.0044-0.03143 0.0059-0.09631 0.01353-0.1849 0.036-0.27895 0.05282-0.26753 0.04734-0.52513 0.10406-0.77203 0.17607-0.09226 0.02715-0.18016 0.05569-0.26913 0.08608-0.25465 0.08615-0.4925 0.18496-0.71702 0.29541-0.05414 0.02681-0.10886 0.0521-0.16108 0.08021-0.27018 0.14452-0.51802 0.30131-0.73078 0.47735-0.67038-0.28647-1.7215-0.6546-2.6835-0.72383-0.13907-0.27399-0.22601-0.62604-0.30056-1.1895-1.0211-7.7174-3.4671-13.841-7.7635-19.442-0.75576-0.9853-1.0942-1.5387-1.218-2.0111 0.5856-0.7163 1.0352-1.651 1.2926-2.2928 0.27563-0.02533 0.56261-0.08791 0.8565-0.17607 0.05762-0.01712 0.1148-0.03923 0.17287-0.05869 0.23498-0.07942 0.4702-0.17635 0.70917-0.29345 0.0854-0.04153 0.16994-0.08092 0.25538-0.12716 0.22153-0.1206 0.43932-0.26137 0.65809-0.41279 0.08657-0.05968 0.17363-0.11163 0.25931-0.17607 0.23575-0.17779 0.46446-0.37832 0.68952-0.59082 0.54251-0.36137 1.0442-0.73276 1.3751-1.0799 0.66669-0.6994 1.0115-1.4669 1.1296-2.51 0.14636-1.2931 0.04989-1.621-0.69345-2.3613-1.1232-1.1185-3.0231-1.1629-4.6165-0.10564-0.58086 0.38542-1.287 1.297-1.8918 2.332-0.04901 0.0607-0.0968 0.12065-0.1434 0.18194-0.0647 0.08533-0.11688 0.17202-0.1768 0.25824-0.15204 0.21786-0.2934 0.43476-0.4145 0.65538-0.04643 0.08508-0.08598 0.16928-0.12769 0.25432-0.11758 0.23798-0.21492 0.47222-0.29467 0.70624-0.01953 0.05784-0.04175 0.11477-0.05893 0.17216-0.08852 0.29267-0.15137 0.57848-0.1768 0.85297-0.63119 0.2511-1.5454 0.68479-2.2591 1.2501-0.52762-0.10481-1.1386-0.54226-2.5616-1.6198-4.882-3.6968-12.337-6.6601-18.354-7.2972-0.94932-0.10051-1.5033-0.18657-1.8682-0.33845-0.07875-0.94467-0.44012-1.9672-0.72292-2.6235 0.17676-0.21187 0.33421-0.45869 0.47932-0.72776 0.02823-0.052004 0.05362-0.1065 0.08054-0.16042 0.1109-0.2236 0.21012-0.46047 0.29663-0.71407 0.03052-0.088596 0.05917-0.17614 0.08644-0.26802 0.07231-0.24588 0.12926-0.50241 0.1768-0.76884 0.01689-0.093663 0.03945-0.18189 0.05304-0.2778 0.01483-0.10564 0.02463-0.21275 0.03536-0.32084 0.69453-2.5029 0.11533-4.9261-1.6246-5.8221-0.55006-0.28327-1.0842-0.40097-1.5814-0.37757zm-2.9781 21.577h0.99205c0.01457 0.03255 0.02743 0.08935 0.04126 0.12716l-0.01768 0.60255c-0.09258 0.24673-0.18062 0.50449-0.25931 0.78058-0.0041 0.01438-0.0077 0.02662-0.01179 0.04109-0.09616 0.34249-0.17699 0.71066-0.24948 1.0916-0.01479 0.07731-0.03339 0.14625-0.04714 0.22498-0.06206 0.35745-0.106 0.73734-0.14537 1.121-0.01103 0.10679-0.03013 0.20443-0.03929 0.31302-0.04173 0.49786-0.06482 1.0129-0.06482 1.5416 0 0.63741 0.03985 1.2468 0.10019 1.837 0.01936 0.19037 0.04956 0.36549 0.07465 0.54973 0.05203 0.38085 0.11176 0.74691 0.18662 1.0975 0.04319 0.20288 0.08728 0.39754 0.13751 0.58886 0.08701 0.33114 0.18644 0.6349 0.2927 0.92731 0.05848 0.16093 0.10907 0.33537 0.17287 0.48322 0.0077 0.01798 0.01379 0.04091 0.02161 0.05869-0.0076 0.05815-0.02268 0.09509-0.03339 0.14477-0.04034 0.06185-0.07821 0.1251-0.13751 0.17412-0.22517 0.1861-0.33841 0.50636-0.28092 0.74341-0.0024 9.22e-4 -0.0035 3e-3 -0.0059 0.0039-0.11196 0.04418-0.20814 0.09996-0.28878 0.1702a16.093 16.026 0 0 0-6.4375 2.6587c-0.09608 0.0053-0.19285 0.03017-0.2927 0.06847-0.01279-0.0066-0.05261 0.0023-0.05893-0.0078-0.10785-0.17379-0.4504-0.32004-0.7622-0.32475-0.08198-0.0012-0.19723-0.06117-0.33199-0.15651-0.05604-0.13905-0.14091-0.2866-0.20823-0.4304-0.13621-0.29107-0.28728-0.58618-0.46754-0.89209-0.09371-0.15895-0.19346-0.31561-0.2986-0.47735-0.20584-0.31708-0.43392-0.63563-0.68166-0.95861-0.10453-0.13618-0.2007-0.26854-0.31235-0.40496-0.378-0.46233-0.7845-0.92407-1.2396-1.3773-0.37868-0.37712-0.76283-0.72751-1.1492-1.0525-0.04473-0.03758-0.08883-0.06684-0.13358-0.10369-0.72406-0.59693-1.4475-1.102-2.1393-1.4907-0.04701-0.02637-0.09082-0.04313-0.13751-0.06847-0.05194-0.02825-0.10172-0.04935-0.15323-0.0763-0.51567-0.50822-0.85846-0.86851-0.85846-0.91752 0-0.38183 4.1437-3.026 6.4336-4.1064 2.6091-1.231 7.0758-2.504 8.7909-2.5041zm5.4396 0h0.99205c3.1139 2.41e-4 9.4861 2.4328 13.234 5.0513 1.1645 0.81347 1.8802 1.5343 2.0018 1.9426-0.03051 0.0541-0.02908 0.07913-0.07465 0.14868-0.0097 0.0039-0.01982 0.01166-0.02947 0.01566-0.29558 0.12223-0.60511 0.27517-0.91936 0.44605-0.04669 0.02534-0.0905 0.0421-0.13751 0.06847-0.33988 0.19102-0.68712 0.41224-1.0392 0.65538-0.02787 0.01921-0.05459 0.03329-0.08251 0.05282-0.33724 0.23629-0.6774 0.50209-1.0176 0.78254-0.04717 0.03884-0.09429 0.06989-0.14144 0.10956-0.38378 0.32319-0.7652 0.67205-1.1413 1.0466-0.45507 0.45319-0.86157 0.91494-1.2396 1.3773-0.11164 0.13642-0.20782 0.26879-0.31235 0.40496-0.24774 0.32298-0.47583 0.64153-0.68166 0.95861-0.10514 0.16174-0.20489 0.3184-0.2986 0.47735-0.18026 0.30591-0.33133 0.60102-0.46754 0.89209-0.06856 0.14644-0.15333 0.29671-0.2102 0.43822-0.0027 0.0069-7e-3 0.01465-0.0099 0.02152-0.10999 0.07576-0.20591 0.12606-0.27306 0.12716-0.28581 0.0047-0.66364 0.1329-0.83882 0.28563-0.02016 0.01758-0.08928 7e-3 -0.13162 0.01174-0.04945-0.01349-0.09705-0.02795-0.14537-0.03326a16.093 16.026 0 0 0-6.5102-2.6861c-0.07125-0.05641-0.15659-0.09902-0.24948-0.13694 0.0073-0.03381-1.97e-4 -0.05827 0.01179-0.09586 0.1119-0.35111-0.0079-0.67128-0.28877-0.77862-0.07614-0.0291-0.12609-0.07428-0.17484-0.12325-0.0048-0.02758-0.01375-0.04443-0.01768-0.07434 0.0078-0.01778 0.01386-0.04071 0.02161-0.05869 0.06381-0.14784 0.1144-0.32229 0.17287-0.48322 0.10626-0.29241 0.20569-0.59616 0.2927-0.92731 0.05023-0.19132 0.09432-0.38598 0.13751-0.58886 0.07486-0.3506 0.13459-0.71666 0.18662-1.0975 0.02509-0.18424 0.05529-0.35936 0.07465-0.54973 0.06034-0.59016 0.10019-1.1996 0.10019-1.837 0-0.52871-0.02309-1.0437-0.06482-1.5416-0.0092-0.10859-0.02826-0.20622-0.03929-0.31302-0.03937-0.38364-0.08331-0.76353-0.14537-1.121-0.01375-0.07873-0.03236-0.14768-0.04714-0.22498-0.13425-0.70573-0.30889-1.3493-0.52054-1.9133l-0.01768-0.60255c0.01382-0.03782 0.02668-0.09461 0.04126-0.12716zm19.529 9.8658 0.6188 0.73559c1.3209 1.5722 3.4365 5.3279 4.3277 7.6806 0.74115 1.9567 1.7989 6.3862 1.7994 7.5397 6.1e-5 0.12864-0.33395 0.21913-0.99401 0.28171-0.18421-0.06265-0.36097-0.12844-0.55987-0.1839-0.0012-3.27e-4 -0.0027 3.25e-4 -0.0039 0-0.34391-0.09577-0.7136-0.17626-1.0962-0.24846-0.07763-0.01473-0.14686-0.03325-0.22591-0.04695-0.35893-0.0618-0.7404-0.10557-1.1256-0.14477-0.10724-0.01099-0.20527-0.03001-0.31431-0.03912-0.49993-0.04157-1.0171-0.06457-1.548-0.06457-0.64005 0-1.252 0.03968-1.8446 0.09977-0.19116 0.01928-0.36701 0.04935-0.55201 0.07434-0.38243 0.05182-0.75001 0.1113-1.1021 0.18585-0.20372 0.04301-0.39919 0.08692-0.5913 0.13694-0.33252 0.08665-0.63753 0.18567-0.93115 0.29149-0.1616 0.05824-0.33676 0.10862-0.48522 0.17216-0.01805 0.0077-0.04108 0.01373-0.05893 0.02152-0.15905-0.0207-0.28017-0.05437-0.38503-0.0939-0.01224-0.0229-0.03124-0.0366-0.04126-0.0626-0.10062-0.26111-0.38962-0.3952-0.6463-0.30323-0.03858-0.09587-0.08309-0.18319-0.14144-0.25628a16.093 16.026 0 0 0-2.6972-6.4833c-0.0098-0.08772-0.03984-0.17611-0.07661-0.26606 0.18342-0.18706 0.33395-0.56323 0.33396-0.84514 1e-6 -0.05983 0.06636-0.16454 0.14734-0.2778 0.0031-0.0012 0.0067-0.0027 0.0099-0.0039 0.1421-0.05662 0.29299-0.14106 0.44004-0.20933 0.29228-0.13565 0.58861-0.2861 0.89579-0.46561 0.15961-0.09332 0.31691-0.19266 0.47933-0.29736 0.31839-0.20499 0.63826-0.43213 0.96258-0.67885 0.13674-0.1041 0.26966-0.19987 0.40664-0.31106 0.46424-0.37644 0.9279-0.78126 1.383-1.2345 0.37868-0.37712 0.73053-0.75968 1.0569-1.1445 0.03774-0.04454 0.06712-0.08847 0.10412-0.13303 0.2833-0.3408 0.5513-0.68144 0.78971-1.0193 0.01829-0.02596 0.0311-0.05038 0.04911-0.0763 0.24414-0.35062 0.46628-0.69642 0.65809-1.0349 0.02648-0.04682 0.04331-0.09045 0.06876-0.13694 0.17158-0.31296 0.32516-0.62121 0.44789-0.91557 4e-3 -0.0096 0.01177-0.01976 0.01572-0.02935 0.19959-0.12971 0.30827-0.17004 0.42629-0.21324zm-43.467 0.1389c0.12626 0.02395 0.29473 0.13835 0.49897 0.31693 0.1025 0.2279 0.223 0.46412 0.3536 0.70233 0.02545 0.0465 0.04227 0.09013 0.06876 0.13694 0.1918 0.33848 0.41395 0.68429 0.65809 1.0349 0.01929 0.02775 0.03343 0.05436 0.05304 0.08216 0.23727 0.33585 0.50417 0.67461 0.78578 1.0134 0.03899 0.04698 0.07018 0.0939 0.11001 0.14086 0.32453 0.38219 0.67483 0.76204 1.051 1.1366 0.45507 0.45319 0.91873 0.85801 1.383 1.2345 0.13698 0.11118 0.2699 0.20696 0.40664 0.31106 0.32432 0.24672 0.64418 0.47386 0.96258 0.67885 0.16241 0.10471 0.31972 0.20404 0.47933 0.29736 0.30718 0.17951 0.60351 0.32996 0.89579 0.46561 0.14705 0.06827 0.29794 0.1527 0.44004 0.20933 0.0056 0.0022 0.01206 0.0056 0.01768 0.0078 0.07625 0.10824 0.13948 0.21074 0.13948 0.26998 0 0.28404 0.15054 0.66196 0.33396 0.84905-0.04334 0.10601-0.07097 0.20898-0.07661 0.31106a16.093 16.026 0 0 0-2.6697 6.4109c-0.06965 0.07929-0.12477 0.1739-0.16894 0.28367-0.25677-0.09186-0.54856 0.04992-0.6522 0.31888-0.0063 0.01644-0.0167 0.02515-0.02358 0.04109-0.10758 0.04178-0.23098 0.07818-0.39682 0.09977-0.01785-0.0078-0.04087-0.0138-0.05893-0.02152-0.14845-0.06354-0.32362-0.11392-0.48522-0.17216-0.29362-0.10582-0.59863-0.20484-0.93115-0.29149-0.19211-0.05002-0.38758-0.09394-0.5913-0.13694-0.35205-0.07455-0.71963-0.13404-1.1021-0.18585-0.185-0.02499-0.36085-0.05506-0.55201-0.07434-0.59261-0.06009-1.2046-0.09977-1.8446-0.09977-0.5309 0-1.0481 0.023-1.548 0.06456-0.10904 0.0091-0.20708 0.02815-0.31431 0.03912-0.38524 0.0392-0.7667 0.08297-1.1256 0.14477-0.07906 0.01369-0.14829 0.03222-0.22591 0.04695-0.38396 0.07246-0.75508 0.15226-1.1001 0.24846-0.01335 0.0037-0.02404 8e-3 -0.03732 0.01174-0.17794 0.05029-0.33685 0.11019-0.5029 0.16629-0.69794-0.0447-1.0137-0.13445-1.0137-0.27584 4.53e-4 -1.2831 1.1008-5.7224 1.9841-8.0034 0.90042-2.3252 3.3186-6.4572 4.5163-7.7178 0.07798-0.08208 0.16857-0.11755 0.28288-0.09586zm21.32 14.52c0.60038-0.0438 1.2313 0.04931 1.8603 0.31106 2.3147 0.96315 3.2087 3.8441 1.823 5.8769-0.4363 0.64005-1.1672 1.3512-1.6226 1.5807-1.9956 1.0056-4.6753-0.0079-5.5535-2.1011-1.1413-2.7201 0.89116-5.4777 3.4928-5.6675zm-16.67 5.8788c0.12236 0.01594 0.21611 0.04251 0.30449 0.07043 0.02867 0.03186 0.06766 0.05203 0.09036 0.09195 0.13666 0.24037 0.43205 0.36248 0.67381 0.29149 3.58e-4 9.09e-4 0.0016 1e-3 2e-3 2e-3 0.04437 0.1115 0.10037 0.20728 0.17091 0.28758a16.093 16.026 0 0 0 2.6697 6.4109c0.0056 0.10208 0.03327 0.20505 0.07661 0.31106-0.18345 0.18727-0.33396 0.57534-0.33396 0.87253 0 0.05563-0.05375 0.1443-0.10608 0.23085-0.01628 0.0064-0.03472 0.01695-0.05107 0.02348-0.1421 0.05662-0.29299 0.14106-0.44004 0.20933-0.29228 0.13565-0.58861 0.2861-0.89579 0.46561-0.15961 0.09332-0.31691 0.19266-0.47933 0.29736-0.31839 0.20499-0.63826 0.43213-0.96258 0.67885-0.13674 0.1041-0.26966 0.19987-0.40664 0.31106-0.46424 0.37644-0.9279 0.78126-1.383 1.2345-0.37615 0.3746-0.72645 0.75444-1.051 1.1366-0.03982 0.04696-0.07101 0.09388-0.11001 0.14086-0.28161 0.33878-0.54851 0.67754-0.78578 1.0134-0.0196 0.02781-0.03374 0.05441-0.05303 0.08217-0.24414 0.35062-0.46628 0.69642-0.65809 1.0349-0.02648 0.04682-0.04331 0.09045-0.06876 0.13694-0.17158 0.31296-0.32516 0.62121-0.44789 0.91557-4e-3 0.0096-0.01177 0.01976-0.01572 0.02935-0.2154 0.13999-0.33288 0.1865-0.45968 0.23085l-1.049-1.3968c-1.7284-2.2989-2.822-4.2812-3.8346-6.9548-0.77145-2.0368-1.8289-6.4553-1.8289-7.6415 0-0.15476 0.28231-0.24449 0.92526-0.28563 0.19268 0.06712 0.38207 0.1365 0.5913 0.19563 0.01329 0.0038 0.02398 8e-3 0.03732 0.01174 0.34501 0.0962 0.71613 0.176 1.1001 0.24846 0.07763 0.01473 0.14686 0.03325 0.22591 0.04695 0.35893 0.0618 0.7404 0.10557 1.1256 0.14477 0.10724 0.01099 0.20528 0.03001 0.31431 0.03912 0.49993 0.04156 1.0171 0.06456 1.548 0.06456 0.64005 0 1.252-0.03969 1.8446-0.09978 0.19116-0.01928 0.36701-0.04935 0.55201-0.07434 0.38243-0.05181 0.75001-0.1113 1.1021-0.18585 0.20372-0.04301 0.39919-0.08692 0.5913-0.13694 0.33252-0.08665 0.63753-0.18567 0.93115-0.2915 0.1616-0.05823 0.33676-0.10862 0.48522-0.17216 0.01805-0.0077 0.04108-0.01373 0.05893-0.02152zm34.13 0c0.01785 0.0078 0.04087 0.0138 0.05893 0.02151 0.14845 0.06355 0.32362 0.11392 0.48522 0.17216 0.29362 0.10582 0.59863 0.20484 0.93115 0.2915 0.19211 0.05002 0.38758 0.09393 0.5913 0.13694 0.35205 0.07455 0.71963 0.13404 1.1021 0.18585 0.185 0.02499 0.36085 0.05506 0.55201 0.07434 0.59261 0.0601 1.2046 0.09977 1.8446 0.09977 0.5309 0 1.0481-0.023 1.548-0.06456 0.10904-0.0091 0.20708-0.02815 0.31431-0.03912 0.38524-0.03921 0.7667-0.08297 1.1256-0.14477 0.07905-0.01369 0.14829-0.03222 0.22591-0.04695 0.38396-0.07246 0.75508-0.15226 1.1001-0.24846 0.01335-0.0037 0.02404-8e-3 0.03732-0.01174 0.20297-0.05736 0.3862-0.12487 0.57362-0.18976 0.66511 0.04106 0.94294 0.13235 0.94294 0.28367 0 0.22173-0.21418 1.5162-0.4754 2.8758-0.65685 3.4189-2.2556 7.381-4.0861 10.128-1.6013 2.4031-2.0305 3.1076-2.6481 2.6587-0.11678-0.273-0.26806-0.56046-0.42628-0.84905-0.02545-0.0465-0.04227-0.09013-0.06876-0.13694-0.20588-0.36332-0.44118-0.73426-0.7072-1.1112-0.0013-0.0018-0.0026-4e-3 -0.0039-0.0059-0.26838-0.37988-0.56506-0.76342-0.8899-1.1464-2e-3 -0.0024-0.0038-0.0054-0.0059-0.0078-0.32453-0.38219-0.67483-0.76204-1.051-1.1366-0.45507-0.45319-0.91873-0.85801-1.383-1.2345-0.13698-0.11118-0.2699-0.20696-0.40664-0.31106-0.32432-0.24672-0.64418-0.47386-0.96258-0.67885-0.16241-0.10471-0.31972-0.20404-0.47933-0.29736-0.30718-0.17951-0.60351-0.32996-0.89579-0.46561-0.14705-0.06827-0.29794-0.1527-0.44004-0.20933-0.0207-0.0082-0.04424-0.02134-0.06482-0.02935-0.03745-0.0485-0.05394-0.08671-0.0825-0.13107-0.0013-0.01589-0.0099-0.03345-0.0099-0.04891 0-0.3211-0.15045-0.72995-0.33396-0.91752 0.04334-0.10601 0.07097-0.20898 0.07661-0.31106a16.093 16.026 0 0 0 2.6697-6.4109c0.07054-0.0803 0.12654-0.17608 0.17091-0.28758 0.0052-0.01327 0.01676-0.01962 0.0216-0.03326 0.1208-0.03846 0.2101-0.10107 0.30646-0.15846 0.17469-0.0384 0.33585-0.09367 0.42628-0.19172 0.09066-0.02934 0.18924-0.05584 0.31628-0.07239zm-26.573 11.008c0.09986 0.0383 0.19662 0.0632 0.2927 0.06847a16.093 16.026 0 0 0 6.4375 2.6587c0.08063 0.07025 0.17681 0.12602 0.28877 0.1702 0.0024 9.36e-4 0.0035 3e-3 0.0059 0.0039-0.05749 0.23705 0.05575 0.55731 0.28092 0.74341 0.0593 0.04901 0.09717 0.11226 0.13751 0.17411 0.01071 0.04968 0.02576 0.08662 0.03339 0.14477-0.0078 0.01778-0.01386 0.04071-0.02161 0.05869-0.06381 0.14784-0.1144 0.32228-0.17287 0.48322-0.10626 0.29241-0.20569 0.59616-0.2927 0.92731-0.05023 0.19132-0.09432 0.38598-0.13751 0.58886-0.07486 0.3506-0.13459 0.71666-0.18662 1.0975-0.02509 0.18424-0.05529 0.35936-0.07465 0.54973-0.06034 0.59016-0.10019 1.1996-0.10019 1.837 0 0.52871 0.02309 1.0437 0.06482 1.5416 0.0092 0.10859 0.02826 0.20622 0.03929 0.31302 0.03937 0.38364 0.08331 0.76353 0.14537 1.121 0.01375 0.07873 0.03236 0.14768 0.04714 0.22498 0.07249 0.38098 0.15332 0.74915 0.24948 1.0916 4e-3 0.01446 0.0076 0.02669 0.01179 0.04109 0.07868 0.27609 0.16672 0.53385 0.25931 0.78058l0.01768 0.60255c-0.01363 0.03729-0.0269 0.09305-0.04126 0.12521l-0.96062-0.02543c-1.7913-0.04742-5.0293-0.88473-7.7085-1.9955-3.0439-1.262-7.5474-4.1536-7.5474-4.8459 0-0.10816 0.03285-0.19758 0.07072-0.2778 0.0071-0.0029 0.0145-0.0088 0.0216-0.01174 0.29558-0.12223 0.60511-0.27517 0.91936-0.44605 0.04669-0.02534 0.0905-0.0421 0.13751-0.06847 0.73439-0.41272 1.5046-0.94818 2.2729-1.5944 0.0024-2e-3 0.0054-0.0038 0.0078-0.0059 0.38378-0.32319 0.7652-0.67205 1.1413-1.0466 0.45507-0.45319 0.86157-0.91494 1.2396-1.3773 0.11164-0.13642 0.20782-0.26879 0.31235-0.40496 0.24774-0.32298 0.47583-0.64153 0.68166-0.95861 0.10514-0.16174 0.20489-0.3184 0.2986-0.47735 0.18026-0.30591 0.33133-0.60102 0.46754-0.89209 0.06732-0.1438 0.15219-0.29134 0.20823-0.4304 0.13454-0.09499 0.24999-0.15527 0.33199-0.15651 0.31181-0.0047 0.65435-0.15096 0.76221-0.32475 0.0063-0.01018 0.04615-0.0012 0.05893-0.0078zm18.984 0.0098c0.02876 0.0063 0.088-0.0047 0.09823 0.01174 0.10296 0.1659 0.44254 0.30635 0.75435 0.31106 0.082 0.0012 0.19746 0.06152 0.33199 0.15651 0.05604 0.13905 0.14091 0.2866 0.20823 0.4304 0.13621 0.29107 0.28728 0.58618 0.46754 0.89209 0.09371 0.15895 0.19346 0.31561 0.2986 0.47735 0.20584 0.31708 0.43392 0.63563 0.68166 0.95861 0.10453 0.13618 0.2007 0.26854 0.31235 0.40496 0.378 0.46233 0.7845 0.92407 1.2396 1.3773 0.37615 0.3746 0.75757 0.72346 1.1413 1.0466 0.04715 0.03966 0.09427 0.07072 0.14144 0.10956 0.34018 0.28045 0.68034 0.54624 1.0176 0.78254 0.02792 0.01952 0.05463 0.0336 0.08251 0.05282 0.35207 0.24314 0.69931 0.46436 1.0392 0.65538 0.04701 0.02637 0.09082 0.04313 0.13751 0.06847 0.31426 0.17087 0.62378 0.32382 0.91936 0.44605 0.0097 4e-3 0.01984 0.01172 0.02947 0.01566 0.04677 0.07138 0.04565 0.09741 0.07661 0.1526-0.13739 0.4127-0.85796 1.1383-2.0037 1.9387-2.7128 1.8951-6.3663 3.571-9.5472 4.3783-1.4586 0.37019-3.1175 0.67294-3.6873 0.67298h-0.99205c-0.01457-0.03255-0.02743-0.08935-0.04126-0.12716l0.01768-0.60255c0.21166-0.56404 0.3863-1.2076 0.52058-1.9133 0.01479-0.0773 0.03339-0.14625 0.04714-0.22498 0.06206-0.35745 0.106-0.73734 0.14537-1.121 0.01103-0.10679 0.03013-0.20443 0.03929-0.31302 0.04173-0.49786 0.06482-1.0129 0.06482-1.5416 0-0.63741-0.03985-1.2468-0.10019-1.837-0.01936-0.19037-0.04955-0.36549-0.07465-0.54973-0.05203-0.38085-0.11176-0.74691-0.18662-1.0975-0.04319-0.20288-0.08728-0.39754-0.13751-0.58886-0.08701-0.33114-0.18644-0.6349-0.2927-0.92731-0.05848-0.16093-0.10907-0.33538-0.17287-0.48322-0.0077-0.01798-0.01379-0.04091-0.02161-0.05869 0.0076-0.05814 0.02269-0.09509 0.03339-0.14477 0.04034-0.06185 0.07821-0.1251 0.13751-0.17411 0.22314-0.18442 0.33417-0.50321 0.27895-0.74341 0.0029-0.0011 0.0049-0.0028 0.0078-0.0039 0.11196-0.04418 0.20814-0.09995 0.28877-0.1702a16.093 16.026 0 0 0 6.4375-2.6587c0.08609-0.0047 0.17178-0.02739 0.26127-0.05869z"/></svg>
