<svg width="100" height="100" version="1.1" viewBox="0 0 100 100" xmlns="http://www.w3.org/2000/svg"><path d="m3.2137 99.724c-1.1879-0.19327-2.1492-0.83407-2.8005-1.8669-0.78336-1.2423-0.55331-3.187 1.5647-13.227 1.0192-4.8314 2.6073-12.447 3.5292-16.923 2.1055-10.224 2.0728-10.1 2.961-11.178 0.72912-0.88454 2.4711-1.9223 2.7532-1.6401 0.07949 0.07955-1.1412 6.5711-2.7127 14.426-3.739 18.689-4.7084 23.717-4.7082 24.422 8.8e-5 0.31972 0.23269 0.81386 0.51689 1.0981 0.51279 0.51279 0.86122 0.51672 45.673 0.51672 49.499 0 46.305 0.10132 46.305-1.4691 0-0.71686-2.4515-13.709-5.5241-29.276-1.0518-5.3287-1.8763-9.7276-1.8322-9.7753 0.2205-0.23859 2.0392 0.90995 2.6888 1.698 0.8858 1.0746 0.84733 0.92929 2.9589 11.178 0.92229 4.4762 2.518 12.091 3.546 16.923 2.2257 10.46 2.2758 12.748 1.1207 14.102-0.40405 0.47345-0.71902 0.77318-1.3736 0.99205 0 0-92.901 0.28726-94.667 0zm8.9967-7.6994c0.44116-0.40826 5.0987-2.021 7.6089-2.6346 3.541-0.86565 9.9669-0.87729 14.191-0.02562 2.9425 0.59324 8.1953 2.2007 8.6615 2.6506 0.14888 0.14367-5.8433 0.23687-15.231 0.23687-8.9132 0-15.372-0.09636-15.231-0.22714zm45.214-0.01001c0.46619-0.4499 5.719-2.0573 8.6615-2.6506 4.2241-0.8516 10.65-0.83996 14.191 0.02572 2.5102 0.61365 7.1677 2.2263 7.6089 2.6346 0.14136 0.1308-6.3175 0.22712-15.231 0.22712-9.3874 0-15.38-0.09326-15.231-0.23687zm-11.639-2.1391c-3.2772-1.4631-7.8162-2.9181-11.265-3.6111-3.9107-0.78578-11.072-0.85172-14.443-0.133-3.0127 0.64236-6.9209 1.9734-9.9493 3.3886-1.3943 0.65154-2.563 1.1548-2.5973 1.1183-0.14492-0.15434 7.5999-38.769 7.8054-38.917 2.4883-1.7884 6.175-3.4292 10.082-4.4871 2.8161-0.76253 3.36-0.8266 6.9314-0.81642 3.1352 9e-3 4.2573 0.11635 5.8743 0.56231 2.5518 0.70377 6.2949 2.5439 8.5296 4.1933l1.744 1.2872v19.249c0 10.587-0.0872 19.239-0.19378 19.226-0.10657-0.01261-1.2402-0.49018-2.5191-1.0611zm5.8132-18.143v-19.227l1.4856-1.187c1.955-1.5621 6.1364-3.6241 8.7199-4.3002 5.8962-1.5429 12.786-0.60272 19.377 2.6443 3.3045 1.6278 3.7244 1.9619 4.0245 3.2014 0.4157 1.7171 7.4276 37.704 7.3602 37.775-0.03472 0.03652-1.2038-0.46678-2.598-1.1183-3.0284-1.4152-6.9366-2.7463-9.9493-3.3886-3.0975-0.66044-10.247-0.65323-13.823 0.01391-3.5354 0.65959-7.7754 1.97-11.383 3.5182-1.6614 0.71286-3.0642 1.2961-3.1175 1.2961-0.05324 0-0.09681-8.6522-0.09681-19.227zm14.699-5.1251c0.78421-3.3094 1.3313-4.2346 2.9498-4.9889 0.73788-0.34389 2.2427-0.8203 3.3439-1.0587 1.1013-0.23839 2.0023-0.50241 2.0023-0.58668 0-0.08425-1.0511-0.40434-2.3358-0.71124-4.2719-1.0205-4.9751-1.7288-5.9702-6.0146l-0.5679-2.4457-0.35572 1.7601c-0.52794 2.6122-1.2957 4.4495-2.1648 5.1808-0.81999 0.68996-3.2206 1.5322-5.2234 1.8325-0.66516 0.09976-1.2094 0.25791-1.2094 0.35149 0 0.09356 0.94379 0.36529 2.0973 0.60382 4.5458 0.93994 5.5501 1.9986 6.4893 6.8404 0.17085 0.8808 0.33267 1.5784 0.35961 1.5502 0.02694-0.02822 0.2902-1.0692 0.58503-2.3134zm-40.965-22.575c-0.42147-2.2804-1.2027-4.7538-1.9095-6.0452-0.80609-1.4729-2.8079-2.5069-6.5234-3.3695-1.5622-0.36269-2.3713-0.64712-1.9883-0.69894 1.392-0.18836 5.4713-1.3613 6.4231-1.8468 1.9668-1.0034 2.906-2.8578 3.9057-7.7114 0.33191-1.6115 0.50426-2.0699 0.60464-1.6081 0.79292 3.6477 1.3323 5.5331 1.9773 6.9113 0.71518 1.5283 0.86857 1.682 2.3883 2.3931 1.7037 0.7972 5.2545 1.8052 6.359 1.8052 1.0733 0 0.5431 0.20154-1.9774 0.75162-2.6983 0.58893-5.1664 1.6042-5.9642 2.4535-0.69566 0.74047-1.6526 3.1434-2.2219 5.5793-0.70256 3.006-0.76018 3.0804-1.0733 1.386zm50.314-7.9743c-0.50157-2.5045-1.2862-4.6666-1.9042-5.2471-0.83888-0.78809-2.6433-1.5184-4.6731-1.8915l-1.7785-0.32686 2.0784-0.4471c2.214-0.4763 3.4511-0.99724 4.3765-1.8431 0.61032-0.55782 1.3892-2.6936 1.9071-5.2295l0.31657-1.5502 0.29568 1.5502c0.49633 2.6021 1.2195 4.5299 1.9875 5.2978 0.77771 0.77771 2.2168 1.3433 4.897 1.9248 0.90761 0.19689 1.3674 0.36724 1.0219 0.37854-1.0247 0.03352-4.5286 1.0522-5.3617 1.5589-0.99609 0.60576-1.8053 2.3499-2.3884 5.148l-0.46414 2.2272zm-21.814-3.4879c-0.08033-0.35525-0.27494-1.3435-0.43247-2.1961-0.97045-5.2522-2.3841-8.8086-4.0457-10.178-1.5258-1.2577-5.0273-2.4409-9.8983-3.3448l-2.4545-0.45546 2.4545-0.44742c4.8758-0.88878 8.8157-2.2754 10.296-3.6235 1.2594-1.1471 2.4934-4.3288 3.4032-8.7739 0.29605-1.4466 0.6029-2.9208 0.68186-3.2761 0.09856-0.4434 0.33238 0.28002 0.74574 2.3074 0.81043 3.9748 1.7319 6.8309 2.7567 8.5439 0.72868 1.2181 1.1089 1.5505 2.6632 2.3279 1.7301 0.86527 5.5481 1.9584 9.1659 2.6242l1.6794 0.30909-2.9356 0.57755c-5.8188 1.1448-9.1562 2.543-10.423 4.3667-1.0026 1.4435-1.9572 4.3111-2.7952 8.3968-0.48408 2.3602-0.76258 3.2791-0.86141 2.842z"/></svg>
