<svg width="100" height="100" version="1.1" viewBox="0 0 100 100" xmlns="http://www.w3.org/2000/svg"><path d="m50 9a8.2 8.2 0 0 0-8.1992 8.1992v24.602h-24.602a8.2 8.2 0 0 0-8.1992 8.1992 8.2 8.2 0 0 0 8.1992 8.1992h24.602v24.602a8.2 8.2 0 0 0 8.1992 8.1992 8.2 8.2 0 0 0 8.1992-8.1992v-24.602h24.602a8.2 8.2 0 0 0 8.1992-8.1992 8.2 8.2 0 0 0-8.1992-8.1992h-24.602v-24.602a8.2 8.2 0 0 0-8.1992-8.1992zm12.199 53.576v2.6699c16.542 2.0111 27.774 7.8452 27.801 14.439-6.59e-4 8.3869-17.909 15.186-40 15.186-22.091 1.05e-4 -39.999-6.7987-40-15.186 0.026435-6.5942 11.259-12.428 27.801-14.439v-2.666c-22.217 2.1241-37.794 9.7142-37.801 18.42 0 10.493 22.386 19 50 19s50-8.5066 50-19c-0.0024-8.7072-15.58-16.299-37.801-18.424z"/></svg>