<svg width="100" height="100" version="1.1" viewBox="0 0 100 100" xmlns="http://www.w3.org/2000/svg"><path d="m40.143 0.003653c-3.861-0.051573-7.9367 0.43938-12.152 1.6994-3.747 1.2206-9.2109 4.2819-9.2109 4.2819s8.2837 0.71606 9.6955 0.89465c3.9801 0.45766 20.224 3.0484 28.599 15.24l11.599-11.605c0.07824-0.07848 0.16367-0.14585 0.24424-0.22073-5.1762-3.7735-15.741-10.116-28.776-10.29zm34.804 12.909c-1.0245 5.95e-4 -2.0067 0.40894-2.7297 1.1349l-11.882 11.884c-1.5043 1.5103-1.5043 3.9533 0 5.4637l8.236 8.2394c1.5284 1.4586 3.9328 1.4586 5.4612 0l11.882-11.886c0.7272-0.72457 1.1345-1.71 1.1313-2.7367 0.01344-1.0259-0.39571-2.012-1.1313-2.727l-8.2359-8.2375c-0.72358-0.72646-1.7065-1.1348-2.7317-1.1349zm14.738 18.114c-0.08173 0.08843-0.1566 0.1823-0.24229 0.26761l-11.585 11.587c12.171 8.39 14.767 24.64 15.271 28.625 0.17709 1.4144 1.2271 9.7064 1.2271 9.7064s2.6513-4.9741 3.949-9.222c5.5049-18.496-3.7401-34.326-8.6189-40.964zm-32.409 4.3873-56.275 56.314c-0.46557 0.48519-0.9972 1.776-1.0019 3.1222 8.5839e-4 2.8442 2.3076 5.1493 5.1526 5.1492 1.359-5e-3 2.661-0.54605 3.1447-1.0231l56.265-56.279z"/></svg>
