<svg width="100" height="100" version="1.1" viewBox="0 0 100 100" xmlns="http://www.w3.org/2000/svg"><path d="m34 2.5273a14 14 45 0 0-14 14 14 14 45 0 0-14 14 14 14 45 0 0 14 14h20 3 3c1.108-1e-6 2-0.892 2-2v-3-3-20a14 14 45 0 0-14-14zm32 0a14 14 45 0 0-14 14v20 3 3c-2e-6 1.108 0.892 2 2 2h3 3 20a14 14 45 0 0 14-14 14 14 45 0 0-14-14 14 14 45 0 0-14-14zm-46 46a14 14 45 0 0-14 14 14 14 45 0 0 14 14 14 14 45 0 0 14 14 14 14 45 0 0 14-14v-20-3-3c1e-6 -1.108-0.892-2-2-2h-3-3-20zm34 0c-1.108 1e-6 -2 0.892-2 2v3 3 20a14 14 45 0 0 14 14 14 14 45 0 0 14-14 14 14 45 0 0 14-14 14 14 45 0 0-14-14h-20-3-3zm-4 36.049c-0.95601 1.8834-2.2313 3.5794-3.748 5.0195-0.029343 1.0732-0.095619 2.1945-0.22461 3.2988-0.24552 2.1019-1.2018 4.892-2.0684 7.1055h8.6016c0.62168-1.9261 1.1647-4.0598 1.4121-6.1777 0.15063-1.2896 0.23428-2.5634 0.27539-3.7734-1.7376-1.5322-3.1892-3.3867-4.248-5.4727z"/></svg>
