<svg width="100" height="100" version="1.1" viewBox="0 0 100 100" xmlns="http://www.w3.org/2000/svg"><path d="m58.682 0.75961c-27.142-4.7859-53.137 13.416-57.923 40.558s13.416 53.137 40.558 57.923c27.142 4.7859 53.137-13.416 57.923-40.558 4.7859-27.142-13.416-53.137-40.558-57.923zm-3.0465 8.6393-5.6609 32.104c-1.2428 6e-3 -2.4456 0.2882-3.5358 0.79656l-18.723-26.74c7.9925-5.1721 17.799-7.5752 27.92-6.1614zm2.9544 0.52094c9.9941 2.133 18.387 7.7452 24.129 15.339l-26.74 18.723c-0.85053-0.85055-1.8844-1.5271-3.0501-1.9578zm-33.331 7.361 18.723 26.74c-0.85055 0.85053-1.5271 1.8844-1.9578 3.0501l-32.104-5.6609c2.133-9.9941 7.7452-18.387 15.339-24.129zm59.181 10.435c5.1721 7.9925 7.5752 17.799 6.1614 27.92l-32.104-5.6609c-6e-3 -1.2428-0.2882-2.4456-0.79656-3.5358zm-33.919 19.33c1.6638 0.29336 2.7268 1.8116 2.4335 3.4754-0.29336 1.6638-1.8116 2.7268-3.4754 2.4335-1.6638-0.29336-2.7268-1.8116-2.4335-3.4754 0.29336-1.6638 1.8116-2.7268 3.4754-2.4335zm-41.122-2.6815 32.104 5.6609c6e-3 1.2428 0.2882 2.4456 0.79656 3.5358l-26.74 18.723c-5.1721-7.9925-7.5752-17.799-6.1614-27.92zm48.577 8.5654 32.104 5.6609c-2.133 9.9941-7.7452 18.387-15.339 24.129l-18.723-26.74c0.85055-0.85053 1.5271-1.8844 1.9578-3.0501zm-13.955 3.0884c0.85053 0.85055 1.8844 1.5271 3.0501 1.9578l-5.6609 32.104c-9.9941-2.133-18.387-7.7452-24.129-15.339zm9.5403 1.6822 18.723 26.74c-7.9925 5.1721-17.799 7.5752-27.92 6.1614l5.6609-32.104c1.2428-6e-3 2.4456-0.2882 3.5358-0.79656z"/></svg>
