<svg width="100" height="100" version="1.1" viewBox="0 0 100 100" xmlns="http://www.w3.org/2000/svg"><path d="m52.61 0.0040522c-0.05402 0.090523-0.52216 1.5656-1.0412 3.2777-0.51903 1.7121-1.0027 3.1699-1.0746 3.2384-0.07191 0.068545-1.6143 0.57775-3.4281 1.1319-1.8138 0.55413-3.1745 1.0524-3.0234 1.1063 0.15115 0.053935 1.6758 0.52625 3.3888 1.0513 1.713 0.52506 3.1289 0.96347 3.1452 0.97271 0.01626 0.0093 0.45112 1.4188 0.96654 3.1323 0.51542 1.7135 0.98401 3.2385 1.0412 3.3897 0.05719 0.15119 0.55807-1.2099 1.1139-3.0242 0.5558-1.8143 1.0649-3.3583 1.1316-3.431 0.06668-0.0727 1.5208-0.5582 3.2316-1.0788 1.7109-0.52062 3.1716-0.99995 3.2454-1.0651 0.07381-0.065114-1.3656-0.57479-3.2002-1.1338l-3.3357-1.0159-1.0314-3.3583c-0.5669-1.8465-1.0756-3.2837-1.1296-3.1932zm-38.628 0.031441c-0.06508 0.073816-0.5443 1.5349-1.0648 3.2463-0.52047 1.7114-1.0058 3.1692-1.0785 3.2404-0.07269 0.071177-1.5925 0.56761-3.377 1.1024-1.7845 0.53479-3.1852 1.0206-3.1138 1.0808 0.071483 0.060146 1.5812 0.54813 3.3554 1.0847l3.2257 0.97664 0.98815 3.2679c0.54345 1.7974 1.0357 3.2672 1.0942 3.2679 0.05855 6.52e-4 0.54892-1.4512 1.0903-3.2266 0.77205-2.5318 1.0654-3.2607 1.3594-3.3838 0.20619-0.08636 1.6521-0.54297 3.2139-1.014 1.5619-0.471 2.8994-0.90921 2.9723-0.97271 0.07295-0.063496-1.3671-0.5712-3.2022-1.1299l-3.3377-1.0159-1.0039-3.3288c-0.55226-1.831-1.0567-3.269-1.1217-3.1952zm76.119 2.4622a7.0415 7.0435 0 0 0-4.3514 1.9651l-83.751 83.578a7.0415 7.0435 0 0 0 3.1806 11.708 7.0415 7.0435 0 0 0 6.7658-1.7352l83.749-83.578a7.0415 7.0435 0 0 0-3.1806-11.708 7.0415 7.0435 0 0 0-2.4124-0.22991zm-56.757 1.295c-0.04764-0.047652-0.17343 0.23084-0.27896 0.61899-0.10553 0.38815-0.96052 3.2218-1.8997 6.2961l-1.7072 5.5886-1.4557 0.48144c-0.80091 0.26504-3.6206 1.1325-6.2648 1.9258-2.6443 0.7933-4.8083 1.4901-4.8091 1.5485-8.36e-4 0.05835 2.8183 0.96876 6.2648 2.024l6.2668 1.9179 1.9193 6.357c1.0558 3.4962 1.9395 6.3374 1.9626 6.3137 0.02308-0.02371 0.91033-2.8773 1.9724-6.3413 1.062-3.464 1.9559-6.3174 1.9861-6.3413 0.03021-0.0239 2.9004-0.91386 6.3768-1.9788 3.4764-1.065 6.196-1.9827 6.0448-2.0378-0.15115-0.05512-2.9902-0.92917-6.31-1.9434-3.3198-1.0143-6.0698-1.878-6.1096-1.9179-0.03987-0.03988-0.92743-2.8518-1.9724-6.2489-1.0449-3.3971-1.9385-6.215-1.9861-6.2627zm57.372 2.6666c0.2616 0.00231 0.52179 0.038646 0.77402 0.10808 2.2171 0.6075 2.9682 3.3725 1.3634 5.0188l-20.508 20.464c0.57399-0.65738 0.06663-2.6762-0.75634-3.5096-0.82296-0.83338-2.5425-1.7095-3.1393-1.1299l20.14-20.099c0.56898-0.55261 1.3326-0.85897 2.1256-0.85284zm0.5815 32.245c-0.06509 0.07382-0.5443 1.5349-1.0648 3.2463-0.52047 1.7114-1.0058 3.1658-1.0785 3.2325-0.07268 0.0667-1.6163 0.57592-3.43 1.1319-1.8138 0.55596-3.1745 1.057-3.0234 1.1142 0.15115 0.0572 1.6758 0.52592 3.3888 1.0415 1.713 0.51556 3.1238 0.95054 3.1354 0.96681 0.01152 0.01626 0.44767 1.4326 0.96851 3.1461 0.52083 1.7135 0.99332 3.2385 1.049 3.3897 0.05573 0.15119 0.55194-1.2099 1.1041-3.0242 0.55212-1.8143 1.0709-3.3668 1.1532-3.4506 0.08231-0.08388 0.84039-0.35804 1.6836-0.60917s2.2337-0.6654 3.0902-0.91965c0.85651-0.25425 1.6324-0.50809 1.7229-0.56397 0.09049-0.05588-1.3522-0.56691-3.2041-1.1358l-3.3672-1.0336-1.0039-3.3327c-0.55294-1.8332-1.0586-3.2729-1.1237-3.1991z"/></svg>
