<svg width="100" height="100" version="1.1" viewBox="0 0 100 100" xmlns="http://www.w3.org/2000/svg"><path d="m1.7145 1.1695c-0.5645-0.0035307-1.118 0.27296-1.452 0.78783-0.29678 0.45766-0.33378 1.0376-0.15158 1.5516l5.5141 15.569 5.4842 15.483v6.66e-4l0.54647 1.5444c0.22983 0.64952 0.82733 1.0972 1.5151 1.1365l1.6355 0.09433 15.819 0.90819 7.0885 10.853c0.92032 1.4093 2.8663 1.6989 4.1577 0.61933 0.09826-0.08193 0.1646-0.13988 0.19191-0.16719l47.843 47.843c0.87135 0.87102 2.0131 1.307 3.1552 1.307 1.1422 0 2.2839-0.43563 3.1552-1.307 1.7427-1.7427 1.7427-4.5677 0-6.3104l-47.842-47.843c6.67e-4 -9.99e-4 2e-3 -0.0013 0.0033-0.0027 1.2737-1.2674 1.0564-3.3874-0.45344-4.3614l-10.851-6.9993-1.0071-17.53c-0.03964-0.68782-0.48734-1.2843-1.1365-1.5145l-1.5444-0.54712h-6.66e-4l-31.11-11.018c-0.18286-0.064786-0.37196-0.097065-0.56013-0.098234zm68.871 0.54517c-5.8708-0.17989-12.507 2.512-17.778 7.7833-6.4212 6.4212-9.0112 14.866-7.2492 21.487l3.5455 2.2926c1.4699-2.2717 3.8244-3.8607 6.5283-4.3477 3.1333-0.56425 6.3409 0.422 8.6192 2.638l-9.9997 9.9926 5.9006 5.883 9.9874-9.9881c2.217 2.2786 3.2062 5.4862 2.6419 8.6206-0.48764 2.708-2.4524 5.5648-5.1401 7.2219-0.61254 0.37772-0.61001 1.267 0.0052 1.6401v6.66e-4c6.8892 3.7169 17.095 1.4293 24.563-6.0385 7.6666-7.6673 9.8764-18.223 5.7301-25.11-0.14456-0.24016-0.4098-0.38127-0.68959-0.36562-0.28012 0.01565-0.52812 0.18529-0.6447 0.44043l-0.01692 0.03578c-1.1028 2.2623-2.966 4.1026-5.3073 5.0269-3.6849 1.4549-7.7743 0.5693-10.516-2.0981l2.5235-2.8716c0.442-0.44167 0.74886-1.0003 0.88476-1.6101l1.2224-5.4829c0.05629-0.25248-0.02075-0.51617-0.20362-0.6987-0.18286-0.18286-0.4459-0.25926-0.69805-0.20298l-5.4829 1.2224c-0.60988 0.1359-1.1688 0.44309-1.6108 0.88476l-2.5229 2.8709c-2.2167-2.2786-3.2058-5.4862-2.6413-8.6206 0.57224-3.1793 2.6664-5.8766 5.6046-7.2193 3.33e-4 -3.331e-4 9.99e-4 -3.174e-4 0.0013-6.662e-4 0.25483-0.11658 0.42415-0.36426 0.4398-0.64405 0.015655-0.27979-0.12481-0.54569-0.36496-0.69024-2.1521-1.2957-4.6626-1.9707-7.3312-2.0525zm-30.226 53.738-5.7691 5.775c-2.6157-0.62887-5.4993 0.05518-7.5276 2.1104-2.2433 2.2731-6.8218 6.8198-6.8218 6.8198l0.0013 2e-3 -15.025 15.024c-3.1217 3.122-3.1217 8.1834 0 11.305 1.5608 1.5612 3.6072 2.3414 5.6533 2.3414 2.0461 0 4.0915-0.78052 5.6527-2.3414l21.844-21.846c2.0383-2.0453 2.7393-4.9119 2.1104-7.5276l5.788-5.788z"/></svg>
