<svg width="100" height="100" version="1.1" viewBox="0 0 100 100" xml:space="preserve" xmlns="http://www.w3.org/2000/svg"><path d="m42.578 99.399c-11.072-1.7506-21.091-7.0348-28.819-15.199-18.284-19.316-18.284-49.086 0-68.401 7.8545-8.2977 17.84-13.504 29.21-15.231 15.737-2.39 32.016 3.34 43.272 15.231 14.474 15.29 17.796 37.346 8.4771 56.271-9.5391 19.372-31.074 30.66-52.14 27.329zm18.049-6.9592c6.8604-1.7736 13.01-5.1789 17.99-9.9619 2.6365-2.5321 2.6396-2.5376 1.8823-3.3471-0.41722-0.44596-1.5177-2.3929-2.4455-4.3265-1.5757-3.2838-1.6796-3.7024-1.5759-6.3477 0.24584-6.2717 0.22249-6.5255-0.85358-9.2773-0.58807-1.5039-1.4526-3.1475-1.9211-3.6524-0.80801-0.87072-1.0237-0.90479-4.1848-0.66092-3.7264 0.28747-5.0226-0.03176-6.7749-1.6685-1.6867-1.5755-2.569-3.8175-2.5789-6.5534-0.01044-2.8945 1.2803-5.7305 4.3283-9.5104l2.0276-2.5144-0.62891-1.6969c-0.95003-2.5633-0.24426-3.6764 3.0739-4.848 0.27496-0.09708 0.29666-0.7099 0.06556-1.8513-0.2792-1.379-0.56403-1.7887-1.4852-2.1364-0.62688-0.23662-1.1398-0.64924-1.1398-0.91692 0-0.60491 2.2852-3.2483 2.8082-3.2483 0.21092 0 0.92818 0.61523 1.5939 1.3672 2.3412 2.6444 4.8418 1.1188 3.2368-1.9748-0.67446-1.3-0.36898-2.0362 1.4288-3.4431 0.69302-0.54237 1.1775-1.0652 1.0766-1.1617-0.10087-0.09658-1.7802-1.146-3.7319-2.3321-3.5439-2.1537-6.0919-3.393-6.9761-3.393-0.25754 0-1.5105 1.0293-2.7843 2.2873-1.9978 1.9729-2.7615 2.4345-5.557 3.3585-2.3208 0.76709-3.6074 1.4485-4.5316 2.4002-1.4744 1.5182-2.8077 1.7064-4.1853 0.59088-0.8864-0.71777-0.89777-0.80502-0.41149-3.1594 0.58523-2.8334 0.18037-3.8393-1.8905-4.6971l-1.2344-0.51132 1.3018-0.55198c0.716-0.30359 2.7081-0.98383 4.4268-1.5116l3.125-0.95966-5.2734 0.17064c-5.865 0.18978-9.2543 0.80561-14.034 2.5499-3.3547 1.2243-7.9988 3.6374-8.4711 4.4017-0.46375 0.75037 3.4808 0.07454 6.1862-1.0599 3.669-1.5385 5.1743-1.8654 7.1947-1.5624 2.383 0.35736 4.0459 1.9306 4.0459 3.8277 0 1.5298-0.70372 2.3107-2.9151 3.2347l-1.5193 0.63479 1.2483 0.97698c1.9886 1.5563 3.0294 4.3278 2.5415 6.7676-0.19148 0.95742-0.42882 1.1719-1.2969 1.1719-0.58438 0-1.3807-0.35156-1.7695-0.78125-0.38886-0.42969-0.95794-0.78125-1.2646-0.78125-0.74335 0-9.2265 6.833-11.368 9.1566-0.93233 1.0116-2.1339 2.7976-2.6701 3.9688l-0.97491 2.1295-0.7992-1.016c-2.4611-3.1288-8.1185-1.3449-8.1185 2.5601 0 1.4859 0.77775 2.7407 1.6881 2.7235 0.25321-0.0048 0.89983-0.35243 1.4369-0.77256 1.2772-0.999 1.9531-0.98016 1.9531 0.05445 0 0.45964 0.50653 1.6589 1.1256 2.6651 0.61909 1.0061 1.2509 2.3998 1.404 3.0969 0.36693 1.6706 0.86079 1.7973 3.2831 0.84254 2.5223-0.99422 4.3902-1.0102 7.1484-0.06129 3.2131 1.1055 4.2793 1.7459 7.589 4.5586 3.075 2.6133 4.7078 3.6139 7.2243 4.4271 2.4474 0.79092 2.632 2.2007 0.82354 6.2916-0.42738 0.9668-0.89174 2.5697-1.0319 3.5619-0.17256 1.2216-0.669 2.2937-1.5376 3.3203-2.9352 3.4694-9.0057 13.765-9.4624 16.049-0.48907 2.4453 0.28003 2.8461 8.0432 4.1908 0.53711 0.09304 3.5254 0.10687 6.6406 0.03073 4.4494-0.10875 6.4771-0.34863 9.4554-1.1186zm-28.806-3.805c-0.97447-2.7547-1.3382-4.7733-1.7384-9.6465-0.53743-6.5455-1.0888-8.0904-3.9453-11.055-4.273-4.4352-4.8999-7.0061-2.7266-11.182 1.3152-2.5271 1.2735-3.4247-0.17598-3.7885-0.50988-0.12797-2.3305-1.2902-4.0459-2.5828-3.224-2.4294-5.2822-3.505-6.7067-3.505-1.0543 0-3.1075-2.0382-3.1075-3.0849 0-0.97995-2.1367-2.2536-2.5793-1.5375-0.51981 0.84107-0.64732 9.8788-0.18806 13.33 0.89519 6.727 3.3332 13.312 6.9446 18.756 2.1219 3.1992 7.0097 8.4481 10.053 10.796 2.2551 1.7398 8.4728 5.5726 8.6891 5.3563 0.07448-0.07448-0.13856-0.9099-0.47343-1.8565zm55.886-52.482c1.4701-0.61426 1.8076-1.3871 0.60578-1.3871-0.41188 0-1.5984-0.36691-2.6367-0.81535-2.0831-0.89966-5.562-0.89372-7.7472 0.01324l-1.1719 0.48637 0.93688 0.64615c0.51528 0.35538 1.4821 0.8525 2.1484 1.1047 1.7238 0.65244 6.2545 0.62478 7.8647-0.04801z"/></svg>