<svg width="100" height="100" version="1.1" viewBox="0 0 100 100" xmlns="http://www.w3.org/2000/svg">
 <path d="m3.5516 96.941c-0.46916-0.50271-1.2577-1.5669-1.7524-2.3648-0.77347-1.2478-0.88439-1.7415-0.79254-3.5275 0.06869-1.3357-0.04392-2.2583-0.31557-2.5856-0.2323-0.27991-0.51169-1.2632-0.62088-2.1851-0.16815-1.4198-0.06677-1.901 0.6627-3.1457 0.48682-0.8307 7.4472-7.9809 16.011-16.448l15.15-14.978-4.2511-3.8372c-5.3151-4.7977-11.261-9.5616-15.443-12.373-2.5537-1.7167-3.6117-2.6873-5.1425-4.7177-2.0845-2.7647-2.0511-2.6303-2.1609-8.6963-0.01595-0.88059-0.2213-1.6289-0.50367-1.8354-0.81946-0.5992-0.19646-3.1055 1.105-4.4456 0.61012-0.62822 1.1116-1.4558 1.1144-1.8391 8e-3 -1.099 0.43128-1.5119 2.1828-2.1291 1.3876-0.48897 1.7427-0.80081 2.3514-2.0647 1.3434-2.7893 4.7129-3.6869 9.158-2.4396 1.5603 0.43779 2.6089 1.1008 5.3398 3.3761 5.9486 4.9563 11.852 10.346 18.589 16.969l6.5488 6.439 1.1232-0.95113c0.61776-0.52312 4.2518-3.7833 8.0757-7.2449 8.18-7.4048 17.704-15.619 21.909-18.898 5.3695-4.1855 10.15-5.8725 11.844-4.1791 0.63695 0.63695 0.6903 0.96122 0.5227 3.1773-0.16005 2.1163-0.10721 2.4954 0.37087 2.6611 0.30663 0.10624 1.6409 1.3135 2.9651 2.6827l2.4076 2.4896-0.9119 1.6887c-0.70575 1.307-2.0764 2.6616-6.0637 5.9924-6.6623 5.5654-24.828 21.541-29.547 25.984-0.39213 0.36927-0.18285 0.76098 1.3554 2.537 4.8814 5.6358 14.196 17.803 19.546 25.533 1.7082 2.4679 3.324 4.6669 3.5905 4.8866 0.33683 0.27768 0.41155 0.68324 0.24495 1.3295-0.13184 0.51147-0.31112 1.603-0.39839 2.4256-0.14036 1.3231-0.06976 1.534 0.61146 1.8281 0.42357 0.18281 0.81365 0.56444 0.86684 0.84806 0.16466 0.87808-1.8663 3.3206-3.1879 3.8339-0.67419 0.26183-1.9209 0.8486-2.7705 1.3039-0.84957 0.45532-2.0011 0.82785-2.559 0.82785-0.7722 0-1.2301 0.28291-1.9184 1.1852-0.69773 0.91478-1.0725 1.143-1.6424 0.99993-0.53105-0.13328-0.87819 0.0281-1.2363 0.57469-0.44508 0.67928-0.74025 0.75466-2.7785 0.7096-2.5811-0.057-3.3178-0.2864-3.7971-1.1819-0.18751-0.35036-0.69192-0.62566-1.1464-0.62566-0.91783 0-1.512-0.70068-6.526-7.6959-3.8701-5.3994-8.287-11.096-12.564-16.205-1.7463-2.086-3.4899-4.1705-3.8746-4.6322l-0.69958-0.83957-0.96229 0.7557c-1.2462 0.97869-15.668 14.616-22.732 21.495-3.0169 2.9381-5.9663 5.5342-6.5544 5.7692-0.58806 0.23502-1.249 0.64396-1.4687 0.90874-0.46565 0.56107-4.3034 2.5216-4.5173 2.3077-0.07969-0.0797-0.67708 0.21627-1.3275 0.65769-1.5357 1.0422-2.4305 1.0135-3.4804-0.11146z"/>
</svg>
