<svg width="100" height="100" version="1.1" viewBox="0 0 100 100" xmlns="http://www.w3.org/2000/svg">
 <path d="m5.1069 60.55c-1.1342 0.005821-2.2326-0.40073-3.0902-1.1431-0.85853-0.74316-1.4173-1.7729-1.5738-2.8968-1.7013-12.665 1.538-25.498 9.046-35.838 7.6661-10.543 19.132-17.69 31.97-19.928 12.839-2.2377 26.044 0.60902 36.822 7.9381l2.1101-2.9194h-7.81e-4c0.32559-0.45322 0.8727-0.69067 1.4256-0.61901 0.55292 0.071662 1.0209 0.44156 1.22 0.96226l5.5727 14.474v7.81e-4c0.16738 0.47323 0.08994 0.99809-0.20735 1.403-0.29728 0.40489-0.77526 0.63568-1.2766 0.61651l-15.477-0.75732c-0.55543-0.02749-1.0509-0.35658-1.2916-0.85895-0.23982-0.50155-0.1857-1.0947 0.14073-1.5446l2.0901-2.8084c-8.6703-5.8352-19.263-8.0806-29.555-6.2651-10.291 1.8154-19.477 7.5514-25.628 16.002-1.1292 1.5846-2.1418 3.2483-3.0286 4.9797h12.62-7.81e-4c0.32893-0.0033 0.63454 0.16996 0.80108 0.45322 0.16738 0.28409 0.16988 0.63485 0.0067 0.9206-0.92933 1.6604-1.1616 3.6224-0.64618 5.4544 0.65535 1.7979 2.0818 3.2058 3.8871 3.8382 3.2461 1.2014 6.8549 0.92895 9.8835-0.74732l9.4898-5.3128c0.27647-0.15663 0.62538-0.09248 0.82772 0.15163l19.838 24.242 2.4532 2.9593h7.81e-4c0.76944 0.88979 1.1134 2.072 0.94016 3.2359-0.17237 1.1647-0.84437 2.1962-1.8387 2.8243-0.7811 0.46322-1.6938 0.654-2.5939 0.54237-0.90102-0.11164-1.7396-0.51904-2.3833-1.1589l-0.33309-0.32325h-7.82e-4c-0.02831-0.01918-0.06495-0.01998-0.09493-0.0033-0.02998 0.01748-0.0483 0.04999-0.0458 0.08415 0.14822 0.78232 0.06245 1.5904-0.24648 2.3228-0.30894 0.73315-0.82772 1.3588-1.4906 1.7987-0.7936 0.49571-1.7312 0.70732-2.6613 0.60068-0.92933-0.10664-1.7954-0.52486-2.4564-1.1864l-0.30312-0.29326c-0.02831-0.01916-0.06578-0.02084-0.09576-0.0033-0.02998 0.01748-0.04747 0.04999-0.0458 0.08415 0.14822 0.78148 0.06246 1.5896-0.24564 2.3228-0.30894 0.73315-0.82773 1.3588-1.4906 1.7987-0.79025 0.49488-1.7254 0.70899-2.6521 0.60653-0.92766-0.10331-1.7929-0.51571-2.4564-1.1722l-0.30312-0.29326h7.81e-4c-0.02915-0.01918-0.06578-0.02084-0.09576-0.0033-0.02998 0.01666-0.04747 0.04999-0.0458 0.08415 0.18737 1.0514-0.04913 2.1337-0.65784 3.0109-0.6079 0.87729-1.5389 1.478-2.5882 1.6712-1.0501 0.19245-2.1335-0.03832-3.0137-0.64151l0.38389-0.67651v-7.82e-4c0.81772-1.373 1.1616-2.9768 0.97929-4.5638-0.18237-1.5879-0.88102-3.0717-1.9885-4.2232-1.0534-1.0389-2.4057-1.7204-3.8672-1.9495-0.90351-1.5488-2.3673-2.691-4.0887-3.1918-0.67535-2.3619-2.5364-4.1974-4.9065-4.8389-0.43635-1.5913-1.424-2.9768-2.7862-3.9082-1.5164-0.93976-3.3209-1.2997-5.0813-1.0139-1.7604 0.28576-3.3575 1.198-4.4991 2.5694l-2.5639 3.1409h-12.812zm22.765-1.8387c-0.7303-0.40656-1.5822-0.53986-2.4017-0.37491-0.82024 0.16496-1.5539 0.61651-2.071 1.2739l-2.6647 3.2734c-0.57541 0.70233-0.84354 1.6079-0.7428 2.511 0.10076 0.90312 0.56125 1.7279 1.2774 2.2862l0.40387 0.32325c0.53128 0.41656 1.175 0.66484 1.8478 0.71148 0.67285 0.04664 1.3449-0.10914 1.9278-0.44906 0.05579-0.03333 0.12574-0.03083 0.1782 0.0067 0.05246 0.03666 0.07828 0.10247 0.06412 0.16579-0.11991 0.61152-0.06828 1.2455 0.14906 1.8295 0.21734 0.58486 0.59206 1.0981 1.0834 1.483l0.33309 0.26244c0.50962 0.40157 1.1242 0.64902 1.7704 0.71148 0.6462 0.06247 1.2965-0.06165 1.8736-0.35742 0.05663-0.03083 0.12574-0.02749 0.17903 0.0083 0.05329 0.03666 0.08161 0.09914 0.07328 0.16329-0.12075 1.163 0.36306 2.3077 1.2824 3.0301l0.23232 0.18162c0.51629 0.40489 1.1383 0.65234 1.792 0.71317 0.65285 0.06082 1.3107-0.06749 1.8928-0.36992 0.05579-0.03499 0.12574-0.03916 0.1857-0.01 0.05912 0.02833 0.09993 0.08581 0.10742 0.15163 0.13157 0.84897 0.57873 1.6171 1.2516 2.1512l0.14156 0.1108v7.81e-4c0.79025 0.61901 1.8103 0.86313 2.7954 0.669 0.98428-0.19412 1.8362-0.80646 2.3332-1.6796l0.49464-0.87895v7.81e-4c0.41885-0.69566 0.5879-1.513 0.47965-2.3169-0.10825-0.80479-0.48798-1.548-1.0759-2.1078-0.4963-0.45239-1.1159-0.74898-1.7795-0.85312-0.66369-0.10414-1.344-0.01166-1.9552 0.26743-0.03331 0.015-0.07078 0.01084-0.09993-0.01-0.02914-0.02082-0.04497-0.05499-0.04163-0.09081 0.06745-1.1572-0.45966-2.2678-1.3981-2.9475-0.93847-0.679-2.1593-0.83229-3.236-0.40572-0.50463 0.09081-0.39389-0.35323-0.39389-0.35323 0.35808-0.87228 0.33808-1.8537-0.05579-2.7102-0.39472-0.85645-1.1267-1.5105-2.0219-1.8045-0.89517-0.29493-1.872-0.20328-2.6971 0.25161-0.38389 0.05082-0.33309-0.29326-0.33309-0.29326v7.81e-4c0.42552-0.76065 0.54045-1.6571 0.31977-2.5011-0.21983-0.84312-0.75778-1.5688-1.5014-2.0245zm70.024-23.098-0.32309-1.0098v-7.81e-4c-0.31561-0.93643-0.91684-1.7504-1.7187-2.3269-0.80274-0.57652-1.7662-0.88561-2.7538-0.88478h-11.105c-1.4564-7.82e-4 -2.8996-0.26826-4.2601-0.78814l-20.888-8.0098c-4.2111-1.6063-8.9526-0.9231-12.539 1.8079l-13.124 9.9692h7.82e-4c-0.62205 0.56652-0.91684 1.408-0.78443 2.2377 0.1324 0.83062 0.67368 1.5388 1.4406 1.8837 2.3558 1.0256 5.0564 0.89145 7.2988-0.36407l11.166-6.2525v7.81e-4c0.84437-0.46073 1.8961-0.26244 2.514 0.47489l24.341 29.595c0.10242 0.12747 0.25232 0.20912 0.41552 0.22578 0.16238 0.01748 0.32559-0.03166 0.453-0.13497l1.0093-0.83813c0.50796-0.4124 1.1425-0.63735 1.797-0.63652h7.905c-2.3183 8.502-7.3629 16.009-14.358 21.364-6.9956 5.3561-15.554 8.2672-24.364 8.2847-8.8085 0.01832-17.38-2.8575-24.396-8.1855l2.2309-2.7677c0.3514-0.43072 0.43885-1.0189 0.22816-1.533-0.21068-0.51405-0.68532-0.87145-1.2374-0.93144l-15.416-1.5754c-0.52045-0.05915-1.0351 0.15496-1.359 0.56569-0.32475 0.41157-0.41469 0.96143-0.2365 1.4538l4.7549 14.757c0.19319 0.51405 0.64953 0.88311 1.1925 0.96476 0.54211 0.08165 1.0867-0.13663 1.4223-0.5707l2.2616-2.7976c8.3813 6.465 18.596 10.103 29.175 10.391 10.579 0.28744 20.976-2.791 29.696-8.7912 8.7194-6.0011 15.311-14.615 18.826-24.602 3.5157-9.9867 3.773-20.832 0.73529-30.975z"/>
</svg>
