<svg width="100" height="100" version="1.1" viewBox="0 0 100 100" xmlns="http://www.w3.org/2000/svg">
 <path d="m50 0c-27.555 0-50 22.445-50 50s22.445 50 50 50 50-22.445 50-50-22.445-50-50-50zm0 10c22.151 0 40 17.849 40 40s-17.849 40-40 40-40-17.849-40-40 17.849-40 40-40zm-23.793 14.916v50.055h24.801c7.7102 0 13.453-1.1835 17.23-3.5527 3.7775-2.3693 5.666-5.9689 5.666-10.797 0-3.1516-0.87931-5.8104-2.6387-7.9785-1.7594-2.1681-4.2429-3.6543-7.4512-4.459 2.5097-0.82701 4.4227-2.0903 5.7422-3.7891 1.3195-1.7211 1.9805-3.8 1.9805-6.2363 0-4.6268-1.8114-7.9907-5.4336-10.092-3.5964-2.101-9.4183-3.1504-17.465-3.1504zm14.943 8.7832h8.2656c2.3544 0 4.1394 0.45858 5.3555 1.375 1.216 0.89406 1.8242 2.2008 1.8242 3.9219 0 1.7434-0.60819 3.063-1.8242 3.957-1.216 0.89406-3.001 1.3418-5.3555 1.3418h-8.2656zm0 19.379h8.7695c3.0271 0 5.2923 0.54735 6.793 1.6426 1.5006 1.0729 2.25 2.6932 2.25 4.8613 0 2.2128-0.76256 3.8677-2.2891 4.9629-1.5006 1.0952-3.7526 1.6426-6.7539 1.6426h-8.7695z"/>
</svg>
