<?xml version="1.0" encoding="UTF-8" standalone="no"?>
<!-- Created with Inkscape (http://www.inkscape.org/) -->

<svg
   xmlns:dc="http://purl.org/dc/elements/1.1/"
   xmlns:cc="http://creativecommons.org/ns#"
   xmlns:rdf="http://www.w3.org/1999/02/22-rdf-syntax-ns#"
   xmlns:svg="http://www.w3.org/2000/svg"
   xmlns="http://www.w3.org/2000/svg"
   xmlns:sodipodi="http://sodipodi.sourceforge.net/DTD/sodipodi-0.dtd"
   xmlns:inkscape="http://www.inkscape.org/namespaces/inkscape"
   version="1.1"
   id="svg2630"
   width="256"
   height="256"
   viewBox="0 0 256 256"
   sodipodi:docname="bonus-action-2.svg"
   inkscape:version="0.92.4 (5da689c313, 2019-01-14)">
  <metadata
     id="metadata2636">
    <rdf:RDF>
      <cc:Work
         rdf:about="">
        <dc:format>image/svg+xml</dc:format>
        <dc:type
           rdf:resource="http://purl.org/dc/dcmitype/StillImage" />
        <dc:title></dc:title>
      </cc:Work>
    </rdf:RDF>
  </metadata>
  <defs
     id="defs2634" />
  <sodipodi:namedview
     pagecolor="#ffffff"
     bordercolor="#666666"
     borderopacity="1"
     objecttolerance="10"
     gridtolerance="10"
     guidetolerance="10"
     inkscape:pageopacity="0"
     inkscape:pageshadow="2"
     inkscape:window-width="1366"
     inkscape:window-height="715"
     id="namedview2632"
     showgrid="false"
     inkscape:zoom="1.84375"
     inkscape:cx="64.794857"
     inkscape:cy="126.07867"
     inkscape:window-x="-8"
     inkscape:window-y="-8"
     inkscape:window-maximized="1"
     inkscape:current-layer="svg2630" />
  <path
     style="fill:#000000;stroke-width:0.31999999"
     d="M 127.81055 0.2890625 C 118.90305 0.2890625 114.93032 0.57318863 107.65039 1.7246094 C 81.073194 5.9281583 56.478391 18.546079 37.244141 37.847656 C 16.193201 58.972299 3.6830419 85.375208 0.38867188 115.63281 C -0.12992812 120.39596 -0.13018812 135.83444 0.38867188 140.5918 C 2.2165119 157.35086 6.4227159 171.64904 13.753906 186.03125 C 26.298596 210.64122 46.328852 230.46876 71.132812 242.82617 C 84.897543 249.68379 100.46231 254.13499 115.33008 255.46484 C 117.35408 255.64588 119.58702 255.85157 120.29102 255.92188 C 122.62469 256.15474 137.51728 255.8305 140.77148 255.47656 C 156.41787 253.77477 170.9541 249.56893 184.48828 242.82617 C 209.29224 230.46876 229.3225 210.64122 241.86719 186.03125 C 249.19838 171.64904 253.40459 157.35086 255.23242 140.5918 C 255.75124 135.83444 255.75102 120.39596 255.23242 115.63281 C 253.08643 95.922628 247.4961 79.088728 237.53516 62.351562 C 218.39083 30.183744 184.99749 7.5809055 147.9707 1.7246094 C 140.69077 0.57318863 136.71805 0.2890625 127.81055 0.2890625 z M 127.81055 22.707031 C 145.09716 22.707031 160.25264 26.30837 175.45898 34.029297 C 204.58301 48.816843 225.42605 76.477809 231.47461 108.36914 C 233.29308 117.95712 233.78225 130.9106 232.66797 140.01367 C 229.69945 164.2648 219.32298 185.72976 202.375 202.67773 C 185.67889 219.37385 164.53641 229.73434 140.97656 232.76562 C 136.23557 233.37562 125.94813 233.7788 121.89062 233.51367 C 107.08419 232.54617 93.422789 228.85559 80.318359 222.28516 C 51.289299 207.73028 30.203644 179.79211 24.146484 147.85547 C 21.329284 133.00162 21.864473 116.06854 25.601562 101.87305 C 35.464322 64.408975 64.106235 35.767058 101.57031 25.904297 C 109.9895 23.687869 118.03623 22.707031 127.81055 22.707031 z M 67.015625 64 L 67.015625 192 L 130.43164 192 C 150.14741 192 164.83474 188.9706 174.49414 182.91211 C 184.15355 176.85361 188.98242 167.65225 188.98242 155.30664 C 188.98242 147.2477 186.73328 140.44644 182.23438 134.90234 C 177.73547 129.35825 171.38357 125.55565 163.17969 123.49805 C 169.59724 121.38329 174.49301 118.15437 177.86719 113.81055 C 181.24136 109.40956 182.92969 104.0952 182.92969 97.865234 C 182.92969 86.034022 178.2976 77.431221 169.03516 72.058594 C 159.83887 66.685966 144.95281 64 124.37695 64 L 67.015625 64 z M 105.22461 86.462891 L 126.36328 86.462891 C 132.38387 86.462891 136.94711 87.633182 140.05664 89.976562 C 143.16618 92.262787 144.72266 95.60683 144.72266 100.00781 C 144.72266 104.46595 143.16618 107.83878 140.05664 110.125 C 136.94711 112.41122 132.38387 113.55469 126.36328 113.55469 L 105.22461 113.55469 L 105.22461 86.462891 z M 105.22461 136.01562 L 127.65234 136.01562 C 135.3931 136.01562 141.18223 137.41617 145.01953 140.2168 C 148.85683 142.96027 150.77539 147.10434 150.77539 152.64844 C 150.77539 158.30684 148.82338 162.53531 144.91992 165.33594 C 141.08262 168.13656 135.32694 169.53711 127.65234 169.53711 L 105.22461 169.53711 L 105.22461 136.01562 z "
     id="path3183" />
</svg>
