<?xml version="1.0" encoding="UTF-8" standalone="no"?>
<svg
   xmlns:dc="http://purl.org/dc/elements/1.1/"
   xmlns:cc="http://creativecommons.org/ns#"
   xmlns:rdf="http://www.w3.org/1999/02/22-rdf-syntax-ns#"
   xmlns:svg="http://www.w3.org/2000/svg"
   xmlns="http://www.w3.org/2000/svg"
   xmlns:sodipodi="http://sodipodi.sourceforge.net/DTD/sodipodi-0.dtd"
   xmlns:inkscape="http://www.inkscape.org/namespaces/inkscape"
   version="1.1"
   id="svg2630"
   width="100mm"
   height="100mm"
   viewBox="0 0 100 100"
   sodipodi:docname="bonus-action.svg"
   inkscape:version="1.0.2-2 (e86c870879, 2021-01-15)">
  <metadata
     id="metadata2636">
    <rdf:RDF>
      <cc:Work
         rdf:about="">
        <dc:format>image/svg+xml</dc:format>
        <dc:type
           rdf:resource="http://purl.org/dc/dcmitype/StillImage" />
        <dc:title></dc:title>
      </cc:Work>
    </rdf:RDF>
  </metadata>
  <defs
     id="defs2634" />
  <sodipodi:namedview
     pagecolor="#ffffff"
     bordercolor="#666666"
     borderopacity="1"
     objecttolerance="10"
     gridtolerance="10"
     guidetolerance="10"
     inkscape:pageopacity="0"
     inkscape:pageshadow="2"
     inkscape:window-width="1920"
     inkscape:window-height="1001"
     id="namedview2632"
     showgrid="false"
     inkscape:zoom="1.84375"
     inkscape:cx="64.794857"
     inkscape:cy="185.03317"
     inkscape:window-x="-9"
     inkscape:window-y="-9"
     inkscape:window-maximized="1"
     inkscape:current-layer="svg2630"
     inkscape:document-rotation="0"
     inkscape:document-units="mm"
     units="mm" />
  <g
     id="g841">
    <path
       style="fill:#000000;stroke-width:0.125141"
       d="m 26.207282,24.91516 v 50.056406 h 24.799826 c 7.710161,0 13.453871,-1.184695 17.231331,-3.553962 3.777464,-2.369272 5.665869,-5.967608 5.665869,-10.795552 0,-3.151575 -0.879562,-5.811314 -2.638927,-7.979421 -1.759369,-2.168103 -4.243379,-3.65517 -7.451635,-4.459826 2.509683,-0.82701 4.424251,-2.08973 5.743777,-3.788449 1.319522,-1.721076 1.97977,-3.79934 1.97977,-6.235666 0,-4.626781 -1.811451,-7.991041 -5.433674,-10.092091 -3.596353,-2.10105 -9.41778,-3.151439 -17.464293,-3.151439 z m 14.942222,8.784465 h 8.266608 c 2.354446,0 4.138973,0.457661 5.355003,1.374077 1.216034,0.894064 1.82472,2.201804 1.82472,3.922876 0,1.743426 -0.608686,3.062424 -1.82472,3.956486 -1.21603,0.894062 -3.000557,1.341234 -5.355003,1.341234 h -8.266608 z m 0,19.378372 h 8.770715 c 3.027146,0 5.291076,0.547707 6.791712,1.642937 1.500636,1.072877 2.250919,2.69348 2.250919,4.861587 0,2.212806 -0.763364,3.866416 -2.289873,4.961646 -1.500636,1.095226 -3.751485,1.642934 -6.752758,1.642934 h -8.770715 z"
       id="path3183"
       sodipodi:nodetypes="ccssssccscsccscssscccscscscc" />
    <ellipse
       style="fill:none;fill-opacity:0.474227;stroke:#000000;stroke-width:9.99979;stroke-linecap:round;stroke-miterlimit:4;stroke-dasharray:none"
       id="path832"
       cx="49.999992"
       cy="49.999992"
       rx="45.000099"
       ry="45.000095" />
  </g>
</svg>
