<?xml version="1.0" encoding="UTF-8" standalone="no"?>
<svg
   xmlns:dc="http://purl.org/dc/elements/1.1/"
   xmlns:cc="http://creativecommons.org/ns#"
   xmlns:rdf="http://www.w3.org/1999/02/22-rdf-syntax-ns#"
   xmlns:svg="http://www.w3.org/2000/svg"
   xmlns="http://www.w3.org/2000/svg"
   xmlns:sodipodi="http://sodipodi.sourceforge.net/DTD/sodipodi-0.dtd"
   xmlns:inkscape="http://www.inkscape.org/namespaces/inkscape"
   width="115"
   height="100"
   version="1.1"
   viewBox="0 0 115 100"
   id="svg10"
   sodipodi:docname="initiative.svg"
   inkscape:version="1.0.2-2 (e86c870879, 2021-01-15)">
  <metadata
     id="metadata16">
    <rdf:RDF>
      <cc:Work
         rdf:about="">
        <dc:format>image/svg+xml</dc:format>
        <dc:type
           rdf:resource="http://purl.org/dc/dcmitype/StillImage" />
        <dc:title></dc:title>
      </cc:Work>
    </rdf:RDF>
  </metadata>
  <defs
     id="defs14" />
  <sodipodi:namedview
     pagecolor="#ffffff"
     bordercolor="#666666"
     borderopacity="1"
     objecttolerance="10"
     gridtolerance="10"
     guidetolerance="10"
     inkscape:pageopacity="0"
     inkscape:pageshadow="2"
     inkscape:window-width="1920"
     inkscape:window-height="1001"
     id="namedview12"
     showgrid="false"
     units="px"
     inkscape:zoom="6.5265957"
     inkscape:cx="58.839129"
     inkscape:cy="54.388331"
     inkscape:window-x="-9"
     inkscape:window-y="-9"
     inkscape:window-maximized="1"
     inkscape:current-layer="svg10" />
  <g
     id="g852"
     transform="matrix(0.99753201,0,0,1,0.02467992,0)"
     style="stroke-width:1.00124">
    <path
       id="path2"
       style="fill:#000000;fill-opacity:1;fill-rule:evenodd;stroke-width:1.00124"
       d="m 48.091797,0 c -2.628264,0 -4.761719,2.1336478 -4.761719,4.7617188 0,2.6292292 2.133648,4.7617187 4.761719,4.7617187 h 4.763672 l 0.0039,5.0234375 C 31.444738,16.913929 14.759766,35.093975 14.759766,57.142578 14.759766,80.795264 33.964501,100 57.617188,100 c 23.652686,0 42.855472,-19.205701 42.855472,-42.857422 0,-22.04812 -16.684728,-40.228311 -38.099613,-42.595703 l 0.0039,-5.0234375 h 4.761719 c 2.629229,0 4.761719,-2.1326826 4.761719,-4.7617187 C 71.900397,2.1334548 69.767708,0 67.138672,0 Z m 9.525391,33.332031 c 2.629035,0 4.761718,2.13249 4.761718,4.761719 v 14.285156 h 14.285156 c 2.629036,0 4.761719,2.134443 4.761719,4.763672 0,2.628071 -2.13249,4.759766 -4.761719,4.759766 H 57.617188 c -2.628072,0 -4.761719,-2.131502 -4.761719,-4.759766 V 38.09375 c 0,-2.629036 2.133454,-4.761719 4.761719,-4.761719 z" />
    <path
       d="m 18.126226,27.176505 9.523868,-9.523867 c 1.857063,-1.858004 1.857063,-4.876442 0,-6.733433 -1.857064,-1.8570634 -4.876442,-1.8570634 -6.733434,0 l -9.523867,9.523867 c -1.8570632,1.857064 -1.8570632,4.876442 0,6.733433 1.857064,1.857064 4.876442,1.857064 6.733433,0 z"
       id="path4"
       style="fill-rule:evenodd;stroke-width:1.00124" />
    <path
       d="m 103.84224,20.443555 -9.523871,-9.523867 c -1.858004,-1.8570638 -4.876441,-1.8570638 -6.733433,0 -1.857063,1.857063 -1.857063,4.875476 0,6.733433 l 9.523867,9.523867 c 1.857064,1.857064 4.875477,1.857064 6.733437,0 1.85706,-1.857064 1.85706,-4.876442 0,-6.733433 z"
       id="path6"
       style="fill-rule:evenodd;stroke-width:1.00124" />
  </g>
</svg>
