<?xml version="1.0" encoding="UTF-8" standalone="no"?>
<svg
   xmlns:dc="http://purl.org/dc/elements/1.1/"
   xmlns:cc="http://creativecommons.org/ns#"
   xmlns:rdf="http://www.w3.org/1999/02/22-rdf-syntax-ns#"
   xmlns:svg="http://www.w3.org/2000/svg"
   xmlns="http://www.w3.org/2000/svg"
   xmlns:sodipodi="http://sodipodi.sourceforge.net/DTD/sodipodi-0.dtd"
   xmlns:inkscape="http://www.inkscape.org/namespaces/inkscape"
   width="120mm"
   height="100mm"
   viewBox="0 0 120 100"
   version="1.1"
   id="svg8"
   inkscape:version="1.0.2-2 (e86c870879, 2021-01-15)"
   sodipodi:docname="melee.svg">
  <defs
     id="defs2" />
  <sodipodi:namedview
     id="base"
     pagecolor="#ffffff"
     bordercolor="#666666"
     borderopacity="1.0"
     inkscape:pageopacity="0.0"
     inkscape:pageshadow="2"
     inkscape:zoom="0.98994949"
     inkscape:cx="186.21942"
     inkscape:cy="174.42737"
     inkscape:document-units="mm"
     inkscape:current-layer="layer1"
     showgrid="false"
     inkscape:window-width="1920"
     inkscape:window-height="1001"
     inkscape:window-x="-9"
     inkscape:window-y="-9"
     inkscape:window-maximized="1"
     inkscape:document-rotation="0" />
  <metadata
     id="metadata5">
    <rdf:RDF>
      <cc:Work
         rdf:about="">
        <dc:format>image/svg+xml</dc:format>
        <dc:type
           rdf:resource="http://purl.org/dc/dcmitype/StillImage" />
        <dc:title></dc:title>
      </cc:Work>
    </rdf:RDF>
  </metadata>
  <g
     inkscape:label="Layer 1"
     inkscape:groupmode="layer"
     id="layer1"
     transform="translate(0,-197)">
    <path
       style="fill:#000000;stroke-width:0.2"
       d="m 12.33139,287.22002 c -0.752736,-0.19623 -1.447627,-0.48354 -1.544202,-0.63847 C 10.483411,286.09422 10,283.66353 10,282.6234 c 0,-0.54863 0.096,-1.25086 0.213323,-1.56052 0.502493,-1.32622 2.012949,-2.25128 3.687949,-2.25863 l 1.001271,-0.004 5.848728,-5.85125 C 23.968072,269.73081 26.6,267.01229 26.6,266.90785 c 0,-0.10445 -1.215,-1.4161 -2.7,-2.91478 -1.6895,-1.70506 -2.7,-2.87719 -2.7,-3.13187 0,-0.70383 0.756184,-1.46095 1.459152,-1.46095 h 0.63012 l -1.339643,-1.35 c -1.616204,-1.6287 -1.86557,-2.35224 -1.081068,-3.13674 0.984596,-0.9846 1.305157,-0.80922 4.72156,2.58316 l 3.118346,3.09642 11.495069,-11.49638 11.49507,-11.49637 -10.033564,-10.05004 -10.033564,-10.05005 -1.428194,-5.47088 c -0.785507,-3.00898 -1.395296,-5.50377 -1.355088,-5.54398 0.04021,-0.0402 2.569634,0.58084 5.620948,1.38012 l 5.54784,1.45322 9.991508,9.99001 9.991508,9.99001 9.991508,-9.99001 9.991508,-9.99001 5.54784,-1.45322 c 3.051314,-0.79928 5.580738,-1.42033 5.620948,-1.38012 0.0402,0.0402 -0.569582,2.535 -1.355088,5.54398 l -1.428194,5.47088 -10.033564,10.05005 -10.033564,10.05004 11.49507,11.49637 11.49507,11.49638 3.11835,-3.09642 c 3.4164,-3.39238 3.73696,-3.56776 4.72156,-2.58316 0.7845,0.7845 0.53513,1.50804 -1.08107,3.13674 l -1.33965,1.35 h 0.63012 c 0.70297,0 1.45916,0.75712 1.45916,1.46095 0,0.25468 -1.0105,1.42681 -2.7,3.13187 -1.485,1.49868 -2.7,2.81147 -2.7,2.9173 0,0.10583 2.63306,2.82435 5.85125,6.04115 l 5.851246,5.84873 0.99875,0.004 c 1.86523,0.008 3.53085,1.19724 3.81749,2.72521 0.17482,0.93183 -0.0191,2.89447 -0.41643,4.21442 -0.30389,1.00958 -0.34871,1.05452 -1.35829,1.36194 -1.21505,0.36998 -3.67428,0.6051 -4.40661,0.4213 -1.32351,-0.33218 -2.54367,-2.08896 -2.60268,-3.74732 l -0.0347,-0.97576 -5.949286,-5.94993 -5.949282,-5.94993 -2.753306,2.74804 c -2.194948,2.19074 -2.864316,2.74803 -3.300714,2.74803 -0.895918,0 -1.494916,-0.79745 -1.352056,-1.8 0.02351,-0.165 -0.631232,0.3525 -1.454988,1.15 -1.674162,1.6208 -2.317942,1.82543 -3.105506,0.98711 -0.91876,-0.97798 -0.699774,-1.36726 2.664328,-4.7363 l 3.099188,-3.10374 -11.499188,-11.49788 -11.49919,-11.49789 -11.49919,11.49789 -11.499188,11.49788 3.099188,3.10374 c 2.649422,2.65331 3.09919,3.19268 3.09919,3.7166 0,0.76454 -0.718832,1.48259 -1.484206,1.48259 -0.422162,0 -0.923896,-0.35382 -2.056162,-1.45 -0.823756,-0.7975 -1.4785,-1.315 -1.454988,-1.15 0.14286,1.00255 -0.456138,1.8 -1.352056,1.8 -0.436398,0 -1.105766,-0.55729 -3.300714,-2.74803 l -2.753306,-2.74804 -5.949284,5.94993 -5.949284,5.94993 -0.0349,0.97884 c -0.05292,1.48422 -0.90184,2.91028 -2.105167,3.53637 -0.733739,0.38177 -2.758268,0.33658 -4.428542,-0.0988 z"
       id="path839"
       inkscape:connector-curvature="0" />
  </g>
</svg>
