<svg width="100" height="100" version="1.1" viewBox="0 0 100 100" xmlns="http://www.w3.org/2000/svg">
 <path d="m86.222 99.77c-1.0923-0.42602-1.6601-0.98581-2.1767-2.146-0.28743-0.64543-0.34354-2.046-0.10926-2.7273l0.14322-0.41648-10.801-10.862c-5.9407-5.9744-14.399-14.452-18.797-18.84l-7.9958-7.9776-13.359 13.341 0.30696 3.801 0.30696 3.8009-4.233 4.3003c-2.3282 2.3652-4.2421 4.2636-4.2533 4.2186-0.01112-0.045-0.20428-2.4337-0.42924-5.3085-0.24426-3.1214-0.45805-5.2756-0.53072-5.348-0.09196-0.0915-9.7885-0.95003-10.479-0.92779-0.0603 2e-3 1.7741-1.8781 4.0764-4.1779 3.9135-3.9092 4.2112-4.1815 4.5723-4.182 0.21241-2.3e-4 1.9432 0.12833 3.8461 0.28578l3.4599 0.28628 6.6499-6.6402c3.6574-3.6521 6.6499-6.6899 6.6499-6.7507 0-0.0608-8.4478-8.5467-18.773-18.858l-18.773-18.747-0.4274 0.14644c-0.23507 0.0806-0.82603 0.14555-1.3132 0.14447-0.75668-2e-3 -0.98963-0.051-1.5977-0.33824-1.4405-0.68046-2.118-1.736-2.1775-3.3925-0.028148-0.78393 0.011896-1.1261 0.19209-1.6417 0.55384-1.5846 1.4309-2.4485 3.4772-3.4246 3.9314-1.8754 8.6098-3.2723 13.248-3.9554 4.339-0.63911 10.147-0.68176 14.74-0.10825 9.3388 1.1661 18.829 4.532 27.547 9.77 1.8749 1.1265 4.7894 3.048 5.0892 3.3553 0.10992 0.11265 0.87501 0.70875 1.7002 1.3247 1.6995 1.2685 4.3829 3.4804 5.9374 4.8941 0.57573 0.5236 1.0799 0.95264 1.1205 0.95344 0.0983 2e-3 11.044-11.083 11.096-11.238 0.02266-0.0665-1.2819-1.4428-2.8989-3.0584l-2.94-2.9376 2.0725-0.61381c1.1399-0.3376 6.0068-1.7863 10.815-3.2193 4.8086-1.433 8.766-2.5824 8.7941-2.5543 0.028136 0.0282-0.6414 2.3713-1.4879 5.2072-0.84647 2.8358-2.2973 7.696-3.2241 10.8l-1.6851 5.6442-2.9262-2.9208c-1.6094-1.6064-2.9757-2.9208-3.0361-2.9208-0.14359 0-11.183 11.026-11.183 11.169 3.8e-5 0.0602 0.42634 0.58005 0.94734 1.155 10.033 11.072 16.72 24.384 18.934 37.688 1.8034 10.84 0.48135 21.639-3.7332 30.494-0.70202 1.4749-1.1546 2.0754-2.0734 2.7508-1.2002 0.88232-3.0675 1.1867-4.3091 0.70242zm-0.51372-9.1656c1.8454-5.0644 2.6452-11.38 2.2046-17.409-0.72033-9.857-4.1035-19.58-10.051-28.885-2.0447-3.1991-4.618-6.5534-7.289-9.5013l-0.98156-1.0833-10.561 10.546c-5.8086 5.8005-10.561 10.596-10.561 10.657 0 0.17143 36.733 36.813 36.815 36.723 0.03978-0.0439 0.23103-0.51518 0.42492-1.0473zm-30.022-49.603 10.578-10.572-0.82641-0.77417c-1.2091-1.1327-3.7038-3.2032-5.3373-4.4299-10.032-7.5331-21.103-12.04-32.18-13.1-2.0293-0.19414-6.558-0.22143-8.4314-0.0508-2.7175 0.2475-5.4133 0.75371-7.9886 1.5001-1.3894 0.40267-3.014 0.98692-3.1879 1.1465-0.088961 0.0816 36.565 36.851 36.736 36.851 0.03303 0 4.8201-4.7572 10.638-10.572z"/>
</svg>
