<?xml version="1.0" encoding="UTF-8" standalone="no"?>
<svg
   xmlns:dc="http://purl.org/dc/elements/1.1/"
   xmlns:cc="http://creativecommons.org/ns#"
   xmlns:rdf="http://www.w3.org/1999/02/22-rdf-syntax-ns#"
   xmlns:svg="http://www.w3.org/2000/svg"
   xmlns="http://www.w3.org/2000/svg"
   xmlns:sodipodi="http://sodipodi.sourceforge.net/DTD/sodipodi-0.dtd"
   xmlns:inkscape="http://www.inkscape.org/namespaces/inkscape"
   width="120mm"
   height="100mm"
   viewBox="0 0 120 100"
   version="1.1"
   id="svg8"
   inkscape:version="1.0.2-2 (e86c870879, 2021-01-15)"
   sodipodi:docname="ranged.svg">
  <defs
     id="defs2" />
  <sodipodi:namedview
     id="base"
     pagecolor="#ffffff"
     bordercolor="#666666"
     borderopacity="1.0"
     inkscape:pageopacity="0.0"
     inkscape:pageshadow="2"
     inkscape:zoom="0.98994949"
     inkscape:cx="186.21942"
     inkscape:cy="174.42737"
     inkscape:document-units="mm"
     inkscape:current-layer="layer1"
     showgrid="false"
     inkscape:window-width="1920"
     inkscape:window-height="1001"
     inkscape:window-x="-9"
     inkscape:window-y="-9"
     inkscape:window-maximized="1"
     inkscape:document-rotation="0" />
  <metadata
     id="metadata5">
    <rdf:RDF>
      <cc:Work
         rdf:about="">
        <dc:format>image/svg+xml</dc:format>
        <dc:type
           rdf:resource="http://purl.org/dc/dcmitype/StillImage" />
        <dc:title></dc:title>
      </cc:Work>
    </rdf:RDF>
  </metadata>
  <g
     inkscape:label="Layer 1"
     inkscape:groupmode="layer"
     id="layer1"
     transform="translate(0,-197)">
    <path
       style="fill:#000000;stroke-width:0.110039"
       d="m 96.10493,296.83846 c -1.090776,-0.42602 -1.657818,-0.98581 -2.173758,-2.146 -0.287042,-0.64543 -0.343072,-2.04602 -0.109115,-2.72728 L 93.965086,291.5487 83.178547,280.68621 C 77.24595,274.71183 68.798809,266.23378 64.407121,261.8461 l -7.984888,-7.97762 -6.670355,6.67039 -6.670356,6.67037 0.306539,3.80095 0.306538,3.80094 -4.227291,4.30033 c -2.325011,2.36517 -4.236377,4.26356 -4.247485,4.21864 -0.0111,-0.045 -0.204004,-2.43374 -0.428661,-5.30851 -0.243931,-3.12136 -0.457424,-5.27562 -0.529999,-5.34795 -0.09184,-0.0915 -9.775178,-0.95003 -10.464595,-0.92779 -0.06022,0.002 1.771674,-1.87813 4.070878,-4.17794 3.908187,-3.90921 4.205485,-4.1815 4.566051,-4.18196 0.212121,-2.3e-4 1.940507,0.12833 3.840857,0.28578 l 3.455182,0.28628 6.640839,-6.64018 c 3.652462,-3.65211 6.64084,-6.68991 6.64084,-6.75068 0,-0.0608 -8.436315,-8.54674 -18.747367,-18.85769 l -18.747366,-18.74719 -0.42682,0.14644 c -0.234752,0.0806 -0.824905,0.14555 -1.311453,0.14447 -0.755652,-0.002 -0.988284,-0.051 -1.595556,-0.33824 -1.438558,-0.68046 -2.115105,-1.73595 -2.174497,-3.39247 -0.02811,-0.78393 0.01188,-1.12612 0.191832,-1.6417 0.553084,-1.58464 1.429002,-2.44848 3.472507,-3.42463 3.926099,-1.87544 8.598044,-3.27226 13.229575,-3.95538 4.333133,-0.63911 10.133294,-0.68176 14.720173,-0.10825 9.326118,1.16607 18.803566,4.53197 27.509593,9.76998 1.872317,1.12648 4.782858,3.04801 5.082255,3.35529 0.109773,0.11265 0.873817,0.70875 1.697873,1.32466 1.697145,1.26846 4.376934,3.48038 5.929305,4.89408 0.574951,0.5236 1.078469,0.95264 1.118929,0.95344 0.09817,0.002 11.028774,-11.08319 11.081384,-11.23804 0.02263,-0.0665 -1.280139,-1.44278 -2.894963,-3.05844 l -2.936036,-2.93756 2.069673,-0.61381 c 1.138328,-0.3376 5.99865,-1.78626 10.800734,-3.21926 4.80209,-1.43299 8.75406,-2.58245 8.78216,-2.55435 0.0281,0.0282 -0.64053,2.37133 -1.48583,5.20717 -0.84532,2.83583 -2.29419,7.69596 -3.21974,10.80027 l -1.68281,5.64421 -2.92224,-2.92075 c -1.607248,-1.60641 -2.97162,-2.92075 -3.031955,-2.92075 -0.14339,0 -11.167753,11.02601 -11.167664,11.16934 3.8e-5,0.0602 0.425758,0.58005 0.946047,1.155 10.018999,11.07165 16.697672,24.38389 18.907992,37.68828 1.80096,10.84043 0.4807,21.63939 -3.72816,30.49392 -0.70107,1.47491 -1.15307,2.07541 -2.07058,2.75085 -1.198536,0.88232 -3.063339,1.18671 -4.30328,0.70242 z m -0.513023,-9.16555 c 1.842908,-5.06437 2.641625,-11.38008 2.20165,-17.40905 -0.719354,-9.85704 -4.097942,-19.57969 -10.037499,-28.88517 -2.041915,-3.19907 -4.611759,-6.55341 -7.279133,-9.50126 l -0.980222,-1.08329 -10.546804,10.54641 c -5.800742,5.80052 -10.546804,10.59597 -10.546804,10.65654 0,0.17143 36.68296,36.81309 36.764467,36.72308 0.03973,-0.0439 0.230719,-0.51518 0.424345,-1.04726 z m -29.981084,-49.60321 10.56347,-10.57154 -0.825287,-0.77417 c -1.207456,-1.13266 -3.698801,-3.20325 -5.330051,-4.42989 -10.018042,-7.53314 -21.074448,-12.04015 -32.136045,-13.09984 -2.02655,-0.19414 -6.549077,-0.22143 -8.419907,-0.0508 -2.713804,0.2475 -5.405916,0.75371 -7.977783,1.50008 -1.387534,0.40267 -3.009873,0.98692 -3.183531,1.14647 -0.08884,0.0816 36.515616,36.85124 36.685712,36.85124 0.03298,0 4.813515,-4.7572 10.623422,-10.57155 z"
       id="path852"
       inkscape:connector-curvature="0" />
  </g>
</svg>
