<?xml version="1.0" encoding="UTF-8" standalone="no"?>
<!-- Created with Inkscape (http://www.inkscape.org/) -->

<svg
   xmlns:dc="http://purl.org/dc/elements/1.1/"
   xmlns:cc="http://creativecommons.org/ns#"
   xmlns:rdf="http://www.w3.org/1999/02/22-rdf-syntax-ns#"
   xmlns:svg="http://www.w3.org/2000/svg"
   xmlns="http://www.w3.org/2000/svg"
   xmlns:sodipodi="http://sodipodi.sourceforge.net/DTD/sodipodi-0.dtd"
   xmlns:inkscape="http://www.inkscape.org/namespaces/inkscape"
   width="100mm"
   height="100mm"
   viewBox="0 0 100 100"
   version="1.1"
   id="svg8"
   inkscape:version="0.92.4 (5da689c313, 2019-01-14)"
   sodipodi:docname="ranged.svg">
  <defs
     id="defs2" />
  <sodipodi:namedview
     id="base"
     pagecolor="#ffffff"
     bordercolor="#666666"
     borderopacity="1.0"
     inkscape:pageopacity="0.0"
     inkscape:pageshadow="2"
     inkscape:zoom="0.98994949"
     inkscape:cx="186.21942"
     inkscape:cy="174.42737"
     inkscape:document-units="mm"
     inkscape:current-layer="layer1"
     showgrid="false"
     inkscape:window-width="1366"
     inkscape:window-height="715"
     inkscape:window-x="-8"
     inkscape:window-y="-8"
     inkscape:window-maximized="1" />
  <metadata
     id="metadata5">
    <rdf:RDF>
      <cc:Work
         rdf:about="">
        <dc:format>image/svg+xml</dc:format>
        <dc:type
           rdf:resource="http://purl.org/dc/dcmitype/StillImage" />
        <dc:title></dc:title>
      </cc:Work>
    </rdf:RDF>
  </metadata>
  <g
     inkscape:label="Layer 1"
     inkscape:groupmode="layer"
     id="layer1"
     transform="translate(0,-197)">
    <path
       style="fill:#000000;stroke-width:0.10940919"
       d="m 85.954596,296.45277 c -1.08454,-0.42358 -1.64834,-0.98017 -2.16133,-2.13372 -0.2854,-0.64174 -0.34111,-2.03431 -0.10849,-2.71168 l 0.14221,-0.41409 -10.724863,-10.80035 C 67.203448,274.45274 58.804607,266.02319 54.438029,261.66061 l -7.939231,-7.93197 -6.632215,6.63222 -6.632215,6.63221 0.304786,3.7792 0.304785,3.7792 -4.203119,4.27572 c -2.311717,2.35164 -4.212155,4.23917 -4.223199,4.19451 -0.01104,-0.0447 -0.202838,-2.41982 -0.426211,-5.27814 -0.242535,-3.1035 -0.454808,-5.24544 -0.526967,-5.31735 -0.09131,-0.091 -9.719286,-0.9446 -10.40476,-0.92248 -0.05988,0.002 1.761543,-1.86739 4.047601,-4.15404 3.88584,-3.88685 4.181438,-4.15758 4.539942,-4.15804 0.210909,-2.2e-4 1.929412,0.1276 3.818896,0.28415 l 3.435425,0.28464 6.602868,-6.60219 c 3.631578,-3.63121 6.602869,-6.65163 6.602869,-6.71206 0,-0.0604 -8.388078,-8.49784 -18.640172,-18.7498 l -18.6401714,-18.63993 -0.42438,0.1456 c -0.233409,0.0801 -0.820188,0.14472 -1.303954,0.14365 -0.751332,-0.002 -0.982633,-0.0507 -1.586433,-0.33631 -1.430332,-0.67656 -2.10301102,-1.72601 -2.16206402,-3.37306 -0.02795,-0.77944 0.01181,-1.11967 0.190736,-1.6323 0.54992102,-1.57558 1.42083102,-2.43448 3.45265202,-3.40504 3.903649,-1.86471 8.5488814,-3.25354 13.1539294,-3.93275 4.308357,-0.63545 10.075353,-0.67786 14.636006,-0.10763 9.272792,1.1594 18.69605,4.50604 27.352297,9.71408 1.861611,1.12004 4.75551,3.03057 5.053195,3.33609 0.109146,0.11201 0.86882,0.7047 1.688165,1.31709 1.687441,1.2612 4.351907,3.46046 5.895402,4.86608 0.571663,0.5206 1.072302,0.94719 1.112531,0.94798 0.09761,0.002 10.965713,-11.01978 11.018023,-11.17374 0.0225,-0.0661 -1.27282,-1.43453 -2.87841,-3.04095 l -2.91925,-2.92075 2.05784,-0.6103 c 1.13182,-0.33567 5.96435,-1.77604 10.73897,-3.20084 4.77463,-1.42479 8.704,-2.56767 8.73194,-2.53973 0.0279,0.028 -0.63686,2.35776 -1.47733,5.17737 -0.84048,2.81961 -2.28107,7.65193 -3.20133,10.73848 l -1.67319,5.61192 -2.90553,-2.90404 c -1.59805,-1.59722 -2.95462,-2.90404 -3.01461,-2.90404 -0.14257,0 -11.103898,10.96293 -11.103809,11.10544 3.8e-5,0.0599 0.423324,0.57673 0.940637,1.14839 9.961712,11.00831 16.602192,24.24438 18.799872,37.47265 1.79067,10.77841 0.47795,21.51559 -3.70684,30.31946 -0.69706,1.46647 -1.14648,2.06354 -2.05874,2.73511 -1.19168,0.87727 -3.04582,1.17992 -4.27867,0.6984 z m -0.51009,-9.11311 c 1.83237,-5.03539 2.62652,-11.31497 2.18906,-17.30945 -0.71524,-9.80064 -4.07451,-19.46766 -9.980105,-28.71991 -2.03024,-3.18076 -4.58539,-6.51591 -7.237512,-9.4469 l -0.974618,-1.07709 -10.486498,10.48607 c -5.767574,5.76734 -10.486499,10.53535 -10.486499,10.59557 0,0.17045 36.473212,36.60248 36.554252,36.51298 0.0395,-0.0437 0.2294,-0.51223 0.42192,-1.04127 z M 55.63485,238.02025 66.137919,227.50919 65.31735,226.73945 c -1.200551,-1.12618 -3.677652,-3.18493 -5.299574,-4.40455 -9.96076,-7.49004 -20.953947,-11.97126 -31.952296,-13.02489 -2.014962,-0.19303 -6.511629,-0.22016 -8.371763,-0.0505 -2.698286,0.24609 -5.375006,0.7494 -7.932166,1.4915 -1.379601,0.40037 -2.9926644,0.98127 -3.1653284,1.13991 -0.08833,0.0811 36.3068244,36.6404 36.4759474,36.6404 0.03279,0 4.785993,-4.72998 10.56268,-10.51106 z"
       id="path852"
       inkscape:connector-curvature="0" />
  </g>
</svg>
