<?xml version="1.0" encoding="UTF-8" standalone="no"?>
<!-- Created with Inkscape (http://www.inkscape.org/) -->

<svg
   xmlns:dc="http://purl.org/dc/elements/1.1/"
   xmlns:cc="http://creativecommons.org/ns#"
   xmlns:rdf="http://www.w3.org/1999/02/22-rdf-syntax-ns#"
   xmlns:svg="http://www.w3.org/2000/svg"
   xmlns="http://www.w3.org/2000/svg"
   xmlns:sodipodi="http://sodipodi.sourceforge.net/DTD/sodipodi-0.dtd"
   xmlns:inkscape="http://www.inkscape.org/namespaces/inkscape"
   version="1.1"
   id="svg3740"
   width="256"
   height="256"
   viewBox="0 0 256 256"
   sodipodi:docname="reaction.svg"
   inkscape:version="0.92.4 (5da689c313, 2019-01-14)">
  <metadata
     id="metadata3746">
    <rdf:RDF>
      <cc:Work
         rdf:about="">
        <dc:format>image/svg+xml</dc:format>
        <dc:type
           rdf:resource="http://purl.org/dc/dcmitype/StillImage" />
        <dc:title />
      </cc:Work>
    </rdf:RDF>
  </metadata>
  <defs
     id="defs3744" />
  <sodipodi:namedview
     pagecolor="#ffffff"
     bordercolor="#666666"
     borderopacity="1"
     objecttolerance="10"
     gridtolerance="10"
     guidetolerance="10"
     inkscape:pageopacity="0"
     inkscape:pageshadow="2"
     inkscape:window-width="1366"
     inkscape:window-height="715"
     id="namedview3742"
     showgrid="false"
     inkscape:zoom="2.6074563"
     inkscape:cx="154.8686"
     inkscape:cy="138.63059"
     inkscape:window-x="-8"
     inkscape:window-y="-8"
     inkscape:window-maximized="1"
     inkscape:current-layer="svg3740" />
  <path
     style="fill:#000000;stroke-width:0.31999999"
     d="m 120.2906,255.92107 c -0.704,-0.0703 -2.936,-0.27584 -4.96,-0.45688 -14.86777,-1.32985 -30.432537,-5.78061 -44.197257,-12.63823 -24.80397,-12.35741 -44.83481,-32.18377 -57.3795,-56.79374 -7.3311904,-14.38221 -11.5366204,-28.68094 -13.36445039,-45.44 -0.51886,-4.75736 -0.51929,-20.19685 -6.9e-4,-24.96 C 3.6830626,85.374616 16.192263,58.973198 37.243213,37.848555 56.477453,18.546978 81.073413,5.9271826 107.6506,1.7236336 c 7.27993,-1.15142104 11.2525,-1.43399104 20.16,-1.43399104 8.9075,0 12.88007,0.28257 20.16,1.43399104 37.02679,5.856296 70.41924,28.4607644 89.56357,60.6285824 9.96094,16.737165 15.55234,33.569821 17.69833,53.280004 0.5186,4.76315 0.51818,20.20264 -6.4e-4,24.96 -1.82783,16.75906 -6.03326,31.05779 -13.36445,45.44 -12.54469,24.60997 -32.57553,44.43633 -57.37949,56.79374 -13.53418,6.74276 -28.07088,10.94954 -43.71727,12.65133 -3.2542,0.35394 -18.14633,0.67665 -20.48,0.44378 z m 20.68528,-23.15542 c 23.55985,-3.03128 44.70331,-13.39261 61.39942,-30.08873 16.94798,-16.94797 27.32376,-38.41123 30.29228,-62.66236 1.11428,-9.10307 0.62625,-22.0567 -1.19222,-31.64468 -6.04856,-31.891331 -26.89183,-59.553219 -56.01586,-74.340765 -15.20634,-7.720927 -30.36229,-11.32226 -47.6489,-11.32226 -9.77432,0 -17.82081,0.980265 -26.24,3.196693 -37.464067,9.862761 -66.105897,38.504591 -75.968657,75.968672 -3.7371,14.19548 -4.2733,31.12849 -1.4561,45.98234 6.05716,31.93664 27.14291,59.87664 56.17197,74.43152 13.10443,6.57043 26.766347,10.26012 41.572787,11.22762 4.05751,0.26513 14.34429,-0.13806 19.08528,-0.74805 z M 75.970603,60.912216 c 0,0 40.503707,-1.084418 60.639997,0.331367 19.39144,1.640032 30.72204,7.56545 35.90104,18.774698 4.24941,9.197296 4.16768,23.556039 -0.18518,32.532909 -3.48293,7.18283 -10.02171,12.6883 -18.88381,15.89963 l -2.04794,0.74211 1.56794,0.53376 c 6.18744,2.10631 10.87639,6.19888 16.0552,14.01315 2.0999,3.16853 22.79275,44.35336 22.79275,45.36424 l -35.21584,0.12814 c -3.49162,-7.53059 -6.53332,-13.50017 -9.51808,-19.52 -9.65602,-19.46935 -11.31742,-22.25169 -14.8974,-24.94853 -4.26456,-3.21255 -6.79609,-3.8595 -15.96868,-4.08089 l -6.96,-0.16799 v 48.71741 H 75.970603 Z M 131.0106,117.08337 c 7.70039,-1.8439 10.92098,-5.90907 11.39148,-14.37882 0.43513,-7.833022 -1.99484,-13.171841 -7.0995,-15.598107 -3.52165,-1.673853 -5.45942,-1.925331 -16.21198,-2.103933 l -9.84,-0.163443 v 16.550803 16.55081 l 9.68,-0.14131 c 7.84825,-0.11457 10.13415,-0.25006 12.08,-0.716 z"
     id="path4293"
     inkscape:connector-curvature="0"
     sodipodi:nodetypes="ccsssssssssscsscccssssssssssssccsscccsccccscccccssscccsc" />
</svg>
