<svg width="100" height="100" version="1.1" viewBox="0 0 100 100" xmlns="http://www.w3.org/2000/svg">
 <path d="m31.941 0.0026687c-1.4331 0.015098-2.8649 0.094386-4.293 0.24024-0.76439 0.07808-1.5779 0.18179-2.4297 0.31641-3.582 0.56606-7.1714 1.5716-10.631 3.0293-3.3965 1.4311-5.8933 2.9748-7.3243 3.9102 1.6063-0.68831 4.3317-1.7289 7.8477-2.5 3.5744-0.78394 7.0576-1.0962 10.418-1.082 0.79762 0.00337 1.5502 0.024525 2.2539 0.05664 5.1913 0.23677 10.364 1.2378 15.172 2.9453 0.07346 0.026037 0.14712 0.053545 0.22071 0.080079 5.8868 2.1228 11.365 5.3658 16.365 9.4727 2.4416 2.0052 4.8289 4.2306 7.1329 6.875 2.2454 2.5772 3.804 4.8698 4.6661 6.2539l2.0078 3.2227 6.9571-3.7227-2.0078-3.2227c-0.98834-1.5868-2.7035-4.2458-5.2618-7.2422-2.5875-3.0306-5.4224-5.6835-8.3126-7.8516-5.9952-4.4973-12.821-7.5074-19.658-9.1992-0.086091-0.021268-0.17199-0.041714-0.25782-0.062494-4.2551-1.0325-8.566-1.5648-12.865-1.5195zm-3.5254 9.0449c-0.54979-0.00648-1.0972 6.494e-4 -1.6446 0.021491-0.58569 0.022293-1.2089 0.06288-1.8594 0.12695-2.7374 0.26969-5.451 0.90105-8.0294 1.9121-2.5277 0.99122-4.3475 2.124-5.3809 2.8106 1.1756-0.49358 3.164-1.22 5.754-1.6836 2.6286-0.47052 5.2082-0.55606 7.711-0.37891 0.59454 0.04209 1.1569 0.0971 1.6836 0.15821 3.8823 0.45057 7.8259 1.5309 11.555 3.1836 0.05699 0.02522 0.11475 0.05055 0.17188 0.07617 4.3187 1.9383 8.4802 4.7135 12.42 8.1836 0.20122 0.17724 0.39999 0.35659 0.59766 0.53515 1.9999 1.8066 3.9774 3.7925 5.9219 6.1328 1.8937 2.2791 3.2397 4.2832 3.9903 5.4883l1.586 2.5449 5.4922-2.9395-1.586-2.5449c-0.83593-1.3421-2.2764-3.5929-4.3711-6.1621-2.1175-2.5971-4.4038-4.905-6.7091-6.8203-0.23134-0.1922-0.46435-0.38132-0.70118-0.57031-4.6303-3.6952-9.741-6.3299-14.783-7.9961-0.06709-0.0221-0.13428-0.04465-0.20117-0.06641-3.8678-1.259-7.7688-1.9663-11.617-2.0117zm69.866 28.082c-0.78781 0.03134-1.8139 0.09103-2.8887 0.17384l-3.9082 0.30078-13.512 7.1445c-7.4317 3.9286-15.037 8.0403-16.899 9.1387-10.905 6.427-12.409 7.2473-24.285 13.252-6.5314 3.3023-8.2425 3.8576-9.0997 2.957-0.14103-0.14818-0.5583-1.1966-0.92579-2.3301-1.0764-3.3207-1.0696-3.3126-3.8594-4.1289-2.0918-0.61202-2.469-0.64387-2.5371-0.20508-0.22456 1.4461 0.92084 8.6742 1.7285 10.912 0.48692 1.3491 0.91847 2.555 0.96095 2.6797 0.06436 0.18903-2.469 1.7029-14.256 8.5176-0.36036 0.2083-0.95141 0.29177-1.3145 0.18554-0.61756-0.18068-4.4808 0.06721-6.3927 0.41016-0.46901 0.08423-0.9558 0.33177-1.082 0.54883-0.14366 0.24726 1.1496 2.7886 3.4629 6.8008 2.0317 3.5238 3.8439 6.4547 4.0254 6.5117 0.34684 0.10944 3.3198-3.8771 4.1778-5.6016 0.48967-0.984 2.3004-2.1445 12.631-8.0996l2.9571-1.7051 1.9492 2.2559c1.9064 2.2066 8.3674 7.3162 8.8517 7 0.11595-0.07573 0.44969-1.3602 0.74024-2.8535l0.52735-2.7148-1.8613-2.0742c-1.8712-2.0869-2.0674-2.6492-1.3379-3.8125 0.66115-1.0543 16.179-11.223 24.549-16.086 5.0215-2.9176 12.819-7.6674 17.328-10.555 4.5092-2.8874 10.249-6.5419 12.756-8.1211 4.4845-2.8246 4.5935-2.9194 6.6954-5.9375 2.5122-3.6072 2.8973-4.3805 2.2754-4.5625-0.12046-0.03525-0.66924-0.03329-1.457-2e-3z"/>
</svg>
