<?xml version="1.0" encoding="UTF-8" standalone="no"?>
<svg
   xmlns:dc="http://purl.org/dc/elements/1.1/"
   xmlns:cc="http://creativecommons.org/ns#"
   xmlns:rdf="http://www.w3.org/1999/02/22-rdf-syntax-ns#"
   xmlns:svg="http://www.w3.org/2000/svg"
   xmlns="http://www.w3.org/2000/svg"
   xmlns:sodipodi="http://sodipodi.sourceforge.net/DTD/sodipodi-0.dtd"
   xmlns:inkscape="http://www.inkscape.org/namespaces/inkscape"
   version="1.1"
   id="svg3740"
   width="100mm"
   height="100mm"
   viewBox="0 0 100 100"
   sodipodi:docname="reaction.svg"
   inkscape:version="1.0.2-2 (e86c870879, 2021-01-15)">
  <metadata
     id="metadata3746">
    <rdf:RDF>
      <cc:Work
         rdf:about="">
        <dc:format>image/svg+xml</dc:format>
        <dc:type
           rdf:resource="http://purl.org/dc/dcmitype/StillImage" />
        <dc:title></dc:title>
      </cc:Work>
    </rdf:RDF>
  </metadata>
  <defs
     id="defs3744" />
  <sodipodi:namedview
     pagecolor="#ffffff"
     bordercolor="#666666"
     borderopacity="1"
     objecttolerance="10"
     gridtolerance="10"
     guidetolerance="10"
     inkscape:pageopacity="0"
     inkscape:pageshadow="2"
     inkscape:window-width="1920"
     inkscape:window-height="1001"
     id="namedview3742"
     showgrid="false"
     inkscape:zoom="2.6074563"
     inkscape:cx="154.8686"
     inkscape:cy="198.35619"
     inkscape:window-x="-9"
     inkscape:window-y="-9"
     inkscape:window-maximized="1"
     inkscape:current-layer="svg3740"
     inkscape:document-rotation="0"
     inkscape:document-units="mm"
     units="mm" />
  <g
     id="g841">
    <path
       style="fill:#000000;stroke-width:0.125141"
       d="m 29.70963,23.707515 c 0,0 15.839681,-0.42408 23.714329,0.129587 7.583361,0.641363 12.01439,2.958601 14.039728,7.342173 1.661807,3.596763 1.629844,9.212 -0.07241,12.722562 -1.362061,2.808971 -3.919166,4.961981 -7.384844,6.217827 l -0.800883,0.290216 0.613171,0.208736 c 2.419706,0.823709 4.253402,2.42418 6.278666,5.480087 0.821202,1.239109 8.913502,17.345155 8.913502,17.740478 l -13.771769,0.05011 c -1.365463,-2.944966 -2.554972,-5.279474 -3.722215,-7.633634 -3.776155,-7.613829 -4.425874,-8.701911 -5.825888,-9.756558 -1.66773,-1.256324 -2.65773,-1.509324 -6.244831,-1.595903 l -2.72183,-0.0657 V 73.889291 H 29.70963 Z m 21.524352,21.96671 c 3.011371,-0.72109 4.270839,-2.310845 4.454837,-5.623088 0.170165,-3.063241 -0.780118,-5.151079 -2.776384,-6.099913 -1.377202,-0.654589 -2.135001,-0.752934 -6.339978,-0.822779 l -3.848104,-0.06392 v 6.472481 6.472483 l 3.785533,-0.05526 c 3.069196,-0.0448 3.963137,-0.09779 4.724096,-0.280004 z"
       id="path4293"
       inkscape:connector-curvature="0"
       sodipodi:nodetypes="ccsscccsccccscccccssscccsc" />
    <ellipse
       style="fill:none;fill-opacity:0.474227;stroke:#000000;stroke-width:9.99979;stroke-linecap:round;stroke-miterlimit:4;stroke-dasharray:none"
       id="path832"
       cx="49.999992"
       cy="49.999992"
       rx="45.000099"
       ry="45.000095" />
  </g>
</svg>
