<?xml version="1.0" encoding="UTF-8" standalone="no"?>
<svg
   xmlns:dc="http://purl.org/dc/elements/1.1/"
   xmlns:cc="http://creativecommons.org/ns#"
   xmlns:rdf="http://www.w3.org/1999/02/22-rdf-syntax-ns#"
   xmlns:svg="http://www.w3.org/2000/svg"
   xmlns="http://www.w3.org/2000/svg"
   xmlns:sodipodi="http://sodipodi.sourceforge.net/DTD/sodipodi-0.dtd"
   xmlns:inkscape="http://www.inkscape.org/namespaces/inkscape"
   version="1.1"
   id="svg2075"
   width="120mm"
   height="100mm"
   viewBox="0 0 120 100"
   sodipodi:docname="round.svg"
   inkscape:version="1.0.2-2 (e86c870879, 2021-01-15)">
  <metadata
     id="metadata2081">
    <rdf:RDF>
      <cc:Work
         rdf:about="">
        <dc:format>image/svg+xml</dc:format>
        <dc:type
           rdf:resource="http://purl.org/dc/dcmitype/StillImage" />
        <dc:title></dc:title>
      </cc:Work>
    </rdf:RDF>
  </metadata>
  <defs
     id="defs2079" />
  <sodipodi:namedview
     pagecolor="#ffffff"
     bordercolor="#666666"
     borderopacity="1"
     objecttolerance="10"
     gridtolerance="10"
     guidetolerance="10"
     inkscape:pageopacity="0"
     inkscape:pageshadow="2"
     inkscape:window-width="1920"
     inkscape:window-height="1001"
     id="namedview2077"
     showgrid="true"
     inkscape:zoom="1.84375"
     inkscape:cx="203.29838"
     inkscape:cy="205.56594"
     inkscape:window-x="-9"
     inkscape:window-y="-9"
     inkscape:window-maximized="1"
     inkscape:current-layer="svg2075"
     inkscape:document-rotation="0"
     units="mm"
     inkscape:document-units="mm">
    <inkscape:grid
       type="xygrid"
       id="grid830"
       units="mm"
       spacingx="3.7795278"
       spacingy="3.7795278" />
  </sodipodi:namedview>
  <g
     id="g842">
    <circle
       style="fill:none;fill-opacity:0.474227;stroke:#000000;stroke-width:9.99979;stroke-linecap:round;stroke-miterlimit:4;stroke-dasharray:none"
       id="path832"
       cx="60"
       cy="50"
       r="45.000103" />
    <path
       style="fill:#000000;stroke-width:0.12002"
       d="M 31.399068,74.113877 C 30.947351,73.996118 30.530347,73.823702 30.472392,73.730728 30.290095,73.438278 30,71.979609 30,71.355421 c 0,-0.329235 0.05761,-0.750647 0.128015,-0.936476 0.301546,-0.795871 1.207971,-1.351004 2.213139,-1.355415 l 0.600864,-0.0024 3.509822,-3.511366 c 1.930403,-1.931252 3.509824,-3.56265 3.509824,-3.625325 0,-0.06268 -0.729122,-0.849808 -1.620271,-1.749174 -1.013869,-1.023215 -1.62027,-1.726617 -1.62027,-1.879451 0,-0.422373 0.453786,-0.876724 0.875637,-0.876724 h 0.378135 l -0.80392,-0.810143 c -0.969884,-0.977391 -1.119529,-1.411591 -0.648749,-1.882375 0.590856,-0.590862 0.783225,-0.485616 2.833409,1.550169 l 1.87132,1.858178 6.898193,-6.899038 6.898194,-6.899031 -6.021143,-6.031081 -6.021144,-6.031087 -0.85706,-3.283103 c -0.471383,-1.805704 -0.837318,-3.30284 -0.813189,-3.32697 0.02413,-0.02413 1.542039,0.348564 3.373133,0.828216 l 3.32926,0.872086 5.995905,5.995057 5.995907,5.995056 5.995906,-5.995056 5.995906,-5.995057 3.32926,-0.872086 c 1.831094,-0.479652 3.349002,-0.852347 3.373132,-0.828216 0.02413,0.02412 -0.341806,1.521266 -0.813189,3.32697 l -0.857059,3.283103 -6.021144,6.031087 -6.021144,6.031081 6.898194,6.899031 6.898194,6.899038 1.871323,-1.858178 c 2.050182,-2.035785 2.24255,-2.141031 2.833409,-1.550169 0.470778,0.470784 0.321131,0.904984 -0.648751,1.882375 l -0.803924,0.810142 h 0.378135 c 0.421852,0 0.875642,0.454351 0.875642,0.876724 0,0.152834 -0.606401,0.856236 -1.62027,1.879451 -0.891149,0.899366 -1.620271,1.687178 -1.620271,1.750686 0,0.06351 1.5801,1.694908 3.511337,3.625326 l 3.511333,3.509853 0.599351,0.0024 c 1.119325,0.0048 2.118863,0.718471 2.290876,1.635413 0.104908,0.559195 -0.01146,1.736986 -0.2499,2.529094 -0.182364,0.605855 -0.209261,0.632823 -0.815109,0.817307 -0.729153,0.222028 -2.204937,0.363124 -2.644408,0.252826 -0.794239,-0.199343 -1.526457,-1.253597 -1.561869,-2.248788 l -0.02083,-0.585558 -3.570167,-3.570583 -3.570166,-3.570585 -1.652259,1.649114 c -1.317189,1.314674 -1.718877,1.649106 -1.980759,1.649106 -0.537641,0 -0.897099,-0.478553 -0.811369,-1.080188 0.01411,-0.09902 -0.378803,0.211537 -0.873139,0.69012 -1.004665,0.97265 -1.390997,1.09545 -1.863615,0.59237 -0.551348,-0.586891 -0.419934,-0.8205 1.598864,-2.842277 l 1.859823,-1.862571 -6.900665,-6.899936 -6.900666,-6.899945 -6.900667,6.899945 -6.900665,6.899936 1.859824,1.862571 c 1.589919,1.592265 1.859824,1.915943 1.859824,2.23035 0,0.458805 -0.431371,0.88971 -0.890672,0.88971 -0.253339,0 -0.55443,-0.212329 -1.233903,-0.870153 -0.494336,-0.478583 -0.887248,-0.789138 -0.873139,-0.69012 0.08573,0.601635 -0.273729,1.080188 -0.811369,1.080188 -0.261882,0 -0.66357,-0.334432 -1.980759,-1.649106 l -1.65226,-1.649114 -3.570166,3.570585 -3.570167,3.570583 -0.02094,0.587407 c -0.03176,0.890689 -0.541195,1.746474 -1.263311,2.122194 -0.440318,0.229102 -1.655237,0.201983 -2.65757,-0.05929 z"
       id="path839"
       inkscape:connector-curvature="0" />
  </g>
</svg>
