<svg width="100" height="100" version="1.1" viewBox="0 0 100 100" xmlns="http://www.w3.org/2000/svg">
 <path d="m50 0c-27.555 0-50 22.445-50 50s22.445 50 50 50 50-22.445 50-50-22.445-50-50-50zm0 10c22.151 0 40 17.849 40 40s-17.849 40-40 40-40-17.849-40-40 17.849-40 40-40zm-18.689 15.664c-0.02413 0.02413 0.34112 1.5224 0.8125 3.3281l0.85742 3.2832 6.0215 6.0312 6.0215 6.0293-6.8984 6.9004-6.8984 6.8984-1.8711-1.8574c-2.0502-2.0358-2.2431-2.1416-2.834-1.5508-0.47078 0.47078-0.31949 0.90542 0.65039 1.8828l0.80273 0.81055h-0.37695c-0.42185 0-0.87695 0.45263-0.87695 0.875 0 0.15283 0.60723 0.85764 1.6211 1.8809 0.89115 0.89936 1.6191 1.6854 1.6191 1.748 0 0.06267-1.5794 1.6938-3.5098 3.625l-3.5098 3.5117-0.59961 0.0039c-1.0052 0.0044-1.9113 0.55765-2.2129 1.3535-0.070405 0.18584-0.12891 0.60827-0.12891 0.93751 0 0.62419 0.29036 2.0826 0.47266 2.375 0.05795 0.09297 0.47406 0.26505 0.92578 0.38281 1.0023 0.26127 2.2179 0.28965 2.6582 0.06055 0.72212-0.37572 1.2319-1.2324 1.2637-2.123l0.02148-0.58789 3.5684-3.5703 3.5703-3.5703 1.6523 1.6504c1.3172 1.3147 1.7186 1.6484 1.9805 1.6484 0.53764 0 0.89823-0.47844 0.8125-1.0801-0.01411-0.09902 0.37871 0.21087 0.87305 0.68945 0.67947 0.65782 0.98104 0.87109 1.2344 0.87109 0.4593 1e-6 0.89062-0.43182 0.89062-0.89062 0-0.31441-0.26946-0.63821-1.8594-2.2305l-1.8613-1.8613 6.9004-6.9004 6.9023-6.9004 13.801 13.801-1.8594 1.8613c-2.0188 2.0218-2.151 2.2549-1.5996 2.8418 0.47262 0.50308 0.85862 0.38085 1.8633-0.5918 0.49434-0.47858 0.88716-0.78847 0.87305-0.68945-0.08573 0.60163 0.27486 1.0801 0.8125 1.0801 0.26188 0 0.66328-0.33376 1.9805-1.6484l1.6523-1.6504 7.1406 7.1406 0.01953 0.58594c0.03541 0.99519 0.76826 2.0507 1.5625 2.25 0.43947 0.1103 1.9154-0.03188 2.6445-0.25391 0.60585-0.18448 0.63209-0.21055 0.81445-0.81641 0.23844-0.79211 0.35491-1.9701 0.25-2.5293-0.17201-0.91694-1.1717-1.63-2.291-1.6348l-0.59961-0.0039-3.5098-3.5098c-1.9312-1.9304-3.5117-3.5615-3.5117-3.625s0.72799-0.85064 1.6191-1.75c1.0139-1.0232 1.6211-1.728 1.6211-1.8809 0-0.42237-0.45315-0.875-0.875-0.875h-0.37891l0.80469-0.81055c0.96988-0.97739 1.1192-1.412 0.64844-1.8828-0.59086-0.59086-0.7838-0.485-2.834 1.5508l-1.8711 1.8574-6.8984-6.8984-6.8984-6.9004 6.0215-6.0293 6.0215-6.0312 0.85742-3.2832c0.47138-1.8057 0.83663-3.304 0.8125-3.3281-0.02413-0.02413-1.542 0.34847-3.373 0.82813l-3.3301 0.87304-5.9961 5.9941-5.9941 5.9961-5.9961-5.9961-5.9961-5.9941-3.3301-0.87305c-1.8311-0.47965-3.3489-0.85226-3.373-0.82813z"/>
</svg>
