<?xml version="1.0" encoding="UTF-8" standalone="no"?>
<!-- Created with Inkscape (http://www.inkscape.org/) -->

<svg
   xmlns:dc="http://purl.org/dc/elements/1.1/"
   xmlns:cc="http://creativecommons.org/ns#"
   xmlns:rdf="http://www.w3.org/1999/02/22-rdf-syntax-ns#"
   xmlns:svg="http://www.w3.org/2000/svg"
   xmlns="http://www.w3.org/2000/svg"
   xmlns:sodipodi="http://sodipodi.sourceforge.net/DTD/sodipodi-0.dtd"
   xmlns:inkscape="http://www.inkscape.org/namespaces/inkscape"
   width="100mm"
   height="100mm"
   viewBox="0 0 100 100"
   version="1.1"
   id="svg8"
   inkscape:version="0.92.4 (5da689c313, 2019-01-14)"
   sodipodi:docname="target.svg">
  <defs
     id="defs2" />
  <sodipodi:namedview
     id="base"
     pagecolor="#ffffff"
     bordercolor="#666666"
     borderopacity="1.0"
     inkscape:pageopacity="0.0"
     inkscape:pageshadow="2"
     inkscape:zoom="1.4"
     inkscape:cx="107.4093"
     inkscape:cy="188.57143"
     inkscape:document-units="mm"
     inkscape:current-layer="layer1"
     showgrid="false"
     inkscape:window-width="1366"
     inkscape:window-height="715"
     inkscape:window-x="-8"
     inkscape:window-y="-8"
     inkscape:window-maximized="1" />
  <metadata
     id="metadata5">
    <rdf:RDF>
      <cc:Work
         rdf:about="">
        <dc:format>image/svg+xml</dc:format>
        <dc:type
           rdf:resource="http://purl.org/dc/dcmitype/StillImage" />
        <dc:title></dc:title>
      </cc:Work>
    </rdf:RDF>
  </metadata>
  <g
     inkscape:label="Layer 1"
     inkscape:groupmode="layer"
     id="layer1"
     transform="translate(0,-197)">
    <path
       style="fill:#000000;stroke-width:0.12939937"
       d="m 48.81328,296.84699 c -1.234677,-0.44121 -2.049934,-1.35102 -2.314957,-2.58343 -0.101928,-0.474 -0.131898,-5.40361 -0.103567,-17.03601 l 0.03987,-16.36901 0.274867,-0.58229 c 0.595782,-1.26217 1.695476,-1.98571 3.025983,-1.99095 1.402848,-0.006 2.519069,0.72719 3.118606,2.04718 0.228348,0.50275 0.239004,1.26853 0.240512,17.28326 l 0.0016,16.75721 -0.304626,0.65419 c -0.697377,1.49763 -2.531752,2.33676 -3.97826,1.81985 z m -4.12555,-8.8342 c -4.456284,-0.67574 -7.777267,-1.63427 -11.451854,-3.30537 -6.104854,-2.77631 -11.508731,-7.14474 -15.682782,-12.67779 -3.963508,-5.25395 -6.741713,-11.74911 -7.8001018,-18.23587 -0.1440286,-0.88273 -0.2618824,-1.64865 -0.2618964,-1.70202 -1.4e-5,-0.0534 1.3894052,-0.097 3.0875972,-0.097 h 3.08762 l 0.294857,1.58514 c 2.386573,12.83016 11.935482,23.44921 24.346418,27.07492 1.530364,0.44707 4.63343,1.10177 5.222085,1.10177 h 0.322652 v 3.17029 3.17028 l -0.420548,-0.0176 c -0.231302,-0.01 -0.566123,-0.0397 -0.744047,-0.0667 z m 9.446161,-3.07429 v -3.15859 l 0.938148,-0.15298 c 6.064651,-0.98888 11.463842,-3.40528 16.271984,-7.2825 1.598118,-1.2887 4.240937,-3.97169 5.445088,-5.52783 3.589294,-4.63854 6.096049,-10.25683 7.014789,-15.72201 l 0.174025,-1.0352 3.083195,-0.0347 3.083196,-0.0347 -0.08272,0.7918 c -0.22931,2.19394 -1.249837,6.21661 -2.245997,8.85322 -5.242269,13.87509 -17.392459,23.91977 -31.683818,26.1933 -0.929519,0.14787 -1.759294,0.26886 -1.843942,0.26886 -0.114742,0 -0.153909,-0.80382 -0.153909,-3.15859 z M 44.105432,272.1883 c -7.806763,-2.02437 -14.074448,-7.63734 -16.973875,-15.20078 -0.454002,-1.18431 -1.336151,-4.3989 -1.336151,-4.86899 0,-0.24446 0.109383,-0.25324 3.154556,-0.25324 h 3.154555 l 0.21905,0.87344 c 0.79967,3.18864 2.549563,6.13163 5.140799,8.64586 2.049055,1.98815 4.397474,3.40538 7.061614,4.26154 l 1.067546,0.34308 v 3.28998 c 0,1.80949 -0.01455,3.28734 -0.03235,3.2841 -0.01779,-0.003 -0.672878,-0.17199 -1.455746,-0.37499 z m 9.771693,-2.88399 0.002,-3.2698 1.547669,-0.5026 c 4.817933,-1.5646 8.91607,-5.35224 11.006962,-10.17302 0.275074,-0.63422 0.594216,-1.49048 0.709205,-1.90281 0.114987,-0.41234 0.267443,-0.93894 0.338791,-1.17024 l 0.12972,-0.42055 h 3.157017 3.157017 l -0.0742,0.42055 c -0.183046,1.0375 -0.843445,3.39295 -1.280854,4.56842 -2.758605,7.41331 -9.120179,13.2594 -16.520428,15.18174 -0.804799,0.20906 -1.623405,0.41566 -1.819122,0.45911 l -0.355848,0.079 0.002,-3.26979 z m -5.203998,-13.82868 c -2.308258,-0.30346 -4.400067,-1.625 -5.689392,-3.59439 -1.447921,-2.21162 -1.661244,-4.97129 -0.567305,-7.33898 0.532923,-1.15343 1.0653,-1.86183 2.062731,-2.74473 1.562173,-1.38278 3.564222,-2.04287 5.837447,-1.92464 2.118044,0.11014 3.816186,0.8601 5.317179,2.34822 2.144567,2.12617 2.862144,5.21929 1.867411,8.04948 -1.220587,3.47278 -5.009963,5.707 -8.828071,5.20504 z M 3.7723645,250.9079 c -0.3340842,-0.0899 -0.7125781,-0.24323 -0.8410967,-0.34064 -1.1350103,-0.86031 -1.5906203,-1.7129 -1.5882587,-2.97214 0.0026,-1.36879 0.6769098,-2.50313 1.8721869,-3.14928 l 0.5175982,-0.2798 16.1679338,-0.0343 c 18.306774,-0.0389 16.951955,-0.11377 18.064391,0.99866 1.883935,1.88394 1.04922,5.09651 -1.496496,5.75958 -0.667818,0.17395 -2.732597,0.19786 -16.42633,0.19022 -12.1915666,-0.007 -15.7971121,-0.045 -16.2699285,-0.17226 z m 59.8723895,0.0608 c -1.629112,-0.40359 -2.654474,-1.75469 -2.651426,-3.4937 0.0022,-1.25791 0.736682,-2.40404 1.973825,-3.08011 0.393245,-0.21491 1.405419,-0.23097 16.586737,-0.26321 17.980186,-0.0382 16.839548,-0.0916 17.928222,0.84023 1.849653,1.58323 1.451359,4.65616 -0.744964,5.74758 l -0.61313,0.30468 -16.04553,0.0203 c -8.825046,0.0112 -16.220225,-0.0229 -16.433734,-0.0758 z M 9.361671,243.1578 c 0,-0.16308 0.090973,-0.99286 0.2021608,-1.84393 2.3805102,-18.22137 16.7562052,-32.95471 34.5804412,-35.44076 0.801984,-0.11185 1.51438,-0.20337 1.583101,-0.20337 0.07692,0 0.124951,1.21351 0.124951,3.15692 v 3.15691 l -1.132245,0.15889 c -1.507616,0.21156 -4.320672,0.90903 -5.920026,1.4678 -11.675555,4.07914 -20.319386,14.05521 -22.773676,26.28369 -0.171615,0.85508 -0.347385,1.87495 -0.390599,2.26638 -0.04321,0.39143 -0.105276,0.84272 -0.137916,1.00285 l -0.05935,0.29114 H 12.400095 9.361671 Z m 74.612603,-1.35103 C 82.436503,231.08138 76.05786,221.66139 66.664349,216.24346 63.071453,214.17117 59.374901,212.8939 54.61914,212.08148 l -0.485249,-0.0829 v -3.16194 -3.16194 l 0.614649,0.077 c 4.930148,0.61821 10.237333,2.36084 14.525091,4.76936 10.099162,5.67292 17.375282,15.33538 20.060023,26.6391 0.401385,1.68997 0.852292,4.40674 0.926532,5.58241 l 0.04081,0.647 -3.044946,0.0346 -3.044944,0.0346 z m -58.048643,1.22702 c 0.0015,-0.52503 0.752583,-3.16351 1.287602,-4.52315 3.04969,-7.75015 9.721487,-13.4932 17.636246,-15.18122 l 0.744047,-0.15868 v 3.26144 3.26146 l -1.234178,0.4077 c -4.248084,1.40332 -7.708189,4.19853 -10.034199,8.10604 -0.745808,1.25289 -1.620607,3.27489 -1.950524,4.50842 l -0.162921,0.60914 h -3.143448 -3.14345 l 7.76e-4,-0.29115 z m 41.165273,-0.94649 c -1.195356,-3.69272 -3.514026,-6.96051 -6.567071,-9.25523 -1.55277,-1.16709 -3.086761,-1.97634 -5.02652,-2.65172 l -1.557521,-0.54229 -0.03457,-3.2497 c -0.01901,-1.78734 0.0101,-3.24963 0.0647,-3.24954 0.304977,5.2e-4 2.854659,0.68801 3.851857,1.03861 1.617472,0.5687 4.423224,2.03526 5.879054,3.07299 1.50136,1.07018 3.910292,3.36311 4.99166,4.7513 2.300764,2.95355 3.781173,5.92142 4.666608,9.35545 0.243932,0.94605 0.443514,1.77582 0.443514,1.84394 0,0.0754 -1.232684,0.12383 -3.15554,0.12383 h -3.15554 z m -18.295003,-6.58154 c -0.606831,-0.21656 -1.286228,-0.72849 -1.656043,-1.24784 -0.658781,-0.92518 -0.640535,-0.41502 -0.640535,-17.90981 0,-18.59518 -0.08092,-17.21666 1.07824,-18.36879 C 48.31851,197.24287 48.914296,197 49.979927,197 c 1.263159,0 2.267002,0.65218 2.861003,1.85877 l 0.390986,0.79421 -0.03426,16.82176 -0.03426,16.82175 -0.27981,0.5176 c -0.815633,1.50877 -2.568013,2.23399 -4.087685,1.69167 z"
       id="path826"
       inkscape:connector-curvature="0" />
  </g>
</svg>
