<svg width="100" height="100" version="1.1" viewBox="0 0 100 100" xmlns="http://www.w3.org/2000/svg">
 <path d="m48.813 99.847c-1.2347-0.44121-2.0499-1.351-2.315-2.5834-0.10193-0.474-0.1319-5.4036-0.10357-17.036l0.03987-16.369 0.27487-0.58229c0.59578-1.2622 1.6955-1.9857 3.026-1.991 1.4028-6e-3 2.5191 0.72719 3.1186 2.0472 0.22835 0.50275 0.239 1.2685 0.24051 17.283l0.0016 16.757-0.30463 0.65419c-0.69738 1.4976-2.5318 2.3368-3.9783 1.8198zm-4.1256-8.8342c-4.4563-0.67574-7.7773-1.6343-11.452-3.3054-6.1049-2.7763-11.509-7.1447-15.683-12.678-3.9635-5.254-6.7417-11.749-7.8001-18.236-0.14403-0.88273-0.26188-1.6486-0.2619-1.702-1.4e-5 -0.0534 1.3894-0.097 3.0876-0.097h3.0876l0.29486 1.5851c2.3866 12.83 11.935 23.449 24.346 27.075 1.5304 0.44707 4.6334 1.1018 5.2221 1.1018h0.32265v6.3406l-0.42055-0.0176c-0.2313-0.01-0.56612-0.0397-0.74405-0.0667zm9.4462-3.0743v-3.1586l0.93815-0.15298c6.0647-0.98888 11.464-3.4053 16.272-7.2825 1.5981-1.2887 4.2409-3.9717 5.4451-5.5278 3.5893-4.6385 6.096-10.257 7.0148-15.722l0.17402-1.0352 6.1664-0.0694-0.0827 0.7918c-0.22931 2.1939-1.2498 6.2166-2.246 8.8532-5.2423 13.875-17.392 23.92-31.684 26.193-0.92952 0.14787-1.7593 0.26886-1.8439 0.26886-0.11474 0-0.15391-0.80382-0.15391-3.1586zm-10.028-12.75c-7.8068-2.0244-14.074-7.6373-16.974-15.201-0.454-1.1843-1.3362-4.3989-1.3362-4.869 0-0.24446 0.10938-0.25324 3.1546-0.25324h3.1546l0.21905 0.87344c0.79967 3.1886 2.5496 6.1316 5.1408 8.6459 2.0491 1.9882 4.3975 3.4054 7.0616 4.2615l1.0675 0.34308v3.29c0 1.8095-0.01455 3.2873-0.03235 3.2841-0.01779-3e-3 -0.67288-0.17199-1.4557-0.37499zm9.7717-2.884 2e-3 -3.2698 1.5477-0.5026c4.8179-1.5646 8.9161-5.3522 11.007-10.173 0.27507-0.63422 0.59422-1.4905 0.7092-1.9028 0.11499-0.41234 0.26744-0.93894 0.33879-1.1702l0.12972-0.42055h6.314l-0.0742 0.42055c-0.18305 1.0375-0.84344 3.393-1.2809 4.5684-2.7586 7.4133-9.1202 13.259-16.52 15.182-0.8048 0.20906-1.6234 0.41566-1.8191 0.45911l-0.35585 0.079 2e-3 -3.2698zm-5.204-13.829c-2.3083-0.30346-4.4001-1.625-5.6894-3.5944-1.4479-2.2116-1.6612-4.9713-0.5673-7.339 0.53292-1.1534 1.0653-1.8618 2.0627-2.7447 1.5622-1.3828 3.5642-2.0429 5.8374-1.9246 2.118 0.11014 3.8162 0.8601 5.3172 2.3482 2.1446 2.1262 2.8621 5.2193 1.8674 8.0495-1.2206 3.4728-5.01 5.707-8.8281 5.205zm-44.901-4.5677c-0.33408-0.0899-0.71258-0.24323-0.8411-0.34064-1.135-0.86031-1.5906-1.7129-1.5883-2.9721 0.0026-1.3688 0.67691-2.5031 1.8722-3.1493l0.5176-0.2798 16.168-0.0343c18.307-0.0389 16.952-0.11377 18.064 0.99866 1.8839 1.8839 1.0492 5.0965-1.4965 5.7596-0.66782 0.17395-2.7326 0.19786-16.426 0.19022-12.192-7e-3 -15.797-0.045-16.27-0.17226zm59.872 0.0608c-1.6291-0.40359-2.6545-1.7547-2.6514-3.4937 0.0022-1.2579 0.73668-2.404 1.9738-3.0801 0.39324-0.21491 1.4054-0.23097 16.587-0.26321 17.98-0.0382 16.84-0.0916 17.928 0.84023 1.8497 1.5832 1.4514 4.6562-0.74496 5.7476l-0.61313 0.30468-16.046 0.0203c-8.825 0.0112-16.22-0.0229-16.434-0.0758zm-54.283-7.8109c0-0.16308 0.09097-0.99286 0.20216-1.8439 2.3805-18.221 16.756-32.955 34.58-35.441 0.80198-0.11185 1.5144-0.20337 1.5831-0.20337 0.07692 0 0.12495 1.2135 0.12495 3.1569v3.1569l-1.1322 0.15889c-1.5076 0.21156-4.3207 0.90903-5.92 1.4678-11.676 4.0791-20.319 14.055-22.774 26.284-0.17162 0.85508-0.34738 1.875-0.3906 2.2664-0.04321 0.39143-0.10528 0.84272-0.13792 1.0028l-0.05935 0.29114h-6.0768zm74.613-1.351c-1.5378-10.725-7.9164-20.145-17.31-25.563-3.5929-2.0723-7.2894-3.3496-12.045-4.162l-0.48525-0.0829v-6.3239l0.61465 0.077c4.9301 0.61821 10.237 2.3608 14.525 4.7694 10.099 5.6729 17.375 15.335 20.06 26.639 0.40138 1.69 0.8523 4.4067 0.92654 5.5824l0.0408 0.647-6.0899 0.0692zm-58.049 1.227c0.0015-0.52503 0.75258-3.1635 1.2876-4.5232 3.0497-7.7502 9.7215-13.493 17.636-15.181l0.74405-0.15868v6.5229l-1.2342 0.4077c-4.2481 1.4033-7.7082 4.1985-10.034 8.106-0.74581 1.2529-1.6206 3.2749-1.9505 4.5084l-0.16292 0.60914h-6.2869l7.76e-4 -0.29115zm41.165-0.94649c-1.1954-3.6927-3.514-6.9605-6.5671-9.2552-1.5528-1.1671-3.0868-1.9763-5.0265-2.6517l-1.5575-0.54229-0.03457-3.2497c-0.01901-1.7873 0.0101-3.2496 0.0647-3.2495 0.30498 5.2e-4 2.8547 0.68801 3.8519 1.0386 1.6175 0.5687 4.4232 2.0353 5.8791 3.073 1.5014 1.0702 3.9103 3.3631 4.9917 4.7513 2.3008 2.9536 3.7812 5.9214 4.6666 9.3554 0.24393 0.94605 0.44351 1.7758 0.44351 1.8439 0 0.0754-1.2327 0.12383-3.1555 0.12383h-3.1555zm-18.295-6.5815c-0.60683-0.21656-1.2862-0.72849-1.656-1.2478-0.65878-0.92518-0.64054-0.41502-0.64054-17.91 0-18.595-0.08092-17.217 1.0782-18.369 0.74095-0.73645 1.3367-0.97932 2.4024-0.97932 1.2632 0 2.267 0.65218 2.861 1.8588l0.39099 0.79421-0.03426 16.822-0.03426 16.822-0.27981 0.5176c-0.81563 1.5088-2.568 2.234-4.0877 1.6917z"/>
</svg>
