<svg width="100" height="100" viewBox="0 0 100 100" xmlns="http://www.w3.org/2000/svg">
 <path d="m50 0c-12.961 0-24.685 1.2345-33.457 3.3321-4.386 1.0488-8.0253 2.2809-10.896 3.9042-2.8271 1.5984-5.5593 3.9137-5.6426 7.5918a4 4 0 0 0-0.00413 0.17208v70a4 4 0 0 0 0.085783 0.82424c-0.04892 0.3273-0.07627 0.66676-0.08217 1.017a4 4 0 0 0-0.00362 0.15865c0 0.0016-1.3e-6 0.0031 0 0.0047 1.25e-5 0.0031-1.61e-5 0.0062 0 0.0093a4 4 0 0 0 5.3e-4 5.29e-4c0.0062 2.6144 1.6743 4.4357 3.2479 5.5739 1.5765 1.1403 3.416 1.947 5.6307 2.697 4.4293 1.5001 10.374 2.6545 17.672 3.4784 14.596 1.6478 32.302 1.6478 46.898 0 7.2982-0.8239 13.242-1.9783 17.672-3.4784 2.2147-0.75005 4.0547-1.5568 5.6312-2.697 1.5735-1.1381 3.2411-2.9594 3.2474-5.5739a4 4 0 0 0 5.28e-4 -5.29e-4c1e-5 -0.0031-2e-5 -0.0062 0-0.0093v-0.0047a4 4 0 0 0-4e-3 -0.1726 4 4 0 0 0 0-0.0026c-7e-3 -0.34387-0.0342-0.6776-0.0822-0.99943a4 4 0 0 0 0.0858-0.82528v-70a4 4 0 0 0-5e-3 -0.18862c-0.090338-3.6686-2.8184-5.9793-5.6413-7.5753-2.8712-1.6233-6.5105-2.8554-10.896-3.9042-8.772-2.0977-20.496-3.3321-33.457-3.3321zm0 8.0001c12.444 0 23.719 1.2279 31.596 3.1115 3.9384 0.94179 7.0359 2.081 8.8201 3.0898 0.67606 0.38223 0.88243 0.59689 1.1074 0.79892-0.225 0.20203-0.43137 0.4167-1.1074 0.79892-1.7843 1.0088-4.8817 2.148-8.8201 3.0898-7.8768 1.8836-19.152 3.1115-31.596 3.1115-12.444 0-23.719-1.2279-31.595-3.1115-3.9384-0.94179-7.0364-2.081-8.8207-3.0898-0.67606-0.38223-0.88242-0.5969-1.1074-0.79892 0.225-0.20203 0.43136-0.4167 1.1074-0.79892 1.7843-1.0088 4.8823-2.148 8.8207-3.0898 7.8768-1.8836 19.151-3.1115 31.595-3.1115zm-42 15.936c2.4284 1.0695 5.2786 1.952 8.5431 2.7327 8.772 2.0977 20.496 3.3321 33.457 3.3321 12.961 0 24.685-1.2345 33.457-3.3321 3.2645-0.78066 6.1148-1.6632 8.5431-2.7327v53.165c-0.74685-0.37886-1.4996-0.72434-2.2541-1.0413a4 4 0 0 0-5.2379 2.1389 4 4 0 0 0 2.1384 5.2364c0.5888 0.24733 1.1619 0.51116 1.7151 0.79117 0.0021 0.0011 0.0016 0.0026 0.0036 0.0036 1.4014 0.72777 2.5073 1.4604 3.1941 2.1921-0.64602 0.36486-1.6768 0.83864-3.0045 1.2883-3.5125 1.1896-9.0694 2.323-16.004 3.1058-13.869 1.5656-31.233 1.5656-45.102 0-6.9343-0.78282-12.492-1.9162-16.004-3.1058-1.327-0.44941-2.3573-0.92301-3.0034-1.2878 0.67214-0.71779 1.7481-1.4401 3.1166-2.1554a4 4 0 0 0 1.6914-5.3987 4 4 0 0 0-5.2498-1.6454zm49.014 46.2a4 4 0 0 0-4.1677 3.8261 4 4 0 0 0 3.8241 4.1683c5.1996 0.22318 10.365 0.69506 15.451 1.5115a4 4 0 0 0 0.56276 0.04909 4 4 0 0 0 4.0215-3.3657 4 4 0 0 0-3.3145-4.5837c-5.4465-0.87429-10.922-1.3714-16.377-1.6056zm-16.396 0.11937c-5.4539 0.31536-10.93 0.89876-16.371 1.8924a4 4 0 0 0-3.2169 4.6545 4 4 0 0 0 3.9848 3.281 4 4 0 0 0 0.66766-0.0646c5.0532-0.92275 10.206-1.4769 15.399-1.7772a4 4 0 0 0 3.7615-4.2246 4 4 0 0 0-4.2245-3.7616z"/>
</svg>
