<svg width="100" height="100" viewBox="0 0 100 100" xmlns="http://www.w3.org/2000/svg"><path d="m50.003 0.01499c-19.873-0.27243-38.987 12.674-46.299 31.119-7.4903 17.746-3.3518 39.59 10.123 53.359 13.103 14.105 34.691 19.296 52.773 12.689 18.949-6.4524 32.866-25.198 33.365-45.238 1.0102-19.47-10.687-38.723-28.307-46.99-6.7239-3.2548-14.187-4.9494-21.656-4.9395zm0 8c18.658-0.35086 36.335 13.348 40.682 31.488 4.764 17.434-3.2673 37.308-18.881 46.443-15.944 10.012-38.426 7.3394-51.518-6.2148-13.554-13.092-16.225-35.572-6.2129-51.516 7.4013-12.408 21.473-20.343 35.93-20.201zm29.045 12.346c-0.07969 0.0011-0.15825 0.01903-0.23047 0.05273l-20.585 7.2264c-0.50462 0.23194-0.40362 0.97714 0.14453 1.0664 1.475 0.2424 4.4173 2.319 5.6525 3.0392l-14.027 14.027-14.029-14.029c1.2242-0.71111 4.1973-2.822 5.6529-3.0435 0.46478-0.07006 0.64376-0.64545 0.30078-0.9668-0.04401-0.04019-0.0941-0.07317-0.14844-0.09766l-20.632-7.183c-0.47574-0.21996-0.96729 0.27289-0.74609 0.74805l7.063 20.488c0.23194 0.50462 0.97714 0.40362 1.0664-0.14453 0.2424-1.475 2.4824-4.3209 3.2026-5.5561l14.027 14.027-14.029 14.029c-0.71111-1.2242-2.7747-4.15-2.9962-5.6056-0.07006-0.46478-0.64545-0.64376-0.9668-0.30078-0.04019 0.04401-0.07317 0.0941-0.09766 0.14844l-7.2303 20.585c-0.21995 0.47574 0.2729 0.96729 0.74806 0.74608l20.624-7.1885c0.05709-0.0269 0.10926-0.06321 0.1543-0.10742 0.3289-0.32126 0.15443-0.87998-0.29883-0.95703-1.475-0.2424-4.4571-2.3588-5.6923-3.0791l14.027-14.027 14.029 14.029c-1.2242 0.71111-4.3134 2.6783-5.769 2.8998-0.46478 0.07006-0.64376 0.64546-0.30078 0.9668 0.04401 0.04019 0.0941 0.07317 0.14844 0.09766l20.748 7.3267c0.47574 0.21995 0.96729-0.2729 0.74608-0.74806l-7.1791-20.632c-0.0269-0.05709-0.06321-0.10926-0.10742-0.1543-0.32126-0.3289-0.87999-0.15443-0.95703 0.29883-0.2424 1.475-2.3683 4.4646-3.0885 5.6998l-14.027-14.027 14.029-14.029c0.71111 1.2242 2.8145 4.1879 3.036 5.6435 0.07006 0.46478 0.64546 0.64376 0.9668 0.30078l0.09766-0.14844 7.1905-20.622c0.10014-0.21622 0.0532-0.47208-0.11719-0.63867-0.10689-0.10446-0.25095-0.16208-0.40039-0.16016z"/></svg>
