<svg width="100" height="100" viewBox="0 0 100 100" xmlns="http://www.w3.org/2000/svg">
 <path d="m78.299 0c-3.4379 0-6.2988 2.861-6.2988 6.2988v15.402c0 0.20628 0.01037 0.41074 0.03049 0.61236l-49.717 49.717c-0.20163-0.02011-0.40558-0.03049-0.61185-0.03049h-15.403c-3.4379 0-6.2988 2.8605-6.2988 6.2983v15.403c0 3.4379 2.861 6.2988 6.2988 6.2988h15.403c3.4379 0 6.2983-2.861 6.2983-6.2988v-15.403c0-0.20628-0.01037-0.41022-0.03049-0.61185l49.719-49.717c0.20096 0.01998 0.40472 0.03049 0.6103 0.03049h15.402c3.4379 0 6.2988-2.861 6.2988-6.2988v-15.402c0-3.4379-2.861-6.2988-6.2988-6.2988zm0 6.0002h15.402c0.21766 0 0.29869 0.081034 0.29869 0.29869v15.402c0 0.21766-0.081 0.29921-0.29869 0.29921h-15.402c-0.21766 0-0.29921-0.08155-0.29921-0.29921v-15.402c0-0.21766 0.08155-0.29869 0.29921-0.29869zm-72 72h15.403c0.21765 0 0.29869 0.08104 0.29869 0.29869v15.403c0 0.21766-0.08103 0.29869-0.29869 0.29869h-15.403c-0.21766 0-0.29869-0.08103-0.29869-0.29869v-15.403c0-0.21765 0.08103-0.29869 0.29869-0.29869z"/>
</svg>
