<svg width="100" height="100" viewBox="0 0 100 100" xmlns="http://www.w3.org/2000/svg">
 <path d="m48 0a4 4 0 0 0-0.04547 0.045475c-26.599 1.0764-47.916 23.034-47.954 49.883a4 4 0 0 0-0.00103 0.07131c0 26.881 21.333 48.877 47.955 49.955a4 4 0 0 0 0.04547 0.04548c0.20445 0 0.40618-0.0086 0.60668-0.02067 0.463 0.01275 0.92718 0.02067 1.3932 0.02067 27.567 0 50-22.433 50-50 0-0.02885-1e-3 -0.05746-1e-3 -0.0863a4 4 0 0 0 0-0.0041c-0.04918-27.525-22.462-49.91-49.999-49.91-0.46602 0-0.93019 0.0079322-1.3932 0.020671-0.2005-0.012084-0.40224-0.020671-0.60668-0.020671zm0.30644 8.0362c0.89389 0.18842 2.4576 1.1968 4.2581 4.1884 2.0271 3.3679 3.9919 8.7568 5.3573 15.562 0.29266 1.4587 0.55194 2.9609 0.78186 4.4933-1.1146-0.07201-2.2296-0.13316-3.3445-0.17673a4 4 0 0 0-0.16795-0.0021 4 4 0 0 0-3.9863 3.8437 4 4 0 0 0 3.8416 4.1527c1.5234 0.05954 3.0435 0.15022 4.5604 0.26613 0.53201 7.0024 0.47702 14.328-0.16692 21.262-6.892 0.51259-14.09 0.4581-20.915-0.16692-0.15026-1.6221-0.2712-3.2487-0.35553-4.8793a4 4 0 0 0-3.9724-3.793 4 4 0 0 0-0.22841 0.0062 4 4 0 0 0-3.7894 4.2008c0.05891 1.139 0.1366 2.2779 0.22582 3.4163-0.88579-0.15064-1.7589-0.31233-2.6179-0.48473-6.8055-1.3658-12.193-3.3294-15.561-5.3572-3.3679-2.0278-4.2266-3.758-4.2266-4.5682 0-0.37013 0.0055-0.73911 0.01499-1.1069a4 4 0 0 0 2.9812-0.67024c1.8053-1.2701 3.9396-2.2943 6.2461-3.1915a4 4 0 0 0 2.2774-5.178 4 4 0 0 0-3.8049-2.5487 4 4 0 0 0-1.373 0.2713c-1.7002 0.66135-3.4319 1.422-5.1304 2.3549 3.5133-14.345 14.367-25.767 28.378-30.076-1.0532 2.0093-1.8906 4.0636-2.6071 6.0901a4 4 0 0 0 2.4396 5.1056 4 4 0 0 0 5.1036-2.4396c0.83018-2.348 1.7865-4.5541 2.9766-6.5076a4 4 0 0 0 0.15658-3.8825c0.87459-0.089297 1.758-0.14992 2.6479-0.185zm11.748 1.1715c18.367 4.4913 31.945 21.017 31.945 40.792 0 0.81017-0.85872 2.5404-4.2266 4.5682-3.3679 2.0278-8.7548 3.9914-15.56 5.3573-1.5069 0.30243-3.06 0.56965-4.6452 0.80512 0.94375-11.569 0.34298-23.824-1.8025-34.518-1.3731-6.8442-3.2676-12.569-5.7108-17.005zm-24.934 19.634a4 4 0 0 0-3.9274 3.4453c-0.05068 0.36147-0.09497 0.72349-0.14211 1.0852-0.13104 0.01987-0.26226 0.03701-0.39326 0.05736a4 4 0 0 0-3.3378 4.5666 4 4 0 0 0 3.0324 3.2778 4 4 0 0 0 3.6887 3.513 4 4 0 0 0 4.2731-3.7068c0.01283-0.18126 0.02925-0.36199 0.04289-0.54312 0.39708-0.03724 0.79388-0.07635 1.1917-0.10955a4 4 0 0 0 3.654-4.3181 4 4 0 0 0-4.0669-3.6664 4 4 0 0 0-3.4251-3.5621 4 4 0 0 0-0.50384-0.03927 4 4 0 0 0-0.0863 0zm43.753 6.7102a4 4 0 0 0-0.05116 0.0011 4 4 0 0 0-3.7719 2.914 4 4 0 0 0 2.7637 4.9335c2.429 0.68476 4.7725 1.4881 6.9748 2.4784a4 4 0 0 0 5.2891-2.0076 4 4 0 0 0-2.0076-5.2891c-2.6634-1.1977-5.3839-2.1192-8.0863-2.881a4 4 0 0 0-1.1105-0.14934zm-69.02 26.855c4.3408 2.2762 9.8435 4.0554 16.359 5.363 9.9728 2.0015 21.303 2.657 32.168 1.9709-0.14342 0.83568-0.29605 1.6605-0.45889 2.4722-1.3654 6.8056-3.3302 12.195-5.3573 15.563-1.7988 2.9886-3.3612 3.998-4.2556 4.1879-1.8692-0.07358-3.7068-0.26741-5.5046-0.57619a4 4 0 0 0 1.6816-5.3227c-1.0665-2.1212-1.9256-4.4181-2.6639-6.8182a4 4 0 0 0-3.7791-2.8246 4 4 0 0 0-1.2206 0.17777 4 4 0 0 0-2.6469 4.9981c0.82896 2.6945 1.834 5.4149 3.1642 8.0605a4 4 0 0 0 0.29972 0.50126c-13.265-4.0612-23.71-14.495-27.785-27.753zm80.292 0c-4.3092 14.017-15.738 24.875-30.091 28.385 2.4431-4.4363 4.3377-10.161 5.7108-17.005 0.31698-1.58 0.59846-3.196 0.84801-4.8369 2.4497-0.32056 4.8486-0.71415 7.1737-1.1808 6.5152-1.3076 12.018-3.0868 16.359-5.363z"/>
</svg>
