<svg width="100" height="100" version="1.1" viewBox="0 0 100 100" xmlns="http://www.w3.org/2000/svg">
 <path d="m39.735 3.12e-4c-4.4165 0-7.9913 3.5744-7.9913 8.096v52.682c0 0.42061-0.21154 0.84122-0.7373 1.0515-0.42061 0.21031-0.84041 0.10597-1.261-0.20948l-8.2028-8.096c-2.734-2.734-7.044-3.1551-10.304-0.94679-1.8927 1.2618-3.1555 3.3636-3.4708 5.5719-0.31545 2.3134 0.31465 4.6284 1.7867 6.416l20.295 24.499c2.3111 2.7733 3.2194 6.9462 4.0521 10.936h53.577c2.9694-8.3684 4.7257-21.267 4.7257-26.498l0.1068-25.343c0-4.4165-3.5768-7.9913-7.9933-7.9913-2.8391 0-5.3629 1.4717-6.8349 3.7851v-0.20949c0-4.4165-3.5744-8.096-8.096-8.096-2.8391 0-5.3629 1.4717-6.8349 3.7851v-0.21154c0-4.4165-3.5744-8.096-8.096-8.096-2.8391 0-5.3629 1.4717-6.8349 3.7851v-26.919c0-2.1031-0.84247-4.2065-2.3146-5.6787-1.367-1.5773-3.3636-2.3126-5.5719-2.3126z"/>
</svg>
