<svg width="100" height="100" viewBox="0 0 100 100" xmlns="http://www.w3.org/2000/svg">
 <path d="m13.199 0c-7.2436 0-13.199 5.9556-13.199 13.199v73.602c0 7.2436 5.9556 13.199 13.199 13.199h73.602c7.2436 0 13.199-5.9556 13.199-13.199v-73.602c0-7.2436-5.9556-13.199-13.199-13.199zm0 8h9.801v15h-15v-9.801c0-2.95 2.2492-5.1992 5.1992-5.1992zm13.801 0h46v15h-46zm50 0h9.801c2.95 0 5.1992 2.2492 5.1992 5.1992v9.801h-15zm-69 19h40v21h-40zm44 0h40v21h-40zm-44 25h15v21h-15zm19 0h46v21h-46zm50 0h15v21h-15zm-69 25h40v15h-34.801c-2.95 0-5.1992-2.2492-5.1992-5.1992zm44 0h40v9.801c0 2.95-2.2492 5.1992-5.1992 5.1992h-34.801z"/>
</svg>
