<svg width="100" height="100" version="1.1" viewBox="0 0 100 100" xmlns="http://www.w3.org/2000/svg"><path d="m47.256 98.952v-4.2857h-1.9223v-23h1.6667v-20.386l-2.25 0.21999c-0.75 0.07333-1.5063 0.09817-2.25 0.21999-0.22509 0.03687-0.44445 0.10279-0.66667 0.15419-0.22222 0.0514-0.66667 0.15419-0.66667 0.15419l1.6377-1.4968c0.5459-0.49895 1.0337-1.0701 2.5948-1.9545 1.5611-0.88446 2.1709-1.26 4.4968-2.1715s3.3474-1.2428 5.4512-2.2717c2.1038-1.0289 2.9893-1.3071 4.3088-2.5574s1.8598-1.6879 2.6367-2.932 1.0999-1.7093 1.6736-3.1055c0.57368-1.3962 1.0242-2.5392 1.0242-2.5392s-2.1696 1.3248-4.3835 3.0164c-2.2139 1.6916-2.9723 2.048-5.0638 3.1531-2.0915 1.1051-3.4494 1.4791-6.7133 2.6845-3.264 1.2054-4.5054 1.7673-7.3683 3.0281-2.8628 1.2609-3.4663 1.8236-5.0445 3.0468s-1.9652 1.8724-3.0842 3.3477-1.3861 2.1684-2.201 3.8869-0.93994 2.586-1.446 4.8759c-0.50605 2.2899-0.35106 3.5317-0.29249 6.4783 0.05857 2.9466 0.39638 3.8712 1.0202 6.2423s1.1712 3.2504 2.3187 5.4879c1.1475 2.2374 1.8504 2.8827 2.458 3.5989l1.8228 2.1487-1.7566-0.68984c-0.58553-0.22995-1.1795-0.43954-2.8747-1.2342-1.6953-0.7947-2.4247-1.0794-5.0871-2.8257-2.6624-1.7463-3.8984-2.4226-6.0432-4.4086-1.1552-0.93197-5.3466-5.0804-5.3466-5.0804l0.42708-3.9704c0.19331-1.598 0.48531-2.3895 1.0626-4.3282 0.57727-1.9387 0.99285-2.5136 1.9513-4.1809 0.95842-1.6673 1.6025-2.4994 2.2025-3.3605l1.8-2.5833s-0.45064 0-2.6832 0.87824c-2.2326 0.87824-3.047 1.6179-5.1542 3.062s-2.8419 1.7175-3.5453 2.0502c-0.70345 0.33268-2.1103 0.99806-2.1103 0.99806s-0.68254-1.4472-0.88878-2.2167c-0.47058-1.8273-0.72965-2.7077-1.1628-5.2675-0.43317-2.5598-0.64553-3.6095-0.82051-5.497-0.10934-0.90094-0.39614-4.6012-0.39614-4.6012l1.0503-2.0669c0.35011-0.68897 0.65839-1.4009 1.9718-3.3899s1.8378-2.8413 3.6027-5.0668c1.765-2.2255 2.4761-3.1564 4.5418-5.4917 2.0657-2.3353 2.9416-3.2518 3.5741-4.0294 0.15773-0.18905 1.0863-1.3604 1.0863-1.3604l-1.3141 0.46364c-0.43804 0.15455-0.88703 0.28101-2.2407 0.95006s-1.9564 0.90089-3.5136 2.1049c-1.5572 1.204-2.2259 1.6903-3.3275 2.7261-0.55071 0.48402-2.6849 2.5625-2.6849 2.5625s0.79991-2.2426 1.3005-3.2729c1.3259-2.7115 1.8641-4.1055 3.5795-6.5149 1.7154-2.4094 2.3094-3.3551 4.6464-5.6692 2.337-2.3141 3.2389-3.3578 5.8354-5.1435s3.5741-2.5545 6.1711-3.7505 3.5931-1.7257 5.673-2.3263c1.0098-0.35425 5.1812-1.4306 5.1812-1.4306s-0.65927 0.82861-2.1229 2.6635c-1.593 1.9971-2.4588 2.8932-3.673 5.0875-0.68891 1.057-2.9682 5.5485-2.9682 5.5485s0.25663 0 1.7121-0.75266c0.84945-0.34652 4.2395-2.258 4.2395-2.258l-1.3454 2.9244c-0.53944 1.2404-0.62373 2.0898-0.97129 4.1174s0.03194 2.7381 0.5792 4.5153c0.54726 1.7773 1.063 2.251 2.065 3.527 1.002 1.276 1.4735 1.5626 2.6016 2.4112s1.7556 1.0625 3.0299 1.6271c1.2743 0.56456 1.6425 0.55486 1.6425 0.55486l-0.47494-7.4838-1.0279-0.75165 4.8269-6.3966 0.33333-0.0096 4.7661 6.4507-0.97128 0.71022-0.19732 3.7404-0.19732 3.7403s1.5185-0.30823 2.255-0.65169c1.4228-0.68971 2.1637-0.91173 3.4723-2.2136s1.8936-1.775 2.6809-3.2136 1.1446-1.9767 1.5823-3.669 0.68281-2.3746 0.72777-4.3056c0.04495-1.931 0.14542-2.7248-0.35084-4.8734-0.49626-2.1487-0.63173-3.0549-1.3705-4.6759s-0.96343-2.256-1.8596-3.4166c-0.40762-0.63798-2.3305-2.9216-2.3305-2.9216l3.0543 0.81739c1.0181 0.27246 2.0598 0.4685 4.6117 1.544 2.5519 1.0755 3.6211 1.4404 6.0651 2.9964 2.444 1.556 3.4671 2.1332 4.9525 3.5026 1.4854 1.3694 2.7762 2.0808 2.7762 2.0808s1.2679-0.83874 1.7822-1.38c0.51705-0.45999 0.97148-1.0019 2.3724-1.6988s1.924-1.0393 3.1716-1.2364c0.61635-0.17328 3.1546-0.4259 3.1546-0.4259l-1.6463 2.7393c-0.54878 0.91308-1.1824 1.7803-1.8864 3.5139s-1.0379 2.3322-1.1759 2.9879c-0.34377 1.6334-0.18329 3.3333-0.27493 5-0.09164 1.6667-0.04869 3.3462-0.61148 6.2128-0.56279 2.8666-0.75121 3.8952-1.1328 5.246-0.14703 0.5691-0.88361 3.0412-0.88361 3.0412l1.3664-1.0556c1.1218-1.0556 1.6396-1.5669 2.2742-2.315 0.63462-0.74813 0.95448-1.3662 1.557-2.5962 0.49479-0.80598 1.7336-3.8319 1.7336-3.8319l0.66383 1.5487c0.22128 0.51622 0.47377 1.0201 1.0124 2.796 0.53867 1.7758 0.7972 2.5218 1.166 4.349s0.57643 2.5396 0.60393 6.239c0.0275 3.6994 0.19595 5.3753-0.3711 8.4681-0.56706 3.0928-0.73347 4.2429-1.4081 6.2685-0.28083 0.9995-2.4447 6.4208-2.4447 6.4208-0.73385 1.458-1.0566 2.2109-2.6108 4.5797-1.5542 2.3687-2.1493 3.4346-4.1118 5.6077-1.9625 2.1732-2.6839 3.095-4.9725 4.8764-2.2886 1.7814-3.1647 2.5535-5.3825 3.7759-2.2178 1.2224-3.0511 1.7414-4.7215 2.3733-0.79259 0.3481-4.117 1.503-4.117 1.503l2.8042-3.2351c1.1137-1.3385 1.4475-2.2406 2.4731-4.2998 1.0256-2.0592 1.2012-2.8612 1.7901-4.9917 0.58892-2.1305 0.5079-3.314 0.57096-4.4806 0.06305-1.1667 0.18916-3.5 0.18916-3.5l0.7301-1.1667c0.24336-0.38889 0.51378-0.76211 0.7301-1.1667 0.45961-0.85958 0.80001-1.7778 1.2-2.6667s0.82417-1.7673 1.2-2.6667c0.41325-0.9889 0.77274-1.9994 1.1591-2.9991 0.38637-0.9997 1.3807-1.9505 1.1591-2.9991-0.01343-0.06353-0.13774-0.13774-0.13774-0.13774s-0.07286-0.13525-0.13774-0.13774c-0.25678-0.0099-0.39025 0.33442-0.58538 0.50162s-0.39021 0.33447-0.58538 0.50162c-1.6368 1.4018-3.2743 2.8028-4.9114 4.2042l-4.9114 4.2042-2.8188-2.9228c-1.1074-1.1133-1.7046-1.4024-3.1482-2.2784-1.4437-0.87596-2.1964-1.0589-3.8515-1.5899s-2.0911-0.51404-2.5254-0.51342v20h1.6667v23h-2v4.2857c-1.1852 0.76846-1.697 1.0476-2.8333 1.0476s-1.918-0.33994-2.911-1.0476z"/></svg>