<svg width="100" height="100" version="1.1" viewBox="0 0 100 100" xml:space="preserve" xmlns="http://www.w3.org/2000/svg"><path d="m46.586 95.828c-1.8731-2.3269-4.4133-5.2587-5.645-6.515-1.2317-1.2564-9.3796-8.0077-18.106-15.003-8.7268-6.9952-16.201-13.1-16.61-13.566-0.40841-0.46603-0.88611-1.2227-1.0616-1.6815-0.3165-0.82772-1.5987-31.259-1.3285-31.529 0.077512-0.07751 1.3613 0.90339 2.8528 2.1798 1.4915 1.2764 2.8566 2.3207 3.0336 2.3207 0.42773 0 7.5734-5.4134 9.1617-6.9407l1.2513-1.2033v-9.8232l-1.3322-1.1403c-3.1403-2.688-7.6709-2.4953-9.1628 0.38963-0.2842 0.54959-0.51673 1.2552-0.51673 1.5681 0 0.53366 0.038417 0.53406 0.6214 0.0065 1.7538-1.5872 4.6557-1.294 6.3556 0.64203 0.98793 1.1252 1.0315 1.3007 1.0315 4.1495 0 2.9682-0.0023 2.9763-1.0845 3.7805-0.59647 0.44324-2.1016 1.3668-3.3448 2.0523-2.6413 1.4565-2.312 1.5585-6.6132-2.0494l-2.5335-2.1252-0.42646-2.8665c-0.23455-1.5766-0.62596-3.6228-0.8698-4.5471l-0.44334-1.6806 1.5345-1.7962c2.7071-3.1687 8.3417-7.0957 10.2-7.109 1.0317-0.00739 5.25 1.6073 7.5417 2.8867 1.2168 0.67937 3.3011 2.3016 4.6316 3.6049l2.4192 2.3696v3.4197c0 5.2434 0.92676 6.7351 4.1841 6.7351h1.6998l-0.04442-6.4479 2.3358-1.2757c3.5394-1.933 3.4147-2.0571 3.2358 3.2188l-0.15278 4.5048h6.4229l-0.21562-5.4671-0.21562-5.4671 2.3272-0.39254c1.7902-0.30196 2.8532-0.30095 4.6064 0.0043l2.2791 0.3969-0.43089 10.926h6.4229l-0.15279-4.5048c-0.17893-5.2759-0.30368-5.1518 3.2358-3.2188l2.3358 1.2757-0.04442 6.4479h1.6998c3.2574 0 4.1841-1.4918 4.1841-6.7351v-3.4197l2.4192-2.3696c1.3306-1.3033 3.4148-2.9255 4.6316-3.6049 2.2917-1.2795 6.51-2.8941 7.5417-2.8867 1.8585 0.01331 7.4932 3.9403 10.2 7.109l1.5345 1.7962-0.44334 1.6806c-0.24384 0.92435-0.63525 2.9706-0.8698 4.5471l-0.42646 2.8665-2.5335 2.1251c-4.3012 3.6079-3.9719 3.5059-6.6132 2.0494-1.2432-0.68552-2.7484-1.609-3.3448-2.0523-1.0822-0.80415-1.0845-0.8123-1.0845-3.7805 0-2.8469 0.04415-3.0249 1.0285-4.146 1.6826-1.9164 4.0105-2.2169 6.0624-0.78256 0.8035 0.56165 0.91764 0.57429 0.91764 0.10161 0-0.2969-0.23253-0.98949-0.51673-1.5391-1.4919-2.885-6.0225-3.0776-9.1628-0.38963l-1.3322 1.1403v9.8232l1.2513 1.2033c1.5883 1.5274 8.734 6.9408 9.1617 6.9408 0.17692 0 1.542-1.0443 3.0336-2.3207 1.4915-1.2764 2.7753-2.2573 2.8528-2.1798 0.27024 0.27024-1.012 30.702-1.3285 31.529-0.17544 0.45882-0.65314 1.2155-1.0616 1.6815-0.40841 0.46603-7.8912 6.5775-16.628 13.581-8.7373 7.0036-16.947 13.83-18.245 15.17-1.2974 1.3398-3.8097 4.2379-5.5828 6.4402-1.7731 2.2024-3.2469 4.0311-3.2751 4.0639-0.02819 0.03279-1.5838-1.8442-3.4568-4.1711zm9.42-13.961c7.3969-6.7289 26.255-25.568 26.741-26.714 0.32871-0.77581 0.45496-2.7759 0.45496-7.2077v-6.1339l-0.97384-1.3443c-0.53561-0.73939-3.0814-3.1871-5.6573-5.4395-3.2344-2.8282-4.7448-4.3747-4.8819-4.9989-0.35348-1.6094-1.9173-2.7572-3.9909-2.9291-1.3669-0.11335-1.8747-0.03508-1.983 0.30562-0.08004 0.2519-0.61467 8.537-1.1881 18.411-0.57339 9.8743-1.1788 18.312-1.3453 18.75-0.16653 0.43801-0.60398 0.95758-0.97212 1.1546-0.5498 0.29424-0.73597 0.23372-1.0424-0.33888-0.25538-0.47718-0.43429-6.637-0.56712-19.525l-0.19404-18.828h-3.1279c-2.2083 0-3.1674 0.12264-3.2622 0.41711-0.07387 0.22941-0.58663 10.522-1.1395 22.873-0.95867 21.416-1.0382 22.509-1.7177 23.609-0.3919 0.63411-0.91329 1.1529-1.1586 1.1529s-0.76675-0.51882-1.1586-1.1529c-0.67957-1.0996-0.75906-2.1921-1.7177-23.609-0.55285-12.351-1.0656-22.643-1.1395-22.873-0.09481-0.29447-1.054-0.41711-3.2622-0.41711h-3.1279l-0.19404 18.828c-0.13282 12.888-0.31174 19.048-0.56712 19.525-0.30645 0.5726-0.49262 0.63313-1.0424 0.33888-0.36814-0.19702-0.80843-0.72405-0.97843-1.1712-0.17-0.44713-0.77485-8.8845-1.3441-18.75-0.56926-9.8652-1.1011-18.143-1.1818-18.395-0.10913-0.34061-0.61767-0.41895-1.9842-0.30562-2.0736 0.17196-3.6374 1.3197-3.9909 2.9291-0.1371 0.62418-1.6475 2.1708-4.8819 4.9989-2.5759 2.2523-5.1216 4.7001-5.6573 5.4395l-0.97384 1.3443v6.1015c0 3.434 0.15289 6.5121 0.34971 7.0408 0.55805 1.499 21.882 22.645 29.802 29.554l2.9563 2.5787 0.88115-0.63656c0.48463-0.35011 2.8332-2.4123 5.2191-4.5827zm-23.019-70.12c-0.47661-0.72021-0.95667-1.8647-1.0668-2.5434-0.17511-1.0791-0.062151-1.3764 0.89995-2.3691 1.1352-1.1712 3.4374-2.1632 5.0203-2.1632 0.65406 0 0.95812 0.2068 1.1039 0.7508 0.31285 1.1674 0.24647 2.8885-0.16429 4.2595-0.36348 1.2132-1.0844 1.7165-4.6834 3.27-0.13368 0.057701-0.63302-0.48435-1.1096-1.2046zm30.647 0.1802c-1.7419-0.86967-2.1043-1.2081-2.4192-2.2594-0.40703-1.3585-0.47204-3.082-0.16016-4.2457 0.14579-0.544 0.44985-0.7508 1.1039-0.7508 1.5829 0 3.8851 0.99205 5.0203 2.1632 0.9621 0.99264 1.0751 1.29 0.89995 2.3691-0.19963 1.2302-1.6842 3.8384-2.1505 3.7782-0.13504-0.01744-1.1675-0.492-2.2943-1.0546zm-17.241-4.5589c-0.66706-0.73835-1.4355-2.1146-1.7658-3.1625-0.56263-1.7849-0.56153-1.881 0.029002-2.5335 0.74482-0.82302 3.4588-1.6727 5.3428-1.6727s4.598 0.84966 5.3428 1.6727c0.59053 0.65253 0.59163 0.74863 0.029 2.5335-0.33031 1.0479-1.0988 2.4241-1.7658 3.1625-1.1675 1.2923-1.2088 1.3072-3.606 1.3072-2.3972 0-2.4385-0.014973-3.606-1.3072z"/></svg>