<svg width="100" height="100" version="1.1" viewBox="0 0 100 100" xml:space="preserve" xmlns="http://www.w3.org/2000/svg"><path d="m44.333 97.312-2.6667-2.4152-3.1654-2.9228 4.0196-16.141 0.16997-0.47965 0.16997-0.47965 2.2019 3.0969 1.9362 4.1957 0.10834 7.1667 0.10834 7.1667-0.21548 3.2275zm8.5582-6.3212 0.10853-8.8245 1.9374-4.1957 2.2019-3.0969 0.16997 0.47965 0.16997 0.47965 4.0472 16.251-0.19304 0.0992-7.0046 6.3161-1.5458 1.3156zm-23.207-0.07446-0.17866-1.0833-0.70122-5.4747 11.862-13.622 0.11998 0.10604-4.1917 17.196-0.59494 0.5754-5.8859 3.3862h-0.25055zm36.679-0.69552-2.9695-1.7212-0.56723-1-3.9341-16.333 0.19132-0.19548 11.282 12.862 0.42099 0.69479-0.4663 3.4859-0.4663 3.4859-0.02112 0.5-0.5-0.0577zm-41.254-10.647c0.03669-1.5804 0.25148-3.1667-0.26259-6.115-0.51407-2.9482-0.61344-4.0612-1.3259-5.7576-0.7125-1.6964-0.89737-2.33-2.1222-3.7577-1.2248-1.4276-1.6804-2.0763-3.5129-3.3527-1.8324-1.2764-2.5546-1.8646-4.3566-2.6567-1.802-0.79209-2.4819-1.1262-4.2482-1.6214-1.7663-0.49515-3.1753-0.86967-3.1753-0.86967s3.1181-0.88484 4.6346-1.4515c1.657-0.61916 3.3973-1.1337 6.0164-3.5501 2.6192-2.4164 2.7849-2.9933 3.5066-5.607s0.92764-3.3877 0.47511-7.5639c-0.45253-4.1762-0.79243-5.2159-1.9811-9.1738s-1.8434-5.8045-1.8434-5.8045l0.75194 0.3117s2.0618 0.80401 4.5991 1.7565c2.5373 0.95251 3.5246 1.1168 5.904 1.6321 2.3794 0.51522 3.2748 0.4242 6.0798-0.01776 2.805-0.44195 3.3609-0.59365 5.27-2.3353 1.9091-1.7417 2.3227-2.5683 4.181-5.931s2.3346-4.2642 3.2425-6.8978c0.90785-2.6336 1.3094-3.7012 1.953-6.173 0.64353-2.4718 1.1274-4.3969 1.1274-4.3969s0.4113 1.7527 0.99943 4.1256c0.58813 2.3729 1.0582 3.577 2.0591 6.4656 1.0009 2.8885 1.4509 3.7354 2.4776 5.8678 1.0267 2.1323 1.5901 2.8544 3.5158 5.1999s2.3253 2.837 4.5602 3.7844c2.235 0.94739 3.1425 0.74944 6.8585 0.27135 3.716-0.47809 4.7033-0.64243 6.7251-1.3939 1.0562-0.3299 5.1145-1.9575 5.1145-1.9575l0.75194-0.3117s-0.6547 1.8467-1.4673 4.2144c-0.81257 2.3677-1.0308 3.4368-1.6619 6.0835-0.63104 2.6467-0.6775 3.7396-0.91271 6.298-0.23521 2.5585-0.02929 3.3325 0.079 4.1139 0.10829 0.78141 0.0971 1.5889 0.71612 3.0175 0.61903 1.4285 0.78475 2.0054 2.0988 3.3654 1.314 1.36 1.8043 2.0194 3.7772 3.0611 1.9729 1.0417 2.7609 1.5273 4.6848 2.0961 1.9239 0.56879 3.4189 0.97542 3.4189 0.97542s-1.2105 0.28143-2.8279 0.6931c-1.6174 0.41167-2.3835 0.80269-4.3675 1.6692-1.984 0.8665-2.7006 1.4502-4.5211 2.7187-1.8205 1.2685-2.2762 1.9172-3.501 3.3448-1.2248 1.4276-1.4097 2.0613-2.1222 3.7577-0.7125 1.6964-0.81186 2.8093-1.3259 5.7576-0.51407 2.9482-0.29928 4.5345-0.26259 6.115 0.03669 1.5804 0.11007 4.7412 0.11007 4.7412l-1.0596-1.1492-10.358-12.026 2.5466-2.6536c0.84888-0.88453 1.8336-1.6563 2.9932-3.7105s1.6258-2.8019 2.1719-4.3697c0.5461-1.5678 0.92372-2.7316 0.92372-2.7316l1.6808-1.3221 2.2685-0.82029v-0.43149l-2.6312-1.1865-0.51776-1.0911c-0.17259-0.3637-0.4293-0.69836-0.52691-2.2961s-0.41448-2.401-0.6263-3.2243-0.34389-1.6714-1.0886-3.316c-0.31594-0.86536-1.9426-4.1352-1.9426-4.1352l5.26e-4 -1.0188 1.9712-4.1667h-0.4948l-3.9205 1.3779-0.85013-0.21337c-0.28338-0.07112-0.58552-0.08951-1.7254-0.88557-1.1399-0.79606-1.6154-1.2056-3.0284-1.9446-1.413-0.73901-1.9608-1.0855-3.8912-1.648-1.9304-0.56244-2.5183-0.35039-3.5612-1.0098-0.30293-0.19154-0.70854-0.80873-0.70854-0.80873l-0.70854-0.80873-1.4397-4.8926-0.5343-1.3116-0.73635 2.4891-0.73635 2.4891-0.69717 1.7851-0.58775 0.53191s-0.35624 0.40454-0.58775 0.5319c-0.73079 0.40203-1.6076 0.44548-3.5146 1.0064-1.907 0.56097-2.4551 0.90668-3.0286 1.195s-1.1725 0.53076-2.4541 1.432c-1.2816 0.90128-1.7247 1.3712-2.2892 1.6354-0.26461 0.12386-0.85013 0.21337-0.85013 0.21337l-0.85013 0.21337-3.9205-1.3779h-0.4948l1.9712 4.1667 2.63e-4 0.5094s0.03796 0.34384 2.63e-4 0.5094c-0.20454 0.89824-0.6224 1.2941-1.1979 2.4906-0.3993 0.8302-0.88196 1.6252-1.4636 3.7046s-0.89848 2.8826-1.2768 5.0196c-0.3783 2.137-0.76397 2.8478-0.76397 2.8478l-2.6312 1.1865v0.43149l2.2685 0.82029 1.6808 1.3221s0.37762 1.1638 0.92372 2.7316c0.5461 1.5678 1.0123 2.3155 2.1719 4.3697s2.1444 2.826 2.9932 3.7105l2.5466 2.6536-10.358 12.026-1.0596 1.1492s0.07338-3.1608 0.11007-4.7412zm23.564-9.3688-1.264-3.1275-3.9509-1.1962-4.6806 1.5075-0.28109-0.28109 1.1222-5.338-1.5156-3.7343-5.1039-2.1138-1.2908-0.67882 6.0773-2.4189 0.5219-0.5219 1.191-3.136-9.38e-4 -0.5-9.37e-4 -0.5-1.9302-5.1667h0.51995l2.214 0.83333s1.4382 0.69216 2.214 0.83333c0.3293 0.05992 0.66942 0 1.0041 0s0.68339 0.09572 1.0041 0c0.32026-0.09557 0.5591-0.36633 0.83865-0.5495s0.6177-0.29874 1.0102-1.0022c0.39248-0.70349 0.55668-0.98234 0.67448-1.2816 0.61177-1.5541 1.4625-4.7923 1.4625-4.7923l1.4625-4.7923 1.4912 4.5846 0.91327 3s0.36195 2.1119 0.91327 3c0.23512 0.37875 0.64921 0.61111 1.4725 1.2913 0.82332 0.68017 1.2243 0.54206 1.5989 0.54206s0.75526 0.06706 1.1238 0c0.7758-0.14117 2.214-0.83333 2.214-0.83333l2.214-0.83333h0.51995l-0.96512 2.5833s-0.80081 1.6789-0.96512 2.5833c-0.02979 0.16398-6.25e-4 0.33333 0.04895 0.94167 0.04957 0.60834 0.34619 1.1037 0.5447 1.6263s0.29185 1.0986 0.61765 1.5073 0.39702 0.51502 0.49977 0.58265c0.91063 0.59935 3.0387 1.2094 3.0387 1.2094l3.0387 1.2094-1.2908 0.67882-2.5519 1.0569s-1.9032 0.40356-2.5519 1.0569c-0.47327 0.47664-0.50521 1.2448-0.75782 1.8671-0.2526 0.62238-0.698 1.1981-0.75782 1.8671-0.08096 0.90551 0.56112 2.669 0.56112 2.669l0.56112 2.669-0.28109 0.28109-2.3403-0.75374s-1.5208-0.74653-2.3403-0.75374c-0.68969-0.0061-1.3202 0.39974-1.9804 0.5996s-1.4729 0.13252-1.9804 0.5996c-0.82458 0.75893-1.2373 3.1261-1.2373 3.1261l-1.2373 3.1261h-0.16806z"/></svg>