<svg width="100" height="100" version="1.1" viewBox="0 0 100 100" xml:space="preserve" xmlns="http://www.w3.org/2000/svg"><path d="m33.186 99.734c-3.6114-0.7756-5.7677-2.222-8.4015-5.6355-5.7674-7.4749-8.7029-13.678-9.9831-21.096-0.71804-4.1608-0.35161-5.9753 1.7849-8.8382 2.2915-3.0707 8.4864-9.1616 11.945-11.745 3.8601-2.883 10.083-5.9765 14.391-7.1537 2.9263-0.79965 3.9566-0.91482 8.1997-0.91659 5.7327-0.0024 8.6584 0.64132 13.659 3.0053 5.3747 2.5408 9.638 5.8596 13.653 10.628 3.9867 4.735 5.1561 7.6739 5.1465 12.934-7e-3 3.891-0.46743 6.1516-2.4882 12.218-2.0901 6.2748-3.7831 9.4424-6.5196 12.198-3.7771 3.8038-8.1127 5.242-13.455 4.4633-4.4902-0.65446-5.2161-1.1979-6.4919-4.8608-0.3079-0.88393-1.7733-3.2936-3.2565-5.3549s-3.045-4.4027-3.4708-5.2031c-1.502-2.8236-1.4393-5.3401 0.17804-7.1502 1.0366-1.1602 1.1876-1.1788 6.1181-0.75592 2.7603 0.23676 2.9796 0.20529 4.41-0.63301 1.8693-1.0955 2.3799-1.7402 5.3133-6.7085 3.2795-5.5546 4.7452-6.8888 8.8957-8.0977 0.34029-0.09911 0.30272-0.36202-0.16734-1.1708-1.5248-2.6237-6.2928-5.7371-10.479-6.8428-2.6744-0.70633-7.5632-0.7942-10.04-0.18048-4.2424 1.051-9.167 4.4625-10.418 7.2172-0.6881 1.5147-0.81923 4.6531-0.27614 6.6086 0.40196 1.4474 2.2911 4.0599 3.0399 4.2041 0.30948 0.0596 0.98507-0.61157 1.7011-1.6899 4.3378-6.5332 8.5861-9.3977 14.99-10.107l1.8407-0.20392-2.8448 1.61c-3.9764 2.2505-5.7519 3.5238-8.4102 6.0314-3.7621 3.549-6.0621 7.4404-7.3504 12.436-0.35217 1.3656-0.70517 2.5479-0.78445 2.6271-0.35605 0.35605-2.6602-0.7647-4.6159-2.2452-2.254-1.7063-5.2152-3.3146-7.4543-4.0484l-1.3387-0.43874 1.1467-0.30148c1.5714-0.41311 3.5737 0.13528 7.1366 1.9545l2.9285 1.4953v-1.5294c0-4.3071-4.4399-7.3549-10.71-7.3518-2.4393 0.0012-3.0898 0.13-4.5635 0.90333-0.9453 0.49604-2.5208 1.6394-3.5011 2.5408l-1.7824 1.6389 1.8462 2.14c1.0154 1.177 2.6159 3.119 3.5567 4.3155 4.5968 5.8462 6.982 6.711 13.241 4.8008 2.799-0.85421 2.9943-0.87151 4.0666-0.36019 5.3069 2.5307 4.317 12.689-1.3918 14.283-1.7632 0.49238-7.3453 0.71907-8.9931 0.36518zm48.027-43.965c-3.0412-1.6051-5.0792-5.6191-5.1276-10.099-0.04646-4.3021 1.2713-6.7797 4.2729-8.0336 1.7825-0.7446 2.9288-0.39871 4.5664 1.3779 3.5764 3.88 5.4074 11.865 3.5459 15.465-1.1103 2.1471-4.4939 2.7482-7.2577 1.2895zm-66.438-0.37197c-1.2249-0.52996-2.0979-1.6818-3.1869-4.2044-2.0504-4.75 0.0862-13.682 3.7228-15.562 2.3123-1.1958 5.8225-0.13205 7.1778 2.1752 1.0358 1.7633 0.99119 7.6569-0.08148 10.761-0.97543 2.8225-2.5071 5.1432-4.0503 6.1366-1.6719 1.0764-2.3809 1.2138-3.582 0.69409zm16.736-11.263c-0.56999-0.16351-1.701-0.88231-2.5133-1.5973-2.6109-2.2982-3.9701-5.9912-3.9767-10.804-0.0072-5.2629 1.8115-9.0595 5.4621-11.402 1.4663-0.94096 2.0143-1.1 3.7891-1.1 1.5828 0 2.299 0.16635 3.0198 0.70142 4.335 3.2179 5.4252 12.252 2.2646 18.765-1.7831 3.6745-5.4805 6.1734-8.0456 5.4376zm33.95-2.3198c-3.4946-1.8462-5.2187-7.1818-4.3397-13.43 0.93848-6.6703 4.0658-10.34 7.9082-9.2786 2.4481 0.67595 4.3925 4.7281 5.2075 10.853 1.1254 8.4569-0.76084 12.558-5.7566 12.517-1.1036-0.0091-2.2668-0.26396-3.0194-0.66156zm-15.855-2.9885c-1.0819-0.43858-3.1739-2.9588-4.0566-4.8868-1.9105-4.173-2.1977-9.0545-0.7991-13.583 1.4548-4.7101 3.9541-6.57 7.8473-5.8396 3.4505 0.64732 5.5869 5.2814 5.6445 12.244 0.04049 4.8939-1.1412 8.7055-3.3483 10.8-1.4422 1.3687-3.6999 1.9088-5.2878 1.2651zm32.033-3.9014c-0.97112-0.58199-1.3831-1.0293-1.2551-1.3629 0.1048-0.27312 0.19461-2.1033 0.19956-4.067l9e-3 -3.5705 0.98344 1.1714c1.4495 1.7266 2.8911 4.6099 3.313 6.6264 0.20408 0.97545 0.37106 1.8414 0.37106 1.9244 0 0.48948-2.3972 0.01162-3.621-0.72182zm-66.459-3.3382c-0.37559-0.97878-0.20747-3.8326 0.29689-5.0397 0.27502-0.65822 1.0516-1.9481 1.7257-2.8664 1.4713-2.0044 1.6553-1.8255 1.9826 1.9277 0.12751 1.4624 0.37306 2.9327 0.54567 3.2671 0.42758 0.82855-0.36878 1.9853-1.851 2.6887-1.4656 0.69546-2.4385 0.70363-2.6998 0.02265zm12.655-14.724c-0.31609-1.6849 0.06305-3.9826 0.9854-5.9717 0.8846-1.9077 3.4558-4.9837 3.924-4.6943 0.16775 0.10368 0.305 1.4524 0.305 2.9971 0 1.5447 0.16517 3.5787 0.36704 4.52 0.32362 1.509 0.29392 1.7937-0.25101 2.4065-0.79268 0.89147-3.0344 1.9224-4.2007 1.9319-0.77523 0.0063-0.93744-0.16449-1.1297-1.1894zm39.519-0.27111c-1.2662-0.55185-1.9722-1.388-1.7221-2.0396 0.10635-0.27714-0.1021-2.1121-0.46322-4.0776-0.36112-1.9655-0.59178-3.6385-0.51258-3.7177 0.27497-0.27497 2.654 1.7733 3.9211 3.376 1.2876 1.6286 2.2912 4.2477 2.2912 5.9795 0 0.86924-0.09853 0.94227-1.2551 0.9302-0.69028-0.0072-1.7069-0.21004-2.2592-0.45074zm-21.235-4.8074c-0.8921-3.2123-0.08068-6.1536 2.7104-9.8249 1.6534-2.1748 1.7875-2.2766 2.0616-1.5637 0.16122 0.41936 0.40125 2.4192 0.53339 4.444 0.13214 2.0248 0.43089 4.0321 0.66389 4.4607 0.233 0.42855 0.3413 0.99375 0.24066 1.256-0.34518 0.89954-3.2812 2.483-4.6039 2.483-1.168 0-1.2823-0.08931-1.606-1.2551z"/></svg>