<svg width="100" height="100" version="1.1" viewBox="0 0 100 100" xmlns="http://www.w3.org/2000/svg">
 <path d="m3.8809 3.4395c-0.58 0.28-1.0501 0.67-1.5801 1-1.13 0.56-1.6308 1.8609-2.3008 2.8809a5.28 5.28 0 0 0 2.6309 1.5c0.81 0.18 1.1895 0.92047 1.6895 1.4805a29.2 29.2 0 0 0 2.7305 3.1602c2.79 2.69 5.5691 5.3998 8.3691 8.0898 0.27 0.28 0.63953 0.48891 0.76953 0.87891a6.86 6.86 0 0 0-1.4297 0.30078c-0.02 0.55 0.31078 1.2499-0.19922 1.6699a53.33 53.33 0 0 1-4.5898 3.7598c-0.75 0.38-0.75 1.28-0.75 2a28.11 28.11 0 0 0 3 0.57031c0.23-0.94-0.24078-2.2096 0.69922-2.8496 1.18-0.93 2.2197-2.0316 3.4297-2.9316a12.86 12.86 0 0 1 2.2109 1c-0.06 0.42-0.1407 0.84-0.2207 1.25 3.79 3.68 7.6602 7.3214 11.49 10.941v-9.0508c-0.01-0.39 0.040469-0.82914-0.26953-1.1191-1.93-2.07-3.9408-4.0712-5.8008-6.2012-0.43 0.11-0.85906 0.23031-1.2891 0.32031a12.47 12.47 0 0 1-1-2.25c0.9-1.21 1.9684-2.2499 2.8984-3.4199 0.63-0.95 1.9113-0.51898 2.8613-0.70898a15 15 0 0 0-0.64062-3.0508c-0.68 0.12-1.5297 0.089767-1.9297 0.75977a54.93 54.93 0 0 1-3.75 4.5996c-0.42 0.54-1.1702 0.21125-1.7402 0.28125-0.1 0.47-0.18031 0.95992-0.32031 1.4199-3-3.06-5.9395-6.1698-8.9395-9.2598-1.29-1.46-2.9703-2.461-4.3203-3.791a7.65 7.65 0 0 0-1.709-3.2305zm78.049 5.9902c-0.26 0.23-0.49 0.46945-0.75 0.68945l0.019531 0.021484c-0.5 0.43-1.29 0.11961-1.75 0.59961l-7.9395 7.9395c-0.66 0.64-0.49992 1.7196-1.1699 2.3496-1.88 1.85-3.7196 3.7303-5.5996 5.5703-0.29 0.31-0.66016 0.60984-0.66016 1.0898v4.4102c2.99-2.85 5.8106-5.8502 8.8105-8.7402 0.7-0.52 1.6496-0.52008 2.3496-1.0801 1.64 1.89 2.8692 4.08 4.4492 6a17.32 17.32 0 0 1 0.45117 8.7207c-1.2 2.42-2.3209 5.0005-4.4609 6.8105 2.24-0.13 4.3207-1.0702 6.4707-1.6602 3.02-1.47 5.5099-3.8203 8.1699-5.8203a33.14 33.14 0 0 0 4.2598-4.1992 39 39 0 0 0 5.4199-10.291c-1.08-0.09-2.0409 0.33938-3.2109 0.10938-1.17-0.23-2.3188-0.54961-3.4688-0.84961a21.07 21.07 0 0 1-9.4512-6.0898c-1.17-0.81-0.4193-2.4592 0.4707-3.1992-0.79-0.81-1.5502-1.6509-2.4102-2.3809zm-18.5 8.8008c-1.92 1.23-3.5705 2.9295-5.7305 3.7695a10.34 10.34 0 0 1-6.0996 0.50977c-0.89-0.44-1.8397-0.79055-2.6797-1.3105-0.79-0.85-1.3-1.9396-2-2.8496-0.97 1.19-1.4301 2.9997-3.0801 3.4297-2.84 1.72-6.4802 1.0007-9.2402-0.5293-1.45-0.92-2.7395-2.08-4.1895-3-0.058829 5.1199 0 10.249 0 15.369 0.1 13.4 0.09961 26.82 0.09961 40.23 0.24 2.16 0.58961 4.3205 0.84961 6.4805 0.02 0.4 2.8403 3.7796 4.0703 5.0996 1.81 1.48 3.6898 2.8811 5.5098 4.3711a65.48 65.48 0 0 1 6 6.6992 49.09 49.09 0 0 1 4.5312-5.2305c2.08-2.31 4.8289-3.91 7.1289-6 1.25-1.46 2.5602-2.8789 3.7402-4.3789 0.43-2.17 0.62945-4.3903 0.93945-6.5703 0.1-18.727 0.15039-37.423 0.15039-56.09zm-33.6 43.23c-4.91 5.02-10.07 9.8099-14.91 14.92-3.7533 3.7467-7.494 7.4885-11.221 11.229-0.91 0.96-2.5594 0.97055-3.1094 2.3105a3.1 3.1 0 0 0 3.1211 3.2207c1.25-0.43 1.3791-1.9008 2.1191-2.8008 5.6867-5.7133 11.404-11.404 17.15-17.07 2.18-2.42 4.5996-4.63 6.8496-7a38.6 38.6 0 0 0 0-4.8086zm34.24 2.9082-0.070312 6.4004 18 17.1a13.25 13.25 0 0 0 1.6406 1.4805c2.46 1.75 4.8896 3.541 7.3496 5.291-1.69-2.43-3.4699-4.8105-5.1699-7.2305a10.62 10.62 0 0 0-1.1797-1.4102c-6.87-7.19-20.57-21.631-20.57-21.631z"/>
</svg>
