<svg width="100" height="100" version="1.1" viewBox="0 0 100 100" xml:space="preserve" xmlns="http://www.w3.org/2000/svg"><path d="m44 99.664c-3.3393-0.45968-8.2322-1.6483-11.046-2.6832-2.31-0.84977-8.6211-3.8435-8.6211-4.0895 0-0.05595 1.1625 0.10669 2.5833 0.36143 3.536 0.63394 9.7206 0.3683 13.417-0.57626 11.714-2.9937 21.018-12.287 24.204-24.177 0.85199-3.1793 0.89746-13.034 0.073439-15.917-0.30135-1.0542-0.42544-1.9167-0.27575-1.9167 0.47897 0 4.3535 4.4108 6.285 7.155l1.8688 2.655 0.61983-2.4884c1.2576-5.0487 0.69023-14.326-1.2255-20.037-0.42138-1.2564-0.69371-2.2843-0.60519-2.2843 0.37182 0 3.688 2.71 5.3496 4.3718 3.5217 3.522 6.171 7.7086 8.6239 13.628 0.32243 0.77812 0.4568 0.60143 2.028-2.6667 4.2533-8.8471 5.4205-18.491 3.5301-29.167-0.47485-2.6816 4.7915 7.0961 6.4633 12 1.9662 5.7675 2.5198 9.3193 2.5198 16.167 0 5.1302-0.12581 6.7549-0.74853 9.6667-4.3331 20.261-19.154 35.125-39.211 39.327-3.8 0.79611-12.304 1.1562-15.833 0.67042zm-32.282-8.089c-2.4908-0.79664-3.9609-3.6003-3.6398-6.9418 0.15872-1.6518 0.69156-2.4378 1.4622-2.1569 0.20573 0.07499 1.0629 0.23966 1.9049 0.36592l1.5309 0.22957 0.79171-1.7902c0.55627-1.2578 1.3972-2.3148 2.8279-3.5542 1.6148-1.3989 2.181-2.1569 2.7359-3.6626 1.0184-2.7636 2.7952-5.1757 5.2108-7.0741 2.0448-1.6069 2.1239-1.7247 2.1239-3.1613 0-1.3724-0.18428-1.7-2.2935-4.0777-3.5319-3.9815-4.0261-4.3702-6.0415-4.7524-0.99452-0.18861-1.941-0.4757-2.1033-0.63797-0.49005-0.49005 0.73625-4.0443 1.7426-5.0506 0.96068-0.96068 3.2193-1.7592 4.4715-1.5809 0.57416 0.08177 0.81609 0.47923 1.1678 1.9186 0.54987 2.2502 0.62647 2.3551 3.8678 5.2982l2.6448 2.4015 1.2452-1.2159c0.78739-0.76886 1.5308-1.1966 2.0218-1.1634 0.42714 0.02889 1.1692 0.08514 1.649 0.125 0.77333 0.064231 2.0373-1.3665 11.126-12.594 5.6395-6.9667 11.172-13.618 12.294-14.781 2.7507-2.8505 9.0375-8.2574 10.808-9.2951 1.1476-0.67268 11.153-4.8448 19.645-8.1914l1.4122-0.55655-0.55655 1.4122c-3.4057 8.6416-7.5209 18.497-8.2027 19.645-0.46845 0.78863-1.7029 2.4516-2.7433 3.6955l-1.8916 2.2616-1.3985-1.146c-1.6335-1.3385-9.6251-6.5616-9.789-6.3978-0.06134 0.06134 0.70465 2.1161 1.7022 4.566 1.9542 4.7996 2.8987 7.7623 2.8709 9.0058-0.01385 0.62001-2.675 2.9229-12.845 11.115-12.568 10.124-12.823 10.354-12.612 11.333 0.36686 1.7056 0.21398 2.2306-1.0163 3.4906l-1.1911 1.2198 2.4015 2.6448c2.9431 3.2414 3.0481 3.318 5.2982 3.8678 1.4394 0.35174 1.8369 0.59367 1.9186 1.1678 0.17833 1.2522-0.6202 3.5108-1.5809 4.4715-1.0063 1.0063-4.5606 2.2326-5.0506 1.7426-0.16228-0.16228-0.44937-1.1088-0.63797-2.1033-0.38222-2.0154-0.77094-2.5096-4.7524-6.0415-2.3777-2.1092-2.7053-2.2935-4.0777-2.2935-1.4367 0-1.5544 0.0791-3.1613 2.1239-1.8984 2.4156-4.3105 4.1924-7.0741 5.2108-1.5056 0.55486-2.2636 1.1211-3.6626 2.7359-1.2364 1.4272-2.297 2.2719-3.546 2.8243l-1.782 0.7881 0.21894 1.4085c0.12042 0.77469 0.28807 1.6552 0.37257 1.9567 0.28636 1.0218-0.77608 1.621-2.8095 1.5844-1.0411-0.01872-2.3946-0.1945-3.0078-0.39063zm-7.3145-21.154c-1.4412-3.1478-2.5665-6.6601-3.4455-10.754-1.0825-5.0417-1.0839-14.279-0.0029599-19.333 4.3505-20.342 19.036-35.027 39.378-39.378 2.9117-0.62272 4.5365-0.74853 9.6667-0.74853s6.7549 0.12581 9.6667 0.74853c4.5292 0.96864 8.7572 2.4214 12.482 4.2889 3.1609 1.5846 7.2979 4.0865 7.0941 4.2903-0.066877 0.066877-1.2365-0.12612-2.5991-0.42889-3.4944-0.77644-11.55-0.76482-15.243 0.021977-14.154 3.0155-25.823 13.388-30.047 26.706-0.40697 1.2833-0.81933 2.5583-0.91636 2.8333-0.25872 0.73332-1.0425-1.6712-1.6169-4.9603-0.26832-1.5365-0.48786-4.2779-0.48786-6.0919v-3.2982l-1.0833 0.55762c-4.6596 2.3984-11.724 8.833-14.887 13.56-5.2964 7.9152-8.027 17.452-7.5604 26.405 0.10528 2.0201 0.35306 4.5473 0.55061 5.616 0.19756 1.0687 0.29696 2.0053 0.22091 2.0813-0.076058 0.07606-0.60272-0.87612-1.1704-2.116z"/></svg>