<svg width="100" height="100" version="1.1" viewBox="0 0 100 100" xml:space="preserve" xmlns="http://www.w3.org/2000/svg"><path d="m47.699 93.885-12.877-6.3355 1.891-1.7124c1.0401-0.94184 3.3563-2.6035 5.1471-3.6926l3.2561-1.9802 15.526 7.7546 0.2157 2.2842c0.26102 2.7642 0.22116 7.9818-0.07 9.1614-0.21096 0.85466-0.23213 0.8458-13.089-5.4795zm-20.987 3.9951c-4.0367-4.3153-4.9241-8.6241-2.7158-13.186 1.7568-3.6291 8.6682-9.3512 14.837-12.284 2.0238-0.96216 7.1417-3.2152 11.373-5.0068 16.288-6.8963 23.294-10.85 29.147-16.45l2.2144-2.1185-0.21562 1.3484c-0.61802 3.8649-3.6454 8.7094-7.3545 11.769-3.1306 2.5823-6.3239 4.2991-13.289 7.1443-8.0538 3.29-18.73 8.5711-22.685 11.221-8.9605 6.0044-11.695 11.89-8.881 19.111 0.44232 1.135-0.45766 0.56196-2.4316-1.5482zm-8.7267-8.1691c-5.1707-8.137-2.8095-15.411 7.1335-21.976 1.6558-1.0933 8.3543-4.7139 14.885-8.0458 12.275-6.2619 17.666-9.2956 21.408-12.047 8.4756-6.2308 11.81-11.567 12.553-20.093 0.59895-6.8663-1.9961-16.021-6.3213-22.3l-1.5662-2.2737 1.932 1.2337c8.2881 5.2927 13.742 11.966 15.888 19.44 0.96516 3.3615 1.0453 9.5086 0.16699 12.809-2.2693 8.5266-9.3336 15.462-22.151 21.748-2.5757 1.2631-8.9731 4.1252-14.216 6.3602-14.795 6.3065-19.286 8.8245-23.779 13.333-4.0543 4.0686-5.6539 8.2881-4.7029 12.405 0.19006 0.82292 0.3113 1.5305 0.26943 1.5723-0.04188 0.04188-0.71706-0.93248-1.5004-2.1652zm36.598-8.8116c-3.8535-1.9458-5.193-2.7709-4.8503-2.9878 0.89756-0.56814 9.7164-4.3914 9.8413-4.2665 0.18526 0.18526 0.83454 6.8045 0.83454 8.5079 0 0.80841-0.1129 1.4619-0.25088 1.4522-0.13798-0.0097-2.6466-1.2273-5.5746-2.7058zm-25.737-23.366c-3.1824-3.3735-4.2637-5.8943-4.7362-11.041-0.12667-1.3798-0.5161-3.3696-0.8654-4.4217-0.85639-2.5794-0.80584-3.5316 0.36919-6.9538 0.55236-1.6087 1.1003-3.844 1.2178-4.9673 0.20831-1.993 0.24043-2.0474 1.3289-2.2516 1.2833-0.24075 2.8614 0.52468 3.8536 1.8691 0.96024 1.3011 1.3449 4.05 0.9358 6.6869-0.2921 1.8827-0.2624 2.4856 0.17387 3.5298 0.28938 0.69259 0.59045 1.195 0.66904 1.1164 0.07859-0.07859 0.30623-6.9884 0.50587-15.355 0.37559-15.741 0.64382-18.621 1.9415-20.851 0.52789-0.90693 0.82576-1.0655 2.1651-1.1528 2.5822-0.16822 2.6062-0.076034 2.9554 11.379 0.30704 10.072 0.46024 11.97 0.96617 11.97 0.54051 0 0.67724-1.7871 0.99953-13.064 0.17643-6.1734 0.42503-11.517 0.55244-11.875 0.6658-1.8701 2.5497-2.6758 4.1963-1.7945 1.4332 0.76705 1.5993 2.0083 1.817 13.579 0.11358 6.039 0.35622 11.576 0.5392 12.304 0.71254 2.8351 1.0675 0.22424 1.3397-9.8536 0.23843-8.8281 0.33181-9.9561 0.88615-10.704 0.66742-0.90077 1.6386-1.1813 2.9501-0.85208 1.6578 0.41608 1.8503 1.665 2.1678 14.065 0.16019 6.2553 0.42139 11.825 0.58046 12.377l0.2892 1.0035 0.32816-0.83627c0.18049-0.45995 0.42531-3.3835 0.54405-6.4967 0.24526-6.4306 0.41532-6.8836 2.5847-6.8836 0.9643 0 1.4251 0.20751 1.954 0.87994 0.86067 1.0942 1.3478 2.8469 1.3366 4.8086-0.07313 12.725-0.19024 17.637-0.42929 18.007-0.51264 0.79445-5.5856 4.3901-9.3899 6.6553-3.3541 1.9972-21.767 11.462-22.298 11.462-0.12198 0-1.2149-1.0528-2.4287-2.3395z"/></svg>