<svg width="100" height="100" version="1.1" viewBox="0 0 100 100" xml:space="preserve" xmlns="http://www.w3.org/2000/svg"><path d="m41.053 86.203c-4.2127-2.9105-6.6225-4.8007-8.8255-6.9223-1.6257-1.5656-1.9864-1.7704-2.6652-1.5135-0.43176 0.16346-1.7595 0.24348-2.9505 0.17782-2.9311-0.1616-5.9327-1.5982-8.5094-4.0726l-1.9846-1.9059 1.3326 0.17242c0.73292 0.09483 2.8317 0.25538 4.664 0.35678l3.3315 0.18436-1.4299-0.68494c-0.78647-0.37672-2.5855-0.90122-3.9977-1.1656-6.1137-1.1443-12.473-5.9278-14.578-10.965l-0.47971-1.1481 2.2473 1.1387c2.8587 1.4485 5.9049 2.1621 9.0767 2.1262 4.3006-0.04868 4.5659-0.34547 1.2678-1.4183-6.7899-2.2087-12.572-6.8477-15.21-12.203-1.2773-2.593-2.5513-7.1168-2.3133-8.2147 0.064604-0.29803 0.78088 0.08515 2.097 1.1218 3.1909 2.5134 8.9489 6.3111 11.57 7.6311l2.4147 1.216-2.0634-2.2058c-3.703-3.9586-6.0735-8.0483-7.2802-12.561-0.69179-2.5868-0.73459-7.8159-0.081434-9.9479l0.45094-1.4719 2.8673 4.3037c3.1587 4.7411 6.4422 8.9164 8.6243 10.967l1.4183 1.3326-1.3555-1.8323c-1.9327-2.6125-2.9622-4.8278-3.7324-8.0314-1.4537-6.0466-1.1677-11.527 0.82926-15.889 1.1775-2.5719 2.4955-3.9381 2.4955-2.5866 0 0.88286 2.9901 9.4381 4.6872 13.411 3.938 9.2186 9.5293 17.739 14.18 21.608 2.2172 1.8446 12.324 8.8119 12.782 8.8119s10.565-6.9673 12.782-8.8119c4.6504-3.8689 10.242-12.389 14.18-21.608 1.6971-3.9728 4.6872-12.528 4.6872-13.411 0-1.3515 1.3181 0.01465 2.4955 2.5866 1.9969 4.3619 2.283 9.8423 0.82926 15.889-0.7702 3.2036-1.7997 5.4189-3.7324 8.0314l-1.3555 1.8323 1.4183-1.3326c2.1822-2.0503 5.4656-6.2255 8.6243-10.967l2.8673-4.3037 0.44423 1.4719c0.65056 2.1556 0.61087 7.3768-0.07564 9.9479-1.2022 4.5027-3.5621 8.5777-7.2829 12.576l-2.0671 2.2212 2.9983-1.5808c2.7571-1.4537 7.6047-4.6882 11.625-7.7566l1.6304-1.2444-0.23868 1.6499c-1.312 9.0693-7.732 16.188-17.449 19.349-3.2981 1.0729-3.0328 1.3697 1.2678 1.4183 3.1718 0.0359 6.2181-0.67766 9.0767-2.1262l2.2473-1.1387-0.47971 1.1481c-2.1046 5.0371-8.4644 9.8206-14.578 10.965-1.4123 0.26434-3.2113 0.78884-3.9977 1.1656l-1.4299 0.68494 3.3315-0.18436c1.8323-0.1014 3.9311-0.26195 4.664-0.35678l1.3326-0.17242-1.901 1.828c-2.5746 2.4757-5.7188 3.999-8.571 4.1523-1.2032 0.06468-2.5408-0.01614-2.9726-0.1796-0.67889-0.25703-1.0392-0.05214-2.6652 1.5156-2.58 2.4876-11.414 9.0554-12.179 9.0554-0.09249 0 1.8231-3.0358 4.257-6.7462 5.719-8.7187 9.5292-14.984 10.073-16.563 0.23807-0.691 0.66448-3.8621 0.94758-7.047 0.2831-3.1848 0.59791-6.6526 0.69956-7.7062 0.11699-1.2125 0.05881-1.9156-0.15851-1.9156-0.38576 0-0.35847-0.10336-1.5399 5.8301-1.8603 9.343-2.6134 11.41-6.0081 16.491-3.5802 5.3584-13.093 17.324-13.773 17.324-0.5248 0-8.1849-9.3398-11.886-14.492-2.6792-3.73-5.0415-7.837-5.7488-9.9944-0.54227-1.6542-1.2763-4.9241-3.2348-14.409-0.08512-0.41227-0.30928-0.74958-0.49812-0.74958-0.21731 0-0.2755 0.70314-0.15851 1.9156 0.10166 1.0536 0.41646 4.5214 0.69956 7.7062 0.2831 3.1848 0.70951 6.356 0.94758 7.047 0.54406 1.5791 4.3542 7.844 10.073 16.563 2.4338 3.7104 4.3187 6.7398 4.1887 6.7319-0.13002-0.0079-1.6085-0.9623-3.2854-2.1209zm11.795-8.2756c4.7904-5.592 8.0041-10.32 10.46-15.39 1.2096-2.4969 1.2826-2.826 1.2826-5.7824 0-2.6199-0.08038-3.104-0.48926-2.9471-0.26909 0.10326-2.0306 1.218-3.9145 2.4773-4.5293 3.0275-9.6677 6.0681-10.255 6.0681s-5.7254-3.0406-10.255-6.0681c-1.8839-1.2592-3.6454-2.374-3.9145-2.4773-0.40888-0.1569-0.48926 0.32724-0.48926 2.9471 0 2.9565 0.073 3.2856 1.2826 5.7824 2.4562 5.07 5.6699 9.7984 10.46 15.39 1.4519 1.6949 2.7639 3.0816 2.9155 3.0816 0.15163 0 1.4636-1.3867 2.9155-3.0816zm-20.198-39.234c-3.6136-5.396-7.8667-13.935-7.2487-14.553 0.1036-0.1036 2.0635 0.28124 4.3554 0.85519 2.2918 0.57395 4.7504 1.0435 5.4634 1.0435 1.5231 0 1.4489 0.05314 8.4809-6.0749 4.1709-3.6347 5.4633-4.5859 6.2312-4.5859 0.76789 0 2.0603 0.95112 6.2312 4.5859 7.032 6.128 6.9578 6.0749 8.4809 6.0749 0.71302 0 3.1715-0.4696 5.4634-1.0435 2.2918-0.57395 4.2518-0.95879 4.3554-0.85519 0.61803 0.61803-3.6351 9.1569-7.2487 14.553-1.3394 2-2.4852 3.5865-2.5463 3.5254-0.06105-0.06105 0.57116-2.6503 1.4049-5.7538 0.83376-3.1035 1.5159-5.736 1.5159-5.8499 0-0.11393-1.0867 0.24098-2.4149 0.7887-1.3282 0.54772-2.7149 0.92042-3.0816 0.82822-0.36666-0.09219-2.9154-2.0635-5.6638-4.3806-2.7485-2.3172-5.3345-4.3715-5.7468-4.5652-1.0897-0.51201-1.6199-0.17796-7.2459 4.5652-2.7485 2.3172-5.2972 4.2884-5.6638 4.3806-0.36666 0.0922-1.7534-0.28051-3.0816-0.82822-1.3282-0.54772-2.4149-0.91002-2.4149-0.80511 0 0.10491 0.67711 2.7424 1.5047 5.8612 0.82758 3.1187 1.4598 5.7153 1.4049 5.7702-0.05487 0.05487-1.1956-1.5366-2.535-3.5367z"/></svg>