<svg width="100" height="100" version="1.1" viewBox="0 0 100 100" xml:space="preserve" xmlns="http://www.w3.org/2000/svg"><path d="m46.647 91.301c-1.7182-4.7846-3.301-8.8603-3.5172-9.057-0.21623-0.19669-1.5333-0.71002-2.9269-1.1407-5.3029-1.6389-9.7638-4.4108-13.704-8.5155-3.7848-3.9425-6.0657-7.7781-7.6059-12.79-0.42822-1.3936-0.93951-2.7107-1.1362-2.9269s-4.2723-1.799-9.057-3.5172c-4.7846-1.7182-8.6993-3.2272-8.6993-3.3532 0-0.12603 3.9147-1.6375 8.6993-3.3588 4.7846-1.7213 8.8735-3.2715 9.0863-3.4448 0.21283-0.17331 0.49147-0.8722 0.61921-1.5531 0.28355-1.5114 2.4986-7.1177 2.9135-7.3741 0.16464-0.10175 0.80251 0.19878 1.4175 0.66785 0.61498 0.46907 1.6813 1.0882 2.3697 1.3758l1.2515 0.52291-0.8146 1.6075c-1.8536 3.658-2.4005 6.2905-2.4005 11.557 0 4.1944 0.11373 5.2608 0.79109 7.4179 2.3833 7.5896 7.274 13.414 14.074 16.761 4.4545 2.1923 6.5927 2.6683 11.993 2.67 5.2041 0.0015 8.0759-0.63528 12.176-2.7001l2.3508-1.1839v6.3442l-1.6047 0.68155c-0.8826 0.37485-2.5169 0.95324-3.6318 1.2853s-2.2039 0.76622-2.4202 0.96479-1.799 4.2757-3.5172 9.0603-3.2272 8.6993-3.3532 8.6993c-0.12603 0-1.635-3.9147-3.3532-8.6993zm28.044-6.6434-6.8907-6.8968 0.22284-3.669 0.22284-3.669-4.2522-4.2144-1.1692 0.87578c-1.7907 1.3413-4.6446 2.7048-7.4311 3.5504-2.0167 0.61197-2.8603 1.089-4.2111 2.3811l-1.6892 1.6158-1.8581-1.792c-1.493-1.4399-2.3874-1.9753-4.5518-2.7251-6.293-2.1798-10.806-6.6255-13.217-13.019-0.87629-2.3241-0.95536-2.9113-0.95536-7.0946 0-4.1817 0.07933-4.7714 0.95446-7.0946 0.52495-1.3936 1.6114-3.522 2.4143-4.7297l1.4598-2.1959-0.88562-0.92906c-0.6066-0.63635-1.227-0.92905-1.9693-0.92905-1.9652 0-5.3983-1.2815-6.5277-2.4367-1.1805-1.2074-1.852-3.1766-1.5261-4.475 0.19434-0.77432 0.04218-0.93635-1.5951-1.6985-2.1353-0.99403-2.674-1.032-4.2224-0.2972-1.3987 0.66374-1.0187 1.059-4.9164-5.1128-2.6623-4.2156-7.5225-13.356-8.2978-15.605-0.44859-1.3014-0.6635-1.3525 4.478 1.0655 4.9159 2.3119 13.014 7.0359 17.196 10.032 0.17768 0.12727 0.0709 0.72527-0.25043 1.4024-0.74296 1.5657-0.70697 2.1003 0.28488 4.2309 0.77332 1.6612 0.91089 1.7855 1.7703 1.6002 1.3689-0.29514 3.0995 0.32381 4.3826 1.5675 1.203 1.166 2.4614 4.4841 2.4614 6.49 0 0.74185 0.29303 1.3635 0.92905 1.9708l0.92906 0.8872 2.1959-1.4775c1.2078-0.8126 3.4543-1.9049 4.9922-2.4273 2.3353-0.79325 3.0836-1.2408 4.5391-2.7146l1.7428-1.7647 1.7143 1.6213c1.369 1.2948 2.224 1.7753 4.2447 2.3856 6.2438 1.8858 10.908 5.6483 13.458 10.857 1.7962 3.6684 2.4167 6.1788 2.4167 9.7777 0 4.4274-1.4064 8.8686-3.9346 12.425l-1.1264 1.5843 4.2163 4.2581 7.3153-0.46092 2.3225 2.3047c1.2774 1.2676 2.2449 2.4301 2.1501 2.5835-0.09478 0.15336-1.3796 0.27884-2.8551 0.27884s-2.6828 0.11546-2.6828 0.25657c0 0.75128 1.5811 1.1304 4.4512 1.0673l3.0458-0.06694 2.719 2.719-6.2298 0.49307 0.96299 0.65421c0.83935 0.57021 1.3258 0.62602 3.7889 0.43465l2.8259-0.21956 1.6504 1.6256c0.90772 0.89407 1.6504 1.7453 1.6504 1.8917s-1.6291 0.26608-3.6202 0.26608h-3.6202l1.7621 1.7843c1.7503 1.7723 2.1337 2.7766 1.3567 3.5536-0.77701 0.77701-1.7812 0.39362-3.5536-1.3567l-1.7843-1.7621v3.6202c0 1.9911-0.11541 3.6202-0.25647 3.6202-0.14106 0-3.3573-3.1036-7.1471-6.8968zm-17.342-19.966c1.305-0.65285 2.5357-1.3835 2.735-1.6236 0.27673-0.33344-0.50201-1.2982-3.2972-4.0847-3.2699-3.2598-3.7337-3.6084-4.3566-3.2751-1.1422 0.61131-4.0022 0.4468-5.4979-0.31624-2.4515-1.2506-3.7159-4.3226-2.9103-7.0706l0.47923-1.6348-7.2467-7.2243-1.2384 1.9751c-2.9749 4.7444-3.2846 10.527-0.83518 15.595 2.0383 4.2171 7.1972 8.5087 10.228 8.5087 0.97018 0 1.5468-0.2946 2.7534-1.4068l1.5262-1.4068 0.91553 1.0628c1.0292 1.1948 2.5869 2.0835 3.6573 2.0866 0.39311 0.0011 1.7825-0.53207 3.0874-1.1849zm7.5563-7.7657c3.8008-8.0575 0.16152-18.03-7.9679-21.834-2.8187-1.319-4.0418-1.163-5.9656 0.76079l-1.3549 1.3549-1.4903-1.3737c-1.1613-1.0704-1.7561-1.3737-2.6938-1.3737-1.2049 0-3.205 0.84536-5.0098 2.1174l-0.96167 0.67779 7.2322 7.2547 1.6187-0.51763c1.3913-0.44492 1.8456-0.45409 3.2342-0.0653 3.452 0.9665 5.4975 4.5921 4.3931 7.7868l-0.51729 1.4963 7.2462 7.285 0.64035-0.77089c0.35219-0.42399 1.0706-1.6831 1.5965-2.7979zm-13.37-5.39c0.45608-0.45608 0.82924-1.1471 0.82924-1.5356s-0.37316-1.0795-0.82924-1.5356-1.1471-0.82924-1.5356-0.82924-1.0795 0.37316-1.5356 0.82924-0.82924 1.1471-0.82924 1.5356 0.37316 1.0795 0.82924 1.5356 1.1471 0.82924 1.5356 0.82924 1.0795-0.37316 1.5356-0.82924zm22.585 10.696c2.2103-4.3891 2.7379-6.7462 2.7379-12.232 0-4.1958-0.11362-5.2605-0.7919-7.4205-3.7691-12.003-13.877-19.606-26.066-19.606-3.8934 0-7.6032 0.76262-10.73 2.2058l-2.4532 1.1322-0.51811-1.2467c-0.28496-0.68569-0.96056-1.7995-1.5013-2.4751l-0.98323-1.2284 2.3493-1.0505c1.2921-0.57775 3.2997-1.3042 4.4613-1.6143 1.1616-0.31009 2.2889-0.72887 2.5051-0.93062 0.21623-0.20175 1.799-4.2815 3.5172-9.0661 1.7182-4.7846 3.2272-8.6993 3.3532-8.6993 0.12603 0 1.6375 3.9147 3.3588 8.6993 1.7213 4.7846 3.2642 8.8648 3.4287 9.067 0.16449 0.2022 1.099 0.54744 2.0767 0.7672 2.5863 0.58132 6.5388 2.3885 9.3523 4.2762 6.2168 4.171 11.625 11.635 13.223 18.249 0.22299 0.92295 0.57555 1.855 0.78347 2.0712s4.2927 1.799 9.0774 3.5172c4.7846 1.7182 8.6993 3.2272 8.6993 3.3532 0 0.12603-3.9147 1.635-8.6993 3.3532-4.7846 1.7182-8.8618 3.301-9.0604 3.5172s-0.63272 1.3053-0.96479 2.4202-0.91046 2.7492-1.2853 3.6318l-0.68155 1.6047h-6.3442z"/></svg>