<svg width="100" height="100" version="1.1" viewBox="0 0 100 100" xmlns="http://www.w3.org/2000/svg">
 <path d="m77.211-0.080078c-0.69 2.07-1 4.2598-2 6.2598-1.61 3.07-2.8203 6.3809-4.8203 9.2109-3.18 4.75-6.2902 9.5395-9.4902 14.27-3.39 3.96-6.791 7.9308-10.291 11.801-1.98 1.82-3.65 3.8789-5.5 5.8789a63 63 0 0 0-5.5586 8.1504c-1.43 2.41-3.0605 4.7205-4.3105 7.2305 0.44 0.29 1.0794 0.40938 1.3594 0.85938-0.06 1 0.43102 2.28-0.45898 3a10 10 0 0 1-2.4102 2.2402c-0.53 0.28-1.2113 0.44-1.5312 1-0.29 0.89-0.32922 1.8505-0.69922 2.7305-1.34 3.31-2.66 6.6099-4 9.9199a22 22 0 0 0-0.65039 2.8086 4.05 4.05 0 0 0-2.5293 0.75c0.16 0.95 0.87945 1.8711 0.43945 2.8711-0.47 1.21-0.91938 2.4304-1.3594 3.6504l0.41992 0.7793c-0.55 0.51-1.4902 0.78992-1.4902 1.6699-0.81 1.85 2.2903 2.7604 1.5703 4.6504 1.16 1.04 2.2798-0.89109 3.5898-0.62109-0.04-1 1.0398-1.33 1.5898-2 0.33-1.36 0.17063-2.7989 0.64062-4.1289 0.78-2.29 1.4593-4.6204 2.2793-6.9004 1.3-3.18 2.5306-6.4006 3.8906-9.5605 1.22-2.5 2.3984-5.02 3.6484-7.5 1.69-2.73 3.3618-5.4697 5.0918-8.1797 1.71-2.11 3.4492-4.1993 5.1992-6.2793 1.43-1.19 2.8205-2.421 4.3105-3.541a106.09 106.09 0 0 0 12.92-9.8398 57.34 57.34 0 0 0 3.6797-4.709c0.82-1.95 1.7997-3.8613 2.4297-5.8613a64.82 64.82 0 0 0 2.1602-6.8984c0.41-1.87 0.86-3.7316 1.25-5.6016 0.6-4.86 1.1398-9.7389 1.2598-14.629-0.16-1.14-0.33938-2.2804-0.60938-3.4004l-0.019531-0.080078zm-54.432 0.080078a31.88 31.88 0 0 0-0.61914 3.4902l-0.009765-0.029297c0.13333 3.9467 0.44612 7.8726 0.93945 11.779 0.27 3.43 1.28 6.7303 2 10.07a91.49 91.49 0 0 0 3.2695 9 11.66 11.66 0 0 0 1.7305 3.25c1.31 1.51 2.34 3.3198 4 4.5098 2.85 2.29 5.5609 4.7695 8.6309 6.7695 2.2-2.46 4.3997-4.9306 6.6797-7.3105-3.49-3.88-6.8895-7.7891-10.27-11.789-3.51-5.24-6.9917-10.541-10.512-15.791-1.51-2.75-2.7482-5.6397-4.1582-8.4297-0.68-1.8-1.0716-3.6995-1.6816-5.5195zm34.26 50.039c-0.97 0.59-1.9882 1.1013-2.9082 1.7812l-0.011718 0.089844c-1.15 1.07-2.3192 2.1305-3.4492 3.2305 1.57 1.97 3.241 3.8496 4.791 5.8496 1.68 2.6667 3.3467 5.3333 5 8 1.27 2.5 2.4595 5.0503 3.6895 7.5703 1.34 3.15 2.5691 6.34 3.8691 9.5 0.81 2.28 1.4913 4.6104 2.2812 6.9004 0.47 1.33 0.30867 2.7689 0.63867 4.1289 0.59 0.64 1.5898 1 1.5898 2 1.31-0.27 2.4201 1.6094 3.5801 0.60938-0.71-1.88 2.3801-2.7887 1.5801-4.6387-0.04-0.88-0.94024-1.1599-1.4902-1.6699l0.41992-0.78125c-0.51-1.39-1.0598-2.7484-1.5098-4.1484a11.11 11.11 0 0 1 0.58984-2.3711 4.06 4.06 0 0 0-2.5391-0.75 20.2 20.2 0 0 0-0.66992-2.8906c-1.26-3.09-2.5-6.1891-3.75-9.2891a17.65 17.65 0 0 1-0.89062-3.1992c-0.46-0.88-1.6288-0.90055-2.2988-1.5605a30.58 30.58 0 0 1-2.1113-2.3008 10.54 10.54 0 0 1 0-2.5098 8.13 8.13 0 0 1 1.3496-0.76953c-0.34-0.58-0.56945-1.2112-0.93945-1.7812-2.29-3.67-4.5105-7.36-6.8105-11zm-8.8789 19.5a2.9 2.9 0 0 0-2 1.4609l0.029297 0.029297c-0.61 1.28-1.8495 2.0699-2.6895 3.1699a19.32 19.32 0 0 0-0.16992 5.5801 2.7 2.7 0 0 0 0.7793 1.2207c0.77 0.83 1.331 1.9805 2.541 2.2305 0.9 0.53 1.8595-0.10125 2.7695-0.28125 0.18-1.61 0.44008-3.2201 0.58008-4.8301a21.72 21.72 0 0 0-1.2598-5.1191c-0.18-0.51-0.69945-0.78-0.93945-1.25a3.28 3.28 0 0 1 0.35938-2.2109zm4.6699 0v0.03125c0.006902 0.002741 0.014554 0.005086 0.021484 0.007813a3.23 3.23 0 0 0-0.021484-0.039063zm0.021484 0.039063a3.23 3.23 0 0 1 0.33789 2.1719c-0.24 0.47-0.75945 0.74-0.93945 1.25a21.72 21.72 0 0 0-1.2109 5.1191c0.14 1.61 0.4018 3.2201 0.5918 4.8301 0.83 0.13 1.6695 0.75109 2.5195 0.37109 1.64-0.37 2.4492-2.0097 3.4492-3.1797a17.81 17.81 0 0 0 0-5.6914c-0.74-1.37-2.3097-2.1892-2.9297-3.6992-0.33655-0.70279-1.1425-0.90596-1.8184-1.1719zm6.3594 7.4824v0.009765a4.78 4.78 0 0 1 0.003906 0.001954c-0.001337-0.003937-0.002557-0.007782-0.003906-0.011719zm0.003906 0.011719c0.72194 2.1258-0.36689 4.1801-1.5547 5.877-0.53 1.57-1.4097 3.2716-0.67969 4.9316 0.81 1.36 2.3801 2.7991 4.0801 2.1191a9.78 9.78 0 0 0 2.4785-3.3301 4.32 4.32 0 0 0-0.12891-3.3496 22.46 22.46 0 0 0-2.1992-4 4.78 4.78 0 0 0-1.9961-2.248zm-17.426-0.001954a5 5 0 0 0-2.0684 2.3105l0.009766 0.039063a21.76 21.76 0 0 0-2.1602 3.9297 4.32 4.32 0 0 0-0.13086 3.3496 9.78 9.78 0 0 0 2.5098 3.3516c1.72 0.69 3.3211-0.79141 4.1211-2.1914a4.09 4.09 0 0 0-0.070312-3 8.78 8.78 0 0 0-1-2.5195 5.9 5.9 0 0 1-1.2109-5.2695zm8.8965 7.8281c-1.5134-0.017054-3.0413 0.50391-4.375 1.1914h-0.03125c-0.99 1.51-1.6602 3.2605-2.6602 4.7305-1.25 1.71-3.9395 1.3305-4.9395 3.2305a12.19 12.19 0 0 0 1.5605 2.25c1.04 0.85 2.0691 1.9896 3.5391 1.8496 1.77-0.36 3.5113-0.84024 5.2812-1.2402 2.49-0.41 4.8791 0.57008 7.2891 1.0801a3.23 3.23 0 0 0 2.291-0.10938 9.22 9.22 0 0 0 3.6191-3.8301 3.17 3.17 0 0 0-1.4492-1.3105c-1.38-0.51-2.9215-0.98102-3.7715-2.291-0.66-1.26-1.34-2.5401-2-3.8301-0.32-0.94-1.5284-0.92008-2.3184-1.3301-0.6625-0.26562-1.3473-0.38287-2.0352-0.39062z"/>
</svg>
