<svg width="100" height="100" version="1.1" viewBox="0 0 100 100" xml:space="preserve" xmlns="http://www.w3.org/2000/svg"><path d="m3.1523 99.665c0.3019-0.51099 17.391-22.05 28.506-35.928 3.3703-4.2083 6.1237-7.8976 6.1187-8.1985-0.0051-0.30372-2.391-2.404-5.3635-4.7214l-5.3543-4.1744 1.67-0.73702c1.7954-0.79236 2.2976-1.6805 1.8835-3.3305-0.35801-1.4264-1.2009-2.4624-3.8258-4.702-1.609-1.3728-2.7826-2.1231-3.3213-2.1231-0.93743 0-3.3512 1.9138-6.8618 5.4405-2.5931 2.605-4.2497 5.0253-4.2497 6.2089 0 0.67902-0.12182 0.77623-0.75292 0.60082-0.41411-0.1151-2.6352-0.58678-4.9358-1.0482-6.5662-1.3169-6.0183-1.0929-4.6692-1.9084 5.4888-3.3177 9.2238-6.1052 12.631-9.4268 4.3997-4.2891 4.534-4.7069 1.8261-5.6784-1.8462-0.66235-2.2506-1.3932-1.2366-2.2348 1.3754-1.1414 1.2666-1.5045-1.3505-4.506-3.2784-3.7601-4.526-5.6068-4.7594-7.0447-0.27067-1.668-1.3686-2.3934-4.044-2.6721-2.9717-0.30954-3.4169-0.57199-3.4169-2.0142 0-1.6712 0.73793-3.2166 2.4006-5.0275 2.3704-2.5817 6.4867-4.0372 7.248-2.5629 0.16632 0.32208 0.40814 1.5548 0.5374 2.7395 0.3269 2.9961 0.87112 3.9239 2.459 4.1922 1.9591 0.331 4.5401 1.9739 7.4132 4.7189 1.4321 1.3682 2.7491 2.4877 2.9266 2.4877 0.17753 0 0.67644-0.37646 1.1087-0.83658 0.43226-0.46012 0.99388-0.83658 1.2481-0.83658 0.25417 0 0.8413 0.82822 1.3047 1.8405s0.99961 1.8405 1.1915 1.8405c0.67415 0 3.4775-2.3116 6.1531-5.0737 3.3413-3.4493 5.9191-6.8712 8.7064-11.557 1.1789-1.9818 2.1435-3.5055 2.1435-3.3859s0.37492 2.6016 0.83315 5.5156c0.45824 2.914 0.83469 5.4511 0.83658 5.638 0.0019 0.18686-0.75984 0.61083-1.6927 0.94216-1.3865 0.49246-2.7151 1.5804-7.2782 5.9603-5.7259 5.496-6.7533 6.7759-6.7533 8.4132 0 1.4553 0.62272 2.3621 5.4459 7.9297l4.4877 5.1804-1.2636 0.56575c-1.8728 0.8385-2.4427 2.1767-2.1578 5.0674 0.1262 1.2808 0.37862 2.7237 0.56093 3.2064 0.44281 1.1725 1.8186 2.5776 3.0053 3.0691l0.96458 0.39954v15.524l-19.827 16.013c-22.701 18.334-20.887 16.897-20.495 16.235zm31.622-0.09789c-0.50015-0.25268-1.0081-0.94417-1.263-1.7195l-0.42644-1.2968 2.5179-2.5874c3.3248-3.4166 3.3242-3.6789-0.01815-7.0409l-2.536-2.551 0.37054-1.3761c0.56638-2.1034 1.2493-2.4045 5.4536-2.4045 3.5723 0 3.6186 0.01008 3.9411 0.85836 0.17949 0.4721 0.32635 1.225 0.32635 1.6732-3e-6 0.72751 0.14339 0.8148 1.3385 0.8148h1.3385l0.0021-4.4339c0.0015-3.279 0.13227-4.6835 0.50195-5.3924 0.67726-1.2986 0.7528-24.352 0.0816-24.902-0.23006-0.18859-1.0649-0.51578-1.8552-0.72709-1.6225-0.43385-1.9423-0.96702-2.1259-3.5443l-0.11818-1.6584 1.9212-0.10027c2.2283-0.1163 2.7939-0.72749 2.4775-2.6772-0.21594-1.3307-0.67415-1.9412-6.6547-8.8668-3.5413-4.1009-4.2202-5.0558-3.9514-5.558 0.60657-1.1334 10.218-10.168 11.3-10.622 1.437-0.60303 4.1773-0.57256 5.6993 0.06339 1.1888 0.49671 11.461 10.323 11.461 10.963 0 0.16285-2.3316 3.0093-5.1813 6.3254-5.283 6.1477-6.041 7.4039-5.5603 9.2143 0.22571 0.85001 0.40403 0.93723 2.2308 1.0912l1.9855 0.16732-0.10104 1.8405c-0.13107 2.3876-0.69806 3.2246-2.3764 3.5082-0.73274 0.1238-1.4814 0.40482-1.6637 0.62448-0.20195 0.24333-0.35878 4.9899-0.40136 12.147-0.06201 10.425-8e-3 11.836 0.47952 12.532 0.48484 0.69221 0.54941 2.205 0.54941 12.872 0 11.285-0.04062 12.125-0.61196 12.642-0.4795 0.43394-1.3036 0.55381-3.8073 0.55381-3.5539 0-3.8504-0.15242-4.1738-2.1452-0.18327-1.1293-0.26961-1.2011-1.4456-1.2011-1.2134 0-1.2562 0.04137-1.4367 1.3868-0.1023 0.76272-0.38565 1.5133-0.62967 1.668-0.70495 0.44693-6.6933 0.3364-7.6382-0.14099zm19.951-68.896c3.6052-3.519 3.632-3.8324 0.59499-6.9782-4.1234-4.2711-5.4793-4.2758-9.6075-0.03376-1.6278 1.6727-2.5732 2.9149-2.5732 3.3809 0 0.81126 3.5244 4.7138 5.1868 5.7433 0.55214 0.34194 1.587 0.62226 2.2997 0.62295 1.171 0.0011 1.5656-0.26212 4.0992-2.7352zm23.837 54.693c-9.6523-7.871-18.484-15.064-19.625-15.984l-2.0755-1.6732-0.0012-7.9112-0.0012-7.9112 0.75292-0.19314c0.96726-0.24812 2.4436-1.6307 3.1031-2.9061 0.2837-0.5486 0.60738-2.1849 0.7193-3.6363 0.18194-2.3594 0.12659-2.7468-0.52267-3.6586-0.39939-0.56089-1.2303-1.2021-1.8464-1.4249l-1.1202-0.40508 4.6823-5.3854c4.8189-5.5425 5.2745-6.2278 5.2745-7.9336 0-1.7082-0.79124-2.6952-6.5099-8.1204-5.1995-4.9327-7.3945-6.5379-8.9668-6.5577-0.73333-0.0092-0.74167 0.19213 0.2544-6.1422 0.45823-2.914 0.83315-5.3961 0.83315-5.5156s0.96456 1.4041 2.1435 3.3859c2.6236 4.4105 5.3053 8.0275 8.2077 11.07 2.6766 2.806 5.9163 5.5601 6.5406 5.5601 0.25302 0 0.83921-0.82822 1.3026-1.8405 0.46343-1.0123 1.0506-1.8405 1.3047-1.8405s0.8158 0.37646 1.2481 0.83658c0.43226 0.46012 0.93117 0.83658 1.1087 0.83658 0.17752 0 1.4945-1.1195 2.9266-2.4877 2.8732-2.745 5.4541-4.3879 7.4132-4.7189 1.5879-0.26827 2.1321-1.1961 2.459-4.1922 0.12917-1.1846 0.371-2.4174 0.53731-2.7395 0.76128-1.4743 4.8776-0.018751 7.248 2.5629 1.6626 1.8109 2.4006 3.3563 2.4006 5.0275 0 1.4422-0.44524 1.7047-3.4169 2.0142-2.6754 0.27868-3.7734 1.0041-4.044 2.6721-0.23334 1.4379-1.481 3.2846-4.7594 7.0447-2.6171 3.0016-2.7259 3.3646-1.3505 4.506 1.014 0.84157 0.60962 1.5724-1.2366 2.2348-2.7079 0.97149-2.5735 1.3893 1.8261 5.6784 3.4072 3.3216 7.1422 6.1091 12.631 9.4268 1.3491 0.81545 1.897 0.59152-4.6692 1.9084-2.3006 0.4614-4.5217 0.93308-4.9358 1.0482-0.6311 0.17542-0.75292 0.0782-0.75292-0.60082 0-1.1836-1.6566-3.6039-4.2497-6.2089-3.5106-3.5267-5.9244-5.4405-6.8619-5.4405-0.53871 0-1.7123 0.75022-3.3213 2.1231-2.6248 2.2396-3.4677 3.2756-3.8258 4.702-0.41533 1.6548 0.08734 2.5378 1.9001 3.3379l1.6866 0.74435-4.9069 3.8324c-2.6988 2.1078-5.1198 3.9996-5.3801 4.2039-0.26024 0.20434-0.47316 0.5937-0.47316 0.86524 0 0.27155 1.9011 2.8902 4.2246 5.8192 16.176 20.391 29.957 38.015 29.827 38.144-0.0843 0.0843-8.0506-6.2866-17.703-14.158z"/></svg>