<svg width="100" height="100" version="1.1" viewBox="0 0 100 100" xml:space="preserve" xmlns="http://www.w3.org/2000/svg"><path d="m44.986 99.794c-2.6026-0.28337-6.9911-1.5644-9.5511-2.788-3.8197-1.8256-5.9469-3.9142-9.637-9.4617-3.7927-5.7017-4.1492-6.1065-8.2323-9.3467-6.4558-5.1229-7.5376-8.1043-5.8834-16.215 1.0601-5.1977 0.83489-6.9875-1.4699-11.684-1.0222-2.0827-2.0387-4.5084-2.259-5.3904-1.1879-4.7567 1.7042-10.709 6.3459-13.061 0.92319-0.46782 1.6732-0.73552 1.6667-0.59489-0.0065 0.14063-0.22925 1.1559-0.49493 2.2563-1.0344 4.2839-0.29986 7.8172 1.9045 9.1612 1.4139 0.86205 2.8064 0.8749 3.2586 0.03006 0.50273-0.93936 0.42632-2.4277-0.32271-6.2855-0.79821-4.1112-0.83986-6.5892-0.15555-9.2542 0.86664-3.375 2.1059-5.4764 4.8096-8.1557 2.9175-2.8912 5.8161-4.6787 12.64-7.7949 2.6343-1.2029 5.2764-2.5585 5.8714-3.0124 2.2951-1.7505 2.7199-4.4843 1.0393-6.6877-0.4593-0.60217-0.74154-1.1884-0.62722-1.3027 0.37992-0.37992 3.4351-0.2149 5.744 0.31023 3.0585 0.69564 5.5864 2.2507 6.9351 4.2663 2.8309 4.2303 2.253 8.4196-2.1316 15.454-1.2894 2.0687-1.6048 2.8819-1.7164 4.4252-0.12941 1.789-0.07963 1.9389 0.92486 2.7841 1.2574 1.0581 2.45 1.1312 3.9118 0.23994 1.3409-0.81758 1.8775-1.8543 2.7274-5.2689 0.3716-1.493 1.0696-3.3099 1.551-4.0375 2.1827-3.2983 7.2756-5.0832 11.187-3.9205 2.7478 0.81692 2.9571 1.031 1.8551 1.8978-1.7512 1.3775-2.9061 2.8178-3.9597 4.9381-1.3418 2.7004-1.6766 6.9104-0.7767 9.7682 1.5499 4.9222 6.0935 7.7632 8.7534 5.4733 0.90807-0.78175 0.93533-0.9016 0.9291-4.0845-0.0054-2.7712-0.14112-3.6011-0.87597-5.3576l-0.86954-2.0785 3.037 1.5685c2.1376 1.104 3.6868 2.2133 5.2312 3.7456 4.2068 4.1739 4.7803 7.2352 2.3906 12.76-2.0321 4.6984-1.9717 5.7422 0.59257 10.235 3.1759 5.5649 3.7828 10.327 1.9882 15.6-1.3802 4.0547-3.7917 7.1079-9.7578 12.354-1.9828 1.7435-5.1742 5.0143-7.092 7.2684-5.4238 6.3751-7.6453 8.0741-12.642 9.6687-4.7029 1.5009-11.602 2.1468-16.84 1.5765zm9.4559-8.4465c6.7053-2.5088 9.2235-10.779 5.6086-18.42-1.9092-4.0355-9.5318-15.245-10.367-15.245-0.67188 0-7.7285 10.686-9.8316 14.888-1.8477 3.6917-2.1975 4.983-2.1995 8.1189-0.0013 2.0606 0.16556 2.8528 0.94816 4.5013 1.4214 2.9941 4.1458 5.2916 7.5521 6.3689 2.1425 0.67759 6.1884 0.57432 8.2889-0.21157zm23.433-18.077c4.2887-5.7854 5.1765-11.651 2.554-16.873-1.1079-2.2062-3.9206-5.1409-6.342-6.6169l-1.7416-1.0616 0.20081 3.5651c0.24851 4.4118-0.19531 5.8114-2.0944 6.6049-3.4962 1.4608-5.4319-0.95422-5.4515-6.8017-0.01261-3.7567-1.4293-6.4686-4.4753-8.5664-0.95362-0.65678-3.7929-2.0799-6.3096-3.1625-5.3076-2.2832-7.3429-3.6602-9.0106-6.096-1.6534-2.415-2.2855-4.3471-2.319-7.0882-0.02402-1.9662 0.16476-2.8032 1.1981-5.3118 0.67461-1.6378 1.1608-3.0435 1.0805-3.1238-0.24412-0.24412-8.7327 4.95-10.764 6.5864-2.53 2.0382-4.9256 5.0661-5.8045 7.3366-1.0969 2.8336-0.99265 6.5036 0.3287 11.574 1.65 6.3314 1.4666 7.8633-1.4092 11.77-0.85078 1.1557-2.1459 3.3188-2.8782 4.807-2.2354 4.5431-2.4947 8.3179-0.8053 11.721 0.54853 1.1048 0.76306 1.35 0.64534 0.73776-0.98357-5.1157-0.06856-8.2721 3.6488-12.587 2.4923-2.8928 4.4438-5.8285 4.8525-7.3 0.63045-2.2696 0.38278-5.986-0.66836-10.029-1.1098-4.2682-1.262-7.1697-0.49099-9.3551 0.73406-2.0806 2.6937-4.4897 5.1648-6.3493l2.1673-1.6311 0.22221 2.1579c0.29568 2.8713 1.0524 5.0458 2.5766 7.404 2.3286 3.6028 5.6942 5.9115 12.822 8.7954 1.4392 0.58233 3.2326 1.5285 3.9853 2.1026 2.1725 1.657 2.6175 2.7218 2.915 6.9743 0.14348 2.051 0.42418 4.152 0.62378 4.6689 1.0648 2.7573 3.6689 4.5674 6.5524 4.5546 3.1793-0.01415 5.7736-1.9226 6.8215-5.0182l0.58471-1.7272 1.4135 2.8527c2.3164 4.6747 2.1825 8.4762-0.49847 14.153-0.6279 1.3296-1.0737 2.4174-0.99067 2.4174 0.08303 0 0.84614-0.93777 1.6958-2.0839z"/></svg>