<svg width="100" height="100" version="1.1" viewBox="0 0 100 100" xml:space="preserve" xmlns="http://www.w3.org/2000/svg"><path d="m40.789 99.979c0-0.41833-0.84525-6.3915-1.1827-8.3575-0.16642-0.96969-0.45387-1.2088-2.7009-2.247l-2.5146-1.1618-6.6483 3.4803c-3.6566 1.9142-7.4157 3.8692-8.3537 4.3445l-1.7053 0.86416 0.62997-1.595c0.34648-0.87725 1.9417-4.7602 3.5449-8.6289l2.915-7.0339-0.59883-1.112c-0.32936-0.61158-0.83328-1.2303-1.1198-1.375-0.28654-0.14466-4.6284-1.3662-9.6486-2.7145-5.0202-1.3483-9.1216-2.5384-9.1142-2.6448 0.00739-0.10632 3.3012-2.6431 7.3195-5.6374l7.3061-5.444 0.20181-2.5949c0.54992-7.0711 4.0994-14.376 9.49-19.531 2.832-2.7081 4.6733-3.9785 8.2407-5.6857 2.5702-1.2299 8.1506-2.9221 8.4964-2.5763 0.0836 0.0836-0.34325 2.3831-0.94855 5.1101l-1.1005 4.9581-2.3799 1.2077c-4.6452 2.3572-7.9053 5.5598-10.108 9.9293-1.5085 2.9928-2.161 5.8598-2.1665 9.5195-0.0059 3.8946 0.64793 6.5804 2.4409 10.027 2.595 4.9879 6.8259 8.5927 12.345 10.518 2.5747 0.8983 3.3027 1.0058 6.7386 0.99544 3.227-0.0097 4.2911-0.15437 6.5579-0.8912 6.2868-2.0435 11.396-6.9378 13.736-13.159 0.70376-1.8707 1.2806-2.7031 3.1013-4.4753 2.423-2.3585 4.8342-5.3636 6.1124-7.6177 0.44318-0.78154 0.89834-1.4222 1.0115-1.4236 0.25943-0.0032 0.62599 2.6194 0.64987 4.6498l0.01817 1.5443 7.1722 5.3593c3.9447 2.9476 7.1772 5.4497 7.1834 5.5601 0.0062 0.11041-4.2181 1.3163-9.3873 2.6797-9.0999 2.4001-9.4195 2.5125-10.057 3.5374l-0.65887 1.0585 3.5463 8.6069c1.9504 4.7338 3.4958 8.6573 3.4342 8.7189-0.06163 0.06163-3.8289-1.8333-8.3718-4.211l-8.2597-4.323-4.9885 2.3048-0.24083 3.4419c-0.13246 1.8931-0.33914 3.9899-0.4593 4.6595l-0.21847 1.2176-5.6943-7.5927-8.0586-0.03432-2.7536 4.0924c-1.5145 2.2508-2.7536 3.9079-2.7536 3.6823zm8.8993-27.238c-0.08816-0.25665-1.2442-5.433-2.569-11.503l-2.4087-11.036 2.4484-11.238c1.3466-6.181 2.5468-11.52 2.667-11.865 0.12929-0.37036 1.2899 4.2149 2.8404 11.221l2.6217 11.847-2.6013 11.389c-1.4307 6.2637-2.6546 11.448-2.7198 11.52-0.06518 0.07242-0.19064-0.07831-0.2788-0.33496zm-8.5062-3.839c-3.0493-0.90144-7.3705-2.9121-8.4799-3.9456-0.65419-0.60947-0.69096-0.91095-0.53329-4.3724 0.14534-3.1907 0.92385-6.8999 1.4482-6.8999 0.07387 0 1.0771 0.76219 2.2295 1.6938 1.1523 0.93157 3.2257 2.2432 4.6074 2.9148 1.3817 0.67155 2.57 1.2609 2.6406 1.3097 0.07061 0.04878 0.5594 2.0155 1.0862 4.3706 0.5268 2.355 1.0371 4.621 1.1341 5.0355 0.23185 0.99125-0.48168 0.97286-4.1327-0.10648zm13.366 0.28914c0.01451-0.33074 0.50439-2.6232 1.0886-5.0944l1.0622-4.493 2.3818-1.2083c3.2775-1.6627 5.8863-3.7533 7.7085-6.1775 3.2409-4.3113 4.5599-8.1438 4.5676-13.272 0.0059-3.8946-0.64793-6.5804-2.4409-10.027-2.595-4.9879-6.8259-8.5927-12.345-10.518-2.5747-0.89829-3.3027-1.0058-6.7386-0.99543-3.227 0.0097-4.2911 0.15437-6.5579 0.8912-6.2851 2.0429-11.395 6.9368-13.735 13.156-0.73072 1.9414-1.3382 2.7852-3.9448 5.4802-2.5855 2.673-5.5442 6.5357-6.0277 7.8692-0.31628 0.87228-0.64806-0.39216-0.80765-3.078l-0.17502-2.9455-7.1416-5.3593c-3.9279-2.9476-7.1466-5.4497-7.1528-5.5601-0.00619-0.11041 4.2181-1.3163 9.3873-2.6797 9.0999-2.4001 9.4195-2.5125 10.057-3.5374l0.65887-1.0585-3.5463-8.6069c-1.9504-4.7338-3.4958-8.6573-3.4342-8.7189 0.06163-0.061627 3.8289 1.8333 8.3718 4.211l8.2597 4.323 4.9885-2.3048 0.24083-3.4419c0.13246-1.8931 0.33914-3.9899 0.4593-4.6595l0.21846-1.2176 5.6943 7.5927 8.0586 0.034324 2.7536-4.0924c1.5145-2.2508 2.7536-3.9079 2.7536-3.6823 0 0.41833 0.84525 6.3915 1.1827 8.3575 0.16642 0.96969 0.45387 1.2088 2.7009 2.247l2.5146 1.1618 6.6483-3.4803c3.6566-1.9142 7.4157-3.8692 8.3537-4.3445l1.7053-0.86416-0.62997 1.595c-0.34648 0.87725-1.9417 4.7602-3.5449 8.6289l-2.915 7.0339 0.59883 1.112c0.32936 0.61158 0.83328 1.2303 1.1198 1.375 0.28654 0.14466 4.6284 1.3662 9.6486 2.7145 5.0202 1.3483 9.1216 2.5384 9.1142 2.6448-0.0074 0.10632-3.3012 2.6431-7.3195 5.6374l-7.3061 5.444-0.20181 2.5949c-0.38671 4.9725-2.6191 10.911-5.7609 15.323-1.6312 2.2911-5.3085 5.9169-7.5348 7.4292-3.2919 2.2362-8.17 4.2748-11.807 4.9343-1.0746 0.19486-1.2523 0.1409-1.2297-0.37359zm9.5199-24.6c-1.1054-0.91968-3.2247-2.2636-4.7096-2.9864l-2.6998-1.3143-0.94999-4.2728c-0.5225-2.35-1.0209-4.612-1.1075-5.0265-0.20826-0.99637 0.39409-0.98298 4.1006 0.09111 3.0919 0.89598 7.4528 2.8958 8.5559 3.9235 0.95269 0.88756 0.94095 5.9829-0.02095 9.0972-0.37586 1.2169-0.79037 2.2008-0.92113 2.1864-0.13077-0.01434-1.1421-0.77855-2.2475-1.6982z"/></svg>