<svg width="100" height="100" version="1.1" viewBox="0 0 100 100" xmlns="http://www.w3.org/2000/svg">
 <path d="m49.92 0v0.58008c-0.04 1.21-0.10938 2.4306-0.10938 3.6406-0.05 1.47-0.11969 2.9402-0.17969 4.4102v0.25977c-0.09 1.57-0.25 3.1388-0.25 4.7188a17.34 17.34 0 0 1-0.33008 2.6914c-0.22 1.24-0.45164 2.469-0.68164 3.709-0.23 1.24-0.46922 2.4807-0.69922 3.7207-0.12 0.66-0.22961 1.31-0.34961 2 0.68 0.27 1.2688 0.48883 1.7988 0.79883a1.6 1.6 0 0 0 1.7207 0 18.15 18.15 0 0 1 1.8008-0.78906c-0.05-0.2-0.050781-0.35-0.050781-0.5-0.23-1.22-0.46922-2.4399-0.69922-3.6699-0.28-1.56-0.50156-3.1395-0.85156-4.6895a29.26 29.26 0 0 1-0.50976-4.6699c-0.07-1.11-0.16992-2.2316-0.16992-3.3516-0.08-1.67-0.13922-3.34-0.19922-5-0.04-1.2-0.099609-2.3996-0.099609-3.5996a1.38 1.38 0 0 0-0.060547-0.25977h-0.080078zm15.699 20.67-7.9297 8.1309a1.91 1.91 0 0 0 0.82031 0c1.47-0.31 2.9302-0.68 4.4102-1a0.66 0.66 0 0 0 0.55078-0.5c0.36-1.14 0.74891-2.2704 1.1289-3.4004l1.0801-3.1797-0.060547-0.050781zm-31.219 0.060547c0.7 2.29 1.4492 4.5295 2.1992 6.7695a0.52 0.52 0 0 0 0.43945 0.33984c1.11 0.25 2.2103 0.5293 3.3203 0.7793 0.63 0.14 1.2606 0.25086 1.8906 0.38086l0.070312-0.15039-7.9199-8.1191zm15.6 8.8301a6.72 6.72 0 0 1-2.4902 1.5801 1.13 1.13 0 0 1-0.49024 0.099609c-0.45 0.02-0.54883-0.15938-0.54883-0.60938 0.02-0.18 0.080078-0.37086 0.080078-0.63086a1.81 1.81 0 0 0-0.32031 0.16016c-0.3 0.28-0.58039 0.57984-0.90039 0.83984-0.7 0.56-1.4109 1.1009-2.1309 1.6309a7.14 7.14 0 0 1-1.1094 0.69922 12.69 12.69 0 0 1-3.1699 1.2207 4.92 4.92 0 0 1-1.8301 0.09961 4.81 4.81 0 0 0-0.75977 0v0.86914a1.51 1.51 0 0 1-0.61914 1.2109 4.48 4.48 0 0 1-2 0.82031 5.9 5.9 0 0 0-0.90039 0.21875l-0.009766 0.11133a3.27 3.27 0 0 1 2 0.72852 1.32 1.32 0 0 0 0.19922 0.12109 27.91 27.91 0 0 1 5.75 3.8496c1.21 1 2.6196 1.8496 3.3496 3.3496a0.24 0.24 0 0 0 0.089844 0.10937c0.1 0.04 0.21055 0.10156 0.31055 0.10156a3.56 3.56 0 0 1 3.4902 1.5098 0.85 0.85 0 0 0 0.48047 0.2793 1.1 1.1 0 0 1 0.92969 0.76953 2.43 2.43 0 0 0 0.12891 0.38086 0.55 0.55 0 0 0 0.25976 0.24023c0.41 0.13 0.5907 0.11961 0.7207-0.40039 0.13-0.52 0.33961-0.93 0.84961-1a1.15 1.15 0 0 0 0.77148-0.48047 3.31 3.31 0 0 1 3.0684-1.3594 0.77 0.77 0 0 0 0.85156-0.46094 6.2 6.2 0 0 1 1-1.1992c1.2267-1.06 2.4798-2.0898 3.7598-3.0898a38.29 38.29 0 0 1 5.2402-3.1797 6.75 6.75 0 0 1 1.1992-0.38086l-0.2207-0.070312a10.27 10.27 0 0 1-2.3184-0.73828 1.84 1.84 0 0 1-1-1.7812v-0.53906h-0.2207a1.86 1.86 0 0 0-0.41016 0 5.1 5.1 0 0 1-2.6797-0.25977 10.72 10.72 0 0 1-3.3105-1.5703 17 17 0 0 1-2.9102-2.3203 0.9 0.9 0 0 0-0.67969-0.41992v0.42969c0.14 0.73-0.23094 0.79047-0.71094 0.73047a0.83 0.83 0 0 1-0.34961-0.09961 6.77 6.77 0 0 1-2.4395-1.5703zm-4.9316 6.0605a0.56 0.56 0 0 1 0.28125 0.019531 26.53 26.53 0 0 1 3.7012 1.1094c-0.19 0.75-0.38055 1.4597-0.56055 2.1797a0.8 0.8 0 0 0 0 0.48047c0.51 1.27 0.97977 2.5294 1.5098 3.8594 0.45-1.11 0.82906-2.1587 1.2891-3.1387a2.46 2.46 0 0 0 0.080079-1.7715c-0.16-0.5-0.28945-1.0103-0.43945-1.5703 0.53-0.18 0.95984-0.31953 1.5898-0.51953 0.63-0.2 1.31-0.40031 2-0.57031 0.5-0.12 0.59031-0.059609 0.82031 0.40039a6 6 0 0 1-9.4805 7 5.68 5.68 0 0 1-1.8203-3.4004 6 6 0 0 1 0.61133-3.7285 0.56 0.56 0 0 1 0.41797-0.34961zm16.721 13.738a4.79 4.79 0 0 0-0.53906 0.69141c-0.2 0.4-0.32953 0.84-0.51953 1.25a0.39 0.39 0 0 0 0.070312 0.47852c1 1.13 2 2.2799 3 3.4199l2.6797 3.0703c1.13 1.31 2.2489 2.6199 3.3789 3.9199 0.22 0.26 0.4507 0.50078 0.7207 0.80078a1.54 1.54 0 0 0 0-0.18945c-1.0533-2.9667-2.1367-5.9368-3.25-8.9102a1.06 1.06 0 0 0-0.33008-0.46094l-3.2109-2.4805-2-1.5898zm-23.59 0.03125c-0.08 0.06-0.16977 0.099922-0.25977 0.16992l-4.5586 3.5703a2.06 2.06 0 0 0-0.80078 1c-0.64 1.86-1.34 3.6991-2 5.5391-0.4 1.08-0.78969 2.1602-1.1797 3.2402l0.070312 0.029297 0.53906-0.61914c0.49-0.57 1.0002-1.1312 1.4902-1.7012l2.1895-2.5293c0.72-0.82 1.4502-1.6292 2.1602-2.4492 0.98-1.12 1.9297-2.2616 2.9297-3.3516 0.43-0.47 0.70055-0.87953 0.31055-1.5195-0.29-0.46-0.35063-1.0689-0.89062-1.3789zm11.58 2.8398-3.5195 0.93945c0.01 0.15 0.009375 0.28914 0.10938 0.36914 0.17 0.85 0.36148 1.7008 0.52148 2.5508 0.32 1.7 0.56922 3.37 0.94922 5a25.73 25.73 0 0 1 0.50976 4.6211c0.1 0.9 0.09961 1.7895 0.09961 2.6895 0.03 0.63 0.10156 1.2704 0.10156 1.9004 0.08 1.29 0.17828 2.5696 0.23828 3.8496 0.06 1.12 0.12109 2.2491 0.12109 3.3691 0.08 1.42 0.17977 2.8398 0.25977 4.2598 0.07 1.2 0.10969 2.3698 0.17969 3.5898 0.07 1.22 0.12945 2.4516 0.18945 3.6816 0.09 1.81 0.20148 3.7395 0.27148 5.4395 0.07 1.7 0.11945 3.3898 0.18945 5.0898v0.41992a1 1 0 0 0 0.089844-0.17969c0.07-1.39 0.11945-2.7897 0.18945-4.1797 0.05-1.17 0.12164-2.33 0.18164-3.5 0.059999-1.56 0.11945-3.1199 0.18945-4.6699 0.03-0.72 0.099609-1.4306 0.099609-2.1406 0.08-1.45 0.17977-2.8996 0.25977-4.3496 0.06-1.12 0.16992-2.2413 0.16992-3.3613 0.069999-1.58 0.13117-3.1485 0.20117-4.7285 0.02-0.71 0.09961-1.4209 0.09961-2.1309 0.08-1.49 0.17976-2.9902 0.25976-4.4902 0.04-0.91 0.04961-1.8205 0.09961-2.7305a7.62 7.62 0 0 1 0.14062-0.93945c0.19-1 0.38008-2 0.58008-3 0.29-1.55 0.58867-3.0288 0.88867-4.5488 0.11-0.6 0.21008-1.2003 0.33008-1.8203l-3.5996-1a0.78 0.78 0 0 0-0.40039 0zm8.9141 1.2812c-0.099726-0.010254-0.22305 0.022656-0.37305 0.097656l-3.1895 1.6797-0.31055 0.19141 7.3398 18.449 0.060547-0.039063a1.48 1.48 0 0 0 0-0.21094c-0.13-0.82-0.27039-1.6292-0.40039-2.4492l-0.50976-3.0605-0.39062-2.5c-0.17-1.03-0.34953-2.1094-0.51953-3.1094l-0.48047-3c-0.17-1.06-0.34953-2.1102-0.51953-3.1602-0.13-0.81-0.25063-1.6312-0.39062-2.4512-0.05-0.28125-0.1502-0.42041-0.31641-0.4375zm-17.373 0.058593c-0.16855 0.013282-0.26406 0.1625-0.32031 0.46875-0.17 1-0.32047 2-0.48047 3l-0.48047 3c-0.17 1.07-0.34953 2.0703-0.51953 3.0703l-0.50976 3.1504c-0.17 1-0.32024 1.95-0.49024 3s-0.34953 2.1002-0.51953 3.1602c-0.08 0.49-0.1507 0.99024-0.2207 1.4902l0.080078 0.019532 7.3516-18.41-3.5-1.8301c-0.16125-0.08625-0.28949-0.12711-0.39063-0.11914z"/>
</svg>
