<svg width="100" height="100" version="1.1" viewBox="0 0 100 100" xmlns="http://www.w3.org/2000/svg">
 <path class="cls-1" d="m53 0a4.64 4.64 0 0 0 0.050781 3.4395c0.59-0.09 0.58016-0.10016 0.66016-0.66016a5.25 5.25 0 0 0 0-2.0898c-0.11-0.61-0.10094-0.60945-0.71094-0.68945zm11 3.1699a1.7 1.7 0 0 0-0.84961 2.0898c1.05-0.39 1.4696-1.4098 0.84961-2.0898zm-21.721 0.13086c-0.34 0.7 0.071329 1.5994 1.1113 2.3594 0.35-0.18 0.26898-0.51953 0.20898-0.76953a2.45 2.45 0 0 0-1.3203-1.5898zm11.41 7.4199a12.86 12.86 0 0 0-4.1992 0.70898 3.29 3.29 0 0 0-1.2305 0.66992 6.41 6.41 0 0 1-1 0.66992c-0.23 0.15-0.45922 0.30141-0.69922 0.44141a5.8 5.8 0 0 0-1.3613 1.5195 7.94 7.94 0 0 0-1.6992 4.8398c-0.05 1.55 0.039141 3.1004 0.11914 4.6504a4.12 4.12 0 0 0 0.33008 1.3398c0.27 0.67 0.62141 1.2992 0.94141 1.9492a3.55 3.55 0 0 0 1.7285 1.7305l1.2617 0.58008a4.69 4.69 0 0 1 1.5391 1.0703 2.47 2.47 0 0 0 0.67969 0.45898c0.5 0.29 1 0.51008 1.5 0.83008 0.5 0.32 0.92969 0.74055 1.4297 1.0605a5.74 5.74 0 0 1 2 2.4102 2.92 2.92 0 0 1 0.31055 1.4492 18.37 18.37 0 0 1-0.34961 4.3008 4.51 4.51 0 0 1-0.66992 1.5391 5.28 5.28 0 0 0-0.95117 1.6211 21.85 21.85 0 0 0-1 5.8301 3.78 3.78 0 0 0 0.52148 1.9102 2.66 2.66 0 0 0 1.1387 1.0898l0.30078-0.52148c-0.38-0.71-0.38-0.71 0-1l-0.099609-0.35938c0.37-0.1 0.06-0.29969 0-0.42969a4.2 4.2 0 0 0-0.34961-0.57031c0.41-0.14 0.47914-0.23008 0.36914-0.58008a2.08 2.08 0 0 0-0.21094-0.67969 1 1 0 0 1 0.17188-1.3594c0.68-0.86 1.3781-1.6913 2.0781-2.5312a2.87 2.87 0 0 0 0.40039-0.45898 5.34 5.34 0 0 0 0.80078-2.0801c0.04-0.48 0.2207-0.99047 0.2207-1.4805 0-1.44-0.070313-2.8901-0.070313-4.3301a10.21 10.21 0 0 0-1-3.5996 1.62 1.62 0 0 0-0.27148-0.41016c-0.46-0.54-0.94914-1.0396-1.3691-1.5996a8.19 8.19 0 0 0-1.9395-1.7402 27 27 0 0 0-2.4297-1.5508 5.5 5.5 0 0 1-1.4707-1.3301 5.41 5.41 0 0 1-1.1602-2.0586 15.44 15.44 0 0 1-0.66016-2.8711c-0.02-0.41-0.11992-0.79898-0.16992-1.209a2.91 2.91 0 0 1 0.69922-2.8105 0.05 0.05 0 0 0 0-0.050781 2.23 2.23 0 0 1 0.88086-1 5.82 5.82 0 0 1 3.8496-1.5898h3.2812a4.82 4.82 0 0 1 1.1895 0.23047 2.51 2.51 0 0 1 2 2.6406 15.7 15.7 0 0 1 0 1.9395 3 3 0 0 1-0.28125 1.1094c-0.21 0.45-0.45984 0.91133-1.0898 0.86133a0.47 0.47 0 0 0-0.14844 0.058594l-2 0.75976a2 2 0 0 1-1.291 0.21094 0.4 0.4 0 0 0-0.25977 0 1.09 1.09 0 0 1-1.3398-0.83008 6.55 6.55 0 0 0 0-0.89062c-0.15-0.69 0.47977-1.0589 0.75977-1.3789 0.28-0.32 0.62945-0.12078 0.93945-0.050782a1.9 1.9 0 0 1 1.2109 0.89062 2 2 0 0 0 0.25977-0.43945 3.09 3.09 0 0 0 0-1.541 1 1 0 0 0-0.81055-0.86914 8.41 8.41 0 0 0-1.3301-0.080078 1.55 1.55 0 0 0-1 0.35938 4.73 4.73 0 0 0-1.7793 4.3691 2.61 2.61 0 0 0 1 2 3.49 3.49 0 0 1 0.49024 0.45117 4.58 4.58 0 0 0 3.5391 1.4004h0.61133c0.09 0 0.25977-0.05 0.25977 0 0.24 0.36 0.48977 0.15 0.75976 0 0.27-0.15 0.49938-0.39102 0.85938-0.29102 0.069999 0.02 0.17976-0.039843 0.25976-0.089843a3.63 3.63 0 0 0 2-1.6895 1.21 1.21 0 0 1 0.099609-0.14062c0.28-0.43 0.58031-0.85055 0.82031-1.3105a7.69 7.69 0 0 0 0.75977-2.8594c0.06-0.59 0.21094-1.1698 0.21094-1.7598a3.19 3.19 0 0 0-0.14062-0.91016 3.47 3.47 0 0 0-0.16016-0.41016l-0.88867-2.6094a3.14 3.14 0 0 0-1.0801-1.4609c-0.68-0.48-1.3703-1.0085-2.0703-1.4785a3.5 3.5 0 0 0-1.7793-0.5918c-0.92-0.069999-1.8515-0.068359-2.7715-0.068359zm15.941 0.18945a6.81 6.81 0 0 0-0.83008 0.2207c-0.51 0.18-0.62086 0.53969-0.38086 1.1797a6.07 6.07 0 0 0 1.0195-0.33008c0.48-0.22 0.53141-0.55031 0.19141-1.0703zm-32.98 1.7969c-0.034219 7.81e-4 -0.062579 0.008438-0.080079 0.023438a0.82 0.82 0 0 0-0.21094 0.45898 0.68 0.68 0 0 0 0 0.27148c0.16 0.59 0.82016 0.83 1.1602 1 0.34 0.17 0.54102 0.039061 0.54102-0.46094a2.37 2.37 0 0 0-0.25-0.4707 5.25 5.25 0 0 0-0.81055-0.66992c-0.09-0.0975-0.24695-0.15469-0.34961-0.15234zm41.109 25.293a11 11 0 0 0-1.5488 1.2891c-0.52 0.73-1.0215 1.5501-1.5215 2.3301l-0.85938 1.3301a9.2 9.2 0 0 1 0.68945-2.1387l-0.90039-0.79102a10.6 10.6 0 0 0-2.8789 3.1406c-0.5 0.86-1.1106 1.6598-1.6406 2.5098a8.41 8.41 0 0 0-1.1602 2.0703c-0.33 1.11-0.69914 2.2205-1.1191 3.3105a2.3 2.3 0 0 0 0.089844 1.6797 1 1 0 0 1 0 0.84961c-0.59 1.35-1.1405 2.68-1.7305 4a6.15 6.15 0 0 1-0.59961 1.0605c-0.43 0.7-0.94969 1.35-1.4297 2a2.83 2.83 0 0 1-0.24024 0.25 4.29 4.29 0 0 1 0.19922-1.0898 13.94 13.94 0 0 1 0.57031-1.8008c0.61-1.32 1.2512-2.68 1.9512-4a1.1 1.1 0 0 0-0.12109-1.4609c-0.32-0.32-0.20024-0.39922-0.74024-0.19922-0.54 0.2-1.0694 0.42961-1.6094 0.59961a2.59 2.59 0 0 0-1.4902 1.0801c-0.16 0.25-0.38055 0.46141-0.56055 0.69141-0.64 0.85-1.3299 1.7384-1.9199 2.5684-0.59 0.83-1.1092 1.711-1.6992 2.541-0.71 0.99-1.4997 1.9297-2.1797 2.9297-0.83 1.23-1.5896 2.4998-2.3496 3.7598a1.79 1.79 0 0 1-0.85156 0.75976c-1.82 0.81-3.639 1.6512-5.459 2.4512a5.44 5.44 0 0 1-1.1113 0.33008c-0.55 0.1-1.0984 0.17-1.6484 0.25a0.88 0.88 0 0 0-0.67969 0.41016 14.82 14.82 0 0 1-0.87109 1.209 2.34 2.34 0 0 0-0.67969 1.8594c0.02 0.13-0.13953 0.33141-0.26953 0.44141a2.28 2.28 0 0 1-0.53125 0.29883 3.06 3.06 0 0 0-1.2891 1 0.53 0.53 0 0 1-0.57031 0.2207 29.89 29.89 0 0 1-5.3008-1.3398l-0.64844-0.16992c-0.32 0.67-0.59992 1.2887-0.91992 1.8887a5.84 5.84 0 0 1-3.9199 3.0918 6.78 6.78 0 0 1-1.1016 0.1582 0.69 0.69 0 0 0-0.62891 0.51172c-0.72 1.71-1.4809 3.4091-2.2109 5.1191a6.06 6.06 0 0 1-1.5 2.0605c-0.36 0.33-0.69 0.66-1 1-0.48 0.55-0.99047 1.1002-1.4805 1.6602l-0.28906 0.34961 0.75977 0.31055c3.92 1.71 7.8402 3.3989 11.74 5.1289 1.81 0.79 3.5909 1.6405 5.3809 2.4805a0.8 0.8 0 0 0 0.94922 0l-0.26953-0.31055 0.070312-0.039063c0.31 0.15 0.63945 0.27898 0.93945 0.45898a19.43 19.43 0 0 0 4.3105 1.8809 1.36 1.36 0 0 0 0.48828 0c0.56-0.09 1.0605-0.19055 1.5605-0.31055 0.5-0.12 0.58-0.35961 0.5-0.84961a11.3 11.3 0 0 1-0.21875-1.8203 18.72 18.72 0 0 1 0.25-2.3496 16.41 16.41 0 0 1 2-5.2812 6.53 6.53 0 0 1 1.8887-2.2188 2 2 0 0 0 0.65039-0.82031 30.28 30.28 0 0 0 1.4707-3.8105c0.05-0.19 0.16867-0.42867 0.38867-0.38867s0.4707 0.12844 0.4707 0.39844v0.20117c0.31-0.31 0.17945-0.55125-0.060547-0.78125a1 1 0 0 1-0.29883-1.1602 1.76 1.76 0 0 0 0-0.2793c-0.69 0.33-0.92086-0.34992-1.3809-0.41992 0.12-0.62 0.78109-0.36922 1.1211-0.69922l-0.24024-0.54102 0.5293-0.25976a11 11 0 0 0 2.6699-1.5703 16.13 16.13 0 0 1 2-1.4199c1.64-1.06 3.33-2 5-3a7 7 0 0 1 2.1504-0.83008c0.58-0.12 1.1588-0.26969 1.7188-0.42969a1.64 1.64 0 0 0 0.62109-0.33984c0.4-0.35 0.77016-0.73914 1.1602-1.1191a1.49 1.49 0 0 0 0.42969-0.75 8.9 8.9 0 0 1 0.53906-1.6816c0.69-1.44 1.4406-2.8495 2.1406-4.2695 1.12-2.29 2.3301-4.5589 3.3301-6.8789 0.79-1.72 1.38-3.5208 2-5.3008a25.49 25.49 0 0 1 2.9102-5.7793 1.88 1.88 0 0 0 0.30078-1.3613c-0.04-0.29 0.00914-0.57844-0.38086-0.64844-0.39-0.07-0.76992-0.35016-1.1699 0.089843-0.76 0.83-1.5809 1.6102-2.3809 2.4102-0.12 0.11-0.2782 0.18906-0.4082 0.28906 0.52-1.35 1.129-2.5508 1.709-3.8008 0.58-1.25 1.3096-2.4285 1.8496-3.7285-0.4-0.18-0.73031-0.3407-1.0703-0.4707a0.4 0.4 0 0 0-0.35938 0zm-22.23 23.01-0.5293 0.25a33.68 33.68 0 0 1-4.2598 1.9297c-1 0.35-2 0.76039-3 1.1504a2 2 0 0 0-0.59961 0.38086c-0.81 0.75-1.6102 1.5191-2.4102 2.2891a1.89 1.89 0 0 0-0.36133 0.48047c-0.32 0.65-0.66 1.33-1 2-0.06 0.13-0.099688 0.25898-0.17969 0.45898 0.66-0.13 1.2305-0.27961 1.8105-0.34961a4.69 4.69 0 0 0 1.9297-0.78906 16.07 16.07 0 0 1 2.0605-1.1699c0.92-0.44 1.8691-0.81047 2.7891-1.2305a1.23 1.23 0 0 0 0.54102-0.43945c1.12-1.61 2.2105-3.2313 3.3105-4.8613l-0.10156-0.099609z"/>
</svg>
