<svg width="100" height="100" version="1.1" viewBox="0 0 100 100" xml:space="preserve" xmlns="http://www.w3.org/2000/svg"><path d="m46.176 96.671c-1.5453-0.55027-2.1684-1.2713-2.1684-2.5091 0-0.73124-0.77126-1.5248-4.4113-4.539-2.4262-2.0091-11.902-9.8437-21.058-17.41-9.1555-7.5666-17.072-14.164-17.592-14.661l-0.94599-0.90317 0.69833-1.3688c0.92433-1.8118 2.6237-3.7178 3.3149-3.7178 0.30475 0 1.1053 0.37454 1.7789 0.83231 0.67368 0.45777 1.2961 0.83232 1.3832 0.83232 0.087069 0 0.33047-0.52164 0.54088-1.1592s1.0597-1.8559 1.8873-2.7074l1.5047-1.5482 0.71874 1.4391c0.39531 0.7915 1.5035 2.272 2.4626 3.29l1.7439 1.851-0.51512-1.4982c-0.79957-2.3255-1.1831-4.7119-0.96698-6.0171 0.1785-1.078 0.35926-1.247 1.9255-1.8008 0.9507-0.33614 1.8954-0.67044 2.0993-0.74287 0.24877-0.08837 0.42969 0.94241 0.54982 3.1325 0.34891 6.3611 3.472 12.729 8.8719 18.09 2.5068 2.4886 5.2563 4.4323 13.441 9.5014 2.3411 1.4499 5.225 3.5104 6.4089 4.5788l2.1524 1.9426 2.1524-1.9426c1.1838-1.0684 4.0678-3.1289 6.4089-4.5788 8.1845-5.0691 10.934-7.0128 13.441-9.5014 5.3932-5.3542 8.523-11.73 8.871-18.072 0.09799-1.7853 0.22963-3.246 0.29252-3.246 0.44802 0 4.7804 1.8098 5.7148 2.3873l1.156 0.71443-0.16651 2.0744c-0.09661 1.2036-0.52551 2.8586-1.0217 3.9424-0.47036 1.0274-0.76527 1.868-0.65535 1.868 0.52218 0 2.4804-1.815 3.592-3.3293 1.3791-1.8787 1.8335-1.8436 2.5057 0.19316 0.20668 0.62623 0.44702 1.1386 0.53408 1.1386s0.7095-0.37454 1.3832-0.83232c0.67368-0.45777 1.4742-0.83231 1.779-0.83231 0.69112 0 2.3905 1.906 3.3149 3.7178l0.69833 1.3688-0.94598 0.90317c-0.52029 0.49675-8.4369 7.094-17.592 14.661-9.1555 7.5666-18.631 15.401-21.058 17.41-3.7753 3.1263-4.4113 3.7898-4.4113 4.6027 0 1.9476-2.113 2.953-6.1592 2.9309-1.2818-7e-3 -2.9278-0.22545-3.6578-0.4854zm5.4889-29.538v-9.8728l2.7342-4.3608-1.6916-1.9526c-2.6107-3.0135-2.2878-2.9869-4.8555-0.39946l-2.2741 2.2916 2.7577 4.3665v9.663c0 5.3147-0.11941 9.663-0.26536 9.663s-0.82939-0.57761-1.5188-1.2836c-1.2046-1.2336-1.265-1.4064-1.5519-4.4392-0.6893-7.2857-2.7071-12.061-7.126-16.864l-1.0239-1.113 1.1652-0.88211c2.233-1.6904 5.7439-5.229 7.1562-7.2127 1.5717-2.2076 3.51-5.9327 4.1576-7.9902 0.48482-1.5404 1.0045-2.2519 1.0045-1.3751 0 1.0578 2.0356 5.5096 3.6503 7.983 1.9171 2.9368 4.9731 6.2572 7.4026 8.0433l1.8007 1.3238-1.9627 2.3332c-3.6731 4.3665-6.2136 11.166-6.2255 16.662-0.0043 1.9694-0.03804 2.0432-1.669 3.6497l-1.6646 1.6396zm-14.319-0.99928c-2.7467-1.7904-7.3172-6.1569-9.154-8.7455-3.8752-5.4615-5.2845-11.23-3.9889-16.327 1.67-6.5697 5.6544-11.103 16.113-18.334 6.6781-4.6171 10.192-8.7927 10.583-12.574 0.23816-2.3076-0.27172-3.7742-1.9913-5.7277l-1.3923-1.5817 1.8049 0.21376c3.6715 0.43484 7.2404 3.0837 8.7539 6.4973 0.94641 2.1345 1.1479 5.7459 0.45376 8.1336-0.73388 2.5244-3.4174 6.4359-6.1053 8.8988-1.2189 1.1169-4.2817 3.6104-6.8062 5.5412-9.6639 7.391-12.847 12.571-12.122 19.726 0.51081 5.0438 1.9819 8.644 6.1045 14.939 0.70973 1.0837 0.18805 0.93094-2.2522-0.65964zm21.21 0.99257c0.14645-0.22889 0.9923-1.5134 1.8797-2.8544 4.5571-6.887 6.1014-13.975 4.2433-19.477-1.1261-3.3343-3.5618-6.7156-7.5813-10.525-1.9441-1.8424-3.6756-3.3497-3.8477-3.3497s0.87245-1.1611 2.3212-2.5802c1.4487-1.4191 3.0082-3.0934 3.4655-3.7207l0.83149-1.1405 1.9088 1.0921c13.654 7.8123 18.019 19.428 11.487 30.567-1.7695 3.0171-7.5616 8.5829-11.09 10.656-2.9261 1.7197-4.1557 2.1723-3.6179 1.3317zm-20.6-48.441c-0.20591-0.50355-0.44052-1.8144-0.52135-2.9131-0.26157-3.5551 1.709-7.2079 4.5272-8.3919 1.3472-0.56597 1.5011-0.4624 1.0553 0.71005-0.60943 1.6029-0.40175 3.9015 0.49409 5.4685 0.45557 0.7969 0.82831 1.5004 0.82831 1.5633 0 0.18076-5.565 4.4786-5.7991 4.4786-0.11555 0-0.37856-0.412-0.58447-0.91555z" stroke-width=".99878"/></svg>