<?xml version="1.0" encoding="UTF-8" standalone="no"?>
<svg
   xmlns:dc="http://purl.org/dc/elements/1.1/"
   xmlns:cc="http://creativecommons.org/ns#"
   xmlns:rdf="http://www.w3.org/1999/02/22-rdf-syntax-ns#"
   xmlns:svg="http://www.w3.org/2000/svg"
   xmlns="http://www.w3.org/2000/svg"
   xmlns:sodipodi="http://sodipodi.sourceforge.net/DTD/sodipodi-0.dtd"
   xmlns:inkscape="http://www.inkscape.org/namespaces/inkscape"
   width="88mm"
   height="100mm"
   viewBox="0 0 88 100"
   version="1.1"
   id="svg8"
   inkscape:version="1.0.2-2 (e86c870879, 2021-01-15)"
   sodipodi:docname="acid.svg">
  <defs
     id="defs2" />
  <sodipodi:namedview
     id="base"
     pagecolor="#ffffff"
     bordercolor="#666666"
     borderopacity="1.0"
     inkscape:pageopacity="0.0"
     inkscape:pageshadow="2"
     inkscape:zoom="0.98994949"
     inkscape:cx="13.988411"
     inkscape:cy="174.42737"
     inkscape:document-units="mm"
     inkscape:current-layer="layer1"
     showgrid="false"
     inkscape:window-width="1920"
     inkscape:window-height="1001"
     inkscape:window-x="-9"
     inkscape:window-y="-9"
     inkscape:window-maximized="1"
     inkscape:document-rotation="0" />
  <metadata
     id="metadata5">
    <rdf:RDF>
      <cc:Work
         rdf:about="">
        <dc:format>image/svg+xml</dc:format>
        <dc:type
           rdf:resource="http://purl.org/dc/dcmitype/StillImage" />
        <dc:title></dc:title>
      </cc:Work>
    </rdf:RDF>
  </metadata>
  <g
     inkscape:label="Layer 1"
     inkscape:groupmode="layer"
     id="layer1"
     transform="translate(0,-197)">
    <path
       style="fill:#000000;stroke-width:0.43802324"
       d="m 5.0395774,295.73259 c -3.2085054,-1.70241 -5.14201598,-5.42884 -4.53283229,-8.73607 0.24898874,-1.35174 2.78376699,-6.33615 14.41747989,-28.35064 1.020599,-1.93128 2.440947,-4.59776 3.156329,-5.92552 5.584295,-10.36449 8.483596,-16.40508 9.067112,-18.89102 0.502859,-2.14231 0.667237,-5.54637 0.672117,-13.91878 l 0.0064,-11.08291 h 3.09871 3.098708 l -0.180568,13.05808 c -0.163552,11.82741 -0.265148,13.2856 -1.077992,15.47218 -0.83245,2.23933 -4.962162,10.4902 -7.414573,14.8138 l -1.058107,1.86544 h 19.700144 19.700101 l -0.728473,-1.42652 c -0.400659,-0.78459 -2.103976,-3.99064 -3.785165,-7.12459 -4.985691,-9.29399 -4.813623,-8.48548 -5.022632,-23.60031 l -0.18057,-13.05808 h 3.098712 3.098708 l 0.0079,10.86344 c 0.0049,7.83151 0.185951,11.70883 0.646655,13.89246 0.525392,2.49021 2.927347,7.37038 13.503293,27.43527 7.075324,13.42346 12.996532,25.11446 13.15825,25.98004 0.639552,3.42319 -1.455118,7.26994 -4.78597,8.78918 -1.670073,0.76175 -3.795902,0.80523 -38.921859,0.79601 -35.7699626,-0.009 -37.21444,-0.0412 -38.7415884,-0.85146 z M 48.480217,291.8696 c 1.027339,-0.88597 0.966248,-2.51616 -0.135762,-3.62271 -1.172625,-1.17748 -2.920117,-0.96337 -3.995285,0.48954 -0.671577,0.90751 -0.743553,1.3492 -0.377434,2.31614 0.743736,1.96426 2.755473,2.32883 4.508481,0.81703 z M 36.577416,280.5877 c 1.509802,-0.78398 2.176855,-1.88706 2.176855,-3.59981 0,-2.69374 -2.826849,-4.64391 -5.262862,-3.63071 -3.403629,1.41566 -3.571009,5.81438 -0.276014,7.2536 1.764214,0.77059 1.834467,0.77012 3.362021,-0.0231 z m 20.015848,-10.3215 c 2.00333,-1.22644 2.947908,-3.59112 2.300804,-5.75989 -0.870255,-2.91665 -3.641748,-4.38487 -6.598198,-3.49544 -4.223575,1.27065 -4.662812,7.48424 -0.668967,9.46346 1.81988,0.90187 3.251216,0.84189 4.966361,-0.20813 z M 25.359568,206.64393 c -1.549824,-0.63996 -2.341657,-2.21488 -2.341657,-4.65746 0,-1.85292 0.206151,-2.46358 1.152411,-3.41376 l 1.15241,-1.15717 h 18.321186 c 22.023618,0 21.337624,-0.15559 21.337624,4.83961 0,1.62305 -0.252624,2.42926 -1.054636,3.3658 l -1.054626,1.23151 -18.287983,0.0892 c -10.058386,0.049 -18.709516,-0.0849 -19.224729,-0.29767 z"
       id="path865"
       inkscape:connector-curvature="0" />
  </g>
</svg>
