<?xml version="1.0" encoding="UTF-8" standalone="no"?>
<svg
   xmlns:dc="http://purl.org/dc/elements/1.1/"
   xmlns:cc="http://creativecommons.org/ns#"
   xmlns:rdf="http://www.w3.org/1999/02/22-rdf-syntax-ns#"
   xmlns:svg="http://www.w3.org/2000/svg"
   xmlns="http://www.w3.org/2000/svg"
   xmlns:sodipodi="http://sodipodi.sourceforge.net/DTD/sodipodi-0.dtd"
   xmlns:inkscape="http://www.inkscape.org/namespaces/inkscape"
   width="110mm"
   height="100mm"
   viewBox="0 0 110 100"
   version="1.1"
   id="svg8"
   inkscape:version="1.0.2-2 (e86c870879, 2021-01-15)"
   sodipodi:docname="acid.svg">
  <defs
     id="defs2" />
  <sodipodi:namedview
     id="base"
     pagecolor="#ffffff"
     bordercolor="#666666"
     borderopacity="1.0"
     inkscape:pageopacity="0.0"
     inkscape:pageshadow="2"
     inkscape:zoom="0.98994949"
     inkscape:cx="13.988411"
     inkscape:cy="174.42737"
     inkscape:document-units="mm"
     inkscape:current-layer="layer1"
     showgrid="false"
     inkscape:window-width="1920"
     inkscape:window-height="1001"
     inkscape:window-x="-9"
     inkscape:window-y="-9"
     inkscape:window-maximized="1"
     inkscape:document-rotation="0" />
  <metadata
     id="metadata5">
    <rdf:RDF>
      <cc:Work
         rdf:about="">
        <dc:format>image/svg+xml</dc:format>
        <dc:type
           rdf:resource="http://purl.org/dc/dcmitype/StillImage" />
        <dc:title></dc:title>
      </cc:Work>
    </rdf:RDF>
  </metadata>
  <g
     inkscape:label="Layer 1"
     inkscape:groupmode="layer"
     id="layer1"
     transform="translate(0,-197)">
    <path
       style="fill:#000000;stroke-width:0.441689"
       d="m 15.713951,296.14046 c -3.235359,-1.71666 -5.185053,-5.47427 -4.570771,-8.80918 0.251073,-1.36306 2.807067,-6.38919 14.538151,-28.58793 1.029142,-1.94744 2.461377,-4.63624 3.182747,-5.97511 5.631035,-10.45124 8.554601,-16.54238 9.143001,-19.04913 0.507068,-2.16024 0.672823,-5.59279 0.677744,-14.03527 l 0.0065,-11.17567 h 3.124645 3.124644 l -0.18208,13.16737 c -0.164921,11.9264 -0.267367,13.39679 -1.087014,15.60167 -0.839417,2.25808 -5.003694,10.578 -7.476631,14.93779 l -1.066963,1.88105 h 19.865029 19.864986 l -0.73457,-1.43846 c -0.404012,-0.79116 -2.121586,-4.02404 -3.816846,-7.18422 -5.02742,-9.37177 -4.853912,-8.5565 -5.06467,-23.79783 l -0.182081,-13.16737 h 3.124647 3.124643 l 0.008,10.95436 c 0.0049,7.89706 0.187508,11.80683 0.652068,14.00873 0.52979,2.51106 2.951848,7.43207 13.616313,27.66489 7.134542,13.53581 13.10531,25.32466 13.268381,26.19748 0.644905,3.45185 -1.467297,7.33079 -4.826027,8.86275 -1.684052,0.76812 -3.827673,0.81197 -39.247627,0.80267 -36.069348,-0.009 -37.525916,-0.0415 -39.065846,-0.85859 z m 43.804228,-3.89532 c 1.035938,-0.89338 0.974336,-2.53722 -0.136899,-3.65303 -1.182439,-1.18733 -2.944557,-0.97143 -4.028724,0.49364 -0.677198,0.9151 -0.749776,1.36049 -0.380593,2.33552 0.749962,1.9807 2.778536,2.34832 4.546216,0.82387 z M 47.515755,280.86882 c 1.522438,-0.79055 2.195074,-1.90286 2.195074,-3.62994 0,-2.71629 -2.850509,-4.68278 -5.306911,-3.6611 -3.432116,1.42751 -3.600897,5.86304 -0.278324,7.31431 1.77898,0.77704 1.849821,0.77657 3.390161,-0.0233 z M 67.69913,270.46093 c 2.020098,-1.2367 2.972582,-3.62118 2.320062,-5.8081 -0.877539,-2.94106 -3.672229,-4.42157 -6.653424,-3.52469 -4.258925,1.28128 -4.701839,7.54688 -0.674566,9.54266 1.835112,0.90942 3.278428,0.84894 5.007928,-0.20987 z M 36.204016,206.30617 c -1.562796,-0.64531 -2.361257,-2.23342 -2.361257,-4.69644 0,-1.86843 0.207877,-2.4842 1.162057,-3.44233 l 1.162055,-1.16686 h 18.47453 c 22.207951,0 21.516215,-0.15689 21.516215,4.88012 0,1.63663 -0.254738,2.44959 -1.063463,3.39397 l -1.063453,1.24182 -18.441048,0.0899 c -10.142573,0.0494 -18.866111,-0.0856 -19.385636,-0.30016 z"
       id="path865"
       inkscape:connector-curvature="0" />
  </g>
</svg>
