<svg width="100" height="100" version="1.1" viewBox="0 0 100 100" xmlns="http://www.w3.org/2000/svg">
 <path d="m10.714 99.14c-3.2354-1.7167-5.1851-5.4743-4.5708-8.8092 0.25107-1.3631 2.8071-6.3892 14.538-28.588 1.0291-1.9474 2.4614-4.6362 3.1827-5.9751 5.631-10.451 8.5546-16.542 9.143-19.049 0.50707-2.1602 0.67282-5.5928 0.67774-14.035l0.0065-11.176h6.2493l-0.18208 13.167c-0.16492 11.926-0.26737 13.397-1.087 15.602-0.83942 2.2581-5.0037 10.578-7.4766 14.938l-1.067 1.881h39.73l-0.73457-1.4385c-0.40401-0.79116-2.1216-4.024-3.8168-7.1842-5.0274-9.3718-4.8539-8.5565-5.0647-23.798l-0.18208-13.167h6.2493l8e-3 10.954c0.0049 7.8971 0.18751 11.807 0.65207 14.009 0.52979 2.5111 2.9518 7.4321 13.616 27.665 7.1345 13.536 13.105 25.325 13.268 26.197 0.6449 3.4518-1.4673 7.3308-4.826 8.8628-1.6841 0.76812-3.8277 0.81197-39.248 0.80267-36.069-9e-3 -37.526-0.0415-39.066-0.85859zm43.804-3.8953c1.0359-0.89338 0.97434-2.5372-0.1369-3.653-1.1824-1.1873-2.9446-0.97143-4.0287 0.49364-0.6772 0.9151-0.74978 1.3605-0.38059 2.3355 0.74996 1.9807 2.7785 2.3483 4.5462 0.82387zm-12.002-11.376c1.5224-0.79055 2.1951-1.9029 2.1951-3.6299 0-2.7163-2.8505-4.6828-5.3069-3.6611-3.4321 1.4275-3.6009 5.863-0.27832 7.3143 1.779 0.77704 1.8498 0.77657 3.3902-0.0233zm20.183-10.408c2.0201-1.2367 2.9726-3.6212 2.3201-5.8081-0.87754-2.9411-3.6722-4.4216-6.6534-3.5247-4.2589 1.2813-4.7018 7.5469-0.67457 9.5427 1.8351 0.90942 3.2784 0.84894 5.0079-0.20987zm-31.495-64.155c-1.5628-0.64531-2.3613-2.2334-2.3613-4.6964 0-1.8684 0.20788-2.4842 1.1621-3.4423l1.1621-1.1669h18.475c22.208 0 21.516-0.15689 21.516 4.8801 0 1.6366-0.25474 2.4496-1.0635 3.394l-1.0635 1.2418-18.441 0.0899c-10.143 0.0494-18.866-0.0856-19.386-0.30016z"/>
</svg>
