<?xml version="1.0" encoding="UTF-8" standalone="no"?>
<svg
   xmlns:dc="http://purl.org/dc/elements/1.1/"
   xmlns:cc="http://creativecommons.org/ns#"
   xmlns:rdf="http://www.w3.org/1999/02/22-rdf-syntax-ns#"
   xmlns:svg="http://www.w3.org/2000/svg"
   xmlns="http://www.w3.org/2000/svg"
   xmlns:sodipodi="http://sodipodi.sourceforge.net/DTD/sodipodi-0.dtd"
   xmlns:inkscape="http://www.inkscape.org/namespaces/inkscape"
   version="1.1"
   id="svg1383"
   width="110mm"
   height="100mm"
   viewBox="0 0 110 100"
   sodipodi:docname="cold.svg"
   inkscape:version="1.0.2-2 (e86c870879, 2021-01-15)">
  <metadata
     id="metadata1389">
    <rdf:RDF>
      <cc:Work
         rdf:about="">
        <dc:format>image/svg+xml</dc:format>
        <dc:type
           rdf:resource="http://purl.org/dc/dcmitype/StillImage" />
        <dc:title></dc:title>
      </cc:Work>
    </rdf:RDF>
  </metadata>
  <defs
     id="defs1387" />
  <sodipodi:namedview
     pagecolor="#ffffff"
     bordercolor="#666666"
     borderopacity="1"
     objecttolerance="10"
     gridtolerance="10"
     guidetolerance="10"
     inkscape:pageopacity="0"
     inkscape:pageshadow="2"
     inkscape:window-width="1920"
     inkscape:window-height="1001"
     id="namedview1385"
     showgrid="false"
     inkscape:document-units="mm"
     units="mm"
     inkscape:zoom="1.4424978"
     inkscape:cx="197.42771"
     inkscape:cy="176.7159"
     inkscape:window-x="-9"
     inkscape:window-y="-9"
     inkscape:window-maximized="1"
     inkscape:current-layer="svg1383"
     inkscape:document-rotation="0" />
  <path
     style="fill:#000000;stroke-width:0.102078"
     d="m 53.863649,99.878429 c -0.635516,-0.204592 -1.461546,-0.989727 -1.610855,-1.531115 -0.219896,-0.797309 -0.319591,-2.930805 -0.404366,-8.653547 -0.04722,-3.187457 -0.109577,-5.819095 -0.138573,-5.848093 -0.029,-0.029 -1.420258,0.895199 -3.091689,2.053772 -6.481908,4.492998 -7.000745,4.798478 -8.118267,4.779857 -1.17407,-0.01955 -2.105825,-0.605949 -2.614325,-1.645288 -0.234852,-0.480012 -0.279704,-0.704352 -0.279704,-1.39896 0,-1.394944 0.17309,-1.597681 3.307329,-3.873775 0.870216,-0.631955 2.79949,-1.998107 4.287276,-3.035898 3.621942,-2.526443 5.927384,-4.143545 6.175725,-4.33183 0.201342,-0.152651 0.204594,-0.293428 0.236006,-10.219166 0.01751,-5.535406 -0.0055,-10.101188 -0.05104,-10.146173 -0.04559,-0.04498 -0.473342,0.136456 -0.950555,0.403199 -0.477214,0.266747 -2.130878,1.190156 -3.674808,2.052026 -8.240286,4.599972 -12.963913,7.333631 -12.963913,7.502483 0,0.07373 -0.06689,0.770575 -0.148647,1.548534 -0.08175,0.777957 -0.357783,3.917929 -0.613396,6.977708 -0.593175,7.100425 -0.637675,7.504309 -0.878936,7.977214 -0.28539,0.559409 -0.738476,1.041236 -1.345292,1.430626 -0.501635,0.321898 -0.581287,0.340543 -1.45179,0.339852 -0.75171,-5.29e-4 -0.998288,-0.04192 -1.341239,-0.224795 -0.683152,-0.364276 -1.029205,-0.714613 -1.36024,-1.377074 -0.28153,-0.563386 -0.312159,-0.718564 -0.312159,-1.581518 0,-0.526262 0.18693,-3.279487 0.415403,-6.118283 0.228469,-2.838794 0.3905,-5.186344 0.360067,-5.216779 -0.05719,-0.05719 -0.957022,0.438097 -6.338723,3.489015 -4.277251,2.424798 -5.66416,3.117303 -6.387533,3.189386 -1.230274,0.122592 -2.477163,-0.567219 -3.015982,-1.668524 -0.492051,-1.005707 -0.335275,-2.463747 0.347988,-3.236396 0.260029,-0.294048 1.789977,-1.265682 4.924705,-3.127568 5.957092,-3.538247 6.981085,-4.16124 7.017061,-4.269166 0.02046,-0.06135 -1.05697,-0.646488 -2.394268,-1.300298 -7.546427,-3.689469 -8.023237,-3.938865 -8.563661,-4.479252 -0.820605,-0.820555 -1.05241,-1.822165 -0.697947,-3.015766 0.24531,-0.826045 1.104053,-1.646579 2.019023,-1.929183 1.228339,-0.379397 1.157985,-0.407326 12.300528,4.883449 2.266452,1.076171 4.178274,1.934625 4.248491,1.90768 0.195612,-0.07506 16.152593,-9.447562 16.868224,-9.907725 0.181769,-0.116882 0.331058,-0.244372 0.331751,-0.283313 0.0034,-0.192297 -16.994393,-10.331519 -17.300964,-10.320044 -0.05614,0.0021 -1.020779,0.440201 -2.143639,0.973556 -12.025357,5.712012 -12.681885,5.998913 -13.722506,5.996686 -0.940196,-0.0021 -1.994003,-0.733941 -2.478301,-1.721332 -0.348027,-0.709554 -0.385249,-1.98674 -0.07649,-2.62455 0.441611,-0.912244 0.915057,-1.181658 9.182873,-5.225521 1.150929,-0.56293 2.184469,-1.096984 2.296754,-1.186788 0.176089,-0.140828 0.183105,-0.17706 0.05104,-0.263523 -0.08422,-0.05513 -1.623039,-0.971039 -3.419615,-2.035344 -1.796573,-1.064308 -4.296835,-2.546501 -5.556136,-3.293766 -1.2593,-0.747266 -2.45957,-1.525392 -2.667264,-1.729171 -0.644652,-0.6325 -0.915348,-2.007185 -0.614643,-3.121363 0.389847,-1.444471 2.155553,-2.313326 3.694627,-1.818023 0.758639,0.244145 2.352843,1.089441 6.878745,3.647319 5.680083,3.210182 5.257151,2.987406 5.256219,2.768696 -5.29e-4,-0.103082 -0.16093,-2.208562 -0.356645,-4.678843 -0.195718,-2.470281 -0.385984,-5.186171 -0.422814,-6.035311 -0.06316,-1.456231 -0.05422,-1.570226 0.157569,-2.007716 0.282261,-0.58307 0.985849,-1.237903 1.674646,-1.558599 1.559489,-0.726082 3.604072,0.227407 4.050012,1.888717 0.124597,0.464176 0.415401,3.41766 0.869979,8.835765 0.598388,7.132084 0.632117,7.423211 0.884492,7.633835 0.231981,0.193606 5.584322,3.254372 11.160338,6.382107 5.365549,3.009678 6.104025,3.40224 6.177259,3.283744 0.07013,-0.113472 0.203282,-11.353684 0.201303,-16.993452 l -0.0011,-3.266489 -3.898781,-2.70506 c -8.929708,-6.195575 -9.590758,-6.685857 -9.958923,-7.38625 -0.240128,-0.456812 -0.275973,-0.643753 -0.276791,-1.443474 -7.94e-4,-0.830703 0.02839,-0.971698 0.305295,-1.47202 0.760265,-1.3736872 2.619894,-1.9490435 3.982637,-1.2322002 0.510392,0.2684798 3.707144,2.4299462 8.368806,5.6585172 l 1.429095,0.989761 0.06463,-0.645019 c 0.03554,-0.35476 0.07201,-1.954165 0.08104,-3.554233 0.02426,-4.3006298 0.178578,-9.0614018 0.313433,-9.6697222 0.152146,-0.686325 0.811306,-1.44120555 1.59197,-1.823148 0.505344,-0.24723988 0.63981,-0.26921777 1.349507,-0.22057426 0.939121,0.06436862 1.384852,0.23395828 1.945014,0.74003311 0.706947,0.63867985 0.829139,0.92663175 0.932414,2.19727615 0.0508,0.624953 0.124772,3.7969129 0.164391,7.0488002 0.03962,3.251887 0.107815,5.912522 0.151543,5.912522 0.04373,0 1.28815,-0.833746 2.765389,-1.85277 3.702799,-2.55426 5.825748,-3.966339 6.888316,-4.5817685 0.900729,-0.5216959 0.902097,-0.5220899 1.670963,-0.4815285 0.60429,0.03188 0.885326,0.1036371 1.309003,0.3342307 1.351712,0.7356913 1.961812,2.4955293 1.34991,3.8938363 -0.186467,0.42611 -0.393936,0.655243 -1.079853,1.192596 -1.228042,0.96206 -5.310763,3.864097 -9.136746,6.494491 -1.824643,1.254456 -3.420891,2.373417 -3.547211,2.48658 -0.228714,0.204889 -0.229675,0.218848 -0.229675,3.335522 0,5.984372 0.135986,16.935736 0.21182,17.058436 0.08549,0.13833 1.017797,-0.364117 7.597149,-4.094348 9.480749,-5.375206 9.764271,-5.543272 9.905146,-5.871659 0.180152,-0.419936 0.400056,-2.376556 0.762813,-6.787147 0.82001,-9.970172 0.811255,-9.913084 1.634744,-10.657055 1.336825,-1.207733 2.917268,-1.247329 4.272431,-0.10704 0.177532,0.149385 0.448206,0.484957 0.601498,0.745719 0.274288,0.466583 0.278479,0.500041 0.264097,2.107354 -0.008,0.898284 -0.134623,3.089965 -0.281303,4.870402 -0.319796,3.881743 -0.430228,6.000876 -0.312719,6.000876 0.128725,0 2.728721,-1.42371 6.580206,-3.603205 1.880784,-1.064308 3.878962,-2.162598 4.440391,-2.440645 1.020445,-0.505372 1.021069,-0.505526 1.895571,-0.466774 1.017281,0.04508 1.566561,0.300606 2.175547,1.012071 0.666526,0.77868 0.919436,2.192796 0.547794,3.062934 -0.388335,0.909222 -1.0296,1.358929 -6.81359,4.778218 -3.788554,2.239664 -5.330454,3.173752 -5.506371,3.335785 -0.124753,0.114911 0.179622,0.293775 1.990523,1.169712 1.175788,0.568735 3.561785,1.734781 5.302218,2.591218 4.219412,2.076305 4.439863,2.281767 4.438823,4.137025 -2.65e-4,0.587516 -0.05582,0.884293 -0.238604,1.275969 -0.437144,0.936742 -1.506955,1.677686 -2.428624,1.682041 -0.999128,0.0047 -2.282416,-0.520737 -8.9681,-3.672117 -4.673314,-2.202826 -6.76846,-3.164846 -6.892582,-3.164846 -0.213939,0 -3.924545,2.142675 -11.277311,6.51205 -4.519654,2.685796 -6.009529,3.591983 -6.072106,3.693231 -0.06327,0.102383 10.717202,6.558955 16.338314,9.785236 l 0.926064,0.531524 5.249658,-2.461466 c 9.609115,-4.505537 9.878577,-4.62189 10.506674,-4.536752 0.703382,0.09534 1.668723,0.609026 2.130598,1.133745 0.994022,1.129262 0.978652,2.970598 -0.03309,3.964725 -0.510085,0.501208 -2.275081,1.420709 -7.349591,3.828883 -2.01843,0.957871 -3.709849,1.781559 -3.758707,1.830417 -0.105444,0.105442 0.963894,0.770647 5.839826,3.632785 5.544277,3.254449 5.980442,3.554285 6.390984,4.393406 0.21935,0.448328 0.269126,0.696169 0.272,1.354296 0.0055,1.258213 -0.503845,2.177156 -1.501496,2.708995 -0.336926,0.179609 -0.586777,0.218199 -1.429092,0.220728 -0.962708,0.0029 -1.064334,-0.01767 -1.786364,-0.3616 -0.421071,-0.200565 -2.786733,-1.513806 -5.257019,-2.918312 -5.649148,-3.211875 -5.870302,-3.334253 -5.925523,-3.279029 -0.025,0.025 0.04535,1.167188 0.156363,2.538158 0.357315,4.412581 0.505071,6.505975 0.57553,8.154043 0.06542,1.530221 0.05744,1.636067 -0.156626,2.078279 -0.708596,1.463754 -2.324352,2.150371 -3.844106,1.633556 C 78.778398,83.915466 77.82548,82.98201 77.670659,82.40706 77.500844,81.776413 77.296245,79.812127 76.795161,74.001774 76.32086,68.501947 76.098766,66.443258 75.932595,66.00619 75.821911,65.715072 74.71699,65.062101 65.667088,59.939591 c -7.11055,-4.024778 -7.157636,-4.04994 -7.229428,-3.862851 -0.02877,0.07498 -0.08594,4.614442 -0.127023,10.087679 l -0.07471,9.951344 0.551159,0.408678 c 0.303138,0.224774 2.135924,1.502601 4.072855,2.839617 5.869537,4.051599 8.759669,6.147983 9.074007,6.581907 0.820974,1.133325 0.630781,2.948586 -0.413779,3.94919 -0.425286,0.407389 -1.157645,0.736793 -1.809835,0.814035 -0.96174,0.113903 -1.332276,-0.06021 -4.055779,-1.905796 -6.012958,-4.074689 -7.295655,-4.924499 -7.350384,-4.869767 -0.09953,0.09952 -0.232029,4.561824 -0.241589,8.135908 -0.01098,4.105682 -0.112352,5.956673 -0.351546,6.419223 -0.236631,0.457591 -0.856616,1.054721 -1.326707,1.277792 -0.536418,0.25455 -1.890824,0.31466 -2.520718,0.111879 z"
     id="path1936"
     inkscape:connector-curvature="0" />
</svg>
