<?xml version="1.0" encoding="UTF-8" standalone="no"?>
<svg
   xmlns:dc="http://purl.org/dc/elements/1.1/"
   xmlns:cc="http://creativecommons.org/ns#"
   xmlns:rdf="http://www.w3.org/1999/02/22-rdf-syntax-ns#"
   xmlns:svg="http://www.w3.org/2000/svg"
   xmlns="http://www.w3.org/2000/svg"
   xmlns:sodipodi="http://sodipodi.sourceforge.net/DTD/sodipodi-0.dtd"
   xmlns:inkscape="http://www.inkscape.org/namespaces/inkscape"
   version="1.1"
   id="svg1383"
   width="88mm"
   height="100mm"
   viewBox="0 0 87.999998 100"
   sodipodi:docname="cold.svg"
   inkscape:version="1.0.2-2 (e86c870879, 2021-01-15)">
  <metadata
     id="metadata1389">
    <rdf:RDF>
      <cc:Work
         rdf:about="">
        <dc:format>image/svg+xml</dc:format>
        <dc:type
           rdf:resource="http://purl.org/dc/dcmitype/StillImage" />
        <dc:title></dc:title>
      </cc:Work>
    </rdf:RDF>
  </metadata>
  <defs
     id="defs1387" />
  <sodipodi:namedview
     pagecolor="#ffffff"
     bordercolor="#666666"
     borderopacity="1"
     objecttolerance="10"
     gridtolerance="10"
     guidetolerance="10"
     inkscape:pageopacity="0"
     inkscape:pageshadow="2"
     inkscape:window-width="1920"
     inkscape:window-height="1001"
     id="namedview1385"
     showgrid="false"
     inkscape:document-units="mm"
     units="mm"
     inkscape:zoom="1.02"
     inkscape:cx="197.42771"
     inkscape:cy="157.10806"
     inkscape:window-x="-9"
     inkscape:window-y="-9"
     inkscape:window-maximized="1"
     inkscape:current-layer="svg1383"
     inkscape:document-rotation="0" />
  <path
     style="fill:#000000;stroke-width:0.102078"
     d="m 42.863631,99.878429 c -0.635516,-0.204592 -1.461545,-0.989727 -1.610854,-1.531115 -0.219896,-0.797309 -0.319591,-2.930805 -0.404366,-8.653547 -0.04722,-3.187457 -0.109577,-5.819095 -0.138573,-5.848093 -0.029,-0.029 -1.420257,0.895199 -3.091688,2.053772 -6.481905,4.492998 -7.000742,4.798478 -8.118263,4.779857 -1.17407,-0.01955 -2.105824,-0.605949 -2.614324,-1.645288 -0.234852,-0.480012 -0.279704,-0.704352 -0.279704,-1.39896 0,-1.394944 0.17309,-1.597681 3.307328,-3.873775 0.870215,-0.631955 2.799488,-1.998107 4.287274,-3.035898 3.62194,-2.526443 5.927381,-4.143545 6.175722,-4.33183 0.201342,-0.152651 0.204594,-0.293428 0.236006,-10.219166 0.01751,-5.535406 -0.0055,-10.101188 -0.05104,-10.146173 -0.04559,-0.04498 -0.473342,0.136456 -0.950555,0.403199 -0.477213,0.266747 -2.130877,1.190156 -3.674806,2.052026 -8.240283,4.599972 -12.963908,7.333631 -12.963908,7.502483 0,0.07373 -0.06689,0.770575 -0.148646,1.548534 -0.08175,0.777957 -0.357783,3.917929 -0.613396,6.977708 -0.593175,7.100425 -0.637675,7.504309 -0.878936,7.977214 -0.28539,0.559409 -0.738476,1.041236 -1.345291,1.430626 -0.501635,0.321898 -0.581287,0.340543 -1.45179,0.339852 -0.751709,-5.29e-4 -0.998287,-0.04192 -1.341238,-0.224795 -0.683152,-0.364276 -1.029205,-0.714613 -1.36024,-1.377074 -0.281529,-0.563386 -0.312158,-0.718564 -0.312158,-1.581518 0,-0.526262 0.18693,-3.279487 0.415402,-6.118283 0.228469,-2.838794 0.3905,-5.186344 0.360067,-5.216779 -0.05719,-0.05719 -0.957021,0.438097 -6.3387202,3.489015 -4.2772486,2.424798 -5.6641574,3.117303 -6.38753,3.189386 C 2.3391299,76.542399 1.0922421,75.852588 0.55342292,74.751283 0.06137254,73.745576 0.21814769,72.287536 0.90141059,71.514887 1.1614399,71.220839 2.6913869,70.249205 5.8261138,68.387319 c 5.9570892,-3.538247 6.9810822,-4.16124 7.0170582,-4.269166 0.02046,-0.06135 -1.05697,-0.646488 -2.394267,-1.300298 C 2.9024807,59.128386 2.4256706,58.87899 1.8852475,58.338603 1.0646423,57.518048 0.83283821,56.516438 1.1873002,55.322837 c 0.2453103,-0.826045 1.1040533,-1.646579 2.0190224,-1.929183 1.228339,-0.379397 1.1579844,-0.407326 12.3005234,4.883449 2.266451,1.076171 4.178272,1.934625 4.248489,1.90768 0.195612,-0.07506 16.152586,-9.447562 16.868217,-9.907725 0.181769,-0.116882 0.331058,-0.244372 0.331751,-0.283313 0.0034,-0.192297 -16.994386,-10.331519 -17.300957,-10.320044 -0.05614,0.0021 -1.020779,0.440201 -2.143638,0.973556 C 5.4853556,46.359269 4.828828,46.64617 3.7882078,46.643943 2.8480123,46.641826 1.7942054,45.910002 1.3099076,44.922611 0.96188026,44.213057 0.92465841,42.935871 1.2334179,42.298061 1.6750281,41.385817 2.148474,41.116403 10.416287,37.07254 c 1.150928,-0.56293 2.184468,-1.096984 2.296753,-1.186788 0.176089,-0.140828 0.183105,-0.17706 0.05104,-0.263523 C 12.679865,35.567095 11.141041,34.65119 9.3444659,33.586885 7.5478938,32.522577 5.0476334,31.040384 3.7883321,30.293119 2.5290332,29.545853 1.3287634,28.767727 1.1210692,28.563948 0.476418,27.931448 0.20572201,26.556763 0.50642731,25.442585 0.89627418,23.998114 2.6619792,23.129259 4.2010525,23.624562 c 0.7586385,0.244145 2.3528419,1.089441 6.8787415,3.647319 5.680081,3.210182 5.257149,2.987406 5.256217,2.768696 -5.29e-4,-0.103082 -0.16093,-2.208562 -0.356645,-4.678843 -0.195718,-2.470281 -0.385983,-5.186171 -0.422813,-6.035311 -0.06316,-1.456231 -0.05422,-1.570226 0.157569,-2.007716 0.28226,-0.58307 0.985848,-1.237903 1.674645,-1.558599 1.559488,-0.726082 3.60407,0.227407 4.05001,1.888717 0.124597,0.464176 0.415401,3.41766 0.869979,8.835765 0.598387,7.132084 0.632116,7.423211 0.884491,7.633835 0.231981,0.193606 5.58432,3.254372 11.160334,6.382107 5.365546,3.009678 6.104022,3.40224 6.177256,3.283744 0.07013,-0.113472 0.203282,-11.353684 0.201303,-16.993452 l -0.0011,-3.266489 -3.898779,-2.70506 c -8.929705,-6.195575 -9.590754,-6.685857 -9.958919,-7.38625 -0.240128,-0.456812 -0.275973,-0.643753 -0.276791,-1.443474 -7.94e-4,-0.830703 0.02839,-0.971698 0.305295,-1.47202 0.760264,-1.3736872 2.619893,-1.9490435 3.982635,-1.2322002 0.510392,0.2684798 3.707143,2.4299462 8.368803,5.6585172 l 1.429094,0.989761 0.06463,-0.645019 c 0.03554,-0.35476 0.07201,-1.954165 0.08104,-3.554233 0.02426,-4.3006298 0.178578,-9.0614018 0.313433,-9.6697222 0.152146,-0.686325 0.811305,-1.44120555 1.591969,-1.823148 0.505344,-0.24723988 0.63981,-0.26921777 1.349507,-0.22057426 0.93912,0.06436862 1.384851,0.23395828 1.945013,0.74003311 0.706946,0.63867985 0.829138,0.92663175 0.932413,2.19727615 0.0508,0.624953 0.124772,3.7969129 0.164391,7.0488002 0.03962,3.251887 0.107815,5.912522 0.151543,5.912522 0.04373,0 1.28815,-0.833746 2.765388,-1.85277 3.702798,-2.55426 5.825746,-3.966339 6.888313,-4.5817685 0.900729,-0.5216959 0.902097,-0.5220899 1.670963,-0.4815285 0.604289,0.03188 0.885325,0.1036371 1.309002,0.3342307 1.351711,0.7356913 1.961811,2.4955293 1.349909,3.8938363 -0.186467,0.42611 -0.393935,0.655243 -1.079852,1.192596 -1.228042,0.96206 -5.310761,3.864097 -9.136742,6.494491 -1.824643,1.254456 -3.42089,2.373417 -3.54721,2.48658 -0.228714,0.204889 -0.229675,0.218848 -0.229675,3.335522 0,5.984372 0.135986,16.935736 0.21182,17.058436 0.08549,0.13833 1.017797,-0.364117 7.597146,-4.094348 9.480745,-5.375206 9.764267,-5.543272 9.905142,-5.871659 0.180152,-0.419936 0.400056,-2.376556 0.762813,-6.787147 0.820009,-9.970172 0.811254,-9.913084 1.634743,-10.657055 1.336824,-1.207733 2.917267,-1.247329 4.272429,-0.10704 0.177532,0.149385 0.448206,0.484957 0.601498,0.745719 0.274288,0.466583 0.278479,0.500041 0.264097,2.107354 -0.008,0.898284 -0.134623,3.089965 -0.281303,4.870402 -0.319796,3.881743 -0.430228,6.000876 -0.312719,6.000876 0.128725,0 2.72872,-1.42371 6.580203,-3.603205 1.880783,-1.064308 3.878961,-2.162598 4.440389,-2.440645 1.020445,-0.505372 1.021069,-0.505526 1.89557,-0.466774 1.017281,0.04508 1.566561,0.300606 2.175547,1.012071 0.666525,0.77868 0.919435,2.192796 0.547793,3.062934 -0.388334,0.909222 -1.029599,1.358929 -6.813587,4.778218 -3.788552,2.239664 -5.330452,3.173752 -5.506368,3.335785 -0.124753,0.114911 0.179621,0.293775 1.990522,1.169712 1.175787,0.568735 3.561783,1.734781 5.302215,2.591218 4.219411,2.076305 4.439862,2.281767 4.438822,4.137025 -2.65e-4,0.587516 -0.05582,0.884293 -0.238604,1.275969 -0.437144,0.936742 -1.506955,1.677686 -2.428623,1.682041 -0.999128,0.0047 -2.282415,-0.520737 -8.968097,-3.672117 -4.673312,-2.202826 -6.768457,-3.164846 -6.892579,-3.164846 -0.213939,0 -3.924543,2.142675 -11.277306,6.51205 -4.519652,2.685796 -6.009526,3.591983 -6.072103,3.693231 -0.06327,0.102383 10.717197,6.558955 16.338307,9.785236 l 0.926063,0.531524 5.249656,-2.461466 c 9.609111,-4.505537 9.878573,-4.62189 10.50667,-4.536752 0.703381,0.09534 1.668722,0.609026 2.130597,1.133745 0.994021,1.129262 0.978651,2.970598 -0.03309,3.964725 -0.510085,0.501208 -2.27508,1.420709 -7.349588,3.828883 -2.018429,0.957871 -3.709847,1.781559 -3.758705,1.830417 -0.105444,0.105442 0.963893,0.770647 5.839823,3.632785 5.544275,3.254449 5.98044,3.554285 6.390981,4.393406 0.21935,0.448328 0.269126,0.696169 0.272,1.354296 0.0055,1.258213 -0.503844,2.177156 -1.501495,2.708995 -0.336926,0.179609 -0.586777,0.218199 -1.429091,0.220728 -0.962708,0.0029 -1.064334,-0.01767 -1.786364,-0.3616 -0.421071,-0.200565 -2.786732,-1.513806 -5.257016,-2.918312 -5.649146,-3.211875 -5.8703,-3.334253 -5.925521,-3.279029 -0.025,0.025 0.04535,1.167188 0.156363,2.538158 0.357315,4.412581 0.505071,6.505975 0.57553,8.154043 0.06542,1.530221 0.05744,1.636067 -0.156626,2.078279 -0.708596,1.463754 -2.324351,2.150371 -3.844105,1.633556 -0.661892,-0.225089 -1.61481,-1.158545 -1.769631,-1.733495 -0.169815,-0.630647 -0.374414,-2.594933 -0.875498,-8.405286 -0.4743,-5.499827 -0.696394,-7.558516 -0.862565,-7.995584 -0.110684,-0.291118 -1.215605,-0.944089 -10.265503,-6.066599 -7.110547,-4.024778 -7.157633,-4.04994 -7.229425,-3.862851 -0.02877,0.07498 -0.08594,4.614442 -0.127023,10.087679 l -0.07471,9.951344 0.551159,0.408678 c 0.303138,0.224774 2.135923,1.502601 4.072853,2.839617 5.869535,4.051599 8.759666,6.147983 9.074004,6.581907 0.820973,1.133325 0.63078,2.948586 -0.413779,3.94919 -0.425286,0.407389 -1.157645,0.736793 -1.809835,0.814035 -0.961739,0.113903 -1.332275,-0.06021 -4.055777,-1.905796 -6.012955,-4.074689 -7.295652,-4.924499 -7.350381,-4.869767 -0.09953,0.09952 -0.232029,4.561824 -0.241589,8.135908 -0.01098,4.105682 -0.112352,5.956673 -0.351546,6.419223 -0.23663,0.457591 -0.856615,1.054721 -1.326706,1.277792 -0.536418,0.25455 -1.890823,0.31466 -2.520717,0.111879 z"
     id="path1936"
     inkscape:connector-curvature="0" />
</svg>
