<?xml version="1.0" encoding="UTF-8" standalone="no"?>
<!-- Created with Inkscape (http://www.inkscape.org/) -->

<svg
   xmlns:dc="http://purl.org/dc/elements/1.1/"
   xmlns:cc="http://creativecommons.org/ns#"
   xmlns:rdf="http://www.w3.org/1999/02/22-rdf-syntax-ns#"
   xmlns:svg="http://www.w3.org/2000/svg"
   xmlns="http://www.w3.org/2000/svg"
   xmlns:sodipodi="http://sodipodi.sourceforge.net/DTD/sodipodi-0.dtd"
   xmlns:inkscape="http://www.inkscape.org/namespaces/inkscape"
   version="1.1"
   id="svg1383"
   width="100mm"
   height="100mm"
   viewBox="0 0 377.95277 377.95276"
   sodipodi:docname="cold-3.svg"
   inkscape:version="0.92.4 (5da689c313, 2019-01-14)">
  <metadata
     id="metadata1389">
    <rdf:RDF>
      <cc:Work
         rdf:about="">
        <dc:format>image/svg+xml</dc:format>
        <dc:type
           rdf:resource="http://purl.org/dc/dcmitype/StillImage" />
        <dc:title></dc:title>
      </cc:Work>
    </rdf:RDF>
  </metadata>
  <defs
     id="defs1387" />
  <sodipodi:namedview
     pagecolor="#ffffff"
     bordercolor="#666666"
     borderopacity="1"
     objecttolerance="10"
     gridtolerance="10"
     guidetolerance="10"
     inkscape:pageopacity="0"
     inkscape:pageshadow="2"
     inkscape:window-width="1366"
     inkscape:window-height="715"
     id="namedview1385"
     showgrid="false"
     inkscape:document-units="mm"
     units="mm"
     inkscape:zoom="1.02"
     inkscape:cx="197.42771"
     inkscape:cy="157.10806"
     inkscape:window-x="-8"
     inkscape:window-y="-8"
     inkscape:window-maximized="1"
     inkscape:current-layer="svg1383" />
  <path
     style="fill:#000000;stroke-width:0.38580611"
     d="m 184.68144,377.49329 c -2.40195,-0.77326 -5.52395,-3.7407 -6.08827,-5.78689 -0.8311,-3.01345 -1.2079,-11.07706 -1.52831,-32.70632 -0.17846,-12.04708 -0.41415,-21.99343 -0.52374,-22.10303 -0.1096,-0.10959 -5.3679,3.38343 -11.68512,7.76229 -24.49854,16.98141 -26.4595,18.13598 -30.6832,18.0656 -4.43743,-0.0739 -7.95902,-2.2902 -9.88091,-6.21841 -0.88763,-1.81422 -1.05715,-2.66212 -1.05715,-5.28741 0,-5.27223 0.6542,-6.03848 12.50014,-14.64104 3.289,-2.38849 10.58074,-7.5519 16.20387,-11.47426 13.68922,-9.54876 22.4027,-15.66064 23.34131,-16.37227 0.76098,-0.57695 0.77327,-1.10902 0.89199,-38.62362 0.0662,-20.92122 -0.0206,-38.17772 -0.1929,-38.34774 -0.1723,-0.17002 -1.78901,0.51574 -3.59265,1.5239 -1.80364,1.00818 -8.05371,4.49823 -13.88903,7.75569 -31.14438,17.38572 -48.99745,27.71766 -48.99745,28.35584 0,0.27868 -0.25282,2.91241 -0.56181,5.85273 -0.30898,2.94031 -1.35225,14.80792 -2.31835,26.37244 -2.24192,26.83625 -2.41011,28.36274 -3.32196,30.1501 -1.07864,2.1143 -2.79109,3.93538 -5.084567,5.40709 -1.895941,1.21662 -2.19699,1.28709 -5.487078,1.28448 -2.841106,-0.002 -3.773056,-0.15845 -5.069248,-0.84962 -2.581991,-1.37679 -3.889908,-2.7009 -5.141063,-5.20469 -1.064048,-2.12933 -1.17981,-2.71583 -1.17981,-5.97739 0,-1.98902 0.706508,-12.39491 1.570022,-23.12422 0.863504,-10.7293 1.475908,-19.60193 1.360886,-19.71696 -0.216169,-0.21617 -3.617088,1.6558 -23.95737,13.18683 -16.165979,9.16459 -21.407839,11.78193 -24.141846,12.05437 -4.649854,0.46334 -9.362501,-2.14382 -11.398983,-6.30623 -1.859718,-3.8011 -1.267182,-9.3118 1.315229,-12.23205 0.982788,-1.11136 6.765265,-4.78368 18.613052,-11.82073 22.514984,-13.3729 26.385194,-15.72752 26.521164,-16.13543 0.07733,-0.23188 -3.994846,-2.44342 -9.049198,-4.91451 -28.521922,-13.94445 -30.324039,-14.88705 -32.366583,-16.92946 -3.1015,-3.10131 -3.97761,-6.88692 -2.637911,-11.39817 0.927157,-3.12206 4.1728,-6.22329 7.630951,-7.2914 4.642541,-1.43394 4.376634,-1.5395 46.490169,18.45713 8.566111,4.06742 15.791893,7.31197 16.05728,7.21013 0.73932,-0.2837 61.049144,-35.70732 63.753894,-37.44652 0.687,-0.44176 1.25124,-0.92361 1.25386,-1.07079 0.013,-0.72679 -64.230751,-39.04826 -65.389443,-39.00489 -0.212197,0.008 -3.858065,1.66375 -8.101942,3.67958 -45.45015,21.58871 -47.931514,22.67306 -51.864567,22.66464 -3.553495,-0.008 -7.536387,-2.77395 -9.366804,-6.50582 -1.315379,-2.68178 -1.45606,-7.50894 -0.289095,-9.91956 1.669078,-3.44785 3.45848,-4.46611 34.706906,-19.75 4.349966,-2.12761 8.256258,-4.14608 8.680643,-4.4855 0.665533,-0.53226 0.692052,-0.6692 0.192911,-0.99599 -0.318296,-0.20838 -6.134326,-3.67007 -12.92453,-7.69264 -6.790194,-4.02258 -16.239997,-9.62457 -20.999561,-12.44888 -4.759555,-2.82431 -9.296008,-5.76526 -10.080994,-6.53545 -2.436477,-2.39055 -3.45958,-7.58621 -2.323056,-11.797276 1.473437,-5.45942 8.146968,-8.743281 13.963938,-6.871267 2.867295,0.92275 8.892631,4.117572 25.998393,13.785143 21.468022,12.13297 19.86954,11.29098 19.866018,10.46436 -0.002,-0.3896 -0.608241,-8.34732 -1.34795,-17.683814 -0.73972,-9.336495 -1.458832,-19.601278 -1.598033,-22.810626 -0.238726,-5.503864 -0.204914,-5.934712 0.595537,-7.588217 1.066809,-2.20373 3.726038,-4.678688 6.329366,-5.89077 5.894128,-2.744247 13.621683,0.859494 15.307123,7.138461 0.47092,1.754363 1.57002,12.917139 3.28811,33.395016 2.26162,26.95591 2.3891,28.05623 3.34296,28.85229 0.87678,0.73174 21.10609,12.29999 42.18079,24.12135 20.27923,11.37516 23.07032,12.85886 23.34711,12.411 0.26506,-0.42887 0.76831,-42.91156 0.76083,-64.22722 l -0.004,-12.345784 -14.73554,-10.22385 C 128.1358,55.270688 125.63735,53.417656 124.24586,50.7705 c -0.90757,-1.726533 -1.04305,-2.433083 -1.04614,-5.45565 -0.003,-3.139666 0.10731,-3.67256 1.15387,-5.56354 2.87344,-5.191889 9.90196,-7.366464 15.05248,-4.657135 1.92904,1.014727 14.01125,9.18405 31.63012,21.386523 l 5.4013,3.740829 0.24426,-2.437867 c 0.13433,-1.340825 0.27216,-7.38582 0.30629,-13.433324 0.0917,-16.254348 0.67494,-34.247817 1.18463,-36.5469809 0.57504,-2.5939842 3.06635,-5.4470761 6.01689,-6.89063817 1.90996,-0.93444994 2.41818,-1.01751598 5.1005,-0.83366649 3.54943,0.24328299 5.23408,0.88425178 7.35123,2.79697556 2.67192,2.4139081 3.13375,3.5022303 3.52408,8.304666 0.19198,2.362027 0.47158,14.350537 0.62132,26.641134 0.14975,12.290598 0.40749,22.346541 0.57276,22.346541 0.16527,0 4.8686,-3.151167 10.45186,-7.002596 13.99483,-9.653894 22.01857,-14.990886 26.03457,-17.31692 3.40433,-1.971764 3.4095,-1.973253 6.31545,-1.81995 2.28393,0.12049 3.34611,0.391699 4.94741,1.263234 5.10883,2.780567 7.41472,9.431923 5.10202,14.716863 -0.70476,1.610495 -1.48889,2.476509 -4.08133,4.507448 -4.64142,3.636133 -20.07217,14.604463 -34.53257,24.546107 -6.89629,4.741254 -12.92935,8.970397 -13.40678,9.398101 -0.86443,0.774381 -0.86806,0.82714 -0.86806,12.606696 0,22.6181 0.51396,64.00908 0.80058,64.47283 0.32312,0.52282 3.84679,-1.37619 28.71362,-15.4747 35.83274,-20.31574 36.90432,-20.95095 37.43676,-22.1921 0.68089,-1.58716 1.51202,-8.98226 2.88307,-25.65221 3.09925,-37.68254 3.06616,-37.466774 6.17856,-40.278634 5.05256,-4.564659 11.02589,-4.714313 16.14776,-0.404559 0.67099,0.564603 1.69401,1.832909 2.27338,2.818464 1.03668,1.763464 1.05252,1.88992 0.99816,7.964803 -0.0304,3.39509 -0.50881,11.67861 -1.06319,18.407819 -1.20868,14.671157 -1.62606,22.680477 -1.18193,22.680477 0.48652,0 10.31327,-5.38095 24.87006,-13.618411 7.10847,-4.022584 14.66064,-8.173601 16.78257,-9.224485 3.8568,-1.91007 3.85916,-1.910652 7.16436,-1.764185 3.84484,0.170379 5.92086,1.136146 8.22254,3.825147 2.51915,2.943044 3.47503,8.287734 2.0704,11.576444 -1.46772,3.43643 -3.8914,5.13611 -25.75214,18.05941 -14.31894,8.46487 -20.14659,11.99528 -20.81147,12.60769 -0.47151,0.43431 0.67888,1.11033 7.52323,4.42096 4.44392,2.14955 13.46186,6.55665 20.03987,9.79358 15.94738,7.84745 16.78058,8.624 16.77665,15.636 -10e-4,2.22053 -0.21099,3.34221 -0.90181,4.82256 -1.6522,3.54044 -5.69558,6.34086 -9.17905,6.35732 -3.77623,0.0179 -8.62645,-1.96814 -33.89517,-13.87887 -17.66291,-8.32564 -25.58157,-11.96162 -26.05069,-11.96162 -0.80859,0 -14.83292,8.0983 -42.62289,24.61247 -17.08215,10.15104 -22.71317,13.576 -22.94968,13.95867 -0.23914,0.38696 40.50594,24.78975 61.75108,36.98357 l 3.50008,2.00891 19.84122,-9.30318 c 36.3179,-17.0288 37.33634,-17.46856 39.71025,-17.14678 2.65845,0.36035 6.30698,2.30183 8.05265,4.28502 3.75693,4.26808 3.69884,11.22746 -0.12507,14.98479 -1.92788,1.89433 -8.59873,5.36961 -27.77797,14.47137 -7.62871,3.6203 -14.02147,6.73345 -14.20613,6.91811 -0.39853,0.39852 3.64306,2.91268 22.07177,13.73021 20.95474,12.30028 22.60324,13.43352 24.15489,16.605 0.82904,1.69447 1.01717,2.63119 1.02803,5.1186 0.0208,4.75545 -1.90429,8.22862 -5.67494,10.23872 -1.27342,0.67884 -2.21774,0.82469 -5.40129,0.83425 -3.63858,0.0109 -4.02268,-0.0668 -6.75161,-1.36668 -1.59145,-0.75804 -10.53253,-5.72147 -19.86904,-11.02984 -21.3511,-12.13937 -22.18696,-12.6019 -22.39567,-12.39318 -0.0945,0.0945 0.1714,4.41142 0.59098,9.59304 1.35048,16.67747 1.90893,24.58951 2.17523,30.81843 0.24726,5.78351 0.21711,6.18356 -0.59197,7.85491 -2.67816,5.5323 -8.78495,8.12739 -14.5289,6.17407 -2.50164,-0.85073 -6.10322,-4.37875 -6.68837,-6.55179 -0.64182,-2.38355 -1.41511,-9.80762 -3.30897,-31.76801 -1.79263,-20.78675 -2.63204,-28.56762 -3.26009,-30.21953 -0.41833,-1.10029 -4.59441,-3.56821 -38.79875,-22.92888 -26.87451,-15.21176 -27.05247,-15.30686 -27.32381,-14.59975 -0.10875,0.2834 -0.3248,17.44041 -0.48009,38.12666 l -0.28236,37.61138 2.08312,1.54461 c 1.14572,0.84954 8.07278,5.67912 15.39346,10.73241 22.18407,15.31313 33.1074,23.23647 34.29545,24.8765 3.10289,4.28343 2.38405,11.14426 -1.56389,14.92607 -1.60738,1.53974 -4.37535,2.78473 -6.84032,3.07667 -3.63492,0.4305 -5.03537,-0.22756 -15.32892,-7.20301 -22.72613,-15.4004 -27.57412,-18.61228 -27.78097,-18.40542 -0.37616,0.37615 -0.87696,17.24154 -0.91309,30.74989 -0.0415,15.51754 -0.42464,22.51341 -1.32868,24.26163 -0.89435,1.72948 -3.2376,3.98635 -5.01432,4.82945 -2.02741,0.96207 -7.14642,1.18927 -9.52712,0.42285 z"
     id="path1936"
     inkscape:connector-curvature="0" />
</svg>
