<svg width="100" height="100" version="1.1" viewBox="0 0 100 100" xmlns="http://www.w3.org/2000/svg">
 <path d="m48.864 99.878c-0.63552-0.20459-1.4615-0.98973-1.6109-1.5311-0.2199-0.79731-0.31959-2.9308-0.40437-8.6535-0.04722-3.1875-0.10958-5.8191-0.13857-5.8481-0.029-0.029-1.4203 0.8952-3.0917 2.0538-6.4819 4.493-7.0007 4.7985-8.1183 4.7799-1.1741-0.01955-2.1058-0.60595-2.6143-1.6453-0.23485-0.48001-0.2797-0.70435-0.2797-1.399 0-1.3949 0.17309-1.5977 3.3073-3.8738 0.87022-0.63196 2.7995-1.9981 4.2873-3.0359 3.6219-2.5264 5.9274-4.1435 6.1757-4.3318 0.20134-0.15265 0.20459-0.29343 0.23601-10.219 0.01751-5.5354-0.0055-10.101-0.05104-10.146-0.04559-0.04498-0.47334 0.13646-0.95056 0.4032-0.47721 0.26675-2.1309 1.1902-3.6748 2.052-8.2403 4.6-12.964 7.3336-12.964 7.5025 0 0.07373-0.06689 0.77058-0.14865 1.5485-0.08175 0.77796-0.35778 3.9179-0.6134 6.9777-0.59318 7.1004-0.63768 7.5043-0.87894 7.9772-0.28539 0.55941-0.73848 1.0412-1.3453 1.4306-0.50164 0.3219-0.58129 0.34054-1.4518 0.33985-0.75171-5.29e-4 -0.99829-0.04192-1.3412-0.2248-0.68315-0.36428-1.0292-0.71461-1.3602-1.3771-0.28153-0.56339-0.31216-0.71856-0.31216-1.5815 0-0.52626 0.18693-3.2795 0.4154-6.1183 0.22847-2.8388 0.3905-5.1863 0.36007-5.2168-0.05719-0.05719-0.95702 0.4381-6.3387 3.489-4.2773 2.4248-5.6642 3.1173-6.3875 3.1894-1.2303 0.12259-2.4772-0.56722-3.016-1.6685-0.49205-1.0057-0.33528-2.4637 0.34799-3.2364 0.26003-0.29405 1.79-1.2657 4.9247-3.1276 5.9571-3.5382 6.9811-4.1612 7.0171-4.2692 0.02046-0.06135-1.057-0.64649-2.3943-1.3003-7.5464-3.6895-8.0232-3.9389-8.5637-4.4793-0.8206-0.82056-1.0524-1.8222-0.69795-3.0158 0.24531-0.82604 1.1041-1.6466 2.019-1.9292 1.2283-0.3794 1.158-0.40733 12.301 4.8834 2.2665 1.0762 4.1783 1.9346 4.2485 1.9077 0.19561-0.07506 16.153-9.4476 16.868-9.9077 0.18177-0.11688 0.33106-0.24437 0.33175-0.28331 0.0034-0.1923-16.994-10.332-17.301-10.32-0.05614 0.0021-1.0208 0.4402-2.1436 0.97356-12.025 5.712-12.682 5.9989-13.723 5.9967-0.9402-0.0021-1.994-0.73394-2.4783-1.7213-0.34803-0.70955-0.38525-1.9867-0.07649-2.6246 0.44161-0.91224 0.91506-1.1817 9.1829-5.2255 1.1509-0.56293 2.1845-1.097 2.2968-1.1868 0.17609-0.14083 0.1831-0.17706 0.05104-0.26352-0.08422-0.05513-1.623-0.97104-3.4196-2.0353-1.7966-1.0643-4.2968-2.5465-5.5561-3.2938-1.2593-0.74727-2.4596-1.5254-2.6673-1.7292-0.64465-0.6325-0.91535-2.0072-0.61464-3.1214 0.38985-1.4445 2.1556-2.3133 3.6946-1.818 0.75864 0.24414 2.3528 1.0894 6.8787 3.6473 5.6801 3.2102 5.2572 2.9874 5.2562 2.7687-5.29e-4 -0.10308-0.16093-2.2086-0.35664-4.6788-0.19572-2.4703-0.38598-5.1862-0.42281-6.0353-0.06316-1.4562-0.05422-1.5702 0.15757-2.0077 0.28226-0.58307 0.98585-1.2379 1.6746-1.5586 1.5595-0.72608 3.6041 0.22741 4.05 1.8887 0.1246 0.46418 0.4154 3.4177 0.86998 8.8358 0.59839 7.1321 0.63212 7.4232 0.88449 7.6338 0.23198 0.19361 5.5843 3.2544 11.16 6.3821 5.3655 3.0097 6.104 3.4022 6.1773 3.2837 0.07013-0.11347 0.20328-11.354 0.2013-16.993l-0.0011-3.2665-3.8988-2.7051c-8.9297-6.1956-9.5908-6.6859-9.9589-7.3862-0.24013-0.45681-0.27597-0.64375-0.27679-1.4435-7.94e-4 -0.8307 0.02839-0.9717 0.3053-1.472 0.76026-1.3737 2.6199-1.949 3.9826-1.2322 0.51039 0.26848 3.7071 2.4299 8.3688 5.6585l1.4291 0.98976 0.06463-0.64502c0.03554-0.35476 0.07201-1.9542 0.08104-3.5542 0.02426-4.3006 0.17858-9.0614 0.31343-9.6697 0.15215-0.68632 0.81131-1.4412 1.592-1.8231 0.50534-0.24724 0.63981-0.26922 1.3495-0.22057 0.93912 0.064369 1.3849 0.23396 1.945 0.74003 0.70695 0.63868 0.82914 0.92663 0.93241 2.1973 0.0508 0.62495 0.12477 3.7969 0.16439 7.0488 0.03962 3.2519 0.10782 5.9125 0.15154 5.9125 0.04373 0 1.2882-0.83375 2.7654-1.8528 3.7028-2.5543 5.8257-3.9663 6.8883-4.5818 0.90073-0.5217 0.9021-0.52209 1.671-0.48153 0.60429 0.03188 0.88533 0.10364 1.309 0.33423 1.3517 0.73569 1.9618 2.4955 1.3499 3.8938-0.18647 0.42611-0.39394 0.65524-1.0799 1.1926-1.228 0.96206-5.3108 3.8641-9.1367 6.4945-1.8246 1.2545-3.4209 2.3734-3.5472 2.4866-0.22871 0.20489-0.22968 0.21885-0.22968 3.3355 0 5.9844 0.13599 16.936 0.21182 17.058 0.08549 0.13833 1.0178-0.36412 7.5971-4.0943 9.4807-5.3752 9.7643-5.5433 9.9051-5.8717 0.18015-0.41994 0.40006-2.3766 0.76281-6.7871 0.82001-9.9702 0.81126-9.9131 1.6347-10.657 1.3368-1.2077 2.9173-1.2473 4.2724-0.10704 0.17753 0.14938 0.44821 0.48496 0.6015 0.74572 0.27429 0.46658 0.27848 0.50004 0.2641 2.1074-8e-3 0.89828-0.13462 3.09-0.2813 4.8704-0.3198 3.8817-0.43023 6.0009-0.31272 6.0009 0.12872 0 2.7287-1.4237 6.5802-3.6032 1.8808-1.0643 3.879-2.1626 4.4404-2.4406 1.0204-0.50537 1.0211-0.50553 1.8956-0.46677 1.0173 0.04508 1.5666 0.30061 2.1755 1.0121 0.66653 0.77868 0.91944 2.1928 0.54779 3.0629-0.38834 0.90922-1.0296 1.3589-6.8136 4.7782-3.7886 2.2397-5.3305 3.1738-5.5064 3.3358-0.12475 0.11491 0.17962 0.29378 1.9905 1.1697 1.1758 0.56874 3.5618 1.7348 5.3022 2.5912 4.2194 2.0763 4.4399 2.2818 4.4388 4.137-2.65e-4 0.58752-0.05582 0.88429-0.2386 1.276-0.43714 0.93674-1.507 1.6777-2.4286 1.682-0.99913 0.0047-2.2824-0.52074-8.9681-3.6721-4.6733-2.2028-6.7685-3.1648-6.8926-3.1648-0.21394 0-3.9245 2.1427-11.277 6.512-4.5197 2.6858-6.0095 3.592-6.0721 3.6932-0.06327 0.10238 10.717 6.559 16.338 9.7852l0.92606 0.53152 5.2497-2.4615c9.6091-4.5055 9.8786-4.6219 10.507-4.5368 0.70338 0.09534 1.6687 0.60903 2.1306 1.1337 0.99402 1.1293 0.97865 2.9706-0.03309 3.9647-0.51008 0.50121-2.2751 1.4207-7.3496 3.8289-2.0184 0.95787-3.7098 1.7816-3.7587 1.8304-0.10544 0.10544 0.96389 0.77065 5.8398 3.6328 5.5443 3.2544 5.9804 3.5543 6.391 4.3934 0.21935 0.44833 0.26913 0.69617 0.272 1.3543 0.0055 1.2582-0.50384 2.1772-1.5015 2.709-0.33693 0.17961-0.58678 0.2182-1.4291 0.22073-0.96271 0.0029-1.0643-0.01767-1.7864-0.3616-0.42107-0.20056-2.7867-1.5138-5.257-2.9183-5.6491-3.2119-5.8703-3.3343-5.9255-3.279-0.025 0.025 0.04535 1.1672 0.15636 2.5382 0.35732 4.4126 0.50507 6.506 0.57553 8.154 0.06542 1.5302 0.05744 1.6361-0.15663 2.0783-0.7086 1.4638-2.3244 2.1504-3.8441 1.6336-0.66189-0.22509-1.6148-1.1585-1.7696-1.7335-0.16982-0.63065-0.37441-2.5949-0.8755-8.4053-0.4743-5.4998-0.6964-7.5585-0.86257-7.9956-0.11068-0.29112-1.2156-0.94409-10.266-6.0666-7.1106-4.0248-7.1576-4.0499-7.2294-3.8629-0.02877 0.07498-0.08594 4.6144-0.12702 10.088l-0.07471 9.9513 0.55116 0.40868c0.30314 0.22477 2.1359 1.5026 4.0729 2.8396 5.8695 4.0516 8.7597 6.148 9.074 6.5819 0.82097 1.1333 0.63078 2.9486-0.41378 3.9492-0.42529 0.40739-1.1576 0.73679-1.8098 0.81404-0.96174 0.1139-1.3323-0.06021-4.0558-1.9058-6.013-4.0747-7.2957-4.9245-7.3504-4.8698-0.09953 0.09952-0.23203 4.5618-0.24159 8.1359-0.01098 4.1057-0.11235 5.9567-0.35155 6.4192-0.23663 0.45759-0.85662 1.0547-1.3267 1.2778-0.53642 0.25455-1.8908 0.31466-2.5207 0.11188z"/>
</svg>
