<?xml version="1.0" encoding="UTF-8" standalone="no"?>
<!-- Created with Inkscape (http://www.inkscape.org/) -->

<svg
   xmlns:dc="http://purl.org/dc/elements/1.1/"
   xmlns:cc="http://creativecommons.org/ns#"
   xmlns:rdf="http://www.w3.org/1999/02/22-rdf-syntax-ns#"
   xmlns:svg="http://www.w3.org/2000/svg"
   xmlns="http://www.w3.org/2000/svg"
   xmlns:sodipodi="http://sodipodi.sourceforge.net/DTD/sodipodi-0.dtd"
   xmlns:inkscape="http://www.inkscape.org/namespaces/inkscape"
   version="1.1"
   id="svg1938"
   width="100mm"
   height="100mm"
   viewBox="0 0 377.95274 377.95276"
   sodipodi:docname="fire-3.svg"
   inkscape:version="0.92.4 (5da689c313, 2019-01-14)">
  <metadata
     id="metadata1944">
    <rdf:RDF>
      <cc:Work
         rdf:about="">
        <dc:format>image/svg+xml</dc:format>
        <dc:type
           rdf:resource="http://purl.org/dc/dcmitype/StillImage" />
        <dc:title></dc:title>
      </cc:Work>
    </rdf:RDF>
  </metadata>
  <defs
     id="defs1942" />
  <sodipodi:namedview
     pagecolor="#ffffff"
     bordercolor="#666666"
     borderopacity="1"
     objecttolerance="10"
     gridtolerance="10"
     guidetolerance="10"
     inkscape:pageopacity="0"
     inkscape:pageshadow="2"
     inkscape:window-width="1366"
     inkscape:window-height="715"
     id="namedview1940"
     showgrid="false"
     inkscape:document-units="mm"
     units="mm"
     inkscape:zoom="1.165615"
     inkscape:cx="227.99228"
     inkscape:cy="195.99424"
     inkscape:window-x="-8"
     inkscape:window-y="-8"
     inkscape:window-maximized="1"
     inkscape:current-layer="svg1938" />
  <path
     style="fill:#000000;stroke-width:0.44252869"
     d="m 151.42477,375.30464 c -19.79465,-4.48817 -29.83503,-7.93447 -44.48573,-15.26947 -30.939839,-15.4903 -49.324936,-37.78415 -53.32585,-64.66319 -0.964603,-6.48038 -0.969039,-17.9511 -0.0091,-24.35878 3.020349,-20.16784 12.042509,-40.42548 25.956143,-58.27985 2.408286,-3.0904 5.172625,-7.13766 6.142991,-8.99396 2.015374,-3.85538 4.520275,-11.03808 5.540055,-15.88593 2.753918,-13.09156 2.603697,-32.95488 -0.384245,-50.80685 -1.262482,-7.54299 -1.065533,-8.00295 2.591076,-6.05105 6.150958,3.28338 14.88482,10.63751 20.2381,17.04094 9.27185,11.09074 14.81123,23.93889 16.98073,39.38552 1.01807,7.24858 0.66291,23.23968 -0.68799,30.97688 -0.5312,3.04237 -1.2617,6.69867 -1.62333,8.12508 -0.36164,1.42642 -0.58109,2.66991 -0.48768,2.76332 0.38691,0.38691 6.33494,-9.28102 8.74084,-14.20734 3.12289,-6.39446 4.81129,-11.14907 6.45529,-18.17841 1.12915,-4.82795 1.23501,-6.0264 1.24781,-14.12607 0.0157,-9.914 -0.44513,-13.11027 -3.11344,-21.59661 -6.37646,-20.27977 -9.06063,-36.35426 -9.06659,-54.2964 -0.006,-19.132652 3.03167,-34.446508 9.92037,-50.005927 10.16409,-22.957514 28.78747,-42.963569 50.87799,-54.6553323 4.65721,-2.46491015 6.50741,-2.83935011 6.50741,-1.31695515 0,0.33634135 -1.01171,2.75665535 -2.24826,5.37847605 -9.48874,20.1186554 -13.36263,38.7702244 -12.33077,59.3684194 1.53366,30.614048 15.13516,62.150469 39.54073,91.679029 4.31896,5.22558 6.16128,7.2245 13.66317,14.82465 l 6.5521,6.63791 -0.29038,-5.75285 c -0.65143,-12.90574 2.68767,-26.02201 9.39541,-36.90603 8.53208,-13.8442 23.54298,-26.98917 39.86181,-34.9068 3.37533,-1.637653 4.20548,-1.887053 4.75721,-1.429173 0.93502,0.775993 0.84094,1.375023 -0.49103,3.126123 -3.00783,3.95435 -5.89856,12.08608 -7.30628,20.55285 -0.76623,4.60855 -0.77963,21.19694 -0.0217,26.77288 2.89752,21.31423 9.64233,43.5628 20.86115,68.81295 7.76483,17.47627 11.90054,32.29729 13.27459,47.57166 3.61264,40.15953 -16.81199,72.97869 -58.39573,93.83272 -9.98344,5.00663 -24.67522,10.85764 -26.42555,10.52397 -15.88496,8.1008 -68.84203,7.44538 -79.24408,6.24755 -0.41737,-0.0151 -4.54251,-0.88541 -9.16694,-1.93395 z"
     id="path2491"
     inkscape:connector-curvature="0"
     sodipodi:nodetypes="cssccsscsssccsccsccsssccscccscccscssccccc" />
</svg>
