<?xml version="1.0" encoding="UTF-8" standalone="no"?>
<svg
   xmlns:dc="http://purl.org/dc/elements/1.1/"
   xmlns:cc="http://creativecommons.org/ns#"
   xmlns:rdf="http://www.w3.org/1999/02/22-rdf-syntax-ns#"
   xmlns:svg="http://www.w3.org/2000/svg"
   xmlns="http://www.w3.org/2000/svg"
   xmlns:sodipodi="http://sodipodi.sourceforge.net/DTD/sodipodi-0.dtd"
   xmlns:inkscape="http://www.inkscape.org/namespaces/inkscape"
   version="1.1"
   id="svg1938"
   width="92mm"
   height="100mm"
   viewBox="0 0 92 100"
   sodipodi:docname="fire.svg"
   inkscape:version="1.0.2-2 (e86c870879, 2021-01-15)">
  <metadata
     id="metadata1944">
    <rdf:RDF>
      <cc:Work
         rdf:about="">
        <dc:format>image/svg+xml</dc:format>
        <dc:type
           rdf:resource="http://purl.org/dc/dcmitype/StillImage" />
        <dc:title></dc:title>
      </cc:Work>
    </rdf:RDF>
  </metadata>
  <defs
     id="defs1942" />
  <sodipodi:namedview
     pagecolor="#ffffff"
     bordercolor="#666666"
     borderopacity="1"
     objecttolerance="10"
     gridtolerance="10"
     guidetolerance="10"
     inkscape:pageopacity="0"
     inkscape:pageshadow="2"
     inkscape:window-width="1920"
     inkscape:window-height="1001"
     id="namedview1940"
     showgrid="false"
     inkscape:document-units="mm"
     units="mm"
     inkscape:zoom="1.165615"
     inkscape:cx="227.99228"
     inkscape:cy="195.99424"
     inkscape:window-x="-9"
     inkscape:window-y="-9"
     inkscape:window-maximized="1"
     inkscape:current-layer="svg1938"
     inkscape:document-rotation="0" />
  <path
     style="fill:#000000;stroke-width:0.117064"
     d="M 36.066482,99.280352 C 30.830149,98.093084 28.17414,97.181426 24.298551,95.241078 16.113951,91.143387 11.250492,85.245935 10.192119,78.135548 9.9369504,76.421277 9.9357764,73.386896 10.189719,71.691855 10.9887,66.356802 13.375356,60.997993 17.055968,56.274928 c 0.63707,-0.817512 1.368328,-1.888145 1.625022,-2.379197 0.533132,-1.019874 1.19576,-2.919933 1.465525,-4.202348 0.728502,-3.463146 0.688764,-8.717643 -0.101645,-13.440074 -0.333967,-1.995367 -0.281868,-2.117042 0.685425,-1.6007 1.627129,0.868561 3.937521,2.813969 5.353639,4.507886 2.452708,2.933864 3.918054,6.332619 4.491959,10.418758 0.269312,1.917487 0.175361,6.147656 -0.181997,8.194398 -0.140519,0.804807 -0.33376,1.772018 -0.429423,2.14935 -0.09566,0.377335 -0.153717,0.706279 -0.129008,0.730988 0.102351,0.10235 1.6758,-2.455133 2.312239,-3.758306 0.826107,-1.691544 1.272743,-2.949294 1.707635,-4.808784 0.298697,-1.27715 0.3267,-1.59418 0.330087,-3.736808 0.0042,-2.622577 -0.117752,-3.468095 -0.823608,-5.713009 -1.686782,-5.364663 -2.396832,-9.616891 -2.398409,-14.363175 -0.0016,-5.061212 0.801976,-9.112228 2.624262,-13.228203 C 36.276407,8.9726906 41.2029,3.6804346 47.046566,0.58758075 c 1.231984,-0.65204937 1.721422,-0.75110099 1.721422,-0.34837773 0,0.0889733 -0.267631,0.72922552 -0.594738,1.42278288 -2.510083,5.3220425 -3.534853,10.2559921 -3.261892,15.7048891 0.405703,8.098417 4.003745,16.440832 10.459817,24.252103 1.142506,1.382336 1.62986,1.911116 3.614355,3.921604 l 1.73325,1.755944 -0.0768,-1.521817 c -0.17233,-3.41399 0.71097,-6.883672 2.48539,-9.762851 2.25702,-3.662245 6.22789,-7.139519 10.54476,-9.233991 0.89289,-0.433213 1.11248,-0.499188 1.25844,-0.378063 0.24734,0.205275 0.22245,0.363738 -0.1299,0.826962 -0.79567,1.046055 -1.56036,3.197163 -1.93275,5.4369 -0.20269,1.219113 -0.20624,5.607284 -0.006,7.082303 0.76649,5.638311 2.55071,11.523786 5.51846,18.203276 2.05405,4.623046 3.14808,8.54369 3.51156,12.584261 0.95566,10.623509 -4.44732,19.305251 -15.44758,24.821824 -2.64095,1.324417 -6.5274,2.872201 -6.99042,2.783934 -4.202096,2.142926 -18.210973,1.969546 -20.962655,1.652681 -0.110408,-0.004 -1.201643,-0.23422 -2.424956,-0.511593 z"
     id="path2491"
     inkscape:connector-curvature="0"
     sodipodi:nodetypes="cssccsscsssccsccsccsssccscccscccscssccccc" />
</svg>
