<?xml version="1.0" encoding="UTF-8" standalone="no"?>
<svg
   xmlns:dc="http://purl.org/dc/elements/1.1/"
   xmlns:cc="http://creativecommons.org/ns#"
   xmlns:rdf="http://www.w3.org/1999/02/22-rdf-syntax-ns#"
   xmlns:svg="http://www.w3.org/2000/svg"
   xmlns="http://www.w3.org/2000/svg"
   xmlns:sodipodi="http://sodipodi.sourceforge.net/DTD/sodipodi-0.dtd"
   xmlns:inkscape="http://www.inkscape.org/namespaces/inkscape"
   version="1.1"
   id="Capa_1"
   x="0px"
   y="0px"
   viewBox="0 0 100 100"
   xml:space="preserve"
   sodipodi:docname="force.svg"
   width="100mm"
   height="100mm"
   inkscape:version="1.0.2-2 (e86c870879, 2021-01-15)"><metadata
   id="metadata51"><rdf:RDF><cc:Work
       rdf:about=""><dc:format>image/svg+xml</dc:format><dc:type
         rdf:resource="http://purl.org/dc/dcmitype/StillImage" /><dc:title></dc:title></cc:Work></rdf:RDF></metadata><defs
   id="defs49" /><sodipodi:namedview
   pagecolor="#ffffff"
   bordercolor="#666666"
   borderopacity="1"
   objecttolerance="10"
   gridtolerance="10"
   guidetolerance="10"
   inkscape:pageopacity="0"
   inkscape:pageshadow="2"
   inkscape:window-width="1920"
   inkscape:window-height="1001"
   id="namedview47"
   showgrid="false"
   inkscape:document-units="mm"
   units="mm"
   inkscape:zoom="1.4052513"
   inkscape:cx="167.9415"
   inkscape:cy="196.40616"
   inkscape:window-x="-9"
   inkscape:window-y="-9"
   inkscape:window-maximized="1"
   inkscape:current-layer="Capa_1"
   inkscape:document-rotation="0" />
<g
   id="g12"
   transform="matrix(0.34400198,0,0,0.34400318,-15.544418,0.91917368)">
		
		<path
   inkscape:connector-curvature="0"
   id="path4"
   d="M 195.892,10.793 103.689,139.699 88.291,55.453 67.612,149.87 45.187,121.978 v 63.365 16.79 1.033 c 0,2.915 0.033,5.624 0.092,8.213 0.435,17.465 2.861,28.256 13.772,42.419 2.518,3.269 5.45,6.701 8.953,10.459 0.794,0.848 1.675,1.637 2.638,2.382 5.586,4.319 14.103,6.772 26.031,7.582 2.948,0.201 6.037,0.337 9.42,0.337 3.421,0 6.967,-0.109 10.595,-0.299 3.127,-0.163 6.304,-0.392 9.518,-0.674 35.387,-3.106 74.227,-12.613 76.174,-13.092 l 37.579,-9.274 -73.563,-12.891 107.166,-38.106 H 166.543 L 335.883,20.815 152.831,146.721 Z"
   style="fill:#010002"
   sodipodi:nodetypes="cccccccscccccscccccccccc" />
		
		
		
	</g>
<g
   id="g16"
   transform="translate(0,42.06977)">
</g>
<g
   id="g18"
   transform="translate(0,42.06977)">
</g>
<g
   id="g20"
   transform="translate(0,42.06977)">
</g>
<g
   id="g22"
   transform="translate(0,42.06977)">
</g>
<g
   id="g24"
   transform="translate(0,42.06977)">
</g>
<g
   id="g26"
   transform="translate(0,42.06977)">
</g>
<g
   id="g28"
   transform="translate(0,42.06977)">
</g>
<g
   id="g30"
   transform="translate(0,42.06977)">
</g>
<g
   id="g32"
   transform="translate(0,42.06977)">
</g>
<g
   id="g34"
   transform="translate(0,42.06977)">
</g>
<g
   id="g36"
   transform="translate(0,42.06977)">
</g>
<g
   id="g38"
   transform="translate(0,42.06977)">
</g>
<g
   id="g40"
   transform="translate(0,42.06977)">
</g>
<g
   id="g42"
   transform="translate(0,42.06977)">
</g>
<g
   id="g44"
   transform="translate(0,42.06977)">
</g>
</svg>
