<?xml version="1.0" encoding="UTF-8" standalone="no"?>
<svg
   xmlns:dc="http://purl.org/dc/elements/1.1/"
   xmlns:cc="http://creativecommons.org/ns#"
   xmlns:rdf="http://www.w3.org/1999/02/22-rdf-syntax-ns#"
   xmlns:svg="http://www.w3.org/2000/svg"
   xmlns="http://www.w3.org/2000/svg"
   xmlns:sodipodi="http://sodipodi.sourceforge.net/DTD/sodipodi-0.dtd"
   xmlns:inkscape="http://www.inkscape.org/namespaces/inkscape"
   width="54mm"
   height="100mm"
   viewBox="0 0 54 100"
   version="1.1"
   id="svg8"
   sodipodi:docname="lightning.svg"
   inkscape:version="1.0.2-2 (e86c870879, 2021-01-15)">
  <defs
     id="defs2" />
  <sodipodi:namedview
     id="base"
     pagecolor="#ffffff"
     bordercolor="#666666"
     borderopacity="1.0"
     inkscape:pageopacity="0.0"
     inkscape:pageshadow="2"
     inkscape:zoom="0.98994949"
     inkscape:cx="-49.022079"
     inkscape:cy="182.82383"
     inkscape:document-units="mm"
     inkscape:current-layer="layer1"
     showgrid="false"
     inkscape:window-width="1920"
     inkscape:window-height="1001"
     inkscape:window-x="-9"
     inkscape:window-y="-9"
     inkscape:window-maximized="1"
     inkscape:document-rotation="0" />
  <metadata
     id="metadata5">
    <rdf:RDF>
      <cc:Work
         rdf:about="">
        <dc:format>image/svg+xml</dc:format>
        <dc:type
           rdf:resource="http://purl.org/dc/dcmitype/StillImage" />
        <dc:title></dc:title>
      </cc:Work>
    </rdf:RDF>
  </metadata>
  <g
     inkscape:label="Layer 1"
     inkscape:groupmode="layer"
     id="layer1"
     transform="translate(0,-197)">
    <path
       style="fill:#000000;stroke-width:0.16834947"
       d="m 10.25895,296.18654 c -0.6761918,-0.21098 -1.2552311,-0.79988 -1.4382573,-1.46275 -0.1783341,-0.64587 -0.6108521,1.55021 4.8512233,-24.63175 2.115165,-10.13885 3.813394,-18.49109 3.773842,-18.56053 -0.03955,-0.0694 -3.660099,-0.12627 -8.045657,-0.12627 H 1.426357 l -0.51492363,-0.43328 c -1.11377984,-0.93718 -1.41065846,0.88882 4.34996783,-26.75517 2.8749477,-13.79624 5.3177538,-25.25713 5.4284618,-25.46863 0.110704,-0.21148 0.444055,-0.53457 0.740777,-0.71796 0.529324,-0.32714 0.846107,-0.33258 16.800208,-0.28885 l 16.260713,0.0446 0.526622,0.52666 c 1.075487,1.07555 1.2517,0.42607 -4.43534,16.34752 -2.818943,7.89191 -5.086185,14.38809 -5.038315,14.43597 0.04787,0.0479 3.869848,0.087 8.493284,0.087 h 8.406248 l 0.562468,0.56247 c 0.641457,0.64146 0.836626,1.22047 0.676176,2.00597 -0.140189,0.68633 -40.931446,63.70295 -41.50782,64.12362 -0.527259,0.38482 -1.285576,0.50806 -1.915934,0.31138 z"
       id="path878"
       inkscape:connector-curvature="0" />
  </g>
</svg>
