<svg width="100" height="100" version="1.1" viewBox="0 0 100 100" xmlns="http://www.w3.org/2000/svg">
 <path d="m33.014 99.906c-0.68609-0.21407-1.2736-0.81159-1.4593-1.4842-0.18095-0.65533-0.6198 1.5729 4.9223-24.992 2.1461-10.287 3.8692-18.762 3.8291-18.832-0.04013-0.0704-3.7137-0.12811-8.1635-0.12811h-8.0905l-0.52246-0.43963c-1.1301-0.9509-1.4313 0.90184 4.4137-27.147 2.917-13.998 5.3956-25.627 5.508-25.842 0.11232-0.21458 0.45056-0.5424 0.75162-0.72847 0.53708-0.33193 0.8585-0.33745 17.046-0.29308l16.499 0.0453 0.53433 0.53437c1.0912 1.0913 1.27 0.43231-4.5003 16.587-2.8602 8.0075-5.1607 14.599-5.1121 14.647 0.04857 0.0486 3.9265 0.0883 8.6177 0.0883h8.5293l0.5707 0.57071c0.65085 0.65085 0.84888 1.2383 0.68608 2.0353-0.14224 0.69638-41.531 64.636-42.116 65.062-0.53498 0.39046-1.3044 0.5155-1.944 0.31594z"/>
</svg>
