<?xml version="1.0" encoding="UTF-8" standalone="no"?>
<svg
   xmlns:dc="http://purl.org/dc/elements/1.1/"
   xmlns:cc="http://creativecommons.org/ns#"
   xmlns:rdf="http://www.w3.org/1999/02/22-rdf-syntax-ns#"
   xmlns:svg="http://www.w3.org/2000/svg"
   xmlns="http://www.w3.org/2000/svg"
   xmlns:sodipodi="http://sodipodi.sourceforge.net/DTD/sodipodi-0.dtd"
   xmlns:inkscape="http://www.inkscape.org/namespaces/inkscape"
   version="1.1"
   id="svg3048"
   width="90mm"
   height="100mm"
   viewBox="0 0 90 100"
   sodipodi:docname="necrotic.svg"
   inkscape:version="1.0.2-2 (e86c870879, 2021-01-15)">
  <metadata
     id="metadata3054">
    <rdf:RDF>
      <cc:Work
         rdf:about="">
        <dc:format>image/svg+xml</dc:format>
        <dc:type
           rdf:resource="http://purl.org/dc/dcmitype/StillImage" />
        <dc:title></dc:title>
      </cc:Work>
    </rdf:RDF>
  </metadata>
  <defs
     id="defs3052" />
  <sodipodi:namedview
     pagecolor="#ffffff"
     bordercolor="#666666"
     borderopacity="1"
     objecttolerance="10"
     gridtolerance="10"
     guidetolerance="10"
     inkscape:pageopacity="0"
     inkscape:pageshadow="2"
     inkscape:window-width="1920"
     inkscape:window-height="1001"
     id="namedview3050"
     showgrid="false"
     inkscape:document-units="mm"
     units="mm"
     inkscape:zoom="1.1697"
     inkscape:cx="285.33334"
     inkscape:cy="216.93974"
     inkscape:window-x="-9"
     inkscape:window-y="-9"
     inkscape:window-maximized="1"
     inkscape:current-layer="svg3048"
     inkscape:document-rotation="0" />
  <path
     style="fill:#000000;stroke-width:0.234225"
     d="M 0.60632099,99.74884 0.0865,99.384741 V 71.654371 C 0.0865,41.960763 0.0941,41.736872 1.289369,36.179837 3.925522,23.923972 11.533317,12.955973 21.876669,6.4995637 31.73308,0.34710714 44.217839,-1.5676269 55.688346,1.3140115 74.143073,5.9502356 87.066332,21.473949 89.580632,42.026205 c 0.30897,2.525591 0.4743,56.195738 0.17583,57.078078 -0.27316,0.807495 -1.00618,1.088827 -1.77479,0.681138 -0.35543,-0.188529 -2.85966,-2.57393 -5.56496,-5.300892 -2.705308,-2.726968 -5.257907,-5.105546 -5.672446,-5.28573 -0.894472,-0.388797 -2.583712,-0.42673 -3.505655,-0.07872 -0.362654,0.13689 -2.880537,2.45332 -5.5953,5.147617 -3.065261,3.042158 -5.259446,5.033897 -5.789554,5.255392 -0.469493,0.196165 -1.334699,0.356664 -1.922682,0.356664 -0.587984,0 -1.453193,-0.160499 -1.922685,-0.356664 C 57.478281,99.301593 55.2841,97.309854 52.218836,94.267696 49.504073,91.5734 46.986193,89.25697 46.623539,89.12008 c -0.844314,-0.318706 -2.517994,-0.319537 -3.365772,-0.0016 -0.362651,0.135974 -2.872798,2.449189 -5.578102,5.140478 -3.125616,3.109423 -5.236186,5.025877 -5.789552,5.257059 -1.103413,0.460979 -2.764425,0.465977 -3.851941,0.01156 -0.516552,-0.215829 -2.738168,-2.233946 -5.737008,-5.211504 -2.691711,-2.672622 -5.181165,-4.986295 -5.532123,-5.141515 -0.796829,-0.352415 -2.619581,-0.38267 -3.492119,-0.05797 -0.362651,0.134958 -3.030898,2.601613 -5.9294371,5.48146 C 4.448945,97.477892 1.863379,99.896869 1.60178,99.973548 1.3365,100.05131 0.89624799,99.951928 0.60632099,99.748869 Z M 30.563911,56.298335 c 3.869166,-1.117523 7.078053,-4.577429 8.043338,-8.672531 1.528707,-6.485342 -2.700253,-13.020781 -9.332288,-14.422115 -4.997188,-1.055899 -10.353259,1.456889 -12.762647,5.987566 -1.05104,1.976403 -1.429833,3.503084 -1.429833,5.762763 0,3.214957 1.105407,6.021321 3.226916,8.19237 3.337621,3.415559 7.571484,4.504537 12.254514,3.151947 z m 35.45702,0.205375 c 3.776964,-0.939972 7.424986,-4.594931 8.457848,-8.473943 0.377693,-1.418455 0.414504,-4.513818 0.0714,-6.003562 -1.341446,-5.824495 -7.558109,-9.932162 -13.494515,-8.916519 -7.927255,1.356246 -12.37349,9.881364 -8.864851,16.99728 1.011459,2.051357 1.948367,3.185515 3.691609,4.468813 2.867046,2.110594 6.572901,2.815296 10.138508,1.927931 z"
     id="path3601"
     inkscape:connector-curvature="0" />
</svg>
