<?xml version="1.0" encoding="UTF-8" standalone="no"?>
<!-- Created with Inkscape (http://www.inkscape.org/) -->

<svg
   xmlns:dc="http://purl.org/dc/elements/1.1/"
   xmlns:cc="http://creativecommons.org/ns#"
   xmlns:rdf="http://www.w3.org/1999/02/22-rdf-syntax-ns#"
   xmlns:svg="http://www.w3.org/2000/svg"
   xmlns="http://www.w3.org/2000/svg"
   xmlns:sodipodi="http://sodipodi.sourceforge.net/DTD/sodipodi-0.dtd"
   xmlns:inkscape="http://www.inkscape.org/namespaces/inkscape"
   version="1.1"
   id="svg3048"
   width="100mm"
   height="100mm"
   viewBox="0 0 377.95276 377.95276"
   sodipodi:docname="necrotic-2.svg"
   inkscape:version="0.92.4 (5da689c313, 2019-01-14)">
  <metadata
     id="metadata3054">
    <rdf:RDF>
      <cc:Work
         rdf:about="">
        <dc:format>image/svg+xml</dc:format>
        <dc:type
           rdf:resource="http://purl.org/dc/dcmitype/StillImage" />
        <dc:title></dc:title>
      </cc:Work>
    </rdf:RDF>
  </metadata>
  <defs
     id="defs3052" />
  <sodipodi:namedview
     pagecolor="#ffffff"
     bordercolor="#666666"
     borderopacity="1"
     objecttolerance="10"
     gridtolerance="10"
     guidetolerance="10"
     inkscape:pageopacity="0"
     inkscape:pageshadow="2"
     inkscape:window-width="1366"
     inkscape:window-height="715"
     id="namedview3050"
     showgrid="false"
     inkscape:document-units="mm"
     units="mm"
     inkscape:zoom="1.1697"
     inkscape:cx="285.33334"
     inkscape:cy="216.93974"
     inkscape:window-x="-8"
     inkscape:window-y="-8"
     inkscape:window-maximized="1"
     inkscape:current-layer="svg3048" />
  <path
     style="fill:#000000;stroke-width:0.88525945"
     d="m 21.187356,377.00349 -1.964679,-1.37612 v -104.8077 c 0,-112.22781 0.02867,-113.07401 4.546277,-134.07698 C 33.732366,90.421312 62.486237,48.967456 101.57922,24.565281 138.8318,1.3119017 186.01829,-5.9248882 229.37139,4.9663434 299.12154,22.48908 347.96534,81.161382 357.46821,158.8392 c 1.16776,9.54554 1.79264,212.39334 0.66456,215.72817 -1.03241,3.05195 -3.80289,4.11524 -6.70786,2.57438 -1.34336,-0.71255 -10.80818,-9.72824 -21.03294,-20.03487 -10.22477,-10.30665 -19.87239,-19.29655 -21.43915,-19.97756 -3.38068,-1.46947 -9.76521,-1.61284 -13.24972,-0.29752 -1.37066,0.51738 -10.88707,9.27239 -21.14759,19.45556 -11.58524,11.49792 -19.87822,19.02575 -21.88178,19.8629 -1.77446,0.74141 -5.04453,1.34802 -7.26683,1.34802 -2.2223,0 -5.49238,-0.60661 -7.26684,-1.34802 -2.00356,-0.83715 -10.29653,-8.36498 -21.88178,-19.8629 -10.26052,-10.18317 -19.77692,-18.93818 -21.14758,-19.45556 -3.19111,-1.20456 -9.51683,-1.2077 -12.72103,-0.006 -1.37065,0.51392 -10.85782,9.25678 -21.08259,19.42858 -11.81335,11.75215 -19.79031,18.99544 -21.88177,19.8692 -4.17038,1.74228 -10.44822,1.76117 -14.55852,0.0437 -1.95232,-0.81573 -10.34898,-8.44326 -21.68318,-19.69702 -10.173396,-10.10125 -19.582354,-18.84584 -20.908811,-19.4325 -3.011634,-1.33196 -9.900777,-1.44631 -13.19856,-0.2191 -1.370647,0.51008 -11.45536,9.83287 -22.41047,20.71733 -10.95511,10.88445 -20.727328,20.02704 -21.716048,20.31685 -1.002635,0.29389 -2.666579,-0.0817 -3.762365,-0.84918 z M 134.41289,212.78111 c 14.62362,-4.22371 26.7517,-17.30052 30.40002,-32.77807 5.77779,-24.51153 -10.20568,-49.2124 -35.27164,-54.50878 -18.88701,-3.9908 -39.130428,5.50635 -48.236776,22.63017 -3.972435,7.46987 -5.404093,13.24 -5.404093,21.78052 0,12.15102 4.177914,22.75775 12.196216,30.96329 12.614633,12.9092 28.616633,17.02502 46.316273,11.91287 z m 134.01079,0.77622 c 14.27514,-3.55265 28.06294,-17.36667 31.96667,-32.0275 1.4275,-5.36109 1.56663,-17.0601 0.26986,-22.69063 -5.07003,-22.01384 -28.56608,-37.53888 -51.00289,-33.70023 -29.96128,5.12597 -46.76595,37.34689 -33.50495,64.24169 3.82284,7.75316 7.36391,12.03974 13.95254,16.89 10.83608,7.97705 24.84246,10.64049 38.31877,7.28667 z"
     id="path3601"
     inkscape:connector-curvature="0" />
</svg>
