<svg width="100" height="100" version="1.1" viewBox="0 0 100 100" xmlns="http://www.w3.org/2000/svg">
 <path d="m5.6063 99.749-0.51982-0.3641v-27.73c0-29.694 0.0076-29.917 1.2029-35.475 2.6362-12.256 10.244-23.224 20.587-29.68 9.8564-6.1525 22.341-8.0672 33.812-5.1856 18.455 4.6362 31.378 20.16 33.892 40.712 0.30897 2.5256 0.4743 56.196 0.17583 57.078-0.27316 0.8075-1.0062 1.0888-1.7748 0.68114-0.35543-0.18853-2.8597-2.5739-5.565-5.3009-2.7053-2.727-5.2579-5.1055-5.6724-5.2857-0.89447-0.3888-2.5837-0.42673-3.5057-0.07872-0.36265 0.13689-2.8805 2.4533-5.5953 5.1476-3.0653 3.0422-5.2594 5.0339-5.7896 5.2554-0.46949 0.19616-1.3347 0.35666-1.9227 0.35666-0.58798 0-1.4532-0.1605-1.9227-0.35666-0.53011-0.2215-2.7243-2.2132-5.7896-5.2554-2.7148-2.6943-5.2326-5.0107-5.5953-5.1476-0.84432-0.31871-2.518-0.31954-3.3658-0.0016-0.36265 0.13597-2.8728 2.4492-5.5781 5.1405-3.1256 3.1094-5.2362 5.0259-5.7896 5.2571-1.1034 0.46098-2.7644 0.46598-3.8519 0.01156-0.51655-0.21583-2.7382-2.2339-5.737-5.2115-2.6917-2.6726-5.1812-4.9863-5.5321-5.1415-0.79683-0.35242-2.6196-0.38267-3.4921-0.05797-0.36265 0.13496-3.0309 2.6016-5.9294 5.4815-2.8985 2.8798-5.4841 5.2988-5.7457 5.3755-0.26528 0.07776-0.70553-0.02162-0.99546-0.22468zm29.958-43.451c3.8692-1.1175 7.0781-4.5774 8.0433-8.6725 1.5287-6.4853-2.7003-13.021-9.3323-14.422-4.9972-1.0559-10.353 1.4569-12.763 5.9876-1.051 1.9764-1.4298 3.5031-1.4298 5.7628 0 3.215 1.1054 6.0213 3.2269 8.1924 3.3376 3.4156 7.5715 4.5045 12.255 3.1519zm35.457 0.20538c3.777-0.93997 7.425-4.5949 8.4578-8.4739 0.37769-1.4185 0.4145-4.5138 0.0714-6.0036-1.3414-5.8245-7.5581-9.9322-13.495-8.9165-7.9273 1.3562-12.373 9.8814-8.8649 16.997 1.0115 2.0514 1.9484 3.1855 3.6916 4.4688 2.867 2.1106 6.5729 2.8153 10.139 1.9279z"/>
</svg>
