<?xml version="1.0" encoding="UTF-8" standalone="no"?>
<svg
   xmlns:dc="http://purl.org/dc/elements/1.1/"
   xmlns:cc="http://creativecommons.org/ns#"
   xmlns:rdf="http://www.w3.org/1999/02/22-rdf-syntax-ns#"
   xmlns:svg="http://www.w3.org/2000/svg"
   xmlns="http://www.w3.org/2000/svg"
   xmlns:sodipodi="http://sodipodi.sourceforge.net/DTD/sodipodi-0.dtd"
   xmlns:inkscape="http://www.inkscape.org/namespaces/inkscape"
   height="100mm"
   width="100mm"
   fill="#000000"
   version="1.1"
   x="0px"
   y="0px"
   viewBox="0 0 100 100"
   enable-background="new 0 0 100 100"
   xml:space="preserve"
   id="svg6"
   sodipodi:docname="piercing2.svg"
   inkscape:version="1.0.2-2 (e86c870879, 2021-01-15)"><metadata
     id="metadata12"><rdf:RDF><cc:Work
         rdf:about=""><dc:format>image/svg+xml</dc:format><dc:type
           rdf:resource="http://purl.org/dc/dcmitype/StillImage" /><dc:title></dc:title></cc:Work></rdf:RDF></metadata><defs
     id="defs10" /><sodipodi:namedview
     pagecolor="#ffffff"
     bordercolor="#666666"
     borderopacity="1"
     objecttolerance="10"
     gridtolerance="10"
     guidetolerance="10"
     inkscape:pageopacity="0"
     inkscape:pageshadow="2"
     inkscape:window-width="1920"
     inkscape:window-height="1001"
     id="namedview8"
     showgrid="false"
     inkscape:document-units="mm"
     units="mm"
     showguides="true"
     inkscape:guide-bbox="true"
     inkscape:zoom="0.96402225"
     inkscape:cx="82.785797"
     inkscape:cy="195.56046"
     inkscape:window-x="-9"
     inkscape:window-y="-9"
     inkscape:window-maximized="1"
     inkscape:current-layer="svg6" /><g
     id="g4"
     transform="matrix(1.2856487,0,0,1.2856487,-7.9185953,-14.202403)"><path
       d="m 59.16449,21.223962 7.996281,2.180804 -34.165469,34.165043 -10.843929,0.787941 -4.361411,4.361926 10.843671,-0.788198 -1.454266,1.454266 -10.843929,0.787941 -4.361104,4.361104 10.84393,-0.787942 -1.454267,1.454267 -10.843929,0.787941 -4.3608464,4.36136 10.8436724,-0.788197 4.422169,4.422168 -0.787634,10.844237 4.360997,-4.361211 0.78774,-10.844129 1.454266,-1.454267 -0.787741,10.84413 4.361348,-4.361348 0.787484,-10.843898 1.454267,-1.454266 -0.787881,10.844294 4.361608,-4.361607 0.787942,-10.844355 34.165255,-34.165257 c 0,0 2.025241,8.031174 2.120469,7.935946 0.09523,-0.09523 10.177085,-24.715778 10.177085,-24.715778 z"
       id="path2"
       sodipodi:nodetypes="cccccccccccccccccccccccccccscc"
       style="stroke-width:1.02804" /></g></svg>
