<svg width="100" height="100" version="1.1" viewBox="0 0 100 100" xmlns="http://www.w3.org/2000/svg">
 <path d="m21.577 99.656c-0.09732-0.24455-0.11486-3.189-0.06077-10.203 0.06895-8.9385 0.05709-9.899-0.1269-10.287-0.39345-0.8293 0.12106-0.79156-10.817-0.79359-10.627-2e-3 -10.498 6e-3 -10.571-0.62606-0.029768-0.25789 0.55472-0.89731 3.4993-3.8282 2.688-2.6755 3.6847-3.589 4.1599-3.8125l0.62487-0.29397 10.355-0.0334c10.167-0.0328 10.362-0.0289 10.759 0.21663 0.86406 0.53412 0.83074 0.0579 0.79178 11.317l-0.03504 10.125-0.29345 0.72752c-0.26231 0.65032-0.67025 1.1046-3.8449 4.2813-3.0788 3.0808-3.6015 3.5538-3.9275 3.5538-0.29379 0-0.40602-0.0752-0.5129-0.34375zm11.342-11.016c-0.19684-0.21754-0.2113-0.98318-0.19442-10.295 0.02024-11.16 0.06047-10.607-0.80107-11.016-0.38734-0.18384-1.4329-0.20436-10.416-0.20436-7.5997 0-10.021-0.0358-10.135-0.14999-0.44074-0.44083-0.23682-0.70009 3.3806-4.2978 2.0817-2.0703 3.7167-3.5961 3.9842-3.718 0.88283-0.40235 1.954-0.57176 4.8578-0.76826 1.6153-0.10931 3.9492-0.28054 5.1864-0.38052 1.2372-0.1 3.0336-0.23563 3.9919-0.30147l1.7424-0.1197 22.346-22.351c12.291-12.293 22.346-22.386 22.346-22.43 0-0.0909-0.09702-0.13015-2.437-0.98422-0.9623-0.35122-2.0308-0.74455-2.3745-0.87406-1.4086-0.53084-3.1623-1.1803-3.7492-1.3885-0.34368-0.12191-0.99042-0.35718-1.4372-0.52284-4.2381-1.5714-5.7739-2.1348-6.2834-2.3051-0.59591-0.19919-1.2151-0.65808-1.2151-0.90054 0-0.38595 0.91602-0.55132 11.064-1.9975 5.7715-0.82246 10.915-1.5537 11.431-1.6249 0.51552-0.0713 2.3151-0.32716 3.9992-0.56871 1.684-0.24155 3.9054-0.55853 4.9365-0.70443 1.031-0.14588 2.5648-0.37168 3.4083-0.50176 2.1766-0.33567 2.782-0.31909 3.1624 0.0866 0.37862 0.40382 0.38118 1.021 0.0142 3.4269-0.14154 0.92813-0.37644 2.5312-0.52198 3.5625-0.14555 1.0312-0.3749 2.6344-0.50969 3.5625-0.55123 3.7958-0.63271 4.3676-0.80156 5.625-0.0969 0.72189-0.35055 2.4938-0.56356 3.9375-0.21303 1.4438-0.46779 3.2213-0.56615 3.95-0.0983 0.72877-0.49177 3.485-0.87424 6.125-0.38248 2.64-0.75646 5.3062-0.83107 5.925-0.13166 1.0918-0.3692 1.8125-0.59739 1.8125-0.4241 0-0.7629-0.48459-1.1361-1.625-0.13574-0.41477-0.6548-1.8264-1.6776-4.5625-0.46261-1.2375-1.0355-2.7844-1.273-3.4375-0.23755-0.65312-0.51095-1.3844-0.60754-1.625-0.15672-0.39042-0.52545-1.3897-1.8449-5-0.21357-0.58438-0.43356-1.1155-0.48886-1.1803-0.05733-0.0672-9.7107 9.4913-22.471 22.25l-22.37 22.368-0.30872 4.0625c-0.37002 4.8692-0.67254 8.7558-0.77059 9.9001-0.14069 1.6419-0.39679 1.9926-4.34 5.9437-2.3506 2.3553-3.6104 3.5313-3.7832 3.5313-0.14246 0-0.35471-0.10576-0.47167-0.23503z"/>
</svg>
