<?xml version="1.0" encoding="UTF-8" standalone="no"?>
<!-- Created with Inkscape (http://www.inkscape.org/) -->

<svg
   xmlns:dc="http://purl.org/dc/elements/1.1/"
   xmlns:cc="http://creativecommons.org/ns#"
   xmlns:rdf="http://www.w3.org/1999/02/22-rdf-syntax-ns#"
   xmlns:svg="http://www.w3.org/2000/svg"
   xmlns="http://www.w3.org/2000/svg"
   xmlns:sodipodi="http://sodipodi.sourceforge.net/DTD/sodipodi-0.dtd"
   xmlns:inkscape="http://www.inkscape.org/namespaces/inkscape"
   width="100mm"
   height="100mm"
   viewBox="0 0 100 100"
   version="1.1"
   id="svg8"
   inkscape:version="0.92.4 (5da689c313, 2019-01-14)"
   sodipodi:docname="piercing.svg">
  <defs
     id="defs2" />
  <sodipodi:namedview
     id="base"
     pagecolor="#ffffff"
     bordercolor="#666666"
     borderopacity="1.0"
     inkscape:pageopacity="0.0"
     inkscape:pageshadow="2"
     inkscape:zoom="0.98994949"
     inkscape:cx="113.98788"
     inkscape:cy="188.97638"
     inkscape:document-units="mm"
     inkscape:current-layer="layer1"
     showgrid="false"
     inkscape:window-width="1366"
     inkscape:window-height="715"
     inkscape:window-x="-8"
     inkscape:window-y="-8"
     inkscape:window-maximized="1" />
  <metadata
     id="metadata5">
    <rdf:RDF>
      <cc:Work
         rdf:about="">
        <dc:format>image/svg+xml</dc:format>
        <dc:type
           rdf:resource="http://purl.org/dc/dcmitype/StillImage" />
        <dc:title></dc:title>
      </cc:Work>
    </rdf:RDF>
  </metadata>
  <g
     inkscape:label="Layer 1"
     inkscape:groupmode="layer"
     id="layer1"
     transform="translate(0,-197)">
    <path
       style="fill:#000000;stroke-width:0.12468828"
       d="m 21.553468,296.53212 c -0.0971,-0.24394 -0.114601,-3.18105 -0.06063,-10.17731 0.06879,-8.91619 0.05696,-9.87425 -0.126607,-10.2611 -0.392549,-0.82723 0.120784,-0.78958 -10.792335,-0.79161 -10.60251109,-0.002 -10.47408109,0.006 -10.54684009,-0.62449 -0.0297,-0.25725 0.55345,-0.89507 3.49127199,-3.81859 2.681833,-2.66877 3.676316,-3.58002 4.150373,-3.80299 l 0.623441,-0.29324 10.3309791,-0.0333 c 10.143293,-0.0327 10.338311,-0.0288 10.734469,0.21608 0.86208,0.53279 0.828839,0.0578 0.789963,11.28853 l -0.03496,10.09975 -0.292775,0.7257 c -0.261713,0.6487 -0.668717,1.1018 -3.83609,4.27057 -3.071744,3.0731 -3.593251,3.54488 -3.91854,3.54488 -0.293122,0 -0.405093,-0.075 -0.511722,-0.34289 z m 11.315786,-10.98881 c -0.196387,-0.217 -0.210813,-0.98072 -0.19397,-10.26902 0.02019,-11.13253 0.06033,-10.58056 -0.799232,-10.98845 -0.386453,-0.18338 -1.429602,-0.20385 -10.392026,-0.20385 -7.582323,0 -9.9982,-0.0357 -10.112079,-0.14962 -0.439732,-0.43973 -0.236274,-0.69834 3.372818,-4.28701 2.076924,-2.06517 3.708181,-3.58714 3.975049,-3.70874 0.880811,-0.40134 1.949558,-0.57033 4.846647,-0.76634 1.611596,-0.10904 3.940149,-0.27984 5.174563,-0.37957 1.234414,-0.0997 3.026652,-0.23504 3.982752,-0.30072 l 1.738364,-0.1194 22.295302,-22.29504 c 12.262417,-12.26227 22.295301,-22.33037 22.295301,-22.37356 0,-0.0907 -0.0968,-0.12983 -2.43142,-0.98176 -0.9601,-0.35034 -2.02618,-0.74269 -2.36908,-0.87188 -1.405423,-0.52951 -3.155069,-1.17733 -3.740645,-1.385 -0.342893,-0.1216 -0.988155,-0.35629 -1.433915,-0.52153 -4.228384,-1.56743 -5.760725,-2.12946 -6.26901,-2.29934 -0.59455,-0.1987 -1.212287,-0.65644 -1.212287,-0.89829 0,-0.38499 0.913925,-0.54995 11.039079,-1.99252 5.758308,-0.82041 10.890468,-1.5498 11.404808,-1.62088 0.51434,-0.0711 2.30985,-0.32635 3.99003,-0.56729 1.68017,-0.24095 3.89651,-0.55714 4.92518,-0.70267 1.02868,-0.14552 2.55889,-0.37075 3.40047,-0.50051 2.17158,-0.33483 2.77559,-0.31829 3.15511,0.0864 0.37775,0.40281 0.38031,1.01843 0.0142,3.41831 -0.14122,0.92581 -0.37558,2.52493 -0.52079,3.55361 -0.14521,1.02868 -0.37404,2.62781 -0.50852,3.55362 -0.54997,3.78628 -0.63126,4.35665 -0.79973,5.61097 -0.0967,0.72008 -0.34974,2.48753 -0.56227,3.92768 -0.21254,1.44015 -0.46672,3.21323 -0.56485,3.94018 -0.0981,0.72695 -0.49064,3.47632 -0.87224,6.10972 -0.3816,2.63341 -0.75473,5.29299 -0.82917,5.9102 -0.13136,1.0891 -0.36835,1.80798 -0.59602,1.80798 -0.42313,0 -0.76115,-0.48338 -1.1335,-1.62095 -0.13543,-0.41373 -0.6533,-1.82184 -1.67381,-4.55112 -0.46155,-1.23441 -1.03311,-2.77743 -1.27013,-3.42893 -0.23701,-0.65149 -0.50978,-1.38092 -0.60615,-1.62094 -0.15636,-0.38944 -0.52425,-1.38627 -1.8407,-4.98753 -0.21308,-0.58292 -0.43257,-1.11274 -0.48774,-1.17737 -0.0572,-0.067 -9.68844,9.4676 -22.419371,22.19452 l -22.319056,22.31202 -0.308011,4.05237 c -0.369176,4.85706 -0.671,8.73393 -0.768825,9.87536 -0.140366,1.6378 -0.395883,1.98767 -4.330024,5.92888 -2.345212,2.34943 -3.602185,3.52244 -3.774551,3.52244 -0.142134,0 -0.353899,-0.10549 -0.470591,-0.23444 z"
       id="path839"
       inkscape:connector-curvature="0" />
  </g>
</svg>
