<svg width="100" height="100" version="1.1" viewBox="0 0 100 100" xmlns="http://www.w3.org/2000/svg">
 <path d="m39.921 99.877c-9.3091-0.67926-13.949-2.8343-16.344-7.5919-1.5241-3.0265-1.5126-2.8389-1.5157-24.684-0.0019-12.739 0.07417-19.975 0.22001-20.957 1.3307-8.9588 6.8753-16.793 14.772-20.871l1.8959-0.97922v-13.527l-0.57344-0.13783c-4.3736-1.0512-5.7246-6.8346-2.2845-9.7792 1.5623-1.3373 1.7053-1.3512 13.91-1.3512s12.347 0.013913 13.91 1.3512c3.4401 2.9446 2.0891 8.728-2.2845 9.7792l-0.57344 0.13783v13.527l1.8959 0.97922c6.7025 3.4617 11.927 9.8622 13.958 17.099 1.0239 3.649 1.0352 3.9194 1.0331 24.689-0.0019 18.19-0.02795 19.623-0.38974 21.376-1.0629 5.1496-4.248 8.309-9.8771 9.7972-3.7797 0.99926-6.0212 1.1745-16.003 1.2514-5.1036 0.03934-10.39-0.01001-11.747-0.1086zm14.526-14.08c0.93605-0.11996 1.2866-0.26594 1.5298-0.637 0.17348-0.26476 0.25742-0.57522 0.18654-0.6899-0.21226-0.34345 0.43624-1.6286 1.0123-2.0061 0.47775-0.31304 0.6853-0.3225 1.877-0.08558 1.1795 0.23446 1.4513 0.22378 2.2706-0.08908 0.5119-0.19549 1.367-0.7997 1.9001-1.3427 1.8947-1.9296 2.1339-2.7039 1.3614-4.4068-0.50647-1.1164-0.41761-1.6739 0.5608-3.5182 0.41849-0.78885 0.70568-1.6338 0.7101-2.0892 0.0041-0.42056 0.14482-1.3277 0.31274-2.0158 0.49729-2.0379 0.61922-6.5927 0.22607-8.4452-0.63406-2.9877-2.302-5.5573-5.3173-8.1915-3.8283-3.3446-7.531-4.7322-11.903-4.4607-3.692 0.22927-6.5904 1.4085-9.5998 3.9058-3.4305 2.8467-5.296 5.5807-5.9678 8.7465-0.39315 1.8525-0.27123 6.4073 0.22607 8.4452 0.16792 0.68813 0.30865 1.5952 0.31274 2.0158 0.0044 0.4554 0.29162 1.3003 0.7101 2.0892 0.97841 1.8443 1.0673 2.4017 0.5608 3.5182-0.77248 1.7028-0.53324 2.4772 1.3614 4.4068 0.53317 0.54298 1.3882 1.1472 1.9001 1.3427 0.81935 0.31292 1.0911 0.32359 2.2706 0.08908 1.1917-0.23689 1.3993-0.22742 1.877 0.08558 0.57604 0.37744 1.2245 1.6626 1.0123 2.0061-0.07089 0.11468 0.02213 0.43898 0.2067 0.72066 0.2511 0.38323 0.53118 0.51737 1.1127 0.53293 0.42743 0.01141 1.0117 0.08778 1.2985 0.16966 0.64467 0.18411 6.3386 0.11547 7.9913-0.09629zm-6.6025-4.774c-0.06349-0.16546-0.02301-0.61119 0.08995-0.9905 0.11297-0.37931 0.29731-1.157 0.40965-1.7283 0.18782-0.95504 1.3624-3.2361 1.6664-3.2361 0.25905 0 1.2394 2.2133 1.4316 3.2321 0.10817 0.57344 0.29726 1.3068 0.42019 1.6296 0.50965 1.3385 0.43648 1.394-1.8394 1.394-1.6049 0-2.0885-0.06676-2.1784-0.30084zm-6.8329-4.0407c-0.80705-0.34124-2.2873-1.6622-2.6125-2.3312-0.53218-1.0951-0.60658-2.5126-0.17914-3.4134 0.66981-1.4115 3.2158-2.9452 5.2988-3.1919 2.6733-0.31661 4.9336 1.9582 4.4994 4.5282-0.23054 1.3646-3.3198 3.8945-5.316 4.3535-1.0698 0.24596-1.2267 0.25106-1.6906 0.05485zm16.078-0.10295c-1.9762-0.54935-4.888-3.0122-5.1092-4.3215-0.4315-2.554 1.8372-4.8277 4.5021-4.5121 2.0829 0.2467 4.629 1.7804 5.2988 3.1919 0.4251 0.89583 0.35391 2.3089-0.17194 3.4134-0.39637 0.8325-2.2114 2.2706-3.031 2.4016-0.3022 0.04824-0.97214-0.02973-1.4888-0.17331z"/>
</svg>
