<?xml version="1.0" encoding="UTF-8" standalone="no"?>
<svg
   xmlns:dc="http://purl.org/dc/elements/1.1/"
   xmlns:cc="http://creativecommons.org/ns#"
   xmlns:rdf="http://www.w3.org/1999/02/22-rdf-syntax-ns#"
   xmlns:svg="http://www.w3.org/2000/svg"
   xmlns="http://www.w3.org/2000/svg"
   xmlns:sodipodi="http://sodipodi.sourceforge.net/DTD/sodipodi-0.dtd"
   xmlns:inkscape="http://www.inkscape.org/namespaces/inkscape"
   width="76mm"
   height="100mm"
   viewBox="0 0 76 100"
   version="1.1"
   id="svg8"
   inkscape:version="1.0.2-2 (e86c870879, 2021-01-15)"
   sodipodi:docname="poison.svg">
  <defs
     id="defs2" />
  <sodipodi:namedview
     id="base"
     pagecolor="#ffffff"
     bordercolor="#666666"
     borderopacity="1.0"
     inkscape:pageopacity="0.0"
     inkscape:pageshadow="2"
     inkscape:zoom="1.4"
     inkscape:cx="186.11438"
     inkscape:cy="179.81914"
     inkscape:document-units="mm"
     inkscape:current-layer="layer1"
     showgrid="false"
     inkscape:window-width="1920"
     inkscape:window-height="1001"
     inkscape:window-x="-9"
     inkscape:window-y="-9"
     inkscape:window-maximized="1"
     inkscape:document-rotation="0" />
  <metadata
     id="metadata5">
    <rdf:RDF>
      <cc:Work
         rdf:about="">
        <dc:format>image/svg+xml</dc:format>
        <dc:type
           rdf:resource="http://purl.org/dc/dcmitype/StillImage" />
        <dc:title></dc:title>
      </cc:Work>
    </rdf:RDF>
  </metadata>
  <g
     inkscape:label="Layer 1"
     inkscape:groupmode="layer"
     id="layer1"
     transform="translate(0,-197)">
    <path
       style="fill:#000000;stroke-width:0.208333"
       d="m 27.929874,296.78596 c -9.300603,-0.67864 -13.935839,-2.83166 -16.329539,-7.58494 -1.522742,-3.02377 -1.511227,-2.83625 -1.5143,-24.66149 -0.0019,-12.72747 0.0741,-19.95656 0.219807,-20.9375 1.329506,-8.9506 6.868993,-16.77741 14.758186,-20.85204 l 1.8942,-0.97832 v -6.75706 -6.75705 l -0.572913,-0.1377 c -4.369579,-1.05022 -5.719365,-6.82832 -2.282368,-9.77027 1.560917,-1.3361 1.703747,-1.34997 13.896903,-1.34997 12.193157,0 12.335988,0.0139 13.896904,1.34997 3.436997,2.94195 2.08721,8.72005 -2.282368,9.77027 l -0.572914,0.1377 v 6.75705 6.75706 l 1.894201,0.97832 c 6.696337,3.45854 11.916236,9.85316 13.945005,17.08329 1.022958,3.64562 1.034266,3.91584 1.032196,24.66634 -0.0019,18.17301 -0.02792,19.60504 -0.389381,21.3563 -1.061881,5.14486 -4.244172,8.30139 -9.868115,9.78824 -3.776242,0.99835 -6.015696,1.17347 -15.988867,1.2503 -5.098939,0.0393 -10.380425,-0.01 -11.736637,-0.1085 z m 14.512373,-14.06732 c 0.935196,-0.11985 1.285463,-0.2657 1.528369,-0.63642 0.173317,-0.26452 0.257186,-0.57469 0.186371,-0.68927 -0.212071,-0.34314 0.435843,-1.62713 1.011353,-2.00422 0.477312,-0.31275 0.684676,-0.32221 1.875316,-0.0855 1.178461,0.23424 1.449944,0.22358 2.268544,-0.089 0.511435,-0.19531 1.365711,-0.79897 1.898391,-1.34145 1.892958,-1.92779 2.131978,-2.70146 1.360204,-4.40272 -0.506004,-1.11542 -0.417227,-1.67236 0.560288,-3.51496 0.418108,-0.78813 0.705038,-1.6323 0.709457,-2.08728 0.0041,-0.42017 0.144685,-1.32644 0.312453,-2.01394 0.49684,-2.03603 0.618656,-6.58667 0.225862,-8.4375 -0.633486,-2.98496 -2.299922,-5.55218 -5.312417,-8.18404 -3.824782,-3.34151 -7.524175,-4.72787 -11.892167,-4.45661 -3.688585,0.22906 -6.584411,1.40725 -9.591045,3.90218 -3.427409,2.8441 -5.291131,5.57557 -5.96238,8.73847 -0.392794,1.85083 -0.270978,6.40147 0.225862,8.4375 0.167767,0.6875 0.308372,1.59377 0.312453,2.01394 0.0044,0.45498 0.291349,1.29915 0.709457,2.08728 0.977515,1.8426 1.066292,2.39954 0.560288,3.51496 -0.771774,1.70126 -0.532754,2.47493 1.360204,4.40272 0.532679,0.54248 1.386955,1.14614 1.89839,1.34145 0.818601,0.31263 1.090084,0.32329 2.268545,0.089 1.190639,-0.23667 1.398003,-0.22721 1.875316,0.0855 0.57551,0.37709 1.223424,1.66108 1.011352,2.00422 -0.07082,0.11458 0.02211,0.43858 0.206508,0.72 0.250872,0.38288 0.530691,0.5169 1.111701,0.53244 0.427044,0.0114 1.010819,0.0877 1.297276,0.1695 0.644081,0.18394 6.332828,0.11536 7.984049,-0.0962 z m -6.59648,-4.76958 c -0.06343,-0.16531 -0.02299,-0.61063 0.08987,-0.98959 0.112864,-0.37896 0.297039,-1.15598 0.409277,-1.72672 0.187646,-0.95416 1.361188,-3.23313 1.664888,-3.23313 0.258816,0 1.238253,2.21132 1.430261,3.22917 0.108075,0.57291 0.296988,1.30558 0.419807,1.62814 0.509184,1.3373 0.436086,1.39269 -1.83773,1.39269 -1.603466,0 -2.086641,-0.0667 -2.176373,-0.30056 z m -6.82662,-4.037 c -0.806313,-0.34093 -2.285211,-1.66063 -2.610072,-2.32911 -0.531698,-1.09408 -0.606023,-2.51031 -0.178977,-3.41025 0.669202,-1.41024 3.212904,-2.94254 5.293937,-3.18901 2.670831,-0.31632 4.929089,1.95638 4.495285,4.52404 -0.230332,1.36333 -3.316792,3.89097 -5.311107,4.34949 -1.068833,0.24574 -1.225543,0.25083 -1.689066,0.0548 z m 16.063058,-0.10286 c -1.974435,-0.54885 -4.883543,-3.00946 -5.104546,-4.31757 -0.431103,-2.55168 1.835484,-4.82327 4.498007,-4.50794 2.081033,0.24647 4.624735,1.77877 5.293936,3.18901 0.424707,0.89501 0.353591,2.30679 -0.171786,3.41025 -0.396007,0.83174 -2.20935,2.26854 -3.028211,2.3994 -0.301925,0.0482 -0.971255,-0.0297 -1.4874,-0.17315 z"
       id="path826"
       inkscape:connector-curvature="0" />
  </g>
</svg>
