<?xml version="1.0" encoding="UTF-8" standalone="no"?>
<svg
   xmlns:dc="http://purl.org/dc/elements/1.1/"
   xmlns:cc="http://creativecommons.org/ns#"
   xmlns:rdf="http://www.w3.org/1999/02/22-rdf-syntax-ns#"
   xmlns:svg="http://www.w3.org/2000/svg"
   xmlns="http://www.w3.org/2000/svg"
   xmlns:sodipodi="http://sodipodi.sourceforge.net/DTD/sodipodi-0.dtd"
   xmlns:inkscape="http://www.inkscape.org/namespaces/inkscape"
   width="100mm"
   height="100mm"
   viewBox="0 0 100 100"
   version="1.1"
   id="svg8"
   inkscape:version="1.0.2-2 (e86c870879, 2021-01-15)"
   sodipodi:docname="psychic.svg">
  <defs
     id="defs2" />
  <sodipodi:namedview
     id="base"
     pagecolor="#ffffff"
     bordercolor="#666666"
     borderopacity="1.0"
     inkscape:pageopacity="0.0"
     inkscape:pageshadow="2"
     inkscape:zoom="0.98994949"
     inkscape:cx="111.03199"
     inkscape:cy="186.47651"
     inkscape:document-units="mm"
     inkscape:current-layer="layer1"
     showgrid="false"
     inkscape:window-width="1920"
     inkscape:window-height="1001"
     inkscape:window-x="-9"
     inkscape:window-y="-9"
     inkscape:window-maximized="1"
     inkscape:document-rotation="0" />
  <metadata
     id="metadata5">
    <rdf:RDF>
      <cc:Work
         rdf:about="">
        <dc:format>image/svg+xml</dc:format>
        <dc:type
           rdf:resource="http://purl.org/dc/dcmitype/StillImage" />
        <dc:title></dc:title>
      </cc:Work>
    </rdf:RDF>
  </metadata>
  <g
     inkscape:label="Layer 1"
     inkscape:groupmode="layer"
     id="layer1"
     transform="translate(0,-197)">
    <path
       style="fill:#000000;stroke-width:0.21186441"
       d="m 8.9736396,293.84411 c 0,-4.37189 -0.319419,-7.15895 -1.083094,-9.45041 -0.34951,-1.04873 -1.715137,-4.00424 -3.034726,-6.5678 -1.319589,-2.56356 -2.655195,-5.37504 -2.968012,-6.24774 C 0.50977158,267.73371 -0.00814142,264.04202 9.6577767e-5,258.12251 0.00899658,251.74717 0.45340158,249.8761 2.4186416,247.94041 c 1.024475,-1.00907 1.083168,-1.03493 2.534508,-1.11694 1.860232,-0.10511 2.496577,0.1506 3.696845,1.48559 1.308086,1.45491 1.7237034,2.75986 2.5468114,7.99643 0.903015,5.74494 1.661579,9.33788 2.210604,10.47053 0.234712,0.48421 1.335473,2.07213 2.446134,3.52869 1.110662,1.45657 2.91353,3.82195 4.006374,5.25639 1.092844,1.43444 2.308195,3.24067 2.70078,4.01384 l 0.71379,1.40577 0.06025,8.00946 0.06025,8.00946 H 16.184316 8.9736396 Z m 67.3728824,-5.82734 v -8.98287 l 0.79449,-1.17513 c 0.43697,-0.64632 2.00295,-2.55147 3.47996,-4.23368 3.38497,-3.85522 5.28085,-6.20099 5.9631,-7.37815 0.58004,-1.0008 1.32935,-4.6828 1.95275,-9.59544 0.40048,-3.15598 0.9337,-5.40971 1.5903,-6.72159 0.5326,-1.06415 1.75178,-2.40944 2.5754,-2.84181 0.74379,-0.39046 2.98998,-0.38648 3.75019,0.007 0.67728,0.35023 1.77509,1.53758 2.22365,2.405 1.27613,2.46776 1.507768,11.83552 0.44216,17.88083 -0.51975,2.94853 -1.1844,4.64058 -3.79375,9.65807 -4.10387,7.89126 -4.32791,8.65416 -4.50878,15.35294 L 90.691572,297 h -7.17252 -7.17253 z m -30.29661,2.91809 c -0.291314,-0.0412 -1.340043,-0.18069 -2.330509,-0.31005 -4.887226,-0.63828 -9.762404,-2.22405 -14.745489,-4.79634 l -1.2921,-0.66699 -0.146207,-2.29067 c -0.396261,-6.20832 -0.828869,-7.13764 -5.849257,-12.56518 -3.610765,-3.9036 -4.696489,-5.3966 -5.261062,-7.23456 -0.23777,-0.77406 -0.77942,-3.62642 -1.203666,-6.33858 -1.196815,-7.65111 -1.949839,-10.12436 -3.681507,-12.09164 -1.381975,-1.57 -3.9628384,-2.48732 -6.1152034,-2.17353 l -0.900424,0.13127 v -1.00322 c 0,-2.63773 1.068656,-7.93864 2.370144,-11.75676 4.7079274,-13.81144 17.4242954,-25.62807 31.4792954,-29.252 4.610021,-1.18864 6.024288,-1.34716 12.019205,-1.34716 5.898013,0 7.473369,0.17011 11.855307,1.28013 13.932043,3.52923 26.652483,15.1696 31.460643,28.78937 1.27153,3.6018 2.54341,9.5854 2.55045,11.99867 l 0.002,0.76985 -2.06568,0.0865 c -3.19867,0.13396 -5.06438,1.17248 -6.86202,3.81962 -2.07642,3.05765 -3.26032,7.34909 -4.10865,14.89315 -0.23075,2.05195 -0.47433,3.25993 -0.79035,3.91949 -0.29369,0.61294 -1.8974,2.42867 -4.49102,5.08475 -5.55642,5.6902 -5.83482,6.28653 -5.83482,12.49786 v 3.32985 l -2.364045,1.10887 c -4.325241,2.02879 -9.489358,3.48742 -14.267315,4.02989 -1.762119,0.20007 -8.208038,0.25982 -9.427966,0.0874 z m 7.258959,-12.63492 c 4.242437,-1.94225 6.135392,-7.40076 5.814592,-16.76691 -0.252935,-7.38472 -1.817524,-11.90869 -4.820119,-13.93726 -1.406604,-0.95032 -2.440621,-1.23173 -4.525744,-1.23173 -3.835112,0 -6.670491,2.2944 -8.033921,6.50108 -0.74968,2.31304 -0.952708,3.45295 -1.203515,6.75721 -0.431032,5.67866 0.477186,11.62051 2.348529,15.3648 0.772265,1.54519 1.511882,2.40566 2.632015,3.0621 1.229943,0.7208 2.393367,0.93396 4.679021,0.85729 1.522149,-0.0511 2.173121,-0.17806 3.109142,-0.60658 z M 37.151607,238.98456 c 1.471985,-0.57665 3.006074,-1.73793 4.149292,-3.14093 2.3474,-2.88084 2.62675,-7.3634 0.662727,-10.6344 -0.896846,-1.49366 -3.004943,-3.44927 -4.460505,-4.13786 -6.230239,-2.94737 -13.497449,1.88715 -13.484593,8.97065 0.0076,4.1929 2.609765,7.85992 6.47992,9.13166 1.709171,0.56164 4.973612,0.46884 6.653159,-0.18912 z m 31.972254,0.19843 c 2.590481,-0.80625 4.833701,-2.7712 6.018211,-5.27164 0.63696,-1.34459 0.67479,-1.56121 0.67479,-3.8646 0,-2.34637 -0.0278,-2.49701 -0.72279,-3.91949 -0.93299,-1.90956 -3.0375,-4.02751 -4.914711,-4.9461 -4.297699,-2.10302 -9.536528,-0.58173 -12.126761,3.52146 -1.949222,3.08777 -1.934112,7.62126 0.03493,10.48198 1.310589,1.90409 3.344954,3.43802 5.441193,4.10271 1.308426,0.41489 4.093771,0.36295 5.595136,-0.10432 z"
       id="path826"
       inkscape:connector-curvature="0" />
  </g>
</svg>
