<svg width="100" height="100" version="1.1" viewBox="0 0 100 100" xmlns="http://www.w3.org/2000/svg">
 <path d="m65.784 98.765c-0.02008-1.3209-0.84183-6.7836-1.2942-8.6035-1.0375-4.1737-3.2654-6.1251-8.2289-7.2081-2.4047-0.52466-2.4198-0.54864-0.54096-0.86087 4.2954-0.71388 6.6177-2.0075 7.8829-4.3909 0.78528-1.4794 1.7084-6.2676 2.2367-11.602 0.11643-1.1755 0.29727-0.34014 0.79598 3.6768 0.4977 4.0087 1.0928 6.6671 1.7848 7.9729 0.68645 1.2953 2.0204 2.5153 3.3944 3.1044 1.4754 0.63262 4.3579 1.3638 5.3944 1.3684 0.42156 2e-3 0.66103 0.08814 0.58229 0.20992-0.07355 0.11371-0.36053 0.20674-0.63772 0.20674-0.69536 0-4.0246 0.93891-5.1983 1.466-3.3963 1.5253-4.8721 4.7098-5.5485 11.972-0.25364 2.7235-0.59952 4.2162-0.62275 2.6876zm-34.624-4.7722c2.16e-4 -0.57838-1.5435-12.565-2.0729-16.096-1.3007-8.6742-3.001-13.98-5.7011-17.79-0.98618-1.3917-3.4032-3.6399-5.019-4.6683-3.7681-2.3985-9.5727-4.3917-16.269-5.5866-1.1536-0.20583-2.0974-0.43769-2.0974-0.51522 0-0.0776 0.65727-0.20823 1.4606-0.29043 2.503-0.25608 8.2905-1.4708 10.742-2.2546 10.653-3.4057 14.47-8.9733 16.772-24.461 0.61007-4.1053 2.1853-16.852 2.1853-17.684 0-0.12363 0.04417-0.18257 0.09817-0.13099 0.05399 0.051599 0.49212 3.2535 0.9736 7.1153 2.1795 17.48 3.4566 22.75 6.6606 27.482 3.4737 5.1305 10.358 8.3038 21.209 9.777 1.4578 0.19791 2.6507 0.4296 2.6507 0.51489 6.3e-5 0.08533-0.21898 0.15534-0.48676 0.15569-0.26778 4.11e-4 -1.5022 0.18895-2.7431 0.41914-12.021 2.2299-18.499 5.8721-22.079 12.415-2.7714 5.0646-4.0185 10.949-5.5382 26.133-0.30712 3.0684-0.60041 5.6191-0.65174 5.6681-0.05134 0.04899-0.0933-0.04266-0.09323-0.20369zm51.933-45.173c0-0.49878-1.1248-8.6899-1.4313-10.423-1.4191-8.0242-4.1449-10.961-11.913-12.835-1.3737-0.33147-2.7307-0.60266-3.0155-0.60266-1.0671 0-0.46689-0.35966 0.8136-0.48754 2.0706-0.20678 5.5416-1.1077 7.2732-1.8879 0.91351-0.41156 2.0713-1.1593 2.7635-1.7847 2.7818-2.5137 3.7305-5.4848 4.9738-15.577 0.30774-2.4982 0.58589-4.5674 0.61809-4.5981 0.0322-0.030818 0.32807 2.0597 0.65749 4.6456 0.99442 7.8059 1.6573 10.718 2.9859 13.118 0.89953 1.6248 2.8226 3.3206 4.7649 4.2019 1.6763 0.76056 5.065 1.6502 7.1437 1.8754 1.1986 0.12985 1.7565 0.49458 0.75734 0.49514-0.87225 4.12e-4 -4.932 1.0232-6.61 1.6651-1.8702 0.71549-4.0239 2.1079-5.0176 3.244-1.0113 1.1562-2.3081 3.8536-2.808 5.8411-0.48334 1.9214-1.1507 6.4933-1.539 10.544-0.13627 1.4213-0.28575 2.623-0.3322 2.6704-0.04644 0.04738-0.08445 6.13e-4 -0.08445-0.10394z"/>
</svg>
