<?xml version="1.0" encoding="UTF-8" standalone="no"?>
<!-- Created with Inkscape (http://www.inkscape.org/) -->

<svg
   xmlns:dc="http://purl.org/dc/elements/1.1/"
   xmlns:cc="http://creativecommons.org/ns#"
   xmlns:rdf="http://www.w3.org/1999/02/22-rdf-syntax-ns#"
   xmlns:svg="http://www.w3.org/2000/svg"
   xmlns="http://www.w3.org/2000/svg"
   xmlns:sodipodi="http://sodipodi.sourceforge.net/DTD/sodipodi-0.dtd"
   xmlns:inkscape="http://www.inkscape.org/namespaces/inkscape"
   width="100mm"
   height="100mm"
   viewBox="0 0 100 100"
   version="1.1"
   id="svg8"
   sodipodi:docname="radiant.svg"
   inkscape:version="0.92.4 (5da689c313, 2019-01-14)">
  <defs
     id="defs2" />
  <sodipodi:namedview
     id="base"
     pagecolor="#ffffff"
     bordercolor="#666666"
     borderopacity="1.0"
     inkscape:pageopacity="0.0"
     inkscape:pageshadow="2"
     inkscape:zoom="0.98994949"
     inkscape:cx="-49.022079"
     inkscape:cy="182.82383"
     inkscape:document-units="mm"
     inkscape:current-layer="layer1"
     showgrid="false"
     inkscape:window-width="1366"
     inkscape:window-height="715"
     inkscape:window-x="-8"
     inkscape:window-y="-8"
     inkscape:window-maximized="1" />
  <metadata
     id="metadata5">
    <rdf:RDF>
      <cc:Work
         rdf:about="">
        <dc:format>image/svg+xml</dc:format>
        <dc:type
           rdf:resource="http://purl.org/dc/dcmitype/StillImage" />
        <dc:title></dc:title>
      </cc:Work>
    </rdf:RDF>
  </metadata>
  <g
     inkscape:label="Layer 1"
     inkscape:groupmode="layer"
     id="layer1"
     transform="translate(0,-197)">
    <path
       style="fill:#000000;stroke-width:0.21069397"
       d="m 65.722294,295.57749 c -0.02,-1.31581 -0.838585,-6.75748 -1.289229,-8.57035 -1.033497,-4.15759 -3.252793,-6.10157 -8.197263,-7.18037 -2.395434,-0.52264 -2.410448,-0.54653 -0.538882,-0.85756 4.278875,-0.71113 6.592226,-1.99973 7.852525,-4.37405 0.782259,-1.47373 1.701853,-6.2435 2.228117,-11.55687 0.115981,-1.17095 0.296126,-0.33883 0.792919,3.66266 0.49578,3.99331 1.088588,6.64149 1.777894,7.94218 0.683805,1.29031 2.012668,2.50564 3.381315,3.09248 1.469728,0.63018 4.341155,1.3586 5.373596,1.36317 0.419939,0.002 0.658483,0.0878 0.580048,0.20911 -0.07327,0.11327 -0.35914,0.20594 -0.635266,0.20594 -0.692684,0 -4.009129,0.9353 -5.178304,1.46038 -3.383195,1.5194 -4.853378,4.69166 -5.527115,11.926 -0.252662,2.71301 -0.597214,4.2 -0.620355,2.67728 z m -34.49054,-4.75388 c 2.15e-4,-0.57616 -1.537596,-12.51695 -2.064913,-16.03364 -1.295666,-8.64081 -2.98941,-13.92619 -5.679139,-17.72196 -0.982386,-1.38635 -3.390118,-3.62588 -4.999637,-4.65038 -3.75362,-2.38926 -9.5358648,-4.37478 -16.2067156,-5.5651 C 1.1322071,246.64749 0.192,246.41652 0.192,246.33929 c 0,-0.0773 0.65474175,-0.20743 1.4549796,-0.28931 2.4933956,-0.2551 8.2586193,-1.46514 10.7007924,-2.2459 10.611633,-3.39259 14.414408,-8.93877 16.707005,-24.36642 0.607719,-4.08954 2.176867,-16.78728 2.176867,-17.61547 0,-0.12315 0.044,-0.18187 0.09779,-0.13049 0.05378,0.0514 0.49022,3.24096 0.969855,7.08792 2.171063,17.41323 3.443282,22.66248 6.634994,27.37643 3.460375,5.11074 10.317782,8.27185 21.127472,9.73934 1.452226,0.19715 2.640463,0.42795 2.640526,0.51291 6.3e-5,0.085 -0.218133,0.15474 -0.484882,0.15509 -0.266746,4.1e-4 -1.496408,0.18822 -2.732584,0.41753 -11.975023,2.22132 -18.427466,5.84954 -21.994029,12.36726 -2.760755,5.04515 -4.003046,10.907 -5.516923,26.03204 -0.305936,3.0566 -0.598094,5.59744 -0.649236,5.6463 -0.05114,0.0488 -0.09294,-0.0425 -0.09287,-0.20291 z m 51.732631,-44.99938 c 0,-0.49686 -1.120496,-8.65649 -1.425742,-10.38246 -1.413644,-7.9933 -4.128946,-10.91873 -11.86763,-12.78603 -1.368397,-0.33019 -2.720143,-0.60034 -3.00388,-0.60034 -1.062992,0 -0.465095,-0.35828 0.810466,-0.48566 2.062581,-0.20598 5.520221,-1.10348 7.245233,-1.88066 0.909996,-0.40998 2.063276,-1.15483 2.752814,-1.77788 2.771108,-2.50398 3.716121,-5.46367 4.954615,-15.51743 0.30656,-2.48859 0.583633,-4.54979 0.615709,-4.58043 0.03208,-0.0307 0.326808,2.0518 0.654955,4.62768 0.990589,7.77589 1.650929,10.67695 2.974437,13.06756 0.896065,1.61852 2.811691,3.30779 4.746552,4.1857 1.669806,0.75763 5.045463,1.64382 7.116185,1.86816 1.193985,0.12935 1.749731,0.49268 0.754432,0.49323 -0.868901,4.1e-4 -4.91306,1.01922 -6.584555,1.65868 -1.863018,0.71274 -4.008366,2.09976 -4.998264,3.23151 -1.007431,1.15178 -2.299177,3.83882 -2.797223,5.81864 -0.481475,1.91397 -1.146237,6.46828 -1.533067,10.50315 -0.135742,1.41587 -0.284654,2.61292 -0.330919,2.66011 -0.04626,0.0472 -0.08412,6.1e-4 -0.08412,-0.10354 z"
       id="path904"
       inkscape:connector-curvature="0" />
  </g>
</svg>
