<svg width="100" height="100" version="1.1" viewBox="0 0 100 100" xmlns="http://www.w3.org/2000/svg">
 <path d="m39.048 0.102c-0.3912 8.8538-4.6155 18.513-12.438 26.337-7.777 7.7779-17.444 12.078-26.256 12.511 10.668 3.6795 22.998 1.253 31.509-7.2587 8.5108-8.5117 10.923-20.894 7.1856-31.589zm-39.048 1.0068v24.736c2.042 0.78496 4.2874 1.2465 6.5793 1.2465 10.073 0 18.151-8.0751 18.151-18.144 0-2.7627-0.76789-5.4292-1.9466-7.8389h-22.784zm55.686 0.89972c-0.53966 12.219-6.3618 25.552-17.158 36.348-10.733 10.734-24.074 16.666-36.235 17.264 14.723 5.0773 31.735 1.7278 43.481-10.019 11.789-11.79 15.069-28.833 9.9122-43.594zm18.697 0.56654c-0.72267 16.36-8.5151 34.211-22.97 48.667-14.372 14.372-32.238 22.315-48.52 23.117 19.712 6.798 42.491 2.3107 58.218-13.418 15.786-15.787 20.178-38.602 13.272-58.365zm21.704 4.6991c-0.89417 20.243-10.544 42.325-28.429 60.212-17.782 17.783-39.886 27.618-60.032 28.609 24.391 8.411 52.578 2.8626 72.037-16.598 19.532-19.533 24.969-47.77 16.424-72.224z"/>
</svg>
