<svg width="100" height="100" version="1.1" viewBox="0 0 100 100" xmlns="http://www.w3.org/2000/svg">
 <path d="M75.38,36.94s-.46,6.5-.67,7.29l-.06.23a.93.93,0,0,1-1.6.4,4.71,4.71,0,0,1-.42-.51,3.19,3.19,0,0,1-.79-2.75c.25-1.17.46-3.41.46-3.41s-2.3,4.62-1.8,6.08,2.59,3.12,2.63,4.33-3.09,4.46.54,6.67c0,0-1.29,6.78-4.58,7.53a18.1,18.1,0,0,0-5.77,2c.09-3.64,1-5.15,1.3-5.57a14.58,14.58,0,0,1,3.59-.22,12.48,12.48,0,0,0-3.71-.71c-1.45.09-4.7,3.25-5,3.67s-.09,2-.09,2,.42-1.54,1.21-2,.92-1,1.16-.46-.33,5.58-.41,6.08.45,2.55.33,2.8-1,1.83-1.66,1.74a3.76,3.76,0,0,1-1.25-.41l-.67-2.58a11.46,11.46,0,0,1-.75,2.95,4.84,4.84,0,0,1-2.54.46,22,22,0,0,1-1.21-2s.39,2.45,0,2.74a2.85,2.85,0,0,1-1.19.22,3,3,0,0,1-.41-.54,15.37,15.37,0,0,1-.24-1.58s-.42.74-.51,1a1.53,1.53,0,0,1-.25.69,4.58,4.58,0,0,0-.54.16h-.13v0l-.16,0a2.11,2.11,0,0,1-1.11.08,1.51,1.51,0,0,1-.56-.24c-.37-.3-.33-2.59-.33-2.59a22,22,0,0,1-1.21,2,4.84,4.84,0,0,1-2.54-.46,11.46,11.46,0,0,1-.75-2.95l-.67,2.58a3.76,3.76,0,0,1-1.25.41c-.3,0-.72-.26-1.1-.63a2.33,2.33,0,0,1-.56-1.11c-.12-.25.41-2.29.33-2.8s-.67-5.58-.42-6.08.38,0,1.17.46,1.21,2,1.21,2,.21-1.58-.09-2-3.53-3.58-5-3.67a12.48,12.48,0,0,0-3.71.71,15.11,15.11,0,0,1,3.46.19c.29.38,1.21,1.85,1.32,5.53a18.54,18.54,0,0,0-5.66-2c-3.29-.75-4.58-7.53-4.58-7.53,3.62-2.21.5-5.46.54-6.67s2.13-2.88,2.63-4.33-1.8-6.08-1.8-6.08.21,2.24.46,3.41a3.16,3.16,0,0,1-.79,2.75,4.71,4.71,0,0,1-.42.51.93.93,0,0,1-1.6-.4l-.06-.23c-.21-.79-.67-7.29-.67-7.29.59,1.37-2.12-4.46,5.85-14,4.12-4.94,11.51-7.41,16.78-7.8,1.23-.09,2.41,0,3.64,0,5-.07,11.63,2.89,16.39,7.21,7.62,6.92,5.65,16,6.24,14.63M46.4,47.6s.68,2.25.25,2.69S42.71,43.83,37.21,44c-5.85.23-7.54,11.94,1.19,11.81,6.3-.09,6.25-6.68,7.12-4.81s-1.69,5.31-1.69,5.31C50.77,52,46.4,47.6,46.4,47.6M50,58.22a14.68,14.68,0,0,1-.4-3.67c.2-1,.33-2.83-.78-1.38S44.48,60.7,45.4,63s3.43,5.1,4.42,1.75c0,0,.28-5.48.14-6.53M52.5,53.8s-1.64-2.82-1.77-1,1.11,4.41,1.05,5.72-1.06,8.06,1,7.88c3.48-.3,4.46-6.5-.33-12.55m16.63-2.45s.5-7.5-5-7.31a9.41,9.41,0,0,0-5.64,2.46,31,31,0,0,0-3.23,3.39s-.84.65-1.8-1.91l-.27-.79c-.54-1.53-1.08-2.83-1.17-2.52,0,0,.57,5,1.14,6.17a30.76,30.76,0,0,0,4.35,5.51S54.94,52.92,55.82,51s.85,4.22,7.13,4.81c5.3.5,6.31-2.75,6.18-4.5M66.6,72.76a10.77,10.77,0,0,1,.51-6.83,2.81,2.81,0,0,0-.5-1.75s-5.5,3.16-3.42,8.5c0,0-1.42,2.83-1.67,3.08l-.28.37c-.29-.67-.66-1.37-.66-1.37a10.32,10.32,0,0,0-1.91.17c-.67.16-1.5,3.16-1.5,3.16a10.81,10.81,0,0,0-1.25-2.66c-.42-.25-2.25.25-2.25.25l-.42,1.83a12.14,12.14,0,0,0-1-1.25,2.91,2.91,0,0,0-2.17-.67c-.5,0-2.08,2.75-2.08,2.75l-.58-2.83a6.3,6.3,0,0,0-2.5-.5c-.84.17-1.48,2.24-1.48,2.24s-.6-2.07-1.19-2.16-1.66.92-1.91.67-1.67-3.08-1.67-3.08c2.08-5.34-3.42-8.5-3.42-8.5a2.81,2.81,0,0,0-.5,1.75,10.77,10.77,0,0,1,.51,6.83,6,6,0,0,0,2.16,6.09c2,1.75,6.83,5.75,8.25,6.83s5.26,1.16,5.26,1.16,3.85-.08,5.26-1.16,6.25-5.08,8.25-6.83a6,6,0,0,0,2.16-6.09m-46.74.46s-.37,13.5,3.62,16.13S33,92,31.36,86.47s-10-4.25-11.5-13.25m-10.25-31C11.49,37.35,8,33.1,11.74,25.85c0,0-8.75,4.5-10.38,12.25s6.38,9,8.25,4.13m12,7.5c-1.12-6.88-4.37-5-2.75-12.38,0,0-8.12,7.25-6,14.5s9.87,4.75,8.75-2.12M51.48.23c-5-.62-8.62,0-9.75,2.13s-.25,7.12,3.63,6.74,8-3.87,15.5-2.87c0,0-4.38-5.37-9.38-6m27,18.25c3.87,1,5.87,5.25,5.87,5.25,1.63-16-10.87-20-12.87-13.5s3.13,7.25,7,8.25M5.86,55.23S1,69.22,6.61,73.35s10.25-1,5.13-7.63S6.36,61.48,5.86,55.23M21,10.1c-3.63,2.13-6.5,8.13-2.75,10.25s7-1.37,8.62-4,3.5-6.25,8-7.87c0,0-10.25-.5-13.87,1.62M53.48,91.72C46.73,91.22,51.61,96,38,94.1c0,0,7.5,6.37,13.5,5.87s8.75-7.75,2-8.25m18.25-6.5a24.13,24.13,0,0,1-8,7.38C72.36,94.47,81.6,91.35,82,86s-6.87-5.75-10.25-.75m12.5-21.87c-4.62-3.62-7.25,1.13-7.62,6.25A11.92,11.92,0,0,1,72,77.72C80.73,76.6,88.85,67,84.23,63.35m-1-32.12c-5.62,4-.88,10.12.37,13.12s-.37,6.75-.37,6.75c11.87-7.25,5.62-23.87,0-19.87m11,16.62c-4.88,2.38-3.63,7.63-2.5,10.63s-.63,8-.63,8c11.63-6,8-21,3.13-18.62"/>
</svg>
