<?xml version="1.0" encoding="UTF-8" standalone="no"?>
<svg
   width="100"
   height="100"
   version="1.1"
   viewBox="0 0 100 100"
   id="svg4"
   sodipodi:docname="lox.svg"
   xml:space="preserve"
   inkscape:version="1.2.2 (732a01da63, 2022-12-09)"
   xmlns:inkscape="http://www.inkscape.org/namespaces/inkscape"
   xmlns:sodipodi="http://sodipodi.sourceforge.net/DTD/sodipodi-0.dtd"
   xmlns="http://www.w3.org/2000/svg"
   xmlns:svg="http://www.w3.org/2000/svg"><defs
     id="defs8" /><sodipodi:namedview
     id="namedview6"
     pagecolor="#ffffff"
     bordercolor="#000000"
     borderopacity="0.25"
     inkscape:showpageshadow="2"
     inkscape:pageopacity="0.0"
     inkscape:pagecheckerboard="0"
     inkscape:deskcolor="#d1d1d1"
     showgrid="false"
     inkscape:zoom="8.29"
     inkscape:cx="43.365501"
     inkscape:cy="49.939686"
     inkscape:window-width="1920"
     inkscape:window-height="1009"
     inkscape:window-x="-8"
     inkscape:window-y="-8"
     inkscape:window-maximized="1"
     inkscape:current-layer="svg4" /><path
     d="M 39.13182,93.847656 C 34.191216,88.526055 32.927385,86.994703 29.70208,82.421875 23.290962,73.332211 19.82393,64.842457 19.260064,56.85241 c -0.230914,-3.272086 -0.22473,-3.301457 0.883145,-4.194879 0.613628,-0.494843 2.123532,-1.894039 3.355343,-3.109316 1.758405,-1.734809 2.373802,-2.671047 2.863951,-4.357102 0.944645,-3.249465 -0.02806,-6.164752 -2.385587,-7.149788 -1.720742,-0.718972 -3.500525,-0.405363 -5.732475,1.010097 -4.559318,2.891433 -7.504016,9.268949 -8.5322777,18.478883 -0.2212113,1.981343 -0.4622727,3.662511 -0.5356918,3.735933 -0.417609,0.41761 -0.7754192,-4.533 -0.7578133,-10.484988 0.017863,-6.03866 0.137793,-7.291523 1.0282996,-10.742188 C 12.193648,29.395792 17.590136,19.997996 25.581438,11.941429 l 3.90175,-3.9336165 0.230077,3.5156255 c 0.420745,6.429071 2.798379,11.385702 7.784833,16.228967 1.44798,1.4064 3.78564,3.308267 5.1948,4.226371 2.510243,1.635488 3.400852,2.890307 3.400852,4.791613 0,0.602861 -0.47527,0.435323 -3.000844,-1.057838 C 34.076404,30.381847 28.197847,23.16113 27.801035,16.92932 c -0.08791,-1.380632 -0.312933,-2.458634 -0.500048,-2.395561 -0.685421,0.231044 -5.911006,6.457642 -8.127994,9.684991 -3.476682,5.061134 -5.948961,10.268515 -7.291683,15.358531 -0.59394,2.251524 -0.102646,1.999199 0.622033,-0.319469 1.592384,-5.094961 7.120277,-14.571783 11.714569,-20.083037 l 2.088146,-2.504913 0.649371,2.3096 c 1.388352,4.937916 3.795371,8.73507 7.897546,12.458652 2.556657,2.3207 7.785048,5.750474 9.971162,6.540981 1.092961,0.39522 1.269613,0.643634 1.269613,1.78535 0,2.114731 -1.117645,5.388957 -2.582555,7.565813 -1.927531,2.864293 -1.975043,2.995203 -0.634476,1.748043 2.640711,-2.456707 5.042476,-8.996129 4.682816,-12.750176 -0.09262,-0.966797 -0.81666,-3.227389 -1.608965,-5.023537 l -1.440554,-3.265725 1.002941,-5.328025 c 1.146797,-6.092257 1.616398,-7.540643 2.164148,-6.674841 0.196793,0.311061 0.387028,1.1808 0.422739,1.932753 0.0357,0.751953 0.191687,0.04883 0.346601,-1.5625 0.154918,-1.611328 0.502176,-4.666521 0.771684,-6.7893184 0.269508,-2.1227968 0.401,-4.9685328 0.292211,-6.3238576 -0.143914,-1.7928586 -0.06135,-2.51659033 0.303051,-2.65642365 0.801316,-0.30749431 0.917933,0.0814203 0.689132,2.29826335 -0.118457,1.1477418 0.07399,4.6043781 0.427645,7.6814133 0.35366,3.077036 0.695508,6.209845 0.759664,6.961798 l 0.116648,1.367187 0.323219,-1.689279 c 0.517414,-2.704243 1.144778,-1.339905 2.344508,5.098647 l 1.072016,5.753118 -1.503582,3.42657 c -1.291578,2.943436 -1.49602,3.794893 -1.449961,6.038866 0.02949,1.436762 0.373168,3.628227 0.76373,4.869922 0.771988,2.454356 3.514356,6.824614 4.45609,7.101262 0.388152,0.114023 0.297555,-0.142641 -0.268391,-0.760363 -1.317363,-1.437887 -3.245347,-5.879223 -3.505425,-8.075149 l -0.23386,-1.974585 2.492121,-1.256559 c 5.278672,-2.661575 9.952188,-6.442765 12.940399,-10.469656 1.854215,-2.498726 3.693336,-6.417331 4.045519,-8.619754 0.139969,-0.875312 0.325282,-1.591477 0.411809,-1.591477 0.251707,0 2.457765,2.59163 4.431312,5.205816 3.526016,4.670606 8.286289,13.441192 9.750516,17.964887 0.686914,2.122199 0.867645,1.580266 0.242762,-0.72793 -1.98718,-7.340259 -6.024965,-14.341128 -12.600313,-21.84691 l -3.058012,-3.490733 -0.248011,3.0365 c -0.372852,4.565 -1.892813,7.29397 -6.774488,12.163057 -2.71036,2.703372 -5.049356,4.597403 -7.595692,6.150711 -2.023641,1.234454 -3.761461,2.162346 -3.861824,2.061983 -0.100363,-0.100363 0.03277,-0.951249 0.29584,-1.890859 0.415918,-1.485507 0.817894,-1.928881 3.081246,-3.398551 1.431613,-0.929592 4.011773,-3.110197 5.733695,-4.845788 4.870387,-4.909055 7.220797,-10.182341 7.220797,-16.200287 0,-1.526605 0.149949,-2.775646 0.333215,-2.775646 0.501617,0 7.049629,6.895647 9.08784,9.570312 5.099933,6.692448 8.893929,14.419822 10.932011,22.265625 0.815547,3.139532 0.912137,4.372282 0.902907,11.523438 -0.0066,5.098953 -0.170825,8.362551 -0.452145,8.984375 -0.417055,0.921848 -0.443195,0.886418 -0.466566,-0.632426 -0.03363,-2.184656 -1.075696,-8.107965 -1.847313,-10.500387 -1.723043,-5.342343 -4.96732,-9.64739 -8.374996,-11.113332 -2.484769,-1.06892 -4.076512,-0.852172 -5.627047,0.766239 -0.905281,0.94491 -1.148949,1.59884 -1.282203,3.441047 -0.259668,3.58989 1.417043,6.324992 5.876328,9.58564 1.426934,1.043383 1.464844,1.13541 1.464844,3.555922 0,9.563262 -5.532719,21.368836 -15.637016,33.36586 -3.654457,4.339007 -9.65532,10.502433 -7.842425,8.054874 5.665988,-7.649546 8.658464,-13.933761 9.998195,-20.996234 0.73557,-3.877609 0.735617,-5.989598 2.15e-4,-9.461308 C 66.025969,60.228438 61.83768,54.46559 55.360973,50.077566 52.406668,48.076 52.339594,48.098656 52.37377,51.086477 l 0.03,2.62446 0.470777,-1.5625 c 0.271019,-0.899515 0.714086,-1.5625 1.044199,-1.5625 0.934301,0 0.806316,8.141891 -0.156578,9.960938 -0.466262,0.880832 -0.702195,2.07157 -0.663234,3.347266 0.03324,1.089043 -0.107715,2.422449 -0.313282,2.963125 -0.319035,0.839132 -0.201207,1.145906 0.804864,2.095476 l 1.178621,1.112426 -0.1825,5.690074 c -0.207196,6.460016 -0.929223,9.708254 -3.037032,13.662906 l -1.316304,2.469637 -0.894356,-1.119672 C 46.988793,87.825867 45.3125,81.111184 45.3125,74.639434 c 0,-4.239555 0.01676,-4.318817 1.195738,-5.661622 1.036453,-1.180457 1.134617,-1.476078 0.736895,-2.219226 -0.255258,-0.476957 -0.373371,-1.615641 -0.266207,-2.566402 0.139824,-1.240516 -0.05965,-2.322489 -0.727625,-3.946707 -0.733766,-1.784196 -0.922137,-2.965235 -0.929528,-5.827891 -0.0091,-3.506641 0.355278,-4.59991 1.238571,-3.716617 0.219187,0.219187 0.537441,0.986097 0.70723,1.704246 0.254813,1.077769 0.315688,0.841148 0.348692,-1.355375 l 0.03998,-2.661098 -1.957637,1.065477 c -2.714551,1.477445 -7.838009,6.339535 -9.748306,9.251004 -4.310538,6.56966 -4.743021,15.71698 -1.169725,24.740511 1.436192,3.626774 4.536164,9.1725 6.582922,11.776578 3.348531,4.260325 2.534125,3.758672 -2.231684,-1.374656 z M 47.292492,82.583684 C 47.062871,81.341555 46.875,78.360594 46.875,75.959332 c 0,-4.012836 0.07898,-4.48232 0.976562,-5.80498 0.688407,-1.014422 0.964219,-1.923793 0.934731,-3.081856 L 48.744461,65.429687 48.36,67.1875 c -0.211453,0.966797 -0.763918,2.168 -1.227699,2.669344 -0.774281,0.836984 -0.841504,1.316152 -0.822043,5.859375 0.01898,4.429355 0.71857,9.807035 1.211672,9.313933 0.103429,-0.103425 1.79e-4,-1.20434 -0.229438,-2.446468 z m 6.17284,-1.447297 c 0.86334,-5.958926 0.436344,-11.223512 -0.953566,-11.756871 -0.30725,-0.117903 -0.561332,-0.703286 -0.564621,-1.300852 -0.0033,-0.597562 -0.176379,-1.350148 -0.384645,-1.672414 -0.282105,-0.436527 -0.380187,-0.216832 -0.384645,0.861559 -0.0035,0.883839 0.351981,1.974984 0.913286,2.802109 0.535714,0.789422 1.023171,2.23873 1.168312,3.473625 0.231094,1.966254 -0.223238,8.588621 -0.743101,10.831457 -0.163165,0.703945 -0.123844,0.812992 0.140855,0.390625 0.201961,-0.322266 0.565621,-1.955422 0.808125,-3.629238 z"
     id="path315" /></svg>
