<svg width="100" height="100" version="1.1" viewBox="0 0 100 100" xmlns="http://www.w3.org/2000/svg">
 <path d="M16.37,1.34H16l-1.86,0L14.24,1,16,1.19c.34,0,.47.09.35.15M42.68,14.58a3.75,3.75,0,0,1,.31.52c-.07,1.2-.17,1.88-.34.42,0-.33,0-.63,0-.94M70.26,26H71l.45.06c-.41,0-.81-.06-1.23-.06m3.71.42c-.35-.23-.61-.45.06-.42a12,12,0,0,0-1.68-.17,27.55,27.55,0,0,0-3.64.12l-.41,0-.68-5v5h-.5V20.54H63.05V34.2h4.07V29.59h3.09c6.4,0,11.6,4.63,11.6,10.32s-5.2,10.32-11.6,10.32c-.28,0-.55,0-.83-.06l-1-.08a11.31,11.31,0,0,1-9.06-6.87l.42-2.15c-.23-6.9-.58-3-.94-8.06.26-3.79.22-10,.15-15H73v1.43c0,.68,0,1.34,0,2V22h.11V23h4.07V9.41H73.06v4.95H65.84c1.86-.08,4.46-.12,7-.15,0-1.65-.07-3.33-.1-4.8V9.17h.27c1.65,0,3.08-.09,4.07-.17l.41,0,0,.44a3.93,3.93,0,0,0,.23,1.17l-.06-1.17,0-.58-.6,0L73.06,9h-.5v.43c0,1.49.08,3,.11,4.62l-13.83.12c0-.16,0-.31,0-.48,0-1.13,0-2.27,0-3.41.08-.88.14-1.07.2-.79s.11,1.28.15,1.62c.1,1,.18,2.45.28,2.95-.15-3.35-.26-5.72-.35-7.74h2.2c.38.11.51,0,.54-.22H59.09V6h2.75v.07h2.59c.13,0,.19,0,.21-.07h.9c.24,0,.07-.09.12-.14V5.61l0-1.09c0-.72,0-1.43,0-2.14l-2,0H58.93V2.13l-5.51.18-4.73.09H47.6V6h.13l-.13.12c1.67,0,2.91-.08,3.88-.12h3.05V44.94c0,2.91-2.67,5.29-6,5.29s-6-2.38-6-5.29A4.6,4.6,0,0,1,43,43.12l1.24-.79A13.75,13.75,0,0,1,47,40.82a6.61,6.61,0,0,1,1.59-.25l-1-.85a7.61,7.61,0,0,1,1-.08V37.81c.09-.63.17-1.24.24-1.79l0-.19-.27,0c-.3,0-.58-.05-.83-.05s.12.19.25.3a10.93,10.93,0,0,0-3.6.8L43.46,36l0,.21h0l-.11,0-.27.14c.08-.8.15-1.55.22-2.19,0-1-.06-1.06-.08-1.44s0-.57-.07-.79c0-.43-.07-.69-.09-.82s-.06,0-.08.53-.05,1.18-.08,1.76c0,1-.12,1.81-.25,1.7,0-.32,0-.61,0-.92V31.64a.49.49,0,0,0,0,.07,87.25,87.25,0,0,1,.19-9c0-.94-.08-1.56-.12-2,.17-1.69.38-3.2.54-5.15.2.2.39.12.57-.82.23,3.64.38,7.8.51,11.54.07,1.87.13,3.63.18,5.18.06,1,.11,1.76.18,2.3l-.27-12.44c.39.84.66-9.45,1-2.07,0-2.66.08-5.41.12-8.22V7a7,7,0,0,0-.51-1.23c-.22-.29,0-1,0-1l-.22-.35V3.83l.72-1.43V.5L29,.65,16,.87l-2.59,0,.05,2.21c0,1.25.06,1.73.08,2.9.1-1.35.16-2.26.28-2.9L14,2.28l0,.84c.05,1.6.06,2,.05,2.9l0,1.71,2,0h.31A9.38,9.38,0,0,0,16,9.09a20.7,20.7,0,0,0-.16,3.47,11.07,11.07,0,0,0,.91,6.5,12.67,12.67,0,0,0,3.05,4,14.47,14.47,0,0,0,4.06,2.59,17.12,17.12,0,0,0,5.9,1.39l1.79.11.18-1.85c0-.42.1-1.08.17-1.8l-.66.55c.08-.89.12-1.67.14-2.37l0-1.35-1.67-.09A9.69,9.69,0,0,1,25.11,19a5.56,5.56,0,0,1-2.77-4.66c.07-.33.42,1.91,1.76,3.16A4.49,4.49,0,0,1,23,13.16a7.48,7.48,0,0,1,2.33-3.71,5.79,5.79,0,0,0-1,1.53A4.65,4.65,0,0,0,24,12.59,5.55,5.55,0,0,1,27.43,9c1.47-.47,2.32-.3,1.47,0a26.74,26.74,0,0,1,4.2-.32l2.63-.15c0,.43,0,.87.07,1.31,0,.71,0,1.43,0,2.15,0,2,0,4.13.07,6.2.05,4.15.11,8.22.27,11.8l-.57-.68c.13,1,.2,2.31.25,3.82,0,.8,0,1.71.08,2.65H31.27c-.07,0-.12.08-.24-.15l-.16-.25v-1h-.7l-.09-.13c-.08-.14-.25-.37-.19-.33l.17-.46.34-.87-.32-.15a4.64,4.64,0,0,0-1.07.18c-1.41.48-2.36-.06-3.33-.05a10.75,10.75,0,0,0-.63,1.86,11.44,11.44,0,0,0-.54,1.28s0,.31-.05.82V37l-.06.17a8.47,8.47,0,0,0-.47,2.07,6.23,6.23,0,0,0,.31,2.42,10.12,10.12,0,0,0,.38,1c.05.1.15.37.15.31l0,0a1.31,1.31,0,0,1,.07-.19c0-.06,0,.11,0,.23l0,.38c0,.26.06.51.11.76a11.48,11.48,0,0,0,.82,2.49c.05.43.49.22.72.27h1.29l1.94.13.73.07.14,0V47l0-.11c-.08-.26-.14-.3-.18-.26s-.06.43-.06.19-.13-.46-.19-.68l.56-.33.12-.29a3.77,3.77,0,0,0,.14-.79v-.17c0-.36-.08,0,0-.36a1.64,1.64,0,0,0,0-.22l.07-.1c.29-.2.5-.06.75-.11h1l1.33,0,2.14,0c0,2.47,0,4.74,0,6.85,0,2.71-.09,5.2-.19,7.52.76,1.7,1,12.78,1.06,21.59l0,1.57-.36,1a.72.72,0,0,0-.45.21l-.14.18v0H31.69l-1.42.11h0v.47l.09,3.52a24.29,24.29,0,0,0,3.83.57c-.43,0-1.7-.06-1.7-.06s.27-.18-.4,0l-.51.12a3.73,3.73,0,0,1-.7.06h-.8l2.28.18a.7.7,0,0,1,.26.12,1.84,1.84,0,0,0,.68.12h2.94a3.84,3.84,0,0,1,.94,0c.81.06,1.21.06,1.54.06a4.24,4.24,0,0,0,1.48-.06c.36-.12.64-.2,1-.29,3.17,0,6.28,0,8.48,0l1.5,0V85.83l.26-.84.68,2.63L51.6,81.3s-.24,1.18-.47,2.39V81.24h-7q0-6.37-.08-12.77L44,68.31S44,67.27,44,67A12.36,12.36,0,0,1,44,65.07s0-5,0-6.48l0-3,0-1.52v-.38c.08,0,.21.12.32.17a7,7,0,0,0,.72.37,7.84,7.84,0,0,0,2,.59,8.76,8.76,0,0,0,1.08.11c.45,0,1,0,1.52,0a12.07,12.07,0,0,0,4-1,10,10,0,0,1-.05,1,3.27,3.27,0,0,1-.38.33h-.88l-.1.06h-.9l-.44.08-.47,0-1,.3.47.3-.44.41.26.38v2.48a20.07,20.07,0,0,0,3.21.36,9.14,9.14,0,0,1,2.23.11,10.84,10.84,0,0,0,3.95-.17l.67,0c.31,0,1,0,1.52-.06s1.09-.12,1.59-.2l.74-.12c.19-.06,0-.37.1-.55V56.11c.22-.77-.17-.86-.66-.83V55.2H60.34a1.81,1.81,0,0,0-.06-.27h-1a2.64,2.64,0,0,0,.23.29h-.12l-.19-.29h.08c-.24-.46-.07-.85-.14-1.22l0-1.48c0-.65,0-1.29,0-1.93A17.08,17.08,0,0,0,70.73,54,14.94,14.94,0,0,0,77,52.46c5.26-2.25,8.89-7,8.89-12.55,0-6.53-5.08-12-11.91-13.52M34.88,49.66c-.1-1.1-.28-1.69-.38-2.49-.1-1.18-.12-.91.11-1.55a2.89,2.89,0,0,1,.2.61,3.69,3.69,0,0,1,0,.57c0,.27,0,.55,0,.85,0,.6,0,1.26,0,2M28.66,18.73a4.28,4.28,0,0,1-.58-.12l.58.12m-3.89-.6a4.62,4.62,0,0,1-.67-.65,7.13,7.13,0,0,0,.75.67s0,0-.08,0m42.39,7.81v0a.17.17,0,0,1,0-.2c0-.48,0-.92,0-1.3,0-.72,0-1.19,0-1.19s0,.35,0,.89c0,.28,0,.6,0,.94,0,.18,0,.36,0,.55ZM26.89,18.2a7.06,7.06,0,0,0,1.19.41,4.55,4.55,0,0,1-1.19-.41m59.62,22c-.14,1.15-.27,1.41-.37-.27,0,0,0-.52-.08-1.31a14.41,14.41,0,0,0-.64-2.82,15.15,15.15,0,0,0-1.27-2.64L83.38,32a17.19,17.19,0,0,1,1.35,1.34,12.32,12.32,0,0,1,1.17,1.51,12.7,12.7,0,0,1,.61,5.31M53,47.16a3.93,3.93,0,0,0,.36-.78s0,0,0,0a4.43,4.43,0,0,1-.35.73m-28.19-29c.29.06-.93-1.07-1.23-2.31a6.88,6.88,0,0,0,2.11,2.74c.23.2-.23,0-.88-.43M53.4,46.38A3.85,3.85,0,0,0,53.64,45c0-.53,0-1,0-1.49,0-1.85-.06-3.09-.06-3.09s0,1.16.07,2.9a10.6,10.6,0,0,1-.1,2.76c0,.1-.1.18-.13.27M25.77,17.5l.16.13-.06,0s-.06-.06-.1-.09M24.5,16.09a5.24,5.24,0,0,0,1.27,1.41,7,7,0,0,1-1.42-1.41,5,5,0,0,1-.24-.81,4.43,4.43,0,0,0,.39.81M51.26,48.86A5.4,5.4,0,0,0,52.35,48a5.9,5.9,0,0,1-.55.57,5.91,5.91,0,0,1-6,.46,5.15,5.15,0,0,1-1.61-1.25,4.55,4.55,0,0,1-.45-.6,5,5,0,0,1-.38-1.09,4.06,4.06,0,0,0,.29.71A4.63,4.63,0,0,0,45,48.41a5.78,5.78,0,0,0,6.25.45M71.52,59.71c0-.17.19-.34.29-.53,0,.17-.12.65-.29.53m-5.33.6a3.76,3.76,0,0,1,.39.28l-.39-.28m-.62,1.95.15,0-.15,0M71.39,9.41,71.32,8l1.74-.05,4.07-.13,1.74-.06.07,1.67.17,4.28-.56,2.13c0-1.46,0-2.7,0-3.82,0-1,0-1.8,0-2.59l0-1.26-1.36,0c-1.4,0-2.66,0-4.07,0l-1.32-.06-.11,1.33a13.55,13.55,0,0,1-.16,1.36ZM30,49.28l-.66,0A4.83,4.83,0,0,1,30,49l.25.18.11.08s-.29,0-.41,0m.34.57h-.51l-1,0c1.25,0,.05-.31-.36-.49-.21-.08-.24-.15.29-.16h.61c-.11.05-.09.08,0,.08a1.62,1.62,0,0,1,.53.21l.35.23a.35.35,0,0,1,.09.07M44.82,96.09c-.22.43.21.61.11,1.06-.09-.12,0-.36-.29-.38-.09.11-.3.81-.79.83,0,.35.34.38.16.74l-.5-.22c-.2.29-.47.27-.64.68l.4,0c-.61.14-1,.73-1.64.49l0,.16H40.6l-.63,0-.23-.08A3.9,3.9,0,0,1,38,98.81c-.87-.11-1.57-.8-2.31-.79.18-.07.36.14.46-.1-.37-.64-1,0-1.14-.62-.45,0,.13.55-.36.39,0-.46.56-.85-.23-1.13-.34.17.12.36-.41.25.73-.83.65-1.88,1.13-2.26l-.48.09c-.15-.54.53-.42.42-.74-.28-.21-.1-.52.05-.77s.25-.45-.2-.75l.46,0-.22-.3.28.13c.38-.66-1.53-.83-.75-1.66A.94.94,0,0,1,35,91c.27.09.35-.16.45-.4l.37.28c.16-.08,0-.28,0-.4.35.72.76,0,1,.15l-.31-.34a2.11,2.11,0,0,0,.89.44l-.18-.46c.2.11.55.28.49-.08l.3.64c.06-.49.18.08.37-.34l-.25-.38c.34.26.55.74.8.84s.29-.29.53-.17a.46.46,0,0,0,0,.1,4,4,0,0,1,1.16-.18,4.53,4.53,0,0,1,.53,0c.05-.2.13-.37.35-.4a.85.85,0,0,0-.32.4,4.13,4.13,0,0,1,.61.13c.06-.09.14-.18.19-.27a.76.76,0,0,1-.05.31,3.65,3.65,0,0,1,2.17,1.83c.08,0,.18-.07.18-.13a2.19,2.19,0,0,1,.46.86,1.24,1.24,0,0,0,.1.3l0,.06,0,.22,0,.22c.06.62,0,1.23.08,1.89ZM73.75,65.42l-.07,0s.07-.06.1-.1,0,.23,0,.36c-.11-.12-.18-.26,0-.22m-2.47.82h0l.21.51-.21-.51m-4.1-5.19-.13-.11.14.1h0M75,62.17a5.14,5.14,0,0,0-.46-.87c-.09-.13-.19-.25-.29-.37s-.07-.06-.12-.09l-.15-.09-.3-.18-.08,0,0,0-.45.35,0,0a.6.6,0,0,0-.42-.51.43.43,0,0,1-.13.05A5.3,5.3,0,0,0,72,60.1L72,60c-.17,0-.2-.07-.3,0l-.11,0v0l0,0L71,59.76a3.47,3.47,0,0,1,.22-.29l-.29.27h0a.5.5,0,0,1,0-.38,2,2,0,0,0-.08.38,4.21,4.21,0,0,0-.63-.06,4,4,0,0,0-3,1.34l-.2-.13,0,0,.18.12a.91.91,0,0,1-.16-.11h0s0,0-.06,0,0,0,0,0l-.42-.3h0l-.35-.24.35.24c-.37-.17-.17.17-.23.28l.26.09c.33-.16-.41.7-.64,1.38l-.21,0,.21,0-.4-.07.4.08-.2,0,.19,0h0a1,1,0,0,0-.08.23l-.08-.2a3.94,3.94,0,0,0,.08.69,1.25,1.25,0,0,0-.09.12,9.62,9.62,0,0,0,.35,1.26l-.2,0a.73.73,0,0,0,.21,0,3.35,3.35,0,0,0,.15.35l-.16.06c-.16,0,.14-.16-.21,0,0,0-.18.11-.08.16l.48-.17c.07.12.19.25.27.37a1.41,1.41,0,0,1-.24.16c-.22.08,0-.18-.1-.16l-.26.17v-.11c-.22.2-.4.28-.29.33l.15-.1s0,.06,0,.07l-.48.28c.26-.08-.27.37.15.24l-.1.05c0,.13.87-.46,1-.48l-.62.42c.25-.13-.1.15-.19.27.23-.23.5-.31.62-.45.44-.32.49-.27.46-.21-.55.44-.39.16-.93.63,0,.06.3-.17.38-.27,0,.08,0,.18-.36.47a5.85,5.85,0,0,0,.8-.51s-.43.32-.24.12l.42-.3c.06,0-.26.32-.28.39l-.2.12.06,0c-.18.13-.11,0-.41.27.4-.29.06,0,.35-.15l-.06,0c.36-.22-.49.6.28,0A2.5,2.5,0,0,1,67,66c-.17.17-.08.14-.29.34l-.08.05c0,.08,0,.13,0,.07.26-.24.45-.43.61-.55-.12.19-.61.55-.8.79l.32-.22-.22.23c-.15.29.64-.43.7-.39-.37.4-.57.53-.61.53-.31.37.17-.08,0,.19,0,.08.31-.26.51-.49s-.18.25-.24.33c.39-.43.3-.25.41-.33l-.21.25.31-.28.27-.33,0,0-.44.48c.08-.06.06,0-.1.23.46-.51-.07.24.46-.36-.06.07-.21.29-.22.3s.12,0,.34-.18c0,0-.12.22-.23.4s.76-.64.79-.31l-.16.23c0,.07.08.2.3-.11-.12.43.08.35.27.28s.13-.18.85.4A1.69,1.69,0,0,0,71,67.37c.19-.13.16-.21.51-.39a5.36,5.36,0,0,0,2-1.5l.2.17v.21c0,.12.56,0,1.18-1.32a3.39,3.39,0,0,0,.13-1.91,4.11,4.11,0,0,0-.15-.46"/>
</svg>
