<svg width="100" height="100" version="1.1" viewBox="0 0 100 100" xmlns="http://www.w3.org/2000/svg">
 <defs>
  <style>.cls-1{fill:#00040c;}</style>
 </defs>
 <path class="cls-1" d="m19.131 8.0293-18.631 0.0097656 73.381 73.371v-18.631l-54.75-54.75zm8.1387 0 8.1504 8.1602 8.1504-8.1602h-16.301zm46.6 0-8.7383 8.7402 16.898 16.91-16.889 16.91 8.7402 8.7305 25.619-25.641-25.631-25.65zm-22.129 0.0097656-14.561 14.561 8.75 8.7598 23.26-23.32h-17.449zm11.658 15.16-10.479 10.479 10.479 10.479 10.48-10.479-10.48-10.479zm-31.459 19.811v37.301l11.65 11.66v-37.301l-11.65-11.66zm30.291 30.311v18.65h11.65v-7l-11.65-11.65z"/>
</svg>
