<svg width="100" height="100" viewBox="0 0 100 100" xmlns="http://www.w3.org/2000/svg">
 <path d="m44.149 97.148c-6.7106-3.4031-8.674-4.6244-12.777-7.9476-9.104-7.3741-15.226-16.955-17.685-27.676-0.99635-4.3439-1.1059-5.603-1.1724-13.474-0.03339-3.9534-0.0065-13.691 0.05976-21.638l0.12046-14.45 37.29-11.961 37.305 11.98 0.12054 15.301c0.19937 25.307 0.12507 28.215-0.84192 32.958-2.3787 11.667-8.6812 21.613-18.811 29.685-3.0629 2.4408-6.2929 4.3967-12.007 7.2704-3.0763 1.5472-5.6831 2.81-5.7927 2.8063-0.10968-4e-3 -2.7239-1.287-5.8095-2.8518zm10.063-5.1182c5.3332-2.6772 7.3462-3.931 11.096-6.9112 1.7462-1.3879 5.2017-4.7878 6.9112-6.8 5.0043-5.8903 8.3414-13.376 9.627-21.596 0.37509-2.3983 0.43829-7.6392 0.30583-25.361l-0.11612-15.536-32.078-10.345-31.995 10.346-0.1031 10.642c-0.1463 15.101-0.12344 26.648 0.05617 28.378 1.4495 13.96 9.148 25.875 21.999 34.048 1.4896 0.94726 9.6519 5.1458 10.04 5.1643 0.1077 5e-3 2.0235-0.90809 4.2573-2.0294zm-7.8899-3.7876c-8.9974-4.5872-15.4-10.509-19.804-18.316-2.5203-4.4682-4.1783-9.809-4.7017-15.145-0.17932-1.8283-0.19295-14.985-0.02913-28.131l0.09532-7.6486 28.093-9.0014 28.126 8.9948 0.09477 8.5894c0.18828 17.065 0.15894 25.451-0.09671 27.644-1.4353 12.311-7.8847 22.446-19.058 29.947-1.9252 1.2925-8.5991 4.838-9.0811 4.8243-0.1111-3e-3 -1.7485-0.79423-3.6388-1.7579z"/>
</svg>
