<svg width="100" height="100" viewBox="0 0 100 100" xmlns="http://www.w3.org/2000/svg">
 <path d="m34.387 88.739c2e-3 1.2285 0.36523 2.4316 1.0469 3.455l3.3378 5.0175a6.248 6.2479 0 0 0 5.203 2.789h12.053a6.248 6.2479 0 0 0 5.203-2.789l3.3378-5.0175a6.2478 6.2477 0 0 0 1.0469-3.455l0.0078-7.4901h-31.246zm-18.761-54.364c0 8.6658 3.2128 16.572 8.5077 22.613 3.2265 3.6816 8.2733 11.373 10.197 17.861 0.0078 0.05078 0.01367 0.10156 0.02148 0.15234h31.296c0.0078-0.05078 0.01367-0.09961 0.02148-0.15234 1.9238-6.4881 6.9706-14.179 10.197-17.861 5.2948-6.0409 8.5077-13.947 8.5077-22.613 0-19.021-15.447-34.433-34.482-34.374-19.924 0.060545-34.267 16.205-34.267 34.374zm34.375-15.625c-8.6151 0-15.625 7.0096-15.625 15.625 0 1.7265-1.3984 3.1249-3.125 3.1249s-3.125-1.3984-3.125-3.1249c0-12.062 9.8124-21.875 21.875-21.875 1.7265 0 3.125 1.3984 3.125 3.1249 0 1.7265-1.3984 3.1249-3.125 3.1249z"/>
</svg>
