<svg width="100" height="100" viewBox="0 0 100 100" xmlns="http://www.w3.org/2000/svg">
 <path d="m50 5.3615c-3.567 0-6.8604 1.9022-8.6444 4.9902l-40.017 69.312c-1.7849 3.0903-1.7849 6.894 0 9.9843 1.7829 3.0903 5.0794 4.9902 8.6464 4.9902h80.03c3.5657 0 6.8634-1.9012 8.6464-4.9902 1.7839-3.0903 1.7849-6.8951 0-9.9843l-40.015-69.312c-1.7829-3.0892-5.0794-4.9902-8.6464-4.9902zm0 9.9843 40.015 69.308h-80.028zm0.0018 18.064c-2.7577-0.0011-4.9921 2.2356-4.9921 4.9922v20.832c0 2.7567 2.2336 4.9902 4.9902 4.9902 2.7565 0 4.9921-2.2337 4.9921-4.9902v-20.832c0-2.7567-2.2336-4.9922-4.9902-4.9922zm0 34.65c-2.7565 0-4.9921 2.2355-4.9921 4.9922 0 2.7565 2.2355 4.9902 4.9921 4.9902 2.7576 0 4.9921-2.2335 4.9921-4.9902 0-2.7565-2.2344-4.9922-4.9921-4.9922z"/>
</svg>
