<svg width="100" height="100" version="1.1" viewBox="0 0 100 100" xmlns="http://www.w3.org/2000/svg">
 <path d="m0.41169 99.044c1.0588-2.458 34.302-72.38 34.703-72.991 0.2505-0.38232 0.9265-0.85058 1.5022-1.0406 0.8932-0.29478 1.2033-0.26421 2.1141 0.20843 1.0282 0.53357 1.6748 1.8373 17.624 35.534 9.1062 19.239 17.025 35.94 17.597 37.113l1.0399 2.132h-74.991zm73.755-15.944c-4.3962-9.2946-7.9912-17.069-7.9891-17.277 2e-3 -0.20763 1.4508-3.4873 3.2192-7.2882 3.3943-7.2956 3.932-8.0589 5.6743-8.056 1.8646 3e-3 2.2233 0.52524 6.0818 8.8527 2.0077 4.3331 6.8856 14.826 10.84 23.317 3.9542 8.4913 7.3734 15.869 7.5982 16.395l0.40877 0.95574h-17.84z"/>
</svg>
