<svg width="100" height="100" viewBox="0 0 100 100" xmlns="http://www.w3.org/2000/svg">
 <path d="m99.263 47.709c-12.766-17.021-30.114-27.496-49.263-27.496-19.149 0-36.497 10.475-49.263 27.496-0.98199 1.473-0.98199 3.2733 0 4.7463 12.766 16.857 30.114 27.332 49.263 27.332 19.149 0 36.497-10.475 49.263-27.496 0.98199-1.3093 0.98199-3.2733 0-4.5826zm-28.314 3.6006c-0.65466 10.475-9.1652 18.985-19.64 19.64-12.766 0.81832-23.077-9.6562-22.422-22.422 0.65466-10.475 9.1652-18.985 19.64-19.64 12.766-0.65466 23.24 9.8199 22.422 22.422zm-9.6562-0.65466c-0.32733 5.5646-4.9099 10.147-10.638 10.638-6.8739 0.491-12.438-5.2373-12.111-12.111 0.32733-5.5646 4.9099-10.147 10.638-10.638 6.8739-0.32733 12.602 5.4009 12.111 12.111z"/>
</svg>
