<svg width="100" height="100" version="1.1" viewBox="0 0 100 100" xmlns="http://www.w3.org/2000/svg">
 <path d="m6.2159 95.604v-1.2873l0.86498-0.46365c3.5636-1.9102 7.5216-5.4391 9.4582-8.4328 0.99475-1.5377 1.6886-3.2838 1.9843-4.9934 0.18448-1.0667 0.18758-4.4585 0.0045-4.9106-0.08016-0.19785-0.59152-0.6341-1.3585-1.1589-5.4864-3.7542-9.8228-8.5359-12.986-14.319-2.8652-5.2387-4.1886-10.432-4.1836-16.418 0.007168-8.6247 3.006-16.225 9.3294-23.644 3.9371-4.6196 10.293-9.1742 16.572-11.876 8.1105-3.4899 15.359-4.9911 24.1-4.9911s15.99 1.5012 24.1 4.9911c6.2967 2.7094 12.624 7.2471 16.589 11.896 6.3572 7.4551 9.3224 15.035 9.3093 23.798-0.0105 7.0271-1.9307 13.196-6.0183 19.334-3.6483 5.4783-8.3977 9.8638-14.69 13.564-5.9261 3.485-13.91 6.1868-21.058 7.1262-4.1124 0.54048-9.9116 0.65397-13.891 0.27183l-2.1396-0.20544-0.3659 0.327c-0.20125 0.17985-0.71488 0.65864-1.1414 1.064-5.6792 5.397-14.688 9.513-23.445 10.712-2.215 0.30316-9.4086 0.90472-10.819 0.90472-0.19452 0-0.21554-0.12548-0.21554-1.2873z"/>
</svg>
