<?xml version="1.0" encoding="UTF-8"?>
<svg width="100" height="100" version="1.1" viewBox="0 0 100 100" xmlns="http://www.w3.org/2000/svg">
 <path d="m12.145 10c-1.0612 0-2.1228 0.404-2.9316 1.2129-1.6178 1.6178-1.6178 4.2455 0 5.8633l7.8262 7.8262c0.53926 0.53926 1.41 0.53926 1.9492 0l0.98242-0.98242 5.8633 5.8633-5.3242 5.3242c-0.70518 0.70518-0.4422 1.9219 0.49805 2.2676l20.119 7.5078c1.1062 0.41481 2.198-0.66321 1.7832-1.7832l-0.027344 0.027344-7.5078-20.119c-0.34568-0.94024-1.5624-1.2032-2.2676-0.49805l-5.3242 5.3242-5.8633-5.8633 0.98242-0.98242c0.53926-0.53926 0.53926-1.41 0-1.9492l-7.8262-7.8262c-0.80888-0.80889-1.8704-1.2129-2.9316-1.2129zm24.355 49c-1.108 0-2 0.892-2 2v7c0 1.108 0.892 2 2 2h27c1.108 0 2-0.892 2-2v-7c0-1.108-0.892-2-2-2h-27zm34.5 0c-1.108 0-2 0.892-2 2v7c0 1.108 0.892 2 2 2h27c1.108 0 2-0.892 2-2v-7c0-1.108-0.892-2-2-2h-27zm-52 15c-1.108 0-2 0.892-2 2v7c0 1.108 0.892 2 2 2h27c1.108 0 2-0.892 2-2v-7c0-1.108-0.892-2-2-2h-27zm35 0c-1.108 0-2 0.892-2 2v7c0 1.108 0.892 2 2 2h27c1.108 0 2-0.892 2-2v-7c0-1.108-0.892-2-2-2h-27zm35 0c-1.108 0-2 0.892-2 2v7c0 1.108 0.892 2 2 2h11v-11h-11zm-87 15c-1.108 0-2 0.892-2 2v7c0 1.108 0.892 2 2 2h27c1.108 0 2-0.892 2-2v-7c0-1.108-0.892-2-2-2h-27zm34.5 0c-1.108 0-2 0.892-2 2v7c0 1.108 0.892 2 2 2h27c1.108 0 2-0.892 2-2v-7c0-1.108-0.892-2-2-2h-27zm34.5 0c-1.108 0-2 0.892-2 2v7c0 1.108 0.892 2 2 2h27c1.108 0 2-0.892 2-2v-7c0-1.108-0.892-2-2-2h-27z"/>
</svg>
