<svg width="100" height="100" version="1.1" viewBox="0 0 100 100" xmlns="http://www.w3.org/2000/svg">
 <path d="m40.183 99.732c-0.03952-0.1475-0.07353-0.53635-0.07558-0.86412-2e-3 -0.32777-0.07857-1.0518-0.17005-1.6091-0.82005-4.9945-3.4306-9.3586-7.4576-12.467-3.6778-2.8389-8.1831-4.1523-12.891-3.7578-2.4915 0.20875-4.4517 0.73649-6.7737 1.8237-0.6874 0.32185-1.2665 0.54271-1.2868 0.49081-0.02034-0.0519-2.2235-3.8488-4.896-8.4376l-4.859-8.3433 0.96108-0.64621c1.8367-1.235 2.7074-2.0124 4.0819-3.6446 1.9176-2.2771 3.5479-5.7291 4.1676-8.8243 0.266-1.3287 0.30056-5.1225 0.05912-6.4915-0.98505-5.5857-3.7352-9.7982-8.4875-13.001l-0.78242-0.52727 4.8588-8.3433c2.6724-4.5888 4.877-8.3898 4.8991-8.4466 0.02214-0.05686 0.46724 0.11073 0.98911 0.37241 4.0002 2.0058 8.1689 2.5204 12.749 1.5738 4.6276-0.95653 8.8907-3.865 11.844-8.0806 1.7014-2.4288 3.1144-6.8245 3.1144-9.689v-0.81939h19.517l0.0745 0.37247c0.04097 0.20486 0.07543 0.64735 0.07657 0.98331 0.0047 1.3899 0.56723 3.9135 1.2533 5.6229 0.91708 2.285 2.0469 4.1238 3.5417 5.7644 4.1962 4.6055 9.6613 6.804 15.703 6.3171 2.4847-0.20022 4.6244-0.78224 6.7342-1.8318 0.72109-0.35873 1.3269-0.61399 1.3463-0.56726 0.01945 0.04674 2.2217 3.8663 4.8941 8.4878l4.8588 8.4029-0.87778 0.5661c-3.5082 2.2625-6.4458 6.0349-7.6662 9.845-1.8767 5.8588-1.0923 11.729 2.2397 16.761 1.0526 1.5896 3.4696 4.0193 5.0582 5.0849l1.1523 0.77298-4.8144 8.3958c-2.6479 4.6177-4.8313 8.4423-4.8519 8.4993-0.02065 0.05694-0.42309-0.09067-0.89439-0.32801-4.2492-2.1399-8.798-2.6508-13.421-1.5076-3.5173 0.86983-6.1159 2.3416-8.7291 4.9438-2.3973 2.3872-3.9298 4.8946-4.8583 7.9488-0.40455 1.3308-0.79025 3.5974-0.79025 4.6439v0.82248h-19.519zm12.678-29.665c4.2822-0.52835 8.3042-2.5468 11.519-5.7805 3.9052-3.9287 5.883-8.7317 5.883-14.286 0-5.5547-1.9778-10.358-5.883-14.286-3.2078-3.2271-7.0524-5.1624-11.519-5.7982-1.303-0.18549-4.418-0.18549-5.7211 0-4.4662 0.63576-8.3108 2.571-11.519 5.7982-3.9052 3.9287-5.883 8.7317-5.883 14.286 0 5.5547 1.9778 10.358 5.883 14.286 4.5916 4.6193 10.525 6.6089 17.24 5.7805z"/>
</svg>
