<svg width="100" height="100" version="1.1" viewBox="0 0 100 100" xmlns="http://www.w3.org/2000/svg"><path d="m50 10.5a5.0005 5.0005 0 0 0-3.1504 1.1172l-45 36.5a5 5 0 0 0-0.73242 7.0332 5 5 0 0 0 7.0332 0.73242l41.85-33.945 41.85 33.945a5 5 0 0 0 7.0332-0.73242 5 5 0 0 0-0.73242-7.0332l-45-36.5a5.0005 5.0005 0 0 0-3.1504-1.1172zm23.967 0c-2.1974 0-3.9668 1.7219-3.9668 3.8613v5.7715l16 12.979v-5.1113-13.639c0-2.1394-1.7694-3.8613-3.9668-3.8613h-8.0664zm-23.967 16.588-36 29.201v29.711c0 2.216 1.784 4 4 4h24v-22.084c0-1.6158 0.892-2.916 2-2.916h12c1.108 0 2 1.3002 2 2.916v22.084h24c2.216 0 4-1.784 4-4v-29.711l-36-29.201z"/></svg>