<svg width="100" height="100" version="1.1" viewBox="0 0 100 100" xmlns="http://www.w3.org/2000/svg">
 <path d="m65.19 6.8097a2.9126 2.9126 0 0 0-2.5073 2.046l-24.691 80.582a2.9126 2.9126 0 0 0 1.9313 3.6379 2.9126 2.9126 0 0 0 3.6379-1.9313l24.692-80.582a2.9126 2.9126 0 0 0-1.9318-3.6379 2.9126 2.9126 0 0 0-1.1306-0.11472zm6.46 19.987-16.311 46.407h10.55l3.3658-11.003h16.829l3.3653 11.003h10.55l-16.375-46.407zm-71.65 0.19389v46.213h8.7378v-21.747c-0.0863-2.2006-0.19433-4.4011-0.32378-6.6017l-0.25883-6.6022h0.25883l20.129 34.951h12.427v-46.213h-8.8028v21.877c0.04315 2.1575 0.10806 4.293 0.19436 6.4074l0.25884 6.3434h-0.19436l-20.064-34.628zm77.669 6.9904c0.21575 0.863 0.49626 1.877 0.84146 3.042 0.3452 1.165 0.69062 2.3084 1.0358 3.4303s0.62571 2.0496 0.84146 2.7832l3.3653 10.744h-12.039l3.3009-10.744c0.1726-0.47465 0.40999-1.273 0.71204-2.3949 0.3452-1.165 0.69062-2.3728 1.0358-3.6242 0.38835-1.2945 0.69017-2.3734 0.90592-3.2364z"/>
</svg>
