<svg width="100" height="100" version="1.1" viewBox="0 0 100 100" xmlns="http://www.w3.org/2000/svg">
 <path d="m98.623 86.456-19.471-19.471c-0.87882-0.87882-2.0701-1.3671-3.32-1.3671h-3.1833c5.3901-6.8939 8.5929-15.565 8.5929-24.998 0-22.439-18.182-40.621-40.621-40.621s-40.621 18.182-40.621 40.621 18.182 40.621 40.621 40.621c9.4327 0 18.104-3.2028 24.998-8.5929v3.1833c0 1.2499 0.48823 2.4412 1.3671 3.32l19.471 19.471c1.8358 1.8358 4.8042 1.8358 6.6205 0l5.5268-5.5268c1.8358-1.8358 1.8358-4.8042 0.0195-6.64zm-58.002-20.838c-13.807 0-24.998-11.171-24.998-24.998 0-13.807 11.171-24.998 24.998-24.998 13.807 0 24.998 11.171 24.998 24.998 0 13.807-11.171 24.998-24.998 24.998z"/>
</svg>
