<svg width="100" height="100" version="1.1" viewBox="0 0 100 100" xmlns="http://www.w3.org/2000/svg">
 <path d="m36.382 89.883c-3.8185-1.3968-3.7295-1.3059-7.6374-7.7988-6.7489-11.213-17.261-25.172-25.755-34.202-1.4944-1.5886-2.7171-2.965-2.7171-3.0587 0-0.0937 0.2539-0.49319 0.56422-0.8877 0.74105-0.94208 0.71172-1.4437-0.13612-2.3287l-0.70034-0.73099 0.74539-1.0476c0.40997-0.57619 0.9391-1.0476 1.1758-1.0476s0.69253-0.22844 1.0129-0.50764c0.32032-0.27921 1.2968-0.79269 2.17-1.1411l1.5876-0.63342 1.9388 0.73881c1.0663 0.40634 2.3557 0.91982 2.8652 1.1411 1.2501 0.54282 1.911 0.5079 3.5946-0.18989 1.344-0.55706 1.4865-0.56551 2.4034-0.1425 3.5379 1.6322 4.8786 2.8881 16.377 15.341 2.2052 2.3882 2.9723 2.7681 3.9742 1.968 0.24288-0.19394 1.8119-1.9395 3.4866-3.879 3.9759-4.6043 13.568-14.156 18.798-18.718 7.8647-6.8607 15.774-12.978 23.714-18.342 3.4553-2.3343 4.6494-2.9991 5.3869-2.9991 0.58261 0 1.1401-0.21282 1.4476-0.55256 0.27503-0.30392 1.1409-0.76542 1.9241-1.0256l1.424-0.47298 0.72915 0.84773c0.40104 0.46624 1.3111 1.1193 2.0224 1.4512 1.7536 0.81832 2.4731 1.6599 2.9541 3.4551 0.38499 1.4368 0.37677 1.5405-0.15736 1.9844-0.30996 0.2576-0.56358 0.72165-0.56358 1.0312 0 0.66187-0.57274 1.3657-5.6749 6.9734-21.5 23.63-38.854 46.135-45.496 59.001-0.75397 1.4603-1.6564 2.7983-2.0702 3.0694-0.40346 0.26436-1.1614 0.90844-1.6842 1.4313-0.52286 0.52287-1.1705 0.95065-1.4391 0.95065-0.26866 0-0.96218 0.25391-1.5412 0.56423-1.3716 0.73514-2.1634 0.69468-4.7222-0.24129z"/>
</svg>
